<svg width="52" height="62" viewBox="0 0 52 62" fill="none" xmlns="http://www.w3.org/2000/svg">
<path d="M38.3305 0.0310272C38.1987 -0.116223 33.4518 0.0891523 29.3211 4.57253C25.1903 9.05203 25.8258 14.1903 25.9188 14.322C26.0118 14.4538 31.8088 14.6592 35.5095 9.44728C39.2101 4.2354 38.4622 0.182152 38.3305 0.0310272ZM51.1722 45.4964C50.9862 45.1244 42.1628 40.7147 42.9843 32.2362C43.8058 23.7538 49.475 21.4288 49.5641 21.1769C49.6532 20.925 47.2507 18.1157 44.7048 16.6935C42.8356 15.6909 40.7668 15.1164 38.6482 15.0118C38.2297 15.0002 36.7766 14.6437 33.789 15.4613C31.8205 15.9999 27.3836 17.7437 26.163 17.8134C24.9384 17.8832 21.296 15.7907 17.3783 15.2365C14.8712 14.7522 12.213 15.7442 10.3103 16.5075C8.41158 17.267 4.80008 19.4293 2.27358 25.1759C-0.252924 30.9187 1.06845 40.0172 2.01395 42.8459C2.95945 45.6708 4.43583 50.3014 6.94683 53.6804C9.17883 57.4934 12.1393 60.14 13.3755 61.039C14.6116 61.938 18.0991 62.5348 20.5171 61.2987C22.4623 60.1052 25.9731 59.4193 27.3603 59.4697C28.7437 59.52 31.4717 60.0664 34.2656 61.5583C36.4782 62.3217 38.5707 62.0039 40.6671 61.1514C42.7635 60.295 45.7976 57.0478 49.3393 50.4641C50.684 47.4029 51.2962 45.7483 51.1722 45.4964Z" fill="black"/>
<path d="M38.3305 0.0310272C38.1987 -0.116223 33.4518 0.0891523 29.3211 4.57253C25.1903 9.05203 25.8258 14.1903 25.9188 14.322C26.0118 14.4538 31.8088 14.6592 35.5095 9.44728C39.2101 4.2354 38.4622 0.182152 38.3305 0.0310272ZM51.1722 45.4964C50.9862 45.1244 42.1628 40.7147 42.9843 32.2362C43.8058 23.7538 49.475 21.4288 49.5641 21.1769C49.6532 20.925 47.2507 18.1157 44.7048 16.6935C42.8356 15.6909 40.7668 15.1164 38.6482 15.0118C38.2297 15.0002 36.7766 14.6437 33.789 15.4613C31.8205 15.9999 27.3836 17.7437 26.163 17.8134C24.9384 17.8832 21.296 15.7907 17.3783 15.2365C14.8712 14.7522 12.213 15.7442 10.3103 16.5075C8.41158 17.267 4.80008 19.4293 2.27358 25.1759C-0.252924 30.9187 1.06845 40.0172 2.01395 42.8459C2.95945 45.6708 4.43583 50.3014 6.94683 53.6804C9.17883 57.4934 12.1393 60.14 13.3755 61.039C14.6116 61.938 18.0991 62.5348 20.5171 61.2987C22.4623 60.1052 25.9731 59.4193 27.3603 59.4697C28.7437 59.52 31.4717 60.0664 34.2656 61.5583C36.4782 62.3217 38.5707 62.0039 40.6671 61.1514C42.7635 60.295 45.7976 57.0478 49.3393 50.4641C50.684 47.4029 51.2962 45.7483 51.1722 45.4964Z" fill="black"/>
</svg>
