<svg width="157" height="167" viewBox="0 0 157 167" fill="none" xmlns="http://www.w3.org/2000/svg">
<path d="M78.1714 76.3936C89.9269 76.3936 99.4913 66.8292 99.4913 55.0738C99.4913 43.3183 89.9269 33.7539 78.1714 33.7539C66.4159 33.7539 56.8516 43.3183 56.8516 55.0738C56.8516 66.8306 66.4159 76.3936 78.1714 76.3936ZM78.1714 37.3087C87.9677 37.3087 95.9381 45.2788 95.9381 55.0754C95.9381 64.872 87.968 72.8421 78.1714 72.8421C68.3748 72.8421 60.4047 64.872 60.4047 55.0754C60.4047 45.2788 68.3748 37.3087 78.1714 37.3087Z" fill="#006872"/>
<path d="M83.7984 59.6156C84.3448 60.4341 85.4481 60.6506 86.2627 60.108L91.5919 56.5545C92.6423 55.8534 92.6487 54.3029 91.5919 53.5979L86.2627 50.0445C85.4455 49.5006 84.3436 49.721 83.7984 50.5368C83.2545 51.3527 83.4749 52.4559 84.2907 53.0011L87.4033 55.0761L84.2907 57.1511C83.4749 57.695 83.2545 58.7983 83.7984 59.6154V59.6156Z" fill="#006872"/>
<path d="M72.5451 59.6144C73.089 58.7985 72.8686 57.6953 72.0528 57.1501L68.9402 55.0751L72.0528 53C72.8699 52.4562 73.0903 51.3529 72.5451 50.5358C72.0012 49.7186 70.898 49.4983 70.0808 50.0434L64.7516 53.5969C63.6987 54.298 63.6961 55.8498 64.7516 56.5535L70.0808 60.1069C70.8941 60.6482 71.9986 60.4343 72.5451 59.6146V59.6144Z" fill="#006872"/>
<path d="M74.0582 67.4213C74.9874 67.7306 75.994 67.2306 76.3059 66.2975L83.4125 44.9776C83.7231 44.0471 83.2205 43.0405 82.2887 42.7299C81.3594 42.4206 80.3515 42.9232 80.0422 43.8537L72.9356 65.1736C72.625 66.1041 73.1276 67.1107 74.0582 67.4213Z" fill="#006872"/>
<path d="M53.9746 109.902L59.7175 111.184C60.1158 112.576 60.67 113.913 61.3724 115.178L58.2186 120.159C57.7739 120.862 57.8758 121.778 58.4635 122.366L61.6868 125.589C62.2745 126.177 63.1909 126.279 63.8933 125.834L68.8771 122.679C70.1492 123.383 71.4844 123.938 72.8687 124.334L74.1524 130.078C74.3341 130.89 75.0546 131.468 75.8859 131.468H80.4483C81.2809 131.468 82.0001 130.89 82.1818 130.078L83.4642 124.335C84.8561 123.937 86.1926 123.383 87.4581 122.68L92.4396 125.834C93.142 126.279 94.0584 126.177 94.6461 125.589L97.8694 122.366C98.4571 121.778 98.559 120.862 98.1143 120.16L94.9593 115.177C95.6642 113.905 96.2184 112.568 96.6141 111.185L102.358 109.903C103.17 109.721 103.748 109.001 103.748 108.169V103.607C103.748 102.774 103.17 102.055 102.358 101.873L96.6141 100.59C96.2172 99.2054 95.663 97.8702 94.9593 96.598L98.1143 91.6142C98.559 90.9118 98.4572 89.9955 97.8694 89.4077L94.6461 86.1844C94.0584 85.5967 93.1407 85.4949 92.4383 85.9408L87.4582 89.1023C86.2003 88.4024 84.8637 87.8482 83.4652 87.4436L82.1815 81.6953C81.9998 80.8834 81.2794 80.306 80.4481 80.306L75.8856 80.3047C75.0543 80.3047 74.3339 80.8821 74.1521 81.694L72.8685 87.4423C71.4701 87.847 70.1335 88.4012 68.8755 89.101L63.8954 85.9395C63.193 85.4935 62.2753 85.5941 61.6876 86.1831L58.4642 89.4064C57.8765 89.9941 57.7747 90.9105 58.2194 91.6129L61.3744 96.5967C60.6694 97.8688 60.1152 99.204 59.7196 100.588L53.9753 101.872C53.1633 102.054 52.5859 102.774 52.5859 103.605V108.168C52.5847 108.999 53.1621 109.72 53.974 109.901L53.9746 109.902ZM56.1385 105.027L61.5581 103.817C62.2309 103.666 62.7555 103.142 62.905 102.468C63.2929 100.72 63.985 99.0523 64.9581 97.5121C65.3254 96.9321 65.3254 96.1923 64.9581 95.6124L61.9822 90.912L63.1937 89.7005L67.894 92.6842C68.4766 93.0553 69.2202 93.0528 69.8028 92.6816C71.3108 91.7188 72.9785 91.0254 74.7595 90.6194C75.4284 90.4674 75.9504 89.9441 76.0999 89.2752L77.3102 83.8556H79.0256L80.2358 89.2752C80.3853 89.9441 80.9073 90.4674 81.5762 90.6194C83.3574 91.0242 85.0251 91.7175 86.5329 92.6816C87.1142 93.0528 87.8591 93.0541 88.4417 92.6842L93.142 89.7005L94.3536 90.912L91.3776 95.6124C91.0103 96.1923 91.0103 96.9321 91.3776 97.5121C92.352 99.0536 93.0428 100.72 93.4308 102.468C93.5803 103.141 94.1048 103.666 94.7776 103.817L100.197 105.027V106.743L94.7776 107.953C94.1048 108.104 93.5803 108.628 93.4308 109.301C93.0428 111.049 92.352 112.715 91.3764 114.257C91.009 114.837 91.0103 115.577 91.3776 116.157L94.3536 120.857L93.1408 122.07L88.4404 119.094C87.8579 118.725 87.1155 118.727 86.5368 119.096C85.0134 120.066 83.3482 120.755 81.5864 121.148C80.9136 121.298 80.3878 121.822 80.2383 122.495L79.028 127.915H77.3126L76.1024 122.495C75.9516 121.822 75.427 121.298 74.7543 121.148C73.0066 120.759 71.3387 120.068 69.7985 119.095C69.2186 118.728 68.4788 118.728 67.8988 119.095L63.1984 122.071L61.9856 120.858L64.9616 116.158C65.3302 115.577 65.3289 114.834 64.959 114.254C63.9898 112.731 63.3003 111.064 62.9085 109.303C62.759 108.63 62.2344 108.104 61.5616 107.954L56.142 106.744L56.1385 105.027Z" fill="#006872"/>
<path d="M78.1782 112.232C81.6736 112.232 84.518 109.387 84.518 105.892C84.518 102.39 81.6748 99.543 78.1782 99.543C74.6765 99.543 71.8281 102.391 71.8281 105.892C71.8294 109.388 74.6764 112.232 78.1782 112.232ZM78.1782 103.096C79.7145 103.096 80.9646 104.35 80.9646 105.892C80.9646 107.428 79.7145 108.678 78.1782 108.678C76.6367 108.678 75.3814 107.428 75.3814 105.892C75.3814 104.351 76.6367 103.096 78.1782 103.096Z" fill="#006872"/>
<path d="M78.1741 118.586C85.1739 118.586 90.8693 112.891 90.8693 105.891C90.8693 98.885 85.1739 93.1855 78.1741 93.1855C71.1682 93.1855 65.4688 98.8846 65.4688 105.891C65.4688 112.891 71.1678 118.586 78.1741 118.586ZM78.1741 96.739C83.2147 96.739 87.3158 100.844 87.3158 105.891C87.3158 110.931 83.2147 115.033 78.1741 115.033C73.1283 115.033 69.0222 110.931 69.0222 105.891C69.0222 100.844 73.1283 96.739 78.1741 96.739Z" fill="#006872"/>
<path d="M78.1691 147.459C74.2511 147.459 71.0625 150.648 71.0625 154.566C71.0625 158.484 74.2511 161.672 78.1691 161.672C82.0871 161.672 85.2757 158.484 85.2757 154.566C85.2757 150.648 82.0871 147.459 78.1691 147.459ZM78.1691 158.119C76.2101 158.119 74.6156 156.525 74.6156 154.566C74.6156 152.606 76.2099 151.012 78.1691 151.012C80.1283 151.012 81.7226 152.605 81.7226 154.566C81.7226 156.525 80.1283 158.119 78.1691 158.119Z" fill="#006872"/>
<path d="M85.2786 10.6582H70.9479C69.9671 10.6582 69.1719 11.4534 69.1719 12.4342C69.1719 13.415 69.9671 14.2102 70.9479 14.2102L85.2786 14.2115C86.2594 14.2115 87.0546 13.4163 87.0546 12.4355C87.0546 11.4547 86.2594 10.6582 85.2786 10.6582V10.6582Z" fill="#006872"/>
<path d="M15.9869 11.5468C15.9869 13.0187 14.7934 14.2121 13.3216 14.2121C11.8497 14.2121 10.6562 13.0187 10.6562 11.5468C10.6562 10.075 11.8497 8.88281 13.3216 8.88281C14.7934 8.88281 15.9869 10.075 15.9869 11.5468Z" fill="#006872"/>
<path d="M154.565 123.473C154.565 124.944 153.372 126.138 151.9 126.138C150.428 126.138 149.234 124.944 149.234 123.473C149.234 122.001 150.428 120.809 151.9 120.809C153.372 120.809 154.565 122.001 154.565 123.473Z" fill="#006872"/>
<path d="M149.236 63.0696C149.236 64.5414 148.043 65.7336 146.572 65.7336C145.1 65.7336 143.906 64.5414 143.906 63.0696C143.906 61.5978 145.1 60.4043 146.572 60.4043C148.043 60.4043 149.236 61.5978 149.236 63.0696Z" fill="#006872"/>
<path d="M136.798 7.99409C136.798 9.46593 135.605 10.6594 134.134 10.6594C132.662 10.6594 131.469 9.46593 131.469 7.99409C131.469 6.52226 132.662 5.33008 134.134 5.33008C135.605 5.33008 136.798 6.52226 136.798 7.99409Z" fill="#006872"/>
<path d="M138.573 148.347C138.573 149.819 137.379 151.012 135.907 151.012C134.436 151.012 133.242 149.819 133.242 148.347C133.242 146.875 134.436 145.682 135.907 145.682C137.379 145.682 138.573 146.875 138.573 148.347Z" fill="#006872"/>
<path d="M10.6574 57.7382C10.6574 59.2101 9.46526 60.4035 7.99343 60.4035C6.52159 60.4035 5.32812 59.2101 5.32812 57.7382C5.32812 56.2664 6.52159 55.0742 7.99343 55.0742C9.46526 55.0742 10.6574 56.2664 10.6574 57.7382Z" fill="#006872"/>
<path d="M23.0962 87.9407C23.0962 89.4125 21.9028 90.606 20.4309 90.606C18.9591 90.606 17.7656 89.4125 17.7656 87.9407C17.7656 86.4689 18.9591 85.2754 20.4309 85.2754C21.9028 85.2754 23.0962 86.4689 23.0962 87.9407Z" fill="#006872"/>
<path d="M19.5415 159.007C19.5415 160.479 18.3481 161.671 16.8762 161.671C15.4044 161.671 14.2109 160.479 14.2109 159.007C14.2109 157.535 15.4044 156.342 16.8762 156.342C18.3481 156.342 19.5415 157.535 19.5415 159.007Z" fill="#006872"/>
<path d="M11.548 119.035C5.18107 119.035 0 124.215 0 130.583C0 136.95 5.18107 142.131 11.548 142.131C17.9148 142.131 23.0959 136.95 23.0959 130.583C23.0959 124.215 17.9148 119.035 11.548 119.035ZM11.548 138.578C7.13895 138.578 3.55347 134.991 3.55347 130.583C3.55347 126.174 7.14027 122.589 11.548 122.589C15.957 122.589 19.5424 126.175 19.5424 130.583C19.5424 134.991 15.9557 138.578 11.548 138.578Z" fill="#006872"/>
<path d="M110.031 0H46.3096C37.4282 0 30.2031 7.22506 30.2031 16.1078V150.892C30.2031 159.774 37.4282 167 46.3109 167H110.033C118.914 167 126.14 159.774 126.14 150.892L126.139 16.1078C126.139 7.22506 118.914 0 110.033 0H110.031ZM122.586 142.129H33.7556V24.871H122.586V142.129ZM110.031 163.448H46.3096C39.3874 163.448 33.755 157.815 33.755 150.893V145.681H122.585V150.892C122.586 157.815 116.954 163.448 110.032 163.448H110.031ZM122.586 21.3185H33.7556V16.1078C33.7556 9.18558 39.3877 3.55314 46.3102 3.55314H110.032C116.954 3.55314 122.586 9.18525 122.586 16.1078L122.586 21.3185Z" fill="#006872"/>
<path d="M145.684 35.5331C151.562 35.5331 156.344 30.7515 156.344 24.873C156.344 18.9944 151.562 14.2129 145.684 14.2129C139.805 14.2129 135.023 18.9944 135.023 24.873C135.023 30.7515 139.805 35.5331 145.684 35.5331ZM145.684 17.7664C149.602 17.7664 152.79 20.955 152.79 24.873C152.79 28.791 149.602 31.9796 145.684 31.9796C141.766 31.9796 138.577 28.791 138.577 24.873C138.577 20.955 141.764 17.7664 145.684 17.7664Z" fill="#006872"/>
<path d="M135.906 95.9375C132.478 95.9375 129.688 98.7265 129.688 102.156C129.688 105.585 132.477 108.375 135.906 108.375C139.335 108.375 142.125 105.586 142.125 102.156C142.125 98.7265 139.335 95.9375 135.906 95.9375ZM135.906 104.82C134.437 104.82 133.241 103.625 133.241 102.155C133.241 100.686 134.436 99.4896 135.906 99.4896C137.376 99.4896 138.572 100.684 138.572 102.155C138.572 103.625 137.376 104.82 135.906 104.82Z" fill="#006872"/>
<path d="M39.0827 138.577H117.252C118.233 138.577 119.029 137.781 119.029 136.801L119.03 30.2031C119.03 29.2223 118.235 28.4271 117.254 28.4271L39.0807 28.4258C38.0999 28.4258 37.3047 29.221 37.3047 30.2018V136.799C37.3034 137.781 38.0999 138.577 39.0807 138.577H39.0827ZM115.477 31.9791V71.064H106.595C105.614 71.064 104.819 71.8592 104.819 72.84C104.819 73.8208 105.614 74.616 106.595 74.616H115.477V78.1695H106.595C105.614 78.1695 104.819 78.9647 104.819 79.9455C104.819 80.9263 105.614 81.7215 106.595 81.7215H115.477V85.275H106.595C105.614 85.275 104.819 86.0702 104.819 87.051C104.819 88.0318 105.614 88.827 106.595 88.827H115.477V135.019L40.8578 135.023V88.8309H49.7405C50.7213 88.8309 51.5165 88.0356 51.5165 87.0548C51.5165 86.074 50.7213 85.2788 49.7405 85.2788H40.8578V81.7254H49.7405C50.7213 81.7254 51.5165 80.9301 51.5165 79.9494C51.5165 78.9685 50.7213 78.1733 49.7405 78.1733H40.8578V74.6199H49.7405C50.7213 74.6199 51.5165 73.8246 51.5165 72.8439C51.5165 71.8631 50.7213 71.0678 49.7405 71.0678H40.8578V31.983L115.477 31.9791Z" fill="#006872"/>
</svg>
