<svg width="45" height="47" viewBox="0 0 45 47" fill="none" xmlns="http://www.w3.org/2000/svg">
<path d="M12.1668 46.5316C9.12828 46.5316 6.28243 45.2274 4.22853 43.1476C0.245283 39.115 -0.863916 32.0768 4.71968 26.425L27.6275 3.23053C29.9493 0.880531 32.9032 -0.0289192 35.7303 0.739531C38.5103 1.49153 40.7851 3.79688 41.5301 6.60983C42.2868 9.47683 41.3914 12.4684 39.072 14.8184L17.1629 37.0024C15.9127 38.269 14.498 39.0187 13.0786 39.1691C11.671 39.3195 10.3291 38.8636 9.38913 37.9118C7.68773 36.1822 7.44333 32.9369 10.2774 30.0699L25.6652 14.4894C26.2974 13.8502 27.322 13.8502 27.9541 14.4894C28.5863 15.1286 28.5863 16.1673 27.9541 16.8065L12.564 32.3893C11.2339 33.7335 11.1117 35.019 11.678 35.5947C11.9271 35.8438 12.3031 35.959 12.7379 35.9096C13.4029 35.8415 14.162 35.402 14.874 34.6853L36.7831 12.5036C38.2871 10.9808 38.8628 9.19013 38.4046 7.46288C38.1755 6.61823 37.7321 5.84708 37.1174 5.22415C36.5027 4.60121 35.7376 4.14762 34.896 3.90733C33.1899 3.44438 31.418 4.02953 29.914 5.55233L7.00623 28.7468C2.73863 33.0685 3.76088 38.0434 6.51508 40.8329C9.27163 43.6223 14.1808 44.661 18.4507 40.3347L41.3585 17.1402C41.5079 16.9883 41.686 16.8676 41.8825 16.7853C42.079 16.7029 42.2899 16.6605 42.503 16.6605C42.716 16.6605 42.9269 16.7029 43.1234 16.7853C43.3199 16.8676 43.4981 16.9883 43.6474 17.1402C43.9515 17.4496 44.122 17.8661 44.122 18.2999C44.122 18.7337 43.9515 19.1502 43.6474 19.4596L20.7396 42.6541C18.0395 45.3848 15.015 46.5316 12.1668 46.5316Z" fill="black"/>
</svg>
