<svg width="107" height="107" viewBox="0 0 107 107" fill="none" xmlns="http://www.w3.org/2000/svg">
<path d="M1.78333 10.7H8.91667C9.90306 10.7 10.7 9.90306 10.7 8.91667V1.78333C10.7 0.796936 9.90306 0 8.91667 0H1.78333C0.796936 0 0 0.796936 0 1.78333V8.91667C0 9.90306 0.796936 10.7 1.78333 10.7ZM3.56667 3.56667H7.13333V7.13333H3.56667V3.56667Z" fill="#006872"/>
<path d="M1.78333 58.8499H8.91667C9.90306 58.8499 10.7 58.053 10.7 57.0666V49.9332C10.7 48.9468 9.90306 48.1499 8.91667 48.1499H1.78333C0.796936 48.1499 0 48.9468 0 49.9332V57.0666C0 58.053 0.796936 58.8499 1.78333 58.8499ZM3.56667 51.7166H7.13333V55.2832H3.56667V51.7166Z" fill="#006872"/>
<path d="M1.78333 107H8.91667C9.90306 107 10.7 106.203 10.7 105.217V98.0834C10.7 97.097 9.90306 96.3 8.91667 96.3H1.78333C0.796936 96.3 0 97.097 0 98.0834V105.217C0 106.203 0.796936 107 1.78333 107ZM3.56667 99.8667H7.13333V103.433H3.56667V99.8667Z" fill="#006872"/>
<path d="M57.0651 10.7C58.0515 10.7 58.8484 9.90306 58.8484 8.91667V1.78333C58.8484 0.796936 58.0515 0 57.0651 0H49.9318C48.9454 0 48.1484 0.796936 48.1484 1.78333V8.91667C48.1484 9.90306 48.9454 10.7 49.9318 10.7H57.0651ZM51.7151 3.56667H55.2818V7.13333H51.7151V3.56667Z" fill="#006872"/>
<path d="M57.0651 107C58.0515 107 58.8484 106.203 58.8484 105.217V98.0834C58.8484 97.097 58.0515 96.3 57.0651 96.3H49.9318C48.9454 96.3 48.1484 97.097 48.1484 98.0834V105.217C48.1484 106.203 48.9454 107 49.9318 107H57.0651ZM51.7151 99.8667H55.2818V103.433H51.7151V99.8667Z" fill="#006872"/>
<path d="M105.217 0H98.0841C97.0977 0 96.3008 0.796936 96.3008 1.78333V8.91667C96.3008 9.90306 97.0977 10.7 98.0841 10.7H105.217C106.204 10.7 107.001 9.90306 107.001 8.91667V1.78333C107.001 0.796936 106.204 0 105.217 0ZM103.434 7.13333H99.8674V3.56667H103.434V7.13333Z" fill="#006872"/>
<path d="M105.217 48.1499H98.0841C97.0977 48.1499 96.3008 48.9468 96.3008 49.9332V57.0666C96.3008 58.053 97.0977 58.8499 98.0841 58.8499H105.217C106.204 58.8499 107.001 58.053 107.001 57.0666V49.9332C107.001 48.9468 106.204 48.1499 105.217 48.1499ZM103.434 55.2832H99.8674V51.7166H103.434V55.2832Z" fill="#006872"/>
<path d="M105.217 96.3H98.0841C97.0977 96.3 96.3008 97.097 96.3008 98.0834V105.217C96.3008 106.203 97.0977 107 98.0841 107H105.217C106.204 107 107.001 106.203 107.001 105.217V98.0834C107.001 97.097 106.204 96.3 105.217 96.3ZM103.434 103.433H99.8674V99.8667H103.434V103.433Z" fill="#006872"/>
<path d="M26.75 3.56665H32.1V7.13332H26.75V3.56665Z" fill="#006872"/>
<path d="M16.0508 3.56665H21.4008V7.13332H16.0508V3.56665Z" fill="#006872"/>
<path d="M37.4492 3.56665H42.7992V7.13332H37.4492V3.56665Z" fill="#006872"/>
<path d="M74.8984 3.56665H80.2484V7.13332H74.8984V3.56665Z" fill="#006872"/>
<path d="M64.1992 3.56665H69.5492V7.13332H64.1992V3.56665Z" fill="#006872"/>
<path d="M85.6016 3.56665H90.9516V7.13332H85.6016V3.56665Z" fill="#006872"/>
<path d="M74.8984 99.8667H80.2484V103.433H74.8984V99.8667Z" fill="#006872"/>
<path d="M64.1992 99.8667H69.5492V103.433H64.1992V99.8667Z" fill="#006872"/>
<path d="M85.6016 99.8667H90.9516V103.433H85.6016V99.8667Z" fill="#006872"/>
<path d="M26.75 99.8667H32.1V103.433H26.75V99.8667Z" fill="#006872"/>
<path d="M16.0508 99.8667H21.4008V103.433H16.0508V99.8667Z" fill="#006872"/>
<path d="M37.4492 99.8667H42.7992V103.433H37.4492V99.8667Z" fill="#006872"/>
<path d="M3.56641 26.75H7.13307V32.1H3.56641V26.75Z" fill="#006872"/>
<path d="M3.56641 37.45H7.13307V42.8H3.56641V37.45Z" fill="#006872"/>
<path d="M3.56641 16.05H7.13307V21.4H3.56641V16.05Z" fill="#006872"/>
<path d="M99.8672 26.75H103.434V32.1H99.8672V26.75Z" fill="#006872"/>
<path d="M99.8672 37.45H103.434V42.8H99.8672V37.45Z" fill="#006872"/>
<path d="M99.8672 16.05H103.434V21.4H99.8672V16.05Z" fill="#006872"/>
<path d="M99.8672 74.8999H103.434V80.2499H99.8672V74.8999Z" fill="#006872"/>
<path d="M99.8672 85.6001H103.434V90.9501H99.8672V85.6001Z" fill="#006872"/>
<path d="M99.8672 64.2H103.434V69.55H99.8672V64.2Z" fill="#006872"/>
<path d="M3.56641 74.8999H7.13307V80.2499H3.56641V74.8999Z" fill="#006872"/>
<path d="M3.56641 85.6001H7.13307V90.9501H3.56641V85.6001Z" fill="#006872"/>
<path d="M3.56641 64.2H7.13307V69.55H3.56641V64.2Z" fill="#006872"/>
<path d="M14.2656 16.0501V90.9501C14.2656 91.9365 15.0626 92.7334 16.049 92.7334H90.949C91.9354 92.7334 92.7323 91.9365 92.7323 90.9501V16.0501C92.7323 15.0637 91.9354 14.2667 90.949 14.2667H16.049C15.0626 14.2667 14.2656 15.0637 14.2656 16.0501ZM17.8323 89.1667V32.1001H89.1656V89.1667H17.8323ZM89.1656 17.8334V28.5334H17.8323V17.8334H89.1656Z" fill="#006872"/>
<path d="M21.3984 21.4H26.7484V24.9667H21.3984V21.4Z" fill="#006872"/>
<path d="M30.3164 21.4H35.6664V24.9667H30.3164V21.4Z" fill="#006872"/>
<path d="M39.2344 21.4H44.5844V24.9667H39.2344V21.4Z" fill="#006872"/>
<path d="M53.5 21.4H85.6V24.9667H53.5V21.4Z" fill="#006872"/>
<path d="M72.5955 46.8884L70.0742 49.4098L79.513 58.8494L70.0742 68.2882L72.5955 70.8095L83.2955 60.1095C83.993 59.4121 83.993 58.2848 83.2955 57.5882L72.5955 46.8884Z" fill="#006872"/>
<path d="M34.4028 46.8884L23.7027 57.5884C23.0053 58.2858 23.0053 59.4132 23.7027 60.1098L34.4028 70.8098L36.9241 68.2884L27.4853 58.8496L36.9241 49.4108L34.4028 46.8884Z" fill="#006872"/>
<path d="M42.8984 68.9488L51.8143 43.9841L55.1716 45.1831L46.2558 70.1477L42.8984 68.9488Z" fill="#006872"/>
<path d="M53.5 65.9833H57.0667V69.5499H53.5V65.9833Z" fill="#006872"/>
<path d="M60.6328 65.9833H64.1995V69.5499H60.6328V65.9833Z" fill="#006872"/>
</svg>
