<svg width="47" height="52" viewBox="0 0 47 52" fill="none" xmlns="http://www.w3.org/2000/svg">
<path d="M32.9167 5.20898V11.0319H29.125L34 15.7194L38.875 11.0319H35.0833V5.20898H32.9167ZM27.5 14.584C27.5 18.0319 30.4142 20.834 34 20.834C37.5858 20.834 40.5 18.0319 40.5 14.584H38.3333C38.3333 16.8861 36.3942 18.7507 34 18.7507C31.6058 18.7507 29.6667 16.8861 29.6667 14.584H27.5Z" fill="black"/>
<path d="M31.6429 50.4434V24.717M40 24.717H1V50.4434H40V24.717ZM26.0714 24.717C26.0714 24.717 26.0714 19 20.5 19C14.9286 19 14.9286 24.717 14.9286 24.717H26.0714ZM9.35714 50.4434V24.717V50.4434Z" stroke="black" stroke-width="2" stroke-linecap="round" stroke-linejoin="round"/>
</svg>
