<svg width="113" height="130" viewBox="0 0 113 130" fill="none" xmlns="http://www.w3.org/2000/svg">
<path d="M112.125 32.1295L89.1743 18.8812L78.9503 24.7845V13.2518L56.0042 0L33.055 13.2518V24.719L22.9472 18.8832L0 32.1316V58.627L10.6264 64.765L0 70.9006V97.3983L22.9472 110.643L33.055 104.807V116.03L56.0031 129.28L78.9546 116.031V104.743L89.1741 110.643L112.124 97.3972V70.8982L101.496 64.7626L112.124 58.627L112.125 32.1295ZM108.691 56.6446L90.8911 66.9203L90.8956 46.3708L108.691 36.0962L108.691 56.6446ZM108.691 95.4141L90.8911 105.687L90.8956 85.1361L108.691 74.8635L108.691 95.4141ZM75.52 114.048L57.7198 124.323L57.7232 103.77L75.5199 93.4974L75.52 114.048ZM22.9481 22.8482L40.7448 33.1208L22.9492 43.3954L5.15013 33.1208L22.9481 22.8482ZM56.0039 3.96468L73.7995 14.2404L56.0062 24.5141L38.2071 14.2416L56.0039 3.96468ZM56.0062 100.798L38.2071 90.5231L56.0027 80.2506L73.8029 90.5231L56.0062 100.798ZM42.4604 36.0942V56.6437L24.6636 66.9194L24.6647 46.3688L42.4604 36.0942ZM66.2326 70.8959V82.1875L56.003 76.2841L45.8952 82.1199V70.8982L35.2689 64.7626L45.8952 58.6247V47.1575L56.0053 52.9944L66.2326 47.0876V58.6227L76.8555 64.7583L66.2326 70.8959ZM89.1798 43.3936L71.383 33.1191L89.1752 22.8465L106.975 33.1191L89.1798 43.3936ZM75.5165 26.767L66.2326 32.1269V43.1221L57.7209 48.0368L57.722 27.4873L75.5153 17.2147L75.5165 26.767ZM22.9474 71.8765L31.8334 66.7454L40.7442 71.8912L22.9486 82.1626L5.1495 71.8912L14.0603 66.7454L22.9474 71.8765ZM24.6653 85.1372L42.4609 74.8658V84.1047L33.0553 89.5325V100.844L24.6653 105.687V85.1372ZM89.1784 82.1623L71.3816 71.8878L80.2889 66.742L89.1737 71.873L98.062 66.742L106.974 71.8878L89.1784 82.1623Z" fill="#006872"/>
</svg>
