<svg width="42" height="42" viewBox="0 0 42 42" fill="none" xmlns="http://www.w3.org/2000/svg">
<path d="M13.398 13.258C10.8944 15.386 9.97736 19.2663 12.138 22.379C14.1684 25.2985 16.7032 27.8325 19.6234 29.862C22.736 32.0227 26.6164 31.1057 28.7444 28.602L28.7677 28.6137C31.4853 29.8734 34.3701 30.7355 37.3334 31.1733V37.3333H37.324C18.718 37.359 4.64569 23.1257 4.66669 4.676V4.66667H10.8267V4.669C11.2654 7.63233 12.1287 10.5163 13.3864 13.2323L13.398 13.2557V13.258ZM37.3334 42H39.6667C40.2855 42 40.879 41.7542 41.3166 41.3166C41.7542 40.879 42 40.2855 42 39.6667V29.162C42.0005 28.6023 41.7998 28.061 41.4344 27.6369C41.069 27.2129 40.5634 26.9343 40.0097 26.852L38.017 26.558C35.4963 26.1839 33.0423 25.4499 30.73 24.3787L28.973 23.5643C28.4797 23.3358 27.9219 23.2867 27.3962 23.4256C26.8705 23.5645 26.4098 23.8826 26.0937 24.325L25.298 25.438C24.6004 26.4157 23.268 26.712 22.2857 26.0283C19.8228 24.3163 17.6847 22.179 15.9717 19.7167C15.288 18.732 15.5867 17.3997 16.562 16.7043L17.675 15.911C18.118 15.5948 18.4365 15.1337 18.5754 14.6074C18.7143 14.0812 18.6649 13.523 18.4357 13.0293L17.619 11.27C16.5488 8.95754 15.8157 6.50357 15.442 3.983L15.1457 1.99033C15.0634 1.43666 14.7848 0.931022 14.3608 0.565647C13.9367 0.200273 13.3954 -0.000482449 12.8357 8.7066e-07H2.33336C1.71452 8.7066e-07 1.12103 0.245833 0.683443 0.683418C0.245858 1.121 2.52567e-05 1.7145 2.52567e-05 2.33333V4.669C-0.0233081 25.6853 16.1234 42.0303 37.331 42H37.3334Z" fill="#006872"/>
</svg>
