<svg width="43" height="40" viewBox="0 0 43 40" fill="none" xmlns="http://www.w3.org/2000/svg">
<path d="M25.5906 0.322437C26.4237 0.322371 27.2424 0.539984 27.9655 0.953717C28.6886 1.36745 29.291 1.96294 29.7131 2.68119L31.4429 5.62856H35.8438C37.675 5.62856 39.4313 6.35589 40.7265 7.65061C42.0216 8.94532 42.7494 10.7014 42.75 12.5327V32.7202C42.75 33.6271 42.5714 34.5252 42.2243 35.3631C41.8772 36.201 41.3685 36.9623 40.7272 37.6036C40.0859 38.2449 39.3246 38.7537 38.4867 39.1007C37.6488 39.4478 36.7507 39.6264 35.8438 39.6264H7.15625C5.3246 39.6264 3.56797 38.8988 2.27279 37.6036C0.97762 36.3085 0.25 34.5518 0.25 32.7202V12.5327C0.25 10.701 0.97762 8.9444 2.27279 7.64923C3.56797 6.35406 5.3246 5.62644 7.15625 5.62644H11.5763L13.4356 2.60044C13.8632 1.9039 14.4621 1.32859 15.1752 0.929411C15.8884 0.530235 16.692 0.320529 17.5093 0.320312H25.5906V0.322437ZM25.5906 3.50994H17.5093C17.2767 3.51013 17.047 3.5612 16.8363 3.65959C16.6256 3.75797 16.439 3.90127 16.2895 4.07944L16.1514 4.27069L13.8288 8.05319C13.6863 8.2855 13.4867 8.47741 13.249 8.6106C13.0113 8.74378 12.7434 8.81379 12.4709 8.81394H7.15838C6.66984 8.81366 6.18604 8.90964 5.73462 9.0964C5.28319 9.28316 4.87299 9.55704 4.52745 9.90238C4.18191 10.2477 3.90779 10.6578 3.72078 11.1091C3.53376 11.5604 3.4375 12.0442 3.4375 12.5327V32.7202C3.4375 34.7729 5.1035 36.4389 7.15625 36.4389H35.8438C36.83 36.4389 37.7759 36.0471 38.4733 35.3497C39.1707 34.6523 39.5625 33.7065 39.5625 32.7202V12.5327C39.5625 11.5464 39.1707 10.6005 38.4733 9.90314C37.7759 9.20573 36.83 8.81394 35.8438 8.81394H30.5313C30.2534 8.81408 29.9804 8.7416 29.7392 8.60369C29.4981 8.46577 29.2971 8.26721 29.1564 8.02769L26.9634 4.29406C26.8228 4.05485 26.6222 3.85649 26.3814 3.71859C26.1407 3.58069 25.8681 3.50804 25.5906 3.50781V3.50994ZM21.5 12.0014C24.0361 12.0014 26.4684 13.0089 28.2617 14.8022C30.055 16.5955 31.0625 19.0278 31.0625 21.5639C31.0625 24.1001 30.055 26.5323 28.2617 28.3256C26.4684 30.119 24.0361 31.1264 21.5 31.1264C18.9639 31.1264 16.5316 30.119 14.7383 28.3256C12.945 26.5323 11.9375 24.1001 11.9375 21.5639C11.9375 19.0278 12.945 16.5955 14.7383 14.8022C16.5316 13.0089 18.9639 12.0014 21.5 12.0014ZM21.5 15.1889C20.6628 15.1889 19.8338 15.3538 19.0604 15.6742C18.2869 15.9946 17.5842 16.4642 16.9922 17.0561C16.4002 17.6481 15.9306 18.3509 15.6103 19.1243C15.2899 19.8978 15.125 20.7268 15.125 21.5639C15.125 22.4011 15.2899 23.2301 15.6103 24.0035C15.9306 24.777 16.4002 25.4798 16.9922 26.0717C17.5842 26.6637 18.2869 27.1333 19.0604 27.4537C19.8338 27.774 20.6628 27.9389 21.5 27.9389C23.1908 27.9389 24.8123 27.2673 26.0078 26.0717C27.2034 24.8762 27.875 23.2547 27.875 21.5639C27.875 19.8732 27.2034 18.2517 26.0078 17.0561C24.8123 15.8606 23.1908 15.1889 21.5 15.1889Z" fill="#333333"/>
</svg>
