<svg width="29" height="29" viewBox="0 0 29 29" fill="none" xmlns="http://www.w3.org/2000/svg">
<g clip-path="url(#clip0_938_3085)">
<path d="M15.4334 1.84694C15.1228 1.824 14.8115 1.81252 14.5 1.8125V0C14.8562 0.000173687 15.2123 0.0134744 15.5676 0.039875L15.4334 1.84694ZM19.0657 2.66256C18.4847 2.43836 17.888 2.25723 17.2804 2.12063L17.6773 0.351625C18.3715 0.5075 19.0548 0.714125 19.7182 0.9715L19.0657 2.66256ZM21.5488 3.94944C21.2897 3.77661 21.0243 3.61338 20.7531 3.46006L21.6467 1.88319C22.2664 2.23433 22.8595 2.63052 23.4211 3.06856L22.3064 4.49863C22.0607 4.30692 21.808 4.12434 21.5488 3.95125V3.94944ZM24.8729 7.19381C24.5144 6.68446 24.1188 6.20223 23.6894 5.75106L25.0016 4.50044C25.491 5.017 25.9441 5.56981 26.3556 6.14981L24.8729 7.19381ZM26.2214 9.64431C26.1025 9.35696 25.9731 9.07402 25.8336 8.79606L27.4521 7.98044C27.7722 8.61678 28.0448 9.27591 28.2677 9.95244L26.5459 10.5197C26.4485 10.2241 26.3403 9.93206 26.2214 9.64431ZM27.1821 14.1883C27.1674 13.5654 27.1068 12.9444 27.0008 12.3304L28.7861 12.0223C28.9076 12.7219 28.9783 13.4324 28.9964 14.1429L27.1839 14.1883H27.1821ZM26.9446 16.9759C27.0044 16.6677 27.0534 16.3614 27.0914 16.0515L28.8912 16.2744C28.8042 16.9816 28.6649 17.6813 28.4744 18.3679L26.7271 17.8839C26.8105 17.5849 26.883 17.2822 26.9446 16.9759ZM25.2191 21.2878C25.5526 20.7622 25.8462 20.2112 26.1 19.6421L27.7566 20.3761C27.4666 21.0286 27.1313 21.6558 26.7507 22.2575L25.2191 21.2878ZM23.4719 23.4719C23.693 23.2507 23.9051 23.0224 24.1063 22.7867L25.4801 23.9703C25.2475 24.2401 25.005 24.5012 24.7533 24.7533L23.4719 23.4719Z" fill="black"/>
<path d="M14.5018 1.8125C12.4154 1.81265 10.3612 2.32733 8.52119 3.31096C6.6812 4.29459 5.11218 5.71681 3.95311 7.45164C2.79404 9.18647 2.08068 11.1804 1.87623 13.2567C1.67178 15.3331 1.98255 17.4278 2.781 19.3554C3.57945 21.283 4.84095 22.9839 6.45376 24.3075C8.06657 25.6311 9.9809 26.5366 12.0272 26.9437C14.0735 27.3507 16.1886 27.2469 18.1852 26.6413C20.1818 26.0357 21.9982 24.9471 23.4736 23.4719L24.7551 24.7533C23.069 26.4403 20.9928 27.6855 18.7105 28.3783C16.4281 29.0712 14.0102 29.1904 11.6707 28.7254C9.33134 28.2604 7.14275 27.2255 5.29888 25.7125C3.455 24.1995 2.01279 22.2551 1.10001 20.0515C0.187235 17.8479 -0.167919 15.4532 0.0660162 13.0795C0.299952 10.7058 1.11575 8.42649 2.44114 6.44347C3.76653 4.46045 5.56058 2.83495 7.66433 1.71101C9.76808 0.58706 12.1166 -0.000632077 14.5018 5.10143e-07V1.8125Z" fill="black"/>
<path d="M13.5938 5.4375C13.8341 5.4375 14.0646 5.53298 14.2346 5.70293C14.4045 5.87289 14.5 6.1034 14.5 6.34375V15.7869L20.387 19.1509C20.5896 19.2731 20.7364 19.4698 20.796 19.6988C20.8555 19.9278 20.8231 20.171 20.7057 20.3765C20.5883 20.5819 20.3952 20.7333 20.1677 20.7983C19.9401 20.8633 19.6962 20.8366 19.488 20.7241L13.1442 17.0991C13.0055 17.0199 12.8902 16.9054 12.81 16.7673C12.7298 16.6291 12.6876 16.4722 12.6875 16.3125V6.34375C12.6875 6.1034 12.783 5.87289 12.9529 5.70293C13.1229 5.53298 13.3534 5.4375 13.5938 5.4375Z" fill="black"/>
</g>
<defs>
<clipPath id="clip0_938_3085">
<rect width="29" height="29" fill="white"/>
</clipPath>
</defs>
</svg>
