<svg width="167" height="131" viewBox="0 0 167 131" fill="none" xmlns="http://www.w3.org/2000/svg">
<path d="M149.582 53.1852C140.443 45.9292 128.768 42.6579 117.189 44.1087C114.858 19.0116 94.7632 0 69.5299 0C56.5214 0.0343482 44.0835 5.34538 35.0634 14.7202C26.044 24.0938 21.215 36.727 21.6816 49.7264C15.5097 53.3365 10.3135 58.3999 6.54449 64.4772C1.05932 73.319 -1.07986 83.8321 0.514446 94.1141C2.10869 104.396 7.33073 113.769 15.2371 120.534C23.1419 127.3 33.2074 131.012 43.6126 131H122.615C134.776 131.013 146.389 125.944 154.647 117.015C162.904 108.087 167.053 96.1135 166.091 83.9922C165.129 71.8708 159.144 60.7004 149.584 53.1855L149.582 53.1852ZM122.614 122.77H43.6107C32.9024 122.776 22.7683 117.93 16.05 109.592C9.33165 101.254 6.75341 90.32 9.03813 79.8581C11.3229 69.3972 18.2247 60.5342 27.8066 55.7549C29.3226 54.9922 30.2145 53.3754 30.0511 51.6864C29.0135 40.5526 32.7125 29.4971 40.2397 21.2284C47.7003 12.9149 58.3568 8.1853 69.5273 8.22927C91.7639 8.22927 109.185 26.1402 109.185 49.0057L109.186 49.0045C109.185 50.2683 109.764 51.4622 110.758 52.2428C111.751 53.0235 113.048 53.3029 114.276 53.0021C124.115 50.5976 134.513 52.5235 142.837 58.2941C151.161 64.0633 156.615 73.1231 157.816 83.1802C159.019 93.2372 155.854 103.327 149.124 110.896C142.393 118.466 132.742 122.788 122.614 122.77L122.614 122.77ZM87.6558 107.869C88.1746 108.829 88.2895 109.957 87.9756 111.001C87.6617 112.047 86.9463 112.925 85.9846 113.441C77.9424 117.789 68.4894 118.719 59.7528 116.022C51.0175 113.325 43.7346 107.228 39.5429 99.1037C35.3513 90.9785 34.6026 81.509 37.4678 72.8271C35.7776 72.5085 34.4652 71.1712 34.1773 69.475C33.8894 67.7801 34.6878 66.0839 36.1778 65.2252L44.8846 60.1997H44.8834C46.1567 59.4618 47.7261 59.4606 48.9993 60.1961C50.2737 60.9316 51.0578 62.2902 51.0554 63.7613V73.8159C51.0566 75.3154 50.2406 76.6977 48.9258 77.4203C47.6111 78.1428 46.0074 78.093 44.7412 77.2888C43.128 83.7997 44.1122 90.6824 47.4867 96.479C50.86 102.277 56.3582 106.532 62.8157 108.347C69.2733 110.161 76.1833 109.389 82.083 106.197C83.0435 105.68 84.1699 105.564 85.2158 105.878C86.2616 106.191 87.1393 106.908 87.6557 107.869L87.6558 107.869ZM106.338 93.9267C106.884 94.8719 107.033 95.9959 106.75 97.0502C106.467 98.1055 105.776 99.0033 104.83 99.5481L96.1244 104.583C94.8808 105.303 93.3529 105.322 92.0926 104.633C90.8324 103.945 90.0234 102.648 89.9582 101.212L89.488 91.16C89.4359 90.0703 89.8196 89.0043 90.5552 88.1966C91.2895 87.3899 92.3152 86.9079 93.4061 86.8581C94.0634 86.8238 94.7208 86.9505 95.3178 87.2289C96.642 78.1157 93.0377 68.985 85.8447 63.2345C82.0106 60.1502 77.3677 58.2397 72.4735 57.7327C67.5793 57.2257 62.6439 58.1425 58.2591 60.3751C57.2831 60.8643 56.1532 60.9472 55.1181 60.6049C54.0817 60.2614 53.2242 59.5212 52.7338 58.5464C51.7128 56.5151 52.5325 54.0421 54.5626 53.0209C62.387 49.1145 71.4147 48.3659 79.7755 50.9315C88.1376 53.497 95.1922 59.1799 99.4797 66.8018C103.767 74.425 104.959 83.4053 102.809 91.8823C104.266 91.893 105.608 92.6747 106.337 93.9361L106.338 93.9267Z" fill="#006872"/>
</svg>
