<svg width="357" height="196" viewBox="0 0 357 196" fill="none" xmlns="http://www.w3.org/2000/svg">
<path d="M97.7297 195.239C43.7313 195.239 0 151.507 0 97.7329C0 43.9584 43.7321 0.00318578 97.7297 0.00318578C151.727 0.00318578 195.236 43.9592 195.236 97.7329C195.236 151.507 151.725 195.239 97.7297 195.239ZM259.497 0.00318578C234.059 0.00318578 211.97 8.92748 195.012 24.0993C227.811 70.2874 227.587 125.399 194.787 171.14C211.967 186.312 234.059 195.236 259.493 195.236C313.267 195.236 357 151.504 357 97.7297C357 43.956 313.268 0 259.493 0L259.497 0.00318578Z" fill="#006872"/>
</svg>
