<svg width="238" height="238" viewBox="0 0 238 238" fill="none" xmlns="http://www.w3.org/2000/svg">
<path d="M110.662 161.842C112.415 163.156 114.901 162.802 116.215 161.049L134.065 137.248C134.967 136.046 135.112 134.438 134.441 133.094C133.768 131.75 132.394 130.902 130.892 130.902H115.025L128.115 113.448C129.429 111.695 129.075 109.209 127.322 107.895C125.569 106.581 123.083 106.935 121.769 108.688L103.919 132.488C103.017 133.691 102.872 135.299 103.543 136.643C104.216 137.987 105.59 138.835 107.092 138.835H122.959L109.869 156.289C108.555 158.042 108.909 160.528 110.662 161.842Z" fill="#006872"/>
<path d="M234.033 134.868C231.843 134.868 230.067 136.644 230.067 138.835V146.768C230.067 149.924 228.813 152.952 226.582 155.183C224.35 157.414 221.322 158.668 218.167 158.668H206.267V111.068H218.167C221.322 111.068 224.351 112.322 226.582 114.553C228.813 116.784 230.067 119.812 230.067 122.968C230.067 125.158 231.843 126.934 234.033 126.934C236.224 126.934 238 125.158 238 122.968C237.995 118.397 236.413 113.968 233.523 110.428C230.633 106.887 226.61 104.452 222.133 103.531V103.134C222.158 77.4393 212.566 52.6646 195.243 33.6835C193.761 32.1022 191.282 32.003 189.68 33.4622C188.075 34.9214 187.941 37.3987 189.377 39.0228C205.366 56.5432 214.222 79.4121 214.2 103.133H206.267C206.267 79.9883 197.073 57.7908 180.707 41.4254C164.34 25.0592 142.145 15.8651 118.999 15.8651C95.8525 15.8651 73.6564 25.0592 57.291 41.4254C40.9248 57.7917 31.7307 79.987 31.7307 103.133H23.7973C23.8274 77.8935 33.8663 53.6972 51.7127 35.8494C69.561 18.003 93.7577 7.96393 118.997 7.93401C140.468 7.85786 161.321 15.1216 178.102 28.5217C179.818 29.8817 182.313 29.5949 183.675 27.8789C184.329 27.0537 184.63 26.0036 184.509 24.9588C184.389 23.914 183.858 22.9595 183.032 22.3061C164.855 7.78713 142.262 -0.0827572 118.999 0.000656314C91.6556 0.0307604 65.442 10.9074 46.1073 30.2412C26.7735 49.575 15.8966 75.7923 15.8667 103.133V103.53C11.39 104.45 7.36668 106.885 4.47668 110.427C1.58667 113.967 0.00530401 118.396 0 122.966V146.766C0.00708335 152.024 2.09844 157.066 5.81537 160.784C9.53412 164.501 14.5756 166.592 19.8334 166.6H31.7334C31.7334 170.807 33.4051 174.843 36.3801 177.82C39.3568 180.795 43.3927 182.466 47.6001 182.466H59.5001C60.552 182.466 61.5614 182.048 62.3051 181.305C63.0489 180.561 63.4668 179.552 63.4668 178.5V162.633C63.4668 160.442 61.6906 158.666 59.5001 158.666C57.3096 158.666 55.5334 160.442 55.5334 162.633V174.533H47.6001C45.4964 174.533 43.4776 173.697 41.9901 172.21C40.5026 170.722 39.6667 168.703 39.6667 166.6V146.766C39.6667 144.576 37.8906 142.8 35.7001 142.8C33.5096 142.8 31.7334 144.576 31.7334 146.766V158.666H19.8334C16.6778 158.666 13.6494 157.413 11.4186 155.181C9.18773 152.95 7.93358 149.922 7.93358 146.766V122.966C7.93358 119.811 9.18732 116.783 11.4186 114.552C13.6498 112.321 16.6782 111.067 19.8334 111.067H31.7334V130.9C31.7334 133.091 33.5096 134.867 35.7001 134.867C37.8906 134.867 39.6667 133.091 39.6667 130.9V103.133C39.6667 101.03 40.5026 99.0108 41.9901 97.5233C43.4776 96.0358 45.4964 95.2 47.6001 95.2H55.5334V146.767C55.5334 148.957 57.3096 150.733 59.5001 150.733C61.6906 150.733 63.4668 148.957 63.4668 146.767V91.2333C63.4668 90.1814 63.0489 89.172 62.3051 88.4283C61.5614 87.6845 60.552 87.2666 59.5001 87.2666H47.6001C45.3352 87.2755 43.0986 87.7731 41.0426 88.7258C44.3983 70.4986 54.0334 54.0226 68.2762 42.1638C82.5173 30.3028 100.467 23.8092 119 23.8092C137.533 23.8092 155.483 30.3028 169.723 42.1638C183.966 54.0249 193.601 70.5008 196.957 88.7258C194.901 87.7731 192.664 87.2755 190.399 87.2666H178.499C176.309 87.2666 174.533 89.0428 174.533 91.2333V178.5C174.533 179.552 174.951 180.561 175.694 181.305C176.438 182.049 177.448 182.467 178.499 182.467H190.399C194.607 182.467 198.643 180.795 201.619 177.82C204.594 174.843 206.266 170.807 206.266 166.6H210.233V182.467C210.222 191.932 206.457 201.006 199.765 207.699C193.071 214.391 183.998 218.156 174.533 218.167H166.036C165.16 214.77 163.182 211.762 160.414 209.608C157.645 207.455 154.241 206.279 150.733 206.267H134.866C129.198 206.267 123.96 209.291 121.125 214.2C118.292 219.109 118.292 225.158 121.125 230.067C123.96 234.976 129.198 238 134.866 238H150.733C154.241 237.988 157.645 236.812 160.414 234.659C163.182 232.505 165.16 229.497 166.036 226.1H174.533C186.102 226.086 197.19 221.485 205.372 213.306C213.551 205.124 218.152 194.035 218.166 182.467V166.6C223.424 166.593 228.465 164.502 232.184 160.785C235.901 157.066 237.992 152.024 238 146.767V138.833C238 137.781 237.582 136.772 236.838 136.028C236.094 135.285 235.085 134.867 234.033 134.867L234.033 134.868ZM198.333 166.602C198.333 168.705 197.497 170.724 196.01 172.212C194.522 173.699 192.504 174.535 190.4 174.535H182.467V95.2014H190.4C192.504 95.2014 194.522 96.0373 196.01 97.5248C197.497 99.0123 198.333 101.031 198.333 103.135V166.602ZM150.733 230.068H134.866C132.031 230.068 129.412 228.556 127.996 226.102C126.579 223.647 126.579 220.623 127.996 218.168C129.412 215.714 132.031 214.202 134.866 214.202H150.733C153.568 214.202 156.187 215.714 157.604 218.168C159.021 220.623 159.021 223.647 157.604 226.102C156.187 228.556 153.568 230.068 150.733 230.068Z" fill="#006872"/>
<path d="M166.599 134.868C166.613 125.231 163.684 115.821 158.205 107.895C157.619 107.006 156.698 106.391 155.653 106.188C154.607 105.986 153.525 106.211 152.646 106.814C151.77 107.418 151.171 108.35 150.989 109.4C150.805 110.448 151.051 111.527 151.672 112.393C159.23 123.372 160.776 137.408 155.79 149.768C150.805 162.128 139.951 171.163 126.891 173.826C113.833 176.488 100.309 172.422 90.883 162.999C81.4569 153.577 77.3859 140.055 80.042 126.994C82.7 113.934 91.7312 103.077 104.088 98.0853C116.447 93.095 130.485 94.6375 141.465 102.19C142.331 102.796 143.402 103.031 144.444 102.845C145.483 102.658 146.406 102.064 147.006 101.193C147.606 100.324 147.835 99.2505 147.64 98.2128C147.447 97.1733 146.845 96.2543 145.972 95.6611C134.197 87.5631 119.409 85.1831 105.689 89.1797C91.9685 93.1747 80.7697 103.123 75.1847 116.277C69.5996 129.431 70.2193 144.396 76.8723 157.043C83.5272 169.689 95.5084 178.678 109.512 181.525C123.516 184.375 138.058 180.78 149.122 171.736C160.187 162.692 166.603 149.158 166.599 134.867L166.599 134.868Z" fill="#006872"/>
</svg>
