<svg width="46" height="43" viewBox="0 0 46 43" fill="none" xmlns="http://www.w3.org/2000/svg">
<path d="M36.5 11.3V2.375C36.4994 1.87789 36.3017 1.40131 35.9502 1.0498C35.5987 0.698298 35.1221 0.500571 34.625 0.5H11.375C10.8779 0.500571 10.4013 0.698298 10.0498 1.0498C9.6983 1.40131 9.50057 1.87789 9.5 2.375V11.3L0.5 17.7281V42.5H45.5V17.7281L36.5 11.3ZM41.5324 18.5813L36.5 21.8713V14.9862L41.5324 18.5813ZM12.5 3.5H33.5V23.8328L28.1407 27.337L23.774 25.0727L19.0149 27.3703L12.5 23.4148V3.5ZM23.726 28.4272L42.5 38.1619V39.5H3.5V38.1915L23.726 28.4272ZM3.5 21.4602L15.7948 28.925L3.5 34.8602V21.4602ZM31.1981 28.9227L42.5 21.5325V34.7826L31.1981 28.9227ZM9.5 14.9862V21.5938L4.49994 18.5577L9.5 14.9862Z" fill="black"/>
</svg>
