<svg width="134" height="135" viewBox="0 0 134 135" fill="none" xmlns="http://www.w3.org/2000/svg">
<path d="M67.0032 108.717C53.3795 108.726 40.6481 101.888 33.0604 90.4846C25.4731 79.0823 24.0279 64.6161 29.2068 51.9186C34.387 39.2197 45.51 29.9608 58.8605 27.2332C72.213 24.5054 86.0338 28.6675 95.7134 38.3306C105.391 47.9938 109.65 61.8836 107.068 75.3642C104.486 88.8448 95.4029 100.14 82.8516 105.477C77.8373 107.617 72.4469 108.719 67.0014 108.715L67.0032 108.717ZM67.0032 30.6796V30.6806C57.3033 30.6766 47.9984 34.5569 41.137 41.4681C34.2753 48.3791 30.42 57.7536 30.4189 67.5306C30.4179 77.3061 34.2704 86.6825 41.13 93.5957C47.9886 100.509 57.2925 104.391 66.9937 104.39C76.6947 104.389 85.9965 100.504 92.8548 93.5887C99.7124 86.6747 103.563 77.2973 103.559 67.521C103.548 57.7536 99.6936 48.3905 92.8399 41.4845C85.9873 34.5774 76.6965 30.6931 67.0045 30.6819L67.0032 30.6796Z" fill="#006872"/>
<path d="M79.3624 135H54.6376C53.4435 135 52.4757 134.026 52.4757 132.822V122.832C47.5638 121.542 42.848 119.588 38.456 117.023L31.4536 124.08V124.081C31.0475 124.493 30.4957 124.725 29.9188 124.725C29.3429 124.725 28.7901 124.493 28.3851 124.081L10.9209 106.437C10.5119 106.029 10.2817 105.472 10.2817 104.892C10.2817 104.31 10.5119 103.754 10.9209 103.345L17.9233 96.2881H17.9243C15.3825 91.8546 13.4437 87.0982 12.1603 82.1439H2.1609C0.966878 82.1439 0 81.1695 0 79.9662V55.0773C0 53.874 0.966878 52.8996 2.1609 52.8996H12.0739C13.3573 47.9456 15.296 43.189 17.8379 38.7554L10.8355 31.6985H10.8345C10.4254 31.2893 10.1952 30.7332 10.1952 30.1518C10.1952 29.5714 10.4254 29.0143 10.8345 28.6061L28.3851 11.006C28.7901 10.5937 29.3429 10.3618 29.9188 10.3618C30.4957 10.3618 31.0475 10.5937 31.4536 11.006L38.456 18.0629V18.0639C42.848 15.4992 47.5638 13.5453 52.4757 12.255V2.17773C52.4757 0.974407 53.4435 0 54.6376 0H79.3624C80.5565 0 81.5243 0.974407 81.5243 2.17773V12.1679C86.4362 13.4583 91.152 15.4123 95.5441 17.9768L102.546 10.9199V10.9188C102.952 10.5066 103.504 10.2746 104.081 10.2746C104.657 10.2746 105.21 10.5066 105.615 10.9188L123.079 28.6061C123.488 29.0143 123.718 29.5714 123.718 30.1518C123.718 30.7332 123.488 31.2893 123.079 31.6985L116.077 38.7554H116.076C118.618 43.189 120.556 47.9454 121.84 52.8996H131.839C133.033 52.8996 134 53.874 134 55.0773V79.9662C134 81.1695 133.033 82.1439 131.839 82.1439H121.883C120.599 87.0979 118.661 91.8546 116.119 96.2881L123.121 103.345H123.122C123.531 103.754 123.762 104.31 123.762 104.892C123.762 105.472 123.531 106.029 123.122 106.437L105.615 124.038C105.21 124.45 104.657 124.682 104.081 124.682C103.504 124.682 102.952 124.45 102.546 124.038L95.5441 116.981V116.98C91.152 119.544 86.4362 121.498 81.5243 122.789V132.866C81.5002 134.052 80.5394 135.001 79.3624 135V135ZM56.7986 130.643L77.2017 130.644V121.118C77.2077 120.108 77.8982 119.232 78.8731 118.998C84.4853 117.696 89.8415 115.458 94.7222 112.377C95.5755 111.841 96.6831 111.974 97.3886 112.696L104.074 119.42L118.483 104.899L111.825 98.161C111.109 97.451 110.977 96.3347 111.509 95.4749C114.56 90.5533 116.78 85.1554 118.079 79.5013C118.312 78.5107 119.186 77.8088 120.198 77.8027H129.635V57.255H120.198C119.186 57.249 118.312 56.547 118.079 55.5564C116.78 49.9023 114.56 44.5057 111.509 39.5839C110.977 38.7239 111.109 37.6077 111.825 36.8967L118.497 30.173L104.088 15.6521L97.4027 22.3473C96.6982 23.0695 95.5906 23.2022 94.7374 22.6663C89.8567 19.585 84.4997 17.3475 78.8872 16.045C77.9123 15.8111 77.2218 14.9349 77.2158 13.925V4.39878H56.7986V13.925C56.7926 14.9349 56.1021 15.811 55.1272 16.045C49.515 17.3476 44.1588 19.585 39.2781 22.6663C38.4248 23.2022 37.3172 23.0695 36.6117 22.3473L29.926 15.6235L15.5173 30.1445L22.189 36.8682C22.9057 37.5783 23.0373 38.6945 22.5057 39.5543C19.4554 44.4759 17.2351 49.8738 15.9355 55.5268C15.7034 56.5185 14.8279 57.2204 13.8178 57.2265H4.36518V77.7884H13.8029C14.814 77.7945 15.6884 78.4964 15.9216 79.487C17.2202 85.1411 19.4404 90.5377 22.4917 95.4596C23.0234 96.3195 22.8918 97.4357 22.1751 98.1467L15.5034 104.87L29.9121 119.391L36.5978 112.668C37.3023 111.945 38.4099 111.813 39.2631 112.348C44.1438 115.429 49.5008 117.666 55.1133 118.969C56.0882 119.204 56.7787 120.079 56.7847 121.09L56.7986 130.643Z" fill="#006872"/>
<path d="M51.2215 81.4902C49.6355 81.4902 48.1148 80.8551 46.993 79.7257C45.8714 78.5953 45.2422 77.0627 45.2422 75.4644C45.2422 73.866 45.8714 72.3335 46.993 71.203C48.1147 70.0724 49.6355 69.4375 51.2215 69.4375C52.8075 69.4375 54.3281 70.0726 55.4499 71.203C56.5718 72.3334 57.2018 73.866 57.2018 75.4644C57.2018 77.0627 56.5716 78.5952 55.4499 79.7257C54.3283 80.8551 52.8075 81.4902 51.2215 81.4902ZM51.2215 73.8084C50.5501 73.8094 49.945 74.2176 49.6897 74.8436C49.4335 75.4685 49.5782 76.1887 50.0546 76.6648C50.532 77.1408 51.2466 77.2806 51.8658 77.0172C52.4849 76.7539 52.8849 76.1411 52.8789 75.4645C52.8789 75.0229 52.704 74.5995 52.3924 74.2885C52.0809 73.9775 51.6597 73.8053 51.2215 73.8084L51.2215 73.8084Z" fill="#006872"/>
<path d="M82.8459 65.5895C81.2578 65.5935 79.7341 64.9615 78.6094 63.8321C77.4848 62.7017 76.8526 61.1683 76.8516 59.5689C76.8506 57.9685 77.4797 56.4339 78.6024 55.3026C79.7251 54.1712 81.2487 53.5361 82.8357 53.5371C84.4238 53.5391 85.9455 54.1762 87.066 55.3097C88.1867 56.4421 88.8148 57.9787 88.8108 59.5781C88.8068 61.1713 88.1766 62.6988 87.0589 63.8252C85.9413 64.9516 84.4268 65.5866 82.8457 65.5896L82.8459 65.5895ZM82.8459 57.9076V57.9086C82.1745 57.9026 81.5654 58.3057 81.3041 58.9286C81.0438 59.5526 81.1814 60.2728 81.6538 60.7539C82.1272 61.234 82.8408 61.3799 83.462 61.1226C84.0831 60.8643 84.4881 60.2545 84.4881 59.5779C84.4881 58.6612 83.7554 57.9157 82.8459 57.9087V57.9076Z" fill="#006872"/>
<path d="M66.9965 73.5332C65.4145 73.5332 63.8968 72.9001 62.7781 71.7727C61.6594 70.6454 61.0312 69.1159 61.0312 67.5215C61.0312 65.927 61.6594 64.3976 62.7781 63.2702C63.8967 62.1428 65.4144 61.5098 66.9965 61.5098C68.5786 61.5098 70.0962 62.1428 71.2149 63.2702C72.3336 64.3976 72.9617 65.927 72.9617 67.5215C72.9617 69.1159 72.3336 70.6453 71.2149 71.7727C70.0963 72.9001 68.5786 73.5332 66.9965 73.5332ZM66.9965 65.8666C66.3322 65.8666 65.7331 66.2698 65.4788 66.8886C65.2246 67.5065 65.3653 68.2186 65.8346 68.6926C66.305 69.1656 67.0116 69.3074 67.6247 69.0512C68.2388 68.7949 68.6388 68.1912 68.6388 67.5217C68.6388 67.0831 68.4659 66.6617 68.1584 66.3508C67.8498 66.0408 67.4317 65.8666 66.9965 65.8666Z" fill="#006872"/>
<path d="M66.9968 65.8682C65.8028 65.8682 64.8359 64.8928 64.8359 63.6894V45.4229C64.8359 44.2196 65.8028 43.2441 66.9968 43.2441C68.1909 43.2441 69.1577 44.2196 69.1577 45.4229V63.6894C69.1577 64.8928 68.1909 65.8682 66.9968 65.8682Z" fill="#006872"/>
<path d="M82.8494 57.909C81.6554 57.909 80.6875 56.9336 80.6875 55.7303V45.4199V45.4209C80.6875 44.2176 81.6554 43.2422 82.8494 43.2422C84.0424 43.2422 85.0103 44.2176 85.0103 45.4209V55.7313V55.7303C85.0103 56.9336 84.0424 57.909 82.8494 57.909Z" fill="#006872"/>
<path d="M51.2234 91.7997C50.0294 91.7997 49.0625 90.8242 49.0625 89.6209V79.3105V79.3116C49.0625 78.1082 50.0294 77.1328 51.2234 77.1328C52.4174 77.1328 53.3843 78.1082 53.3843 79.3116V89.6219V89.6209C53.3843 90.8242 52.4174 91.7997 51.2234 91.7997Z" fill="#006872"/>
<path d="M66.9968 91.7998C65.8028 91.7998 64.8359 90.8244 64.8359 89.6211V71.3545C64.8359 70.1512 65.8028 69.1758 66.9968 69.1758C68.1909 69.1758 69.1577 70.1512 69.1577 71.3545V89.6211C69.1577 90.8244 68.1909 91.7998 66.9968 91.7998Z" fill="#006872"/>
<path d="M82.8494 91.8008C81.6554 91.8008 80.6875 90.8254 80.6875 89.6221V63.4844V63.4854C80.6875 62.2821 81.6554 61.3066 82.8494 61.3066C84.0424 61.3066 85.0103 62.2821 85.0103 63.4854V89.6231V89.6221C85.0103 90.8254 84.0424 91.8008 82.8494 91.8008Z" fill="#006872"/>
<path d="M51.2234 73.8096C50.0294 73.8096 49.0625 72.8351 49.0625 71.6318V45.4941C49.0625 44.2918 50.0294 43.3164 51.2234 43.3164C52.4174 43.3164 53.3843 44.2918 53.3843 45.4941V71.6318C53.3843 72.8351 52.4174 73.8096 51.2234 73.8096Z" fill="#006872"/>
</svg>
