<svg width="795" height="538" viewBox="0 0 795 538" fill="none" xmlns="http://www.w3.org/2000/svg">
<path d="M206.397 123.187H61.5234V21.643H206.397V123.187ZM62.6674 122.015H205.253V22.8154H62.6674V122.015Z" fill="#EBEBEB"/>
<path d="M72.8496 28.2204C72.8496 28.8047 72.6806 29.376 72.3638 29.8618C72.047 30.3477 71.5968 30.7264 71.07 30.95C70.5432 31.1736 69.9636 31.2321 69.4044 31.1181C68.8452 31.0041 68.3315 30.7227 67.9283 30.3095C67.5252 29.8964 67.2506 29.3699 67.1394 28.7968C67.0281 28.2237 67.0852 27.6296 67.3034 27.0897C67.5216 26.5499 67.8911 26.0884 68.3652 25.7638C68.8393 25.4392 69.3966 25.2659 69.9668 25.2659C70.7314 25.2659 71.4646 25.5772 72.0053 26.1312C72.5459 26.6853 72.8496 27.4368 72.8496 28.2204Z" fill="#A6A6A6"/>
<path d="M84.6362 28.2203C84.6384 28.808 84.4703 29.3831 84.1532 29.8726C83.836 30.3622 83.3841 30.7442 82.8548 30.9702C82.3255 31.1962 81.7426 31.2559 81.1801 31.1418C80.6176 31.0277 80.1008 30.745 79.6954 30.3294C79.2899 29.9139 79.014 29.3843 78.9027 28.8078C78.7914 28.2313 78.8497 27.6339 79.0702 27.0915C79.2906 26.549 79.6634 26.0858 80.1411 25.7608C80.6188 25.4357 81.1799 25.2635 81.7533 25.2658C82.5179 25.2658 83.2512 25.5771 83.7918 26.1311C84.3324 26.6852 84.6362 27.4367 84.6362 28.2203Z" fill="#EBEBEB"/>
<path d="M96.416 28.2204C96.416 28.8047 96.247 29.376 95.9302 29.8618C95.6134 30.3477 95.1632 30.7264 94.6364 30.95C94.1096 31.1736 93.53 31.2321 92.9708 31.1181C92.4116 31.0041 91.8979 30.7227 91.4947 30.3095C91.0916 29.8964 90.817 29.3699 90.7058 28.7968C90.5946 28.2237 90.6516 27.6296 90.8698 27.0897C91.088 26.5499 91.4575 26.0884 91.9316 25.7638C92.4057 25.4392 92.963 25.2659 93.5332 25.2659C94.2978 25.2659 95.031 25.5772 95.5717 26.1312C96.1123 26.6853 96.416 27.4368 96.416 28.2204Z" fill="#FFC727"/>
<path d="M205.825 33.3907H62.0957V34.5632H205.825V33.3907Z" fill="#EBEBEB"/>
<path d="M52.7626 128.662C53.2663 128.344 53.8466 128.175 54.4385 128.175C55.0304 128.175 55.6107 128.344 56.1144 128.662C56.389 128.842 56.675 129.006 56.9724 129.155C57.2584 129.319 57.5559 129.471 57.8533 129.624C58.3884 129.872 58.8459 130.268 59.1751 130.767C59.5042 131.265 59.6921 131.848 59.718 132.449L59.8438 136.67L73.2398 136.236L73.1139 132.027C73.0966 131.42 73.2448 130.819 73.5419 130.293C73.8389 129.767 74.273 129.337 74.7956 129.049C75.3832 128.727 75.9523 128.371 76.5001 127.982C76.9781 127.633 77.5419 127.427 78.128 127.387C78.714 127.348 79.2992 127.477 79.8176 127.76L83.4326 129.753L89.7702 117.642L86.1209 115.684C85.6036 115.398 85.1742 114.97 84.8812 114.448C84.5882 113.926 84.443 113.331 84.4622 112.729C84.4737 112.044 84.4508 111.36 84.3935 110.677C84.3373 110.075 84.4455 109.469 84.7062 108.927C84.9668 108.384 85.3695 107.927 85.8693 107.606L89.3012 105.39L82.2429 93.6653L78.7309 95.8929C78.2306 96.2094 77.6543 96.3771 77.0664 96.3771C76.4785 96.3771 75.9022 96.2094 75.4019 95.8929C75.1273 95.721 74.8413 95.5569 74.5439 95.4005C74.2579 95.2364 73.9605 95.084 73.663 94.9433C73.1253 94.6919 72.6663 94.2924 72.337 93.7894C72.0078 93.2864 71.8213 92.6995 71.7984 92.0943L71.6725 87.8853L58.2766 88.3073L58.4024 92.5046C58.4199 93.1092 58.273 93.7068 57.9781 94.2307C57.6831 94.7545 57.2517 95.184 56.7322 95.4709C56.1488 95.7991 55.5882 96.1626 55.0277 96.5495C54.5473 96.899 53.9818 97.1048 53.394 97.1442C52.8062 97.1835 52.2193 97.0547 51.6987 96.7723L48.0837 94.7909L41.7461 106.89L45.3611 108.883C45.8811 109.169 46.3124 109.598 46.6057 110.123C46.899 110.647 47.0425 111.246 47.0198 111.85C47.0532 112.545 47.1219 113.237 47.2257 113.925C47.2794 114.527 47.17 115.132 46.9096 115.674C46.6492 116.216 46.248 116.673 45.75 116.997L42.3181 119.213L49.3764 130.878L52.7626 128.662ZM56.1259 106.984C57.1526 105.027 58.7223 103.425 60.6368 102.381C62.5513 101.337 64.7246 100.898 66.8824 101.12C69.0401 101.341 71.0854 102.213 72.7599 103.625C74.4344 105.037 75.663 106.926 76.2905 109.054C76.918 111.181 76.9163 113.451 76.2855 115.578C75.6548 117.704 74.4233 119.591 72.7467 121.001C71.07 122.41 69.0234 123.279 66.8654 123.497C64.7073 123.715 62.5346 123.272 60.6217 122.226C58.0549 120.814 56.1398 118.416 55.2968 115.558C54.4539 112.7 54.7521 109.617 56.1259 106.984Z" fill="#EBEBEB"/>
<path d="M715.724 255.109C716.225 254.79 716.804 254.621 717.394 254.621C717.984 254.621 718.563 254.79 719.064 255.109L719.922 255.613L720.815 256.07C721.35 256.319 721.807 256.714 722.136 257.213C722.465 257.712 722.653 258.294 722.679 258.896L722.805 263.116L736.201 262.683L736.075 258.474C736.06 257.87 736.209 257.273 736.506 256.751C736.803 256.229 737.236 255.802 737.757 255.519C738.338 255.189 738.903 254.829 739.45 254.44C739.931 254.094 740.497 253.889 741.084 253.85C741.671 253.811 742.258 253.938 742.779 254.218L746.394 256.211L752.731 244.1L749.116 242.118C748.598 241.831 748.168 241.401 747.875 240.877C747.582 240.353 747.438 239.756 747.458 239.152C747.469 238.471 747.446 237.79 747.389 237.112C747.333 236.508 747.442 235.901 747.702 235.357C747.963 234.812 748.365 234.353 748.865 234.028L752.297 231.813L745.238 220.088L741.726 222.328C741.226 222.644 740.65 222.812 740.062 222.812C739.474 222.812 738.898 222.644 738.397 222.328L737.539 221.835C737.253 221.671 736.956 221.519 736.659 221.378C736.121 221.13 735.662 220.733 735.332 220.231C735.003 219.73 734.816 219.145 734.794 218.541L734.668 214.32L721.272 214.742L721.398 218.951C721.416 219.554 721.269 220.15 720.974 220.672C720.679 221.195 720.247 221.622 719.728 221.906C719.138 222.233 718.569 222.597 718.023 222.996C717.542 223.344 716.976 223.547 716.388 223.585C715.8 223.622 715.214 223.491 714.694 223.207L711.079 221.226L704.799 233.395L708.414 235.377C708.93 235.666 709.359 236.097 709.651 236.62C709.944 237.144 710.09 237.74 710.073 238.343C710.061 239.028 710.084 239.713 710.141 240.395C710.195 240.998 710.084 241.604 709.822 242.146C709.559 242.689 709.155 243.146 708.654 243.467L705.222 245.682L712.28 257.407L715.724 255.109ZM719.087 233.395C720.115 231.438 721.685 229.837 723.601 228.794C725.516 227.751 727.69 227.314 729.848 227.537C732.005 227.759 734.05 228.633 735.724 230.046C737.398 231.459 738.625 233.35 739.251 235.478C739.877 237.606 739.874 239.876 739.242 242.002C738.609 244.128 737.376 246.014 735.698 247.423C734.021 248.831 731.973 249.698 729.815 249.914C727.656 250.13 725.484 249.686 723.571 248.637C722.299 247.939 721.174 246.991 720.26 245.847C719.346 244.703 718.661 243.385 718.244 241.97C717.828 240.554 717.688 239.068 717.832 237.596C717.977 236.125 718.403 234.698 719.087 233.395Z" fill="#EBEBEB"/>
<path d="M79.7827 164.586C80.1457 164.8 80.4443 165.112 80.646 165.488C80.8478 165.865 80.9448 166.29 80.9266 166.719C80.9266 166.954 80.9266 167.188 80.9266 167.423C80.9266 167.657 80.9266 167.904 80.9266 168.138C80.9498 168.565 80.8546 168.989 80.6522 169.363C80.4497 169.736 80.1483 170.043 79.7827 170.248L77.2773 171.726L81.9791 180.062L84.473 178.584C84.8262 178.384 85.2263 178.287 85.6297 178.304C86.0331 178.32 86.4244 178.45 86.7609 178.678C87.1499 178.936 87.5617 179.171 87.9735 179.393C88.3429 179.581 88.6541 179.869 88.8723 180.228C89.0905 180.586 89.2071 180.999 89.209 181.422V184.364H98.704V181.422C98.7059 180.999 98.8225 180.586 99.0407 180.228C99.2589 179.869 99.5702 179.581 99.9395 179.393C100.351 179.171 100.752 178.936 101.084 178.678C101.421 178.451 101.812 178.322 102.215 178.305C102.618 178.289 103.018 178.385 103.371 178.584L105.865 180.062L110.556 171.726L108.05 170.248C107.684 170.041 107.382 169.732 107.179 169.357C106.977 168.981 106.882 168.555 106.906 168.126C106.906 167.892 106.906 167.657 106.906 167.423C106.906 167.188 106.906 166.954 106.906 166.719C106.882 166.291 106.977 165.865 107.179 165.489C107.382 165.114 107.684 164.804 108.05 164.597L110.544 163.12L105.854 154.784L103.371 156.261C103.01 156.466 102.601 156.566 102.188 156.552C101.775 156.537 101.374 156.409 101.026 156.179C100.635 155.915 100.23 155.672 99.8137 155.452C99.4435 155.266 99.1315 154.978 98.9132 154.619C98.6948 154.261 98.5788 153.847 98.5782 153.424V150.481H89.1861V153.424C89.1856 153.847 89.0695 154.261 88.8512 154.619C88.6328 154.978 88.3208 155.266 87.9506 155.452C87.5325 155.669 87.1275 155.912 86.738 156.179C86.3973 156.398 86.0064 156.52 85.6048 156.535C85.2031 156.549 84.8049 156.455 84.4501 156.261L81.9905 154.843L77.2888 163.179L79.7827 164.586ZM93.9565 159.532C95.4797 159.53 96.9694 159.991 98.237 160.856C99.5045 161.722 100.493 162.954 101.078 164.395C101.662 165.837 101.816 167.424 101.52 168.955C101.225 170.486 100.492 171.893 99.416 172.998C98.3397 174.103 96.9679 174.855 95.4742 175.161C93.9804 175.466 92.4318 175.311 91.0244 174.714C89.6169 174.117 88.4138 173.106 87.5673 171.808C86.7208 170.51 86.269 168.984 86.269 167.423C86.272 165.333 87.0826 163.33 88.5233 161.851C89.964 160.372 91.9175 159.539 93.9565 159.532Z" fill="#EBEBEB"/>
<path d="M73.1474 284.982C73.1474 283.657 73.3189 280.128 73.3189 278.628C73.3189 272.191 71.031 269.248 65.231 269.108C62.4855 268.932 60.8496 267.255 60.8496 264.875C60.8496 262.495 62.4855 260.818 65.231 260.643C71.0882 260.373 73.3189 257.547 73.3189 251.029C73.3189 249.528 73.1474 245.999 73.1474 244.674C73.1474 236.127 76.6822 230.605 90.021 227.662C90.9281 227.446 91.8815 227.586 92.6926 228.055C93.5037 228.524 94.1134 229.289 94.401 230.196C94.6887 231.104 94.6333 232.09 94.2459 232.958C93.8585 233.826 93.1673 234.514 92.309 234.884C83.9579 237.534 82.7568 240.266 82.7568 246.269C82.7568 248.027 82.9284 250.958 82.9284 252.787C82.9284 259.67 79.6566 263.023 73.971 264.875C79.6909 266.81 82.9284 270.081 82.9284 276.951C82.9284 278.804 82.7568 281.711 82.7568 283.482C82.7568 289.473 83.9007 292.216 92.309 294.854C93.1859 295.212 93.8972 295.898 94.2985 296.774C94.6999 297.65 94.7612 298.649 94.4702 299.569C94.1791 300.489 93.5574 301.262 92.7312 301.729C91.905 302.197 90.9361 302.325 90.021 302.088C76.6822 299.051 73.1474 293.588 73.1474 284.982Z" fill="#EBEBEB"/>
<path d="M123.576 244.639C123.576 245.964 123.404 249.493 123.404 250.994C123.404 257.512 125.692 260.373 131.583 260.607C134.249 260.783 135.885 262.46 135.885 264.84C135.885 267.22 134.249 268.897 131.583 269.072C125.726 269.248 123.404 272.156 123.404 278.593C123.404 280.093 123.576 283.622 123.576 284.947C123.576 293.588 120.052 299.016 106.713 302.053C105.777 302.364 104.759 302.281 103.883 301.822C103.006 301.364 102.344 300.568 102.04 299.608C101.737 298.649 101.818 297.606 102.265 296.707C102.712 295.809 103.489 295.13 104.425 294.819C112.685 292.181 113.897 289.438 113.897 283.446C113.897 281.676 113.726 278.757 113.726 276.916C113.726 270.046 116.986 266.692 122.672 264.84C116.952 262.894 113.726 259.634 113.726 252.752C113.726 250.9 113.897 247.992 113.897 246.233C113.897 240.231 112.685 237.499 104.425 234.849C103.681 234.611 103.034 234.128 102.583 233.476C102.132 232.823 101.903 232.037 101.931 231.238C101.918 230.646 102.043 230.058 102.296 229.526C102.549 228.993 102.924 228.53 103.388 228.176C103.852 227.823 104.392 227.588 104.962 227.493C105.533 227.397 106.118 227.443 106.668 227.627C120.052 230.617 123.576 236.092 123.576 244.639Z" fill="#EBEBEB"/>
<path d="M678.917 104.733C679.589 105.382 680.053 106.224 680.249 107.148C680.446 108.072 680.365 109.036 680.017 109.912C679.669 110.788 679.071 111.536 678.301 112.058C677.531 112.579 676.625 112.85 675.702 112.835C674.431 112.86 673.2 112.376 672.27 111.486L651.679 90.0777C651.45 90.0073 651.381 89.8549 651.313 89.6322C651.244 89.5705 651.167 89.5191 651.084 89.4797C650.987 89.2909 650.914 89.0899 650.867 88.8818C650.809 88.8534 650.758 88.8106 650.721 88.7574C650.683 88.7042 650.658 88.6422 650.649 88.577C650.581 88.4246 650.581 88.2018 650.501 88.1314C650.42 88.0611 650.352 87.8266 650.352 87.7563V87.2287C650.352 87.0763 650.283 87.0059 650.283 86.7714C650.283 86.5369 650.352 86.4783 650.352 86.3963V85.8804C650.352 85.728 650.501 85.6459 650.501 85.5756C650.501 85.5052 650.581 85.2004 650.649 84.9776C650.718 84.7549 650.718 84.8955 650.718 84.8252C650.718 84.7549 650.947 84.2976 651.084 84.1452C651.084 84.1048 651.1 84.066 651.128 84.0374C651.155 84.0088 651.193 83.9928 651.233 83.9928C651.337 83.7853 651.49 83.6079 651.679 83.4769L672.27 62.0684C673.158 61.1997 674.338 60.715 675.565 60.715C676.792 60.715 677.972 61.1997 678.86 62.0684C679.303 62.5058 679.655 63.0303 679.896 63.6105C680.136 64.1906 680.26 64.8146 680.26 65.4449C680.26 66.0753 680.136 66.6993 679.896 67.2794C679.655 67.8596 679.303 68.3841 678.86 68.8215L661.54 86.7714L678.917 104.733Z" fill="#EBEBEB"/>
<path d="M697.612 107.136L715.561 63.3932C715.771 62.8886 716.077 62.4316 716.46 62.0486C716.844 61.6656 717.297 61.3641 717.795 61.1614C718.293 60.9587 718.824 60.8589 719.36 60.8677C719.895 60.8764 720.424 60.9936 720.915 61.2124C721.392 61.424 721.823 61.73 722.184 62.1129C722.546 62.4958 722.829 62.9481 723.02 63.4438C723.21 63.9394 723.303 64.4687 723.293 65.0012C723.283 65.5338 723.171 66.0591 722.962 66.547L705.013 110.361C704.694 111.102 704.169 111.732 703.504 112.172C702.84 112.611 702.064 112.842 701.272 112.834C700.77 112.844 700.271 112.744 699.808 112.541C699.311 112.344 698.857 112.045 698.475 111.663C698.093 111.281 697.791 110.824 697.585 110.319C697.38 109.814 697.277 109.272 697.281 108.725C697.286 108.178 697.398 107.638 697.612 107.136Z" fill="#EBEBEB"/>
<path d="M758.438 89.4798C758.438 89.4984 758.43 89.5163 758.418 89.5295C758.405 89.5427 758.387 89.5501 758.369 89.5501C758.215 89.7432 758.043 89.9199 757.854 90.0777L737.263 111.486C736.372 112.353 735.19 112.836 733.962 112.836C732.734 112.836 731.553 112.353 730.662 111.486C730.227 111.044 729.883 110.518 729.647 109.938C729.412 109.359 729.291 108.737 729.291 108.11C729.291 107.482 729.412 106.861 729.647 106.281C729.883 105.702 730.227 105.175 730.662 104.733L748.027 86.7714L730.662 68.8216C730.227 68.3792 729.883 67.8531 729.647 67.2736C729.412 66.6941 729.291 66.0726 729.291 65.445C729.291 64.8173 729.412 64.1958 729.647 63.6163C729.883 63.0369 730.227 62.5108 730.662 62.0684C731.551 61.199 732.733 60.7139 733.962 60.7139C735.191 60.7139 736.373 61.199 737.263 62.0684L757.854 83.4769C758.042 83.6308 758.215 83.8036 758.369 83.9928C758.438 83.9928 758.438 84.1452 758.438 84.1452C758.573 84.3638 758.696 84.5909 758.804 84.8252C758.804 84.8956 758.884 84.8956 758.884 84.9776C758.93 85.2085 759.003 85.4328 759.101 85.6459C759.101 85.728 759.17 85.728 759.17 85.8804V86.3963C759.17 86.4783 759.25 86.7011 759.25 86.7714C759.25 86.8418 759.17 87.0763 759.17 87.1466V87.7563C759.17 87.8266 759.101 87.8266 759.101 87.9087C759.013 88.1257 758.94 88.3491 758.884 88.577C758.884 88.6591 758.804 88.659 758.804 88.7997C758.804 88.9404 758.586 89.1866 758.438 89.4798Z" fill="#EBEBEB"/>
<path d="M36.3809 359.08C267.601 358.353 526.964 358.353 758.23 359.08C527.01 359.795 267.647 359.795 36.3809 359.08Z" fill="#263238"/>
<path d="M758.775 185.056C732.052 222.152 704.184 265.192 697.401 311.678C697.321 312.382 698.419 312.616 698.545 311.913C701.617 299.229 705.566 286.786 710.362 274.677C727.933 269.717 745.173 265.649 754.405 247.781C763.809 229.409 762.619 205.456 760.823 185.443C760.766 184.4 759.347 184.341 758.775 185.056Z" fill="#FFC727"/>
<path d="M710.729 274.348C722.741 246.738 738.184 219.021 757.735 196.323C757.861 196.171 758.067 196.382 757.952 196.534C745.128 212.702 735.382 230.312 725.921 248.227C734.764 239.023 744.465 230.781 752.85 221.014C753.01 220.827 753.273 221.108 753.113 221.296C744.797 231.531 735.702 242.646 724.869 250.22C721.955 255.691 719.015 261.201 716.049 266.751C716.781 266.329 717.524 265.965 718.279 265.578C718.405 265.52 718.519 265.719 718.394 265.79C717.57 266.212 716.746 266.669 715.888 267.032C714.481 269.647 713.097 272.261 711.644 274.864C711.232 275.439 710.443 274.934 710.729 274.348Z" fill="#263238"/>
<path d="M719.631 264.711C726.818 260.581 733.676 255.876 740.142 250.642C740.314 250.501 740.565 250.747 740.394 250.9C734.118 256.469 727.235 261.277 719.882 265.227C719.596 265.403 719.299 264.91 719.631 264.711Z" fill="#263238"/>
<path d="M694.349 304.785C694.406 305.347 695.333 305.347 695.321 304.785C695.47 289.473 695.321 274.09 695.561 258.696C699.394 250.782 707.607 246.398 713.327 240.055C717.437 235.407 721.014 230.294 723.989 224.813C731.048 211.916 734.88 197.284 736.344 182.606C737.923 166.192 731.86 112.166 725.122 114.042C721.633 115.015 710.319 141.793 707.321 150.645C702.455 165.244 698.894 180.266 696.682 195.526C691.214 231.508 691.672 268.568 694.349 304.785Z" fill="#FFC727"/>
<path d="M694.241 238.718L694.309 238.648C695.121 219.268 699.388 199.7 703.369 180.906C707.671 160.658 712.693 141.582 722.817 123.527C722.858 123.46 722.923 123.412 722.997 123.392C723.072 123.373 723.151 123.385 723.218 123.424C723.285 123.464 723.334 123.528 723.355 123.604C723.377 123.681 723.368 123.762 723.332 123.832C716.545 137.875 711.293 152.643 707.671 167.868C708.357 166.778 709.181 165.746 709.89 164.714C710.165 164.304 710.828 164.714 710.554 165.101C709.641 166.735 708.576 168.275 707.373 169.697C707.335 169.734 707.288 169.759 707.236 169.768C703.736 184.235 701.23 199.078 699.08 213.816C699.24 213.628 699.388 213.417 699.549 213.241C699.574 213.221 699.606 213.21 699.638 213.21C699.67 213.21 699.702 213.221 699.728 213.241C699.754 213.261 699.772 213.289 699.781 213.32C699.79 213.352 699.789 213.386 699.777 213.417C699.503 213.91 699.205 214.39 698.919 214.883C697.775 222.374 696.826 229.855 695.819 237.276C708.838 225.868 719.969 212.421 726.238 195.854C726.243 195.842 726.252 195.831 726.263 195.823C726.274 195.816 726.287 195.812 726.3 195.812C726.314 195.812 726.327 195.816 726.338 195.823C726.349 195.831 726.358 195.842 726.363 195.854C720.22 213.03 710.531 228.307 695.613 238.742L694.79 244.721C694.732 245.131 694.092 245.026 694.092 244.627C694.092 242.857 694.183 241.11 694.252 239.316C694.21 239.279 694.176 239.234 694.152 239.183C694.128 239.132 694.116 239.076 694.114 239.02C694.113 238.963 694.124 238.907 694.146 238.855C694.168 238.803 694.2 238.756 694.241 238.718Z" fill="#263238"/>
<path d="M700.432 210.627C710.385 195.385 719.674 180.624 726.961 163.8C727.041 163.612 727.362 163.8 727.282 163.941C721.15 180.659 712.559 197.601 700.97 211.025C700.638 211.295 700.169 210.943 700.432 210.627Z" fill="#263238"/>
<path d="M713.602 160.036C717.72 152.568 722.067 145.287 725.957 137.667C726.06 137.455 726.346 137.667 726.254 137.842C723.079 145.802 719.05 153.376 714.243 160.423C713.968 160.81 713.362 160.47 713.602 160.036Z" fill="#263238"/>
<path d="M711.987 163.296C711.999 163.301 712.009 163.31 712.017 163.322C712.024 163.333 712.028 163.347 712.028 163.36C712.028 163.374 712.024 163.387 712.017 163.399C712.009 163.41 711.999 163.419 711.987 163.425C711.974 163.419 711.964 163.41 711.957 163.399C711.949 163.387 711.945 163.374 711.945 163.36C711.945 163.347 711.949 163.333 711.957 163.322C711.964 163.31 711.974 163.301 711.987 163.296Z" fill="#263238"/>
<path d="M684.233 260.49C684.031 270.642 682.862 280.749 680.744 290.669C680.893 291.759 681.041 292.849 681.202 293.975C684.25 283.016 686.016 271.724 686.464 260.338C686.554 260.18 686.602 259.999 686.602 259.816C686.602 259.633 686.554 259.453 686.464 259.294C686.924 244.02 685.854 228.738 683.272 213.687C678.639 185.549 668.526 158.524 649.376 137.42C649.217 137.282 649.03 137.183 648.828 137.13C648.627 137.078 648.416 137.072 648.212 137.115C648.008 137.158 647.817 137.248 647.652 137.378C647.487 137.508 647.353 137.675 647.26 137.866C639.527 158.008 642.226 182.055 648.816 202.15C652.4 213.015 657.514 223.284 663.996 232.633C670.517 242.142 678.891 250.149 684.233 260.49Z" fill="#FFC727"/>
<path d="M651.584 146.847C669.738 177.048 682.368 212.843 683.912 248.52C683.912 249.153 682.906 249.317 682.768 248.672C682.345 245.46 681.865 242.282 681.361 239.128C673.857 231.754 666.146 223.969 660.77 214.765C660.667 214.601 660.896 214.414 661.021 214.554C667.553 222.21 673.605 230.054 681.03 236.831C679.741 228.936 678.189 221.171 676.374 213.534C675.882 212.96 675.413 212.362 674.932 211.799C674.623 211.424 675.138 210.873 675.47 211.248L675.905 211.741C673.347 201.262 670.18 190.95 666.421 180.859C661.845 175.208 656.629 170.307 653.265 163.519C653.247 163.486 653.242 163.447 653.252 163.411C653.261 163.375 653.285 163.344 653.317 163.325C653.349 163.306 653.386 163.302 653.422 163.311C653.457 163.321 653.487 163.345 653.505 163.378C656.116 167.326 658.919 171.137 661.902 174.797C663.126 176.239 664.465 177.588 665.735 178.983C661.544 168.04 656.573 157.429 650.863 147.234C650.813 147.136 650.803 147.021 650.835 146.916C650.867 146.81 650.939 146.722 651.034 146.671C651.13 146.619 651.242 146.609 651.345 146.642C651.448 146.675 651.534 146.749 651.584 146.847Z" fill="#263238"/>
<path d="M655.255 184.153C661.124 192.255 667.839 199.969 673.261 208.341C673.421 208.575 673.078 208.821 672.884 208.634C665.871 201.904 659.945 192.7 654.855 184.4C654.671 184.071 655.083 183.86 655.255 184.153Z" fill="#263238"/>
<path d="M674.121 210.158L674.373 210.416C674.544 210.592 674.27 210.861 674.098 210.685L673.846 210.427C673.64 210.252 673.915 209.947 674.121 210.158Z" fill="#263238"/>
<path d="M623.146 204.894C624.598 220.428 632.572 238.988 642.296 250.958C646.575 256.162 651.866 260.395 657.831 263.386C664.558 266.798 671.559 270.725 678.571 273.528C681.875 282.154 684.332 291.097 685.904 300.224C686.133 299.45 686.35 298.641 686.579 297.879C682.106 258.556 657.282 224.93 625.514 203.346C625.265 203.181 624.976 203.093 624.68 203.092C624.384 203.091 624.094 203.178 623.845 203.341C623.595 203.504 623.397 203.737 623.273 204.012C623.149 204.287 623.105 204.593 623.146 204.894Z" fill="#FFC727"/>
<path d="M634.086 216.524C633.857 216.313 634.166 215.903 634.406 216.09C651.246 228.87 666.438 247.511 674.892 267.22C675.121 267.759 674.4 268.228 674.102 267.689C672.627 265.039 671.117 262.46 669.526 259.927C662.274 258.532 655.41 253.303 650.079 248.332C649.93 248.203 650.148 247.98 650.285 248.109C653.054 250.697 656.128 252.918 659.437 254.722C662.4 256.258 665.58 257.231 668.657 258.462C665.969 254.089 663.166 249.891 660.249 245.823C652.436 243.103 645.011 238.191 638.513 233.278C638.307 233.126 638.513 232.774 638.719 232.915C645.272 236.978 652.031 240.68 658.968 244.006C654.544 238.019 649.769 232.314 644.668 226.923C642.208 225.587 639.703 224.25 637.312 222.82C637.118 222.703 637.312 222.363 637.472 222.445C639.457 223.154 641.351 224.106 643.112 225.282C640.241 222.316 637.278 219.385 634.086 216.524Z" fill="#263238"/>
<path d="M634.791 230.101C635.222 230.363 635.631 230.661 636.015 230.992C636.129 231.097 636.015 231.25 635.854 231.203C635.415 230.987 634.991 230.74 634.585 230.464C634.367 230.312 634.573 229.96 634.791 230.101Z" fill="#263238"/>
<path d="M658.174 286.272H727.087L720.303 359.068H664.958L658.174 286.272Z" fill="#455A64"/>
<path d="M659.478 300.247L658.174 286.272H727.087L726.252 295.288L659.478 300.247Z" fill="#37474F"/>
<path d="M731.756 273.739H653.52V291.466H731.756V273.739Z" fill="#455A64"/>
<path d="M662.411 0H132.166V363.512H662.411V0Z" fill="#DBDBDB"/>
<path d="M658.552 4.43182H136.018V359.08H658.552V4.43182Z" fill="#263238"/>
<path d="M731.458 447.95H63.1016V473.134H731.458V447.95Z" fill="#C7C7C7"/>
<path d="M63.1016 447.95L132.163 363.512H662.397L731.458 447.95H63.1016Z" fill="#DBDBDB"/>
<path d="M662.375 401.791H134.189L161.267 363.512H635.297L662.375 401.791Z" fill="#263238"/>
<path d="M652.913 388.414H143.648L144.747 386.855H651.814L652.913 388.414Z" fill="#37474F"/>
<path d="M643.016 374.439H153.543L154.641 372.868H641.918L643.016 374.439Z" fill="#37474F"/>
<path d="M315.52 438.453L332.633 411.511H462.738L481.053 438.453H315.52Z" fill="#263238"/>
<path d="M446.303 458.068H350.266L347.887 447.95H448.694L446.303 458.068Z" fill="#DBDBDB"/>
<path d="M629.416 31.3742H165.156V332.642H629.416V31.3742Z" fill="#37474F"/>
<path d="M629.416 31.3742H165.156V42.9695H629.416V31.3742Z" fill="#FFC727"/>
<path d="M175.792 37.166C175.792 37.5996 175.667 38.0235 175.432 38.384C175.197 38.7446 174.862 39.0256 174.472 39.1915C174.081 39.3575 173.651 39.4009 173.236 39.3163C172.821 39.2317 172.439 39.0229 172.14 38.7163C171.841 38.4097 171.637 38.019 171.555 37.5937C171.472 37.1684 171.515 36.7276 171.677 36.327C171.838 35.9264 172.113 35.5839 172.464 35.343C172.816 35.1021 173.23 34.9735 173.653 34.9735C173.934 34.972 174.213 35.0276 174.473 35.1373C174.734 35.2469 174.97 35.4083 175.169 35.6122C175.368 35.8161 175.525 36.0584 175.632 36.3251C175.739 36.5918 175.794 36.8776 175.792 37.166Z" fill="#C7C7C7"/>
<path d="M184.499 37.166C184.499 37.5996 184.374 38.0235 184.139 38.384C183.904 38.7446 183.569 39.0256 183.179 39.1915C182.788 39.3575 182.358 39.4009 181.943 39.3163C181.528 39.2317 181.146 39.0229 180.847 38.7163C180.548 38.4097 180.344 38.019 180.262 37.5937C180.179 37.1684 180.222 36.7276 180.384 36.327C180.545 35.9264 180.82 35.5839 181.171 35.343C181.523 35.1021 181.937 34.9735 182.36 34.9735C182.641 34.972 182.92 35.0276 183.18 35.1373C183.441 35.2469 183.677 35.4083 183.876 35.6122C184.075 35.8161 184.232 36.0584 184.339 36.3251C184.446 36.5918 184.501 36.8776 184.499 37.166Z" fill="white"/>
<path d="M193.277 37.166C193.277 37.5996 193.151 38.0235 192.916 38.384C192.681 38.7446 192.347 39.0256 191.956 39.1915C191.565 39.3575 191.135 39.4009 190.72 39.3163C190.305 39.2317 189.924 39.0229 189.625 38.7163C189.325 38.4097 189.122 38.019 189.039 37.5937C188.957 37.1684 188.999 36.7276 189.161 36.327C189.323 35.9264 189.597 35.5839 189.949 35.343C190.301 35.1021 190.714 34.9735 191.137 34.9735C191.419 34.972 191.697 35.0276 191.958 35.1373C192.218 35.2469 192.454 35.4083 192.653 35.6122C192.852 35.8161 193.01 36.0584 193.117 36.3251C193.224 36.5918 193.278 36.8776 193.277 37.166Z" fill="#455A64"/>
<path d="M207.886 94.4744H194.822V98.5427H207.886V94.4744Z" fill="#EBEBEB"/>
<path d="M512.833 94.4744H223.293V98.5427H512.833V94.4744Z" fill="#EBEBEB"/>
<path d="M545.674 94.4744H520.861V98.5427H545.674V94.4744Z" fill="#FFC727"/>
<path d="M207.886 113.714H194.822V117.782H207.886V113.714Z" fill="#EBEBEB"/>
<path d="M334.348 113.714H236.023V117.782H334.348V113.714Z" fill="#A6A6A6"/>
<path d="M554.671 190.696H517.48V194.764H554.671V190.696Z" fill="#A6A6A6"/>
<path d="M317.213 171.444H223.293V175.513H317.213V171.444Z" fill="#A6A6A6"/>
<path d="M301.917 132.965H236.023V137.033H301.917V132.965Z" fill="#FFC727"/>
<path d="M554.152 132.965H309.227V137.033H554.152V132.965Z" fill="#A6A6A6"/>
<path d="M508.978 190.696H223.293V194.764H508.978V190.696Z" fill="#FFC727"/>
<path d="M542.91 113.714H340.529V117.782H542.91V113.714Z" fill="#EBEBEB"/>
<path d="M207.886 132.965H194.822V137.033H207.886V132.965Z" fill="#EBEBEB"/>
<path d="M207.886 152.205H194.822V156.273H207.886V152.205Z" fill="#A6A6A6"/>
<path d="M300.489 152.205H223.293V156.273H300.489V152.205Z" fill="#EBEBEB"/>
<path d="M313.219 209.935H236.023V214.003H313.219V209.935Z" fill="#EBEBEB"/>
<path d="M512.924 229.186H305.83V233.255H512.924V229.186Z" fill="#EBEBEB"/>
<path d="M294.046 229.186H236.023V233.255H294.046V229.186Z" fill="#A6A6A6"/>
<path d="M545.666 171.444H322.521V175.513H545.666V171.444Z" fill="#EBEBEB"/>
<path d="M531.39 152.205H308.338V156.273H531.39V152.205Z" fill="#FFC727"/>
<path d="M207.886 171.444H194.822V175.513H207.886V171.444Z" fill="#EBEBEB"/>
<path d="M207.886 190.696H194.822V194.764H207.886V190.696Z" fill="#EBEBEB"/>
<path d="M207.886 209.935H194.822V214.003H207.886V209.935Z" fill="#A6A6A6"/>
<path d="M207.886 229.186H194.822V233.255H207.886V229.186Z" fill="#EBEBEB"/>
<path d="M207.886 246.656H194.822V250.724H207.886V246.656Z" fill="#EBEBEB"/>
<path d="M376.449 246.656H223.293V250.724H376.449V246.656Z" fill="#EBEBEB"/>
<path d="M202.918 75.6217L205.732 68.7513C205.765 68.6722 205.812 68.6005 205.872 68.5405C205.932 68.4804 206.002 68.4332 206.08 68.4015C206.158 68.3699 206.241 68.3544 206.325 68.3561C206.408 68.3578 206.491 68.3765 206.567 68.4113C206.643 68.4433 206.711 68.4903 206.769 68.5496C206.826 68.6089 206.872 68.6792 206.902 68.7566C206.933 68.834 206.949 68.9169 206.948 69.0005C206.948 69.0841 206.931 69.1667 206.899 69.2437L204.073 76.1258C204.024 76.2419 203.942 76.3405 203.839 76.4093C203.735 76.4781 203.614 76.5141 203.49 76.5127C203.415 76.5292 203.337 76.5292 203.261 76.5127C203.178 76.4827 203.101 76.4346 203.037 76.3716C202.973 76.3086 202.923 76.2322 202.891 76.1477C202.858 76.0631 202.844 75.9724 202.849 75.8816C202.853 75.7909 202.877 75.7022 202.918 75.6217Z" fill="#FFC727"/>
<path d="M212.457 72.843L212.377 72.9368L209.128 76.29C208.99 76.4261 208.806 76.5021 208.614 76.5021C208.422 76.5021 208.237 76.4261 208.099 76.29C208.03 76.2212 207.976 76.1391 207.939 76.0485C207.902 75.9579 207.883 75.8607 207.883 75.7624C207.883 75.6641 207.902 75.5668 207.939 75.4762C207.976 75.3857 208.03 75.3036 208.099 75.2348L210.81 72.421L208.087 69.6071C208.019 69.5384 207.965 69.4563 207.927 69.3657C207.89 69.2751 207.871 69.1778 207.871 69.0795C207.871 68.9813 207.89 68.884 207.927 68.7934C207.965 68.7028 208.019 68.6207 208.087 68.5519C208.226 68.4158 208.41 68.3398 208.602 68.3398C208.794 68.3398 208.979 68.4158 209.117 68.5519L212.354 71.9051L212.435 71.9872C212.456 72.0212 212.475 72.0564 212.492 72.0927C212.488 72.1278 212.488 72.1631 212.492 72.1982V72.2803V72.3741C212.49 72.4092 212.49 72.4444 212.492 72.4796L212.457 72.843Z" fill="#FFC727"/>
<path d="M386.744 237.71H384.959V259.67H386.744V237.71Z" fill="#EBEBEB"/>
<path d="M234.595 491.154C234.595 491.154 279.634 470.636 287.047 467.166C301.919 460.214 328.55 438.793 339.944 431.255C346.602 426.846 341.283 411.945 321.034 414.477C300.786 417.01 263.035 437.222 259.786 432.873C256.537 428.523 308.977 396.234 316.333 393.631C323.688 391.029 347.975 401.158 362.652 395.976C377.329 390.794 369.676 377.428 357.985 372.399C342.495 365.728 312.992 361.472 302.136 361.472C291.28 361.472 257.875 386.374 257.875 386.374C257.875 386.374 302.925 368.213 308.496 364.848C314.068 361.483 340.882 360.956 357.836 354.73C374.79 348.505 363.716 330.707 335.368 330.965C318.701 330.949 302.065 332.432 285.651 335.397C277.643 336.64 229.276 369.468 229.276 369.468C229.276 369.468 238.645 367.392 242.443 366.091C246.241 364.79 283.97 340.426 289.209 337.589C308.988 326.861 322.979 312.511 316.664 303.46C312.088 296.882 285.685 305.289 272.827 312.839C255.736 322.864 207.289 359.619 207.289 359.619L268.011 317.611C268.011 317.611 263.103 313.437 246.79 317.119C237.147 319.299 197.599 343.522 191.319 348.434C172.329 363.265 121.262 427.092 121.262 427.092L163.028 482.021L234.595 491.154Z" fill="#D3766A"/>
<path d="M210.124 358.154C224.447 345.89 236.127 332.067 266.614 317.119C266.717 317.119 266.614 316.802 266.499 316.825C244.764 322.523 224.252 340.637 209.655 357.497C209.175 358.118 209.552 358.634 210.124 358.154Z" fill="#263238"/>
<path d="M231.481 369.174C244.168 361.413 258.845 350.99 274.002 343.381C281.438 339.641 284.641 338.879 295.292 334.107C295.395 334.107 295.292 333.826 295.2 333.849C285.557 336.358 283.966 336.065 273.613 340.075C260.137 345.292 238.024 362.081 231.046 368.67C230.497 369.186 230.806 369.573 231.481 369.174Z" fill="#263238"/>
<path d="M254.925 385.284C268.653 379.609 285.321 369.421 299.483 364.731C303.03 363.558 308.452 362.808 316.563 362.808C316.998 362.808 317.535 362.316 316.506 362.128C309.642 360.838 302.835 360.956 298.602 362.128C284.715 366.103 262.453 379.292 254.582 384.709C253.964 385.155 254.205 385.588 254.925 385.284Z" fill="#263238"/>
<path d="M234.595 491.166L206.602 536.961H0L121.216 427.092L224.746 415.38L234.595 491.166Z" fill="#D3766A"/>
<path d="M206.602 536.961L214.004 524.838L59.4181 483.099L0 536.961H206.602Z" fill="#FFC727"/>
<path opacity="0.1" d="M206.602 536.961L214.004 524.838L59.4181 483.099L0 536.961H206.602Z" fill="black"/>
<path opacity="0.1" d="M1.3418 535.741L7.1532 530.465V536.949H1.3418V535.741Z" fill="black"/>
<path opacity="0.1" d="M205.104 522.434V536.949H199.293V520.863L205.104 522.434Z" fill="black"/>
<path opacity="0.1" d="M165.508 511.742L184.43 516.854H165.508V536.949H159.697V516.854H125.915V536.949H120.104V516.854H86.3222V536.949H80.5108V516.854H46.7406V536.949H40.9292V516.854H22.168L28.7458 510.898H40.9292V499.853L46.7406 494.589V510.898H80.5108V488.797L86.3222 490.368V510.898H120.104V499.49L125.915 501.049V510.898H159.697V510.171L162.374 510.898H165.508V511.742Z" fill="black"/>
<path d="M32.248 501.964L214.003 531.591L230.774 505.082L68.7409 468.268L32.248 501.964Z" fill="#FFC727"/>
<path d="M541.927 466.978C541.927 466.978 500.882 446.109 493.183 443.389C477.762 437.926 454.104 415.087 442.047 408.709C435.011 404.98 438.912 389.622 459.309 390.149C479.707 390.677 502.334 407.97 503.341 406.235C506.098 401.545 458.966 379.82 451.416 377.956C443.866 376.092 420.277 382.435 405.176 378.718C390.076 375.001 396.448 360.956 407.613 354.789C422.405 346.582 451.725 345.62 462.524 344.542C473.323 343.463 508.912 364.977 508.912 364.977C508.912 364.977 462.375 351.342 456.507 348.563C450.638 345.784 423.903 347.883 406.446 343.358C388.989 338.832 398.347 320.026 426.58 317.494C443.173 315.851 459.874 315.702 476.492 317.048C484.626 317.494 535.796 345.409 535.796 345.409C535.796 345.409 526.278 344.237 522.377 343.346C518.476 342.455 478.631 321.89 473.186 319.581C452.468 310.776 437.208 297.879 442.676 288.277C446.657 281.242 473.678 287.046 487.177 293.283C505.137 301.584 556.799 333.392 556.799 333.392L487.989 295.991C487.989 295.991 491.158 289.297 500.985 290.27C536.093 293.787 564.944 316.368 571.659 320.648C591.954 333.544 648.775 392.049 648.775 392.049L613.243 447.95L541.927 466.978Z" fill="#D3766A"/>
<path d="M557.439 328.819C541.549 319.159 521.174 306.321 489.463 294.209C489.36 294.209 489.395 293.975 489.463 293.998C511.119 298.934 540.691 313.203 557.713 328.386C558.319 328.843 558.091 329.195 557.439 328.819Z" fill="#263238"/>
<path d="M533.575 345.245C520.225 338.785 504.633 329.851 488.834 323.766C481.078 320.777 477.829 320.331 466.779 316.626C466.664 316.626 466.721 316.345 466.847 316.368C476.685 317.916 478.23 317.459 488.914 320.437C502.814 324.306 526.403 338.832 533.964 344.706C534.559 345.163 534.285 345.585 533.575 345.245Z" fill="#263238"/>
<path d="M511.745 363.605C497.582 359.291 480.011 350.791 465.471 347.531C461.833 346.711 447.453 346.136 439.377 346.933C438.942 346.933 438.37 346.547 439.377 346.253C446.126 344.284 461.799 344.073 466.123 344.858C480.308 347.449 503.714 358.388 512.054 363.007C512.706 363.371 512.5 363.828 511.745 363.605Z" fill="#263238"/>
<path d="M794.56 537.148L648.771 392.049L557.082 396.152L541.924 466.978L583.37 537.148H794.56Z" fill="#D3766A"/>
<path d="M583.369 537.148L558.637 495.281L685.938 429.039L794.559 537.148H583.369Z" fill="#FFC727"/>
<path opacity="0.1" d="M583.369 537.148L558.637 495.281L685.938 429.039L794.559 537.148H583.369Z" fill="black"/>
<path opacity="0.1" d="M692.631 435.698H673.183L684.623 429.742H686.705L691.464 434.432L692.631 435.698ZM727.408 470.32H606.409V470.425L595.164 476.288H733.391L730.989 473.943L727.408 470.32ZM768.179 510.898H567.857L571.381 516.854H774.162L770.582 513.336L768.179 510.898ZM768.179 510.898L764.747 507.509V537.16H770.559V513.289L768.179 510.898ZM727.408 470.32L725.12 468.092V537.16H730.931V473.849L727.408 470.32ZM686.705 429.742L685.996 429.039L685.561 429.191V537.125H691.384V434.479L686.705 429.742ZM646.06 449.814V537.16H651.871V446.777L646.06 449.814ZM606.627 470.32H606.432V537.148H612.244V467.389L606.627 470.32ZM566.816 491.025V509.127L567.857 510.898L571.381 516.854L572.628 518.976V488L566.816 491.025Z" fill="black"/>
<path d="M548.857 491.564L570.925 524.838L725.373 460.542L683.526 422.168L548.857 491.564Z" fill="#FFC727"/>
</svg>
