<svg width="218" height="238" viewBox="0 0 218 238" fill="none" xmlns="http://www.w3.org/2000/svg">
<path d="M127.113 237.659H90.8862C87.5257 237.659 84.8025 234.936 84.8025 231.575V216.187C77.56 214.221 70.6507 211.376 64.1651 207.688L53.2669 218.586C50.8913 220.962 47.0381 220.962 44.663 218.586L19.0715 192.995C17.9309 191.854 17.2899 190.306 17.2899 188.693C17.2899 187.08 17.9308 185.531 19.0715 184.391L29.9967 173.466C26.3357 166.938 23.4894 160.036 21.5013 152.855L6.08371 152.859C2.72318 152.859 0 150.136 0 146.775V111.383C0 108.022 2.72318 105.299 6.08371 105.299H58.4801C60.4573 105.299 62.3131 106.261 63.4522 107.878C64.5911 109.494 64.8754 111.564 64.2109 113.427C62.4673 118.318 61.5819 123.444 61.5819 128.662C61.5819 154.193 82.8551 174.963 109 174.963C135.145 174.963 156.418 154.192 156.418 128.662C156.418 123.444 155.535 118.318 153.789 113.427C153.125 111.564 153.407 109.495 154.548 107.878C155.687 106.261 157.542 105.299 159.52 105.299H211.916C215.277 105.299 218 108.022 218 111.383V146.775C218 150.136 215.277 152.859 211.916 152.859H196.528C194.562 160.103 191.717 167.012 188.029 173.496L198.927 184.394C200.068 185.535 200.709 187.083 200.709 188.696C200.709 190.31 200.068 191.858 198.927 192.998L173.336 218.59C172.195 219.731 170.647 220.372 169.034 220.372C167.42 220.372 165.872 219.731 164.732 218.59L153.806 207.665C147.277 211.328 140.377 214.172 133.196 216.16V231.578C133.198 234.936 130.473 237.66 127.114 237.66L127.113 237.659ZM96.9699 225.492H121.029V211.405C121.029 208.55 123.014 206.08 125.802 205.464C134.913 203.453 143.564 199.89 151.517 194.871C153.921 193.353 157.056 193.703 159.065 195.713L169.035 205.682L186.024 188.693L176.054 178.724C174.028 176.698 173.691 173.533 175.243 171.126C180.282 163.312 183.833 154.689 185.798 145.5C186.397 142.694 188.877 140.69 191.747 140.69H205.832V117.465H167.494C168.222 121.137 168.588 124.879 168.588 128.658C168.588 160.898 141.857 187.126 109.002 187.126C76.1469 187.126 49.4166 160.898 49.4166 128.658C49.4166 124.877 49.7823 121.135 50.5102 117.465L12.172 117.467V140.691H26.2607C29.116 140.691 31.5856 142.676 32.2011 145.464C34.2127 154.577 37.7759 163.228 42.7949 171.179C44.3122 173.583 43.9627 176.718 41.953 178.727L31.9836 188.697L48.9725 205.686L58.9419 195.716C60.968 193.69 64.131 193.352 66.5395 194.905C74.3558 199.944 82.9782 203.495 92.1652 205.459C94.9717 206.059 96.9761 208.539 96.9761 211.409L96.9699 225.492Z" fill="#006872"/>
<path d="M130.691 52.1444H87.2999C85.1561 52.1444 83.1698 51.0146 82.0709 49.1713C80.9736 47.3281 80.9284 45.0431 81.9514 43.1581L103.646 3.18128C104.711 1.22036 106.763 0 108.993 0C111.224 0 113.275 1.22036 114.34 3.18128L136.035 43.1581C137.058 45.0429 137.013 47.3279 135.915 49.1713C134.824 51.0146 132.837 52.1444 130.692 52.1444H130.691ZM97.5242 39.977H120.468L108.996 18.8381L97.5242 39.977Z" fill="#006872"/>
<path d="M130.69 126.655H87.2985C83.938 126.655 81.2148 123.932 81.2148 120.572L81.2167 46.0607H93.3841V114.486H124.608V89.8411H136.776V120.569C136.774 123.928 134.051 126.653 130.69 126.653L130.69 126.655Z" fill="#006872"/>
<path d="M124.613 64.9422H136.781V77.1096H124.613V64.9422Z" fill="#006872"/>
<path d="M130.69 155.134H87.2986C83.938 155.134 81.2148 152.411 81.2148 149.05V120.571C81.2148 117.211 83.938 114.487 87.2986 114.487H130.69C134.051 114.487 136.774 117.211 136.774 120.571V149.05C136.774 152.409 134.051 155.134 130.69 155.134ZM93.3841 142.967H124.608V126.655H93.3841V142.967Z" fill="#006872"/>
<path d="M154.75 56.9742L182.933 36.8783L189.997 46.786L161.815 66.882L154.75 56.9742Z" fill="#006872"/>
<path d="M149.316 21.7541L167.359 6.72586L175.147 16.076L157.104 31.1043L149.316 21.7541Z" fill="#006872"/>
<path d="M28.0039 46.7768L35.0689 36.8691L63.2514 56.965L56.1864 66.8728L28.0039 46.7768Z" fill="#006872"/>
<path d="M42.8516 16.0797L50.6392 6.72952L68.6822 21.7578L60.8946 31.1079L42.8516 16.0797Z" fill="#006872"/>
</svg>
