<svg width="30" height="31" viewBox="0 0 30 31" fill="none" xmlns="http://www.w3.org/2000/svg">
<path d="M29.0213 14.6817C29.1563 14.2301 29.2238 13.7636 29.2238 13.2895C29.2238 12.2247 28.875 11.2013 28.245 10.366C28.38 9.91445 28.4475 9.44789 28.4475 8.97381C28.4475 7.90899 28.0988 6.88557 27.4688 6.05027C27.6038 5.59876 27.6713 5.1322 27.6713 4.65812C27.6713 2.71662 26.52 0.967016 24.735 0.203211C24.4212 0.0674892 24.0829 -0.00168511 23.7412 3.11715e-05H1.2C0.53625 3.11715e-05 0 0.538082 0 1.20406V14.8999C0 15.5659 0.53625 16.1039 1.2 16.1039H6.04875L9.26625 27.798C9.78375 29.6831 11.5087 31 13.4588 31C14.5725 31 15.6112 30.556 16.38 29.7433C17.1488 28.9343 17.5425 27.8733 17.4862 26.7558L17.2612 22.1316H26.2575C26.7113 22.1316 27.1538 22.0112 27.5438 21.7817C29.0588 20.8974 30 19.2946 30 17.6052C30 16.5404 29.6513 15.5169 29.0213 14.6817ZM2.7 13.3911V2.70533H5.7375V13.3911H2.7ZM26.22 19.4263H14.43L14.79 26.8913C14.8125 27.339 14.6138 27.7604 14.2425 28.0388C14.0138 28.2082 13.7325 28.2947 13.4513 28.2909C13.0919 28.2874 12.7434 28.1671 12.4581 27.948C12.1728 27.7288 11.966 27.4227 11.8688 27.0756L8.1375 13.5115V2.70533H23.715C24.0898 2.87388 24.4082 3.14749 24.6317 3.49326C24.8552 3.83902 24.9744 4.24222 24.975 4.65435C24.975 5.01932 24.8888 5.36548 24.7162 5.68154L24.195 6.63724L25.0163 7.35213C25.2474 7.553 25.4327 7.8015 25.5595 8.08069C25.6864 8.35988 25.7518 8.66322 25.7513 8.97004C25.7513 9.33501 25.665 9.68117 25.4925 9.99723L24.9713 10.9529L25.7925 11.6678C26.0237 11.8687 26.209 12.1172 26.3358 12.3964C26.4626 12.6756 26.528 12.9789 26.5275 13.2857C26.5275 13.6507 26.4413 13.9969 26.2688 14.3129L25.7438 15.2724L26.565 15.9873C26.7962 16.1881 26.9815 16.4366 27.1083 16.7158C27.2351 16.995 27.3005 17.2984 27.3 17.6052C27.3 18.3238 26.8875 19.0162 26.22 19.4263Z" fill="#006872"/>
</svg>
