<svg width="45" height="40" viewBox="0 0 45 40" fill="none" xmlns="http://www.w3.org/2000/svg">
<g filter="url(#filter0_d_531_1504)">
<path d="M18.9283 15.5722C23.0502 15.5722 26.3917 12.3031 26.3917 8.27046C26.3917 4.23784 23.0502 0.96875 18.9283 0.96875C14.8063 0.96875 11.4648 4.23784 11.4648 8.27046C11.4648 12.3031 14.8063 15.5722 18.9283 15.5722Z" fill="black"/>
<path d="M20.177 17.4335C19.7665 17.4152 19.356 17.3969 18.9269 17.3969C14.4115 17.3969 10.1947 18.62 6.59355 20.7192C4.95159 21.6684 4 23.4574 4 25.3376V30.1749H21.2779C19.96 28.3357 19.1638 26.1876 18.9704 23.9495C18.7771 21.7113 19.1934 19.463 20.177 17.4335ZM38.9849 22.8732C38.9849 22.4716 38.9289 22.1065 38.8729 21.7232L41 19.8795L39.1341 16.7215L36.4286 17.616C35.8316 17.1231 35.1599 16.7398 34.4135 16.466L33.8538 13.7461H30.122L29.5623 16.466C28.8159 16.7398 28.1442 17.1231 27.5472 17.616L24.8417 16.7215L22.9758 19.8795L25.1029 21.7232C25.0469 22.1065 24.9909 22.4716 24.9909 22.8732C24.9909 23.2748 25.0469 23.6399 25.1029 24.0232L22.9758 25.8669L24.8417 29.0249L27.5472 28.1305C28.1442 28.6233 28.8159 29.0067 29.5623 29.2805L30.122 32.0004H33.8538L34.4135 29.2805C35.1599 29.0067 35.8316 28.6233 36.4286 28.1305L39.1341 29.0249L41 25.8669L38.8729 24.0232C38.9289 23.6399 38.9849 23.2748 38.9849 22.8732ZM31.9879 26.5241C29.9355 26.5241 28.2562 24.8812 28.2562 22.8732C28.2562 20.8653 29.9355 19.2224 31.9879 19.2224C34.0403 19.2224 35.7196 20.8653 35.7196 22.8732C35.7196 24.8812 34.0403 26.5241 31.9879 26.5241Z" fill="black"/>
</g>
<defs>
<filter id="filter0_d_531_1504" x="0" y="0.96875" width="45" height="39.0312" filterUnits="userSpaceOnUse" color-interpolation-filters="sRGB">
<feFlood flood-opacity="0" result="BackgroundImageFix"/>
<feColorMatrix in="SourceAlpha" type="matrix" values="0 0 0 0 0 0 0 0 0 0 0 0 0 0 0 0 0 0 127 0" result="hardAlpha"/>
<feOffset dy="4"/>
<feGaussianBlur stdDeviation="2"/>
<feComposite in2="hardAlpha" operator="out"/>
<feColorMatrix type="matrix" values="0 0 0 0 0 0 0 0 0 0 0 0 0 0 0 0 0 0 0.25 0"/>
<feBlend mode="normal" in2="BackgroundImageFix" result="effect1_dropShadow_531_1504"/>
<feBlend mode="normal" in="SourceGraphic" in2="effect1_dropShadow_531_1504" result="shape"/>
</filter>
</defs>
</svg>
