<svg width="30" height="31" viewBox="-5 0 16 31" fill="none" xmlns="http://www.w3.org/2000/svg">
<path d="M9.76562 0.609375V5.28125H7.35938V0.609375H9.76562ZM9.46875 26.125V30.3125H7.07812V26.125H9.46875ZM11.8281 21.0781C11.8281 20.474 11.7031 19.9479 11.4531 19.5C11.2135 19.0417 10.8177 18.6302 10.2656 18.2656C9.71354 17.8906 8.97396 17.5417 8.04688 17.2188C6.71354 16.75 5.54688 16.224 4.54688 15.6406C3.55729 15.0469 2.78646 14.3177 2.23438 13.4531C1.69271 12.5781 1.42188 11.4896 1.42188 10.1875C1.42188 8.90625 1.71354 7.79688 2.29688 6.85938C2.89062 5.92188 3.71354 5.19792 4.76562 4.6875C5.81771 4.17708 7.04688 3.92188 8.45312 3.92188C9.53646 3.92188 10.5104 4.08333 11.375 4.40625C12.25 4.72917 12.9948 5.20312 13.6094 5.82812C14.224 6.45312 14.6927 7.22396 15.0156 8.14062C15.349 9.04688 15.5156 10.0885 15.5156 11.2656H11.7656C11.7656 10.599 11.6875 10.0052 11.5312 9.48438C11.3854 8.95312 11.1667 8.50521 10.875 8.14062C10.5833 7.76562 10.2292 7.47917 9.8125 7.28125C9.40625 7.08333 8.94271 6.98438 8.42188 6.98438C7.68229 6.98438 7.07292 7.125 6.59375 7.40625C6.11458 7.67708 5.76042 8.05208 5.53125 8.53125C5.3125 9.01042 5.20312 9.55729 5.20312 10.1719C5.20312 10.7656 5.31771 11.2865 5.54688 11.7344C5.77604 12.1823 6.16667 12.5885 6.71875 12.9531C7.28125 13.3073 8.05208 13.6667 9.03125 14.0312C10.375 14.5104 11.5365 15.0469 12.5156 15.6406C13.5052 16.224 14.2656 16.9479 14.7969 17.8125C15.3385 18.6667 15.6094 19.7448 15.6094 21.0469C15.6094 22.3906 15.2969 23.5312 14.6719 24.4688C14.0573 25.4062 13.1927 26.1198 12.0781 26.6094C10.974 27.0885 9.6875 27.3281 8.21875 27.3281C7.29167 27.3281 6.36979 27.2083 5.45312 26.9688C4.54688 26.7188 3.72396 26.3125 2.98438 25.75C2.24479 25.1875 1.65625 24.4427 1.21875 23.5156C0.78125 22.5781 0.5625 21.4323 0.5625 20.0781H4.34375C4.34375 20.8906 4.45312 21.5677 4.67188 22.1094C4.89062 22.651 5.1875 23.0781 5.5625 23.3906C5.9375 23.7031 6.35417 23.9271 6.8125 24.0625C7.28125 24.1979 7.75 24.2656 8.21875 24.2656C9 24.2656 9.65625 24.1354 10.1875 23.875C10.7292 23.6042 11.1354 23.2292 11.4062 22.75C11.6875 22.2604 11.8281 21.7031 11.8281 21.0781Z" fill="black"/>
</svg>
