<svg width="11" height="45" viewBox="0 0 11 45" fill="none" xmlns="http://www.w3.org/2000/svg">
<path d="M10.4688 39.0625C10.4688 40.3803 9.94526 41.6441 9.01344 42.5759C8.08162 43.5078 6.81779 44.0312 5.5 44.0312C4.18221 44.0312 2.91838 43.5078 1.98656 42.5759C1.05474 41.6441 0.53125 40.3803 0.53125 39.0625C0.53125 37.7447 1.05474 36.4809 1.98656 35.5491C2.91838 34.6172 4.18221 34.0938 5.5 34.0938C6.81779 34.0938 8.08162 34.6172 9.01344 35.5491C9.94526 36.4809 10.4688 37.7447 10.4688 39.0625ZM10.4688 22.5C10.4688 23.8178 9.94526 25.0816 9.01344 26.0134C8.08162 26.9453 6.81779 27.4688 5.5 27.4688C4.18221 27.4688 2.91838 26.9453 1.98656 26.0134C1.05474 25.0816 0.53125 23.8178 0.53125 22.5C0.53125 21.1822 1.05474 19.9184 1.98656 18.9866C2.91838 18.0547 4.18221 17.5312 5.5 17.5312C6.81779 17.5312 8.08162 18.0547 9.01344 18.9866C9.94526 19.9184 10.4688 21.1822 10.4688 22.5ZM10.4688 5.9375C10.4688 7.25529 9.94526 8.51912 9.01344 9.45094C8.08162 10.3828 6.81779 10.9062 5.5 10.9062C4.18221 10.9062 2.91838 10.3828 1.98656 9.45094C1.05474 8.51912 0.53125 7.25529 0.53125 5.9375C0.53125 4.61971 1.05474 3.35588 1.98656 2.42406C2.91838 1.49224 4.18221 0.96875 5.5 0.96875C6.81779 0.96875 8.08162 1.49224 9.01344 2.42406C9.94526 3.35588 10.4688 4.61971 10.4688 5.9375Z" fill="#006872"/>
</svg>
