<svg width="169" height="150" viewBox="0 0 169 150" fill="none" xmlns="http://www.w3.org/2000/svg">
<path d="M110.798 16.2018C116.701 16.2018 119.653 18.4451 120.734 22.0178C121.274 23.8042 123.062 24.9258 124.932 24.9258H125.182C128.091 24.9258 130.253 21.9763 129.214 19.276C127.385 14.4985 123.353 10.635 117.034 9.09792V6.23145C117.034 2.78338 114.249 0 110.798 0C107.348 0 104.563 2.78338 104.563 6.23145V8.97329C102.942 9.30564 101.445 9.8457 99.9902 10.4688L106.267 16.7418C107.598 16.4095 109.136 16.2018 110.798 16.2018ZM78.6649 6.72997C78.2795 7.1143 77.9738 7.57081 77.7652 8.07337C77.5566 8.57593 77.4492 9.11467 77.4492 9.65875C77.4492 10.2028 77.5566 10.7416 77.7652 11.2441C77.9738 11.7467 78.2795 12.2032 78.6649 12.5875L90.0135 23.9703C90.0135 32.6113 96.4984 37.3472 106.267 40.2136L120.858 54.7953C119.445 56.8309 116.493 58.5757 110.798 58.5757C103.939 58.5757 100.406 56.1246 99.0341 52.635C98.4106 51.0148 96.9972 49.8516 95.2929 49.8516H94.5862C91.5931 49.8516 89.4315 52.9258 90.637 55.6261C93.0896 61.1513 98.4937 64.4332 104.604 65.7626V68.546C104.604 71.9941 107.39 74.7775 110.84 74.7775C114.29 74.7775 117.075 71.9941 117.075 68.546V65.8457C121.066 65.0979 124.683 63.5608 127.302 61.1929L133.579 67.4659C133.964 67.8505 134.42 68.1556 134.923 68.3637C135.426 68.5719 135.965 68.679 136.509 68.679C137.054 68.679 137.593 68.5719 138.095 68.3637C138.598 68.1556 139.055 67.8505 139.44 67.4659C139.825 67.0813 140.13 66.6247 140.338 66.1221C140.547 65.6196 140.654 65.081 140.654 64.5371C140.654 63.9932 140.547 63.4546 140.338 62.952C140.13 62.4495 139.825 61.9929 139.44 61.6083L84.5263 6.72997C84.1417 6.34485 83.6849 6.03931 83.182 5.83084C82.6791 5.62237 82.14 5.51507 81.5956 5.51507C81.0511 5.51507 80.5121 5.62237 80.0092 5.83084C79.5063 6.03931 79.0495 6.34485 78.6649 6.72997Z" fill="#006872"/>
<path d="M165.115 86.9041C161.668 83.2329 156.294 83.4731 152.672 86.9041L125.683 112.259C122.383 115.381 118.265 117.063 114 117.063H79.4466C76.8763 117.063 74.7733 114.592 74.7733 111.573C74.7733 108.554 76.8763 106.083 79.4466 106.083H102.317C106.961 106.083 111.284 102.344 112.043 96.957C113.007 90.095 108.509 84.125 102.813 84.125H56.08C48.1937 84.125 40.5704 87.3158 34.4366 93.1486L20.8547 106.083H4.67333C2.103 106.083 0 108.554 0 111.573V144.511C0 147.53 2.103 150 4.67333 150H108.889C113.124 150 117.242 148.319 120.572 145.197L164.735 103.682C169.175 99.5302 169.525 91.5703 165.115 86.9041Z" fill="black" fill-opacity="0.6"/>
</svg>
