<svg width="116" height="116" viewBox="0 0 116 116" fill="none" xmlns="http://www.w3.org/2000/svg">
<path d="M93.3008 5.04468H95.8223V7.56616H93.3008V5.04468Z" fill="#006872"/>
<path d="M99.6094 5.04468H102.131V7.56616H99.6094V5.04468Z" fill="#006872"/>
<path d="M105.914 5.04468H108.436V7.56616H105.914V5.04468Z" fill="#006872"/>
<path d="M0 35.3049H2.52148V37.8264H0V35.3049Z" fill="#006872"/>
<path d="M0 0.000675515V32.7828H2.52238V12.6088H113.477V83.2165C113.477 85.5576 112.548 87.8022 110.893 89.4575C109.237 91.1127 106.993 92.0422 104.652 92.0422H65.5652V94.5637H104.652C107.661 94.5637 110.548 93.3685 112.676 91.24C114.804 89.1125 116 86.2259 116 83.2163V0L0 0.000675515ZM2.52148 10.0877L2.52236 2.52306H113.477V10.0886L2.52236 10.0877L2.52148 10.0877Z" fill="#006872"/>
<path d="M8.82812 20.1748H42.8711V22.6963H8.82812V20.1748Z" fill="#006872"/>
<path d="M17.6523 27.7399H42.8694V30.2613H17.6523V27.7399Z" fill="#006872"/>
<path d="M8.82812 27.7399H15.1324V30.2613H8.82812V27.7399Z" fill="#006872"/>
<path d="M63.0426 65.5655H84.4777C87.9149 65.5417 91.1031 63.7695 92.9376 60.8627C94.7731 57.9569 95.0009 54.3157 93.5445 51.2032C92.0871 48.0898 89.1452 45.9333 85.738 45.4794V42.8699C85.738 41.5322 85.2068 40.2489 84.2613 39.3035C83.315 38.358 82.0327 37.8259 80.6949 37.8259H71.8691V40.3474H80.6949V40.3483C81.3633 40.3483 82.0053 40.6139 82.4776 41.0862C82.9508 41.5594 83.2164 42.2005 83.2164 42.8698V50.4354V50.4345C83.2164 51.1038 82.9508 51.745 82.4776 52.2181C82.0053 52.6913 81.3633 52.9569 80.6949 52.9569H35.3042C33.912 52.9569 32.7827 51.8276 32.7827 50.4345V42.8699C32.7827 41.4767 33.912 40.3484 35.3042 40.3484H69.3472V37.826H35.3042C33.9665 37.826 32.6841 38.3581 31.7378 39.3036C30.7923 40.249 30.2611 41.5322 30.2611 42.87V50.4355V50.4347C30.2611 51.7724 30.7923 53.0557 31.7378 54.0011C32.6841 54.9474 33.9664 55.4786 35.3042 55.4786H80.6949C82.0326 55.4786 83.315 54.9474 84.2613 54.0011C85.2068 53.0556 85.738 51.7724 85.738 50.4347V48.0267C88.2419 48.4655 90.3588 50.1322 91.372 52.4628C92.3852 54.7943 92.1591 57.4785 90.7713 59.6087C89.3834 61.738 87.0193 63.029 84.4776 63.0432H63.0424C61.3705 63.0432 59.7671 63.7081 58.5851 64.8901C57.403 66.0722 56.7381 67.6755 56.7381 69.3475V84.4784H52.9563V92.0439L11.3481 92.0431C9.00699 92.0431 6.76245 91.1134 5.10713 89.4583C3.4519 87.8031 2.52238 85.5587 2.52238 83.2173V40.3483H0V83.2173C0 86.2269 1.19612 89.1136 3.3237 91.2411C5.45208 93.3695 8.33851 94.5648 11.3483 94.5648H52.9565V110.956C52.9565 112.758 53.9178 114.423 55.478 115.324C57.0382 116.225 58.9608 116.225 60.5209 115.324C62.0812 114.423 63.0424 112.758 63.0424 110.956V84.4782H59.2605V69.3473C59.2605 68.3446 59.6589 67.3824 60.3678 66.6727C61.0776 65.9638 62.0397 65.5654 63.0424 65.5654L63.0426 65.5655ZM60.5211 110.956C60.5211 112.349 59.3927 113.478 57.9996 113.478C56.6065 113.478 55.4781 112.349 55.4781 110.956V87H60.5211V110.956Z" fill="#006872"/>
<path d="M31.5195 56.7395V65.5661C31.5195 66.9171 32.2407 68.166 33.4113 68.8414C34.5811 69.5169 36.0235 69.5169 37.1941 68.8414C38.3638 68.166 39.085 66.9171 39.085 65.5661V63.0438C39.085 62.3481 39.6497 61.7834 40.3462 61.7834C41.0419 61.7834 41.6066 62.3481 41.6066 63.0438V71.8704C41.6066 73.2213 42.3278 74.4702 43.4984 75.1457C44.6681 75.8212 46.1106 75.8212 47.2803 75.1457C48.4509 74.4702 49.1721 73.2213 49.1721 71.8704V56.7395H46.6506V71.8704C46.6506 72.5661 46.0859 73.1307 45.3894 73.1307C44.6928 73.1307 44.1281 72.5661 44.1281 71.8704V63.0438C44.1281 61.6929 43.4078 60.4439 42.2372 59.7685C41.0666 59.093 39.625 59.093 38.4544 59.7685C37.2847 60.4439 36.5635 61.6928 36.5635 63.0438V65.5661C36.5635 66.2618 35.9989 66.8265 35.3023 66.8265C34.6057 66.8265 34.042 66.2618 34.042 65.5661V56.7395H31.5195Z" fill="#006872"/>
<path d="M31.5195 80.6956C31.5195 82.0465 32.2407 83.2954 33.4113 83.9709C34.5811 84.6472 36.0235 84.6472 37.1941 83.9709C38.3638 83.2954 39.085 82.0465 39.085 80.6956V75.6518C39.085 74.3008 38.3638 73.0519 37.1941 72.3765C36.0235 71.701 34.5812 71.701 33.4113 72.3765C32.2407 73.0519 31.5195 74.3008 31.5195 75.6518V80.6956ZM34.041 75.6527L34.0419 75.6518C34.0419 74.9561 34.6057 74.3914 35.3022 74.3914C35.9988 74.3914 36.5634 74.9561 36.5634 75.6518V80.6956C36.5634 81.3922 35.9988 81.956 35.3022 81.956C34.6057 81.956 34.0419 81.3922 34.0419 80.6956V75.6518L34.041 75.6527Z" fill="#006872"/>
</svg>
