<svg width="120" height="129" viewBox="0 0 120 129" fill="none" xmlns="http://www.w3.org/2000/svg">
<path fill-rule="evenodd" clip-rule="evenodd" d="M34.5558 16.125V18.4286C34.5558 32.3961 45.9275 43.7679 59.8951 43.7679H59.8231C64.0467 43.8964 69.4375 46.2668 73.59 50.0852C77.7436 53.9025 80.6334 59.0238 80.6271 64.5C80.6271 75.9778 71.3728 85.2321 59.895 85.2321H59.823C54.137 85.4029 47.9689 88.1065 43.0593 92.5296C38.1499 96.9527 34.4897 103.251 34.5556 110.589V112.866H39.1627V110.553C39.1103 104.769 41.997 99.6955 46.1453 95.9582C50.2938 92.22 55.6989 89.9689 59.9667 89.8393H59.8947C73.8591 89.8393 85.2288 78.4715 85.234 64.5093C85.2433 57.4287 81.5925 51.1783 76.7129 46.6925C71.8333 42.2067 65.6968 39.3437 59.9669 39.17H59.8949C48.417 39.17 39.1627 29.9157 39.1627 18.4378V16.1343H34.5556L34.5558 16.125Z" fill="#006872"/>
<path fill-rule="evenodd" clip-rule="evenodd" d="M80.6262 16.125V18.4286C80.6262 29.9064 71.3719 39.1607 59.8941 39.1607H59.8221C54.1558 39.3314 48.006 41.964 43.1037 46.3594C38.2025 50.7528 34.5497 57.0535 34.5547 64.4908C34.5547 78.4583 45.9264 89.8301 59.894 89.8301H59.822C64.0969 89.9586 69.427 92.1881 73.5447 95.9128C77.6624 99.6375 80.5655 104.723 80.626 110.589V112.866H85.2331V110.553C85.156 103.195 81.5166 96.9133 76.6399 92.5028C71.7634 88.091 65.6444 85.4141 59.9657 85.2414H59.8938C48.4159 85.2414 39.1616 75.9871 39.1616 64.5093C39.1544 58.5724 42.0412 53.5087 46.171 49.8064C50.3009 46.1041 55.6783 43.9077 59.9656 43.7771H59.8936C73.8612 43.7771 85.2329 32.4054 85.2329 18.4378V16.1343H80.6258L80.6262 16.125Z" fill="#006872"/>
<path fill-rule="evenodd" clip-rule="evenodd" d="M36.8594 66.8027V71.4099H82.9308V66.8027H36.8594Z" fill="#006872"/>
<path fill-rule="evenodd" clip-rule="evenodd" d="M36.8594 57.5898V62.197H82.9308V57.5898H36.8594Z" fill="#006872"/>
<path fill-rule="evenodd" clip-rule="evenodd" d="M41.4609 48.375V52.9821H78.3181V48.375H41.4609Z" fill="#006872"/>
<path fill-rule="evenodd" clip-rule="evenodd" d="M41.4609 76.0176V80.6247H78.3181V76.0176H41.4609Z" fill="#006872"/>
<path fill-rule="evenodd" clip-rule="evenodd" d="M36.8594 20.7324V25.3396H82.9308V20.7324H36.8594Z" fill="#006872"/>
<path fill-rule="evenodd" clip-rule="evenodd" d="M41.4609 29.9473V34.5544H78.3181V29.9473H41.4609Z" fill="#006872"/>
<path fill-rule="evenodd" clip-rule="evenodd" d="M36.8594 103.66V108.267H82.9308V103.66H36.8594Z" fill="#006872"/>
<path fill-rule="evenodd" clip-rule="evenodd" d="M41.4609 94.4473V99.0544H78.3181V94.4473H41.4609Z" fill="#006872"/>
<path fill-rule="evenodd" clip-rule="evenodd" d="M9.21429 0C4.15248 0 0 4.15248 0 9.21429V27.6429H4.60714V9.21429C4.60714 6.64232 6.64232 4.60714 9.21429 4.60714H27.6429V0H9.21429Z" fill="#006872"/>
<path fill-rule="evenodd" clip-rule="evenodd" d="M92.1406 0V4.60714H110.569C113.141 4.60714 115.176 6.64232 115.176 9.21429V27.6429H119.783V9.21429C119.783 4.15248 115.631 0 110.569 0H92.1406Z" fill="#006872"/>
<path fill-rule="evenodd" clip-rule="evenodd" d="M0 101.357V119.786C0 124.848 4.15248 129 9.21429 129H27.6429V124.393H9.21429C6.64232 124.393 4.60714 122.358 4.60714 119.786V101.357H0Z" fill="#006872"/>
<path fill-rule="evenodd" clip-rule="evenodd" d="M115.176 101.357V119.786C115.176 122.358 113.141 124.393 110.569 124.393H92.1406V129H110.569C115.631 129 119.783 124.848 119.783 119.786V101.357H115.176Z" fill="#006872"/>
</svg>
