<svg width="28" height="24" viewBox="0 0 28 24" fill="none" xmlns="http://www.w3.org/2000/svg">
<path d="M13.3333 20C13.3326 18.4253 13.7305 16.8761 14.4901 15.4967C15.2497 14.1173 16.3461 12.9527 17.6773 12.1114C19.0084 11.2702 20.5308 10.7796 22.1027 10.6855C23.6746 10.5914 25.2447 10.8969 26.6667 11.5733V2.66667C26.6667 1.2 25.4667 0 24 0H2.66667C1.2 0 0 1.2 0 2.66667V18.6667C0 20.1333 1.2 21.3333 2.66667 21.3333H13.44C13.3733 20.8933 13.3333 20.4533 13.3333 20ZM2.66667 2.66667L13.3333 9.33333L24 2.66667V5.33333L13.3333 12L2.66667 5.33333V2.66667ZM20.4533 24L15.7333 19.28L17.6133 17.4L20.44 20.2267L26.0933 14.5733L28 16.4533L20.4533 24Z" fill="#FFC727"/>
</svg>
