<svg width="152" height="148" viewBox="0 0 152 148" fill="none" xmlns="http://www.w3.org/2000/svg">
<path d="M83.4482 113.235H32.807C31.0326 113.235 29.5938 111.797 29.5938 110.022V29.1762C29.5938 27.4017 31.0326 25.9629 32.807 25.9629H113.653C114.505 25.9629 115.323 26.3014 115.925 26.9039C116.528 27.5064 116.866 28.3241 116.866 29.1762V80.8786C116.866 82.6531 115.429 84.0919 113.653 84.0919C111.878 84.0919 110.44 82.6531 110.44 80.8786V32.3894H36.0203V106.809H83.4482C85.2241 106.809 86.6614 108.246 86.6614 110.022C86.6614 111.797 85.2241 113.235 83.4482 113.235Z" fill="#006872"/>
<path d="M32.8361 101.701H21.2367C19.4622 101.701 18.0234 100.262 18.0234 98.4877V40.6488C18.0234 38.8744 19.4622 37.4355 21.2367 37.4355H32.8045C33.6566 37.4355 34.4742 37.7741 35.0767 38.3766C35.6792 38.9791 36.0178 39.7967 36.0178 40.6488V98.4877C36.0178 100.249 34.599 101.684 32.836 101.701H32.8361ZM24.4816 95.2744H29.6228V43.8621H24.45L24.4816 95.2744Z" fill="#006872"/>
<path d="M21.2412 52.6023H6.84608C5.07162 52.6023 3.63281 51.1635 3.63281 49.3891C3.63281 47.6146 5.07162 46.1758 6.84608 46.1758H21.2412C23.0156 46.1758 24.4544 47.6146 24.4544 49.3891C24.4544 51.1635 23.0156 52.6023 21.2412 52.6023Z" fill="#006872"/>
<path d="M21.2366 72.8113H13.8461C12.0716 72.8113 10.6328 71.3739 10.6328 69.598C10.6328 67.8236 12.0716 66.3848 13.8461 66.3848H21.2366C23.0111 66.3848 24.4499 67.8236 24.4499 69.598C24.4499 71.3739 23.0111 72.8113 21.2366 72.8113Z" fill="#006872"/>
<path d="M21.2392 93.1844H3.21327C1.43738 93.1844 0 91.7455 0 89.9711C0 88.1966 1.43738 86.7578 3.21327 86.7578H21.2392C23.0136 86.7578 24.4524 88.1966 24.4524 89.9711C24.4524 91.7455 23.0136 93.1844 21.2392 93.1844Z" fill="#006872"/>
<path d="M125.187 93.4087C123.413 93.4087 121.974 91.9699 121.974 90.1955V43.9244H116.864V80.8751C116.864 82.6496 115.427 84.0884 113.651 84.0884C111.876 84.0884 110.438 82.6496 110.438 80.8751V40.7074C110.438 38.933 111.876 37.4941 113.651 37.4941H125.187C126.039 37.4941 126.857 37.8327 127.459 38.4352C128.062 39.0377 128.4 39.8553 128.4 40.7074V90.1918C128.4 91.9662 126.961 93.4051 125.187 93.4051V93.4087Z" fill="#006872"/>
<path d="M132.645 72.8113H125.221C123.447 72.8113 122.008 71.3739 122.008 69.598C122.008 67.8236 123.447 66.3848 125.221 66.3848H132.645C134.419 66.3848 135.858 67.8236 135.858 69.598C135.858 71.3739 134.419 72.8113 132.645 72.8113Z" fill="#006872"/>
<path d="M139.649 52.6023H125.221C123.447 52.6023 122.008 51.1635 122.008 49.3891C122.008 47.6146 123.447 46.1758 125.221 46.1758H139.649C141.424 46.1758 142.862 47.6146 142.862 49.3891C142.862 51.1635 141.424 52.6023 139.649 52.6023Z" fill="#006872"/>
<path d="M102.115 32.389H44.2758C42.5013 32.389 41.0625 30.9502 41.0625 29.1757V17.641C41.0625 15.8651 42.5013 14.4277 44.2758 14.4277H102.115C102.967 14.4277 103.784 14.7663 104.387 15.3688C104.989 15.9712 105.328 16.7889 105.328 17.641V29.1772V29.1758C105.328 30.0278 104.989 30.8455 104.387 31.448C103.784 32.0505 102.967 32.389 102.115 32.389V32.389ZM47.489 25.9625H98.9014V20.8543H47.489V25.9625Z" fill="#006872"/>
<path d="M93.4398 20.8543C91.6654 20.8543 90.2266 19.4155 90.2266 17.641V6.42616C90.2266 4.6517 91.6654 3.21289 93.4398 3.21289C95.2143 3.21289 96.6531 4.6517 96.6531 6.42616V17.5121C96.6875 18.3857 96.3648 19.2364 95.758 19.8676C95.1526 20.4988 94.3149 20.8545 93.4398 20.8545V20.8543Z" fill="#006872"/>
<path d="M73.2601 20.8544C71.4843 20.8544 70.0469 19.4155 70.0469 17.6411V10.1859C70.0469 8.41147 71.4843 6.97266 73.2601 6.97266C75.0346 6.97266 76.4734 8.41147 76.4734 10.1859V17.6411C76.4734 19.4155 75.0346 20.8544 73.2601 20.8544Z" fill="#006872"/>
<path d="M53.0492 20.8547C51.2747 20.8547 49.8359 19.4159 49.8359 17.6414V3.21327C49.8359 1.43881 51.2747 0 53.0492 0C54.8237 0 56.2625 1.43881 56.2625 3.21327V17.6414C56.2625 18.4935 55.9239 19.3097 55.3215 19.9137C54.719 20.5161 53.9013 20.8547 53.0492 20.8547Z" fill="#006872"/>
<path d="M83.4117 124.77H44.4008C42.6263 124.77 41.1875 123.331 41.1875 121.557V110.022C41.1875 108.246 42.6263 106.809 44.4008 106.809H90.1578C91.9322 106.809 93.371 108.246 93.371 110.022C93.371 111.796 91.9322 113.235 90.1578 113.235H47.614V118.345L83.4106 118.343C85.1851 118.343 86.6239 119.782 86.6239 121.557C86.6239 123.331 85.1851 124.77 83.4106 124.77L83.4117 124.77Z" fill="#006872"/>
<path d="M73.2601 132.225C71.4843 132.225 70.0469 130.787 70.0469 129.012V121.557C70.0469 119.783 71.4843 118.344 73.2601 118.344C75.0346 118.344 76.4734 119.783 76.4734 121.557V129.012C76.4734 130.787 75.0346 132.225 73.2601 132.225Z" fill="#006872"/>
<path d="M53.0492 139.198C51.2747 139.198 49.8359 137.76 49.8359 135.985V121.557C49.8359 119.783 51.2747 118.344 53.0492 118.344C54.8237 118.344 56.2625 119.783 56.2625 121.557V135.985C56.2625 136.837 55.9239 137.655 55.3215 138.257C54.719 138.86 53.9013 139.198 53.0492 139.198Z" fill="#006872"/>
<path d="M87.6597 98.1962H47.268C45.4935 98.1962 44.0547 96.7589 44.0547 94.983V44.2133C44.0547 42.4388 45.4935 41 47.268 41H99.2275C100.08 41 100.897 41.3385 101.5 41.941C102.102 42.5449 102.441 43.3612 102.441 44.2133V91.7366C102.441 93.5111 101.002 94.9499 99.2275 94.9499C97.453 94.9499 96.0142 93.5111 96.0142 91.7366V47.4265H50.4812V91.7697H87.6597C89.4342 91.7697 90.873 93.2085 90.873 94.983C90.873 96.7589 89.4342 98.1962 87.6597 98.1962Z" fill="#006872"/>
<path d="M115.841 131.421C112.308 131.418 108.852 130.387 105.897 128.452C102.941 126.518 100.613 123.764 99.1954 120.528C99.1825 120.421 99.1825 120.314 99.1954 120.206L98.3605 117.733C97.9775 116.319 97.7939 114.858 97.814 113.395C97.8283 109.04 99.4005 104.835 102.248 101.539C105.094 98.2443 109.027 96.0783 113.334 95.4327C118.286 94.7484 123.305 96.0668 127.28 99.0964C131.228 102.257 133.677 106.922 134.039 111.965C134.402 117.009 132.645 121.975 129.191 125.669C125.737 129.361 120.898 131.447 115.841 131.421L115.841 131.421ZM105.141 118.086H105.14C106.735 121.641 109.991 124.171 113.83 124.838C117.667 125.507 121.588 124.224 124.289 121.419C126.991 118.613 128.123 114.647 127.311 110.836C126.498 107.026 123.845 103.869 120.234 102.41C116.621 100.95 112.52 101.38 109.29 103.557C106.058 105.733 104.118 109.371 104.112 113.266C104.104 114.132 104.201 114.995 104.401 115.837L105.141 118.086Z" fill="#006872"/>
<path d="M106.292 147.809C105.801 147.811 105.318 147.702 104.877 147.488L95.9118 143.181H95.9132C94.5691 142.544 93.8389 141.07 94.1459 139.615L95.5919 132.738C94.3883 131.499 93.3125 130.143 92.3786 128.69H85.341C83.8792 128.656 82.6241 127.639 82.2884 126.216L80.0706 116.576C79.7493 115.146 80.4364 113.678 81.7418 113.01L88.1684 109.796C88.4051 108.074 88.7924 106.375 89.326 104.72L84.859 98.9359C83.9524 97.7739 83.9524 96.1443 84.859 94.9822L91.0604 87.1742C91.9871 86.0237 93.578 85.6536 94.9164 86.2748L101.343 89.1667C102.835 88.2759 104.406 87.5228 106.035 86.9174L107.738 80.1049C108.112 78.6489 109.448 77.6476 110.951 77.695H120.848C122.351 77.6476 123.685 78.6489 124.061 80.1049L125.764 86.9174C127.393 87.5228 128.962 88.2759 130.456 89.1667L136.882 86.2748C138.221 85.6536 139.811 86.0237 140.738 87.1742L146.94 94.9507C147.862 96.1184 147.862 97.7666 146.94 98.9359L142.666 104.495C143.214 106.146 143.601 107.846 143.822 109.571L150.249 112.785C151.554 113.453 152.243 114.92 151.92 116.351L149.702 125.99C149.367 127.485 148.021 128.535 146.489 128.498H139.451H139.453C138.502 129.918 137.426 131.251 136.24 132.482L137.686 139.422V139.423C137.992 140.878 137.261 142.352 135.918 142.989L126.792 147.488C125.466 148.125 123.878 147.78 122.936 146.653L118.437 141.382C116.707 141.559 114.963 141.559 113.231 141.382L108.764 146.78H108.766C108.129 147.467 107.227 147.843 106.291 147.809L106.292 147.809ZM100.958 138.459L105.425 140.612L109.442 135.761L109.441 135.759C110.174 134.893 111.31 134.478 112.429 134.666C114.694 135.052 117.008 135.052 119.273 134.666C120.382 134.49 121.502 134.904 122.229 135.759L126.277 140.611L130.711 138.458L129.426 132.256H129.428C129.202 131.145 129.581 129.997 130.423 129.237C132.124 127.702 133.576 125.914 134.73 123.935C135.286 122.943 136.325 122.321 137.461 122.295H143.727L144.82 117.475L139.197 114.615L139.195 114.616C138.197 114.101 137.538 113.103 137.461 111.981C137.309 109.687 136.8 107.432 135.95 105.298C135.5 104.229 135.659 103.001 136.368 102.084L140.127 97.0078L136.914 93.1519L131.226 95.754C130.181 96.2417 128.956 96.1313 128.013 95.4643C126.121 94.1589 124.041 93.1518 121.843 92.4762C120.755 92.1606 119.911 91.2942 119.627 90.1954L118.117 84.1217H113.361L111.851 90.1954C111.567 91.2942 110.723 92.1606 109.633 92.4762C107.437 93.1518 105.355 94.1589 103.465 95.4643C102.522 96.1313 101.296 96.2418 100.251 95.754L94.5952 93.1834L91.382 97.0393L95.1733 102.02C95.8819 102.936 96.0426 104.164 95.5921 105.233C94.7429 107.369 94.2322 109.624 94.0816 111.916C94.0041 113.038 93.3457 114.036 92.3458 114.551L86.7228 117.412L87.8159 122.232H94.2424C95.3786 122.256 96.4171 122.879 96.9737 123.87C98.1113 125.86 99.5529 127.66 101.247 129.203C102.089 129.963 102.468 131.112 102.243 132.224L100.958 138.459Z" fill="#006872"/>
</svg>
