<svg width="44" height="43" viewBox="0 0 44 43" fill="none" xmlns="http://www.w3.org/2000/svg">
<path d="M14.75 14.375C14.2693 14.375 13.8083 14.5627 13.4684 14.8967C13.1285 15.2308 12.9375 15.6838 12.9375 16.1562C12.9375 16.6287 12.7465 17.0817 12.4066 17.4158C12.0667 17.7498 11.6057 17.9375 11.125 17.9375C10.6443 17.9375 10.1833 17.7498 9.84337 17.4158C9.50346 17.0817 9.3125 16.6287 9.3125 16.1562C9.3125 14.739 9.88538 13.3798 10.9051 12.3776C11.9248 11.3755 13.3079 10.8125 14.75 10.8125C16.1921 10.8125 17.5752 11.3755 18.5949 12.3776C19.6146 13.3798 20.1875 14.739 20.1875 16.1562C20.1875 16.6287 19.9965 17.0817 19.6566 17.4158C19.3167 17.7498 18.8557 17.9375 18.375 17.9375C17.8943 17.9375 17.4333 17.7498 17.0934 17.4158C16.7535 17.0817 16.5625 16.6287 16.5625 16.1562C16.5625 15.6838 16.3715 15.2308 16.0316 14.8967C15.6917 14.5627 15.2307 14.375 14.75 14.375ZM29.25 14.375C28.7693 14.375 28.3083 14.5627 27.9684 14.8967C27.6285 15.2308 27.4375 15.6838 27.4375 16.1562C27.4375 16.6287 27.2465 17.0817 26.9066 17.4158C26.5667 17.7498 26.1057 17.9375 25.625 17.9375C25.1443 17.9375 24.6833 17.7498 24.3434 17.4158C24.0035 17.0817 23.8125 16.6287 23.8125 16.1562C23.8125 14.739 24.3854 13.3798 25.4051 12.3776C26.4248 11.3755 27.8079 10.8125 29.25 10.8125C30.6921 10.8125 32.0752 11.3755 33.0949 12.3776C34.1146 13.3798 34.6875 14.739 34.6875 16.1562C34.6875 16.6287 34.4965 17.0817 34.1566 17.4158C33.8167 17.7498 33.3557 17.9375 32.875 17.9375C32.3943 17.9375 31.9333 17.7498 31.5934 17.4158C31.2535 17.0817 31.0625 16.6287 31.0625 16.1562C31.0625 15.6838 30.8715 15.2308 30.5316 14.8967C30.1917 14.5627 29.7307 14.375 29.25 14.375ZM9.43937 21.5C9.17994 21.5 8.92353 21.5548 8.68749 21.6606C8.45144 21.7664 8.24126 21.9208 8.07115 22.1133C7.90104 22.3058 7.77497 22.532 7.70145 22.7765C7.62793 23.021 7.60868 23.2782 7.645 23.5306C8.1375 26.9274 9.86054 30.0355 12.4976 32.284C15.1347 34.5325 18.5087 35.7704 22 35.7704C25.4913 35.7704 28.8653 34.5325 31.5024 32.284C34.1395 30.0355 35.8625 26.9274 36.355 23.5306C36.3914 23.2779 36.372 23.0204 36.2983 22.7756C36.2246 22.5309 36.0982 22.3045 35.9277 22.112C35.7572 21.9194 35.5465 21.7651 35.31 21.6595C35.0736 21.5539 34.8167 21.4995 34.557 21.5H9.43937ZM22 32.1875C19.7504 32.1876 17.556 31.5026 15.7189 30.2266C13.8817 28.9507 12.4921 27.1465 11.7413 25.0625H32.2588C31.5079 27.1465 30.1183 28.9507 28.2811 30.2266C26.444 31.5026 24.2496 32.1876 22 32.1875ZM43.75 21.5C43.75 18.693 43.1874 15.9135 42.0944 13.3201C41.0013 10.7268 39.3992 8.37045 37.3796 6.38559C35.3599 4.40074 32.9622 2.82627 30.3234 1.75208C27.6845 0.677881 24.8563 0.125 22 0.125C19.1437 0.125 16.3155 0.677881 13.6766 1.75208C11.0378 2.82627 8.6401 4.40074 6.62043 6.38559C4.60075 8.37045 2.99866 10.7268 1.90562 13.3201C0.81258 15.9135 0.25 18.693 0.25 21.5C0.25 27.169 2.54151 32.6058 6.62043 36.6144C10.6993 40.623 16.2315 42.875 22 42.875C27.7685 42.875 33.3007 40.623 37.3796 36.6144C41.4585 32.6058 43.75 27.169 43.75 21.5ZM3.875 21.5C3.875 16.7758 5.78459 12.2452 9.18369 8.90466C12.5828 5.56417 17.193 3.6875 22 3.6875C26.807 3.6875 31.4172 5.56417 34.8163 8.90466C38.2154 12.2452 40.125 16.7758 40.125 21.5C40.125 26.2242 38.2154 30.7548 34.8163 34.0953C31.4172 37.4358 26.807 39.3125 22 39.3125C17.193 39.3125 12.5828 37.4358 9.18369 34.0953C5.78459 30.7548 3.875 26.2242 3.875 21.5Z" fill="#333333"/>
</svg>
