<svg width="2526" height="1267" viewBox="0 0 2526 1267" fill="none" xmlns="http://www.w3.org/2000/svg">
<path d="M114.881 949.916H41.5312V980.912H114.881V949.916Z" fill="#EBEBEB"/>
<path d="M73.9668 989H0.617188V1020H73.9668V989Z" fill="#EBEBEB"/>
<path d="M155.795 989H82.4453V1020H155.795V989Z" fill="#EBEBEB"/>
<path d="M1073.47 121.438H1000.12V152.434H1073.47V121.438Z" fill="#EBEBEB"/>
<path d="M1114.38 160.521H1041.03V191.518H1114.38V160.521Z" fill="#EBEBEB"/>
<path d="M73.9668 121.492H0.617188V152.488H73.9668V121.492Z" fill="#EBEBEB"/>
<path d="M1041.06 980.664H1114.41V949.668H1041.06V980.664Z" fill="#EBEBEB"/>
<path d="M123.106 0H120.336V296.418H123.106V0Z" fill="#C7C7C7"/>
<path d="M224.655 395.639L216.373 413.838H27.0437L18.7891 395.639L99.3961 339.852H144.048L224.655 395.639Z" fill="#EBEBEB"/>
<path d="M149.64 286.113L144.045 339.851H99.3923L93.7969 286.113H149.64Z" fill="#DBDBDB"/>
<path d="M224.628 395.666L216.345 413.865H27.016L18.7891 395.666H224.628Z" fill="#DBDBDB"/>
<path d="M320.114 0H317.344V237.721H320.114V0Z" fill="#C7C7C7"/>
<path d="M421.656 336.942L413.373 355.141H224.044L215.789 336.942L296.396 281.154H341.048L421.656 336.942Z" fill="#EBEBEB"/>
<path d="M346.648 227.389L341.053 281.154H296.4L290.805 227.389H346.648Z" fill="#DBDBDB"/>
<path d="M421.656 336.943L413.373 355.142H224.044L215.789 336.943H421.656Z" fill="#DBDBDB"/>
<path d="M353.354 458.297C353.643 461.666 352.926 465.044 351.295 468.005C349.664 470.967 347.191 473.378 344.189 474.933C341.188 476.489 337.792 477.119 334.432 476.745C331.072 476.37 327.898 475.008 325.313 472.829C322.727 470.651 320.846 467.754 319.907 464.506C318.968 461.259 319.013 457.805 320.037 454.583C321.061 451.361 323.017 448.515 325.659 446.405C328.301 444.295 331.509 443.016 334.878 442.73C337.114 442.536 339.366 442.785 341.505 443.463C343.644 444.141 345.629 445.234 347.345 446.68C349.061 448.126 350.476 449.897 351.507 451.89C352.538 453.884 353.165 456.061 353.354 458.297Z" fill="white"/>
<path d="M353.346 458.296C353.733 462.871 352.339 467.419 349.454 470.99C346.569 474.562 342.416 476.881 337.862 477.464C335.513 477.709 333.14 477.484 330.879 476.802C328.618 476.119 326.516 474.994 324.696 473.49C322.875 471.987 321.372 470.136 320.274 468.046C319.176 465.955 318.505 463.667 318.301 461.315C318.097 458.962 318.363 456.593 319.085 454.344C319.806 452.096 320.968 450.014 322.502 448.219C324.037 446.425 325.914 444.954 328.023 443.892C330.132 442.831 332.432 442.2 334.787 442.036C339.381 441.826 343.879 443.401 347.338 446.432C350.798 449.463 352.95 453.714 353.346 458.296ZM353.346 458.296C353.162 456.091 352.533 453.946 351.497 451.99C350.461 450.035 349.039 448.31 347.317 446.919C345.595 445.529 343.609 444.502 341.48 443.901C339.35 443.3 337.12 443.136 334.926 443.421C330.749 444.014 326.955 446.172 324.311 449.459C321.667 452.746 320.372 456.915 320.688 461.122C321.055 465.336 323.034 469.246 326.213 472.038C329.391 474.83 333.524 476.287 337.751 476.107C339.962 476.011 342.13 475.468 344.125 474.51C346.119 473.553 347.899 472.201 349.357 470.536C350.815 468.871 351.92 466.928 352.605 464.825C353.291 462.721 353.543 460.5 353.346 458.296Z" fill="#263238"/>
<path d="M316.508 489.791C316.665 491.661 316.264 493.537 315.356 495.18C314.448 496.823 313.074 498.16 311.406 499.023C309.739 499.886 307.854 500.235 305.988 500.027C304.122 499.819 302.36 499.063 300.923 497.855C299.487 496.646 298.44 495.039 297.917 493.236C297.393 491.434 297.415 489.516 297.979 487.726C298.544 485.935 299.627 484.353 301.091 483.177C302.554 482.001 304.334 481.286 306.204 481.121C308.719 480.906 311.218 481.698 313.15 483.324C315.082 484.949 316.29 487.275 316.508 489.791Z" fill="white"/>
<path d="M316.505 489.792C316.741 492.387 315.983 494.974 314.384 497.031C312.784 499.088 310.463 500.461 307.89 500.872C305.868 501.184 303.798 500.882 301.949 500.005C300.1 499.127 298.557 497.715 297.52 495.951C296.482 494.187 295.999 492.152 296.131 490.11C296.263 488.067 297.005 486.112 298.261 484.496C299.518 482.881 301.23 481.679 303.176 481.048C305.123 480.416 307.215 480.383 309.18 480.954C311.145 481.524 312.894 482.672 314.2 484.248C315.506 485.823 316.309 487.755 316.505 489.792ZM316.505 489.792C316.387 488.556 316.016 487.358 315.416 486.271C314.816 485.185 313.998 484.234 313.015 483.476C311.65 482.454 310.018 481.848 308.317 481.732C306.615 481.617 304.917 481.996 303.426 482.824C301.935 483.652 300.716 484.894 299.915 486.4C299.115 487.906 298.767 489.611 298.914 491.31C299.061 493.009 299.696 494.629 300.744 495.975C301.791 497.321 303.205 498.335 304.816 498.895C306.427 499.455 308.165 499.537 309.822 499.13C311.478 498.724 312.981 497.848 314.151 496.606C314.989 495.692 315.63 494.615 316.035 493.443C316.44 492.271 316.6 491.028 316.505 489.792Z" fill="#263238"/>
<path d="M481.159 378.826C482.225 387.508 480.988 396.318 477.572 404.37C474.156 412.423 468.682 419.436 461.699 424.704C454.716 429.972 446.47 433.31 437.789 434.383C429.108 435.457 420.297 434.228 412.242 430.819C408.324 435.917 403.284 440.044 397.514 442.88C391.743 445.715 385.397 447.183 378.967 447.17C372.538 447.157 366.198 445.662 360.439 442.802C354.68 439.943 349.658 435.795 345.762 430.681C343.954 431.235 342.1 431.624 340.222 431.844C333.7 432.658 327.083 431.563 321.172 428.69C315.261 425.818 310.31 421.292 306.92 415.662C303.531 410.032 301.847 403.539 302.074 396.971C302.302 390.403 304.43 384.042 308.2 378.66C300.756 369.317 296.914 357.611 297.373 345.674C297.832 333.736 302.562 322.36 310.702 313.616C318.842 304.872 329.851 299.342 341.725 298.031C353.599 296.72 365.549 299.716 375.401 306.474C380.019 300.703 386.083 296.257 392.976 293.59C399.869 290.923 407.346 290.128 414.646 291.288C421.946 292.447 428.808 295.519 434.536 300.191C440.263 304.863 444.652 310.968 447.254 317.886C448.999 317.295 450.799 316.886 452.628 316.667C458.179 315.985 463.806 317.019 468.751 319.632C473.697 322.244 477.723 326.309 480.288 331.279C482.853 336.249 483.833 341.886 483.098 347.43C482.362 352.974 479.945 358.16 476.173 362.289C478.807 367.461 480.495 373.061 481.159 378.826Z" fill="white"/>
<path d="M481.154 378.824C482.187 387.503 480.956 396.302 477.58 404.364C475.862 408.376 473.657 412.163 471.016 415.638C468.319 419.054 465.201 422.117 461.736 424.751C454.739 430.063 446.474 433.454 437.762 434.586C429.049 435.718 420.193 434.552 412.07 431.205H412.541C408.578 436.409 403.471 440.631 397.614 443.544C391.757 446.456 385.308 447.981 378.767 447.999C372.226 448.018 365.768 446.531 359.895 443.652C354.021 440.773 348.89 436.58 344.897 431.399L345.895 431.731C342.447 432.772 338.858 433.268 335.258 433.199C331.648 433.194 328.064 432.595 324.649 431.426C317.738 429.113 311.717 424.709 307.419 418.823C305.33 415.863 303.678 412.616 302.516 409.183C301.403 405.735 300.806 402.142 300.744 398.519C300.676 391.202 302.893 384.045 307.087 378.049V379.489C299.524 369.907 295.645 357.932 296.154 345.736C296.662 333.539 301.523 321.929 309.857 313.009C318.211 304.133 329.437 298.5 341.546 297.109C353.628 295.814 365.774 298.89 375.783 305.779L374.564 305.973C379.309 300.123 385.524 295.64 392.572 292.983C399.62 290.325 407.248 289.589 414.674 290.849C422.039 292.074 428.95 295.221 434.709 299.973C440.468 304.725 444.87 310.913 447.471 317.912L447.11 317.746C452.921 315.865 459.188 315.943 464.949 317.967C469.231 319.486 473.071 322.042 476.124 325.406C479.178 328.77 481.35 332.839 482.448 337.248C483.545 341.657 483.533 346.269 482.413 350.672C481.293 355.075 479.1 359.132 476.029 362.481C478.69 367.583 480.425 373.117 481.154 378.824ZM481.154 378.824C480.471 373.026 478.754 367.397 476.085 362.204C479.114 358.868 481.267 354.833 482.353 350.46C483.438 346.087 483.422 341.513 482.304 337.148C481.187 332.783 479.004 328.763 475.951 325.449C472.898 322.136 469.07 319.631 464.811 318.161C459.139 316.209 452.977 316.209 447.304 318.161H447.027V317.884C444.385 311.065 439.99 305.065 434.285 300.489C428.614 295.89 421.813 292.895 414.591 291.819C407.414 290.71 400.072 291.529 393.316 294.192C386.561 296.854 380.634 301.264 376.143 306.97L375.644 307.635L374.924 307.137C365.244 300.691 353.587 297.899 342.037 299.259C330.487 300.619 319.797 306.043 311.879 314.56C304.049 323.093 299.495 334.123 299.023 345.694C298.552 357.266 302.194 368.63 309.303 377.772L309.885 378.519L309.331 379.323C305.413 384.86 303.33 391.487 303.375 398.27C303.399 401.645 303.932 404.997 304.954 408.214C306.014 411.418 307.535 414.451 309.469 417.216C313.459 422.728 319.034 426.893 325.452 429.155C328.656 430.294 332.024 430.902 335.424 430.956C338.821 431.082 342.216 430.661 345.479 429.709L346.089 429.515L346.504 430.042C350.305 435.065 355.191 439.165 360.797 442.036C369.345 446.356 379.13 447.569 388.474 445.467C397.818 443.364 406.141 438.078 412.015 430.512L412.208 430.263H412.485C420.472 433.717 429.232 434.987 437.871 433.946C446.509 432.904 454.716 429.588 461.653 424.335C465.118 421.723 468.245 418.69 470.96 415.305C473.602 411.895 475.816 408.174 477.553 404.225C480.921 396.21 482.161 387.46 481.154 378.824Z" fill="#263238"/>
<path d="M394.617 377.467L393.038 385.03C392.92 385.795 392.642 386.527 392.223 387.179C391.804 387.831 391.253 388.387 390.606 388.813C389.959 389.238 389.229 389.523 388.465 389.649C387.701 389.775 386.918 389.74 386.168 389.545C385.418 389.39 384.706 389.088 384.073 388.657C383.44 388.226 382.898 387.675 382.478 387.034C382.059 386.393 381.77 385.676 381.628 384.923C381.487 384.17 381.495 383.397 381.653 382.647L384.174 370.542C384.174 370.542 384.174 370.542 384.34 370.349C384.506 370.155 384.34 370.349 384.34 370.072C384.698 368.583 385.612 367.289 386.895 366.454C388.178 365.619 389.732 365.308 391.238 365.584C394.698 366.319 398.308 365.649 401.274 363.722C404.241 361.794 406.32 358.768 407.054 355.307C407.789 351.847 407.119 348.237 405.192 345.271C403.264 342.305 400.238 340.225 396.778 339.491C394.514 339.022 392.168 339.154 389.971 339.873C387.775 340.592 385.805 341.874 384.257 343.59C383.76 344.21 383.143 344.722 382.441 345.095C381.74 345.468 380.97 345.695 380.179 345.76C379.387 345.826 378.59 345.729 377.837 345.477C377.084 345.224 376.391 344.82 375.799 344.291C375.207 343.761 374.729 343.116 374.395 342.396C374.06 341.675 373.876 340.894 373.854 340.1C373.831 339.306 373.971 338.516 374.264 337.778C374.558 337.04 374.998 336.369 375.559 335.807C378.314 332.73 381.789 330.386 385.673 328.985C389.558 327.584 393.729 327.169 397.813 327.779C401.897 328.389 405.766 330.003 409.072 332.477C412.377 334.952 415.017 338.209 416.753 341.955C418.489 345.702 419.267 349.821 419.017 353.943C418.768 358.065 417.498 362.06 415.323 365.569C413.147 369.079 410.134 371.994 406.554 374.051C402.974 376.108 398.939 377.244 394.811 377.357L394.617 377.467ZM389.326 402.951L388.883 405.057C388.742 405.814 388.449 406.535 388.022 407.176C387.595 407.817 387.043 408.365 386.399 408.787C385.754 409.209 385.031 409.496 384.272 409.631C383.514 409.766 382.736 409.746 381.986 409.572C380.478 409.245 379.159 408.339 378.315 407.049C377.47 405.758 377.167 404.187 377.471 402.674L377.914 400.569C378.259 399.075 379.172 397.775 380.459 396.942C381.747 396.11 383.307 395.811 384.811 396.11C386.315 396.423 387.633 397.318 388.479 398.6C389.325 399.882 389.629 401.446 389.326 402.951Z" fill="#FFC727"/>
<path d="M1401 1265.52L1541.61 1266.24L1682.18 1266.52L1963.37 1267L2244.55 1266.52L2385.13 1266.24L2525.7 1265.52L2385.13 1264.76L2244.55 1264.48L1963.37 1264L1682.18 1264.48L1541.61 1264.76L1401 1265.52Z" fill="#263238"/>
<path d="M2082.59 987.701C2084.61 1001.7 2083.89 1015.97 2080.46 1029.69C2078.85 1036.05 2076.7 1042.26 2074.03 1048.25C2070.68 1055.95 2067.19 1063.43 2068.05 1071.85C2068.85 1072.38 2066.08 1072.3 2065.97 1071.49C2043.5 1058.7 2014.7 1056.34 1997.41 1035.48C1989.62 1025.29 1984.7 1013.2 1983.14 1000.47C1981.01 986.787 1980.37 971.662 1983.95 958.2C1986.91 946.899 1993.59 935.819 2004.42 930.279C2015.25 924.739 2029.96 925.016 2041.59 928.617C2066.55 936.345 2079.04 963.519 2082.59 987.701Z" fill="#FFC727"/>
<path d="M2094.11 1153.98C2091.07 1143.77 2087.97 1133.57 2084.83 1123.38C2078.68 1103.4 2072.29 1083.52 2065.17 1063.85C2060.92 1052.09 2056.44 1040.42 2051.73 1028.86C2052.28 1021.58 2053.21 1014.33 2054.5 1007.15C2056.39 998.449 2059.1 990.028 2061.65 981.524C2061.81 980.998 2060.96 980.721 2060.73 981.22C2055.69 992.965 2049.1 1007.98 2048.96 1021.88C2043.42 1008.81 2037.53 995.928 2031.29 983.242C2030.52 972.511 2030.79 961.731 2032.12 951.054C2032.12 950.965 2032.09 950.878 2032.03 950.81C2031.97 950.741 2031.89 950.695 2031.8 950.678C2031.71 950.662 2031.62 950.677 2031.55 950.72C2031.47 950.763 2031.41 950.833 2031.37 950.916C2029.45 960.251 2028.71 969.789 2029.16 979.308C2024.34 969.78 2019.23 960.371 2013.84 951.082C2013.34 950.251 2012.2 951.082 2012.62 951.941C2021.07 968.201 2028.88 984.793 2036.25 1001.61C2025.9 992.635 2013.95 985.716 2001.01 981.22C2000.46 980.998 2000.04 981.829 2000.6 982.051C2014.71 988.11 2027.62 996.658 2038.71 1007.29C2043.98 1019.58 2049.01 1031.99 2053.81 1044.51C2039.74 1030.66 2020.57 1021.66 2001.9 1016.81C2001.26 1016.65 2001.1 1017.62 2001.71 1017.78C2023.26 1024.27 2039.96 1036.48 2056.36 1051.02C2058.24 1056.09 2060.12 1061.16 2061.9 1066.23C2068.82 1085.47 2075.42 1104.86 2081.7 1124.4C2084.73 1133.63 2087.7 1142.98 2090.62 1152.43C2093.75 1162.52 2096.16 1173.15 2100.32 1182.9C2100.71 1183.82 2102.37 1183.62 2102.15 1182.49C2099.96 1172.86 2097.28 1163.34 2094.11 1153.98Z" fill="#263238"/>
<path d="M2056.85 968.033C2052.87 974.166 2050.13 981.015 2048.77 988.199C2048.77 988.393 2049.01 988.504 2049.1 988.199C2051.6 981.43 2054.52 974.824 2057.85 968.421C2058.21 967.867 2057.24 967.452 2056.85 968.033Z" fill="#263238"/>
<path d="M2016.77 1014.85C2010.53 1011.38 2003.7 1009.08 1996.63 1008.06C1996.44 1008.06 1996.33 1008.31 1996.63 1008.39C1999.88 1009.72 2003.28 1010.66 2006.55 1011.94C2009.82 1013.21 2013.06 1014.71 2016.38 1015.9C2016.51 1015.91 2016.64 1015.88 2016.75 1015.81C2016.85 1015.74 2016.94 1015.64 2016.98 1015.52C2017.02 1015.4 2017.03 1015.27 2016.99 1015.15C2016.95 1015.03 2016.88 1014.92 2016.77 1014.85Z" fill="#263238"/>
<path d="M2005.5 958.561C2003.47 957.016 2001.3 955.671 1999.01 954.545C1998.94 954.517 1998.85 954.516 1998.78 954.542C1998.7 954.567 1998.64 954.617 1998.59 954.684C1998.55 954.751 1998.53 954.831 1998.53 954.911C1998.54 954.991 1998.57 955.067 1998.63 955.126C2000.62 956.699 2002.77 958.081 2005.02 959.254C2005.44 959.503 2005.91 958.81 2005.5 958.561Z" fill="#263238"/>
<path d="M2158.32 1064.01C2142.14 1068.81 2125.88 1073.24 2109.7 1078C2108.29 1078.42 2080.95 1026.01 2090.84 999.002C2095.54 986.77 2102.92 975.744 2112.44 966.73C2121.95 957.715 2133.36 950.94 2145.82 946.899C2157.37 942.965 2171.56 939.669 2183.77 942.356C2194.63 944.766 2202.28 953.63 2205.93 963.851C2210.72 977.701 2209.12 994.321 2206.51 1008.42C2204.44 1021.72 2198.95 1034.25 2190.59 1044.79C2181.89 1054.93 2170.92 1060.27 2158.32 1064.01Z" fill="#FFC727"/>
<path d="M2181.7 1014.18C2171.47 1019.19 2160.85 1023.37 2149.95 1026.68C2142.7 1028.63 2135.62 1031.2 2128.79 1034.35C2135.63 1019.11 2143.11 1004.21 2151.09 989.419C2161.53 986.399 2172.53 981.691 2180.4 974.295C2180.44 974.256 2180.48 974.21 2180.51 974.157C2180.53 974.104 2180.55 974.047 2180.56 973.987C2180.56 973.928 2180.55 973.869 2180.54 973.812C2180.52 973.755 2180.49 973.703 2180.45 973.657C2180.41 973.612 2180.37 973.574 2180.31 973.547C2180.26 973.52 2180.2 973.503 2180.14 973.498C2180.09 973.493 2180.03 973.499 2179.97 973.517C2179.91 973.535 2179.86 973.564 2179.81 973.602C2171.2 979.696 2161.67 983.353 2152.11 987.452C2154.28 983.463 2156.44 979.502 2158.65 975.541C2159.26 974.433 2157.77 973.353 2157.02 974.405C2148.51 986.757 2140.83 999.657 2134.03 1013.02C2132.28 1001.31 2131.72 989.463 2132.36 977.646C2132.36 977.342 2131.95 977.314 2131.89 977.646C2129.89 990.506 2130.02 1003.61 2132.28 1016.43C2126.74 1027.76 2121.45 1039.36 2116.8 1051.11C2114.97 1044.04 2112.56 1037.09 2110.95 1029.97C2108.51 1019.79 2107.72 1009.27 2108.63 998.837C2108.63 998.532 2108.21 998.504 2108.16 998.837C2105.38 1018.2 2107.81 1037.96 2115.22 1056.06C2112.45 1063.13 2109.93 1070.22 2107.57 1077.34C2095.37 1113.61 2088.14 1151.37 2086.08 1189.58C2086.08 1189.76 2086.15 1189.94 2086.28 1190.07C2086.41 1190.2 2086.59 1190.27 2086.77 1190.27C2086.95 1190.27 2087.13 1190.2 2087.26 1190.07C2087.39 1189.94 2087.46 1189.76 2087.46 1189.58C2091.7 1151.92 2099.78 1114.8 2111.56 1078.78C2116.24 1064.68 2121.64 1051.08 2127.57 1037.53C2137.13 1034.76 2146.66 1030.89 2156.05 1027.64C2165.44 1024.81 2174.3 1020.46 2182.28 1014.76C2182.36 1014.69 2182.4 1014.58 2182.4 1014.47C2182.4 1014.36 2182.36 1014.26 2182.28 1014.18C2182.2 1014.11 2182.1 1014.06 2181.99 1014.06C2181.88 1014.06 2181.78 1014.11 2181.7 1014.18Z" fill="#263238"/>
<path d="M2196.85 998.975C2186.96 1002.49 2177.46 1007.42 2167.71 1011C2167.24 1011.16 2167.51 1011.88 2167.96 1011.8C2178.43 1009.64 2188.79 1006.4 2197.23 999.529C2197.54 999.28 2197.21 998.837 2196.85 998.975Z" fill="#263238"/>
<path d="M2116.05 977.618C2116.19 977.092 2115.41 976.787 2115.25 977.341C2112.48 986.455 2110.68 996.15 2113.31 1005.46C2113.31 1005.82 2114 1005.84 2114 1005.46C2114.47 996.011 2113.94 986.87 2116.05 977.618Z" fill="#263238"/>
<path d="M2156.93 956.566C2153.78 961.1 2152.27 966.57 2152.64 972.078C2152.64 972.41 2153.22 972.604 2153.31 972.217C2154.52 966.981 2156.55 962.245 2158.15 957.175C2158.2 957.02 2158.19 956.853 2158.12 956.704C2158.06 956.556 2157.94 956.435 2157.8 956.362C2157.65 956.29 2157.49 956.27 2157.33 956.308C2157.17 956.345 2157.03 956.436 2156.93 956.566Z" fill="#263238"/>
<path d="M1965.89 1087.12C1970.62 1102.19 1981.9 1122.99 1999.74 1123.13C2011.31 1123.13 2022.95 1121.85 2034.56 1121.69C2046.96 1121.49 2059.49 1121.52 2071.81 1122.27C2072.84 1122.27 2070.32 1085.07 2040.48 1066.87C2032.17 1061.77 2021.9 1060.16 2012.4 1058.12C2001.51 1055.53 1990.34 1054.37 1979.16 1054.65C1972.29 1054.93 1966.58 1056.37 1964.14 1063.41C1961.7 1070.44 1963.59 1079.86 1965.89 1087.12Z" fill="#FFC727"/>
<path d="M1978.71 1068.28C1985.97 1070.14 1993.28 1072.3 2000.57 1074.59C1998.67 1072.53 1996.66 1070.57 1994.56 1068.72C1991.43 1066.15 1987.99 1064.07 1984.64 1061.77C1984.36 1061.6 1984.64 1061.05 1984.89 1061.19C1991.95 1064.12 1998.04 1068.98 2002.48 1075.2C2011.56 1078.11 2020.54 1081.35 2029.18 1084.9C2035.16 1087.35 2040.89 1090.37 2046.3 1093.9C2044.56 1090.14 2042.48 1086.54 2040.1 1083.15C2036.13 1078 2030.79 1075.15 2025.61 1071.52C2025.52 1071.45 2025.46 1071.35 2025.44 1071.24C2025.42 1071.13 2025.44 1071.01 2025.5 1070.92C2025.56 1070.82 2025.65 1070.75 2025.75 1070.71C2025.86 1070.67 2025.98 1070.68 2026.08 1070.72C2031.5 1073.07 2036.37 1076.54 2040.38 1080.88C2044.38 1085.23 2047.44 1090.36 2049.35 1095.95C2055.56 1100.41 2061.23 1105.57 2066.27 1111.32C2086.02 1133.76 2101.59 1163.62 2101.65 1194.06C2101.65 1194.79 2100.48 1195.01 2100.34 1194.23C2095.26 1164.38 2082.25 1136.45 2062.67 1113.35C2061.26 1111.69 2059.9 1110.13 2058.32 1108.61C2052.91 1107.87 2047.47 1107.46 2042.01 1107.39C2035.66 1107.39 2029.35 1108.33 2023.03 1108.83C2012.62 1109.69 2001.09 1109.8 1991.68 1104.57C1991.26 1104.34 1991.68 1103.62 1992.01 1103.79C2012.98 1111.41 2034.94 1101.74 2055.94 1106.28C2046.97 1097.73 2036.46 1090.95 2024.97 1086.31L2023.03 1085.54C2009.6 1087.14 1995.33 1090.66 1982.31 1086.28C1982.27 1086.27 1982.24 1086.25 1982.2 1086.23C1982.17 1086.2 1982.14 1086.17 1982.12 1086.14C1982.1 1086.1 1982.09 1086.06 1982.08 1086.02C1982.08 1085.98 1982.08 1085.94 1982.09 1085.9C1982.1 1085.86 1982.12 1085.82 1982.15 1085.79C1982.17 1085.75 1982.2 1085.73 1982.24 1085.71C1982.28 1085.68 1982.32 1085.67 1982.36 1085.67C1982.4 1085.66 1982.44 1085.66 1982.48 1085.67C1995.14 1088.83 2007.27 1084.84 2019.76 1084.21C2006.16 1078.92 1992.29 1074.71 1978.66 1069.44C1977.49 1069 1977.47 1067.95 1978.71 1068.28Z" fill="#263238"/>
<path d="M1972.78 1081.52C1979.28 1082.36 1985.82 1082.86 1992.36 1083.02C1992.5 1083.02 1992.56 1083.24 1992.36 1083.27C1985.78 1084.49 1978.99 1084.06 1972.61 1082.02C1972.31 1081.94 1972.48 1081.46 1972.78 1081.52Z" fill="#263238"/>
<path d="M2016.99 1068.61C2020.61 1070.23 2023.9 1072.52 2026.69 1075.34C2027.02 1075.65 2026.69 1076.26 2026.19 1075.98C2024.55 1074.79 2022.86 1073.65 2021.15 1072.57C2019.53 1071.66 2017.95 1070.66 2016.44 1069.58C2016.35 1069.49 2016.29 1069.37 2016.28 1069.25C2016.26 1069.12 2016.29 1069 2016.35 1068.89C2016.41 1068.78 2016.51 1068.69 2016.62 1068.64C2016.74 1068.59 2016.87 1068.58 2016.99 1068.61Z" fill="#263238"/>
<path d="M2122.39 1117.09C2122.17 1117.56 2122.89 1118.03 2123.17 1117.5C2123.22 1117.58 2123.29 1117.65 2123.37 1117.7C2123.45 1117.76 2123.54 1117.79 2123.64 1117.81C2135.65 1120.67 2147.82 1122.8 2160.09 1124.18C2169.95 1125.07 2181.34 1125.59 2189.98 1119.89C2201.7 1112.1 2209.37 1091.36 2203.06 1078.17C2195.58 1062.52 2173 1071.02 2161.67 1076.59C2144.26 1085.1 2130.36 1099.42 2122.39 1117.09Z" fill="#FFC727"/>
<path d="M2113.64 1124.32C2120.22 1117.93 2127.52 1112.35 2135.41 1107.7C2141.11 1098.7 2148.67 1091.02 2157.57 1085.18C2158.02 1084.87 2158.38 1085.56 2157.99 1085.87C2150.93 1091.52 2144.67 1098.1 2139.38 1105.42C2148.16 1100.62 2157.29 1096.48 2166.69 1093.02C2170.05 1086.79 2175.15 1081.68 2181.37 1078.31C2181.37 1078.31 2181.65 1078.31 2181.54 1078.5C2176.4 1082.38 2171.92 1087.05 2168.27 1092.35C2173.81 1090.3 2179.35 1088.36 2185.03 1086.51C2185.52 1086.34 2185.72 1087.12 2185.25 1087.28C2175.28 1091.19 2165.08 1095.29 2155.19 1100.02C2167.25 1101.95 2179.53 1101.95 2191.59 1100.02C2191.92 1100.02 2192.06 1100.44 2191.59 1100.52C2179.01 1104.24 2165.66 1104.45 2152.98 1101.1C2146.68 1104.16 2140.57 1107.59 2134.67 1111.35C2139.63 1110.95 2144.63 1111.36 2149.46 1112.57C2157.99 1114.56 2166.71 1115.54 2175.47 1115.51C2175.8 1115.51 2175.88 1116.06 2175.47 1116.12C2160.37 1118.69 2146.11 1111.85 2131.15 1113.62C2125.6 1117.41 2120.39 1121.67 2115.58 1126.37C2106.25 1135.68 2098.57 1146.52 2092.87 1158.41C2086.55 1171.24 2083.14 1184.81 2078.05 1198.05C2078.01 1198.17 2077.94 1198.28 2077.83 1198.34C2077.72 1198.4 2077.59 1198.42 2077.47 1198.39C2077.35 1198.35 2077.24 1198.27 2077.18 1198.16C2077.12 1198.05 2077.1 1197.93 2077.13 1197.8C2081.62 1171.71 2094.61 1142.93 2113.64 1124.32Z" fill="#263238"/>
<path d="M2159.15 1088.5C2160.16 1086.73 2161.47 1085.14 2163.03 1083.82C2164.29 1082.44 2165.8 1081.31 2167.49 1080.5C2167.62 1080.5 2167.71 1080.5 2167.62 1080.75C2166.38 1082.13 2164.66 1083.18 2163.33 1084.51C2162 1085.84 2160.87 1087.45 2159.51 1088.78C2159.47 1088.83 2159.42 1088.86 2159.36 1088.87C2159.3 1088.87 2159.24 1088.86 2159.19 1088.82C2159.14 1088.78 2159.11 1088.73 2159.1 1088.67C2159.1 1088.61 2159.11 1088.55 2159.15 1088.5Z" fill="#263238"/>
<path d="M2184.05 1096.62C2186.3 1096.06 2188.65 1096.09 2190.92 1095.62C2193.18 1095.08 2195.41 1094.42 2197.6 1093.63C2197.66 1093.61 2197.73 1093.62 2197.79 1093.65C2197.85 1093.67 2197.89 1093.72 2197.92 1093.78C2197.95 1093.84 2197.95 1093.91 2197.93 1093.97C2197.91 1094.03 2197.87 1094.09 2197.82 1094.12C2193.68 1096.68 2188.81 1097.8 2183.97 1097.31C2183.69 1097.25 2183.72 1096.7 2184.05 1096.62Z" fill="#263238"/>
<path d="M2051.45 1165.65L2053.42 1188.14L2060.15 1264.09H2119.65L2128.04 1188.14L2130.51 1165.65H2051.45Z" fill="#455A64"/>
<path d="M2051.45 1165.65L2053.42 1188.14H2128.04L2130.51 1165.65H2051.45Z" fill="#263238"/>
<path d="M2045.58 1177.75H2136.44V1159.5H2045.58V1177.75Z" fill="#455A64"/>
</svg>
