<svg width="138" height="113" viewBox="0 0 138 113" fill="none" xmlns="http://www.w3.org/2000/svg">
<mask id="path-1-inside-1_1250_1300" fill="white">
<path d="M137.696 40.2539C137.696 37.1206 135.394 34.5718 132.567 34.5718H121.609V23.3261C121.609 21.9963 120.635 20.9171 119.435 20.9171L86.3562 20.9159C85.156 20.9159 84.1818 21.9951 84.1818 23.3249V34.5706H79.1362C79.2155 32.5843 79.253 30.6051 79.253 29.7811C79.253 13.3602 67.0658 0 52.0878 0C37.1378 0 24.9763 13.3602 24.9763 29.7811C24.9763 32.773 25.4007 35.8648 26.1841 38.9765C26.1916 39.0679 26.2195 39.151 26.2366 39.2413C26.2506 39.2971 26.2549 39.3505 26.2699 39.4063C26.2838 39.4573 26.3138 39.4953 26.3299 39.544C26.3738 39.6817 26.3877 39.8266 26.4563 39.9584C26.481 40.007 26.5303 40.0237 26.5581 40.07C26.7157 40.33 26.9161 40.5437 27.1454 40.7147C27.2569 40.7966 27.3651 40.8536 27.4862 40.9117C29.7196 55.2646 40.279 66.2988 52.1148 66.2988C59.3593 66.2988 66.1207 62.1422 70.7995 55.6373C72.3427 57.7898 74.4465 59.4234 76.8363 60.2629L96.774 67.2453V71.0646C96.774 72.8835 97.4106 74.5897 98.5745 75.8717C99.7383 77.1421 101.272 77.8414 102.891 77.8414C106.266 77.8414 109.012 74.802 109.012 71.0644V67.6795L129.105 60.3232C129.511 60.1748 129.887 59.9706 130.271 59.7819V85.1334C130.271 87.4129 128.598 89.2676 126.539 89.2676H98.1078L96.1573 83.3681C94.1393 75.0229 87.7951 68.8003 79.9566 67.5147L79.17 67.3888C78.5977 67.2974 78.0265 67.2072 77.4574 67.1478C76.6622 67.0315 75.8831 67.4672 75.4362 68.2081L60.2204 93.4575L59.6599 82.5442L63.1258 71.9717C63.3669 71.2344 63.2704 70.4105 62.8621 69.767C62.4549 69.1235 61.7893 68.7412 61.081 68.7412H43.934C43.2235 68.7412 42.5612 69.1235 42.1528 69.767C41.7456 70.4128 41.6492 71.2344 41.8892 71.9717L45.3647 82.5655L44.8031 93.4681L29.581 68.2093C29.1341 67.4696 28.355 67.0648 27.5598 67.149C26.9875 67.2084 26.4184 67.2998 25.8472 67.3936L25.0263 67.5195C17.2383 68.7993 10.9035 75.0207 8.94462 83.1629L0.132169 109.761C-0.111105 110.501 -0.0146535 111.326 0.389373 111.972C0.796621 112.615 1.46214 113 2.17266 113H102.843C103.554 113 104.219 112.618 104.627 111.972C105.032 111.326 105.128 110.504 104.884 109.764L99.6999 94.0858H126.537C130.993 94.0858 134.616 90.0717 134.616 85.1351V56.2168C136.538 53.758 137.691 50.5903 137.691 47.1664L137.696 40.2539ZM57.9833 73.5565L55.9428 79.7824H49.084L47.0414 73.5577L57.9833 73.5565ZM5.29128 108.178L13.09 84.6135C14.6579 78.118 19.5952 73.2763 25.6361 72.2851L26.4742 72.1569C26.5535 72.1438 26.636 72.1284 26.7153 72.1165L48.4481 108.179L5.29128 108.178ZM48.8227 100.125L49.6211 84.6016H55.4135L56.2108 100.117L52.5145 106.25L48.8227 100.125ZM56.5794 108.178L78.3122 72.1158C78.3915 72.1289 78.474 72.1443 78.5533 72.1562L79.3571 72.282C85.4463 73.2793 90.3943 78.121 92.0223 84.8171L99.7395 108.179L56.5794 108.178ZM88.5304 25.7317H117.261V34.5697H88.5304V25.7317ZM52.0883 4.8171C64.6687 4.8171 74.9056 16.0166 74.9056 29.7805C74.9056 30.9547 74.837 33.6949 74.7234 35.8319C65.5713 33.5405 56.5402 26.7636 47.8454 15.5379C47.3128 14.8541 46.4951 14.5561 45.6881 14.7638C44.8951 14.974 44.2756 15.6578 44.0827 16.5352L43.2168 20.4685C42.3841 24.7771 39.828 28.6381 36.358 30.8118L29.8347 35.0053C29.5325 33.2339 29.3257 31.4802 29.3257 29.7803C29.3257 16.0152 39.5367 4.8171 52.0883 4.8171ZM52.1172 61.4804C42.3508 61.4804 33.2931 51.6261 31.664 39.395L38.5173 34.9915C42.9424 32.2193 46.138 27.5307 47.3353 22.1203C55.4018 31.6327 63.8211 37.6948 72.4396 40.2178C70.5191 52.0653 61.6562 61.4804 52.1172 61.4804ZM104.667 71.0615C104.667 72.1431 103.871 73.0216 102.894 73.0216C102.291 73.0216 101.872 72.7046 101.637 72.4482C101.306 72.0849 101.125 71.5922 101.125 71.0615L101.126 65.479V62.4812C101.126 61.3996 101.919 60.521 102.895 60.521C103.498 60.521 103.92 60.8404 104.135 61.0731C104.378 61.3485 104.668 61.8163 104.668 62.4812V65.9373L104.667 71.0615ZM127.746 55.7445L109.014 62.6031V62.4809C109.014 60.6964 108.386 58.9999 107.211 57.6701C106.045 56.4033 104.51 55.704 102.894 55.704C102.478 55.704 102.071 55.7515 101.678 55.8405C101.539 55.8714 101.412 55.9331 101.277 55.9747C101.029 56.0507 100.779 56.1195 100.545 56.2276C100.392 56.2976 100.255 56.3986 100.109 56.4828C99.9085 56.5968 99.7038 56.7013 99.5173 56.839C99.3737 56.9459 99.2483 57.0777 99.1133 57.1952C98.945 57.3436 98.7714 57.4825 98.6182 57.6476C98.4928 57.7841 98.3888 57.9408 98.2742 58.0892C98.1359 58.2661 97.9923 58.4371 97.8712 58.6294C97.7705 58.7897 97.6933 58.9678 97.6054 59.1376C97.4993 59.3418 97.3879 59.54 97.3021 59.7573C97.2303 59.939 97.1832 60.1325 97.1253 60.3213C97.0567 60.5457 96.9817 60.7665 96.9345 61.0016C96.8938 61.2022 96.8799 61.4112 96.8563 61.619C96.8338 61.8113 96.7909 61.9965 96.7834 62.1948L78.1511 55.6719C76.1256 54.962 74.4281 53.3698 73.427 51.3028C74.9874 48.2099 76.118 44.7751 76.7108 41.1127C77.6646 41.096 78.4822 40.4098 78.7427 39.3888H132.57C133.001 39.3888 133.352 39.7782 133.352 40.2543V47.1628C133.351 51.0748 131.1 54.5215 127.748 55.7442L127.746 55.7445Z"/>
</mask>
<path d="M137.696 40.2539C137.696 37.1206 135.394 34.5718 132.567 34.5718H121.609V23.3261C121.609 21.9963 120.635 20.9171 119.435 20.9171L86.3562 20.9159C85.156 20.9159 84.1818 21.9951 84.1818 23.3249V34.5706H79.1362C79.2155 32.5843 79.253 30.6051 79.253 29.7811C79.253 13.3602 67.0658 0 52.0878 0C37.1378 0 24.9763 13.3602 24.9763 29.7811C24.9763 32.773 25.4007 35.8648 26.1841 38.9765C26.1916 39.0679 26.2195 39.151 26.2366 39.2413C26.2506 39.2971 26.2549 39.3505 26.2699 39.4063C26.2838 39.4573 26.3138 39.4953 26.3299 39.544C26.3738 39.6817 26.3877 39.8266 26.4563 39.9584C26.481 40.007 26.5303 40.0237 26.5581 40.07C26.7157 40.33 26.9161 40.5437 27.1454 40.7147C27.2569 40.7966 27.3651 40.8536 27.4862 40.9117C29.7196 55.2646 40.279 66.2988 52.1148 66.2988C59.3593 66.2988 66.1207 62.1422 70.7995 55.6373C72.3427 57.7898 74.4465 59.4234 76.8363 60.2629L96.774 67.2453V71.0646C96.774 72.8835 97.4106 74.5897 98.5745 75.8717C99.7383 77.1421 101.272 77.8414 102.891 77.8414C106.266 77.8414 109.012 74.802 109.012 71.0644V67.6795L129.105 60.3232C129.511 60.1748 129.887 59.9706 130.271 59.7819V85.1334C130.271 87.4129 128.598 89.2676 126.539 89.2676H98.1078L96.1573 83.3681C94.1393 75.0229 87.7951 68.8003 79.9566 67.5147L79.17 67.3888C78.5977 67.2974 78.0265 67.2072 77.4574 67.1478C76.6622 67.0315 75.8831 67.4672 75.4362 68.2081L60.2204 93.4575L59.6599 82.5442L63.1258 71.9717C63.3669 71.2344 63.2704 70.4105 62.8621 69.767C62.4549 69.1235 61.7893 68.7412 61.081 68.7412H43.934C43.2235 68.7412 42.5612 69.1235 42.1528 69.767C41.7456 70.4128 41.6492 71.2344 41.8892 71.9717L45.3647 82.5655L44.8031 93.4681L29.581 68.2093C29.1341 67.4696 28.355 67.0648 27.5598 67.149C26.9875 67.2084 26.4184 67.2998 25.8472 67.3936L25.0263 67.5195C17.2383 68.7993 10.9035 75.0207 8.94462 83.1629L0.132169 109.761C-0.111105 110.501 -0.0146535 111.326 0.389373 111.972C0.796621 112.615 1.46214 113 2.17266 113H102.843C103.554 113 104.219 112.618 104.627 111.972C105.032 111.326 105.128 110.504 104.884 109.764L99.6999 94.0858H126.537C130.993 94.0858 134.616 90.0717 134.616 85.1351V56.2168C136.538 53.758 137.691 50.5903 137.691 47.1664L137.696 40.2539ZM57.9833 73.5565L55.9428 79.7824H49.084L47.0414 73.5577L57.9833 73.5565ZM5.29128 108.178L13.09 84.6135C14.6579 78.118 19.5952 73.2763 25.6361 72.2851L26.4742 72.1569C26.5535 72.1438 26.636 72.1284 26.7153 72.1165L48.4481 108.179L5.29128 108.178ZM48.8227 100.125L49.6211 84.6016H55.4135L56.2108 100.117L52.5145 106.25L48.8227 100.125ZM56.5794 108.178L78.3122 72.1158C78.3915 72.1289 78.474 72.1443 78.5533 72.1562L79.3571 72.282C85.4463 73.2793 90.3943 78.121 92.0223 84.8171L99.7395 108.179L56.5794 108.178ZM88.5304 25.7317H117.261V34.5697H88.5304V25.7317ZM52.0883 4.8171C64.6687 4.8171 74.9056 16.0166 74.9056 29.7805C74.9056 30.9547 74.837 33.6949 74.7234 35.8319C65.5713 33.5405 56.5402 26.7636 47.8454 15.5379C47.3128 14.8541 46.4951 14.5561 45.6881 14.7638C44.8951 14.974 44.2756 15.6578 44.0827 16.5352L43.2168 20.4685C42.3841 24.7771 39.828 28.6381 36.358 30.8118L29.8347 35.0053C29.5325 33.2339 29.3257 31.4802 29.3257 29.7803C29.3257 16.0152 39.5367 4.8171 52.0883 4.8171ZM52.1172 61.4804C42.3508 61.4804 33.2931 51.6261 31.664 39.395L38.5173 34.9915C42.9424 32.2193 46.138 27.5307 47.3353 22.1203C55.4018 31.6327 63.8211 37.6948 72.4396 40.2178C70.5191 52.0653 61.6562 61.4804 52.1172 61.4804ZM104.667 71.0615C104.667 72.1431 103.871 73.0216 102.894 73.0216C102.291 73.0216 101.872 72.7046 101.637 72.4482C101.306 72.0849 101.125 71.5922 101.125 71.0615L101.126 65.479V62.4812C101.126 61.3996 101.919 60.521 102.895 60.521C103.498 60.521 103.92 60.8404 104.135 61.0731C104.378 61.3485 104.668 61.8163 104.668 62.4812V65.9373L104.667 71.0615ZM127.746 55.7445L109.014 62.6031V62.4809C109.014 60.6964 108.386 58.9999 107.211 57.6701C106.045 56.4033 104.51 55.704 102.894 55.704C102.478 55.704 102.071 55.7515 101.678 55.8405C101.539 55.8714 101.412 55.9331 101.277 55.9747C101.029 56.0507 100.779 56.1195 100.545 56.2276C100.392 56.2976 100.255 56.3986 100.109 56.4828C99.9085 56.5968 99.7038 56.7013 99.5173 56.839C99.3737 56.9459 99.2483 57.0777 99.1133 57.1952C98.945 57.3436 98.7714 57.4825 98.6182 57.6476C98.4928 57.7841 98.3888 57.9408 98.2742 58.0892C98.1359 58.2661 97.9923 58.4371 97.8712 58.6294C97.7705 58.7897 97.6933 58.9678 97.6054 59.1376C97.4993 59.3418 97.3879 59.54 97.3021 59.7573C97.2303 59.939 97.1832 60.1325 97.1253 60.3213C97.0567 60.5457 96.9817 60.7665 96.9345 61.0016C96.8938 61.2022 96.8799 61.4112 96.8563 61.619C96.8338 61.8113 96.7909 61.9965 96.7834 62.1948L78.1511 55.6719C76.1256 54.962 74.4281 53.3698 73.427 51.3028C74.9874 48.2099 76.118 44.7751 76.7108 41.1127C77.6646 41.096 78.4822 40.4098 78.7427 39.3888H132.57C133.001 39.3888 133.352 39.7782 133.352 40.2543V47.1628C133.351 51.0748 131.1 54.5215 127.748 55.7442L127.746 55.7445Z" fill="#006872" stroke="#006872" stroke-width="10" mask="url(#path-1-inside-1_1250_1300)"/>
</svg>
