<svg width="46" height="52" viewBox="0 0 46 52" fill="none" xmlns="http://www.w3.org/2000/svg">
<path d="M32.713 31.9467L32.4304 31.7887C32.4849 31.3198 32.4849 30.8464 32.4304 30.3776L32.7108 30.2211H32.7104C33.0724 30.0228 33.3379 29.6855 33.4463 29.2872C33.5524 28.8969 33.4925 28.4803 33.2815 28.1354L32.1808 26.3118V26.3115C31.9691 25.9715 31.6356 25.7251 31.2484 25.6232C30.8612 25.5214 30.4495 25.5717 30.0982 25.764L29.777 25.9418V25.9414C29.3627 25.6457 28.9171 25.3974 28.4479 25.2005V24.903V24.9033C28.4433 24.4993 28.2788 24.1136 27.9904 23.8306C27.7024 23.5475 27.3136 23.3899 26.9097 23.3926H24.7042C24.3002 23.3899 23.9114 23.5475 23.6234 23.8306C23.335 24.1137 23.1706 24.4994 23.166 24.9033V25.2009V25.2005C22.6971 25.397 22.2519 25.6454 21.8387 25.9414L21.5168 25.7636V25.764C21.1654 25.5721 20.7537 25.5221 20.3669 25.6236C19.9797 25.7255 19.6463 25.9719 19.4349 26.3115L18.3324 28.1351V28.1354C18.1222 28.4807 18.063 28.8977 18.1683 29.288C18.2771 29.6851 18.5414 30.0212 18.9016 30.2204L19.1843 30.3776H19.1847C19.1572 30.6118 19.1435 30.8476 19.1435 31.0837C19.1438 31.3191 19.1576 31.5545 19.1847 31.7888L18.9027 31.9459C18.5418 32.1447 18.2771 32.4808 18.1683 32.8783C18.0627 33.2686 18.1222 33.6856 18.3335 34.0309L19.4342 35.8545C19.6463 36.194 19.9801 36.4397 20.3674 36.5412C20.7546 36.6431 21.1659 36.5935 21.5176 36.4023L21.8388 36.2245C22.252 36.521 22.6972 36.7693 23.1661 36.9654V37.2596C23.1706 37.6636 23.3351 38.0497 23.6231 38.3327C23.9115 38.6162 24.3003 38.7737 24.7043 38.7714H26.9063C27.3107 38.7737 27.6995 38.6162 27.9875 38.3327C28.2759 38.0496 28.4403 37.6635 28.4445 37.2596V36.962C28.9141 36.7659 29.3597 36.5175 29.7736 36.2211L30.0949 36.3981C30.4459 36.5908 30.8575 36.6411 31.2451 36.5397C31.6323 36.4378 31.9661 36.1913 32.1775 35.851L33.2774 34.029V34.0294C33.4887 33.6841 33.549 33.2668 33.4429 32.8758C33.335 32.4801 33.0717 32.1452 32.7131 31.9468L32.713 31.9467ZM30.7613 31.0837C30.7609 31.2947 30.7457 31.5053 30.7151 31.7143C30.6766 32.0134 30.7293 32.3175 30.8666 32.5861C31.0039 32.855 31.2191 33.0759 31.4843 33.2201L31.7006 33.3407L30.7964 34.8369L30.5194 34.6832V34.6828C30.2531 34.5405 29.9521 34.476 29.6507 34.4981C29.3497 34.5199 29.0609 34.6267 28.8179 34.806C28.4795 35.0548 28.111 35.2592 27.7208 35.4145C27.4342 35.5236 27.1874 35.7163 27.0119 35.9677C26.8361 36.2187 26.7403 36.5171 26.7365 36.8238V37.0657H24.8717V36.8238C24.8678 36.5171 24.7721 36.2187 24.5962 35.9673C24.4207 35.7163 24.1735 35.5236 23.887 35.4145C23.4971 35.2589 23.1286 35.0544 22.7898 34.806C22.5476 34.6259 22.2592 34.5184 21.9582 34.4966C21.6568 34.4749 21.3558 34.5393 21.0902 34.6828L20.8125 34.8365L19.9083 33.3403L20.1212 33.2216C20.3867 33.0771 20.6027 32.855 20.7396 32.5853C20.877 32.3156 20.9296 32.0108 20.8903 31.7109C20.8293 31.2935 20.8293 30.8693 20.8903 30.4519C20.9285 30.1524 20.8758 29.8487 20.7385 29.5798C20.6012 29.3108 20.386 29.0899 20.1212 28.9453L19.9061 28.8255L20.8095 27.3293L21.0864 27.4823H21.086C21.352 27.6257 21.653 27.6902 21.9543 27.6689C22.2557 27.6471 22.5445 27.5399 22.7875 27.3602C23.1259 27.1119 23.4949 26.9078 23.8847 26.7517C24.1708 26.6426 24.418 26.4499 24.5932 26.1985C24.7687 25.9471 24.8644 25.6488 24.8682 25.3424V25.1013H26.7353V25.3424C26.7399 25.6488 26.8364 25.9467 27.0126 26.1978C27.1889 26.4484 27.4365 26.6403 27.7234 26.7483C28.1137 26.9047 28.4826 27.1099 28.8213 27.3594C29.0643 27.538 29.3531 27.6444 29.6541 27.6658C29.9551 27.6872 30.2562 27.6231 30.5221 27.4808L30.799 27.327L31.7013 28.8256L31.4892 28.9435V28.9439C31.2229 29.0873 31.0062 29.3086 30.8677 29.5779C30.7292 29.8476 30.6758 30.1525 30.7143 30.4527C30.7452 30.6618 30.7609 30.8724 30.7613 31.0837H30.7613Z" fill="#006872"/>
<path d="M38.4969 40.1471C38.163 39.8137 37.6221 39.8137 37.2887 40.1471L36.6843 40.7515L34.2377 38.3048C36.7622 35.3635 37.5752 31.3214 36.3841 27.633C35.1935 23.9446 32.1701 21.1409 28.4023 20.231C24.6345 19.3215 20.6649 20.4367 17.9228 23.1755C15.1806 25.9143 14.0593 29.8823 14.9638 33.651C15.868 37.4199 18.6675 40.4471 22.354 41.6431C26.0408 42.8395 30.0843 42.0319 33.0287 39.5121L35.4764 41.9595L34.8721 42.5638C34.5383 42.8972 34.5383 43.4382 34.8721 43.772L42.123 51.0228C42.4568 51.3567 42.9978 51.3567 43.3316 51.0228L45.7484 48.606L45.748 48.6064C46.0818 48.2726 46.0818 47.7316 45.748 47.3978L38.4969 40.1471ZM32.4542 37.7295C30.388 39.7961 27.4779 40.7842 24.5804 40.4031C21.6829 40.022 19.1275 38.3148 17.666 35.7843C16.2044 33.2534 16.0034 30.1869 17.1216 27.4865C18.2398 24.7866 20.5501 22.76 23.3729 22.0035C26.1956 21.247 29.21 21.8463 31.5287 23.6253C33.8471 25.4038 35.2068 28.1602 35.2068 31.0825C35.2144 33.5771 34.2233 35.9707 32.4542 37.7295L32.4542 37.7295ZM42.7266 49.212L36.684 43.1694L37.8922 41.96L43.9349 48.0026L42.7266 49.212Z" fill="#006872"/>
<path d="M25.8089 27.666C24.9025 27.666 24.033 28.0262 23.3917 28.6671C22.7508 29.308 22.3906 30.1775 22.3906 31.0843C22.3906 31.9907 22.7508 32.8602 23.3917 33.5011C24.033 34.1424 24.9025 34.5026 25.8089 34.5026C26.7153 34.5026 27.5848 34.1424 28.2261 33.5011C28.867 32.8602 29.2272 31.9907 29.2272 31.0843C29.2272 30.1775 28.867 29.308 28.2261 28.6671C27.5848 28.0262 26.7153 27.666 25.8089 27.666ZM25.8089 32.7934C25.3557 32.7934 24.9208 32.6134 24.6003 32.2925C24.2798 31.9721 24.0998 31.5375 24.0998 31.0843C24.0998 30.6307 24.2798 30.1962 24.6003 29.8757C24.9208 29.5552 25.3557 29.3752 25.8089 29.3752C26.2621 29.3752 26.697 29.5552 27.0175 29.8757C27.338 30.1962 27.518 30.6307 27.518 31.0843C27.518 31.5375 27.338 31.9721 27.0175 32.2925C26.697 32.6134 26.2621 32.7934 25.8089 32.7934Z" fill="#006872"/>
<path d="M9.40026 0.854569V2.56371H0.854569C0.382652 2.56371 0 2.94636 0 3.41828V47.0013C0 47.2279 0.0900354 47.4454 0.250267 47.6056C0.410498 47.7658 0.627957 47.8559 0.854569 47.8559H35.0373V46.1467H1.70914V4.27285H9.40026V5.98198C9.40026 6.2086 9.4903 6.42606 9.65053 6.58629C9.81076 6.74652 10.0282 6.83655 10.2548 6.83655H29.9099C30.1365 6.83655 30.354 6.74652 30.5142 6.58629C30.6744 6.42605 30.7645 6.2086 30.7645 5.98198V4.27285H39.3102V37.601H41.0193V3.41828C41.0193 3.19166 40.9293 2.9742 40.7691 2.81397C40.6088 2.65374 40.3914 2.56371 40.1647 2.56371H30.7645V0.854569C30.7645 0.627957 30.6745 0.410496 30.5142 0.250267C30.354 0.0900374 30.1365 0 29.9099 0H10.2548C9.78291 0 9.40026 0.382652 9.40026 0.854569ZM11.1094 1.70914H29.0553V5.12741H11.1094V1.70914Z" fill="#006872"/>
<path d="M5.98047 10.2559H35.0358V11.965H5.98047V10.2559Z" fill="#006872"/>
<path d="M5.98047 15.3809H24.781V17.09H5.98047V15.3809Z" fill="#006872"/>
<path d="M5.98047 20.5098H15.3807V22.2189H5.98047V20.5098Z" fill="#006872"/>
<path d="M11.9625 25.6367H6.83504C6.36312 25.6367 5.98047 26.0194 5.98047 26.4913V31.6187C5.98047 31.8453 6.0705 32.0628 6.23074 32.223C6.39097 32.3832 6.60843 32.4733 6.83504 32.4733H11.9625C12.1891 32.4733 12.4065 32.3832 12.5668 32.223C12.727 32.0628 12.817 31.8453 12.817 31.6187V26.4913C12.817 26.2647 12.727 26.0472 12.5668 25.887C12.4065 25.7268 12.1891 25.6367 11.9625 25.6367ZM11.1079 30.7641H7.68961V27.3459H11.1079V30.7641Z" fill="#006872"/>
<path d="M5.98047 35.8906H12.817V37.5998H5.98047V35.8906Z" fill="#006872"/>
<path d="M5.98047 41.0195H16.2353V42.7287H5.98047V41.0195Z" fill="#006872"/>
</svg>
