<svg width="45" height="44" viewBox="0 0 45 44" fill="none" xmlns="http://www.w3.org/2000/svg">
<path d="M17.8714 0.000221004C8.01797 0.000221004 0 8.01782 0 17.8717C0 27.7256 8.0176 35.7431 17.8714 35.7431C22.307 35.7431 26.3661 34.1091 29.4923 31.4255L41.6502 43.5833C41.9076 43.848 42.2605 43.9981 42.6302 44C42.9994 44.0014 43.3537 43.8542 43.6136 43.5915C43.873 43.3292 44.0163 42.973 44.0106 42.6038C44.0048 42.2346 43.8509 41.8831 43.5834 41.6286L31.4471 29.4923C34.1249 26.3676 35.7431 22.3017 35.7431 17.8714C35.7431 8.01797 27.7255 0 17.8717 0L17.8714 0.000221004ZM17.8714 2.74943C26.2396 2.74943 32.9934 9.50363 32.9934 17.8714C32.9934 26.2396 26.2392 32.9934 17.8714 32.9934C9.50378 32.9934 2.74945 26.2392 2.74945 17.8714C2.74945 9.50375 9.50365 2.74943 17.8714 2.74943ZM17.8714 8.93594C15.5939 8.93594 13.7475 10.7824 13.7475 13.0599C13.7475 15.3379 15.5939 17.1843 17.8714 17.1843C20.1494 17.1843 21.9959 15.3379 21.9959 13.0599C21.9959 10.7824 20.1494 8.93594 17.8714 8.93594ZM17.8714 18.5588C13.6957 18.5588 10.3107 21.6364 10.3107 25.4324H25.4327C25.4327 21.6364 22.0477 18.5588 17.8714 18.5588Z" fill="#006872"/>
</svg>
