<svg width="54" height="38" viewBox="0 0 54 38" fill="none" xmlns="http://www.w3.org/2000/svg">
<g filter="url(#filter0_d_531_1503)">
<path d="M13.1068 4.28571H5.61581C4.75504 4.28571 3.89428 4.97143 4.0106 6.08571L7.63976 27.4929C7.63976 27.4929 11.9436 11.7214 12.7811 7.92857C13.037 6.79286 14.2002 6.42857 15.0609 6.42857H27.0651C27.0651 6.42857 25.4366 1.97143 25.2738 1.47857C24.9946 0.535714 24.4828 0 23.4592 0H15.7588C14.9213 0 14.1304 0.492857 13.8977 1.37143C13.6884 2.22857 13.1068 4.28571 13.1068 4.28571ZM24.4595 4.28571H15.154C15.154 4.28571 16.1311 2.14286 17.1779 2.14286H22.1331C23.2498 2.14286 24.4595 4.28571 24.4595 4.28571ZM10.0127 28.3929C9.29149 29.4 8.24462 30 7.08143 30H43.6754C44.9317 30 45.8157 29.3357 46.0716 28.2214C47.0952 23.5286 49.98 10.1357 49.98 10.1357C50.1428 9.06429 49.282 8.57143 48.5376 8.57143H41.0234V5.42143C41.0234 5.07857 40.4185 4.28571 39.488 4.28571H30.7408C29.531 4.28571 28.7168 5.52857 28.7168 5.52857L27.0651 8.57143H16.8057C16.0613 8.57143 15.3401 8.97857 15.2005 9.64286C15.2005 9.64286 11.5016 24 11.1991 25.35C11.0363 26.1429 10.6873 27.4714 10.0127 28.3929ZM39.581 8.57143H29.3915C29.3915 8.57143 30.7408 6.42857 32.0203 6.42857H37.3477C38.9994 6.42857 39.581 8.57143 39.581 8.57143Z" fill="black"/>
</g>
<defs>
<filter id="filter0_d_531_1503" x="0" y="0" width="54" height="38" filterUnits="userSpaceOnUse" color-interpolation-filters="sRGB">
<feFlood flood-opacity="0" result="BackgroundImageFix"/>
<feColorMatrix in="SourceAlpha" type="matrix" values="0 0 0 0 0 0 0 0 0 0 0 0 0 0 0 0 0 0 127 0" result="hardAlpha"/>
<feOffset dy="4"/>
<feGaussianBlur stdDeviation="2"/>
<feComposite in2="hardAlpha" operator="out"/>
<feColorMatrix type="matrix" values="0 0 0 0 0 0 0 0 0 0 0 0 0 0 0 0 0 0 0.25 0"/>
<feBlend mode="normal" in2="BackgroundImageFix" result="effect1_dropShadow_531_1503"/>
<feBlend mode="normal" in="SourceGraphic" in2="effect1_dropShadow_531_1503" result="shape"/>
</filter>
</defs>
</svg>
