<svg width="239" height="239" viewBox="0 0 239 239" fill="none" xmlns="http://www.w3.org/2000/svg">
<path fill-rule="evenodd" clip-rule="evenodd" d="M59.7506 36.5752C59.613 45.7838 63.8034 53.5486 69.6892 58.8613C71.7199 60.6942 73.995 62.15 76.3439 63.4233C66.5361 68.5845 59.7401 78.7552 59.7352 90.5728C59.6664 100.076 63.8345 107.875 69.7337 113.115C71.7145 114.874 73.9293 116.241 76.2095 117.452C66.4758 122.655 59.7506 132.791 59.7506 144.557H67.4604C67.4604 141.839 68.0094 139.263 68.8613 136.847H112.304C113.156 139.265 113.719 141.839 113.719 144.557H121.429C121.429 132.791 114.703 122.654 104.97 117.452C107.248 116.241 109.45 114.874 111.43 113.115C117.33 107.877 121.496 100.076 121.429 90.5728C121.424 78.7552 114.642 68.5845 104.836 63.4233C107.186 62.1499 109.46 60.6939 111.49 58.8613C117.376 53.5473 121.566 45.7838 121.429 36.5752H121.413L113.704 36.6991C113.741 39.4887 113.18 41.9893 112.303 44.3349H68.8749C67.9973 41.991 67.4173 39.4905 67.4604 36.6991L59.7506 36.5752ZM73.8296 52.0397H107.335C106.98 52.4028 106.687 52.8141 106.311 53.1531C101.843 57.187 95.8562 59.5672 90.5897 59.7651C85.3202 59.5723 79.3264 57.1905 74.8534 53.1531C74.4765 52.8141 74.1839 52.3977 73.8294 52.0397H73.8296ZM90.5294 67.4593H90.5914H90.6533C95.3823 67.4593 99.7588 68.8894 103.407 71.3142H77.7771C81.4255 68.8894 85.8037 67.4713 90.5309 67.4593H90.5294ZM70.6373 79.024H110.541C111.898 81.3696 112.862 83.953 113.327 86.7338H67.8522C68.3168 83.9527 69.2806 81.3695 70.6384 79.024H70.6373ZM67.8373 94.4436H113.33C112.873 97.345 111.91 99.899 110.53 102.153H70.6554C69.2735 99.8989 68.2959 97.3451 67.8399 94.4436H67.8373ZM78.3469 109.863H102.831C99.0135 112.204 94.6304 113.543 90.5878 113.689C86.547 113.543 82.1621 112.205 78.3451 109.863H78.3469ZM90.5292 121.428H90.6531C97.4906 121.428 103.545 124.439 107.759 129.138H73.4264C77.6409 124.44 83.6954 121.445 90.5324 121.428H90.5292Z" fill="#006872"/>
<path d="M90.5909 0C66.565 0 43.5216 9.54252 26.5336 26.5318C9.5456 43.5211 0 66.5641 0 90.5892C0 114.614 9.54428 137.659 26.5336 154.647C43.5229 171.634 66.5641 181.18 90.5909 181.18C114.618 181.18 137.66 171.636 154.648 154.647C171.636 137.657 181.182 114.616 181.182 90.5892C181.182 66.5624 171.638 43.5198 154.648 26.5318C137.659 9.54384 114.618 0 90.5909 0ZM90.5909 17.347C110.017 17.347 128.646 25.0621 142.379 38.7983C156.115 52.535 163.832 71.164 163.832 90.5905C163.832 110.015 156.115 128.644 142.379 142.378C128.644 156.115 110.015 163.831 90.5909 163.831C71.1671 163.831 52.5358 156.114 38.8032 142.378C25.0665 128.642 17.3501 110.013 17.3501 90.5905C17.3501 71.1645 25.067 52.5354 38.8032 38.7983C52.538 25.0617 71.1671 17.347 90.5909 17.347Z" fill="#006872"/>
<path fill-rule="evenodd" clip-rule="evenodd" d="M163.965 155.791C161.396 158.68 158.663 161.398 155.773 163.967L175.981 184.161L169.611 190.53L218.082 239L238.998 218.084L190.528 169.614L184.159 175.983L163.965 155.791Z" fill="#006872"/>
</svg>
