<svg width="100" height="143" viewBox="0 0 100 143" fill="none" xmlns="http://www.w3.org/2000/svg">
<path d="M8.5795 128.699H24.5959C24.0244 129.844 22.0222 131.846 22.0222 135.564V137.852C22.0222 140.713 24.3107 143 27.1698 143H72.0729C74.9331 143 77.2205 140.712 77.2205 137.852V135.564C77.2205 131.56 75.2183 129.557 74.6467 128.699H90.6632C95.239 128.699 99.2435 124.981 99.2435 120.119L99.2425 64.0645C99.2425 59.4886 95.5245 55.4841 90.6621 55.4841H85.2282C80.6524 48.6195 74.3604 42.9004 66.6381 39.7542C69.7846 34.8918 71.5005 29.1716 71.5005 23.4525C71.5005 10.5826 61.7771 0 49.4786 0C37.1802 0 27.4568 10.5826 27.4568 23.7377C27.4568 29.1716 29.1726 35.1781 32.3192 40.0394C24.8831 43.4711 18.3049 48.905 13.729 55.7693H8.58144C4.00562 55.7693 0.00103739 59.4873 0.00103739 64.3497L0 120.12C0 124.981 3.71802 128.699 8.5804 128.699H8.5795ZM71.2149 135.564V137.28H27.7406V135.564C27.7406 133.562 28.5985 133.275 31.4586 128.699H67.7811C70.9276 134.134 71.2139 134.42 71.2139 135.564H71.2149ZM49.4783 5.71991C58.6302 5.71991 65.78 13.7275 65.78 23.7385C65.78 33.1767 58.6302 44.6171 49.4783 44.6171C40.3264 44.6171 33.1766 33.1767 33.1766 23.7385C33.1766 13.7277 40.3264 5.71991 49.4783 5.71991ZM36.0358 44.3289C39.7538 47.7607 44.3296 50.0491 49.4783 50.0491C54.6259 50.0491 59.2028 47.7606 62.9208 44.3289C68.9273 46.6174 74.0749 50.6206 78.3644 55.483H20.8785C24.8817 50.6206 30.0304 46.9026 36.0358 44.3289ZM5.72061 64.0634C5.72061 62.6339 6.86486 61.2032 8.58083 61.2032H90.3773C91.8069 61.2032 93.2376 62.3474 93.2376 64.0634V120.121C93.2376 121.55 92.0933 122.981 90.3773 122.981H8.58083C7.15131 122.981 5.72061 121.837 5.72061 120.121V64.0634Z" fill="#006872"/>
<path d="M49.4803 106.677C57.4878 106.677 63.7808 100.099 63.7808 92.3767C63.7808 84.6544 57.2026 78.0762 49.4803 78.0762C41.7579 78.0762 35.1797 84.6544 35.1797 92.3767C35.1797 100.099 41.4724 106.677 49.4803 106.677ZM49.4803 83.5114C54.3426 83.5114 58.0607 87.5157 58.0607 92.0918C58.0607 96.9542 54.0564 100.672 49.4803 100.672C44.6179 100.672 40.8999 96.6679 40.8999 92.0918C40.8999 87.516 44.6179 83.5114 49.4803 83.5114Z" fill="#006872"/>
</svg>
