<svg width="129" height="99" viewBox="0 0 129 99" fill="none" xmlns="http://www.w3.org/2000/svg">
<path d="M97.9284 5.49641e-05H31.0722C30.7712 -0.00302646 30.4846 0.125373 30.2864 0.352375C30.0881 0.578362 29.9987 0.880357 30.0419 1.17824V97.7811C30.0368 98.3779 30.4795 98.8843 31.0722 98.9593H97.9284C98.5211 98.8843 98.9638 98.3779 98.9587 97.7811V1.17824C99.0019 0.880357 98.9125 0.578367 98.7142 0.352375C98.516 0.125363 98.2294 -0.00304802 97.9284 5.49641e-05H97.9284ZM32.2503 13.8428H96.7503V88.5038H32.2503V13.8428ZM96.7503 2.35648V11.4864H32.2503V2.35648H96.7503ZM32.2503 96.6031V90.86H96.7503V96.6031H32.2503Z" fill="#006872"/>
<path d="M21.9432 12.6644H11.6352C10.984 12.6644 10.457 12.1364 10.457 11.4862C10.457 10.836 10.984 10.308 11.6352 10.308H21.9432C22.5934 10.308 23.1214 10.836 23.1214 11.4862C23.1214 12.1364 22.5934 12.6644 21.9432 12.6644Z" fill="#006872"/>
<path d="M21.9432 42.5583H11.6352C10.984 42.5583 10.457 42.0304 10.457 41.3801C10.457 40.7299 10.984 40.2019 11.6352 40.2019H21.9432C22.5934 40.2019 23.1214 40.7299 23.1214 41.3801C23.1214 42.0304 22.5934 42.5583 21.9432 42.5583Z" fill="#006872"/>
<path d="M21.9419 29.8939H13.8423C13.192 29.8939 12.6641 29.3669 12.6641 28.7157C12.7298 28.0942 13.2208 27.6032 13.8423 27.5375H21.9419C22.5633 27.6032 23.0543 28.0942 23.1201 28.7157C23.1201 29.3669 22.5921 29.8939 21.9419 29.8939Z" fill="#006872"/>
<path d="M21.9424 34.4589H20.7642C20.1139 34.4589 19.5859 33.932 19.5859 33.2807C19.6609 32.688 20.1673 32.2453 20.7642 32.2504H21.9424C22.5392 32.2453 23.0456 32.688 23.1206 33.2807C23.1206 33.932 22.5926 34.4589 21.9424 34.4589Z" fill="#006872"/>
<path d="M21.9422 20.6166H1.17821C0.581415 20.6217 0.0749976 20.179 0 19.5863C0 18.935 0.527981 18.4081 1.17821 18.4081H21.9422C22.2545 18.4081 22.5544 18.5324 22.7753 18.7532C22.9961 18.9741 23.1204 19.274 23.1204 19.5863C23.0454 20.179 22.539 20.6217 21.9422 20.6166Z" fill="#006872"/>
<path d="M21.9431 50.6577H17.3783C16.727 50.6577 16.2001 50.1297 16.2001 49.4795C16.1487 49.1539 16.2566 48.8241 16.4898 48.5909C16.7219 48.3578 17.0527 48.2499 17.3783 48.3013H21.9431C22.2554 48.3013 22.5553 48.4256 22.7762 48.6464C22.997 48.8673 23.1213 49.1672 23.1213 49.4795C23.0556 50.1009 22.5646 50.592 21.9431 50.6577Z" fill="#006872"/>
<path d="M38.1416 6.92124C38.1416 8.49186 35.7852 8.49186 35.7852 6.92124C35.7852 5.35063 38.1416 5.35063 38.1416 6.92124Z" fill="#006872"/>
<path d="M42.708 6.92124C42.708 8.49186 40.3516 8.49186 40.3516 6.92124C40.3516 5.35063 42.708 5.35063 42.708 6.92124Z" fill="#006872"/>
<path d="M47.2705 6.92124C47.2705 8.49186 44.9141 8.49186 44.9141 6.92124C44.9141 5.35063 47.2705 5.35063 47.2705 6.92124Z" fill="#006872"/>
<path d="M16.2002 34.4589H15.022C14.3717 34.4589 13.8438 33.932 13.8438 33.2807C13.9187 32.688 14.4251 32.2453 15.022 32.2504H16.2002C16.797 32.2453 17.3034 32.688 17.3784 33.2807C17.3784 33.932 16.8504 34.4589 16.2002 34.4589Z" fill="#006872"/>
<path d="M9.2783 34.4589H8.10009C7.44986 34.4589 6.92188 33.932 6.92188 33.2807C6.99686 32.688 7.50326 32.2453 8.10009 32.2504H9.2783C9.8751 32.2453 10.3815 32.688 10.4565 33.2807C10.4565 33.932 9.92854 34.4589 9.2783 34.4589Z" fill="#006872"/>
<path d="M21.9399 25.3288H18.5532C17.902 25.3288 17.375 24.8009 17.375 24.1506C17.375 23.5004 17.902 22.9724 18.5532 22.9724H21.9399C22.5902 22.9724 23.1182 23.5004 23.1182 24.1506C23.1182 24.8009 22.5902 25.3288 21.9399 25.3288Z" fill="#006872"/>
<path d="M15.0205 25.3288H13.8423C13.192 25.3288 12.6641 24.8009 12.6641 24.1506C12.6641 23.5004 13.192 22.9724 13.8423 22.9724H15.0205C15.6707 22.9724 16.1987 23.5004 16.1987 24.1506C16.1987 24.8009 15.6707 25.3288 15.0205 25.3288Z" fill="#006872"/>
<path d="M10.4588 25.3288H6.92431C6.27407 25.3288 5.74609 24.8009 5.74609 24.1506C5.74609 23.5004 6.27407 22.9724 6.92431 22.9724H10.4588C11.1091 22.9724 11.637 23.5004 11.637 24.1506C11.637 24.8009 11.1091 25.3288 10.4588 25.3288Z" fill="#006872"/>
<path d="M117.365 47.1234H107.057C106.407 47.1234 105.879 46.5965 105.879 45.9452C105.954 45.3525 106.46 44.9098 107.057 44.9149H117.365C117.663 44.8718 117.965 44.9612 118.191 45.1594C118.418 45.3577 118.546 45.6443 118.543 45.9452C118.595 46.2709 118.487 46.6016 118.254 46.8338C118.021 47.0669 117.691 47.1748 117.365 47.1234H117.365Z" fill="#006872"/>
<path d="M117.365 78.1953H107.057C106.407 78.1953 105.879 77.6684 105.879 77.0171C105.954 76.4244 106.46 75.9817 107.057 75.9868H117.365C117.663 75.9437 117.965 76.0331 118.191 76.2313C118.418 76.4296 118.546 76.7162 118.543 77.0171C118.595 77.3428 118.487 77.6735 118.254 77.9057C118.021 78.1388 117.691 78.2467 117.365 78.1953H117.365Z" fill="#006872"/>
<path d="M115.157 64.3529H107.057C106.46 64.3581 105.954 63.9153 105.879 63.3226C105.879 62.6714 106.407 62.1444 107.057 62.1444H115.157C115.469 62.1444 115.769 62.2687 115.99 62.4896C116.211 62.7104 116.335 63.0104 116.335 63.3226C116.26 63.9153 115.754 64.358 115.157 64.3529Z" fill="#006872"/>
<path d="M108.235 69.0652H107.057C106.436 68.9994 105.945 68.5084 105.879 67.887C105.879 67.2357 106.407 66.7087 107.057 66.7087H108.235C108.548 66.7087 108.848 66.833 109.068 67.0539C109.289 67.2747 109.414 67.5747 109.414 67.887C109.348 68.5084 108.857 68.9994 108.235 69.0652Z" fill="#006872"/>
<path d="M127.821 55.2228H107.057C106.407 55.2228 105.879 54.6948 105.879 54.0445C105.879 53.3943 106.407 52.8663 107.057 52.8663H127.821C128.471 52.8663 128.999 53.3943 128.999 54.0445C128.999 54.6948 128.471 55.2228 127.821 55.2228Z" fill="#006872"/>
<path d="M111.622 86.2947H107.057C106.407 86.2947 105.879 85.7667 105.879 85.1164C105.879 84.4662 106.407 83.9382 107.057 83.9382H111.622C112.273 83.9382 112.8 84.4662 112.8 85.1164C112.8 85.7667 112.273 86.2947 111.622 86.2947Z" fill="#006872"/>
<path d="M116.334 69.0652H112.799C112.178 68.9995 111.687 68.5085 111.621 67.887C111.621 67.2357 112.149 66.7088 112.799 66.7088H116.334C116.635 66.7057 116.921 66.8341 117.12 67.0611C117.318 67.2871 117.407 67.5891 117.364 67.887C117.369 68.4838 116.927 68.9902 116.334 69.0652V69.0652Z" fill="#006872"/>
<path d="M120.903 69.0652H119.725C119.104 68.9994 118.613 68.5084 118.547 67.887C118.547 67.2357 119.075 66.7087 119.725 66.7087H120.903C121.216 66.7087 121.516 66.833 121.736 67.0539C121.957 67.2747 122.082 67.5747 122.082 67.887C122.016 68.5084 121.525 68.9994 120.903 69.0652Z" fill="#006872"/>
<path d="M108.235 59.7878H107.057C106.407 59.7878 105.879 59.2609 105.879 58.6096C105.945 57.9881 106.436 57.4982 107.057 57.4314H108.235C108.857 57.4982 109.348 57.9881 109.414 58.6096C109.414 59.2609 108.886 59.7878 108.235 59.7878Z" fill="#006872"/>
<path d="M116.334 59.7878H112.799C112.149 59.7878 111.621 59.2609 111.621 58.6096C111.687 57.9881 112.178 57.4982 112.799 57.4314H116.334C116.927 57.5064 117.369 58.0128 117.364 58.6096C117.407 58.9075 117.318 59.2095 117.12 59.4355C116.921 59.6625 116.635 59.7909 116.334 59.7878V59.7878Z" fill="#006872"/>
<path d="M123.112 59.7878H119.725C119.075 59.7878 118.547 59.2609 118.547 58.6096C118.613 57.9881 119.104 57.4982 119.725 57.4314H123.112C123.424 57.4314 123.724 57.5557 123.945 57.7765C124.166 57.9974 124.29 58.2973 124.29 58.6096C124.341 58.9352 124.234 59.266 124 59.4981C123.768 59.7313 123.437 59.8392 123.112 59.7878Z" fill="#006872"/>
<path d="M59.937 66.709H59.4953C58.9375 66.448 58.6325 65.8389 58.7588 65.2359L68.0365 37.551V37.552C68.246 36.947 68.8993 36.6203 69.5085 36.8155C70.0663 37.0754 70.3713 37.6855 70.245 38.2885L60.9673 65.9735C60.7968 66.3987 60.3941 66.6863 59.937 66.71V66.709Z" fill="#006872"/>
<path d="M77.1653 59.7878L76.2819 59.493C75.8515 59.039 75.8515 58.3281 76.2819 57.8731L83.6449 50.6571L76.2819 43.294V43.2951C75.9737 43.1061 75.7693 42.7876 75.7272 42.4291C75.684 42.0706 75.8083 41.7121 76.0641 41.4574C76.3188 41.2016 76.6773 41.0773 77.0358 41.1205C77.3943 41.1626 77.7127 41.367 77.9018 41.6752L86.0013 49.7748C86.4307 50.2288 86.4307 50.9396 86.0013 51.3947L77.9018 59.4943L77.1653 59.7878Z" fill="#006872"/>
<path d="M51.8378 59.7877L51.1013 59.4929L43.0017 51.3933V51.3943C42.5723 50.9393 42.5723 50.2284 43.0017 49.7744L51.1013 41.6748C51.2903 41.3666 51.6088 41.1622 51.9673 41.1201C52.3258 41.077 52.6842 41.2013 52.939 41.457C53.1948 41.7118 53.319 42.0703 53.2759 42.4288C53.2338 42.7873 53.0294 43.1057 52.7212 43.2947L45.3582 50.6577L52.7212 57.8737V57.8727C53.1516 58.3278 53.1516 59.0386 52.7212 59.4926L51.8378 59.7877Z" fill="#006872"/>
<path d="M110.298 40.7911C109.413 40.7922 108.566 40.4306 107.954 39.7906C107.342 39.1507 107.019 38.2878 107.059 37.4034V33.8697C107.059 33.1332 106.764 32.5446 106.027 32.5446V31.0716C106.764 31.0716 107.059 30.335 107.059 29.5985V26.0648C107.059 24.2754 108.509 22.8251 110.298 22.8251H111.477V24.5919H110.298C109.919 24.5898 109.558 24.749 109.305 25.0305C109.051 25.312 108.931 25.6879 108.973 26.0649V29.8934C109.051 30.6453 108.712 31.3798 108.09 31.8081C108.717 32.1615 109.066 32.861 108.973 33.5749V37.4034C108.932 37.7948 109.049 38.1862 109.298 38.4902C109.547 38.7943 109.907 38.9864 110.298 39.0233H111.477V40.7901L110.298 40.7911Z" fill="#006872"/>
<path d="M118.695 40.7913V39.0234H119.874C120.265 38.9865 120.625 38.7944 120.874 38.4903C121.124 38.1863 121.241 37.7949 121.2 37.4036V33.575C121.081 32.8159 121.511 32.0784 122.23 31.8082C121.522 31.4456 121.112 30.6835 121.2 29.8935V26.065C121.242 25.688 121.121 25.3121 120.867 25.0306C120.614 24.7492 120.253 24.5899 119.874 24.592H118.695V22.8252H119.874C120.746 22.782 121.594 23.1097 122.211 23.7271C122.829 24.3444 123.157 25.1929 123.113 26.065V29.5995C123.113 30.336 123.408 31.0725 124.145 31.0725V32.5456C123.408 32.5456 123.113 33.1342 123.113 33.8707V37.4052V37.4031C123.153 38.2876 122.831 39.1504 122.219 39.7903C121.606 40.4303 120.759 40.7919 119.874 40.7909L118.695 40.7913Z" fill="#006872"/>
</svg>
