<svg width="110" height="128" viewBox="0 0 110 128" fill="none" xmlns="http://www.w3.org/2000/svg">
<path d="M101.481 43.7319H66.1972C66.0627 43.7319 65.9484 43.8462 65.9484 43.9807V45.194H62.1599C61.8169 45.194 61.5182 45.3236 61.2944 45.5523C61.0705 45.7761 60.9313 46.0796 60.9313 46.4178C60.9313 47.094 61.4826 47.6454 62.1589 47.6454H65.9474V53.5321H63.0685C62.7256 53.5321 62.4221 53.6666 62.203 53.8904C61.9792 54.1142 61.8399 54.4226 61.8399 54.7559C61.8399 55.4321 62.3913 55.9787 63.0676 55.9787H65.9465V57.6694H64.7678C64.4297 57.6694 64.1261 57.8039 63.9023 58.0325C63.6833 58.2515 63.544 58.5598 63.544 58.8922C63.544 59.5685 64.0906 60.1199 64.7669 60.1199H65.9455V61.676H52.9898C52.3136 61.676 51.7622 62.2226 51.7622 62.8989C51.7622 63.5752 52.3136 64.1217 52.9898 64.1217H65.9455V65.8124H48.6394C47.9631 65.8124 47.4165 66.3638 47.4165 67.0353C47.4165 67.7115 47.9631 68.2629 48.6394 68.2629H66.2288V68.2235H77.9365V75.402C77.9365 78.1014 75.7493 80.2885 73.05 80.2885H42.5051V72.4586H46.5415C47.2178 72.4586 47.7644 71.912 47.7644 71.2358C47.7644 70.9024 47.6251 70.5941 47.4012 70.3703C47.1822 70.1465 46.8796 70.012 46.5415 70.012H42.5051V68.2618H43.7827C44.4541 68.2618 45.0055 67.7104 45.0055 67.0341C45.0055 66.7008 44.8662 66.3924 44.6424 66.1744C44.4234 65.9458 44.1208 65.8113 43.7827 65.8113H42.5051C42.5051 65.6768 42.3956 65.5625 42.2563 65.5625L22.488 65.5615C22.3488 65.5615 22.2393 65.6758 22.2393 65.8103V75.0522H12.9917C12.8524 75.0522 12.7429 75.1617 12.7429 75.301V87.3766H10.5066C10.3673 87.3766 10.2578 87.4909 10.2578 87.6254C10.2578 87.7647 10.3673 87.8742 10.5066 87.8742H12.7439V97.6684C12.7439 97.8077 12.8534 97.9172 12.9926 97.9172H35.3592C35.4985 97.9172 35.608 97.8077 35.608 97.6684V85.8358H42.2602C42.3995 85.8358 42.509 85.7215 42.509 85.587V84.5083C42.5541 84.5774 42.6281 84.6226 42.7174 84.6226H82.2161C82.3505 84.6226 82.4649 84.5131 82.4649 84.3738V68.2212H84.9211V86.8251C84.9211 88.0085 84.3198 89.0575 83.3995 89.6683V89.4647C83.3995 89.286 83.2602 89.1467 83.0815 89.1467H37.349V95.1428H41.5603L33.3308 127.269H36.3336L44.785 95.1428H56.6473V127.269H59.7645V95.1428H71.6269L80.0782 127.269H83.0811L74.8535 95.1428H83.0811C83.2597 95.1428 83.399 95.0035 83.399 94.8248V92.2351H87.2913C87.4306 92.2351 87.5401 92.1208 87.5401 91.9863V68.222H101.48C101.62 68.222 101.729 68.1125 101.729 67.9732V43.9804C101.729 43.8469 101.62 43.7326 101.48 43.7326L101.481 43.7319ZM35.1113 87.8488L30.7714 81.9872L26.1278 86.5905L35.1113 95.643V96.4288L34.6588 96.8764L34.1372 96.3442L33.9586 96.5181L32.9192 95.4739L33.0979 95.3001L32.0585 94.2511L31.8798 94.4298L30.8404 93.3808L31.0191 93.2069L29.9797 92.1628L29.8011 92.3366L28.7617 91.2925L28.9403 91.1138L27.901 90.0696L27.7271 90.2435L26.6877 89.1993L26.8616 89.0254L25.8222 87.9765L25.6483 88.1551L25.121 87.623L22.5908 88.2099L22.3468 87.9659L21.3026 88.9995L21.4765 89.1782L20.4275 90.2175L20.2536 90.0389L19.2095 91.0783L19.3833 91.2521L18.3344 92.2915L18.1605 92.1176L17.1163 93.1512L17.2902 93.3299L16.2412 94.3693L16.0674 94.1906L15.0232 95.23L15.1971 95.4039L14.1481 96.4432L13.9742 96.2694L13.4469 96.791L13.2384 96.5825V95.3299L21.5611 87.0773L19.5323 84.3233C19.5323 84.3233 16.0723 87.5548 13.2384 90.1694V75.5481H35.1085L35.1113 87.8488ZM42.0121 84.5174L41.4847 85.039L35.6086 79.1179V77.313L42.012 83.7672L42.0121 84.5174ZM42.0121 76.8663L38.2044 71.7203L34.8489 75.0517H33.3926L33.6011 74.8481L33.2485 74.4955L32.7212 75.0171L32.7557 75.0517H31.8556L31.8902 75.0219L31.3629 74.4898L31.0103 74.8423L31.2188 75.0507L29.1996 75.0517L28.2698 73.7837C28.2698 73.7837 27.728 74.2957 26.9124 75.0517H22.7368V66.0586H42.0113L42.0121 76.8663ZM75.2965 44.9394C75.8834 44.9394 76.3608 45.4168 76.3608 46.0037C76.3608 46.5906 75.8834 47.0729 75.2965 47.0729C74.7048 47.0729 74.2273 46.5907 74.2273 46.0037C74.2273 45.4168 74.7047 44.9394 75.2965 44.9394ZM72.0401 44.9394C72.6318 44.9394 73.1092 45.4168 73.1092 46.0037C73.1092 46.5906 72.6318 47.0729 72.0401 47.0729C71.4532 47.0729 70.9709 46.5907 70.9709 46.0037C70.9719 45.4168 71.4541 44.9394 72.0401 44.9394ZM68.7894 44.9394C69.3811 44.9394 69.8585 45.4168 69.8585 46.0037C69.8585 46.5906 69.3811 47.0729 68.7894 47.0729C68.1976 47.0729 67.7202 46.5907 67.7202 46.0037C67.7202 45.4168 68.1976 44.9394 68.7894 44.9394ZM98.567 57.5722C98.1492 58.7451 97.568 60.625 96.7524 61.5693C94.2914 64.4184 89.6834 65.1043 85.9197 65.2378C79.4222 65.4712 72.8344 63.8853 66.4463 65.0889V48.0316H98.5626C98.6126 48.5888 99.0602 49.5782 99.1342 49.9653C99.2984 50.8308 99.3878 51.7107 99.3926 52.5907C99.408 54.2813 99.1342 55.9769 98.5674 57.5724L98.567 57.5722Z" fill="#006872"/>
<path d="M48.4585 43.5033C49.1347 43.5033 49.6813 42.9519 49.6813 42.2805C49.6813 41.609 49.1299 41.0576 48.4585 41.0576H39.4356C39.0975 41.0576 38.794 41.1921 38.5701 41.4207C38.3511 41.6398 38.207 41.9481 38.207 42.2862C38.207 42.9625 38.7584 43.5091 39.4299 43.5091L48.4586 43.5081L48.4585 43.5033Z" fill="#006872"/>
<path d="M39.4356 47.6396H56.6169C57.2931 47.6396 57.8397 47.0882 57.8397 46.4167C57.8397 45.7452 57.2883 45.1938 56.6169 45.1938H39.4356C39.0975 45.1938 38.794 45.3283 38.5702 45.557C38.3511 45.776 38.207 46.0843 38.207 46.4225C38.2128 47.092 38.7642 47.6395 39.4356 47.6395V47.6396Z" fill="#006872"/>
<path d="M39.4356 51.7807H53.7485C54.4248 51.7807 54.9714 51.2293 54.9714 50.5578C54.9714 49.8816 54.42 49.335 53.7485 49.335H39.4356C39.0975 49.335 38.794 49.4694 38.5702 49.6981C38.3511 49.9171 38.207 50.2254 38.207 50.5636C38.2128 51.2283 38.7642 51.7806 39.4356 51.7806V51.7807Z" fill="#006872"/>
<path d="M64.0938 50.5537C64.0938 49.8774 63.5424 49.3308 62.871 49.3308H58.8692C58.5311 49.3308 58.2275 49.4653 58.0037 49.6939C57.7847 49.9129 57.6406 50.2213 57.6406 50.5594C57.6406 51.2357 58.192 51.7823 58.8635 51.7823H62.8652C63.5463 51.7823 64.0938 51.2299 64.0938 50.5537Z" fill="#006872"/>
<path d="M39.4356 55.9784H57.9492C58.6255 55.9784 59.1721 55.427 59.1721 54.7556C59.1721 54.0841 58.6207 53.5327 57.9492 53.5327H39.4356C39.0975 53.5327 38.794 53.6672 38.5702 53.8958C38.3511 54.1148 38.207 54.4232 38.207 54.7613C38.2128 55.4318 38.7642 55.9784 39.4356 55.9784V55.9784Z" fill="#006872"/>
<path d="M60.8782 58.89C60.8782 58.2137 60.3268 57.6671 59.6554 57.6671H39.4356C39.0975 57.6671 38.794 57.8016 38.5701 58.0302C38.3511 58.2492 38.207 58.5576 38.207 58.8957C38.207 59.572 38.7584 60.1186 39.4299 60.1186H59.6496C60.3316 60.1176 60.8782 59.5653 60.8782 58.89Z" fill="#006872"/>
<path d="M39.7854 61.6763C39.1091 61.6763 38.5625 62.2277 38.5625 62.8991C38.5625 63.5706 39.1139 64.122 39.7854 64.122H43.7871C44.4634 64.122 45.01 63.5706 45.01 62.8991C45.01 62.5658 44.8707 62.2575 44.6468 62.0336C44.4278 61.805 44.1252 61.6705 43.7813 61.6705L39.7853 61.6715L39.7854 61.6763Z" fill="#006872"/>
<path d="M70.1719 72.4571C70.8481 72.4571 71.3947 71.9057 71.3947 71.2342C71.3947 70.9009 71.2555 70.5925 71.0316 70.3687C70.8126 70.1401 70.51 70.0056 70.1661 70.0056H51.6525C50.9763 70.0056 50.4297 70.557 50.4297 71.2285C50.4297 71.9047 50.9811 72.4513 51.6525 72.4513L70.172 72.4523L70.1719 72.4571Z" fill="#006872"/>
<path d="M48.7344 75.3713C48.7344 76.0476 49.2858 76.5942 49.9572 76.5942H70.177C70.8532 76.5942 71.3998 76.0428 71.3998 75.3713C71.3998 75.038 71.2605 74.7296 71.0367 74.5058C70.8177 74.2772 70.5151 74.1427 70.1712 74.1427H49.9515C49.281 74.1485 48.7344 74.7008 48.7344 75.3713H48.7344Z" fill="#006872"/>
<path d="M78.1627 61.9542C78.2569 62.0483 78.3865 62.0983 78.5105 62.0983C78.6401 62.0983 78.7689 62.0483 78.863 61.9494C79.057 61.7553 79.0522 61.4374 78.8582 61.2481L75.7565 58.1808L78.8238 55.0791C79.0178 54.8851 79.013 54.5671 78.819 54.3779C78.6249 54.1839 78.307 54.1887 78.1177 54.3827L74.7017 57.838C74.5077 58.0321 74.5125 58.35 74.7065 58.5393L78.1627 61.9542Z" fill="#006872"/>
<path d="M86.2584 63.8821C86.3132 63.9022 86.3631 63.907 86.4179 63.907C86.6263 63.907 86.8204 63.7774 86.8905 63.5689L89.51 55.7641L91.9163 58.1454L88.849 61.2472C88.655 61.4412 88.6598 61.7591 88.8538 61.9484C88.948 62.0425 89.0776 62.0925 89.2016 62.0925C89.3313 62.0925 89.46 62.0425 89.5541 61.9436L92.9701 58.4883C93.0642 58.3941 93.1142 58.2693 93.1142 58.1357C93.1142 58.0012 93.0594 57.8773 92.9653 57.7832L89.8577 54.7112L90.4091 53.0657C90.4984 52.8073 90.3543 52.524 90.0959 52.4346C89.8375 52.3501 89.5542 52.4894 89.4648 52.7478L85.9404 63.248C85.8607 63.5141 85.9999 63.7975 86.2583 63.882L86.2584 63.8821Z" fill="#006872"/>
<path d="M81.2788 62.0969H84.4708C84.7446 62.0969 84.9684 61.873 84.9684 61.5993C84.9684 61.3255 84.7445 61.1017 84.4708 61.1017H81.2788C81.0051 61.1017 80.7812 61.3255 80.7812 61.5993C80.7822 61.873 81.006 62.0969 81.2788 62.0969Z" fill="#006872"/>
<path d="M29.2553 70.18C30.0554 70.18 30.7019 69.5383 30.7019 68.7382C30.7019 67.938 30.0554 67.2915 29.2553 67.2915C28.4551 67.2915 27.8086 67.938 27.8086 68.7382C27.8086 69.5383 28.4599 70.18 29.2553 70.18Z" fill="#006872"/>
<path d="M24.543 68.3233L24.8955 67.9727L25.9743 69.0591L25.6217 69.4097L24.543 68.3233Z" fill="#006872"/>
<path d="M26.6953 70.4972L27.0479 70.1466L28.1266 71.2331L27.7741 71.5837L26.6953 70.4972Z" fill="#006872"/>
<path d="M28.8516 72.6711L29.2041 72.3204L30.2829 73.4069L29.9303 73.7575L28.8516 72.6711Z" fill="#006872"/>
<path d="M22.9375 66.7101L23.29 66.3595L23.8155 66.8888L23.4629 67.2394L22.9375 66.7101Z" fill="#006872"/>
<path d="M34.3281 73.4138L35.4155 72.3351L35.7652 72.6876L34.6778 73.7664L34.3281 73.4138Z" fill="#006872"/>
<path d="M36.5039 71.262L37.5913 70.1832L37.941 70.5358L36.8536 71.6145L36.5039 71.262Z" fill="#006872"/>
<path d="M38.6758 69.1028L39.7632 68.024L40.1129 68.3766L39.0254 69.4553L38.6758 69.1028Z" fill="#006872"/>
<path d="M40.8516 66.9511L41.3808 66.4257L41.7305 66.7782L41.2012 67.3036L40.8516 66.9511Z" fill="#006872"/>
<path d="M20.6476 80.2428C21.5525 80.2428 22.2835 79.5166 22.2835 78.6117C22.2835 77.7068 21.5525 76.9758 20.6476 76.9758C19.7427 76.9758 19.0117 77.7069 19.0117 78.6117C19.0117 79.5176 19.7427 80.2428 20.6476 80.2428Z" fill="#006872"/>
<path d="M19.2422 82.0502L19.5947 81.6996L20.6312 82.7438L20.2787 83.0944L19.2422 82.0502Z" fill="#006872"/>
<path d="M15.082 77.8672L15.4346 77.5166L16.4711 78.5608L16.1185 78.9114L15.082 77.8672Z" fill="#006872"/>
<path d="M21.3164 84.1477L21.6689 83.7971L22.7054 84.8413L22.3529 85.1919L21.3164 84.1477Z" fill="#006872"/>
<path d="M17.1641 79.9576L17.5166 79.6069L18.5531 80.6511L18.2005 81.0017L17.1641 79.9576Z" fill="#006872"/>
<path d="M13.5273 76.2934L13.8799 75.9427L14.4053 76.472L14.0528 76.8227L13.5273 76.2934Z" fill="#006872"/>
<path d="M31.7617 78.6173L32.8069 77.5808L33.1565 77.9334L32.1114 78.9698L31.7617 78.6173Z" fill="#006872"/>
<path d="M27.5781 82.7707L28.6233 81.7343L28.9729 82.0868L27.9278 83.1233L27.5781 82.7707Z" fill="#006872"/>
<path d="M25.4883 84.8463L26.5334 83.8098L26.8831 84.1624L25.8379 85.1988L25.4883 84.8463Z" fill="#006872"/>
<path d="M29.6719 80.6952L30.717 79.6587L31.0667 80.0112L30.0215 81.0477L29.6719 80.6952Z" fill="#006872"/>
<path d="M23.7393 87.2783L24.0871 86.9411L24.43 87.2841L24.7835 86.9353L24.4406 86.5876L24.7883 86.2399L24.4348 85.8864L24.0871 86.2351L23.7441 85.8912L23.3906 86.2399L23.7345 86.5876L23.3906 86.9258L23.7393 87.2783Z" fill="#006872"/>
<path d="M33.8555 76.5442L34.3847 76.0188L34.7344 76.3713L34.2051 76.8968L33.8555 76.5442Z" fill="#006872"/>
<path d="M87.5417 26.1688V24.6175C87.5417 24.4782 87.4321 24.3687 87.2929 24.3687H85.7463L85.1546 23.7818L90.7626 18.1737C91.4091 17.5272 92.2544 17.1343 93.1593 17.0008C93.6367 16.9365 94.1094 16.7972 94.5666 16.5781C98.9468 14.5349 96.898 8.53898 96.1324 9.54845C94.9739 11.0652 93.9105 13.0038 93.9105 13.0038C93.5974 13.8741 90.0027 12.5609 90.316 11.7012C90.316 11.7012 90.7483 9.52834 90.8376 7.62445C90.8876 6.53609 86.8607 8.82232 87.0692 12.2882C87.1384 13.4813 86.7215 14.6599 85.8714 15.5052L79.5179 21.8633L69.3558 11.6963L69.3462 11.7059L68.7641 9.52821L65.5028 7.85772L63.9072 9.45328L65.5777 12.7146L67.7554 13.2967L67.7458 13.3063L77.9079 23.4684L77.0078 24.3685H29.1211C28.9818 24.3685 28.8723 24.478 28.8723 24.6173V32.8699C28.8675 32.8699 28.8675 32.8699 28.8675 32.8651C28.3401 32.502 28.0673 31.9554 27.8233 31.4684C27.6341 31.0851 27.4506 30.7182 27.1769 30.504C27.0078 30.3695 26.784 30.2753 26.5457 30.1706C26.4161 30.1159 26.2922 30.0659 26.1682 30.0064C24.9156 29.3945 24.0357 28.162 23.8666 26.7844C23.8368 26.526 23.8215 26.1879 24.0011 25.8949C24.1154 25.6864 24.3047 25.5174 24.5679 25.3829C24.8906 25.2138 25.2345 25.0995 25.5669 24.99C26.1288 24.8008 26.6158 24.6423 26.8397 24.2696C26.8743 24.21 26.904 24.1399 26.9396 24.0755C27.0241 23.8863 27.1384 23.6528 27.3574 23.4492C27.6504 23.1956 27.9991 23.136 28.2767 23.0861L28.466 23.0515C28.8137 22.9718 29.1566 22.7633 29.5246 22.5443C30.0759 22.2158 30.6485 21.8777 31.3391 21.8777C31.439 21.8777 31.538 21.8825 31.6379 21.8978C31.9962 21.9526 32.3045 22.1015 32.5773 22.2312C32.7118 22.2955 32.8405 22.3608 32.9798 22.4098C33.0845 22.4492 33.2036 22.4694 33.3083 22.4694C33.3535 22.4694 33.512 22.4646 33.5571 22.3945C33.5869 22.3551 33.6119 22.26 33.6368 22.1706C33.6666 22.0563 33.6964 21.942 33.7464 21.8325C33.8155 21.6634 33.9404 21.4896 34.1046 21.3657C34.0893 21.0775 34.1796 20.7893 34.3679 20.5549C34.5869 20.2811 34.9346 20.1179 35.3025 20.1179C35.4322 20.1179 35.5561 20.138 35.6752 20.1726C35.5753 20.0785 35.4562 19.9987 35.3419 19.9536C35.1181 19.8691 34.8798 19.8239 34.6455 19.7797C34.2526 19.7048 33.8107 19.6203 33.4024 19.3772C33.0144 19.1486 32.731 18.8153 32.4831 18.5271C32.3832 18.408 32.2795 18.2889 32.1796 18.1842C31.7473 17.7567 31.1854 17.4637 30.5888 17.1554C30.3506 17.0257 30.1114 16.9018 29.8732 16.7673C29.5898 16.5982 29.2968 16.3994 29.1172 16.0911C28.854 15.6684 28.8838 15.1314 29.1719 14.7885C29.048 14.7885 28.7887 14.7981 28.779 14.7981C28.5898 14.7981 28.4111 14.6982 28.317 14.5349C27.9885 13.9835 28.2027 13.2275 28.7838 12.8596C29.2267 12.5609 29.7387 12.5416 30.1162 12.5263C30.3698 12.5166 30.6234 12.5061 30.877 12.5061C31.439 12.5061 31.9308 12.5455 32.3784 12.6156C35.1823 13.068 37.5733 15.3256 38.1901 18.1093C38.2593 18.4426 38.3198 18.8403 38.2295 19.238C38.1747 19.4762 38.0758 19.6856 37.9855 19.8691C37.901 20.0382 37.826 20.1976 37.8116 20.3264C37.8068 20.4013 37.8164 20.4752 37.8212 20.5502C37.8366 20.7442 37.8558 20.9824 37.7818 21.2216C37.6378 21.7385 37.1853 22.017 36.9164 22.1861C36.5139 22.4397 36.1056 22.6981 35.7031 22.9565H43.0508C42.2256 15.9816 36.3044 10.5772 29.1057 10.5772C21.3546 10.5772 15.0715 16.8615 15.0715 24.6221C15.0715 32.2933 21.2309 38.5228 28.8724 38.6517V41.3759C19.7101 41.2414 12.3367 33.8141 12.3367 24.6221C12.3367 15.3504 19.8437 7.83847 29.1203 7.83847C37.8502 7.83847 44.9595 14.4656 45.7895 22.9572H53.9622C53.5193 20.427 53.48 20.2377 52.943 17.1505L48.9007 16.5991C47.7326 14.5953 47.2456 13.7558 46.1014 11.7423L47.6278 7.97392C44.9929 5.75686 45.0976 5.85099 42.4627 3.62912L39.0073 5.79143C36.8345 5.01624 35.9103 4.68291 33.747 3.88273L32.4992 0H25.7375L24.4897 3.88273C22.3025 4.68291 21.4023 5.01624 19.2294 5.79143L15.777 3.6272C13.1421 5.84908 13.2468 5.75492 10.6013 7.972L12.1373 11.7404C11.8491 12.238 11.6099 12.6597 11.387 13.0478H11.218C11.0787 13.0478 10.9692 13.1621 10.9692 13.2965C10.9692 13.3964 11.0287 13.48 11.1133 13.5204C10.5619 14.48 10.0893 15.2956 9.33808 16.5982L5.29674 17.1506C4.69541 20.5511 4.71461 20.4215 4.11328 23.7978L7.72231 25.7171C8.13537 27.9937 8.29868 28.9533 8.70212 31.231L5.9624 34.2434C7.68763 37.2261 7.62807 37.1118 9.33806 40.0954L13.3255 39.2405C15.1055 40.7323 15.8462 41.3538 17.6155 42.835L17.4618 46.9118C20.698 48.0904 20.5741 48.0549 23.8103 49.2383L26.3157 46.0117H28.871V64.1227C28.871 64.262 28.9805 64.3715 29.1197 64.3715C29.2542 64.3715 29.3685 64.262 29.3685 64.1227V24.8651H84.9204V42.1213L87.5399 42.131L87.5408 36.8266L90.5235 39.8044C91.9951 41.2808 94.3814 41.2808 95.8529 39.8092V39.8044C97.3246 38.3327 97.3246 35.9514 95.8529 34.4749L87.5417 26.1688ZM21.7942 15.415C20.9537 16.9068 20.2582 18.5121 20.1987 20.2276C20.1737 20.8039 20.2381 21.3909 20.1737 21.9672C20.1286 22.5436 19.9595 23.1305 19.5618 23.5378C19.2986 23.8116 18.9653 23.995 18.7463 24.2938C18.5926 24.4878 18.508 24.751 18.2938 24.9153C17.9903 25.1343 17.5734 25.0594 17.2247 24.9153C16.8769 24.7712 16.5532 24.557 16.1805 24.532C16.096 24.532 16.0114 24.532 15.9423 24.4868C15.8231 24.4369 15.7828 24.3034 15.7636 24.1737C15.6397 23.5378 15.8328 22.8759 15.8087 22.2295C15.8087 22.1795 15.8087 22.1353 15.7991 22.0854C16.4706 18.4859 18.5686 15.3938 21.4819 13.3997C21.7605 13.3997 21.9988 13.4343 22.1678 13.5438C22.8979 14.003 22.0727 14.9232 21.7942 15.415L21.7942 15.415ZM87.5417 26.924C88.3918 27.6896 89.2266 28.4706 90.0372 29.2804C91.3647 30.6079 92.6328 31.9903 93.8402 33.4166C94.2235 33.8739 94.188 34.5453 93.7711 34.968C93.3436 35.3907 92.6721 35.4253 92.2149 35.0372C90.7884 33.8345 89.4061 32.5665 88.0786 31.239C87.9 31.0556 87.7203 30.8711 87.5417 30.6877L87.5417 26.924ZM91.2208 37.5185C90.7933 37.9412 90.117 37.9709 89.6646 37.5876C88.9442 36.9757 88.2381 36.3446 87.5417 35.7039V31.8807C88.8539 33.1928 90.1016 34.555 91.2899 35.9623C91.678 36.4206 91.6434 37.091 91.2207 37.5185L91.2208 37.5185ZM93.8557 39.9796C92.752 40.2178 91.7828 40.0545 91.6829 39.6069C91.5887 39.164 92.4033 38.6126 93.507 38.3735C94.6108 38.1352 95.5848 38.2985 95.6799 38.7414C95.7798 39.189 94.9595 39.7414 93.8557 39.9796V39.9796Z" fill="#006872"/>
<path d="M82.4663 41.9736V29.6981C82.4663 29.5588 82.3568 29.4493 82.2175 29.4493L34.198 29.4503C34.0587 29.4503 33.9492 29.5598 33.9492 29.6991V64.127C33.9492 64.2663 34.0587 64.3758 34.198 64.3758C34.3373 64.3758 34.4468 64.2663 34.4468 64.127V37.0716H77.6489V41.9783H82.4653L82.4663 41.9736ZM38.2142 35.331C37.1402 35.331 36.2651 34.4559 36.2651 33.382C36.2651 32.308 37.1402 31.4377 38.2142 31.4377C39.2929 31.4377 40.1633 32.308 40.1633 33.382C40.1623 34.4559 39.2929 35.331 38.2142 35.331ZM44.1498 35.331C43.0759 35.331 42.2007 34.4559 42.2007 33.382C42.2007 32.308 43.0759 31.4377 44.1498 31.4377C45.2286 31.4377 46.0989 32.308 46.0989 33.382C46.0989 34.4559 45.2334 35.331 44.1498 35.331ZM50.0911 35.331C49.0171 35.331 48.142 34.4559 48.142 33.382C48.142 32.308 49.0171 31.4377 50.0911 31.4377C51.1698 31.4377 52.0401 32.308 52.0401 33.382C52.0392 34.4559 51.1698 35.331 50.0911 35.331Z" fill="#006872"/>
<path d="M7.91663 87.3766H5.32691C5.18762 87.3766 5.07812 87.4861 5.07812 87.6254C5.07812 87.7647 5.18763 87.8742 5.32691 87.8742H7.91663C8.05592 87.8742 8.16542 87.7647 8.16542 87.6254C8.16542 87.4861 8.05111 87.3766 7.91663 87.3766Z" fill="#006872"/>
<path d="M2.73483 87.3767H0.497583V85.1394C0.497583 85.0001 0.388074 84.8906 0.248791 84.8906C0.109504 84.8906 0 85.0001 0 85.1394V87.6254C0 87.7646 0.109509 87.8741 0.248791 87.8741H2.73473C2.87402 87.8741 2.98352 87.7646 2.98352 87.6254C2.98352 87.4861 2.87401 87.3766 2.73473 87.3766L2.73483 87.3767Z" fill="#006872"/>
<path d="M0.252698 69.3856C0.391986 69.3856 0.501489 69.2761 0.501489 69.1369V63.8027C0.501489 63.6635 0.391981 63.554 0.252698 63.554C0.11341 63.554 0.00390625 63.6635 0.00390625 63.8027V69.1369C0.00390625 69.2713 0.118218 69.3856 0.252698 69.3856Z" fill="#006872"/>
<path d="M0.252698 58.7106C0.391986 58.7106 0.501489 58.6011 0.501489 58.4618V53.1277C0.501489 52.9884 0.391981 52.8789 0.252698 52.8789C0.11341 52.8789 0.00390625 52.9884 0.00390625 53.1277V58.4618C0.00390625 58.6011 0.118218 58.7106 0.252698 58.7106Z" fill="#006872"/>
<path d="M0.252698 37.3726C0.391986 37.3726 0.501489 37.2631 0.501489 37.1238V31.7897C0.501489 31.6504 0.391981 31.5409 0.252698 31.5409C0.11341 31.5409 0.00390625 31.6504 0.00390625 31.7897V37.1238C0.00390625 37.2583 0.118218 37.3726 0.252698 37.3726Z" fill="#006872"/>
<path d="M0.252698 48.0429C0.391986 48.0429 0.501489 47.9334 0.501489 47.7941V42.46C0.501489 42.3207 0.391981 42.2112 0.252698 42.2112C0.11341 42.2112 0.00390625 42.3207 0.00390625 42.46V47.7941C0.00390625 47.9334 0.118218 48.0429 0.252698 48.0429Z" fill="#006872"/>
<path d="M0.252698 26.7C0.391986 26.7 0.501489 26.5905 0.501489 26.4512V21.1171C0.501489 20.9778 0.391981 20.8683 0.252698 20.8683C0.11341 20.8683 0.00390625 20.9778 0.00390625 21.1171V26.4512C0.00390625 26.5905 0.118218 26.7 0.252698 26.7Z" fill="#006872"/>
<path d="M0.252698 80.0558C0.391986 80.0558 0.501489 79.9463 0.501489 79.807V74.4719C0.501489 74.3326 0.391981 74.2231 0.252698 74.2231C0.11341 74.2231 0.00390625 74.3326 0.00390625 74.4719V79.806C0.00390625 79.9463 0.118218 80.0558 0.252698 80.0558V80.0558Z" fill="#006872"/>
<path d="M2.73473 13.0487H0.24879C0.109502 13.0487 0 13.1582 0 13.2975V15.7834C0 15.9227 0.109507 16.0322 0.24879 16.0322C0.388077 16.0322 0.497581 15.9227 0.497581 15.7834V13.5462H2.73483C2.87412 13.5462 2.98362 13.4367 2.98362 13.2974C2.98362 13.1581 2.87411 13.0486 2.73483 13.0486L2.73473 13.0487Z" fill="#006872"/>
<path d="M5.56129 13.5451H8.38536C8.52465 13.5451 8.63415 13.4356 8.63415 13.2963C8.63415 13.157 8.52464 13.0475 8.38536 13.0475H5.56129C5.422 13.0475 5.3125 13.157 5.3125 13.2963C5.31346 13.4356 5.42201 13.5451 5.56129 13.5451Z" fill="#006872"/>
<path d="M109.868 73.1137C109.799 72.0801 109.729 71.0062 109.734 69.9869C109.734 69.8477 109.624 69.7382 109.485 69.7382C109.351 69.7382 109.236 69.8477 109.236 69.9869C109.232 71.0263 109.301 72.1051 109.371 73.1492C109.565 76.152 109.768 79.2537 108.198 81.7254C107.537 82.7648 106.567 83.684 105.225 84.5389C104.549 84.9711 103.927 85.2843 103.341 85.4831C103.451 84.5735 103.426 83.5639 102.989 82.6495C102.412 81.4468 100.861 80.5314 99.5583 81.1385C99.0213 81.3873 98.6188 81.8743 98.42 82.5006C98.1962 83.2163 98.2759 84.0116 98.639 84.6235C99.2557 85.6773 100.577 86.3142 101.99 86.2489C102.234 86.2393 102.477 86.2095 102.73 86.1595C102.715 86.2441 102.7 86.3238 102.68 86.4035C102.342 88.0039 101.85 89.1373 101.129 89.9779C100.219 91.0317 98.8964 91.5389 97.7581 91.2756C97.127 91.1267 96.5449 90.6791 96.2115 90.0778C95.9282 89.5706 95.859 89.024 96.0223 88.5418C96.0675 88.4121 95.9973 88.268 95.8686 88.2286C95.7389 88.1835 95.6006 88.2536 95.5555 88.3823C95.347 88.999 95.4258 89.6897 95.7793 90.3208C96.1818 91.047 96.883 91.584 97.6486 91.7627C97.882 91.8174 98.126 91.8424 98.3691 91.8424C99.4872 91.8424 100.661 91.2804 101.506 90.3064C102.287 89.4063 102.814 88.1988 103.172 86.5129C103.202 86.3592 103.236 86.1998 103.266 86.0355C103.963 85.8271 104.693 85.4735 105.499 84.9616C106.9 84.0663 107.925 83.097 108.625 81.9981C110.277 79.3823 110.067 76.195 109.868 73.1135L109.868 73.1137ZM102.819 85.6312C102.53 85.7004 102.247 85.7407 101.968 85.7551C100.73 85.8195 99.5967 85.2729 99.0703 84.3776C98.7821 83.8801 98.7178 83.2345 98.8965 82.6524C99.0501 82.1606 99.3585 81.7821 99.7668 81.5938C99.9858 81.4891 100.219 81.4449 100.448 81.4449C101.303 81.4449 102.163 82.0866 102.536 82.8666C102.958 83.7379 102.943 84.7369 102.819 85.6312L102.819 85.6312Z" fill="#006872"/>
<path d="M100.858 40.3113C100.893 40.3267 100.933 40.3363 100.968 40.3363C101.062 40.3363 101.146 40.2864 101.191 40.197L102.942 36.6072C103.001 36.4833 102.951 36.3334 102.827 36.2738C102.703 36.2143 102.554 36.2642 102.494 36.3882L100.744 39.978C100.684 40.1029 100.734 40.2518 100.858 40.3113V40.3113Z" fill="#006872"/>
<path d="M105.27 45.06C105.32 45.1291 105.393 45.1647 105.473 45.1647C105.523 45.1647 105.573 45.1493 105.617 45.1195L108.883 42.8227C108.998 42.743 109.023 42.5893 108.943 42.475C108.863 42.3607 108.709 42.3357 108.595 42.4154L105.329 44.7122C105.22 44.7958 105.195 44.9505 105.27 45.06Z" fill="#006872"/>
<path d="M104.664 41.6736C104.739 41.6736 104.813 41.639 104.863 41.5795L107.309 38.4229C107.393 38.3134 107.373 38.1597 107.264 38.0752C107.154 37.9907 107 38.0108 106.916 38.1203L104.47 41.2769C104.386 41.3864 104.406 41.5401 104.515 41.6246C104.555 41.6535 104.609 41.6736 104.664 41.6736H104.664Z" fill="#006872"/>
<path d="M13.9206 99.4387C13.4835 99.4589 13.0551 99.5031 12.643 99.5031C12.2357 99.5127 11.813 99.4935 11.5191 99.3139C11.2155 99.1448 11.1166 98.7125 11.1012 98.2649C11.0119 98.4685 10.9523 98.6924 10.962 98.9364C10.9716 99.1746 11.0763 99.4436 11.2799 99.6174C11.693 99.9757 12.2098 99.9949 12.6516 100.001C13.1089 99.9853 13.5469 99.9162 13.9686 99.822L14.5997 99.6731C14.8082 99.628 15.0176 99.5588 15.2309 99.604C15.0474 99.4551 14.7938 99.4551 14.5796 99.4349C14.3586 99.4186 14.1396 99.4234 13.9206 99.4387L13.9206 99.4387Z" fill="#006872"/>
<path d="M88.9246 93.1951C88.6316 93.3737 88.2089 93.3939 87.8007 93.3843C87.3876 93.3843 86.9602 93.3344 86.5231 93.32C86.3041 93.3103 86.086 93.3046 85.8622 93.3152C85.6432 93.3401 85.3954 93.3353 85.2109 93.4842C85.4252 93.4448 85.6336 93.514 85.8421 93.5534L86.4732 93.7023C86.9006 93.7964 87.3387 93.8713 87.7902 93.8809C88.233 93.8761 88.7498 93.856 89.1619 93.4977C89.3655 93.3238 89.4702 93.0548 89.4798 92.8166C89.4847 92.5726 89.4299 92.3498 89.3406 92.1451C89.3271 92.5937 89.2282 93.026 88.9246 93.1951L88.9246 93.1951Z" fill="#006872"/>
<path d="M97.5519 7.70365C97.7853 7.95724 97.8852 8.36454 97.9592 8.76799C98.0389 9.17527 98.0735 9.60274 98.1426 10.036C98.1724 10.2502 98.2118 10.4682 98.2666 10.6872C98.3309 10.8957 98.3809 11.1445 98.5595 11.2934C98.475 11.0897 98.5048 10.8707 98.5048 10.6575L98.525 10.0062C98.5346 9.56913 98.5202 9.12629 98.4452 8.67865C98.3559 8.24159 98.231 7.74398 97.8036 7.40585C97.5893 7.24159 97.3117 7.18684 97.0725 7.22718C96.8343 7.26657 96.6249 7.36647 96.4414 7.49518C96.8804 7.43082 97.3232 7.44042 97.5519 7.70363L97.5519 7.70365Z" fill="#006872"/>
<path d="M90.7804 24.3343C90.7007 24.8665 91.0686 25.3631 91.6055 25.4428C92.1377 25.5226 92.6344 25.1547 92.7141 24.6177C92.7938 24.0807 92.4259 23.5889 91.8889 23.5091C91.3567 23.4294 90.8601 23.7973 90.7804 24.3343Z" fill="#006872"/>
<path d="M94.217 21.8088C94.1123 22.535 94.6099 23.2055 95.3409 23.315C96.0671 23.4197 96.7376 22.9221 96.8471 22.1969C96.9518 21.4707 96.4543 20.7954 95.729 20.6907C94.998 20.5812 94.3265 21.0778 94.217 21.8088Z" fill="#006872"/>
<path d="M100.158 21.8433C101.092 21.9826 101.958 21.3361 102.096 20.4015C102.235 19.462 101.589 18.5965 100.654 18.4572C99.7148 18.3179 98.8493 18.9644 98.7101 19.9039C98.5717 20.8347 99.2173 21.7041 100.158 21.8433Z" fill="#006872"/>
</svg>
