<svg width="408" height="476" viewBox="0 0 408 476" fill="none" xmlns="http://www.w3.org/2000/svg">
<path fill-rule="evenodd" clip-rule="evenodd" d="M344.378 141.097H87.1876C84.2579 141.077 81.4064 139.534 79.8712 136.796C77.6095 132.761 79.0509 127.644 83.086 125.378L275.496 17.618C282.367 13.7625 287.687 14.3094 292 16.911C295.57 19.0672 297.504 22.2157 299.043 25.2196L351.68 128.56C352.375 129.778 352.77 131.192 352.77 132.692C352.77 137.329 349.008 141.091 344.371 141.091L344.378 141.097ZM83.3876 114.156C79.3524 116.418 74.2353 114.976 71.9696 110.941C69.7079 106.906 71.1493 101.789 75.1844 99.523L250.974 1.07C255.01 -1.1917 260.127 0.24969 262.392 4.2848C264.654 8.32 263.213 13.4371 259.178 15.7028L83.3876 114.156ZM23.1926 385.846C23.1926 381.209 26.9543 377.447 31.591 377.447C36.2277 377.447 39.9894 381.209 39.9894 385.846V403.381C39.9894 408.017 36.2277 411.779 31.591 411.779C26.9543 411.779 23.1926 408.017 23.1926 403.381V385.846ZM284.983 61.7858C287.197 63.9225 287.272 67.4616 285.135 69.6764C282.998 71.8912 279.459 71.9655 277.244 69.8287C276.225 68.8444 274.908 68.274 273.569 68.1685C272.197 68.0631 270.799 68.399 269.635 69.2076C268.479 70.0084 267.658 71.192 267.295 72.4888L267.197 72.8052C266.928 74.0005 267.026 75.313 267.549 76.5358C269.217 80.4108 274.85 80.1217 280.475 79.8288C289.979 79.3327 299.51 78.8444 304.241 89.8487C305.847 93.5987 306.034 97.673 304.968 101.376C304.432 103.266 303.557 105.067 302.382 106.692L304.679 109.985C306.436 112.52 305.815 116.012 303.284 117.77C300.749 119.528 297.257 118.907 295.499 116.376L293.249 113.149C291.225 113.739 289.128 113.95 287.073 113.786C283.229 113.473 279.471 111.86 276.522 109.016C274.307 106.88 274.233 103.341 276.37 101.126C278.506 98.9111 282.046 98.8368 284.26 100.974C285.28 101.958 286.6 102.528 287.944 102.634C289.307 102.739 290.713 102.395 291.874 101.595C293.03 100.794 293.846 99.618 294.213 98.3212C294.585 97.0165 294.526 95.5751 293.963 94.2665C292.303 90.3954 286.663 90.6884 281.045 90.9774C271.534 91.4735 262.018 91.9774 257.272 80.9504C255.737 77.3918 255.519 73.5168 256.425 69.9504L256.542 69.427C257.077 67.5364 257.952 65.7278 259.128 64.1028L256.831 60.8098C255.073 58.2746 255.694 54.7825 258.225 53.0246C260.761 51.2668 264.253 51.8879 266.011 54.4191L268.261 57.6457C270.284 57.0519 272.382 56.8449 274.444 57.009C278.3 57.3215 282.05 58.9387 284.987 61.7785L284.983 61.7858ZM333.631 297.336C343.068 297.336 350.717 304.988 350.717 314.422C350.717 323.855 343.072 331.508 333.631 331.508C324.197 331.508 316.553 323.855 316.553 314.422C316.553 304.988 324.197 297.336 333.631 297.336ZM23.1906 427.476C23.1906 422.839 26.9523 419.077 31.589 419.077C36.2257 419.077 39.9874 422.839 39.9874 427.476C39.9874 429.796 40.9601 431.933 42.4991 433.48C44.046 435.023 46.1827 435.991 48.503 435.991H99.011C103.648 435.991 107.409 439.753 107.409 444.39C107.409 449.026 103.648 452.788 99.011 452.788H48.503C41.5772 452.788 35.253 449.917 30.663 445.339C26.0536 440.714 23.1825 434.394 23.1825 427.468L23.1906 427.476ZM45.5386 152.866H386.539C392.265 152.866 397.473 155.202 401.23 158.956C404.987 162.713 407.319 167.917 407.319 173.647V271.854H333.663C322.155 271.854 311.659 276.568 304.05 284.163L303.996 284.217C296.39 291.831 291.668 302.334 291.668 313.85V314.995C291.668 326.503 296.383 336.999 303.977 344.608L304.031 344.662C311.645 352.268 322.148 356.99 333.664 356.99H407.32V455.205C407.32 460.885 404.985 466.08 401.223 469.857L401.168 469.912C397.399 473.662 392.211 475.99 386.539 475.99H45.539C33.039 475.99 21.648 470.865 13.402 462.623C5.12861 454.342 0 442.959 0 430.443V198.403C0 185.868 5.1211 174.481 13.367 166.231C21.6131 157.985 33.004 152.864 45.539 152.864L45.5386 152.866ZM407.329 288.656V340.187H333.673C326.735 340.187 320.423 337.355 315.853 332.781C311.31 328.242 308.478 321.933 308.478 314.996V313.851C308.478 306.914 311.31 300.601 315.884 296.031C320.423 291.488 326.732 288.656 333.669 288.656L407.329 288.656Z" fill="#006872"/>
</svg>
