<svg width="662" height="822" viewBox="0 0 662 822" fill="none" xmlns="http://www.w3.org/2000/svg">
<path d="M606.026 519.553H466.34V732.012H606.026V519.553Z" fill="#EBEBEB"/>
<path d="M612.799 511.671H459.578V519.553H612.799V511.671Z" fill="#DBDBDB"/>
<path d="M660.986 511.671H612.799V519.553H660.986V511.671Z" fill="#EBEBEB"/>
<path d="M653.358 519.553H606.025V732.012H653.358V519.553Z" fill="#DBDBDB"/>
<path d="M591.019 617.908H481.363V549.809H591.019V617.908ZM481.791 617.473H590.655V550.209H481.759L481.791 617.473Z" fill="#C7C7C7"/>
<path d="M542.228 569.695H520.889V583.18H542.228V569.695Z" fill="#C7C7C7"/>
<path d="M548.735 582.38H527V570.496H548.735V582.38ZM527.396 581.945H548.339V570.931H527.396V581.945Z" fill="#C7C7C7"/>
<path d="M591.019 703.442H481.363V635.308H591.019V703.442ZM481.791 703.007H590.655V635.743H481.759L481.791 703.007Z" fill="#C7C7C7"/>
<path d="M542.228 655.229H520.889V668.714H542.228V655.229Z" fill="#C7C7C7"/>
<path d="M548.735 667.913H527V656.029H548.735V667.913ZM527.396 667.478H548.339V656.464H527.396V667.478Z" fill="#C7C7C7"/>
<path d="M77.169 0H75.5859V160.297H77.169V0Z" fill="#C7C7C7"/>
<path d="M127.018 213.955L122.934 223.785H29.7891L25.7207 213.955L65.3912 183.785H87.3477L127.018 213.955Z" fill="#EBEBEB"/>
<path d="M90.1002 154.712L87.3457 183.786H65.3892L62.6348 154.712H90.1002Z" fill="#DBDBDB"/>
<path d="M127.002 213.955L122.934 223.803H29.7891L25.7207 213.955H127.002Z" fill="#DBDBDB"/>
<path d="M185.892 0H184.309V128.544H185.892V0Z" fill="#C7C7C7"/>
<path d="M235.755 182.202L231.67 192.05H138.525L134.457 182.202L174.128 152.032H196.084L235.755 182.202Z" fill="#EBEBEB"/>
<path d="M198.84 122.959L196.086 152.033H174.129L171.375 122.959H198.84Z" fill="#DBDBDB"/>
<path d="M235.739 182.202L231.67 192.05H138.525L134.457 182.202H235.739Z" fill="#DBDBDB"/>
<path d="M69.8381 255.766C3.98438 255.766 3.87357 358.663 69.8381 358.663C135.803 358.663 135.787 255.766 69.8381 255.766Z" fill="#EBEBEB"/>
<path d="M109.875 316.905C106.361 334.618 93.0001 349.964 69.8247 349.964C15.0996 349.964 15.1788 264.552 69.8247 264.552H70.9011C19.4687 265.578 19.722 346.466 71.9143 346.466C93.1584 346.501 105.823 332.965 109.875 316.905Z" fill="#DBDBDB"/>
<path d="M70.2169 275.826C70.4352 275.807 70.6547 275.837 70.8616 275.916C71.0685 275.995 71.2584 276.12 71.419 276.284C71.5797 276.447 71.7078 276.645 71.7951 276.866C71.8825 277.087 71.9272 277.325 71.9265 277.566V280.419C76.4895 280.764 80.8748 282.499 84.5907 285.43C85.2397 285.935 85.588 286.37 85.588 287.17C85.5438 287.667 85.3262 288.126 84.9809 288.45C84.6356 288.775 84.1894 288.939 83.7359 288.91C83.2654 288.929 82.8064 288.748 82.4536 288.405C79.3485 285.806 75.6511 284.198 71.7682 283.76V303.804C82.5961 306.1 87.1552 310.189 87.1552 317.201C87.1552 324.804 80.8231 330.18 71.9107 330.459V336.044C71.9107 336.542 71.7306 337.02 71.41 337.373C71.0893 337.725 70.6545 337.923 70.201 337.923C69.7476 337.923 69.3128 337.725 68.9921 337.373C68.6715 337.02 68.4914 336.542 68.4914 336.044V330.389C62.6205 329.968 57.0177 327.534 52.4712 323.43C52.2358 323.269 52.0403 323.046 51.9022 322.782C51.764 322.518 51.6876 322.22 51.6797 321.916C51.7304 321.435 51.941 320.991 52.2711 320.67C52.6013 320.349 53.0277 320.173 53.4685 320.176C53.9372 320.169 54.3925 320.348 54.7507 320.681C58.6353 324.407 63.5092 326.659 68.6497 327.101V306.692C57.9643 304.325 53.5477 300.393 53.5477 293.225C53.5477 286.057 59.8797 280.471 68.5072 280.263V277.548C68.5318 277.073 68.7242 276.627 69.0435 276.305C69.3629 275.984 69.7839 275.812 70.2169 275.826ZM68.6339 303.038V283.481C61.7319 283.638 57.1728 287.779 57.1728 292.947C57.1886 297.818 59.4681 300.828 68.6497 303.038H68.6339ZM71.7999 307.405V327.188C78.9235 327.049 83.5618 322.89 83.5618 317.444C83.5459 312.503 81.0447 309.493 71.7841 307.405H71.7999Z" fill="#DBDBDB"/>
<path d="M399.201 453.123C358.248 487.381 404.345 554.037 445.362 519.778C486.378 485.52 440.201 418.812 399.201 453.123Z" fill="#DBDBDB"/>
<path d="M403.049 449.904C364.012 482.562 410.125 549.27 449.21 516.56C488.295 483.85 442.118 417.211 403.049 449.904Z" fill="#EBEBEB"/>
<path d="M454.182 469.634C460.039 482.84 459.01 499.404 445.285 510.905C412.849 538.047 374.572 482.684 406.96 455.576L407.609 455.071C377.532 481.17 414.037 533.506 444.953 507.616C457.57 497.073 459.01 481.953 454.182 469.634Z" fill="#DBDBDB"/>
<path d="M418.231 459.335C418.54 459.221 418.877 459.243 419.172 459.395C419.467 459.547 419.697 459.818 419.814 460.152L420.558 462.345C423.883 461.288 427.42 461.361 430.706 462.553C430.953 462.597 431.186 462.71 431.383 462.88C431.579 463.051 431.733 463.274 431.83 463.528C431.887 463.712 431.911 463.906 431.899 464.1C431.888 464.294 431.842 464.484 431.765 464.659C431.687 464.833 431.578 464.989 431.445 465.117C431.313 465.246 431.158 465.344 430.991 465.407C430.828 465.485 430.653 465.525 430.476 465.525C430.299 465.525 430.124 465.485 429.962 465.407C427.182 464.312 424.17 464.142 421.302 464.92L426.479 480.213C434.631 478.874 438.874 480.683 440.726 486.042C442.689 491.836 439.65 497.752 433.508 500.501L434.948 504.763C435.006 504.935 435.033 505.117 435.027 505.3C435.021 505.483 434.983 505.662 434.914 505.829C434.845 505.995 434.746 506.145 434.625 506.27C434.503 506.395 434.36 506.492 434.204 506.556C434.048 506.62 433.882 506.649 433.716 506.643C433.55 506.636 433.386 506.594 433.235 506.518C433.083 506.442 432.947 506.334 432.834 506.2C432.72 506.066 432.632 505.909 432.574 505.738L431.101 501.423C426.822 502.783 422.251 502.526 418.121 500.692C417.908 500.633 417.712 500.519 417.55 500.358C417.387 500.197 417.262 499.996 417.187 499.77C417.08 499.409 417.101 499.018 417.245 498.673C417.388 498.328 417.644 498.055 417.962 497.908C418.125 497.831 418.3 497.791 418.477 497.791C418.654 497.791 418.829 497.831 418.991 497.908C422.569 499.664 426.586 500.02 430.373 498.917L425.102 483.258C417.028 484.511 412.928 482.771 411.092 477.29C409.256 471.81 412.168 465.772 418.184 463.145L417.472 461.057C417.378 460.718 417.404 460.352 417.545 460.032C417.685 459.713 417.931 459.464 418.231 459.335ZM424.168 480.544L419.118 465.633C414.369 467.704 412.216 472.175 413.546 476.072C414.875 479.97 417.171 481.414 424.168 480.492V480.544ZM427.476 482.98L432.589 498.065C437.513 495.925 439.681 491.436 438.272 487.277C436.99 483.467 434.473 481.953 427.476 482.928V482.98Z" fill="#DBDBDB"/>
<path d="M45.7603 413.94C93.6942 423.388 81.0301 501.44 33.017 491.958C-14.9961 482.475 -2.25273 404.475 45.7603 413.94Z" fill="#DBDBDB"/>
<path d="M41.2652 413.054C86.9354 422.066 74.2712 500.049 28.601 491.071C-17.0692 482.093 -4.49998 404.024 41.2652 413.054Z" fill="#EBEBEB"/>
<path d="M5.91797 453.905C6.17125 467.824 13.5323 481.274 29.6633 484.441C67.6558 491.939 78.1354 427.163 40.2379 419.681L39.478 419.56C75.0327 427.372 64.8064 488.668 28.6502 481.535C13.8331 478.612 6.70948 466.624 5.91797 453.905Z" fill="#DBDBDB"/>
<path d="M37.5774 425.372C37.8889 425.443 38.1632 425.644 38.3431 425.933C38.523 426.221 38.5946 426.575 38.543 426.92L38.1631 429.095C41.3288 430.016 44.1694 431.962 46.3156 434.68C46.4958 434.849 46.634 435.065 46.7171 435.308C46.8002 435.552 46.8255 435.815 46.7905 436.072C46.7573 436.261 46.689 436.441 46.5901 436.6C46.4911 436.759 46.3634 436.894 46.2151 436.997C46.0667 437.1 45.9007 437.168 45.7274 437.197C45.5541 437.227 45.3772 437.217 45.2075 437.168C44.8799 437.101 44.5865 436.903 44.3844 436.611C42.615 434.232 40.2477 432.477 37.5774 431.566L35.0129 446.755C42.2156 450.026 44.8593 453.715 43.9569 459.073C42.9755 464.833 37.894 467.999 31.6885 466.955L30.9762 471.183C30.9174 471.529 30.7359 471.836 30.4717 472.035C30.2075 472.234 29.8821 472.309 29.5673 472.245C29.2524 472.18 28.9737 471.981 28.7927 471.69C28.6116 471.4 28.5428 471.042 28.6016 470.696L29.3298 466.416C25.2543 465.233 21.6585 462.58 19.1193 458.882C18.971 458.722 18.8615 458.523 18.8007 458.304C18.7399 458.086 18.7297 457.854 18.7711 457.629C18.8434 457.278 19.0336 456.971 19.3036 456.767C19.5737 456.564 19.9037 456.48 20.2274 456.533C20.558 456.592 20.854 456.792 21.0506 457.09C23.1685 460.446 26.2696 462.903 29.8364 464.05L32.4642 448.582C25.3564 445.276 22.8078 441.622 23.7259 436.246C24.6441 430.87 29.7097 427.546 35.7569 428.556L36.1051 426.485C36.1316 426.304 36.1912 426.13 36.2805 425.975C36.3697 425.82 36.4867 425.686 36.6243 425.582C36.762 425.478 36.9174 425.405 37.0812 425.369C37.245 425.333 37.4138 425.334 37.5774 425.372ZM33.0024 445.763L35.5194 430.957C30.7704 430.087 27.0186 432.592 26.3537 436.49C25.6889 440.387 26.9078 442.788 33.0024 445.763ZM34.5854 449.521L32.0684 464.554C37.0233 465.442 40.7592 462.953 41.4558 458.83C42.1048 455.037 40.7592 452.375 34.5854 449.521Z" fill="#DBDBDB"/>
<path d="M11.8848 732.081L93.1413 731.646L174.414 731.507L336.943 731.211L499.471 731.507L580.744 731.646L662 732.081L580.744 732.498L499.471 732.655L336.943 732.951L174.414 732.655L93.1413 732.498L11.8848 732.081Z" fill="#263238"/>
<path d="M336.943 822C488.211 822 610.838 808.78 610.838 792.473C610.838 776.167 488.211 762.947 336.943 762.947C185.676 762.947 63.0488 776.167 63.0488 792.473C63.0488 808.78 185.676 822 336.943 822Z" fill="#EBEBEB"/>
<path d="M590.017 57.6426H181.93V393.774H590.017V57.6426Z" fill="white"/>
<path d="M590.018 393.774L181.931 394.244H181.504V393.774L181.361 57.6428V56.999H181.947L590.034 57.2426H590.398V57.6428L590.018 393.774ZM590.018 393.774L589.654 57.6428L590.018 58.043L181.931 58.3039L182.517 57.6428L182.359 393.774L181.931 393.322L590.018 393.774Z" fill="#EBEBEB"/>
<path d="M223.564 209.084L385.983 208.788C432.998 208.892 501.749 208.788 548.765 209.084C501.749 209.362 432.998 209.293 385.983 209.397L223.564 209.084Z" fill="#C7C7C7"/>
<path d="M223.564 218.584L364.628 218.271C411.643 218.392 501.749 218.27 548.765 218.584C501.749 218.845 411.643 218.792 364.628 218.897L223.564 218.584Z" fill="#C7C7C7"/>
<path d="M223.564 228.084L364.628 227.771C411.643 227.875 501.749 227.771 548.765 228.084C501.749 228.345 411.643 228.275 364.628 228.397L223.564 228.084Z" fill="#C7C7C7"/>
<path d="M223.564 237.584L364.628 237.271C411.643 237.375 501.749 237.27 548.765 237.584C501.749 237.845 411.643 237.775 364.628 237.879L223.564 237.584Z" fill="#C7C7C7"/>
<path d="M223.564 247.066L364.628 246.753C411.643 246.875 501.749 246.753 548.765 247.066C501.749 247.345 411.643 247.275 364.628 247.379L223.564 247.066Z" fill="#C7C7C7"/>
<path d="M223.564 256.513L364.628 256.2C411.643 256.305 501.749 256.2 548.765 256.513C501.749 256.774 411.643 256.705 364.628 256.827L223.564 256.513Z" fill="#C7C7C7"/>
<path d="M223.564 266.066L364.628 265.753C411.643 265.857 501.749 265.753 548.765 266.066C501.749 266.327 411.643 266.258 364.628 266.362L223.564 266.066Z" fill="#C7C7C7"/>
<path d="M223.564 275.549L364.628 275.253C411.643 275.357 501.749 275.253 548.765 275.549C501.749 275.827 411.643 275.757 364.628 275.862L223.564 275.549Z" fill="#C7C7C7"/>
<path d="M223.564 285.049L364.628 284.735C411.643 284.857 501.749 284.735 548.765 285.049C501.749 285.31 411.643 285.257 364.628 285.362L223.564 285.049Z" fill="#C7C7C7"/>
<path d="M223.564 294.549L364.628 294.235C411.643 294.34 501.749 294.235 548.765 294.549C501.749 294.81 411.643 294.74 364.628 294.844L223.564 294.549Z" fill="#C7C7C7"/>
<path d="M223.564 304.031L364.628 303.735C411.643 303.84 501.749 303.735 548.765 304.031C501.749 304.31 411.643 304.24 364.628 304.344L223.564 304.031Z" fill="#C7C7C7"/>
<path d="M223.564 313.529L364.628 313.216C411.643 313.338 501.749 313.216 548.765 313.529C501.749 313.79 411.643 313.738 364.628 313.842L223.564 313.529Z" fill="#C7C7C7"/>
<path d="M223.564 323.031L364.628 322.718C411.643 322.822 501.749 322.718 548.765 323.031C501.749 323.292 411.643 323.222 364.628 323.344L223.564 323.031Z" fill="#C7C7C7"/>
<path d="M223.564 332.531L364.628 332.218C411.643 332.322 501.749 332.218 548.765 332.531C501.749 332.792 411.643 332.722 364.628 332.827L223.564 332.531Z" fill="#C7C7C7"/>
<path d="M223.564 342.011L364.628 341.698C411.643 341.82 501.749 341.698 548.765 342.011C501.749 342.29 411.643 342.22 364.628 342.325L223.564 342.011Z" fill="#C7C7C7"/>
<path d="M258.804 315.045H244.24V353.131H258.804V315.045Z" fill="#EBEBEB"/>
<path d="M285.16 320.315H270.596V353.113H285.16V320.315Z" fill="#EBEBEB"/>
<path d="M311.517 307.945H296.953V353.131H311.517V307.945Z" fill="#EBEBEB"/>
<path d="M337.859 304.344H323.295V353.113H337.859V304.344Z" fill="#EBEBEB"/>
<path d="M364.216 285.048H349.652V353.13H364.216V285.048Z" fill="#EBEBEB"/>
<path d="M390.576 290.616H376.012V353.131H390.576V290.616Z" fill="#EBEBEB"/>
<path d="M416.929 278.351H402.365V353.114H416.929V278.351Z" fill="#EBEBEB"/>
<path d="M443.288 265.753H428.725V353.131H443.288V265.753Z" fill="#EBEBEB"/>
<path d="M469.646 266.274H455.082V353.13H469.646V266.274Z" fill="#EBEBEB"/>
<path d="M496.003 269.632H481.439V353.112H496.003V269.632Z" fill="#EBEBEB"/>
<path d="M522.343 252.687H507.779V353.131H522.343V252.687Z" fill="#EBEBEB"/>
<path d="M231.225 202.42L231.811 240.089L232.207 277.758C232.476 302.864 232.555 327.971 232.618 353.078L231.225 351.93H299.833L368.441 352.069L471.18 352.434L548.748 353.113L471.18 353.809L368.441 354.174L299.833 354.313H231.225H229.832V353.165C229.832 328.058 229.959 302.951 230.244 277.845L230.639 240.176L231.225 202.42Z" fill="#C7C7C7"/>
<path d="M590.017 45.2373H181.93V57.6428H590.017V45.2373Z" fill="#455A64"/>
<path d="M190.862 51.4488C190.862 52.0579 190.697 52.6533 190.39 53.1597C190.082 53.6662 189.644 54.0609 189.132 54.294C188.62 54.5271 188.057 54.5881 187.513 54.4692C186.97 54.3504 186.47 54.0571 186.079 53.6264C185.687 53.1957 185.42 52.647 185.312 52.0496C185.204 51.4522 185.259 50.833 185.471 50.2702C185.683 49.7075 186.042 49.2266 186.503 48.8882C186.964 48.5498 187.506 48.3691 188.06 48.3691C188.803 48.3691 189.516 48.6936 190.041 49.2711C190.567 49.8487 190.862 50.632 190.862 51.4488Z" fill="#C7C7C7"/>
<path d="M202.338 51.4488C202.338 52.0579 202.174 52.6533 201.866 53.1597C201.558 53.6662 201.121 54.0609 200.609 54.294C200.097 54.5271 199.533 54.5881 198.99 54.4692C198.446 54.3504 197.947 54.0571 197.555 53.6264C197.163 53.1957 196.896 52.647 196.788 52.0496C196.68 51.4522 196.736 50.833 196.948 50.2702C197.16 49.7075 197.519 49.2266 197.98 48.8882C198.44 48.5498 198.982 48.3691 199.536 48.3691C200.279 48.3691 200.992 48.6936 201.518 49.2711C202.043 49.8487 202.338 50.632 202.338 51.4488Z" fill="white"/>
<path d="M213.766 51.4488C213.766 52.0579 213.602 52.6533 213.294 53.1597C212.986 53.6662 212.548 54.0609 212.036 54.294C211.524 54.5271 210.961 54.5881 210.417 54.4692C209.874 54.3504 209.375 54.0571 208.983 53.6264C208.591 53.1957 208.324 52.647 208.216 52.0496C208.108 51.4522 208.163 50.833 208.375 50.2702C208.587 49.7075 208.947 49.2266 209.407 48.8882C209.868 48.5498 210.41 48.3691 210.964 48.3691C211.707 48.3691 212.42 48.6936 212.945 49.2711C213.471 49.8487 213.766 50.632 213.766 51.4488Z" fill="#FFC727"/>
<path d="M381.281 94.6328H223.564V182.672H381.281V94.6328Z" fill="#FFC727"/>
<path d="M307.193 153.946C307.191 154.213 307.141 154.476 307.046 154.721C306.951 154.967 306.812 155.189 306.639 155.375C306.465 155.561 306.26 155.707 306.034 155.805C305.809 155.903 305.568 155.952 305.325 155.947H304.993V158.731C304.993 158.996 304.945 159.258 304.853 159.503C304.761 159.748 304.626 159.971 304.455 160.158C304.285 160.346 304.082 160.494 303.859 160.596C303.637 160.697 303.398 160.749 303.157 160.749C302.916 160.749 302.677 160.697 302.454 160.596C302.231 160.494 302.029 160.346 301.858 160.158C301.688 159.971 301.552 159.748 301.46 159.503C301.368 159.258 301.32 158.996 301.32 158.731V155.947H290.825C290.408 155.973 289.998 155.817 289.685 155.512C289.491 155.354 289.328 155.153 289.207 154.923C289.086 154.693 289.009 154.438 288.981 154.174C288.953 153.91 288.974 153.643 289.043 153.388C289.113 153.133 289.229 152.897 289.384 152.694L301.669 135.834C301.669 135.834 301.669 135.834 301.748 135.834C301.79 135.791 301.823 135.737 301.843 135.677C301.903 135.66 301.958 135.623 302.001 135.573L302.144 135.468C302.206 135.448 302.272 135.448 302.334 135.468C302.334 135.468 302.413 135.347 302.476 135.347C302.539 135.347 302.571 135.347 302.666 135.347C302.712 135.365 302.762 135.365 302.808 135.347H303.378C303.43 135.363 303.485 135.363 303.537 135.347C303.537 135.347 303.679 135.347 303.742 135.347H303.869L304.043 135.503L304.202 135.608H304.296L304.423 135.764C304.455 135.815 304.493 135.862 304.534 135.903L304.661 136.095C304.649 136.14 304.649 136.188 304.661 136.234C304.665 136.309 304.665 136.385 304.661 136.46C304.661 136.46 304.661 136.565 304.661 136.599C304.679 136.673 304.679 136.752 304.661 136.826C304.661 136.826 304.661 136.93 304.661 137V151.928H304.993C305.262 151.871 305.54 151.881 305.805 151.956C306.071 152.032 306.318 152.171 306.528 152.364C306.739 152.557 306.907 152.8 307.023 153.073C307.138 153.347 307.196 153.645 307.193 153.946ZM301.32 142.863L294.688 151.928H301.32V142.863Z" fill="#37474F"/>
<path d="M323.833 145.16C324.613 146 325.232 147.005 325.65 148.114C326.069 149.223 326.28 150.414 326.271 151.615C326.271 152.817 326.056 154.007 325.637 155.117C325.219 156.228 324.606 157.237 323.833 158.087C323.071 158.953 322.158 159.641 321.149 160.11C320.14 160.58 319.055 160.821 317.96 160.819H317.881C316.802 160.823 315.734 160.589 314.739 160.132C313.743 159.675 312.842 159.003 312.087 158.157C311.906 157.967 311.763 157.738 311.664 157.486C311.566 157.233 311.516 156.961 311.516 156.686C311.516 156.412 311.566 156.14 311.664 155.887C311.763 155.634 311.906 155.406 312.087 155.216C312.444 154.833 312.925 154.618 313.424 154.618C313.924 154.618 314.404 154.833 314.762 155.216C315.171 155.685 315.663 156.056 316.207 156.307C316.752 156.559 317.337 156.685 317.928 156.678C318.518 156.68 319.102 156.552 319.646 156.3C320.19 156.049 320.682 155.681 321.094 155.216C321.939 154.295 322.417 153.044 322.424 151.736C322.426 151.087 322.311 150.443 322.086 149.843C321.861 149.242 321.53 148.697 321.112 148.237C320.694 147.778 320.197 147.414 319.651 147.167C319.105 146.919 318.519 146.793 317.928 146.795C317.34 146.788 316.757 146.91 316.213 147.155C315.669 147.4 315.176 147.763 314.762 148.222C314.404 148.606 313.924 148.82 313.424 148.82C312.925 148.82 312.444 148.606 312.087 148.222L311.723 147.735V147.63C311.741 147.574 311.741 147.513 311.723 147.456C311.727 147.369 311.727 147.282 311.723 147.195C311.691 146.988 311.691 146.776 311.723 146.569L312.736 137.069C312.776 136.777 312.87 136.497 313.012 136.246C313.153 135.995 313.339 135.778 313.559 135.608H313.701H313.796C314.064 135.452 314.364 135.374 314.667 135.381H324.498C324.997 135.381 325.476 135.6 325.83 135.988C326.183 136.376 326.381 136.903 326.381 137.452C326.381 138.001 326.183 138.528 325.83 138.916C325.476 139.304 324.997 139.522 324.498 139.522H316.298L315.902 143.141C316.63 142.928 317.38 142.817 318.134 142.811C320.238 142.758 322.279 143.599 323.833 145.16Z" fill="#37474F"/>
<path d="M331.322 141.435C331.278 140.601 331.387 139.764 331.644 138.977C331.901 138.19 332.3 137.468 332.818 136.855C333.336 136.242 333.961 135.751 334.656 135.411C335.351 135.07 336.102 134.889 336.863 134.876C337.615 134.888 338.357 135.069 339.043 135.405C339.73 135.742 340.347 136.229 340.858 136.836C341.369 137.442 341.762 138.157 342.014 138.935C342.266 139.714 342.372 140.541 342.324 141.366C342.369 142.201 342.26 143.037 342.003 143.824C341.746 144.611 341.347 145.333 340.829 145.946C340.311 146.559 339.686 147.05 338.991 147.391C338.295 147.731 337.545 147.913 336.784 147.925C336.033 147.91 335.292 147.729 334.606 147.391C333.921 147.053 333.304 146.567 332.794 145.96C332.284 145.354 331.89 144.641 331.638 143.863C331.385 143.086 331.278 142.26 331.322 141.435ZM339.364 141.435C339.364 139.382 338.288 137.695 336.784 137.695C335.28 137.695 334.283 139.435 334.283 141.366C334.283 143.454 335.359 145.107 336.863 145.107C338.367 145.107 339.364 143.419 339.364 141.435ZM335.153 158.556L350.461 135.572C350.581 135.361 350.75 135.189 350.95 135.073C351.15 134.956 351.375 134.901 351.601 134.911C351.775 134.908 351.947 134.944 352.109 135.016C352.27 135.087 352.417 135.193 352.54 135.328C352.664 135.462 352.762 135.622 352.829 135.798C352.896 135.975 352.931 136.164 352.931 136.355C352.916 136.694 352.811 137.02 352.63 137.294L337.322 160.279C337.193 160.488 337.018 160.657 336.813 160.773C336.608 160.888 336.381 160.946 336.151 160.94C335.98 160.942 335.81 160.907 335.651 160.836C335.493 160.765 335.349 160.66 335.228 160.527C335.107 160.394 335.012 160.236 334.947 160.062C334.883 159.888 334.85 159.701 334.853 159.513C334.864 159.168 334.969 158.835 335.153 158.556ZM345.427 154.554C345.356 153.713 345.445 152.865 345.689 152.064C345.933 151.263 346.327 150.526 346.845 149.902C347.362 149.277 347.993 148.779 348.696 148.437C349.399 148.096 350.16 147.92 350.928 147.92C351.697 147.92 352.457 148.096 353.16 148.437C353.863 148.779 354.494 149.277 355.012 149.902C355.529 150.526 355.923 151.263 356.167 152.064C356.411 152.865 356.5 153.713 356.429 154.554C356.472 155.389 356.361 156.224 356.103 157.01C355.845 157.796 355.446 158.517 354.928 159.129C354.411 159.742 353.787 160.233 353.093 160.574C352.398 160.915 351.649 161.099 350.889 161.114C350.132 161.099 349.385 160.915 348.695 160.574C348.005 160.232 347.386 159.739 346.875 159.125C346.363 158.511 345.972 157.789 345.723 157.003C345.474 156.218 345.373 155.384 345.427 154.554ZM353.453 154.554C353.453 152.501 352.392 150.813 350.889 150.813C349.385 150.813 348.387 152.553 348.387 154.485C348.387 156.573 349.464 158.225 350.968 158.225C352.472 158.225 353.453 156.538 353.453 154.554Z" fill="#37474F"/>
<path d="M277.813 148.639C277.814 153.931 276.064 159.043 272.888 163.021C269.713 167 265.329 169.572 260.555 170.26C255.781 170.948 250.942 169.703 246.942 166.758C242.941 163.814 240.051 159.371 238.811 154.257C237.572 149.143 238.067 143.708 240.204 138.966C242.341 134.224 245.975 130.498 250.427 128.484C254.88 126.47 259.847 126.304 264.402 128.018C268.958 129.732 272.79 133.209 275.185 137.8C276.906 141.1 277.812 144.836 277.813 148.639Z" fill="#455A64"/>
<path d="M277.816 148.639C277.816 153.053 276.599 157.364 274.323 161.001C272.048 164.639 268.823 167.432 265.073 169.013L257.965 148.639V126.82C260.572 126.818 263.155 127.381 265.564 128.476C267.973 129.572 270.163 131.179 272.006 133.206C273.85 135.232 275.312 137.638 276.309 140.286C277.306 142.935 277.818 145.773 277.816 148.639Z" fill="white"/>
<path d="M271.69 148.64C271.69 151.623 270.885 154.54 269.377 157.02C267.869 159.501 265.725 161.435 263.217 162.576C260.709 163.718 257.95 164.017 255.287 163.435C252.625 162.853 250.18 161.416 248.26 159.306C246.341 157.197 245.034 154.509 244.504 151.583C243.974 148.656 244.246 145.623 245.285 142.867C246.324 140.11 248.083 137.755 250.34 136.097C252.597 134.439 255.251 133.555 257.965 133.555C261.605 133.555 265.096 135.144 267.67 137.973C270.244 140.802 271.69 144.639 271.69 148.64Z" fill="#FFC727"/>
<path d="M548.386 94.6328H390.67V182.898H548.386V94.6328Z" fill="#EBEBEB"/>
<path d="M409.315 104.029C409.411 104.026 409.507 104.045 409.596 104.085C409.686 104.124 409.767 104.183 409.835 104.258C409.903 104.332 409.956 104.422 409.992 104.52C410.028 104.618 410.046 104.723 410.043 104.829V105.246C410.985 105.36 411.89 105.711 412.687 106.273C412.84 106.357 412.968 106.486 413.057 106.646C413.147 106.806 413.194 106.99 413.194 107.178C413.194 107.314 413.169 107.449 413.121 107.575C413.073 107.7 413.003 107.814 412.914 107.91C412.826 108.005 412.721 108.081 412.606 108.131C412.491 108.182 412.368 108.207 412.244 108.204C412.063 108.206 411.885 108.145 411.737 108.03C411.189 107.669 410.598 107.394 409.98 107.213V110.814C412.56 111.527 413.668 112.658 413.668 114.677C413.668 116.695 412.212 118.157 410.043 118.331V119.444C410.045 119.551 410.028 119.657 409.993 119.756C409.957 119.855 409.904 119.945 409.836 120.021C409.768 120.097 409.687 120.158 409.598 120.199C409.508 120.241 409.412 120.262 409.315 120.262C409.116 120.262 408.925 120.176 408.783 120.023C408.641 119.87 408.559 119.663 408.555 119.444V118.278C407.297 118.14 406.095 117.635 405.073 116.817C404.927 116.731 404.806 116.603 404.722 116.446C404.638 116.29 404.595 116.111 404.598 115.929C404.6 115.738 404.65 115.552 404.742 115.39C404.833 115.228 404.964 115.097 405.119 115.01C405.274 114.924 405.448 114.887 405.621 114.901C405.794 114.916 405.961 114.983 406.102 115.094C406.844 115.729 407.712 116.164 408.634 116.364V112.658C406.133 111.945 404.978 110.919 404.978 108.813C405.023 107.818 405.424 106.882 406.094 106.211C406.765 105.539 407.649 105.186 408.555 105.229V104.829C408.557 104.721 408.579 104.616 408.618 104.517C408.657 104.419 408.714 104.33 408.784 104.256C408.855 104.181 408.938 104.123 409.029 104.084C409.12 104.045 409.217 104.026 409.315 104.029ZM408.619 110.362V107.056C407.526 107.16 407.036 107.804 407.036 108.622C407.036 109.44 407.305 109.944 408.619 110.362ZM409.964 112.972V116.451C411.056 116.312 411.642 115.721 411.642 114.816C411.642 113.911 411.278 113.476 409.964 113.024V112.972Z" fill="#455A64"/>
<path d="M428.313 117.323C428.315 117.459 428.292 117.594 428.246 117.721C428.2 117.847 428.132 117.963 428.045 118.06C427.958 118.157 427.854 118.234 427.74 118.287C427.626 118.34 427.503 118.367 427.379 118.367H421.3C421.168 118.366 421.038 118.335 420.918 118.275C420.798 118.215 420.691 118.127 420.604 118.019C420.43 117.824 420.332 117.561 420.332 117.288C420.332 117.015 420.43 116.752 420.604 116.557L425.653 111.546C425.875 111.326 426.052 111.057 426.175 110.758C426.297 110.459 426.362 110.135 426.366 109.806C426.367 109.211 426.17 108.635 425.812 108.188C425.613 107.941 425.37 107.742 425.097 107.604C424.825 107.466 424.529 107.393 424.229 107.388C423.685 107.391 423.161 107.614 422.756 108.014L422.218 108.536C422.131 108.633 422.028 108.71 421.914 108.762C421.8 108.815 421.677 108.842 421.553 108.842C421.43 108.842 421.307 108.815 421.193 108.762C421.079 108.71 420.975 108.633 420.888 108.536C420.725 108.33 420.641 108.061 420.656 107.788C420.671 107.514 420.783 107.258 420.968 107.075L421.49 106.553C422.233 105.792 423.214 105.375 424.229 105.387C424.801 105.388 425.367 105.52 425.89 105.774C426.414 106.029 426.883 106.401 427.268 106.866C427.953 107.687 428.332 108.762 428.329 109.876C428.328 110.505 428.208 111.127 427.976 111.702C427.745 112.277 427.406 112.793 426.983 113.217L423.817 116.418H427.458C427.674 116.437 427.877 116.537 428.033 116.702C428.189 116.867 428.288 117.086 428.313 117.323Z" fill="#455A64"/>
<path d="M432.177 115.669C432.343 115.669 432.508 115.705 432.661 115.775C432.815 115.845 432.954 115.947 433.072 116.077C433.19 116.206 433.283 116.359 433.347 116.528C433.41 116.697 433.443 116.878 433.443 117.061C433.443 117.244 433.41 117.425 433.347 117.594C433.283 117.762 433.19 117.916 433.072 118.045C432.954 118.174 432.815 118.277 432.661 118.347C432.508 118.417 432.343 118.453 432.177 118.453C431.841 118.453 431.519 118.306 431.281 118.045C431.044 117.784 430.91 117.43 430.91 117.061C430.91 116.692 431.044 116.338 431.281 116.077C431.519 115.816 431.841 115.669 432.177 115.669Z" fill="#455A64"/>
<path d="M437.241 106.238V117.321C437.241 117.46 437.216 117.597 437.168 117.725C437.119 117.853 437.048 117.969 436.958 118.066C436.868 118.163 436.761 118.239 436.644 118.291C436.527 118.342 436.402 118.368 436.276 118.365C436.152 118.365 436.029 118.338 435.915 118.286C435.8 118.233 435.697 118.156 435.61 118.059C435.523 117.961 435.454 117.846 435.408 117.72C435.362 117.593 435.34 117.458 435.342 117.321V108.083L434.661 108.5C434.522 108.607 434.356 108.662 434.186 108.657C434.022 108.654 433.861 108.604 433.72 108.513C433.578 108.421 433.461 108.291 433.379 108.135C433.313 108.02 433.269 107.892 433.25 107.758C433.23 107.624 433.235 107.488 433.265 107.356C433.295 107.225 433.348 107.101 433.422 106.993C433.496 106.884 433.589 106.793 433.695 106.725L435.785 105.351C435.785 105.351 435.785 105.351 435.88 105.351H436.418C436.454 105.339 436.493 105.339 436.529 105.351C436.529 105.351 436.529 105.351 436.64 105.351C436.64 105.351 436.64 105.351 436.64 105.455C436.64 105.56 436.64 105.455 436.64 105.455C436.624 105.5 436.624 105.55 436.64 105.594L437.241 106.238Z" fill="#455A64"/>
<path d="M439.395 111.77C439.372 110.182 439.774 108.621 440.551 107.281C440.877 106.671 441.338 106.16 441.892 105.798C442.445 105.436 443.073 105.234 443.717 105.211C444.36 105.24 444.985 105.445 445.538 105.807C446.091 106.168 446.553 106.675 446.883 107.281C447.623 108.634 448.014 110.183 448.014 111.762C448.014 113.34 447.623 114.889 446.883 116.242C446.551 116.848 446.088 117.355 445.536 117.718C444.984 118.082 444.36 118.292 443.717 118.33C443.073 118.298 442.446 118.091 441.894 117.727C441.341 117.362 440.879 116.852 440.551 116.242C439.776 114.908 439.374 113.353 439.395 111.77ZM446.123 111.77C446.15 110.593 445.864 109.432 445.3 108.43C445.145 108.108 444.919 107.834 444.642 107.634C444.365 107.433 444.047 107.312 443.717 107.281C443.389 107.319 443.074 107.443 442.798 107.643C442.523 107.843 442.295 108.113 442.134 108.43C441.578 109.435 441.293 110.594 441.311 111.77C441.294 112.936 441.58 114.082 442.134 115.076C442.293 115.396 442.52 115.67 442.795 115.873C443.071 116.076 443.387 116.202 443.717 116.242C444.049 116.211 444.369 116.088 444.646 115.884C444.923 115.68 445.148 115.402 445.3 115.076C445.867 114.087 446.158 112.939 446.139 111.77H446.123Z" fill="#455A64"/>
<path d="M459.055 117.323C459.057 117.459 459.034 117.594 458.988 117.721C458.942 117.847 458.874 117.963 458.787 118.06C458.7 118.157 458.596 118.234 458.482 118.287C458.368 118.34 458.245 118.367 458.121 118.367H452.058C451.926 118.366 451.796 118.335 451.676 118.275C451.556 118.215 451.449 118.127 451.361 118.019C451.187 117.824 451.09 117.561 451.09 117.288C451.09 117.015 451.187 116.752 451.361 116.557L456.411 111.546C456.633 111.326 456.81 111.057 456.933 110.758C457.055 110.459 457.12 110.135 457.124 109.806C457.125 109.211 456.928 108.635 456.57 108.188C456.371 107.941 456.128 107.742 455.855 107.604C455.582 107.466 455.287 107.393 454.986 107.388C454.442 107.391 453.918 107.614 453.514 108.014L452.976 108.536C452.889 108.633 452.786 108.71 452.672 108.762C452.557 108.815 452.435 108.842 452.311 108.842C452.187 108.842 452.065 108.815 451.951 108.762C451.837 108.71 451.733 108.633 451.646 108.536C451.472 108.341 451.375 108.079 451.375 107.805C451.375 107.532 451.472 107.27 451.646 107.075L452.169 106.553C452.912 105.792 453.892 105.375 454.907 105.387C455.48 105.388 456.046 105.52 456.569 105.774C457.092 106.029 457.562 106.401 457.947 106.866C458.632 107.687 459.01 108.762 459.007 109.876C459.007 110.505 458.887 111.127 458.655 111.702C458.423 112.277 458.085 112.793 457.662 113.217L454.496 116.418H458.137C458.364 116.42 458.582 116.514 458.751 116.68C458.92 116.847 459.028 117.075 459.055 117.323Z" fill="#455A64"/>
<path d="M461.556 120.018C461.908 119.931 462.219 119.707 462.432 119.387C462.644 119.067 462.744 118.673 462.712 118.278C462.443 118.21 462.202 118.048 462.025 117.815C461.847 117.583 461.744 117.293 461.73 116.991V116.851C461.726 116.683 461.753 116.514 461.811 116.358C461.868 116.201 461.955 116.06 462.065 115.942C462.176 115.824 462.307 115.733 462.451 115.673C462.595 115.614 462.748 115.589 462.902 115.599C463.662 115.599 464.121 116.225 464.121 117.234V117.443C464.156 117.937 464.1 118.434 463.956 118.903C463.811 119.373 463.582 119.805 463.282 120.175C462.856 120.64 462.297 120.929 461.699 120.992C461.583 120.994 461.471 120.949 461.383 120.865C461.296 120.782 461.239 120.667 461.223 120.541C461.207 120.414 461.234 120.286 461.299 120.181C461.363 120.075 461.46 119.998 461.572 119.966L461.556 120.018Z" fill="#455A64"/>
<path d="M473.301 113.842C473.3 114.614 473.116 115.373 472.769 116.044C472.422 116.715 471.923 117.276 471.32 117.672C470.717 118.068 470.031 118.286 469.329 118.305C468.627 118.323 467.933 118.141 467.313 117.777C466.694 117.413 466.171 116.879 465.795 116.226C465.419 115.574 465.204 114.826 465.169 114.055C465.134 113.284 465.282 112.516 465.597 111.827C465.913 111.137 466.385 110.548 466.969 110.119C466.595 109.586 466.394 108.93 466.399 108.257C466.399 107.436 466.696 106.648 467.224 106.067C467.753 105.486 468.469 105.16 469.217 105.16C469.964 105.16 470.681 105.486 471.209 106.067C471.738 106.648 472.034 107.436 472.034 108.257C472.039 108.93 471.839 109.586 471.464 110.119C472.026 110.525 472.487 111.078 472.807 111.728C473.128 112.377 473.297 113.103 473.301 113.842ZM471.449 113.842C471.449 113.199 471.217 112.582 470.805 112.126C470.393 111.67 469.833 111.411 469.248 111.406C468.661 111.415 468.101 111.674 467.684 112.129C467.268 112.583 467.028 113.197 467.016 113.842C467.025 114.487 467.263 115.102 467.681 115.555C468.099 116.007 468.662 116.261 469.248 116.261C469.832 116.261 470.391 116.006 470.804 115.552C471.217 115.099 471.449 114.484 471.449 113.842ZM468.283 108.257C468.283 108.534 468.383 108.8 468.561 108.995C468.739 109.191 468.981 109.301 469.232 109.301C469.484 109.301 469.726 109.191 469.904 108.995C470.082 108.8 470.182 108.534 470.182 108.257C470.182 107.98 470.082 107.715 469.904 107.519C469.726 107.323 469.484 107.213 469.232 107.213C468.981 107.213 468.739 107.323 468.561 107.519C468.383 107.715 468.283 107.98 468.283 108.257Z" fill="#455A64"/>
<path d="M484.367 113.841C484.347 114.995 483.931 116.097 483.201 116.925C482.471 117.754 481.483 118.248 480.435 118.308C479.387 118.368 478.357 117.988 477.553 117.247C476.75 116.505 476.232 115.456 476.104 114.311C476.104 113.946 476.104 113.598 476.104 113.232C476.094 111.927 476.298 110.63 476.705 109.405C477.118 108.107 477.887 106.983 478.906 106.186C479.665 105.64 480.548 105.339 481.454 105.316C481.579 105.309 481.704 105.329 481.822 105.375C481.939 105.421 482.048 105.492 482.14 105.584C482.233 105.676 482.308 105.788 482.362 105.912C482.415 106.036 482.446 106.17 482.452 106.308C482.452 106.582 482.358 106.846 482.187 107.047C482.016 107.247 481.783 107.369 481.534 107.386C480.971 107.401 480.423 107.588 479.951 107.926C479.511 108.266 479.149 108.713 478.89 109.231C478.801 109.384 478.726 109.547 478.668 109.718C479.166 109.472 479.705 109.341 480.251 109.335C481.338 109.344 482.377 109.821 483.147 110.664C483.917 111.506 484.355 112.647 484.367 113.841ZM482.468 113.841C482.494 113.501 482.455 113.158 482.354 112.834C482.254 112.511 482.093 112.214 481.882 111.962C481.672 111.71 481.416 111.509 481.131 111.372C480.846 111.235 480.539 111.164 480.228 111.164C479.917 111.164 479.609 111.235 479.324 111.372C479.039 111.509 478.783 111.71 478.573 111.962C478.362 112.214 478.202 112.511 478.101 112.834C478 113.158 477.962 113.501 477.988 113.841C478.035 114.459 478.291 115.034 478.706 115.453C479.121 115.872 479.664 116.105 480.228 116.105C480.791 116.105 481.334 115.872 481.749 115.453C482.164 115.034 482.42 114.459 482.468 113.841Z" fill="#455A64"/>
<path d="M409.317 148.639C409.51 148.639 409.695 148.723 409.831 148.873C409.968 149.023 410.045 149.227 410.045 149.439V149.857C410.985 149.977 411.888 150.328 412.688 150.883C412.841 150.967 412.969 151.097 413.059 151.256C413.148 151.416 413.195 151.6 413.195 151.788C413.195 151.924 413.17 152.059 413.122 152.185C413.074 152.31 413.004 152.424 412.916 152.52C412.827 152.616 412.723 152.691 412.607 152.741C412.492 152.792 412.369 152.817 412.245 152.814C412.066 152.814 411.891 152.76 411.739 152.658C411.194 152.285 410.602 152.003 409.981 151.823V155.424C412.562 156.138 413.67 157.286 413.67 159.287C413.67 161.288 412.213 162.767 410.045 162.941V164.054C410.047 164.161 410.03 164.267 409.994 164.366C409.958 164.465 409.905 164.555 409.837 164.631C409.769 164.708 409.688 164.768 409.599 164.809C409.509 164.851 409.413 164.872 409.317 164.872C409.118 164.872 408.927 164.786 408.785 164.634C408.643 164.481 408.561 164.273 408.557 164.054V162.906C407.302 162.751 406.104 162.248 405.074 161.444C404.888 161.335 404.741 161.159 404.657 160.946C404.573 160.733 404.557 160.495 404.612 160.271C404.668 160.047 404.79 159.85 404.96 159.712C405.13 159.575 405.338 159.504 405.549 159.513C405.75 159.507 405.947 159.581 406.103 159.722C406.85 160.344 407.716 160.773 408.636 160.975V157.338C406.135 156.625 404.979 155.598 404.979 153.476C405.024 152.48 405.426 151.545 406.096 150.873C406.766 150.202 407.651 149.849 408.557 149.891V149.491C408.555 149.38 408.573 149.27 408.61 149.166C408.647 149.063 408.703 148.969 408.774 148.889C408.844 148.81 408.929 148.747 409.022 148.704C409.115 148.661 409.215 148.639 409.317 148.639ZM408.636 155.024V151.718C407.544 151.823 407.053 152.466 407.053 153.284C407.053 154.102 407.306 154.537 408.62 155.007L408.636 155.024ZM409.981 157.634V161.114C411.074 160.992 411.659 160.383 411.659 159.478C411.659 158.574 411.279 158.069 409.966 157.617L409.981 157.634Z" fill="#455A64"/>
<path d="M424.102 150.833V161.899C424.098 162.173 423.996 162.434 423.818 162.626C423.64 162.818 423.401 162.925 423.152 162.925C423.028 162.928 422.905 162.903 422.79 162.852C422.674 162.802 422.57 162.726 422.481 162.631C422.393 162.535 422.323 162.421 422.275 162.296C422.227 162.17 422.202 162.035 422.202 161.899V152.677L421.521 153.112C421.379 153.209 421.214 153.257 421.047 153.251C420.846 153.238 420.655 153.156 420.499 153.017C420.343 152.879 420.23 152.69 420.176 152.478C420.122 152.265 420.13 152.04 420.198 151.832C420.266 151.625 420.391 151.446 420.556 151.32L422.645 149.963C422.645 149.963 422.645 149.963 422.725 149.963C422.804 149.963 422.725 149.963 422.725 149.963H423.279H423.374C423.374 149.963 423.374 149.963 423.484 149.963C423.51 149.956 423.537 149.956 423.564 149.963C423.57 149.992 423.57 150.021 423.564 150.05C423.574 150.084 423.574 150.121 423.564 150.154C423.562 150.183 423.562 150.212 423.564 150.241C423.564 150.241 423.564 150.346 423.564 150.381L424.102 150.833Z" fill="#455A64"/>
<path d="M427.823 160.263C428.162 160.267 428.486 160.417 428.725 160.68C428.965 160.944 429.101 161.3 429.105 161.672C429.103 161.855 429.068 162.035 429.003 162.203C428.937 162.371 428.842 162.524 428.723 162.651C428.604 162.779 428.463 162.879 428.309 162.947C428.154 163.015 427.989 163.049 427.823 163.047C427.657 163.049 427.493 163.015 427.34 162.947C427.186 162.879 427.046 162.778 426.928 162.65C426.811 162.522 426.717 162.37 426.653 162.202C426.589 162.034 426.557 161.854 426.557 161.672C426.557 161.301 426.689 160.945 426.927 160.682C427.164 160.418 427.486 160.267 427.823 160.263Z" fill="#455A64"/>
<path d="M439.395 159.444C439.395 159.58 439.37 159.715 439.322 159.841C439.274 159.966 439.204 160.08 439.115 160.176C439.027 160.272 438.922 160.347 438.807 160.397C438.692 160.448 438.569 160.473 438.445 160.47H438.271V161.897C438.241 162.149 438.129 162.38 437.956 162.547C437.782 162.714 437.559 162.807 437.329 162.807C437.098 162.807 436.875 162.714 436.702 162.547C436.529 162.38 436.417 162.149 436.387 161.897V160.47H431.02C430.916 160.477 430.812 160.46 430.715 160.421C430.617 160.382 430.527 160.322 430.451 160.244C430.35 160.164 430.266 160.062 430.203 159.944C430.14 159.826 430.099 159.696 430.085 159.56C430.07 159.425 430.081 159.287 430.116 159.156C430.152 159.026 430.212 158.904 430.292 158.8L436.624 150.101H436.703C436.703 150.101 436.703 150.101 436.814 150.101C436.925 150.101 436.814 150.101 436.814 150.101H436.925H437.368H437.463L437.542 150.188H437.622V150.309C437.632 150.349 437.632 150.391 437.622 150.431V158.052H437.796C437.879 157.937 437.982 157.84 438.099 157.769C438.216 157.697 438.345 157.651 438.478 157.634C438.611 157.618 438.745 157.63 438.874 157.67C439.003 157.71 439.123 157.778 439.228 157.869C439.333 157.961 439.421 158.074 439.486 158.202C439.551 158.331 439.593 158.473 439.608 158.619C439.624 158.765 439.613 158.913 439.576 159.055C439.539 159.196 439.478 159.328 439.395 159.444ZM436.308 153.859L432.92 158.487H436.308V153.859Z" fill="#455A64"/>
<path d="M447.815 154.972C448.606 155.846 449.05 157.028 449.05 158.261C449.05 159.493 448.606 160.675 447.815 161.549C447.425 161.986 446.959 162.332 446.445 162.568C445.931 162.804 445.38 162.925 444.823 162.924C444.271 162.926 443.724 162.806 443.215 162.57C442.706 162.333 442.246 161.986 441.863 161.549C441.77 161.453 441.696 161.337 441.645 161.208C441.594 161.08 441.568 160.941 441.568 160.801C441.568 160.661 441.594 160.522 441.645 160.393C441.696 160.265 441.77 160.149 441.863 160.053C441.951 159.953 442.057 159.873 442.174 159.819C442.291 159.765 442.417 159.737 442.543 159.737C442.67 159.737 442.796 159.765 442.913 159.819C443.03 159.873 443.136 159.953 443.224 160.053C443.429 160.287 443.675 160.474 443.947 160.603C444.219 160.731 444.511 160.799 444.807 160.801C445.404 160.791 445.973 160.522 446.39 160.053C446.811 159.59 447.055 158.967 447.071 158.313C447.067 157.988 447.005 157.667 446.888 157.368C446.771 157.07 446.602 156.799 446.39 156.573C446.184 156.341 445.938 156.158 445.666 156.032C445.394 155.907 445.102 155.842 444.807 155.842C444.213 155.85 443.645 156.112 443.224 156.573C443.136 156.673 443.03 156.752 442.913 156.807C442.796 156.861 442.67 156.889 442.543 156.889C442.417 156.889 442.291 156.861 442.174 156.807C442.057 156.752 441.951 156.673 441.863 156.573C441.791 156.5 441.728 156.418 441.673 156.329C441.673 156.329 441.673 156.225 441.673 156.19C441.673 156.155 441.673 156.19 441.673 156.19C441.657 156.086 441.657 155.981 441.673 155.877L442.195 151.023C442.216 150.872 442.265 150.729 442.339 150.6C442.412 150.471 442.509 150.361 442.623 150.274C442.761 150.203 442.913 150.168 443.066 150.17H448.1C448.356 150.17 448.602 150.282 448.783 150.481C448.964 150.68 449.066 150.95 449.066 151.231C449.066 151.513 448.964 151.783 448.783 151.982C448.602 152.181 448.356 152.293 448.1 152.293H443.905L443.683 153.859C444.056 153.756 444.439 153.703 444.823 153.702C445.373 153.686 445.921 153.79 446.435 154.008C446.948 154.226 447.417 154.554 447.815 154.972Z" fill="#455A64"/>
<path d="M451.837 156.364C451.811 154.781 452.214 153.225 452.993 151.893C453.3 151.264 453.757 150.738 454.314 150.372C454.872 150.005 455.509 149.812 456.159 149.812C456.808 149.812 457.446 150.005 458.003 150.372C458.561 150.738 459.018 151.264 459.325 151.893C460.098 153.227 460.495 154.783 460.465 156.364C460.49 157.945 460.094 159.5 459.325 160.836C459.018 161.465 458.561 161.991 458.003 162.357C457.446 162.724 456.808 162.917 456.159 162.917C455.509 162.917 454.872 162.724 454.314 162.357C453.757 161.991 453.3 161.465 452.993 160.836C452.218 159.502 451.816 157.947 451.837 156.364ZM458.581 156.364C458.597 155.188 458.312 154.03 457.758 153.024C457.604 152.702 457.378 152.429 457.1 152.231C456.823 152.033 456.504 151.917 456.175 151.893C455.847 151.926 455.532 152.046 455.256 152.243C454.98 152.44 454.752 152.708 454.592 153.024C454.063 154.038 453.784 155.187 453.784 156.356C453.784 157.525 454.063 158.674 454.592 159.688C454.754 160.003 454.983 160.271 455.258 160.471C455.533 160.67 455.847 160.795 456.175 160.836C456.504 160.804 456.822 160.682 457.098 160.482C457.375 160.281 457.601 160.008 457.758 159.688C458.31 158.687 458.595 157.535 458.581 156.364Z" fill="#455A64"/>
<path d="M463.82 164.611C464.172 164.524 464.483 164.3 464.695 163.98C464.908 163.66 465.007 163.266 464.976 162.871C464.709 162.804 464.47 162.644 464.293 162.415C464.116 162.186 464.011 161.901 463.994 161.601V161.444C463.99 161.275 464.017 161.107 464.075 160.951C464.132 160.794 464.219 160.652 464.329 160.534C464.439 160.417 464.57 160.325 464.714 160.266C464.859 160.207 465.012 160.182 465.166 160.191C465.925 160.191 466.385 160.818 466.385 161.931V162.123C466.42 162.619 466.364 163.119 466.22 163.591C466.076 164.064 465.846 164.499 465.546 164.872C465.118 165.332 464.559 165.615 463.962 165.672C463.847 165.674 463.734 165.628 463.647 165.545C463.559 165.462 463.502 165.346 463.487 165.22C463.471 165.094 463.498 164.966 463.562 164.86C463.627 164.755 463.724 164.678 463.836 164.646L463.82 164.611Z" fill="#455A64"/>
<path d="M475.234 161.897C475.236 162.033 475.214 162.167 475.167 162.293C475.121 162.419 475.053 162.533 474.965 162.629C474.878 162.724 474.774 162.8 474.66 162.851C474.546 162.901 474.423 162.926 474.3 162.924H468.237C468.104 162.925 467.973 162.896 467.85 162.839C467.728 162.782 467.617 162.699 467.525 162.593C467.35 162.395 467.252 162.13 467.252 161.854C467.252 161.578 467.35 161.313 467.525 161.115L472.638 156.104C472.865 155.887 473.047 155.62 473.172 155.32C473.298 155.02 473.364 154.694 473.366 154.364C473.366 154.047 473.309 153.733 473.198 153.441C473.088 153.148 472.925 152.883 472.721 152.66C472.516 152.437 472.274 152.26 472.007 152.14C471.74 152.021 471.454 151.96 471.166 151.963C470.618 151.955 470.088 152.172 469.678 152.572L469.155 153.094C469.07 153.193 468.967 153.271 468.852 153.325C468.738 153.379 468.615 153.407 468.491 153.407C468.366 153.407 468.243 153.379 468.129 153.325C468.015 153.271 467.911 153.193 467.826 153.094C467.738 152.998 467.668 152.884 467.62 152.759C467.572 152.633 467.548 152.499 467.548 152.363C467.548 152.227 467.572 152.092 467.62 151.967C467.668 151.841 467.738 151.728 467.826 151.632L468.348 151.11C469.101 150.356 470.084 149.94 471.103 149.944C471.675 149.945 472.241 150.077 472.764 150.332C473.287 150.586 473.757 150.958 474.142 151.423C474.821 152.247 475.194 153.322 475.187 154.433C475.187 155.063 475.068 155.685 474.836 156.26C474.604 156.836 474.265 157.351 473.841 157.774L470.675 160.975H474.3C474.531 160.978 474.754 161.073 474.926 161.243C475.098 161.412 475.207 161.645 475.234 161.897Z" fill="#455A64"/>
<path d="M483.893 154.972C484.684 155.846 485.128 157.028 485.128 158.261C485.128 159.493 484.684 160.675 483.893 161.549C483.503 161.986 483.037 162.332 482.523 162.568C482.01 162.804 481.458 162.925 480.901 162.924C480.349 162.926 479.802 162.806 479.293 162.57C478.784 162.333 478.324 161.986 477.941 161.549C477.848 161.453 477.774 161.337 477.723 161.208C477.673 161.08 477.646 160.941 477.646 160.801C477.646 160.661 477.673 160.522 477.723 160.393C477.774 160.265 477.848 160.149 477.941 160.053C478.029 159.953 478.135 159.873 478.252 159.819C478.369 159.765 478.495 159.737 478.622 159.737C478.749 159.737 478.874 159.765 478.991 159.819C479.108 159.873 479.214 159.953 479.302 160.053C479.507 160.287 479.753 160.474 480.025 160.603C480.297 160.731 480.589 160.799 480.885 160.801C481.482 160.791 482.051 160.522 482.468 160.053C482.884 159.586 483.127 158.966 483.149 158.313C483.145 157.988 483.083 157.667 482.966 157.368C482.85 157.07 482.68 156.799 482.468 156.573C482.262 156.341 482.016 156.158 481.744 156.032C481.472 155.907 481.18 155.842 480.885 155.842C480.291 155.85 479.723 156.112 479.302 156.573C479.214 156.673 479.108 156.752 478.991 156.807C478.874 156.861 478.749 156.889 478.622 156.889C478.495 156.889 478.369 156.861 478.252 156.807C478.135 156.752 478.029 156.673 477.941 156.573C477.869 156.5 477.806 156.418 477.751 156.329C477.751 156.329 477.751 156.225 477.751 156.19C477.751 156.155 477.751 156.19 477.751 156.19C477.735 156.086 477.735 155.981 477.751 155.877L478.273 151.023C478.294 150.872 478.343 150.729 478.417 150.6C478.49 150.471 478.587 150.361 478.701 150.274C478.839 150.203 478.991 150.168 479.144 150.17H484.178C484.434 150.17 484.68 150.282 484.861 150.481C485.042 150.68 485.144 150.95 485.144 151.231C485.144 151.513 485.042 151.783 484.861 151.982C484.68 152.181 484.434 152.293 484.178 152.293H479.983L479.761 153.859C480.134 153.756 480.517 153.703 480.901 153.702C481.452 153.686 481.999 153.79 482.513 154.008C483.027 154.226 483.496 154.554 483.893 154.972Z" fill="#455A64"/>
<path d="M400.609 138.757L417.833 138.548L435.072 138.461L469.534 138.322L503.997 138.461L521.22 138.548L538.443 138.757L521.22 138.966L503.997 139.036L469.534 139.192L435.072 139.036L417.833 138.966L400.609 138.757Z" fill="#C7C7C7"/>
<path d="M532.57 99.158C530.987 99.0673 529.403 99.3318 527.916 99.9353C526.429 100.539 525.069 101.469 523.919 102.668C522.769 103.868 521.853 105.312 521.228 106.913C520.602 108.514 520.279 110.239 520.279 111.981C520.279 113.724 520.602 115.448 521.228 117.049C521.853 118.65 522.769 120.094 523.919 121.294C525.069 122.494 526.429 123.423 527.916 124.027C529.403 124.63 530.987 124.895 532.57 124.804C534.153 124.895 535.737 124.63 537.224 124.027C538.711 123.423 540.071 122.494 541.221 121.294C542.371 120.094 543.287 118.65 543.912 117.049C544.538 115.448 544.861 113.724 544.861 111.981C544.861 110.239 544.538 108.514 543.912 106.913C543.287 105.312 542.371 103.868 541.221 102.668C540.071 101.469 538.711 100.539 537.224 99.9353C535.737 99.3318 534.153 99.0673 532.57 99.158Z" fill="#DBDBDB"/>
<path d="M542.561 114.382C542.085 116.852 540.811 119.048 538.974 120.565C537.138 122.081 534.863 122.815 532.572 122.629C531.254 122.712 529.933 122.498 528.692 122.001C527.451 121.503 526.316 120.732 525.355 119.735C524.395 118.738 523.63 117.536 523.107 116.203C522.584 114.87 522.314 113.433 522.314 111.981C522.314 110.529 522.584 109.092 523.107 107.759C523.63 106.426 524.395 105.224 525.355 104.227C526.316 103.23 527.451 102.459 528.692 101.962C529.933 101.464 531.254 101.25 532.572 101.333H532.794C531.528 101.273 530.265 101.497 529.081 101.993C527.897 102.488 526.818 103.244 525.909 104.214C525 105.184 524.281 106.348 523.795 107.634C523.31 108.92 523.069 110.301 523.086 111.693C523.103 113.086 523.379 114.459 523.896 115.73C524.413 117.001 525.161 118.143 526.093 119.085C527.026 120.028 528.124 120.751 529.319 121.211C530.515 121.67 531.784 121.857 533.047 121.759C535.164 121.925 537.268 121.281 539.002 119.936C540.736 118.591 541.993 116.629 542.561 114.382Z" fill="white"/>
<path d="M532.667 104.132C532.775 104.132 532.879 104.177 532.958 104.257C533.038 104.338 533.086 104.449 533.094 104.567V105.281C534.235 105.365 535.332 105.799 536.26 106.533C536.418 106.655 536.513 106.759 536.513 106.951C536.501 107.077 536.445 107.193 536.356 107.274C536.268 107.356 536.154 107.396 536.039 107.386C535.923 107.389 535.81 107.346 535.722 107.264C534.949 106.616 534.029 106.212 533.062 106.098V111.109C535.754 111.683 536.893 112.693 536.893 114.45C536.893 116.207 535.31 117.669 533.094 117.756V119.148C533.086 119.264 533.037 119.373 532.957 119.451C532.877 119.529 532.773 119.57 532.667 119.565C532.56 119.57 532.456 119.529 532.376 119.451C532.296 119.373 532.247 119.264 532.239 119.148V117.738C530.777 117.628 529.383 117.02 528.25 115.998C528.183 115.958 528.127 115.897 528.091 115.823C528.054 115.749 528.038 115.665 528.044 115.581C528.056 115.461 528.108 115.35 528.19 115.27C528.272 115.189 528.378 115.145 528.488 115.146C528.603 115.144 528.715 115.187 528.804 115.268C529.771 116.203 530.987 116.771 532.271 116.886V111.84C529.596 111.248 528.503 110.257 528.503 108.482C528.503 106.707 530.086 105.298 532.223 105.246V104.567C532.232 104.446 532.282 104.332 532.365 104.251C532.448 104.17 532.556 104.127 532.667 104.132ZM532.287 110.918V106.046C530.561 106.046 529.421 107.125 529.421 108.412C529.421 109.7 529.991 110.361 532.287 110.918ZM533.062 112.014V116.938C534.835 116.938 535.991 115.877 535.991 114.519C535.991 113.162 535.374 112.536 533.062 112.101V112.014Z" fill="white"/>
<path d="M524.338 148.849C509.553 151.772 513.463 175.835 528.264 172.912C543.065 169.989 539.124 145.926 524.338 148.849Z" fill="white"/>
<path d="M525.732 148.64C511.643 151.424 515.538 175.487 529.658 172.703C543.779 169.919 539.837 145.787 525.732 148.64Z" fill="#DBDBDB"/>
<path d="M536.625 161.168C536.666 163.448 535.946 165.665 534.602 167.402C533.257 169.139 531.382 170.276 529.328 170.598C517.613 172.895 514.368 152.921 526.067 150.624H526.288C515.381 152.99 518.547 171.903 529.629 169.693C531.521 169.404 533.26 168.391 534.54 166.831C535.819 165.272 536.558 163.267 536.625 161.168Z" fill="white"/>
<path d="M528.533 153.232C528.631 153.245 528.721 153.3 528.783 153.384C528.845 153.469 528.874 153.576 528.866 153.684V154.363C529.857 154.572 530.767 155.106 531.478 155.894C531.537 155.941 531.584 156.005 531.614 156.078C531.645 156.151 531.658 156.231 531.652 156.312C531.646 156.368 531.63 156.423 531.604 156.473C531.578 156.522 531.544 156.566 531.502 156.6C531.46 156.634 531.413 156.659 531.362 156.672C531.312 156.685 531.26 156.687 531.208 156.677C531.156 156.673 531.105 156.657 531.059 156.63C531.013 156.603 530.972 156.565 530.939 156.52C530.349 155.833 529.59 155.35 528.755 155.128L528.248 159.861C530.528 160.696 531.414 161.792 531.24 163.445C531.168 163.887 531.016 164.309 530.794 164.686C530.572 165.062 530.284 165.386 529.946 165.639C529.609 165.892 529.229 166.068 528.828 166.158C528.428 166.247 528.016 166.248 527.615 166.159L527.473 167.464C527.457 167.57 527.406 167.666 527.33 167.734C527.254 167.801 527.158 167.835 527.061 167.83C526.963 167.817 526.873 167.762 526.811 167.678C526.749 167.593 526.72 167.485 526.728 167.377L526.871 166.038C525.596 165.766 524.442 165.031 523.594 163.95C523.543 163.908 523.504 163.852 523.479 163.788C523.454 163.724 523.444 163.654 523.452 163.584C523.47 163.475 523.523 163.377 523.602 163.307C523.68 163.237 523.778 163.2 523.879 163.202C523.931 163.206 523.982 163.222 524.028 163.249C524.075 163.276 524.116 163.313 524.148 163.358C524.867 164.336 525.865 165.017 526.982 165.29L527.504 160.47C525.256 159.617 524.338 158.556 524.576 156.868C524.726 156.018 525.172 155.265 525.82 154.771C526.467 154.277 527.265 154.081 528.042 154.224V153.58C528.049 153.519 528.068 153.461 528.098 153.409C528.127 153.357 528.167 153.313 528.214 153.28C528.26 153.246 528.313 153.225 528.369 153.217C528.424 153.208 528.48 153.214 528.533 153.232ZM527.504 159.6L528.011 154.989C527.717 154.915 527.414 154.906 527.117 154.962C526.821 155.019 526.537 155.14 526.284 155.318C526.03 155.496 525.812 155.728 525.641 156C525.47 156.273 525.35 156.579 525.288 156.903C525.161 158.052 525.589 158.817 527.504 159.6ZM528.042 160.818L527.552 165.481C527.853 165.557 528.166 165.566 528.471 165.507C528.776 165.448 529.067 165.323 529.327 165.138C529.587 164.952 529.81 164.712 529.984 164.43C530.157 164.149 530.278 163.831 530.338 163.497C530.48 162.245 530.021 161.479 528.042 160.818Z" fill="white"/>
<path d="M514.366 116.191C526.318 118.54 523.168 138.009 511.2 135.643C499.233 133.277 502.399 113.842 514.366 116.191Z" fill="white"/>
<path d="M513.241 115.965C524.639 118.21 521.473 137.662 510.075 135.417C498.678 133.173 501.844 113.721 513.241 115.965Z" fill="#DBDBDB"/>
<path d="M504.441 126.142C504.409 127.985 504.991 129.778 506.079 131.182C507.167 132.586 508.684 133.504 510.345 133.762C519.844 135.624 522.44 119.478 512.973 117.616H512.799C521.664 119.565 519.131 134.859 510.092 133.067C508.556 132.836 507.144 132.013 506.109 130.745C505.074 129.476 504.483 127.845 504.441 126.142Z" fill="white"/>
<path d="M512.322 119.062C512.399 119.082 512.466 119.132 512.513 119.202C512.559 119.272 512.581 119.358 512.575 119.445L512.48 119.984C513.268 120.213 513.974 120.698 514.507 121.376C514.551 121.419 514.585 121.473 514.607 121.533C514.629 121.594 514.638 121.659 514.633 121.724C514.619 121.791 514.587 121.852 514.542 121.9C514.498 121.948 514.441 121.981 514.38 121.996C514.319 122.011 514.255 122.006 514.196 121.982C514.137 121.959 514.086 121.917 514.047 121.863C513.605 121.271 513.017 120.83 512.354 120.593L511.705 124.386C513.509 125.204 514.158 126.126 513.937 127.466C513.865 127.824 513.727 128.163 513.533 128.461C513.338 128.76 513.091 129.012 512.805 129.202C512.52 129.392 512.202 129.517 511.871 129.568C511.541 129.62 511.204 129.597 510.881 129.501L510.691 130.545C510.676 130.63 510.631 130.705 510.566 130.754C510.501 130.803 510.421 130.822 510.343 130.806C510.266 130.789 510.198 130.74 510.153 130.668C510.109 130.597 510.092 130.509 510.106 130.423L510.296 129.362C509.276 129.073 508.377 128.41 507.747 127.483C507.71 127.443 507.682 127.393 507.665 127.339C507.649 127.284 507.644 127.227 507.652 127.17C507.671 127.082 507.718 127.005 507.786 126.954C507.853 126.903 507.935 126.88 508.016 126.891C508.058 126.897 508.098 126.912 508.133 126.936C508.169 126.96 508.199 126.992 508.222 127.031C508.746 127.877 509.525 128.493 510.422 128.771L511.071 124.925C509.298 124.09 508.665 123.185 508.887 121.846C508.968 121.501 509.11 121.178 509.305 120.894C509.501 120.61 509.745 120.371 510.025 120.192C510.304 120.012 510.614 119.895 510.934 119.848C511.255 119.8 511.582 119.823 511.895 119.914L511.974 119.41C511.971 119.36 511.978 119.311 511.995 119.264C512.012 119.218 512.038 119.177 512.071 119.144C512.105 119.11 512.145 119.085 512.188 119.071C512.232 119.057 512.277 119.054 512.322 119.062ZM511.182 124.142L511.815 120.454C511.584 120.374 511.34 120.347 511.098 120.374C510.857 120.4 510.622 120.48 510.41 120.608C510.197 120.737 510.01 120.911 509.86 121.12C509.709 121.33 509.599 121.571 509.536 121.828C509.378 122.733 509.662 123.377 511.182 124.125V124.142ZM511.594 125.082L510.961 128.805C511.2 128.887 511.451 128.915 511.7 128.887C511.949 128.859 512.191 128.776 512.41 128.643C512.629 128.509 512.821 128.328 512.974 128.111C513.128 127.894 513.24 127.645 513.303 127.379C513.462 126.439 513.129 125.778 511.594 125.065V125.082Z" fill="white"/>
<path d="M542.355 220.15H487.883V242.178H542.355V220.15Z" fill="#FFC727"/>
<path d="M520.715 242.178H509.523L515.112 248.407L520.715 242.178Z" fill="#FFC727"/>
<path d="M495.686 226.308C495.745 226.306 495.804 226.316 495.859 226.34C495.913 226.364 495.963 226.399 496.005 226.445C496.046 226.491 496.079 226.546 496.1 226.606C496.122 226.666 496.132 226.73 496.13 226.795V227.039C496.695 227.096 497.239 227.305 497.713 227.648C497.805 227.69 497.884 227.763 497.938 227.857C497.992 227.95 498.018 228.059 498.013 228.17C498.016 228.25 498.003 228.331 497.976 228.406C497.949 228.48 497.908 228.549 497.856 228.606C497.804 228.663 497.742 228.707 497.674 228.737C497.606 228.767 497.533 228.781 497.459 228.779C497.354 228.777 497.251 228.747 497.159 228.692C496.839 228.464 496.485 228.299 496.114 228.204V230.414C497.697 230.832 498.298 231.51 498.298 232.693C498.298 233.877 497.444 234.712 496.161 234.851V235.512C496.161 235.575 496.15 235.638 496.127 235.696C496.105 235.754 496.072 235.807 496.031 235.851C495.989 235.894 495.94 235.929 495.887 235.951C495.833 235.974 495.776 235.984 495.718 235.982C495.603 235.982 495.493 235.933 495.41 235.845C495.327 235.758 495.279 235.638 495.275 235.512V234.833C494.533 234.738 493.826 234.439 493.217 233.964C493.117 233.891 493.04 233.785 492.998 233.662C492.955 233.538 492.949 233.403 492.981 233.276C493.013 233.149 493.08 233.036 493.173 232.953C493.267 232.87 493.382 232.822 493.502 232.815C493.621 232.821 493.736 232.863 493.834 232.937C494.268 233.314 494.779 233.571 495.322 233.685V231.51C493.85 231.093 493.169 230.484 493.169 229.231C493.194 228.643 493.429 228.09 493.824 227.692C494.218 227.295 494.74 227.085 495.275 227.108V226.882C495.263 226.814 495.265 226.744 495.281 226.677C495.296 226.61 495.324 226.547 495.363 226.493C495.402 226.439 495.451 226.394 495.506 226.362C495.562 226.33 495.624 226.312 495.686 226.308ZM495.291 230.084V228.135C494.642 228.135 494.325 228.57 494.325 229.057C494.325 229.544 494.515 229.805 495.291 230.084ZM496.082 231.632V233.65C496.731 233.563 497.079 233.215 497.079 232.676C497.079 232.137 496.858 231.893 496.082 231.632Z" fill="#455A64"/>
<path d="M503.87 234.155C503.872 234.236 503.859 234.316 503.832 234.391C503.805 234.466 503.764 234.534 503.712 234.591C503.66 234.648 503.598 234.693 503.53 234.723C503.462 234.753 503.389 234.767 503.316 234.764H499.738C499.659 234.767 499.581 234.75 499.51 234.713C499.438 234.677 499.375 234.623 499.326 234.556C499.225 234.442 499.168 234.289 499.168 234.129C499.168 233.97 499.225 233.817 499.326 233.703L502.318 230.728C502.455 230.595 502.564 230.432 502.637 230.248C502.711 230.065 502.748 229.867 502.746 229.666C502.746 229.313 502.628 228.972 502.413 228.71C502.29 228.558 502.139 228.438 501.969 228.357C501.8 228.276 501.617 228.236 501.432 228.24C501.111 228.242 500.802 228.372 500.561 228.605L500.245 228.918C500.194 228.976 500.134 229.021 500.067 229.052C500.001 229.084 499.929 229.1 499.857 229.1C499.784 229.1 499.713 229.084 499.646 229.052C499.579 229.021 499.519 228.976 499.469 228.918C499.367 228.804 499.31 228.651 499.31 228.492C499.31 228.333 499.367 228.18 499.469 228.066L499.785 227.753C500.217 227.313 500.781 227.065 501.368 227.057C501.709 227.059 502.045 227.139 502.356 227.292C502.666 227.444 502.945 227.667 503.173 227.944C503.598 228.467 503.818 229.153 503.786 229.854C503.753 230.554 503.47 231.212 502.999 231.685L501.099 233.581H503.236C503.313 233.569 503.391 233.575 503.465 233.597C503.54 233.62 503.609 233.66 503.669 233.714C503.728 233.768 503.777 233.835 503.812 233.911C503.846 233.987 503.866 234.071 503.87 234.155Z" fill="#455A64"/>
<path d="M506.183 233.199C506.381 233.199 506.57 233.285 506.71 233.439C506.849 233.592 506.927 233.8 506.927 234.017C506.927 234.234 506.849 234.442 506.71 234.595C506.57 234.749 506.381 234.835 506.183 234.835C505.986 234.835 505.797 234.749 505.657 234.595C505.518 234.442 505.439 234.234 505.439 234.017C505.439 233.8 505.518 233.592 505.657 233.439C505.797 233.285 505.986 233.199 506.183 233.199Z" fill="#455A64"/>
<path d="M509.173 227.631V234.156C509.169 234.319 509.107 234.474 509.001 234.587C508.894 234.701 508.752 234.765 508.603 234.765C508.456 234.765 508.315 234.7 508.211 234.586C508.108 234.472 508.049 234.317 508.049 234.156V228.675L507.653 228.919C507.57 228.984 507.471 229.021 507.369 229.023C507.272 229.019 507.177 228.989 507.094 228.934C507.011 228.879 506.942 228.802 506.894 228.71C506.854 228.642 506.828 228.566 506.816 228.486C506.804 228.407 506.807 228.325 506.825 228.247C506.842 228.169 506.875 228.095 506.919 228.031C506.964 227.967 507.02 227.914 507.084 227.875L508.318 227.074H508.73L509.173 227.631Z" fill="#455A64"/>
<path d="M510.457 230.884C510.446 229.948 510.682 229.029 511.138 228.239C511.332 227.876 511.607 227.572 511.936 227.356C512.265 227.14 512.639 227.019 513.022 227.004C513.4 227.022 513.769 227.144 514.092 227.36C514.416 227.576 514.685 227.879 514.874 228.239C515.307 229.027 515.536 229.929 515.536 230.849C515.536 231.769 515.307 232.672 514.874 233.459C514.683 233.818 514.413 234.118 514.09 234.334C513.767 234.55 513.4 234.673 513.022 234.694C512.639 234.676 512.267 234.554 511.938 234.338C511.609 234.122 511.334 233.82 511.138 233.459C510.693 232.689 510.456 231.796 510.457 230.884ZM514.431 230.884C514.448 230.192 514.283 229.509 513.956 228.918C513.864 228.728 513.731 228.566 513.567 228.448C513.404 228.329 513.217 228.258 513.022 228.239C512.822 228.255 512.629 228.326 512.461 228.444C512.292 228.563 512.153 228.725 512.056 228.918C511.729 229.509 511.564 230.192 511.581 230.884C511.567 231.575 511.732 232.257 512.056 232.85C512.155 233.04 512.295 233.202 512.463 233.32C512.631 233.438 512.823 233.51 513.022 233.529C513.216 233.506 513.401 233.432 513.564 233.314C513.726 233.196 513.861 233.037 513.956 232.85C514.28 232.257 514.445 231.575 514.431 230.884Z" fill="#455A64"/>
<path d="M522.059 234.155C522.061 234.236 522.049 234.316 522.022 234.391C521.994 234.466 521.954 234.534 521.902 234.591C521.85 234.648 521.788 234.693 521.72 234.723C521.652 234.753 521.579 234.767 521.505 234.764H517.928C517.847 234.765 517.767 234.746 517.693 234.71C517.62 234.674 517.554 234.622 517.5 234.556C517.399 234.442 517.342 234.289 517.342 234.129C517.342 233.97 517.399 233.817 517.5 233.703L520.492 230.728C520.626 230.594 520.732 230.429 520.803 230.246C520.874 230.063 520.908 229.865 520.904 229.666C520.904 229.313 520.786 228.972 520.571 228.71C520.453 228.557 520.304 228.435 520.137 228.354C519.97 228.272 519.788 228.233 519.606 228.24C519.285 228.242 518.976 228.372 518.735 228.605L518.418 228.918C518.368 228.976 518.308 229.021 518.241 229.052C518.175 229.084 518.103 229.1 518.03 229.1C517.958 229.1 517.886 229.084 517.82 229.052C517.753 229.021 517.693 228.976 517.643 228.918C517.541 228.804 517.484 228.651 517.484 228.492C517.484 228.333 517.541 228.18 517.643 228.066L517.959 227.753C518.39 227.313 518.954 227.065 519.542 227.057C519.883 227.059 520.219 227.139 520.529 227.292C520.84 227.444 521.119 227.667 521.347 227.944C521.772 228.467 521.992 229.153 521.96 229.854C521.927 230.554 521.644 231.212 521.173 231.685L519.273 233.581H521.41C521.488 233.566 521.568 233.57 521.644 233.591C521.72 233.613 521.792 233.652 521.853 233.707C521.915 233.761 521.965 233.829 522 233.907C522.036 233.984 522.056 234.069 522.059 234.155Z" fill="#455A64"/>
<path d="M523.578 235.757C523.78 235.707 523.96 235.58 524.084 235.399C524.209 235.217 524.271 234.992 524.258 234.765C524.1 234.729 523.958 234.636 523.854 234.5C523.751 234.364 523.692 234.194 523.689 234.017C523.684 233.917 523.698 233.818 523.731 233.725C523.764 233.631 523.814 233.547 523.878 233.477C523.942 233.406 524.019 233.351 524.103 233.315C524.188 233.279 524.279 233.263 524.369 233.268C524.828 233.268 525.097 233.651 525.097 234.243V234.365C525.131 234.953 524.955 235.533 524.607 235.983C524.347 236.253 524.013 236.418 523.657 236.452C523.616 236.461 523.575 236.458 523.535 236.446C523.496 236.434 523.459 236.412 523.429 236.381C523.398 236.351 523.374 236.314 523.359 236.272C523.344 236.23 523.337 236.184 523.34 236.139C523.328 236.097 523.325 236.052 523.331 236.008C523.337 235.964 523.352 235.922 523.375 235.885C523.398 235.848 523.428 235.817 523.463 235.795C523.498 235.773 523.537 235.76 523.578 235.757Z" fill="#455A64"/>
<path d="M530.48 232.155C530.482 232.613 530.376 233.064 530.172 233.463C529.968 233.862 529.673 234.196 529.316 234.432C528.96 234.669 528.553 234.799 528.137 234.811C527.72 234.823 527.308 234.716 526.941 234.5C526.573 234.285 526.263 233.968 526.041 233.581C525.818 233.194 525.69 232.75 525.671 232.293C525.651 231.836 525.739 231.381 525.928 230.972C526.116 230.564 526.397 230.216 526.744 229.963C526.559 229.692 526.446 229.369 526.419 229.031C526.391 228.693 526.449 228.353 526.587 228.05C526.725 227.746 526.938 227.491 527.2 227.313C527.463 227.135 527.765 227.04 528.074 227.04C528.383 227.04 528.685 227.135 528.948 227.313C529.211 227.491 529.423 227.746 529.561 228.05C529.699 228.353 529.757 228.693 529.73 229.031C529.702 229.369 529.589 229.692 529.404 229.963C529.734 230.202 530.006 230.527 530.194 230.91C530.381 231.293 530.48 231.721 530.48 232.155ZM529.388 232.155C529.388 231.777 529.251 231.414 529.008 231.147C528.764 230.879 528.434 230.729 528.09 230.729C527.906 230.706 527.721 230.727 527.545 230.789C527.369 230.851 527.207 230.953 527.069 231.088C526.932 231.224 526.822 231.39 526.746 231.575C526.671 231.76 526.632 231.961 526.632 232.164C526.632 232.367 526.671 232.568 526.746 232.753C526.822 232.938 526.932 233.104 527.069 233.24C527.207 233.375 527.369 233.477 527.545 233.539C527.721 233.601 527.906 233.622 528.09 233.599C528.436 233.595 528.766 233.441 529.009 233.17C529.252 232.9 529.388 232.535 529.388 232.155ZM527.504 228.867C527.504 228.951 527.519 229.034 527.549 229.111C527.579 229.188 527.622 229.258 527.677 229.316C527.731 229.375 527.796 229.42 527.867 229.451C527.938 229.481 528.014 229.496 528.09 229.493C528.202 229.49 528.311 229.45 528.402 229.379C528.494 229.309 528.564 229.21 528.605 229.095C528.646 228.98 528.655 228.855 528.631 228.734C528.607 228.614 528.552 228.504 528.472 228.418C528.391 228.332 528.29 228.274 528.18 228.252C528.07 228.229 527.956 228.242 527.853 228.29C527.749 228.338 527.661 228.418 527.599 228.521C527.537 228.623 527.504 228.744 527.504 228.867Z" fill="#455A64"/>
<path d="M537.019 232.155C537.015 232.867 536.754 233.549 536.294 234.051C535.835 234.553 535.213 234.835 534.565 234.835C533.962 234.838 533.379 234.593 532.931 234.149C532.483 233.705 532.202 233.093 532.143 232.434C532.143 232.207 532.143 231.999 532.143 231.79C532.135 231.019 532.253 230.253 532.491 229.528C532.735 228.763 533.189 228.101 533.789 227.631C534.235 227.304 534.757 227.123 535.293 227.109C535.367 227.105 535.441 227.116 535.511 227.144C535.581 227.171 535.645 227.214 535.7 227.269C535.755 227.324 535.799 227.391 535.829 227.465C535.86 227.539 535.877 227.619 535.879 227.701C535.883 227.864 535.829 228.023 535.729 228.143C535.628 228.263 535.489 228.336 535.341 228.345C535.003 228.342 534.672 228.451 534.391 228.658C534.126 228.852 533.908 229.115 533.758 229.423C533.706 229.517 533.664 229.616 533.631 229.719C533.933 229.563 534.263 229.485 534.597 229.493C535.236 229.502 535.848 229.785 536.3 230.283C536.753 230.78 537.01 231.452 537.019 232.155ZM535.895 232.155C535.891 231.769 535.749 231.4 535.501 231.127C535.252 230.854 534.916 230.698 534.565 230.694C534.391 230.694 534.219 230.731 534.059 230.805C533.898 230.879 533.753 230.987 533.63 231.123C533.508 231.259 533.412 231.42 533.347 231.597C533.281 231.774 533.249 231.964 533.251 232.155C533.249 232.345 533.281 232.534 533.347 232.711C533.412 232.887 533.509 233.047 533.631 233.181C533.754 233.316 533.899 233.422 534.06 233.494C534.22 233.566 534.392 233.602 534.565 233.599C534.744 233.609 534.922 233.578 535.09 233.51C535.257 233.442 535.411 233.337 535.541 233.203C535.671 233.068 535.775 232.906 535.847 232.726C535.918 232.546 535.956 232.352 535.958 232.155H535.895Z" fill="#455A64"/>
<path d="M243.623 340.186C255.21 341.143 267.067 341.404 278.813 341.352C290.559 341.299 302.385 340.83 314.146 339.942C325.908 339.055 337.638 337.733 349.305 335.975C360.972 334.218 372.623 332.043 384.132 329.207C407.229 323.835 429.713 315.665 451.173 304.848C461.856 299.355 472.135 292.956 481.915 285.709C491.655 278.299 500.739 269.899 509.048 260.62L509.222 260.794C501.083 270.292 492.153 278.93 482.548 286.597C472.875 294.16 462.682 300.885 452.059 306.71C430.661 318.164 408.17 326.97 385.002 332.965C373.462 336.114 361.764 338.603 350.033 340.673C338.303 342.743 326.478 344.379 314.637 345.58C302.796 346.78 290.892 347.546 279.003 347.911C267.115 348.276 255.258 348.311 243.195 347.633L243.623 340.186Z" fill="#FFC727"/>
<path d="M263.141 349.093C255.906 349.093 249.337 348.919 243.068 348.554H242.197L242.83 339.228H243.685C253.991 340.063 265.167 340.446 278.813 340.376C290.464 340.376 302.336 339.854 314.082 338.967C325.828 338.079 337.717 336.74 349.194 335.017C361.858 333.086 373.287 330.876 384.02 328.266C407.053 322.9 429.477 314.76 450.887 303.995C461.53 298.491 471.771 292.092 481.519 284.856C491.164 277.474 500.173 269.134 508.43 259.94L509.016 259.279L510.409 260.706L509.823 261.402C501.646 270.938 492.679 279.617 483.038 287.327C473.313 294.916 463.066 301.664 452.391 307.509C430.927 318.984 408.375 327.812 385.144 333.834C374.395 336.775 362.982 339.297 350.096 341.577C338.508 343.612 326.588 345.265 314.636 346.483C302.685 347.701 290.78 348.449 278.955 348.815C273.304 349.006 268.064 349.093 263.141 349.093ZM244.018 346.744C254.292 347.284 265.404 347.371 278.844 346.97C290.622 346.622 302.59 345.839 314.431 344.639C326.272 343.438 338.176 341.785 349.764 339.75C362.554 337.488 373.968 334.965 384.59 332.059C407.69 326.091 430.12 317.339 451.473 305.961C453.562 304.795 455.604 303.629 457.583 302.481C455.573 303.595 453.531 304.708 451.409 305.822C429.882 316.634 407.336 324.803 384.178 330.18C373.493 332.808 362.016 335.035 349.352 336.949C337.828 338.688 325.971 340.028 314.114 340.933C302.257 341.838 290.369 342.29 278.749 342.342C265.404 342.342 254.45 342.046 244.319 341.246L244.018 346.744Z" fill="#FFC727"/>
<path d="M512.783 267.232L515.553 252.687L502.699 257.332L512.783 267.232Z" fill="#FFC727"/>
<path d="M53.1538 474.89L620.73 474.89V452.706L53.1538 452.706V474.89Z" fill="#37474F"/>
<path d="M53.1538 474.907L620.73 474.907V466.242L53.1538 466.242V474.907Z" fill="#455A64"/>
<path d="M600.374 786.176H608.527L584.782 474.907H563.965L600.374 786.176Z" fill="#455A64"/>
<path d="M563.965 474.907L566.403 495.734H586.365L584.782 474.907H563.965Z" fill="#263238"/>
<path d="M73.5158 786.176H65.3633L89.1086 474.907H109.925L73.5158 786.176Z" fill="#455A64"/>
<path d="M109.925 474.907L107.487 495.734H87.5254L89.1084 474.907H109.925Z" fill="#263238"/>
<path d="M276.817 436.925H153.262V443.014H276.817V436.925Z" fill="#C7C7C7"/>
<path d="M276.832 436.925H214.635V443.014H276.832V436.925Z" fill="#A6A6A6"/>
<path d="M221.332 443.014H341.753L357.488 353.131H237.067L221.332 443.014Z" fill="#C7C7C7"/>
<path d="M282.089 398.073C281.983 399.098 282.077 400.137 282.367 401.119C282.656 402.102 283.132 403.005 283.765 403.768C284.398 404.531 285.172 405.136 286.035 405.543C286.898 405.95 287.83 406.15 288.77 406.128C290.754 406.072 292.652 405.223 294.109 403.741C295.566 402.258 296.481 400.243 296.685 398.073C296.786 397.046 296.687 396.008 296.395 395.027C296.103 394.046 295.625 393.145 294.991 392.383C294.358 391.621 293.584 391.016 292.722 390.608C291.859 390.2 290.927 389.998 289.988 390.017C288.004 390.07 286.106 390.918 284.652 392.401C283.197 393.885 282.286 395.902 282.089 398.073Z" fill="#A6A6A6"/>
<path d="M578.04 616.083C563.571 637.605 548.501 662.573 544.796 689.559C544.789 689.649 544.812 689.739 544.862 689.811C544.911 689.883 544.983 689.933 545.064 689.95C545.144 689.967 545.228 689.951 545.299 689.904C545.369 689.858 545.421 689.784 545.445 689.698C547.097 682.342 549.213 675.121 551.777 668.088C561.275 665.218 570.615 662.869 575.602 652.429C580.699 641.781 580.05 627.879 579.084 616.274C579.148 615.7 578.325 615.665 578.04 616.083Z" fill="#FFC727"/>
<path d="M551.997 667.897C558.503 651.872 566.83 635.795 577.436 622.659C577.436 622.659 577.61 622.659 577.547 622.798C570.906 632.18 565.076 642.222 560.134 652.794C564.883 647.453 570.154 642.668 574.698 636.996C574.698 636.892 574.919 636.996 574.84 637.153C570.344 643.103 565.421 649.558 559.548 653.943C557.976 657.121 556.393 660.316 554.799 663.529C555.195 663.286 555.606 663.077 556.002 662.851C556.002 662.851 556.145 662.938 556.002 662.973C555.559 663.216 555.116 663.477 554.657 663.703C553.897 665.217 553.073 666.731 552.361 668.245C552.234 668.523 551.87 668.227 551.997 667.897Z" fill="#263238"/>
<path d="M556.841 662.293C560.721 659.897 564.426 657.175 567.923 654.15C568.018 654.15 568.144 654.15 568.049 654.307C564.654 657.526 560.936 660.31 556.968 662.606C556.932 662.616 556.894 662.612 556.86 662.594C556.827 662.576 556.8 662.546 556.785 662.508C556.77 662.471 556.767 662.429 556.778 662.389C556.788 662.35 556.811 662.316 556.841 662.293Z" fill="#263238"/>
<path d="M543.164 685.521C543.164 685.852 543.687 685.835 543.687 685.521C543.687 676.631 543.687 667.705 543.813 658.779C545.887 654.186 550.336 651.646 553.422 647.957C555.648 645.272 557.581 642.312 559.185 639.136C562.916 631.552 565.195 623.209 565.881 614.62C566.736 605.121 563.459 573.75 559.802 574.829C557.918 575.403 551.792 590.94 550.177 596.073C547.545 604.564 545.617 613.299 544.415 622.172C541.471 643.033 541.708 664.503 543.164 685.521Z" fill="#FFC727"/>
<path d="M543.099 647.244C543.542 636.004 545.853 624.625 548.006 613.733C550.333 601.989 553.056 590.923 558.549 580.449C558.573 580.417 558.607 580.396 558.644 580.389C558.68 580.382 558.718 580.39 558.751 580.411C558.783 580.432 558.807 580.464 558.82 580.503C558.832 580.542 558.832 580.584 558.818 580.623C555.156 588.778 552.316 597.348 550.349 606.182C550.729 605.538 551.172 604.947 551.552 604.338C551.711 604.111 552.059 604.338 551.916 604.581C551.421 605.528 550.843 606.42 550.191 607.243C548.291 615.647 546.93 624.225 545.774 632.803C545.853 632.698 545.932 632.576 546.027 632.472L546.138 632.576C545.996 632.855 545.837 633.133 545.679 633.411C545.093 637.761 544.555 642.111 544.001 646.409C551.22 640.026 556.878 631.768 560.465 622.38C560.465 622.38 560.544 622.38 560.465 622.38C557.14 632.35 551.9 641.224 543.827 647.261C543.685 648.427 543.542 649.593 543.384 650.741C543.384 650.984 543.004 650.915 543.004 650.741C543.004 649.714 543.004 648.688 543.099 647.661C543.02 647.487 542.972 647.331 543.099 647.244Z" fill="#263238"/>
<path d="M546.426 630.923C551.918 622.341 556.717 613.247 560.768 603.746C560.768 603.641 560.99 603.746 560.942 603.833C557.724 613.805 552.898 623.058 546.695 631.149C546.568 631.306 546.315 631.097 546.426 630.923Z" fill="#263238"/>
<path d="M553.578 601.571C555.81 597.221 558.153 593.011 560.258 588.574C560.258 588.452 560.464 588.574 560.417 588.696C558.696 593.309 556.514 597.697 553.91 601.78C553.885 601.828 553.844 601.864 553.795 601.878C553.746 601.893 553.693 601.886 553.649 601.858C553.605 601.83 553.573 601.785 553.559 601.731C553.546 601.677 553.553 601.619 553.578 601.571Z" fill="#263238"/>
<path d="M537.687 659.858C537.576 665.746 536.945 671.608 535.803 677.362L536.041 679.276C537.697 672.917 538.654 666.363 538.89 659.754C538.941 659.665 538.967 659.563 538.967 659.458C538.967 659.353 538.941 659.251 538.89 659.162C539.117 650.303 538.518 641.441 537.101 632.716C534.6 616.378 529.186 600.702 518.77 588.453C518.682 588.374 518.58 588.318 518.47 588.288C518.361 588.258 518.246 588.256 518.135 588.281C518.025 588.306 517.92 588.358 517.83 588.432C517.74 588.507 517.666 588.603 517.614 588.714C513.435 600.406 514.891 614.36 518.453 626.017C520.401 632.329 523.174 638.295 526.685 643.729C530.262 649.21 534.822 653.856 537.687 659.858Z" fill="#FFC727"/>
<path d="M520.02 593.916C529.851 611.437 536.673 632.194 537.512 652.898C537.512 653.264 536.974 653.368 536.927 652.985C536.689 651.124 536.436 649.279 536.151 647.452C531.91 643.291 528.184 638.535 525.07 633.307C525.07 633.22 525.07 633.098 525.212 633.185C528.583 637.739 532.199 642.068 536.04 646.148C535.344 641.577 534.505 637.071 533.523 632.629C533.254 632.298 533.001 631.95 532.748 631.619C532.494 631.289 532.858 631.08 533.032 631.306L533.27 631.585C531.888 625.501 530.17 619.517 528.125 613.664C525.624 610.393 522.838 607.557 521.017 603.607L521.144 603.52C522.616 605.782 524.025 608.061 525.687 610.149C526.352 610.984 527.08 611.767 527.761 612.585C525.501 606.232 522.813 600.073 519.719 594.159C519.717 594.118 519.724 594.078 519.739 594.04C519.755 594.003 519.779 593.971 519.809 593.947C519.839 593.923 519.874 593.907 519.911 593.902C519.948 593.896 519.985 593.901 520.02 593.916Z" fill="#263238"/>
<path d="M522.015 615.525C525.181 620.223 528.806 624.694 531.75 629.548C531.771 629.578 531.781 629.616 531.776 629.654C531.772 629.691 531.754 629.725 531.727 629.749C531.699 629.772 531.665 629.782 531.631 629.777C531.597 629.772 531.566 629.752 531.545 629.722C527.779 625.496 524.504 620.774 521.793 615.664C521.714 615.507 521.92 615.386 522.015 615.525Z" fill="#263238"/>
<path d="M532.193 630.646L532.336 630.785C532.431 630.889 532.336 631.063 532.178 630.959L532.051 630.802C532.042 630.792 532.034 630.78 532.029 630.766C532.024 630.753 532.021 630.739 532.021 630.724C532.021 630.71 532.024 630.695 532.029 630.682C532.034 630.668 532.042 630.656 532.051 630.646C532.06 630.635 532.071 630.627 532.084 630.622C532.096 630.616 532.109 630.613 532.122 630.613C532.135 630.613 532.149 630.616 532.161 630.622C532.173 630.627 532.184 630.635 532.193 630.646Z" fill="#263238"/>
<path d="M504.633 627.599C505.788 637.386 509.376 646.633 515.002 654.324C517.32 657.339 520.182 659.792 523.408 661.527C527.049 663.511 530.848 665.79 534.615 667.408C536.406 672.417 537.737 677.611 538.589 682.911C538.716 682.458 538.826 681.989 538.953 681.554C536.531 658.726 523.123 639.222 505.915 626.695C505.78 626.6 505.623 626.55 505.463 626.55C505.303 626.55 505.146 626.601 505.011 626.696C504.876 626.791 504.769 626.927 504.702 627.087C504.635 627.247 504.611 627.425 504.633 627.599Z" fill="#FFC727"/>
<path d="M510.569 634.334C510.442 634.212 510.569 633.986 510.743 634.09C520.186 641.812 527.718 652.011 532.652 663.756C532.763 664.069 532.383 664.33 532.225 664.034C531.417 662.485 530.642 660.989 529.771 659.528C525.845 658.71 522.125 655.682 519.212 652.794C519.133 652.794 519.212 652.585 519.323 652.672C520.833 654.165 522.502 655.45 524.294 656.5C525.877 657.388 527.618 657.962 529.28 658.675C527.824 656.135 526.304 653.693 524.721 651.35C520.489 649.572 516.521 647.115 512.943 644.06C512.833 643.973 512.943 643.764 513.054 643.851C516.602 646.204 520.258 648.353 524.009 650.289C521.616 646.812 519.031 643.499 516.268 640.371C514.938 639.606 513.592 638.823 512.294 637.988C512.184 637.988 512.294 637.727 512.374 637.779C513.45 638.182 514.477 638.731 515.429 639.414C513.877 637.692 512.279 636.004 510.569 634.334Z" fill="#263238"/>
<path d="M510.934 642.215C511.168 642.369 511.39 642.544 511.599 642.737C511.599 642.737 511.599 642.876 511.52 642.859C511.279 642.731 511.046 642.586 510.823 642.424C510.712 642.337 510.823 642.128 510.934 642.215Z" fill="#263238"/>
<path d="M565.785 732.342H518.674L522.489 685.208L523.312 674.804H561.146L561.969 685.208L565.785 732.342Z" fill="#455A64"/>
<path d="M561.971 685.208H522.49L523.313 674.804H561.148L561.971 685.208Z" fill="#263238"/>
<path d="M563.394 667.531H521.064V677.814H563.394V667.531Z" fill="#455A64"/>
<path d="M179.89 88.4561C131.829 88.4561 131.75 163.568 179.89 163.568C228.029 163.568 228.013 88.4561 179.89 88.4561Z" fill="#FFC727"/>
<path d="M209.113 132.98C206.548 145.907 196.797 157.112 179.874 157.112C139.935 157.112 139.998 94.7715 179.874 94.7715H180.666C143.132 95.5196 143.307 154.555 181.394 154.555C196.939 154.642 206.184 144.759 209.113 132.98Z" fill="#FFC727"/>
<path opacity="0.1" d="M209.113 132.98C206.548 145.907 196.797 157.112 179.874 157.112C139.935 157.112 139.998 94.7715 179.874 94.7715H180.666C143.132 95.5196 143.307 154.555 181.394 154.555C196.939 154.642 206.184 144.759 209.113 132.98Z" fill="black"/>
<path d="M180.175 103.054C180.49 103.044 180.797 103.169 181.03 103.403C181.263 103.636 181.405 103.96 181.425 104.306V106.412C184.757 106.656 187.96 107.921 190.67 110.066C191.145 110.431 191.398 110.744 191.398 111.266C191.374 111.634 191.22 111.976 190.968 112.22C190.716 112.464 190.388 112.59 190.053 112.571C189.71 112.586 189.376 112.455 189.119 112.206C186.857 110.281 184.157 109.077 181.315 108.726V123.358C189.23 125.098 192.538 128.021 192.538 133.137C192.538 138.687 187.916 142.602 181.457 142.81V146.899C181.457 147.264 181.325 147.613 181.091 147.871C180.856 148.129 180.538 148.274 180.207 148.274C179.875 148.274 179.557 148.129 179.322 147.871C179.088 147.613 178.956 147.264 178.956 146.899V142.845C174.67 142.547 170.578 140.776 167.257 137.782C167.087 137.666 166.945 137.505 166.846 137.314C166.746 137.122 166.692 136.906 166.688 136.686C166.712 136.326 166.859 135.989 167.1 135.744C167.341 135.499 167.657 135.363 167.986 135.364C168.327 135.355 168.66 135.486 168.92 135.729C171.738 138.482 175.293 140.155 179.051 140.496V125.585C171.262 123.846 167.97 120.992 167.97 115.772C167.97 110.553 172.545 106.464 178.893 106.307V104.306C178.913 103.954 179.059 103.625 179.299 103.39C179.539 103.156 179.854 103.035 180.175 103.054ZM179.019 122.923V108.621C173.985 108.726 170.661 111.753 170.661 115.581C170.661 119.409 172.323 121.305 179.019 122.923ZM181.362 126.125V140.549C186.554 140.444 189.942 137.417 189.942 133.432C189.895 129.831 188.074 127.639 181.362 126.125Z" fill="#FFC727"/>
<g opacity="0.1">
<path opacity="0.1" d="M180.175 103.054C180.49 103.044 180.797 103.169 181.03 103.403C181.263 103.636 181.405 103.96 181.425 104.306V106.412C184.757 106.656 187.96 107.921 190.67 110.066C191.145 110.431 191.398 110.744 191.398 111.266C191.374 111.634 191.22 111.976 190.968 112.22C190.716 112.464 190.388 112.59 190.053 112.571C189.71 112.586 189.376 112.455 189.119 112.206C186.857 110.281 184.157 109.077 181.315 108.726V123.358C189.23 125.098 192.538 128.021 192.538 133.137C192.538 138.687 187.916 142.602 181.457 142.81V146.899C181.457 147.264 181.325 147.613 181.091 147.871C180.856 148.129 180.538 148.274 180.207 148.274C179.875 148.274 179.557 148.129 179.322 147.871C179.088 147.613 178.956 147.264 178.956 146.899V142.845C174.67 142.547 170.578 140.776 167.257 137.782C167.087 137.666 166.945 137.505 166.846 137.314C166.746 137.122 166.692 136.906 166.688 136.686C166.712 136.326 166.859 135.989 167.1 135.744C167.341 135.499 167.657 135.363 167.986 135.364C168.327 135.355 168.66 135.486 168.92 135.729C171.738 138.482 175.293 140.155 179.051 140.496V125.585C171.262 123.846 167.97 120.992 167.97 115.772C167.97 110.553 172.545 106.464 178.893 106.307V104.306C178.913 103.954 179.059 103.625 179.299 103.39C179.539 103.156 179.854 103.035 180.175 103.054ZM179.019 122.923V108.621C173.985 108.726 170.661 111.753 170.661 115.581C170.661 119.409 172.323 121.305 179.019 122.923ZM181.362 126.125V140.549C186.554 140.444 189.942 137.417 189.942 133.432C189.895 129.831 188.074 127.639 181.362 126.125Z" fill="black"/>
</g>
<path d="M570.357 275.653C527.093 284.179 538.522 354.645 581.865 346.084C625.209 337.524 613.7 267.128 570.357 275.653Z" fill="#FFC727"/>
<path opacity="0.1" d="M570.357 275.653C527.093 284.179 538.522 354.645 581.865 346.084C625.209 337.524 613.7 267.128 570.357 275.653Z" fill="black"/>
<path d="M574.428 274.869C533.19 282.994 544.62 353.46 585.921 345.3C627.222 337.14 615.729 266.726 574.428 274.869Z" fill="#FFC727"/>
<path d="M606.324 311.737C606.102 324.3 599.453 336.461 584.937 339.315C550.664 346.083 541.166 287.605 575.439 280.854L576.119 280.732C544.032 287.796 553.229 343.143 585.903 336.688C591.432 335.832 596.511 332.862 600.246 328.299C603.98 323.735 606.132 317.872 606.324 311.737Z" fill="#FFC727"/>
<path opacity="0.1" d="M606.324 311.737C606.102 324.3 599.453 336.461 584.937 339.315C550.664 346.083 541.166 287.605 575.439 280.854L576.119 280.732C544.032 287.796 553.229 343.143 585.903 336.688C591.432 335.832 596.511 332.862 600.246 328.299C603.98 323.735 606.132 317.872 606.324 311.737Z" fill="black"/>
<path d="M582.656 288.492C582.941 288.531 583.2 288.692 583.378 288.939C583.555 289.187 583.638 289.501 583.606 289.814L583.4 291.798C586.299 292.424 588.961 293.987 591.046 296.287C591.216 296.428 591.351 296.613 591.44 296.825C591.528 297.038 591.567 297.271 591.553 297.505C591.506 297.839 591.343 298.14 591.097 298.344C590.852 298.549 590.545 298.641 590.239 298.601C590.089 298.585 589.943 298.538 589.81 298.46C589.677 298.382 589.559 298.276 589.463 298.148C587.759 296.138 585.559 294.717 583.131 294.06L581.643 307.979C588.324 310.449 590.904 313.633 590.382 318.418C589.812 323.638 585.411 326.857 579.759 326.335L579.348 330.18C579.331 330.335 579.287 330.486 579.217 330.622C579.148 330.759 579.055 330.879 578.943 330.976C578.831 331.073 578.703 331.144 578.566 331.187C578.429 331.23 578.286 331.242 578.145 331.224C578.003 331.206 577.867 331.157 577.742 331.081C577.618 331.004 577.509 330.902 577.421 330.779C577.332 330.656 577.267 330.515 577.228 330.365C577.19 330.214 577.178 330.057 577.195 329.901L577.607 326.004C573.873 325.205 570.49 323.055 567.998 319.897C567.807 319.724 567.672 319.488 567.614 319.224C567.556 318.959 567.578 318.681 567.676 318.432C567.774 318.182 567.944 317.975 568.159 317.841C568.374 317.706 568.623 317.652 568.868 317.687C569.169 317.729 569.445 317.89 569.644 318.14C571.736 321.012 574.666 323.003 577.939 323.777L579.443 309.684C572.873 307.178 570.372 304.099 570.895 299.14C571.417 294.181 575.802 290.858 581.311 291.415L581.517 289.536C581.552 289.236 581.689 288.962 581.9 288.768C582.112 288.575 582.382 288.476 582.656 288.492ZM579.649 307.161L581.105 293.659C576.72 293.19 573.538 295.678 573.19 299.244C572.842 302.811 573.95 304.882 579.649 307.161ZM581.232 310.432L579.775 324.09C584.287 324.577 587.516 322.072 587.912 318.314C588.355 314.904 587.01 312.624 581.311 310.449L581.232 310.432Z" fill="#FFC727"/>
<g opacity="0.1">
<path opacity="0.1" d="M582.656 288.493C582.941 288.532 583.2 288.693 583.378 288.94C583.555 289.188 583.638 289.502 583.606 289.815L583.4 291.799C586.299 292.425 588.961 293.988 591.046 296.288C591.216 296.428 591.351 296.614 591.44 296.826C591.528 297.039 591.567 297.272 591.553 297.506C591.506 297.84 591.343 298.141 591.097 298.345C590.852 298.55 590.545 298.642 590.239 298.602C590.089 298.586 589.943 298.539 589.81 298.461C589.677 298.383 589.559 298.277 589.463 298.149C587.759 296.139 585.559 294.718 583.131 294.061L581.643 307.98C588.324 310.45 590.904 313.634 590.382 318.419C589.812 323.639 585.411 326.858 579.759 326.336L579.348 330.181C579.331 330.336 579.287 330.486 579.217 330.623C579.148 330.76 579.055 330.88 578.943 330.977C578.831 331.074 578.703 331.145 578.566 331.188C578.429 331.231 578.286 331.243 578.145 331.225C578.003 331.207 577.867 331.158 577.742 331.081C577.618 331.005 577.509 330.903 577.421 330.78C577.332 330.657 577.267 330.516 577.228 330.366C577.19 330.215 577.178 330.058 577.195 329.902L577.607 326.005C573.873 325.206 570.49 323.056 567.998 319.898C567.807 319.725 567.672 319.489 567.614 319.225C567.556 318.96 567.578 318.682 567.676 318.433C567.774 318.183 567.944 317.976 568.159 317.841C568.374 317.707 568.623 317.653 568.868 317.688C569.169 317.73 569.445 317.891 569.644 318.141C571.736 321.013 574.666 323.004 577.939 323.778L579.443 309.685C572.873 307.179 570.372 304.1 570.895 299.141C571.417 294.182 575.802 290.859 581.311 291.416L581.517 289.537C581.552 289.237 581.689 288.963 581.9 288.769C582.112 288.576 582.382 288.477 582.656 288.493ZM579.649 307.162L581.105 293.66C576.72 293.191 573.538 295.679 573.19 299.245C572.842 302.812 573.95 304.883 579.649 307.162ZM581.232 310.433L579.775 324.091C584.287 324.578 587.516 322.073 587.912 318.315C588.355 314.905 587.01 312.625 581.311 310.45L581.232 310.433Z" fill="black"/>
</g>
<path d="M537.255 348.954C572.24 355.913 563.011 412.826 527.963 405.918C492.914 399.011 502.223 342.046 537.255 348.954Z" fill="#FFC727"/>
<path opacity="0.1" d="M537.255 348.954C572.24 355.913 563.011 412.826 527.963 405.918C492.914 399.011 502.223 342.046 537.255 348.954Z" fill="black"/>
<path d="M533.98 348.311C567.318 354.888 558.074 411.852 524.688 405.258C491.302 398.664 500.578 341.769 533.98 348.311Z" fill="#FFC727"/>
<path d="M508.193 378.132C508.367 388.276 513.734 398.107 525.48 400.421C553.183 405.884 560.861 358.663 533.189 353.147H532.651C558.597 358.854 551.157 403.605 524.736 398.385C520.25 397.691 516.131 395.279 513.105 391.574C510.079 387.869 508.339 383.109 508.193 378.132Z" fill="#FFC727"/>
<path opacity="0.1" d="M508.193 378.132C508.367 388.276 513.734 398.107 525.48 400.421C553.183 405.884 560.861 358.663 533.189 353.147H532.651C558.597 358.854 551.157 403.605 524.736 398.385C520.25 397.691 516.131 395.279 513.105 391.574C510.079 387.869 508.339 383.109 508.193 378.132Z" fill="black"/>
<path d="M531.289 357.306C531.517 357.356 531.717 357.503 531.847 357.715C531.978 357.926 532.027 358.185 531.985 358.437L531.732 360.02C534.038 360.7 536.106 362.124 537.668 364.109C537.798 364.232 537.898 364.388 537.959 364.565C538.02 364.741 538.04 364.931 538.017 365.118C537.992 365.251 537.944 365.377 537.875 365.489C537.806 365.601 537.717 365.697 537.614 365.772C537.511 365.846 537.396 365.897 537.275 365.922C537.154 365.948 537.029 365.946 536.909 365.918C536.667 365.868 536.452 365.719 536.307 365.501C535.013 363.769 533.284 362.492 531.336 361.829L529.468 372.913C534.724 375.296 536.655 378.028 535.99 381.908C535.278 386.101 531.574 388.415 527.046 387.65L526.524 390.747C526.47 390.988 526.335 391.198 526.145 391.333C525.956 391.468 525.726 391.519 525.504 391.474C525.282 391.43 525.083 391.294 524.949 391.094C524.815 390.894 524.755 390.645 524.783 390.399L525.321 387.267C522.348 386.397 519.724 384.462 517.865 381.769C517.757 381.65 517.678 381.503 517.634 381.342C517.589 381.182 517.582 381.011 517.611 380.847C517.665 380.591 517.803 380.367 518 380.219C518.196 380.071 518.436 380.009 518.672 380.046C518.792 380.064 518.907 380.109 519.011 380.178C519.114 380.247 519.204 380.338 519.274 380.446C520.82 382.888 523.084 384.67 525.685 385.492L527.6 374.218C522.424 371.799 520.556 369.154 521.268 365.205C521.981 361.255 525.637 358.802 530.054 359.585L530.307 358.089C530.353 357.847 530.479 357.634 530.661 357.489C530.842 357.344 531.066 357.279 531.289 357.306ZM527.949 372.199L529.785 361.377C526.271 360.751 523.579 362.578 523.089 365.414C522.598 368.25 523.5 370.007 527.949 372.199ZM529.12 374.931L527.268 385.857C530.893 386.519 533.6 384.709 534.122 381.699C534.597 378.967 533.616 377.036 529.12 374.931Z" fill="#FFC727"/>
<g opacity="0.1">
<path opacity="0.1" d="M531.289 357.306C531.517 357.356 531.717 357.503 531.847 357.715C531.978 357.926 532.027 358.185 531.985 358.437L531.732 360.02C534.038 360.7 536.106 362.124 537.668 364.109C537.798 364.232 537.898 364.388 537.959 364.565C538.02 364.741 538.04 364.931 538.017 365.118C537.992 365.251 537.944 365.377 537.875 365.489C537.806 365.601 537.717 365.697 537.614 365.772C537.511 365.846 537.396 365.897 537.275 365.922C537.154 365.948 537.029 365.946 536.909 365.918C536.667 365.868 536.452 365.719 536.307 365.501C535.013 363.769 533.284 362.492 531.336 361.829L529.468 372.913C534.724 375.296 536.655 378.028 535.99 381.908C535.278 386.101 531.574 388.415 527.046 387.65L526.524 390.747C526.47 390.988 526.335 391.198 526.145 391.333C525.956 391.468 525.726 391.519 525.504 391.474C525.282 391.43 525.083 391.294 524.949 391.094C524.815 390.894 524.755 390.645 524.783 390.399L525.321 387.267C522.348 386.397 519.724 384.462 517.865 381.769C517.757 381.65 517.678 381.503 517.634 381.342C517.589 381.182 517.582 381.011 517.611 380.847C517.665 380.591 517.803 380.367 518 380.219C518.196 380.071 518.436 380.009 518.672 380.046C518.792 380.064 518.907 380.109 519.011 380.178C519.114 380.247 519.204 380.338 519.274 380.446C520.82 382.888 523.084 384.67 525.685 385.492L527.6 374.218C522.424 371.799 520.556 369.154 521.268 365.205C521.981 361.255 525.637 358.802 530.054 359.585L530.307 358.089C530.353 357.847 530.479 357.634 530.661 357.489C530.842 357.344 531.066 357.279 531.289 357.306ZM527.949 372.199L529.785 361.377C526.271 360.751 523.579 362.578 523.089 365.414C522.598 368.25 523.5 370.007 527.949 372.199ZM529.12 374.931L527.268 385.857C530.893 386.519 533.6 384.709 534.122 381.699C534.597 378.967 533.616 377.036 529.12 374.931Z" fill="black"/>
</g>
</svg>
