<svg width="56" height="56" viewBox="0 0 56 56" fill="none" xmlns="http://www.w3.org/2000/svg">
<g filter="url(#filter0_d_531_1491)">
<path d="M22.6554 29.3149C26.091 29.3149 28.8737 26.5324 28.8737 23.0969C28.8737 19.6615 26.091 16.8789 22.6554 16.8789C19.2198 16.8789 16.4371 19.6615 16.4371 23.0969C16.4371 26.5324 19.2198 29.3149 22.6554 29.3149ZM22.6554 19.9879C24.3654 19.9879 25.7646 21.387 25.7646 23.0969C25.7646 24.8069 24.3654 26.2059 22.6554 26.2059C20.9454 26.2059 19.5462 24.8069 19.5462 23.0969C19.5462 21.387 20.9454 19.9879 22.6554 19.9879ZM22.6554 30.8694C18.5047 30.8694 10.2188 32.9524 10.2188 37.0874V40.1964C10.2188 41.0514 10.9183 41.7509 11.7733 41.7509H33.5375C34.3925 41.7509 35.0921 41.0514 35.0921 40.1964V37.0874C35.0921 32.9524 26.8061 30.8694 22.6554 30.8694ZM31.9829 38.6419H13.3279V37.103C13.6388 35.9837 18.458 33.9784 22.6554 33.9784C26.8528 33.9784 31.672 35.9837 31.9829 37.0874V38.6419Z" fill="black"/>
<path d="M44.8456 7.30171L39.8034 12.3543L37.8313 10.3716C37.6306 10.1709 37.3584 10.0581 37.0745 10.0581C36.7906 10.0581 36.5184 10.1709 36.3176 10.3716C36.1169 10.5723 36.0041 10.8446 36.0041 11.1284C36.0041 11.269 36.0318 11.4082 36.0856 11.538C36.1394 11.6679 36.2182 11.7859 36.3176 11.8853L39.0466 14.6141C39.1457 14.714 39.2636 14.7933 39.3935 14.8474C39.5234 14.9015 39.6627 14.9294 39.8034 14.9294C39.9442 14.9294 40.0835 14.9015 40.2134 14.8474C40.3433 14.7933 40.4612 14.714 40.5603 14.6141L46.3593 8.81535C46.4587 8.71596 46.5376 8.59797 46.5914 8.46812C46.6451 8.33826 46.6728 8.19909 46.6728 8.05853C46.6728 7.91798 46.6451 7.7788 46.5914 7.64894C46.5376 7.51909 46.4587 7.4011 46.3593 7.30171C46.2599 7.20232 46.1419 7.12349 46.0121 7.0697C45.8822 7.01591 45.743 6.98823 45.6025 6.98823C45.4619 6.98823 45.3227 7.01591 45.1929 7.0697C45.063 7.12349 44.945 7.20232 44.8456 7.30171ZM41.3385 0C39.9386 0 38.5524 0.275714 37.2591 0.811401C35.9657 1.34709 34.7906 2.13226 33.8007 3.12208C31.8016 5.12111 30.6785 7.83238 30.6785 10.6594C30.6692 13.1208 31.5215 15.5079 33.0876 17.4069L30.9556 19.5387C30.8077 19.6886 30.7075 19.879 30.6677 20.0858C30.6278 20.2925 30.6502 20.5065 30.7318 20.7006C30.8203 20.8924 30.9639 21.0536 31.1442 21.1637C31.3245 21.2737 31.5334 21.3278 31.7445 21.3189H41.3385C44.1657 21.3189 46.8771 20.1958 48.8762 18.1968C50.8754 16.1978 51.9985 13.4865 51.9985 10.6594C51.9985 7.83238 50.8754 5.12111 48.8762 3.12208C46.8771 1.12304 44.1657 0 41.3385 0ZM41.3385 19.187H34.3135L35.3049 18.1957C35.5035 17.9959 35.6149 17.7258 35.6149 17.4442C35.6149 17.1626 35.5035 16.8924 35.3049 16.6927C33.9091 15.2985 33.0399 13.4634 32.8453 11.5002C32.6508 9.53705 33.143 7.56714 34.2381 5.92614C35.3332 4.28513 36.9634 3.07456 38.851 2.50067C40.7386 1.92679 42.7668 2.02508 44.59 2.77882C46.4132 3.53256 47.9187 4.8951 48.85 6.63432C49.7812 8.37353 50.0806 10.3818 49.6971 12.317C49.3136 14.2522 48.271 15.9945 46.7469 17.2472C45.2227 18.4999 43.3114 19.1854 41.3385 19.187Z" fill="black"/>
</g>
<defs>
<filter id="filter0_d_531_1491" x="0" y="0" width="56" height="55.9688" filterUnits="userSpaceOnUse" color-interpolation-filters="sRGB">
<feFlood flood-opacity="0" result="BackgroundImageFix"/>
<feColorMatrix in="SourceAlpha" type="matrix" values="0 0 0 0 0 0 0 0 0 0 0 0 0 0 0 0 0 0 127 0" result="hardAlpha"/>
<feOffset dy="4"/>
<feGaussianBlur stdDeviation="2"/>
<feComposite in2="hardAlpha" operator="out"/>
<feColorMatrix type="matrix" values="0 0 0 0 0 0 0 0 0 0 0 0 0 0 0 0 0 0 0.25 0"/>
<feBlend mode="normal" in2="BackgroundImageFix" result="effect1_dropShadow_531_1491"/>
<feBlend mode="normal" in="SourceGraphic" in2="effect1_dropShadow_531_1491" result="shape"/>
</filter>
</defs>
</svg>
