<svg width="28" height="28" viewBox="0 0 28 28" fill="none" xmlns="http://www.w3.org/2000/svg">
<path d="M2.90952 22.0679H7.01621V17.9599C7.01621 17.4581 7.42454 17.0496 7.92738 17.0496H12.0341V12.9417C12.0341 12.4375 12.4424 12.0279 12.9452 12.0279H17.0519V7.92105C17.0519 7.41688 17.4603 7.00842 17.9643 7.00842H22.0698V2.9016C22.0698 2.39744 22.4781 1.98897 22.9821 1.98897H27.0888C27.5905 1.98897 28 2.39744 28 2.9016V27.0874C28 27.5915 27.5917 28 27.0877 28H2.90952C2.66755 28 2.43549 27.9039 2.2644 27.7327C2.0933 27.5615 1.99718 27.3294 1.99718 27.0874V22.9794C1.99718 22.4776 2.40551 22.0691 2.90952 22.0691V22.0679ZM0.200501 18.5843C0.0721199 18.4558 0 18.2816 0 18.1C0 17.9183 0.0721199 17.7441 0.200501 17.6157L17.6189 0.191729C17.7481 0.0671962 17.9211 -0.00163819 18.1005 2.9615e-05C18.2799 0.00169742 18.4515 0.0737342 18.5784 0.200648C18.7052 0.327561 18.7773 0.499213 18.7789 0.678688C18.7806 0.858163 18.7118 1.03112 18.5873 1.16037L1.16884 18.5843C0.900505 18.8527 0.468836 18.8527 0.200501 18.5843Z" fill="black"/>
</svg>
