<svg width="151" height="151" viewBox="0 0 151 151" fill="none" xmlns="http://www.w3.org/2000/svg">
<path d="M118.128 75.1499C118.128 51.449 98.8469 32.168 75.146 32.168C51.4451 32.168 32.1641 51.449 32.1641 75.1499C32.1641 88.2465 38.0674 99.9728 47.3342 107.862V122.143L35.4327 134.045C34.9575 134.516 34.6923 135.159 34.6923 135.831V140.888H39.749V136.878L51.6504 124.976C52.1256 124.504 52.3909 123.862 52.3909 123.189V111.549C54.7747 113.043 57.3109 114.308 59.9759 115.317V127.2L53.1312 134.045C52.656 134.516 52.3907 135.159 52.3907 135.831V140.888H57.4474V136.878L64.2922 130.033C64.7674 129.561 65.0326 128.919 65.0326 128.246V116.881C67.4876 117.475 70.0217 117.852 72.6177 118.004V140.888H77.6744V118.004C80.2704 117.853 82.8045 117.476 85.2594 116.881V128.246C85.2594 128.919 85.5247 129.561 85.9999 130.034L92.8446 136.878V140.888H97.9013V135.831C97.9013 135.159 97.6361 134.516 97.1609 134.043L90.3161 127.2V115.317C92.9811 114.305 95.5173 113.043 97.9012 111.549V123.189C97.9012 123.862 98.1664 124.504 98.6416 124.977L110.543 136.878V140.888H115.6V135.831C115.6 135.159 115.335 134.516 114.859 134.043L102.958 122.143V107.862C112.225 99.9737 118.128 88.2473 118.128 75.1499ZM75.146 37.2247C79.6419 37.2247 84.4581 43.3413 87.4289 53.4061C79.3335 55.0349 70.9596 55.0349 62.8631 53.4061C65.8339 43.3413 70.6502 37.2247 75.146 37.2247ZM75.146 59.6987C79.6722 59.6987 84.1929 59.2212 88.6399 58.3126C89.5395 62.5984 90.1163 67.4022 90.2608 72.6204L60.0303 72.6216C60.1748 67.4033 60.7505 62.5963 61.6512 58.3137C66.0985 59.2212 70.6189 59.6987 75.1451 59.6987L75.146 59.6987ZM95.3142 77.6783H112.942C112.44 85.2249 109.73 92.1609 105.442 97.8666C101.615 95.9151 97.6327 94.3573 93.5466 93.1937C94.5591 88.4485 95.1686 83.2224 95.3142 77.6783H95.3142ZM88.6399 91.9882C79.7499 90.1732 70.5441 90.1732 61.6542 91.9882C60.7546 87.7024 60.1778 82.8985 60.0333 77.6783H90.2608C90.1175 82.8997 89.5407 87.7035 88.6411 91.9882H88.6399ZM95.3142 72.6216C95.1674 67.0771 94.5579 61.8514 93.5466 57.1073C97.6327 55.9447 101.615 54.3871 105.442 52.4344C109.73 58.1412 112.44 65.0761 112.941 72.6227L95.3141 72.6239L95.3142 72.6216ZM54.979 72.6216H37.3517C37.8528 65.075 40.5628 58.1389 44.8509 52.4332C48.6784 54.3848 52.6605 55.9446 56.7466 57.1062C55.7341 61.8537 55.1246 67.0774 54.979 72.6216H54.979ZM54.979 77.6783C55.1258 83.2227 55.7353 88.4485 56.7466 93.1948C52.6605 94.3552 48.6784 95.9128 44.851 97.8678C40.5629 92.1609 37.8528 85.226 37.3517 77.6794L54.979 77.6783ZM57.9769 98.0969C59.5549 103.495 61.6781 108.051 64.2042 111.452C58.083 109.604 52.6087 106.254 48.2204 101.822C51.3729 100.289 54.6395 99.0553 57.9772 98.0969H57.9769ZM62.8643 96.8937C70.9596 95.265 79.3335 95.265 87.43 96.8937C84.4593 106.959 79.643 113.075 75.1472 113.075C70.6513 113.075 65.835 106.959 62.8643 96.8937ZM92.3174 98.0969C95.6551 99.0552 98.9215 100.289 102.076 101.818C97.6868 106.251 92.2134 109.601 86.0925 111.449C88.6152 108.051 90.7394 103.496 92.3174 98.0969ZM102.076 48.4806C98.9203 50.0123 95.6537 51.2437 92.3174 52.202C90.7395 46.8044 88.6162 42.2478 86.0902 38.8469C92.2134 40.6991 97.6845 44.0492 102.076 48.4806ZM64.203 38.8503C61.6769 42.249 59.5561 46.8044 57.9758 52.2055C54.6381 51.2472 51.3717 50.0135 48.2169 48.4841C52.6087 44.0492 58.0798 40.6993 64.203 38.8503Z" fill="#006872"/>
<path d="M110.547 145.943H115.604V151H110.547V145.943Z" fill="#006872"/>
<path d="M92.8438 145.943H97.9005V151H92.8438V145.943Z" fill="#006872"/>
<path d="M34.6953 145.943H39.752V151H34.6953V145.943Z" fill="#006872"/>
<path d="M52.3906 145.943H57.4473V151H52.3906V145.943Z" fill="#006872"/>
<path d="M72.6172 145.943H77.6739V151H72.6172V145.943Z" fill="#006872"/>
<path d="M66.2109 25.3222L69.7856 28.8968C72.7439 25.9385 77.5524 25.9385 80.5107 28.8968L84.0854 25.3222C79.1584 20.3952 71.1376 20.3952 66.2109 25.3222Z" fill="#006872"/>
<path d="M92.0395 17.7376C82.7253 8.42341 67.5697 8.42341 58.2578 17.7376L61.8325 21.3122C69.1748 13.9699 81.1213 13.9699 88.4636 21.3122L92.0395 17.7376Z" fill="#006872"/>
<path d="M99.6862 10.1527C86.1551 -3.38423 64.1333 -3.38423 50.6016 10.1527L54.1762 13.7274C65.7355 2.16802 84.5511 2.16802 96.1122 13.7274L99.6862 10.1527Z" fill="#006872"/>
<path d="M25.3211 66.2129C20.393 71.141 20.393 79.1606 25.3211 84.0885L28.8957 80.5138C25.9374 77.5555 25.9374 72.747 28.8957 69.7887L25.3211 66.2129Z" fill="#006872"/>
<path d="M17.7356 92.0422L21.3103 88.4676C13.9679 81.1252 13.9679 69.1787 21.3103 61.8364L17.7356 58.2617C8.42146 67.5738 8.42146 82.7281 17.7356 92.0434V92.0422Z" fill="#006872"/>
<path d="M10.1501 99.6927L13.7248 96.118C2.16542 84.5552 2.16542 65.746 13.7248 54.1821L10.1501 50.6074C-3.38337 64.1409 -3.38337 86.1575 10.1501 99.6921V99.6927Z" fill="#006872"/>
<path d="M124.973 84.0865C129.901 79.1584 129.901 71.1388 124.973 66.2109L121.398 69.7856C124.357 72.7439 124.357 77.5524 121.398 80.5107L124.973 84.0865Z" fill="#006872"/>
<path d="M128.984 61.8317C136.327 69.174 136.327 81.1205 128.984 88.4629L132.559 92.0375C141.873 82.7234 141.873 67.5677 132.559 58.2559L128.984 61.8317Z" fill="#006872"/>
<path d="M136.57 96.1155L140.145 99.6901C153.68 86.1555 153.68 64.1372 140.145 50.6055L136.57 54.1801C148.131 65.7429 148.131 84.555 136.57 96.1161V96.1155Z" fill="#006872"/>
</svg>
