<svg width="258" height="257" viewBox="0 0 258 257" fill="none" xmlns="http://www.w3.org/2000/svg">
<path d="M239.867 34.2667V42.8333C242.138 42.8333 244.318 43.7359 245.925 45.3421C247.531 46.9484 248.433 49.1283 248.433 51.4V179.9H8.56667V51.4C8.56667 49.1283 9.46925 46.9484 11.0755 45.3421C12.6817 43.7359 14.8616 42.8333 17.1333 42.8333V34.2667C12.59 34.2667 8.23183 36.0718 5.01762 39.2843C1.80512 42.4987 0 46.8567 0 51.4V197.033C0 201.577 1.80512 205.935 5.01762 209.149C8.23203 212.362 12.5901 214.167 17.1333 214.167H101.327L91.0465 248.433H81.3843V257H175.618V248.433H165.955L155.675 214.167H239.869C244.412 214.167 248.77 212.362 251.984 209.149C255.197 205.935 257.002 201.577 257.002 197.033V51.4C257.002 46.8566 255.197 42.4985 251.984 39.2843C248.77 36.0718 244.412 34.2667 239.869 34.2667H239.867ZM157.01 248.433H99.9901L110.27 214.167H146.73L157.01 248.433ZM248.433 197.033C248.433 199.305 247.531 201.485 245.925 203.091C244.318 204.697 242.138 205.6 239.867 205.6H17.1333C14.8616 205.6 12.6817 204.697 11.0755 203.091C9.46925 201.485 8.56667 199.305 8.56667 197.033V188.467H248.433V197.033Z" fill="#006872"/>
<path d="M42.8326 171.333H214.166C218.709 171.333 223.067 169.528 226.282 166.316C229.494 163.101 231.299 158.743 231.299 154.2V17.1333C231.299 12.59 229.494 8.23183 226.282 5.01762C223.067 1.80512 218.709 0 214.166 0H42.8326C38.2892 0 33.9311 1.80512 30.7168 5.01762C27.5043 8.23203 25.6992 12.5901 25.6992 17.1333V154.2C25.6992 158.743 27.5043 163.102 30.7168 166.316C33.9312 169.528 38.2893 171.333 42.8326 171.333ZM34.2659 17.1333C34.2659 14.8616 35.1685 12.6817 36.7747 11.0755C38.3809 9.46925 40.5609 8.56667 42.8326 8.56667H214.166C216.438 8.56667 218.618 9.46925 220.224 11.0755C221.83 12.6817 222.733 14.8616 222.733 17.1333V154.2C222.733 156.472 221.83 158.652 220.224 160.258C218.618 161.864 216.438 162.767 214.166 162.767H42.8326C40.5609 162.767 38.3809 161.864 36.7747 160.258C35.1685 158.652 34.2659 156.472 34.2659 154.2V17.1333Z" fill="#006872"/>
<path d="M42.8359 34.2667H214.169V42.8333H42.8359V34.2667Z" fill="#006872"/>
<path d="M42.8359 55.6833H81.3859V64.25H42.8359V55.6833Z" fill="#006872"/>
<path d="M42.8359 72.8167H72.8193V81.3833H42.8359V72.8167Z" fill="#006872"/>
<path d="M42.8359 89.95H68.5359V98.5167H42.8359V89.95Z" fill="#006872"/>
<path d="M42.8359 107.083H68.5359V115.65H42.8359V107.083Z" fill="#006872"/>
<path d="M42.8359 124.217H68.5359V132.783H42.8359V124.217Z" fill="#006872"/>
<path d="M42.8359 141.35H81.3859V149.917H42.8359V141.35Z" fill="#006872"/>
<path d="M175.617 55.6833H214.167V64.25H175.617V55.6833Z" fill="#006872"/>
<path d="M184.184 72.8167H214.167V81.3833H184.184V72.8167Z" fill="#006872"/>
<path d="M188.465 89.95H214.165V98.5167H188.465V89.95Z" fill="#006872"/>
<path d="M188.465 107.083H214.165V115.65H188.465V107.083Z" fill="#006872"/>
<path d="M188.465 124.217H214.165V132.783H188.465V124.217Z" fill="#006872"/>
<path d="M175.617 141.35H214.167V149.917H175.617V141.35Z" fill="#006872"/>
<path d="M42.8359 17.1334H51.4026V25.7H42.8359V17.1334Z" fill="#006872"/>
<path d="M59.9648 17.1334H68.5315V25.7H59.9648V17.1334Z" fill="#006872"/>
<path d="M77.1016 17.1334H85.6682V25.7H77.1016V17.1334Z" fill="#006872"/>
<path d="M163.265 119.39C163.845 118.17 164.363 116.921 164.816 115.65H175.618C176.754 115.65 177.844 115.198 178.647 114.395C179.45 113.592 179.901 112.502 179.901 111.366V94.233C179.901 93.0972 179.45 92.0072 178.647 91.2041C177.844 90.401 176.754 89.9497 175.618 89.9497H164.816C164.363 88.678 163.845 87.4294 163.265 86.2094L170.906 78.5684C172.577 76.8972 172.577 74.1857 170.906 72.5125L158.788 60.3949C157.115 58.7236 154.404 58.7236 152.733 60.3949L145.092 68.0324C143.872 67.453 142.623 66.9367 141.351 66.4854V55.6836C141.351 54.5478 140.9 53.4578 140.097 52.6547C139.294 51.8516 138.204 51.4003 137.068 51.4003H119.935C117.569 51.4003 115.651 53.3182 115.651 55.6836V66.4854C114.38 66.9386 113.131 67.4568 111.911 68.0362L104.27 60.3953C102.599 58.724 99.8874 58.724 98.2142 60.3953L86.0966 72.5129C84.4253 74.1861 84.4253 76.8976 86.0966 78.5688L93.7341 86.2098C93.1547 87.4298 92.6365 88.6785 92.1833 89.9501H81.3849C79.0195 89.9501 77.1016 91.868 77.1016 94.2334V111.367C77.1016 112.503 77.5528 113.593 78.356 114.396C79.1591 115.199 80.2491 115.65 81.3849 115.65H92.1867C92.6399 116.922 93.1581 118.17 93.7375 119.39L86.0966 127.031C84.4253 128.703 84.4253 131.414 86.0966 133.087L98.2142 145.205C99.8874 146.876 102.599 146.876 104.27 145.205L111.911 137.567C113.131 138.147 114.38 138.665 115.651 139.118V149.917C115.651 151.052 116.103 152.142 116.906 152.945C117.709 153.749 118.799 154.2 119.935 154.2H137.068C138.204 154.2 139.294 153.749 140.097 152.945C140.9 152.142 141.351 151.052 141.351 149.917V139.115C142.623 138.662 143.872 138.143 145.092 137.564L152.733 145.205C154.404 146.876 157.115 146.876 158.788 145.205L170.906 133.087C172.577 131.414 172.577 128.703 170.906 127.031L163.265 119.39ZM155.762 136.095L148.908 129.242H148.907C147.526 127.857 145.382 127.586 143.699 128.582C141.29 129.999 138.695 131.073 135.989 131.771C134.098 132.261 132.777 133.965 132.777 135.919V145.633H124.218V135.944C124.218 133.992 122.897 132.286 121.006 131.798C118.3 131.098 115.705 130.024 113.296 128.607C111.613 127.613 109.469 127.884 108.087 129.267L101.233 136.12L95.1774 130.064L102.031 123.211C103.413 121.828 103.685 119.685 102.69 118.002C101.272 115.592 100.199 112.997 99.499 110.292C99.0114 108.4 97.3057 107.079 95.3533 107.079H85.6681V98.5164H95.3572C97.3096 98.5164 99.0153 97.1951 99.5029 95.3039C100.203 92.5982 101.277 90.0033 102.694 87.5939C103.689 85.9112 103.417 83.7676 102.035 82.3849L95.1813 75.5315L101.237 69.4756L108.091 76.329C109.473 77.7115 111.617 77.983 113.3 76.9887C115.709 75.5699 118.304 74.4971 121.01 73.7973C122.901 73.3096 124.222 71.6039 124.222 69.6516V59.9663H132.789V69.6555C132.789 71.6079 134.11 73.3136 136.001 73.8012C138.707 74.501 141.304 75.5757 143.711 76.9926C145.396 77.9869 147.538 77.7155 148.92 76.3329L155.774 69.4796L161.829 75.5355L154.976 82.3888C153.594 83.7713 153.322 85.9149 154.316 87.5978C155.735 90.0072 156.81 92.6022 157.508 95.3078C157.997 97.199 159.701 98.5203 161.655 98.5203H171.335V107.087H161.646C159.693 107.087 157.988 108.408 157.5 110.299C156.8 113.005 155.725 115.602 154.309 118.009C153.314 119.694 153.586 121.836 154.968 123.218L161.822 130.072L155.762 136.095Z" fill="#006872"/>
<path d="M128.503 81.3833C122.823 81.3833 117.376 83.6397 113.358 87.6551C109.342 91.6726 107.086 97.1205 107.086 102.8C107.086 108.479 109.342 113.927 113.358 117.945C117.375 121.96 122.823 124.217 128.503 124.217C134.182 124.217 139.629 121.96 143.647 117.945C147.663 113.927 149.919 108.479 149.919 102.8C149.912 97.1225 147.653 91.6785 143.64 87.6629C139.624 83.6492 134.18 81.3912 128.503 81.3833ZM128.503 115.65C125.095 115.65 121.825 114.296 119.416 111.887C117.007 109.477 115.653 106.207 115.653 102.8C115.653 99.3932 117.007 96.1227 119.416 93.7137C121.825 91.3048 125.096 89.9505 128.503 89.9505C131.91 89.9505 135.18 91.3043 137.589 93.7137C139.998 96.1231 141.352 99.3932 141.352 102.8C141.352 106.207 139.999 109.478 137.589 111.887C135.18 114.296 131.91 115.65 128.503 115.65Z" fill="#006872"/>
</svg>
