<svg width="289" height="359" viewBox="0 0 289 359" fill="none" xmlns="http://www.w3.org/2000/svg">
<path d="M285.98 35.0925V354.055C285.98 355.13 285.11 356 284.035 356L4.94518 355.997C3.86995 355.997 3 355.127 3 354.052V4.94518C3 3.86995 3.86729 3 4.94518 3H251.943C252.206 3 252.452 3.05472 252.682 3.14774C252.78 3.18604 252.862 3.26538 252.952 3.3201C253.062 3.38576 253.188 3.43774 253.278 3.52803L285.37 33.6747C285.761 34.0413 285.977 34.5529 285.977 35.0919L285.98 35.0925ZM253.891 34.1185H280.161L253.891 9.44116V34.1185ZM282.093 38.009H251.943C250.873 38.009 249.998 37.1389 249.998 36.0638V6.89134H6.88735V352.104H282.09L282.093 38.009ZM251.164 239.552C251.164 240.627 250.294 241.497 249.218 241.497H39.7683C38.6931 241.497 37.8231 240.627 37.8231 239.552C37.8231 238.477 38.6932 237.607 39.7683 237.607H249.218C250.296 237.607 251.164 238.477 251.164 239.552ZM251.164 309.566C251.164 310.641 250.294 311.511 249.218 311.511H39.7683C38.6931 311.511 37.8231 310.641 37.8231 309.566C37.8231 308.491 38.6932 307.621 39.7683 307.621H249.218C250.296 307.621 251.164 308.491 251.164 309.566ZM251.164 216.211C251.164 217.287 250.294 218.157 249.218 218.157L39.7683 218.159C38.6931 218.159 37.8231 217.289 37.8231 216.214C37.8231 215.139 38.6932 214.269 39.7683 214.269H249.218C250.296 214.272 251.164 215.139 251.164 216.211ZM251.164 192.877C251.164 193.953 250.294 194.823 249.218 194.823H39.7683C38.6931 194.823 37.8231 193.953 37.8231 192.877C37.8231 191.802 38.6932 190.932 39.7683 190.932H249.218C250.296 190.932 251.164 191.802 251.164 192.877ZM251.164 262.891C251.164 263.967 250.294 264.837 249.218 264.837H39.7683C38.6931 264.837 37.8231 263.967 37.8231 262.891C37.8231 261.816 38.6932 260.946 39.7683 260.946H249.218C250.296 260.949 251.164 261.816 251.164 262.891ZM251.164 286.231C251.164 287.306 250.294 288.176 249.218 288.176H39.7683C38.6931 288.176 37.8231 287.306 37.8231 286.231C37.8231 285.156 38.6932 284.286 39.7683 284.286H249.218C250.296 284.286 251.164 285.156 251.164 286.231ZM146.029 169.855C112.506 169.855 85.2347 142.583 85.2347 109.061C85.2347 75.5384 112.506 48.2668 146.029 48.2668C179.551 48.2668 206.823 75.5384 206.823 109.061C206.823 142.586 179.551 169.855 146.029 169.855ZM146.029 52.1904C114.671 52.1904 89.1583 77.7054 89.1583 109.061C89.1583 140.419 114.673 165.931 146.029 165.931C177.387 165.931 202.899 140.416 202.899 109.061C202.902 77.7047 177.387 52.1904 146.029 52.1904ZM142.056 131.922L185.004 88.9802C185.77 88.2141 185.77 86.972 185.004 86.206C184.238 85.44 182.996 85.4399 182.23 86.206L140.598 127.836L109.751 100.118C108.952 99.4017 107.707 99.4646 106.982 100.266C106.257 101.071 106.329 102.31 107.13 103.035L139.362 131.997C139.734 132.331 140.202 132.501 140.672 132.501C141.176 132.498 141.676 132.304 142.057 131.923L142.056 131.922Z" fill="#006872" stroke="#006872" stroke-width="6"/>
</svg>
