<svg width="170" height="146" viewBox="0 0 170 146" fill="none" xmlns="http://www.w3.org/2000/svg">
<path fill-rule="evenodd" clip-rule="evenodd" d="M119.34 95.1142C108.177 106.253 92.1888 111.084 76.7229 107.991C61.2583 104.899 48.358 94.2918 42.3359 79.7158H43.3888C44.1855 82.1599 46.0633 84.1015 48.4792 84.9813C50.8951 85.8602 53.5819 85.5807 55.7636 84.2214C57.9466 82.8633 59.383 80.5762 59.6601 78.0205C59.9359 75.4637 59.0228 72.9228 57.1818 71.1283L67.9114 57.3356C69.3087 58.2941 70.9634 58.8064 72.6573 58.8052C74.0032 58.8125 75.3294 58.4889 76.5196 57.8602L84.3629 67.1373C83.5245 68.9269 83.3467 70.9542 83.8591 72.8613C84.3726 74.7697 85.5444 76.4343 87.1673 77.5608C88.7901 78.6872 90.7585 79.2044 92.7259 79.0193C94.6919 78.833 96.5304 77.9579 97.9129 76.5483C99.2968 75.1388 100.138 73.2844 100.285 71.3145C100.433 69.3448 99.879 67.385 98.7219 65.7841L112.114 46.2822C113.145 46.7013 114.248 46.9195 115.361 46.922C117.23 46.9232 119.047 46.2969 120.52 45.1435C121.992 43.9913 123.036 42.3783 123.485 40.5629H128.135C132.579 49.4284 134.12 59.4681 132.54 69.2577C130.96 79.0486 126.338 88.0929 119.329 95.1103L119.34 95.1142ZM55.7217 77.1061C55.7193 75.3338 54.6504 73.738 53.0117 73.0599C51.3742 72.3833 49.4902 72.7596 48.2376 74.0135C46.9849 75.2674 46.6098 77.1513 47.2889 78.7889C47.9667 80.4265 49.5638 81.4941 51.336 81.4953C53.7567 81.4916 55.7179 79.5268 55.7179 77.1061L55.7217 77.1061ZM68.2851 50.4374C68.279 52.2098 69.3417 53.8118 70.978 54.4946C72.6143 55.1773 74.4995 54.8059 75.7559 53.5545C77.011 52.303 77.3885 50.4179 76.7119 48.7791C76.0354 47.1415 74.437 46.0727 72.6648 46.0727C70.2539 46.0776 68.2989 48.0265 68.2854 50.4374L68.2851 50.4374ZM91.9522 66.309L91.951 66.3077C90.1799 66.309 88.5841 67.3778 87.9073 69.0141C87.2307 70.6516 87.6082 72.5356 88.8621 73.7857C90.1173 75.0372 92.0012 75.4086 93.6375 74.7271C95.2726 74.0456 96.3353 72.446 96.3316 70.6749C96.3279 68.2627 94.3717 66.309 91.9594 66.3103L91.9522 66.309ZM110.987 38.575C110.991 40.3461 112.061 41.9409 113.699 42.6161C115.336 43.2914 117.219 42.914 118.47 41.6601C119.722 40.4062 120.094 38.5223 119.416 36.8872C118.737 35.2509 117.14 34.1845 115.369 34.1845C114.206 34.1845 113.091 34.6479 112.268 35.4715C111.447 36.2952 110.986 37.4118 110.987 38.575H110.987ZM52.6307 28.3944C43.7592 37.2232 38.7839 49.2312 38.8147 61.746C38.8098 66.4847 39.5158 71.1986 40.9082 75.7277H43.0911C43.4209 73.7776 44.4284 72.0066 45.9384 70.7267C47.4473 69.447 49.3593 68.7423 51.3376 68.7374C52.1454 68.7459 52.9482 68.8661 53.7229 69.094L65.231 54.2887C64.6108 53.1022 64.2897 51.7821 64.2958 50.4436C64.2946 47.7777 65.5632 45.2726 67.7132 43.6949C69.8618 42.1187 72.6332 41.6602 75.1751 42.4606C77.7172 43.261 79.7262 45.2246 80.5828 47.7484C81.4408 50.2721 81.0449 53.0532 79.5165 55.2374L86.921 64.0135C88.1614 63.0782 89.6384 62.5071 91.184 62.3649C92.7308 62.2227 94.2875 62.5144 95.6773 63.207L108.924 43.8935V43.8923C107.682 42.4006 107.003 40.5204 107.004 38.58C107.003 35.8284 108.355 33.2521 110.62 31.6891C112.884 30.1264 115.773 29.7783 118.344 30.7551C120.916 31.7333 122.842 33.9136 123.497 36.5858H125.889H125.888C124.015 33.6245 121.819 30.8788 119.342 28.3993C110.492 19.5583 98.495 14.5905 85.9872 14.5905C73.479 14.5905 61.4804 19.5583 52.6325 28.3993L52.6307 28.3944ZM122.161 25.5961C110.916 14.3541 95.0815 8.98061 79.3176 11.0581C63.5527 13.1357 49.6507 22.4276 41.7018 36.1997C33.7531 49.9718 32.6634 66.6582 38.7515 81.3462C44.8395 96.0361 57.4141 107.058 72.7746 111.17C88.135 115.281 104.532 112.014 117.146 102.33C129.76 92.6459 137.149 77.6471 137.143 61.746C137.184 48.1751 131.787 35.1532 122.158 25.5892L122.161 25.5961ZM164.044 139.815C162.79 141.087 161.076 141.798 159.289 141.786C157.883 141.786 156.512 141.346 155.37 140.527L164.749 131.155C165.676 132.448 166.115 134.028 165.986 135.614C165.856 137.2 165.168 138.688 164.044 139.815L164.044 139.815ZM141.473 107.737L131.96 117.25L134.967 120.264L144.484 110.751L141.478 107.737H141.473ZM128.304 106.717L132.585 110.988L135.216 108.354L130.934 104.083C130.509 104.533 130.082 104.984 129.64 105.406C129.197 105.828 128.754 106.285 128.304 106.711V106.717ZM45.1461 102.611C53.2247 110.69 63.5169 116.191 74.7223 118.42C85.9276 120.649 97.5412 119.505 108.096 115.133C118.65 110.761 127.672 103.358 134.019 93.8585C140.366 84.3594 143.754 73.1908 143.754 61.7651C143.754 50.3395 140.366 39.173 134.019 29.675C127.672 20.1759 118.65 12.7726 108.096 8.40043C97.54 4.02824 85.9267 2.88483 74.7223 5.11297C63.5169 7.3413 53.2247 12.8435 45.1461 20.9221C34.327 31.761 28.2497 46.4508 28.2497 61.7667C28.2497 77.0829 34.3267 91.7718 45.1461 102.611V102.611ZM137.783 123.065L147.298 113.55L148.82 115.093L139.303 124.605L137.792 123.063L137.783 123.065ZM152.48 137.776L161.998 128.254L151.635 117.885L142.124 127.406L152.482 137.776H152.48ZM142.884 103.511C142.512 103.136 142.004 102.924 141.475 102.924C140.945 102.924 140.438 103.136 140.065 103.511L138.032 105.552L133.58 101.093C140.434 92.7825 145.001 82.8285 146.827 72.2127C148.655 61.5969 147.679 50.6881 143.999 40.5649H163.692C164.231 40.5809 164.755 40.3786 165.142 40.0036C165.528 39.6285 165.747 39.1112 165.747 38.5719C165.747 38.0327 165.528 37.5166 165.142 37.1416C164.755 36.7653 164.231 36.563 163.692 36.5802H142.386C136.129 22.558 124.871 11.3712 110.81 5.20227C96.75 -0.966621 80.8957 -1.67514 66.3414 3.21542C51.7861 8.10473 39.5757 18.2426 32.0924 31.6504C24.6094 45.0572 22.391 60.7719 25.8683 75.7269H1.93169C0.85552 75.76 0 76.6425 0 77.7199C0 78.7961 0.855551 79.6786 1.93169 79.7117H26.9248C30.8925 92.7263 39.0445 104.066 50.1162 111.971C61.1892 119.877 74.5615 123.907 88.1588 123.434C101.755 122.962 114.816 118.014 125.313 109.358L129.766 113.819L127.733 115.857V115.858C127.36 116.228 127.149 116.732 127.149 117.258C127.149 117.784 127.36 118.287 127.733 118.658L151.714 142.653C154.421 145.36 158.367 146.415 162.063 145.423C165.76 144.43 168.646 141.541 169.636 137.845C170.625 134.147 169.567 130.203 166.86 127.497L142.884 103.511Z" fill="#006872"/>
</svg>
