<svg width="32" height="51" viewBox="0 0 32 51" fill="none" xmlns="http://www.w3.org/2000/svg">
<path d="M6.625 9.5625C6.625 7.02637 7.61272 4.59411 9.37087 2.80079C11.129 1.00747 13.5136 0 16 0C18.4864 0 20.871 1.00747 22.6291 2.80079C24.3873 4.59411 25.375 7.02637 25.375 9.5625V25.5C25.375 28.0361 24.3873 30.4684 22.6291 32.2617C20.871 34.055 18.4864 35.0625 16 35.0625C13.5136 35.0625 11.129 34.055 9.37087 32.2617C7.61272 30.4684 6.625 28.0361 6.625 25.5V9.5625Z" fill="white"/>
<path d="M1.9375 20.7188C2.3519 20.7188 2.74933 20.8867 3.04235 21.1855C3.33538 21.4844 3.5 21.8898 3.5 22.3125V25.5C3.5 28.8815 4.81696 32.1245 7.16116 34.5156C9.50537 36.9067 12.6848 38.25 16 38.25C19.3152 38.25 22.4946 36.9067 24.8388 34.5156C27.183 32.1245 28.5 28.8815 28.5 25.5V22.3125C28.5 21.8898 28.6646 21.4844 28.9576 21.1855C29.2507 20.8867 29.6481 20.7188 30.0625 20.7188C30.4769 20.7188 30.8743 20.8867 31.1674 21.1855C31.4604 21.4844 31.625 21.8898 31.625 22.3125V25.5C31.625 29.451 30.1863 33.2612 27.5879 36.1913C24.9895 39.1215 21.4166 40.9627 17.5625 41.3578V47.8125H26.9375C27.3519 47.8125 27.7493 47.9804 28.0424 48.2793C28.3354 48.5782 28.5 48.9836 28.5 49.4062C28.5 49.8289 28.3354 50.2343 28.0424 50.5332C27.7493 50.8321 27.3519 51 26.9375 51H5.0625C4.6481 51 4.25067 50.8321 3.95765 50.5332C3.66462 50.2343 3.5 49.8289 3.5 49.4062C3.5 48.9836 3.66462 48.5782 3.95765 48.2793C4.25067 47.9804 4.6481 47.8125 5.0625 47.8125H14.4375V41.3578C10.5834 40.9627 7.01055 39.1215 4.41212 36.1913C1.8137 33.2612 0.374951 29.451 0.375 25.5V22.3125C0.375 21.8898 0.53962 21.4844 0.832646 21.1855C1.12567 20.8867 1.5231 20.7188 1.9375 20.7188Z" fill="white"/>
</svg>
