<svg width="155" height="155" viewBox="0 0 155 155" fill="none" xmlns="http://www.w3.org/2000/svg">
<path d="M123.653 123.204H31.3407C30.0426 123.204 28.9922 122.154 28.9922 120.855V30.5067C28.9922 29.2086 30.0426 28.1582 31.3407 28.1582H123.653C124.951 28.1582 126.002 29.2086 126.002 30.5067V120.855C126.002 122.154 124.951 123.204 123.653 123.204ZM33.6891 118.507H121.305V32.8552H33.6891V118.507Z" fill="#006872"/>
<path d="M123.653 32.8558H31.3407C30.0426 32.8558 28.9922 31.8054 28.9922 30.5073V11.9168C28.9922 5.34601 34.0032 0 40.1636 0H114.83C120.991 0 126.002 5.34601 126.002 11.9168V30.5073C126.002 31.8054 124.951 32.8558 123.653 32.8558ZM33.6891 28.1588H121.305V11.9168C121.305 7.9355 118.401 4.69695 114.83 4.69695H40.1636C36.5927 4.69695 33.6891 7.93521 33.6891 11.9168V28.1588Z" fill="#006872"/>
<path d="M114.83 154.999H40.1636C34.0035 154.999 28.9922 149.653 28.9922 143.08V120.854C28.9922 119.556 30.0426 118.506 31.3407 118.506H123.653C124.951 118.506 126.002 119.556 126.002 120.854V143.08C126.002 149.653 120.991 154.999 114.83 154.999ZM33.6877 123.204V143.081C33.6877 147.062 36.5912 150.303 40.1621 150.303H114.829C118.4 150.303 121.303 147.062 121.303 143.081V123.204H33.6877Z" fill="#006872"/>
<path d="M59.4438 18.777H49.9032C48.6051 18.777 47.5547 17.7266 47.5547 16.4286C47.5547 15.1305 48.6051 14.0801 49.9032 14.0801H59.4438C60.7419 14.0801 61.7923 15.1305 61.7923 16.4286C61.7923 17.7266 60.7419 18.777 59.4438 18.777Z" fill="#006872"/>
<path d="M105.083 18.7815C104.778 18.7815 104.473 18.7104 104.191 18.5935C103.909 18.4765 103.652 18.3114 103.441 18.0775C103.205 17.8665 103.039 17.6073 102.922 17.3252C102.805 17.0431 102.734 16.7381 102.734 16.4331C102.734 16.128 102.805 15.823 102.922 15.5409C103.039 15.2359 103.205 14.9767 103.441 14.7657C103.532 14.6488 103.652 14.5547 103.792 14.4836C103.909 14.3896 104.051 14.3185 104.191 14.2497C104.333 14.2015 104.473 14.1557 104.638 14.1305C105.413 13.9676 106.211 14.2245 106.75 14.7657C106.963 14.9767 107.149 15.2359 107.268 15.5409C107.385 15.823 107.431 16.128 107.431 16.4331C107.431 16.7381 107.385 17.0431 107.268 17.3252C107.149 17.6073 106.963 17.8665 106.75 18.0775C106.305 18.5224 105.718 18.7816 105.083 18.7816L105.083 18.7815Z" fill="#006872"/>
<path d="M62.582 102.678C62.5316 102.678 62.4811 102.676 62.4284 102.673C50.9886 101.935 40.9204 100.304 30.7386 97.5407C11.2055 92.2957 0 83.9889 0 74.7485C0 65.5105 11.2058 57.2036 30.7445 51.9562C32.0013 51.6191 33.2856 52.3622 33.6228 53.6144C33.9599 54.8689 33.2168 56.1555 31.9646 56.4926C15.1445 61.0085 4.69792 68.0034 4.69792 74.7485C4.69792 81.4936 15.1445 88.4906 31.9646 93.0064C41.8402 95.6875 51.6169 97.2678 62.7326 97.9855C64.0261 98.0704 65.0077 99.1873 64.9251 100.481C64.8448 101.724 63.8105 102.678 62.5835 102.678L62.582 102.678Z" fill="#006872"/>
<path d="M81.466 103.088C80.1886 103.088 79.1405 102.065 79.1176 100.78C79.0946 99.4845 80.1267 98.4135 81.4248 98.3906C96.6761 98.1177 111.065 96.2577 123.034 93.0126C139.856 88.4944 150.303 81.4971 150.303 74.7523C150.303 68.0072 139.856 61.0122 123.039 56.4964C121.786 56.1593 121.043 54.8727 121.38 53.6181C121.718 52.3682 123.007 51.6228 124.259 51.96C143.794 57.2074 155 65.5142 155 74.7522C155 83.9903 143.795 92.2992 124.259 97.5466C111.927 100.89 97.1411 102.808 81.5076 103.087H81.4664L81.466 103.088Z" fill="#006872"/>
<path d="M91.9284 113.55C91.3275 113.55 90.7266 113.321 90.268 112.862L79.8052 102.399C78.8878 101.482 78.8878 99.9957 79.8052 99.0785L90.268 88.6158C91.1853 87.6984 92.6715 87.6984 93.5887 88.6158C94.5059 89.5331 94.5061 91.0193 93.5887 91.9365L84.7866 100.739L93.5887 109.541C94.5061 110.458 94.5061 111.944 93.5887 112.861C93.13 113.32 92.5291 113.549 91.9283 113.549L91.9284 113.55Z" fill="#006872"/>
<path d="M77.4931 144.973C72.9611 144.973 69.2734 141.285 69.2734 136.753C69.2734 132.221 72.9611 128.533 77.4931 128.533C82.0251 128.533 85.7128 132.221 85.7128 136.753C85.7128 141.285 82.0251 144.973 77.4931 144.973ZM77.4931 133.23C75.5506 133.23 73.9704 134.81 73.9704 136.753C73.9704 138.695 75.5506 140.276 77.4931 140.276C79.4356 140.276 81.0158 138.695 81.0158 136.753C81.0158 134.81 79.4356 133.23 77.4931 133.23Z" fill="#006872"/>
</svg>
