<svg width="116" height="122" viewBox="0 0 116 122" fill="none" xmlns="http://www.w3.org/2000/svg">
<path d="M48.3843 13.8379H52.6258C53.5382 13.8379 54.2796 13.0965 54.2796 12.1841C54.2796 11.2717 53.5382 10.5303 52.6258 10.5303H48.3843C47.4719 10.5303 46.7305 11.2717 46.7305 12.1841C46.7305 13.0965 47.4719 13.8379 48.3843 13.8379Z" fill="#006872"/>
<path d="M58.103 13.8379H67.7044C68.6168 13.8379 69.3582 13.0965 69.3582 12.1841C69.3582 11.2717 68.6168 10.5303 67.7044 10.5303H58.103C57.1906 10.5303 56.4492 11.2717 56.4492 12.1841C56.4492 13.0965 57.1906 13.8379 58.103 13.8379Z" fill="#006872"/>
<path d="M64.6949 104.37H51.1573C49.4344 104.37 48.0352 105.77 48.0352 107.492V111.005C48.0352 112.728 49.4344 114.127 51.1573 114.127H64.6949C66.4177 114.127 67.817 112.728 67.817 111.005V107.492C67.817 105.77 66.4177 104.37 64.6949 104.37ZM64.5093 110.821L51.3428 111.004L51.1572 107.678L64.5093 107.493L64.5093 110.821Z" fill="#006872"/>
<path d="M37.2202 26.2322H58.9978C59.9102 26.2322 60.6516 25.4908 60.6516 24.5784C60.6516 23.665 59.9102 22.9246 58.9978 22.9246H37.2202C36.3078 22.9246 35.5664 23.666 35.5664 24.5784C35.5654 25.4908 36.3068 26.2322 37.2202 26.2322Z" fill="#006872"/>
<path d="M60.6516 34.6277C60.6516 33.7153 59.9102 32.9739 58.9978 32.9739H37.2202C36.3078 32.9739 35.5664 33.7153 35.5664 34.6277C35.5664 35.5401 36.3078 36.2815 37.2202 36.2815H58.9978C59.9102 36.2825 60.6516 35.5411 60.6516 34.6277Z" fill="#006872"/>
<path d="M37.2202 85.918H58.9978C59.9102 85.918 60.6516 85.1766 60.6516 84.2642C60.6516 83.3508 59.9102 82.6104 58.9978 82.6104H37.2202C36.3078 82.6104 35.5664 83.3518 35.5664 84.2642C35.5654 85.1775 36.3068 85.918 37.2202 85.918Z" fill="#006872"/>
<path d="M60.6516 94.3158C60.6516 93.4034 59.9102 92.662 58.9978 92.662H37.2202C36.3078 92.662 35.5664 93.4034 35.5664 94.3158C35.5664 95.2292 36.3078 95.9696 37.2202 95.9696H58.9978C59.9102 95.9696 60.6516 95.2282 60.6516 94.3158Z" fill="#006872"/>
<path d="M54.7188 56.1372C54.7188 57.0496 55.4602 57.791 56.3726 57.791H78.1481C79.0605 57.791 79.8019 57.0496 79.8019 56.1372C79.8019 55.2238 79.0605 54.4834 78.1481 54.4834H56.3726C55.4601 54.4834 54.7188 55.2248 54.7188 56.1372Z" fill="#006872"/>
<path d="M78.1481 64.5352H56.3726C55.4601 64.5352 54.7188 65.2766 54.7188 66.189C54.7188 67.1024 55.4602 67.8428 56.3726 67.8428H78.1481C79.0606 67.8428 79.8019 67.1014 79.8019 66.189C79.8029 65.2756 79.0615 64.5352 78.1481 64.5352Z" fill="#006872"/>
<path d="M114.342 18.5408H91.5943V9.28246C91.5943 4.16462 87.4297 0 82.3119 0H33.534C28.4161 0 24.2515 4.16462 24.2515 9.28246V46.6899H1.65381C0.741383 46.6899 0 47.4313 0 48.3437V73.6568C0 74.5692 0.741407 75.3106 1.65381 75.3106H24.2515V112.716C24.2515 117.835 28.4161 122 33.534 122H82.3119C87.4297 122 91.5943 117.835 91.5943 112.716V47.1642H114.342C115.254 47.1642 115.995 46.4228 115.995 45.5104V20.1948C115.995 19.2824 115.254 18.541 114.342 18.541V18.5408ZM3.30826 49.9956H38.9645V71.9995L3.30826 72.0005V49.9956ZM88.2847 112.711C88.2847 116.005 85.6049 118.687 82.3106 118.687H33.5327C30.2387 118.687 27.5587 116.005 27.5587 112.711V75.3062H40.6152C41.5276 75.3062 42.269 74.5648 42.269 73.6524V48.3393C42.269 47.4269 41.5276 46.6855 40.6152 46.6855H27.5587V9.27803C27.5587 5.98405 30.2385 3.30398 33.5327 3.30398H82.3106C85.6046 3.30398 88.2847 5.9838 88.2847 9.27803V18.5364H75.3767C74.4642 18.5364 73.7229 19.2778 73.7229 20.1902V45.5057C73.7229 46.4182 74.4643 47.1595 75.3767 47.1595H88.2847V112.711ZM112.687 43.8539H77.0306V21.848H112.687V43.8539Z" fill="#006872"/>
<path d="M12.175 61.2666L16.1755 57.2632C16.8217 56.617 16.8217 55.5705 16.1755 54.9243C15.5293 54.2782 14.4828 54.2782 13.8366 54.9243L8.66433 60.0967C8.01814 60.7428 8.01814 61.7893 8.66433 62.4355L13.8687 67.6399C14.1923 67.9635 14.614 68.1248 15.0377 68.1248C15.4623 68.1248 15.884 67.9635 16.2066 67.6399C16.8528 66.9937 16.8528 65.9472 16.2066 65.3011L12.175 61.2666Z" fill="#006872"/>
<path d="M26.0599 67.4904C26.3834 67.814 26.8051 67.9752 27.2288 67.9752C27.6534 67.9752 28.0751 67.8139 28.3977 67.4904L33.6021 62.286C34.2483 61.6398 34.2483 60.5933 33.6021 59.9471L28.4298 54.7748C27.7836 54.1286 26.7371 54.1286 26.091 54.7748C25.4448 55.421 25.4448 56.4675 26.091 57.1137L30.0914 61.1171L26.0579 65.1526C25.4127 65.7978 25.4127 66.8443 26.0598 67.4905L26.0599 67.4904Z" fill="#006872"/>
<path d="M22.5386 52.9109C21.6602 52.772 20.7857 53.3637 20.6302 54.2664L18.3943 67.4446C18.2427 68.3454 18.8491 69.1995 19.7498 69.353C19.8421 69.3695 19.9354 69.3754 20.0287 69.3754C20.8206 69.3754 21.5212 68.806 21.6582 67.9975L23.8941 54.8193C24.0447 53.9186 23.4393 53.0645 22.5386 52.9109V52.9109Z" fill="#006872"/>
<path d="M88.2998 26.6427L83.1255 31.815C82.8146 32.124 82.6406 32.5457 82.6406 32.9839C82.6406 33.4222 82.8146 33.8439 83.1255 34.1529L88.3299 39.3573C88.6535 39.6809 89.0752 39.8421 89.4988 39.8421C89.9235 39.8421 90.3452 39.6808 90.6678 39.3573C91.314 38.7111 91.314 37.6646 90.6678 37.0184L86.6342 32.9829L90.6377 28.9795C91.2839 28.3353 91.2839 27.2868 90.6377 26.6406C89.9925 25.9964 88.946 25.9964 88.2998 26.6426V26.6427Z" fill="#006872"/>
<path d="M100.521 39.2097C100.844 39.5333 101.266 39.6946 101.69 39.6946C102.114 39.6946 102.536 39.5333 102.859 39.2097L108.061 34.0053C108.707 33.3591 108.707 32.3126 108.061 31.6665L102.889 26.4942C102.242 25.848 101.196 25.848 100.55 26.4942C99.9036 27.1403 99.9036 28.1869 100.55 28.833L104.553 32.8364L100.52 36.872C99.8735 37.5172 99.8735 38.5656 100.521 39.2098V39.2097Z" fill="#006872"/>
<path d="M94.2066 41.0703C94.2989 41.0868 94.3922 41.0926 94.4855 41.0926C95.2774 41.0926 95.978 40.5232 96.115 39.7148L98.3528 26.5386C98.5044 25.6378 97.8981 24.7837 96.9973 24.6302C96.1228 24.4825 95.2444 25.0849 95.0889 25.9857L92.8511 39.1619C92.7005 40.0616 93.3058 40.9167 94.2066 41.0703V41.0703Z" fill="#006872"/>
</svg>
