<svg width="194" height="194" viewBox="0 0 194 194" fill="none" xmlns="http://www.w3.org/2000/svg">
<path d="M40.1379 20.069C40.132 18.2233 38.6387 16.7301 36.7931 16.7241C33.2437 16.7256 29.8405 15.316 27.332 12.8059C24.8219 10.2973 23.4123 6.89417 23.4138 3.34483C23.4138 1.49772 21.9161 0 20.069 0C18.2219 0 16.7241 1.49772 16.7241 3.34483C16.7256 6.89424 15.316 10.2975 12.8059 12.8059C10.2973 15.316 6.89417 16.7257 3.34483 16.7241C1.49772 16.7241 0 18.2219 0 20.069C0 21.9161 1.49772 23.4138 3.34483 23.4138C6.89424 23.4123 10.2975 24.8219 12.8059 27.332C15.316 29.8406 16.7257 33.2438 16.7241 36.7931C16.7241 38.6402 18.2219 40.1379 20.069 40.1379C21.9161 40.1379 23.4138 38.6402 23.4138 36.7931C23.4123 33.2437 24.8219 29.8405 27.332 27.332C29.8406 24.8219 33.2438 23.4123 36.7931 23.4138C38.6387 23.4078 40.132 21.9146 40.1379 20.069Z" fill="#006872"/>
<path d="M70.2423 63.5522C66.6929 63.5537 63.2897 62.1441 60.7812 59.634C58.2711 57.1254 56.8615 53.7222 56.863 50.1729C56.863 48.3258 55.3653 46.8281 53.5182 46.8281C51.6711 46.8281 50.1734 48.3258 50.1734 50.1729C50.1749 53.7223 48.7652 57.1255 46.2551 59.634C43.7465 62.1441 40.3434 63.5537 36.794 63.5522C34.9469 63.5522 33.4492 65.0499 33.4492 66.897C33.4492 68.7441 34.9469 70.2419 36.794 70.2419C40.3435 70.2404 43.7467 71.65 46.2551 74.1601C48.7652 76.6687 50.1749 80.0718 50.1734 83.6212C50.1734 85.4683 51.6711 86.966 53.5182 86.966C55.3653 86.966 56.863 85.4683 56.863 83.6212C56.8615 80.0718 58.2711 76.6685 60.7812 74.1601C63.2899 71.65 66.693 70.2403 70.2423 70.2419C72.0894 70.2419 73.5872 68.7441 73.5872 66.897C73.5872 65.0499 72.0894 63.5522 70.2423 63.5522Z" fill="#006872"/>
<path d="M107.035 180.621H194.001V194H107.035V180.621Z" fill="#006872"/>
<path d="M100.346 80.2754H187.311V93.6547H100.346V80.2754Z" fill="#006872"/>
<path d="M100.346 40.1386H187.311V53.5179H100.346V40.1386Z" fill="#006872"/>
<path d="M86.9648 60.207H173.93V73.5863H86.9648V60.207Z" fill="#006872"/>
<path d="M53.517 100.346C41.098 100.346 29.1866 105.279 20.4048 114.061C11.623 122.843 6.68945 134.754 6.68945 147.173C6.68945 159.592 11.623 171.504 20.4048 180.286C29.1866 189.067 41.098 194.001 53.517 194.001C65.9361 194.001 77.8475 189.067 86.6293 180.286C95.4111 171.504 100.345 159.592 100.345 147.173C100.331 134.758 95.3931 122.856 86.6144 114.076C77.8341 105.297 65.9319 100.359 53.517 100.346ZM66.8964 137.139H50.1722C48.3266 137.142 46.8304 138.638 46.8274 140.484V143.828H66.8964V153.863C66.8934 156.524 65.8347 159.074 63.9547 160.956C62.0732 162.836 59.5227 163.895 56.8618 163.898V170.587H50.1721V163.898H40.1376V157.208H56.8618C58.7074 157.205 60.2036 155.709 60.2066 153.863V150.518H40.1376V140.484C40.1406 137.823 41.1993 135.272 43.0793 133.391C44.9607 131.511 47.5113 130.452 50.1722 130.449V123.759H56.8619V130.449H66.8964V137.139ZM90.3101 150.518C88.463 150.518 86.9653 149.02 86.9653 147.173C86.9549 138.305 83.4279 129.803 77.1579 123.532C70.8879 117.262 62.3852 113.735 53.517 113.725C51.6699 113.725 50.1722 112.227 50.1722 110.38C50.1722 108.533 51.6699 107.035 53.517 107.035C64.1593 107.047 74.3609 111.28 81.8854 118.805C89.4099 126.329 93.6431 136.531 93.655 147.173C93.655 148.06 93.3026 148.911 92.6754 149.539C92.0483 150.166 91.1971 150.518 90.3101 150.518Z" fill="#006872"/>
<path d="M107.035 20.0684H194.001V33.4477H107.035V20.0684Z" fill="#006872"/>
<path d="M107.035 160.551H194.001V173.93H107.035V160.551Z" fill="#006872"/>
<path d="M107.035 100.346H194.001V113.725H107.035V100.346Z" fill="#006872"/>
<path d="M107.035 120.414H194.001V133.793H107.035V120.414Z" fill="#006872"/>
<path d="M107.035 140.482H194.001V153.862H107.035V140.482Z" fill="#006872"/>
</svg>
