<svg width="44" height="44" viewBox="0 0 44 44" fill="none" xmlns="http://www.w3.org/2000/svg">
<path d="M35.5856 9.41576C33.892 7.716 31.8821 6.36441 29.6693 5.43727C27.3996 4.48343 24.9618 3.99471 22.5 4.00004H22.4155C17.4587 4.01994 12.82 5.95945 9.34975 9.46549C5.8745 12.9715 3.98027 17.6264 4.00016 22.5846C4.01507 25.5834 4.76083 28.5622 6.16286 31.193L6.38659 31.6108V38.6129H13.3868L13.8044 38.8367C16.4345 40.2391 19.4125 40.9851 22.4105 41H22.495C27.4171 41 32.0408 39.1003 35.526 35.6489C39.0261 32.1777 40.97 27.5378 40.9998 22.5846C41.0098 20.0682 40.5275 17.6313 39.563 15.3338C38.6355 13.1206 37.2844 11.1102 35.5856 9.41576ZM12.5515 24.8871C11.9271 24.8744 11.3325 24.6173 10.8953 24.171C10.4582 23.7247 10.2133 23.1248 10.2133 22.5C10.2133 21.8752 10.4582 21.2753 10.8953 20.8291C11.3325 20.3828 11.9271 20.1257 12.5515 20.1129C13.176 20.1257 13.7706 20.3828 14.2078 20.8291C14.6449 21.2753 14.8898 21.8752 14.8898 22.5C14.8898 23.1248 14.6449 23.7247 14.2078 24.171C13.7706 24.6173 13.176 24.8744 12.5515 24.8871ZM22.495 24.8871C21.8705 24.8744 21.2759 24.6173 20.8388 24.171C20.4017 23.7247 20.1568 23.1248 20.1568 22.5C20.1568 21.8752 20.4017 21.2753 20.8388 20.8291C21.2759 20.3828 21.8705 20.1257 22.495 20.1129C23.1195 20.1257 23.7141 20.3828 24.1513 20.8291C24.5884 21.2753 24.8332 21.8752 24.8332 22.5C24.8332 23.1248 24.5884 23.7247 24.1513 24.171C23.7141 24.6173 23.1195 24.8744 22.495 24.8871ZM32.4385 24.8871C31.814 24.8744 31.2194 24.6173 30.7823 24.171C30.3451 23.7247 30.1003 23.1248 30.1003 22.5C30.1003 21.8752 30.3451 21.2753 30.7823 20.8291C31.2194 20.3828 31.814 20.1257 32.4385 20.1129C33.063 20.1257 33.6576 20.3828 34.0947 20.8291C34.5319 21.2753 34.7767 21.8752 34.7767 22.5C34.7767 23.1248 34.5319 23.7247 34.0947 24.171C33.6576 24.6173 33.063 24.8744 32.4385 24.8871Z" fill="black" fill-opacity="0.15"/>
<path d="M29.3548 22.5C29.3548 23.163 29.5995 23.7989 30.0351 24.2678C30.4707 24.7366 31.0614 25 31.6774 25C32.2934 25 32.8842 24.7366 33.3197 24.2678C33.7553 23.7989 34 23.163 34 22.5C34 21.837 33.7553 21.2011 33.3197 20.7322C32.8842 20.2634 32.2934 20 31.6774 20C31.0614 20 30.4707 20.2634 30.0351 20.7322C29.5995 21.2011 29.3548 21.837 29.3548 22.5ZM10 22.5C10 23.163 10.2447 23.7989 10.6803 24.2678C11.1158 24.7366 11.7066 25 12.3226 25C12.9386 25 13.5293 24.7366 13.9649 24.2678C14.4005 23.7989 14.6452 23.163 14.6452 22.5C14.6452 21.837 14.4005 21.2011 13.9649 20.7322C13.5293 20.2634 12.9386 20 12.3226 20C11.7066 20 11.1158 20.2634 10.6803 20.7322C10.2447 21.2011 10 21.837 10 22.5Z" fill="#006872"/>
<path d="M42.2908 13.475C41.181 10.8379 39.59 8.47098 37.5619 6.43795C35.548 4.41668 33.1572 2.81002 30.5249 1.70893C27.824 0.574554 24.9562 0 22 0H21.9018C18.9259 0.0147321 16.0434 0.604018 13.3327 1.76295C10.723 2.87533 8.35459 4.48484 6.35957 6.50179C4.35112 8.52991 2.7748 10.8871 1.68463 13.5143C0.555182 16.2348 -0.0144534 19.1272 0.000278595 22.1031C0.0169417 25.5135 0.823755 28.8736 2.35739 31.9196V39.3839C2.35739 39.983 2.59538 40.5576 3.01901 40.9812C3.44263 41.4049 4.01719 41.6429 4.61629 41.6429H12.0854C15.1314 43.1765 18.4915 43.9833 21.9018 44H22.0049C24.9464 44 27.7995 43.4304 30.4856 42.3156C33.1046 41.2277 35.4865 39.6397 37.498 37.6406C39.5261 35.6321 41.1221 33.2848 42.2368 30.6674C43.3957 27.9567 43.985 25.0741 43.9997 22.0982C44.0145 19.1076 43.435 16.2054 42.2908 13.475V13.475ZM34.8708 34.9839C31.4285 38.392 26.8615 40.2679 22 40.2679H21.9165C18.9554 40.2531 16.0139 39.5165 13.4162 38.1317L13.0037 37.9107H6.08949V30.9964L5.86851 30.5839C4.4837 27.9862 3.74711 25.0446 3.73237 22.0835C3.71273 17.1875 5.58369 12.5911 9.01624 9.12902C12.4439 5.66696 17.0255 3.75179 21.9214 3.73214H22.0049C24.4602 3.73214 26.8419 4.20848 29.0861 5.15134C31.2762 6.06964 33.2405 7.39062 34.9298 9.07991C36.6141 10.7643 37.94 12.7335 38.8583 14.9237C39.8109 17.1924 40.2873 19.5987 40.2775 22.0835C40.248 26.9746 38.3279 31.5563 34.8708 34.9839V34.9839Z" fill="#006872"/>
<path d="M20 22.5C20 23.163 20.2634 23.7989 20.7322 24.2678C21.2011 24.7366 21.837 25 22.5 25C23.163 25 23.7989 24.7366 24.2678 24.2678C24.7366 23.7989 25 23.163 25 22.5C25 21.837 24.7366 21.2011 24.2678 20.7322C23.7989 20.2634 23.163 20 22.5 20C21.837 20 21.2011 20.2634 20.7322 20.7322C20.2634 21.2011 20 21.837 20 22.5Z" fill="#006872"/>
</svg>
