<svg width="167" height="167" viewBox="0 0 167 167" fill="none" xmlns="http://www.w3.org/2000/svg">
<path d="M58.5902 145.223C58.5902 133.608 49.1726 129.059 42.3566 129.059C35.5404 129.059 26.3447 134.358 26.3447 145.223C26.3447 153.266 24.9891 158.09 23.815 160.762C23.2277 162.097 24.1947 163.587 25.654 163.587C26.1733 163.587 26.6723 163.787 27.0471 164.147L29.4418 166.441C30.2303 167.197 31.4771 167.186 32.2526 166.417L33.6099 165.072C34.4252 164.263 35.7509 164.299 36.5209 165.151L37.3696 166.089C38.188 166.994 39.6157 166.969 40.4024 166.037L40.9289 165.413C41.7335 164.459 43.203 164.459 44.0075 165.413L44.5339 166.037C45.32 166.969 46.7483 166.994 47.5667 166.089L48.4155 165.151C49.1855 164.299 50.5112 164.264 51.3265 165.072L52.6838 166.417C53.4591 167.186 54.706 167.197 55.4946 166.441L57.8893 164.147C58.2641 163.787 58.7631 163.587 59.2824 163.587C60.7417 163.587 61.7087 162.097 61.1213 160.762C59.9467 158.091 58.5911 153.266 58.5911 145.223H58.5902ZM53.3377 146.623C53.3377 152.942 48.1967 158.083 41.8776 158.083C35.5585 158.083 30.4176 152.942 30.4176 146.623C30.4176 145.632 30.5572 144.675 30.7948 143.758H38.9744C39.7795 143.758 40.5478 143.419 41.091 142.825L42.1051 141.713C43.2063 140.506 45.0918 140.463 46.2473 141.619L47.5479 142.919C48.0845 143.456 48.8133 143.758 49.5731 143.758H52.9604C53.198 144.675 53.3377 145.632 53.3377 146.623Z" fill="#006872"/>
<path d="M41.8797 34.8923C49.7913 34.8923 56.2048 28.4788 56.2048 20.5672C56.2048 12.6557 49.7913 6.24219 41.8797 6.24219C33.9682 6.24219 27.5547 12.6557 27.5547 20.5672C27.5547 28.4788 33.9682 34.8923 41.8797 34.8923ZM41.8797 32.0273C35.5607 32.0273 30.4197 26.8863 30.4197 20.5672C30.4197 20.0814 30.4603 19.6051 30.5194 19.1347H41.1115C41.8779 19.1347 42.6121 18.8279 43.1505 18.2824L44.3389 17.0785C45.4556 15.9474 47.2797 15.9415 48.4037 17.0654L49.6332 18.2949C50.1704 18.8327 50.8992 19.1348 51.6591 19.1348H53.2403C53.2993 19.6051 53.3399 20.0814 53.3399 20.5673C53.3399 26.8863 48.199 32.0273 41.8799 32.0273L41.8797 32.0273Z" fill="#006872"/>
<path d="M53.3438 85.0309C53.3438 103.228 68.095 117.978 86.2906 117.978C104.486 117.978 119.237 103.227 119.237 85.0309C119.237 66.8352 104.486 52.084 86.2906 52.084C68.095 52.084 53.3438 66.8352 53.3438 85.0309ZM75.6099 56.943C76.7296 58.1177 79.3058 59.6935 85.0775 59.6935C91.3364 59.6935 94.6855 57.842 96.1907 56.6565C100.005 57.9918 103.462 60.0701 106.403 62.7244H98.3293C97.6441 62.7244 97.024 63.1279 96.7459 63.7534C96.3071 64.7401 95.0829 65.0898 94.1895 64.4834L93.5401 64.0429C93.1169 63.7558 92.5887 63.6705 92.0969 63.8089L84.7928 65.8687C84.3159 66.003 83.919 66.3355 83.7035 66.7813L82.1379 70.0152C81.9792 70.3429 81.7219 70.6121 81.4014 70.7852L78.1926 72.5179C77.6321 72.8206 77.2829 73.4061 77.2829 74.043V74.0913C77.2829 75.0487 78.0589 75.8241 79.0163 75.8241H84.3112C84.9988 75.8241 85.5562 76.3815 85.5562 77.0691C85.5562 77.7567 86.1137 78.3142 86.8013 78.3142H88.1634C88.851 78.3142 89.4085 77.7567 89.4085 77.0691V75.6074L94.2802 78.3143L94.4969 81.1292L92.9814 79.6137H86.1787C82.4191 79.6137 78.8092 81.0862 76.122 83.7155C75.272 84.5475 74.7928 85.6869 74.7928 86.8766C74.7928 88.0495 75.2589 89.174 76.088 90.0037L76.3661 90.2824C77.1958 91.1115 78.3203 91.5776 79.4932 91.5776H81.8265C83.0501 91.5776 84.0421 92.5696 84.0421 93.7932V94.8796L82.113 100.959C81.6731 102.345 82.0425 103.861 83.0709 104.89C83.8009 105.62 84.7918 106.03 85.8244 106.03C89.2082 106.03 92.2605 103.998 93.5653 100.876L94.4033 98.8704C96.2513 94.4492 97.2026 89.7059 97.2026 84.9142H98.231C98.9783 84.9142 99.5842 84.3084 99.5842 83.5611V82.4837C99.5842 81.7364 100.19 81.1306 100.937 81.1306C101.685 81.1306 102.29 80.5247 102.29 79.7774V76.2589L110.745 84.7137C112.224 86.1921 114.189 87.0642 116.263 87.1942C115.4 99.2374 107.432 109.318 96.5269 113.283C95.4961 112.097 92.9653 110.371 86.9171 110.371C80.9037 110.371 77.5832 112.078 75.9966 113.263C74.3707 112.668 72.8088 111.948 71.3272 111.094V108.524C71.3272 107.672 71.1046 106.834 70.682 106.094L67.2093 100.017C66.7867 99.2768 66.564 98.4394 66.564 97.5871V95.0164C66.564 93.6854 66.0221 92.4116 65.0635 91.4882C64.1509 90.6096 62.9333 90.1184 61.6661 90.1184H56.6714C56.6081 89.7477 56.5502 89.3753 56.5001 88.9998L59.349 86.3343C61.1475 84.6516 62.3274 82.4128 62.7 79.978C63.224 76.549 65.3382 73.5694 68.4019 71.9429L70.9518 70.5886C72.3157 69.8645 73.1686 68.4463 73.1686 66.9016C73.1686 64.5965 71.2999 62.7277 68.9941 62.7277H66.178C68.9171 60.2537 72.1032 58.2821 75.6099 56.9439L75.6099 56.943Z" fill="#006872"/>
<path d="M112.934 33.3389C112.398 34.2103 112.073 35.2267 112.073 36.3251C112.073 39.4897 114.639 42.0551 117.803 42.0551C120.477 42.0551 122.705 40.2149 123.337 37.7379C123.403 37.7408 123.466 37.7576 123.533 37.7576C125.831 37.7576 127.691 35.9502 127.808 33.682C129.57 34.4556 131.514 34.8925 133.561 34.8925C134.066 34.8925 134.565 34.8651 135.058 34.8137C135.374 37.2783 137.457 39.1901 140.007 39.1901C140.401 39.1901 140.78 39.134 141.147 39.048C141.922 40.8166 143.683 42.0552 145.737 42.0552C148.506 42.0552 150.751 39.8104 150.751 37.0415C150.751 36.5496 150.658 36.0841 150.526 35.6346C150.863 35.1344 151.122 34.5692 151.263 33.9454C151.42 33.25 151.422 32.5559 151.295 31.8982C151.194 31.3801 151.331 30.8322 151.68 30.4376C152.396 29.6295 152.929 28.6416 153.184 27.5135C153.742 25.0448 152.851 22.5941 151.082 21.026C152.61 19.9964 153.616 18.2512 153.616 16.2701C153.616 13.1544 151.126 10.6325 148.029 10.5544C148.04 10.416 148.076 10.287 148.076 10.1444C148.074 8.23851 146.901 6.44616 145.163 5.66489C144.478 5.3569 143.778 5.21187 143.097 5.20708C141.761 5.19813 140.482 4.52186 139.93 3.30487C139.228 1.75654 137.839 0.544371 136.05 0.139602C133.934 -0.338496 131.835 0.444011 130.521 1.98818C129.673 2.98677 128.271 3.19149 127.014 2.81904C126.518 2.67221 125.986 2.59103 125.423 2.58984C123.168 2.58387 121.087 3.94237 120.221 6.02434C119.905 6.78655 119.763 7.56243 119.774 8.31635C119.794 9.80198 118.928 11.136 117.542 11.6732C115.546 12.4474 113.961 14.1593 113.452 16.4082C112.952 18.6191 113.627 20.8037 115.043 22.3621C112.492 23.2204 110.641 25.605 110.641 28.4466C110.641 30.4158 111.542 32.1568 112.934 33.3393L112.934 33.3389ZM130.696 26.2975C130.696 24.0402 129.378 22.1068 127.481 21.1727C128.556 20.3914 129.263 19.1332 129.263 17.7025C129.263 16.4568 128.725 15.3442 127.878 14.5594C128.852 14.2006 129.649 13.5023 130.145 12.6046C130.925 13.106 131.848 13.405 132.844 13.405C134.786 13.405 136.45 12.29 137.283 10.6761C137.552 10.5418 137.82 10.4046 138.065 10.2309C138.071 12.5139 139.638 14.5744 141.959 15.0989C142.064 15.1228 142.166 15.1156 142.27 15.133C142.196 15.5 142.156 15.8802 142.156 16.27C142.156 17.7306 142.719 19.0492 143.619 20.0608C144.014 20.5055 144.474 20.8839 144.99 21.1877C144.815 24.4132 143.311 27.286 141.005 29.263C140.961 29.3012 140.92 29.3435 140.875 29.3811C139.387 30.6179 137.579 31.4774 135.599 31.835C134.936 31.9555 134.257 32.0278 133.561 32.0278C131.725 32.0278 129.995 31.5831 128.456 30.8131C129.809 29.765 130.696 28.1422 130.696 26.2977L130.696 26.2975Z" fill="#006872"/>
<path d="M130.7 132.303C122.789 132.303 116.375 138.716 116.375 146.628C116.375 154.539 122.789 160.953 130.7 160.953C138.612 160.953 145.025 154.539 145.025 146.628C145.025 138.716 138.612 132.303 130.7 132.303ZM130.7 158.088C125.334 158.088 120.831 154.376 119.59 149.388C128.509 149.255 132.744 145.504 134.743 141.797C136.046 143.748 138.298 145.483 142.121 145.848C142.138 146.107 142.16 146.364 142.16 146.628C142.16 152.947 137.019 158.088 130.7 158.088L130.7 158.088Z" fill="#006872"/>
<path d="M166.517 69.2739C166.517 65.3183 163.311 62.1113 159.355 62.1113C155.399 62.1113 152.192 65.3183 152.192 69.2739C152.192 69.7669 152.242 70.2486 152.337 70.7135C152.288 70.7129 152.241 70.7064 152.192 70.7064C144.281 70.7064 137.867 77.1199 137.867 85.0314C137.867 92.943 144.281 99.3565 152.192 99.3565C160.104 99.3565 166.517 92.943 166.517 85.0314C166.517 81.3601 165.125 78.0223 162.854 75.4873C165.03 74.2584 166.517 71.952 166.517 69.2739V69.2739ZM152.192 96.4907C146.189 96.4907 141.258 91.8476 140.779 85.9653C147.732 85.2157 150.845 80.905 152.211 77.5816C153.475 81.604 156.465 86.5258 163.498 86.8213C162.634 92.2911 157.901 96.4907 152.192 96.4907Z" fill="#006872"/>
<path d="M34.5454 91.6008C34.7829 93.1736 34.9477 94.8454 34.9477 96.4851C34.9477 97.7564 35.9779 98.7878 37.2498 98.7878C38.5217 98.7878 39.5519 97.757 39.5519 96.4851C39.5519 93.903 39.2092 91.2905 38.7783 89.0217C39.1991 89.2198 39.6378 89.4078 40.1165 89.5708C40.363 89.655 40.6137 89.695 40.8602 89.695C41.8182 89.695 42.7129 89.0927 43.0388 88.1353C43.4495 86.9314 42.8073 85.6236 41.6033 85.213C37.7195 83.8879 37.1333 80.6165 37.1142 80.506C37.0975 80.3842 37.0706 80.2643 37.0348 80.1467C34.9642 73.4329 28.0375 70.848 25.5664 70.1239C24.4544 68.2687 22.268 66.668 18.5979 66.668C14.0533 66.668 11.9045 69.037 10.1778 70.941C8.67907 72.5937 7.68825 73.6855 5.21838 73.6855C3.94644 73.6855 2.91568 74.7163 2.91568 75.9876C2.91568 77.2589 3.94589 78.2897 5.21838 78.2897C6.19189 78.2897 7.03641 78.1631 7.80942 77.9716C6.79115 78.7218 5.80743 79.1217 5.21838 79.1217C3.94644 79.1217 2.91568 80.1525 2.91568 81.4238C2.91568 82.6952 3.94589 83.7259 5.21838 83.7259C5.9418 83.7259 6.76366 83.5606 7.62148 83.2538C7.61372 83.3153 7.60059 83.375 7.59343 83.4364C6.65335 84.0852 5.76517 84.4153 5.21845 84.4153C3.9465 84.4153 2.91574 85.4461 2.91574 86.7174C2.91574 87.9887 3.94595 89.0195 5.21845 89.0195C6.00095 89.0195 6.89803 88.8261 7.83164 88.4674C6.07856 90.0342 4.00032 91.0292 2.30209 91.0292C1.03075 91.0292 0 92.06 0 93.3313C0 94.6027 1.03081 95.6334 2.30209 95.6334C4.5857 95.6334 6.95472 94.7578 9.07483 93.3235C8.09775 94.5901 6.89436 95.541 5.52344 96.0489C4.33147 96.4906 3.72329 97.8156 4.16495 99.0076C4.50935 99.9363 5.38854 100.51 6.32448 100.51C6.59069 100.51 6.86107 100.464 7.1249 100.366C9.3292 99.5495 11.2475 98.0722 12.7516 96.1102C15.2221 98.1373 18.3808 99.3542 21.8254 99.3542C27.3662 99.3542 32.1627 96.2027 34.5454 91.6002L34.5454 91.6008ZM21.8253 96.4898C18.9305 96.4898 16.291 95.4023 14.2718 93.626C13.3645 92.828 12.5868 91.8904 11.9679 90.8452C11.6342 90.2823 11.3489 89.6896 11.1149 89.0707C10.8606 88.3998 10.6685 87.7003 10.5437 86.9763C10.4494 86.429 10.3927 85.8697 10.3796 85.2985C10.3766 85.2084 10.3652 85.1207 10.3652 85.0299C10.3652 84.71 10.3873 84.3961 10.413 84.0827C10.5986 84.0731 10.7801 84.0594 10.9591 84.0445C12.012 83.9562 12.97 83.7831 13.8289 83.5294C14.5893 83.305 15.2709 83.0173 15.8947 82.6884C19.4342 80.8201 20.8817 77.4585 21.4535 74.7153C21.6272 77.1129 22.316 79.824 24.4349 80.8166C25.6144 81.3693 26.5359 82.341 26.9079 83.5892C27.5143 85.6216 29.031 88.372 32.6564 88.7408C31.1111 93.2413 26.8452 96.4901 21.8254 96.4901L21.8253 96.4898Z" fill="#006872"/>
<path d="M104.456 24.865H105.888C106.681 24.865 107.321 24.2234 107.321 23.4325C107.321 22.6416 106.681 22 105.888 22H104.456C103.664 22 103.023 22.6416 103.023 23.4325C103.023 24.2234 103.664 24.865 104.456 24.865Z" fill="#006872"/>
<path d="M61.4794 24.865H62.9119C63.7039 24.865 64.3444 24.2234 64.3444 23.4325C64.3444 22.6416 63.7039 22 62.9119 22H61.4794C60.6873 22 60.0469 22.6416 60.0469 23.4325C60.0469 24.2234 60.6879 24.865 61.4794 24.865Z" fill="#006872"/>
<path d="M75.7997 24.865H77.2322C78.0243 24.865 78.6647 24.2234 78.6647 23.4325C78.6647 22.6416 78.0243 22 77.2322 22H75.7997C75.0076 22 74.3672 22.6416 74.3672 23.4325C74.3672 24.2234 75.0082 24.865 75.7997 24.865Z" fill="#006872"/>
<path d="M82.9638 24.865H84.3963C85.1883 24.865 85.8288 24.2234 85.8288 23.4325C85.8288 22.6416 85.1883 22 84.3963 22H82.9638C82.1717 22 81.5312 22.6416 81.5312 23.4325C81.5312 24.2234 82.1723 24.865 82.9638 24.865Z" fill="#006872"/>
<path d="M90.1278 24.865H91.5603C92.3524 24.865 92.9928 24.2234 92.9928 23.4325C92.9928 22.6416 92.3524 22 91.5603 22H90.1278C89.3358 22 88.6953 22.6416 88.6953 23.4325C88.6953 24.2234 89.3364 24.865 90.1278 24.865Z" fill="#006872"/>
<path d="M97.2919 24.865H98.7244C99.5164 24.865 100.157 24.2234 100.157 23.4325C100.157 22.6416 99.5164 22 98.7244 22H97.2919C96.4998 22 95.8594 22.6416 95.8594 23.4325C95.8594 24.2234 96.5004 24.865 97.2919 24.865Z" fill="#006872"/>
<path d="M68.6434 24.865H70.0759C70.868 24.865 71.5085 24.2234 71.5085 23.4325C71.5085 22.6416 70.868 22 70.0759 22H68.6434C67.8514 22 67.2109 22.6416 67.2109 23.4325C67.2109 24.2234 67.852 24.865 68.6434 24.865Z" fill="#006872"/>
<path d="M93.4509 142.332H92.0184C91.2264 142.332 90.5859 142.974 90.5859 143.765C90.5859 144.555 91.2264 145.197 92.0184 145.197H93.4509C94.243 145.197 94.8835 144.555 94.8835 143.765C94.8835 142.974 94.243 142.332 93.4509 142.332Z" fill="#006872"/>
<path d="M86.2869 142.332H84.8544C84.0623 142.332 83.4219 142.974 83.4219 143.765C83.4219 144.555 84.0623 145.197 84.8544 145.197H86.2869C87.0789 145.197 87.7194 144.555 87.7194 143.765C87.7194 142.974 87.0789 142.332 86.2869 142.332Z" fill="#006872"/>
<path d="M79.1228 142.332H77.6903C76.8983 142.332 76.2578 142.974 76.2578 143.765C76.2578 144.555 76.8983 145.197 77.6903 145.197H79.1228C79.9149 145.197 80.5553 144.555 80.5553 143.765C80.5553 142.974 79.9149 142.332 79.1228 142.332Z" fill="#006872"/>
<path d="M100.615 142.332H99.1825C98.3904 142.332 97.75 142.974 97.75 143.765C97.75 144.555 98.3904 145.197 99.1825 145.197H100.615C101.407 145.197 102.048 144.555 102.048 143.765C102.048 142.974 101.407 142.332 100.615 142.332Z" fill="#006872"/>
<path d="M64.8025 142.332H63.37C62.5779 142.332 61.9375 142.974 61.9375 143.765C61.9375 144.555 62.5779 145.197 63.37 145.197H64.8025C65.5946 145.197 66.235 144.555 66.235 143.765C66.235 142.974 65.5946 142.332 64.8025 142.332Z" fill="#006872"/>
<path d="M71.9666 142.332H70.5341C69.742 142.332 69.1016 142.974 69.1016 143.765C69.1016 144.555 69.742 145.197 70.5341 145.197H71.9666C72.7586 145.197 73.3991 144.555 73.3991 143.765C73.3991 142.974 72.7586 142.332 71.9666 142.332Z" fill="#006872"/>
<path d="M107.779 142.332H106.347C105.555 142.332 104.914 142.974 104.914 143.765C104.914 144.555 105.555 145.197 106.347 145.197H107.779C108.571 145.197 109.212 144.555 109.212 143.765C109.212 142.974 108.571 142.332 107.779 142.332Z" fill="#006872"/>
<path d="M50.4744 80.7324H49.0419C48.2498 80.7324 47.6094 81.3741 47.6094 82.1649C47.6094 82.9558 48.2498 83.5974 49.0419 83.5974H50.4744C51.2664 83.5974 51.9069 82.9558 51.9069 82.1649C51.9069 81.3741 51.2664 80.7324 50.4744 80.7324Z" fill="#006872"/>
<path d="M41.8778 83.5974H43.3103C44.1024 83.5974 44.7428 82.9558 44.7428 82.1649C44.7428 81.3741 44.1024 80.7324 43.3103 80.7324H41.8778C41.0858 80.7324 40.4453 81.3741 40.4453 82.1649C40.4453 82.9558 41.0858 83.5974 41.8778 83.5974Z" fill="#006872"/>
<path d="M123.534 80.7324C122.742 80.7324 122.102 81.3741 122.102 82.1649C122.102 82.9558 122.742 83.5974 123.534 83.5974H124.967C125.759 83.5974 126.399 82.9558 126.399 82.1649C126.399 81.3741 125.759 80.7324 124.967 80.7324H123.534Z" fill="#006872"/>
<path d="M133.563 82.1649C133.563 81.3741 132.923 80.7324 132.131 80.7324H130.698C129.906 80.7324 129.266 81.3741 129.266 82.1649C129.266 82.9558 129.906 83.5974 130.698 83.5974H132.131C132.923 83.5974 133.563 82.9558 133.563 82.1649Z" fill="#006872"/>
<path d="M31.7603 118.429C32.011 118.934 32.5184 119.226 33.046 119.226C33.2585 119.226 33.4758 119.179 33.6799 119.078C34.389 118.727 34.6803 117.868 34.3293 117.159L33.6942 115.874C33.3415 115.165 32.4855 114.874 31.7748 115.225C31.0657 115.576 30.7744 116.435 31.1253 117.144L31.7603 118.429Z" fill="#006872"/>
<path d="M28.5871 112.006C28.836 112.511 29.344 112.805 29.8728 112.805C30.0853 112.805 30.3008 112.757 30.5049 112.657C31.214 112.307 31.5065 111.448 31.1555 110.739L30.5216 109.454C30.1719 108.746 29.3159 108.456 28.6038 108.803C27.8947 109.153 27.6023 110.012 27.9532 110.721L28.5871 112.006Z" fill="#006872"/>
<path d="M34.9309 124.85C35.1798 125.355 35.6877 125.648 36.2166 125.648C36.4291 125.648 36.6445 125.601 36.8487 125.501C37.5577 125.15 37.8502 124.292 37.4993 123.582L36.8654 122.298C36.5168 121.589 35.6597 121.299 34.9476 121.647C34.2385 121.997 33.946 122.856 34.297 123.565L34.9309 124.85Z" fill="#006872"/>
<path d="M27.3505 103.031C26.9977 102.322 26.1418 102.03 25.431 102.381C24.7219 102.732 24.4306 103.591 24.7816 104.301L25.4167 105.585C25.6674 106.09 26.1747 106.383 26.7023 106.383C26.9148 106.383 27.1321 106.335 27.3362 106.235C28.0453 105.884 28.3366 105.025 27.9856 104.315L27.3505 103.031Z" fill="#006872"/>
<path d="M133.455 128.915C133.66 129.016 133.875 129.063 134.088 129.063C134.616 129.063 135.124 128.77 135.373 128.264L135.749 127.502C136.1 126.793 135.808 125.934 135.099 125.584C134.392 125.233 133.531 125.526 133.181 126.235L132.805 126.997C132.454 127.706 132.746 128.565 133.455 128.915L133.455 128.915Z" fill="#006872"/>
<path d="M144.618 106.32C143.905 105.969 143.049 106.262 142.698 106.97L142.063 108.254C141.712 108.963 142.003 109.822 142.712 110.174C142.916 110.275 143.133 110.322 143.346 110.322C143.874 110.322 144.381 110.029 144.632 109.524L145.267 108.24C145.617 107.531 145.327 106.671 144.618 106.32L144.618 106.32Z" fill="#006872"/>
<path d="M139.542 116.595C139.746 116.695 139.961 116.742 140.174 116.742C140.703 116.742 141.211 116.449 141.459 115.943L142.093 114.659C142.444 113.95 142.152 113.091 141.443 112.741C140.734 112.393 139.875 112.683 139.525 113.392L138.891 114.676C138.54 115.385 138.832 116.244 139.542 116.595L139.542 116.595Z" fill="#006872"/>
<path d="M147.786 99.8966C147.075 99.5498 146.218 99.8387 145.868 100.548L145.234 101.832C144.884 102.541 145.176 103.4 145.885 103.751C146.089 103.851 146.305 103.898 146.517 103.898C147.046 103.898 147.554 103.605 147.803 103.099L148.437 101.815C148.788 101.106 148.495 100.247 147.786 99.8966L147.786 99.8966Z" fill="#006872"/>
<path d="M138.274 119.162C137.562 118.811 136.706 119.103 136.354 119.812L135.719 121.096C135.368 121.805 135.659 122.664 136.369 123.016C136.573 123.117 136.789 123.164 137.002 123.164C137.53 123.164 138.037 122.871 138.288 122.366L138.923 121.082C139.274 120.372 138.983 119.513 138.274 119.162L138.274 119.162Z" fill="#006872"/>
<path d="M140.822 55.7435C141.07 56.249 141.578 56.5421 142.107 56.5421C142.32 56.5421 142.535 56.4943 142.739 56.3947C143.448 56.0443 143.741 55.1854 143.39 54.4762L142.756 53.1918C142.406 52.4821 141.549 52.1908 140.838 52.5406C140.129 52.891 139.837 53.7499 140.188 54.459L140.822 55.7435Z" fill="#006872"/>
<path d="M138.937 50.1211C139.149 50.1211 139.366 50.0734 139.571 49.9731C140.28 49.6221 140.571 48.7632 140.22 48.0536L139.585 46.7692C139.232 46.0601 138.376 45.7682 137.665 46.1197C136.956 46.4707 136.665 47.3296 137.016 48.0392L137.651 49.3237C137.902 49.8287 138.409 50.1211 138.937 50.1211L138.937 50.1211Z" fill="#006872"/>
<path d="M135.763 43.7003C135.976 43.7003 136.191 43.6525 136.396 43.5529C137.105 43.2025 137.397 42.3436 137.046 41.6345L136.412 40.35C136.062 39.6403 135.207 39.349 134.494 39.6988C133.785 40.0492 133.493 40.9081 133.844 41.6172L134.478 42.9017C134.727 43.4072 135.235 43.7003 135.763 43.7003L135.763 43.7003Z" fill="#006872"/>
<path d="M143.995 62.1682C144.245 62.6738 144.752 62.9662 145.28 62.9662C145.493 62.9662 145.71 62.9185 145.914 62.8182C146.623 62.4678 146.915 61.6083 146.564 60.8998L145.929 59.6147C145.578 58.9062 144.721 58.6143 144.009 58.9647C143.3 59.3151 143.009 60.1746 143.36 60.8831L143.995 62.1682Z" fill="#006872"/>
<path d="M147.097 68.4494C147.346 68.955 147.853 69.2481 148.382 69.2481C148.595 69.2481 148.812 69.2003 149.014 69.1C149.723 68.7503 150.016 67.8914 149.665 67.1822L149.1 66.0374C148.75 65.3283 147.89 65.0359 147.182 65.3868C146.473 65.7366 146.18 66.5955 146.531 67.3046L147.097 68.4494Z" fill="#006872"/>
<path d="M109.362 113.383C108.93 112.722 108.043 112.54 107.379 112.973C106.719 113.408 106.535 114.296 106.971 114.958L107.758 116.154C108.032 116.573 108.49 116.799 108.956 116.799C109.226 116.799 109.498 116.723 109.742 116.563C110.402 116.128 110.585 115.24 110.15 114.579L109.362 113.383Z" fill="#006872"/>
<path d="M113.3 119.369C112.866 118.709 111.979 118.526 111.316 118.96C110.656 119.395 110.473 120.283 110.908 120.944L111.696 122.141C111.97 122.559 112.428 122.785 112.893 122.785C113.163 122.785 113.436 122.709 113.679 122.55C114.339 122.115 114.523 121.226 114.088 120.565L113.3 119.369Z" fill="#006872"/>
<path d="M119.184 130.927C118.523 131.362 118.34 132.25 118.775 132.912L119.139 133.464C119.413 133.883 119.871 134.109 120.336 134.109C120.606 134.109 120.88 134.033 121.122 133.873C121.782 133.438 121.966 132.55 121.53 131.889L121.167 131.336C120.735 130.676 119.845 130.493 119.184 130.927H119.184Z" fill="#006872"/>
<path d="M117.606 128.534C118.268 128.1 118.451 127.212 118.017 126.551L117.231 125.354C116.796 124.693 115.908 124.511 115.248 124.943C114.586 125.377 114.403 126.266 114.837 126.926L115.623 128.123C115.899 128.542 116.356 128.769 116.822 128.769C117.091 128.769 117.364 128.693 117.606 128.534H117.606Z" fill="#006872"/>
<path d="M62.2027 118.96C61.5396 118.526 60.6526 118.709 60.2194 119.369L59.4315 120.566C58.9964 121.227 59.1796 122.116 59.8398 122.551C60.0833 122.71 60.3561 122.786 60.6259 122.786C61.0914 122.786 61.5492 122.56 61.8232 122.142L62.6111 120.945C63.0462 120.283 62.8629 119.395 62.2028 118.96L62.2027 118.96Z" fill="#006872"/>
<path d="M56.2897 125.352L55.5018 126.548C55.0667 127.209 55.25 128.098 55.9101 128.533C56.1536 128.692 56.4264 128.769 56.6962 128.769C57.1617 128.769 57.6196 128.542 57.8935 128.124L58.6814 126.927C59.1165 126.267 58.9333 125.378 58.2731 124.943C57.6118 124.508 56.7236 124.692 56.2898 125.352H56.2897Z" fill="#006872"/>
<path d="M66.1402 112.973C65.4771 112.54 64.5901 112.722 64.1569 113.383L63.369 114.579C62.9339 115.24 63.1171 116.129 63.7773 116.564C64.0208 116.723 64.2936 116.8 64.5634 116.8C65.0289 116.8 65.4867 116.573 65.7607 116.155L66.5486 114.958C66.9837 114.297 66.8004 113.408 66.1403 112.973L66.1402 112.973Z" fill="#006872"/>
<path d="M55.3252 43.2054L56.2151 44.3287C56.4975 44.6856 56.9177 44.8713 57.3397 44.8713C57.65 44.8713 57.9652 44.7698 58.2278 44.5615C58.8474 44.0703 58.9524 43.1696 58.4612 42.5494L57.5712 41.4261C57.08 40.8065 56.1781 40.7003 55.5579 41.1933C54.939 41.6839 54.8339 42.5846 55.3252 43.2054L55.3252 43.2054Z" fill="#006872"/>
<path d="M60.666 49.9437C60.9483 50.3018 61.3667 50.488 61.7905 50.488C62.1009 50.488 62.4142 50.3871 62.6775 50.1788C63.2988 49.6888 63.4033 48.7875 62.9126 48.1674L62.0245 47.044C61.5362 46.4251 60.6356 46.317 60.013 46.8089C59.3917 47.2989 59.2872 48.2002 59.7778 48.8203L60.666 49.9437Z" fill="#006872"/>
<path d="M53.7868 38.947C54.4082 38.457 54.5126 37.5557 54.022 36.9356L53.1339 35.8122C52.6444 35.1921 51.7449 35.0846 51.1224 35.5771C50.501 36.0671 50.3966 36.9684 50.8872 37.5885L51.7754 38.7119C52.0577 39.07 52.4761 39.2562 52.8999 39.2562C53.2109 39.2562 53.5242 39.1553 53.7869 38.947H53.7868Z" fill="#006872"/>
<path d="M64.2156 54.4376L65.1055 55.5609C65.3878 55.9178 65.808 56.1035 66.23 56.1035C66.5404 56.1035 66.8556 56.002 67.1182 55.7937C67.7377 55.3025 67.8428 54.4018 67.3516 53.7816L66.4616 52.6583C65.9722 52.0393 65.0685 51.9325 64.4483 52.4255C63.8294 52.9162 63.7249 53.8169 64.2155 54.4376L64.2156 54.4376Z" fill="#006872"/>
<path d="M113.559 42.7599L113.519 42.8207C113.091 43.4857 113.303 44.3416 113.968 44.7702C114.199 44.9194 114.461 44.9892 114.721 44.9892C115.206 44.9892 115.689 44.7439 115.967 44.31C116.395 43.6451 116.203 42.7588 115.537 42.3308C114.874 41.901 113.988 42.0932 113.559 42.7599L113.559 42.7599Z" fill="#006872"/>
<path d="M109.996 50.775C110.24 50.9343 110.513 51.0107 110.782 51.0107C111.248 51.0107 111.706 50.7839 111.98 50.3661L112.768 49.1694C113.203 48.5086 113.02 47.6198 112.359 47.1848C111.697 46.7503 110.809 46.9341 110.376 47.5943L109.588 48.791C109.152 49.4511 109.336 50.3399 109.996 50.775L109.996 50.775Z" fill="#006872"/>
<path d="M106.438 53.5794L105.65 54.7761C105.215 55.4369 105.398 56.3257 106.059 56.7607C106.302 56.9201 106.575 56.9965 106.845 56.9965C107.31 56.9965 107.768 56.7696 108.042 56.3518L108.83 55.1551C109.265 54.4943 109.082 53.6055 108.422 53.1705C107.758 52.7378 106.871 52.9192 106.438 53.5794H106.438Z" fill="#006872"/>
<path d="M33.5417 55.9589C33.7459 56.0592 33.9613 56.1063 34.1738 56.1063C34.7026 56.1063 35.2106 55.8133 35.4595 55.3077L36.0934 54.0226C36.4443 53.3129 36.1519 52.4546 35.4428 52.1042C34.7319 51.7556 33.8747 52.0475 33.525 52.7554L32.8911 54.0405C32.5395 54.7502 32.832 55.6079 33.5417 55.9589L33.5417 55.9589Z" fill="#006872"/>
<path d="M27.1977 68.803C27.4018 68.9033 27.6173 68.9505 27.8298 68.9505C28.3586 68.9505 28.8666 68.6574 29.1155 68.1518L29.7494 66.8674C30.1003 66.1583 29.8079 65.2993 29.0988 64.949C28.3879 64.6028 27.5307 64.8917 27.181 65.6002L26.5471 66.8846C26.1961 67.5937 26.488 68.4527 27.1977 68.803L27.1977 68.803Z" fill="#006872"/>
<path d="M36.7123 49.5354C36.9164 49.6362 37.1331 49.6834 37.3462 49.6834C37.8738 49.6834 38.3811 49.3909 38.6318 48.8859L39.2669 47.6015C39.6179 46.8924 39.3272 46.0334 38.6175 45.682C37.9066 45.331 37.0495 45.6223 36.698 46.3314L36.063 47.6159C35.712 48.3255 36.0027 49.1845 36.7124 49.5353L36.7123 49.5354Z" fill="#006872"/>
<path d="M32.2738 58.5269C31.5617 58.1777 30.7057 58.4672 30.3543 59.1769L29.7192 60.462C29.3682 61.1705 29.6589 62.03 30.3686 62.3804C30.5727 62.4813 30.7894 62.5284 31.0025 62.5284C31.5313 62.5284 32.0375 62.2359 32.2882 61.7304L32.9232 60.4453C33.2742 59.7374 32.9829 58.8779 32.2738 58.5269L32.2738 58.5269Z" fill="#006872"/>
<path d="M39.8851 43.116C40.0892 43.2162 40.3047 43.2634 40.5172 43.2634C41.046 43.2634 41.554 42.9703 41.8029 42.4648L42.4368 41.1803C42.7877 40.4712 42.4953 39.6123 41.7862 39.2619C41.0741 38.9145 40.2164 39.2052 39.8684 39.9131L39.2345 41.1975C38.8835 41.9066 39.176 42.7656 39.8851 43.116L39.8851 43.116Z" fill="#006872"/>
</svg>
