<svg width="130" height="130" viewBox="0 0 130 130" fill="none" xmlns="http://www.w3.org/2000/svg">
<path fill-rule="evenodd" clip-rule="evenodd" d="M39.9154 7.66602H25.582C22.731 7.66602 19.9966 8.7986 17.9806 10.8146C15.9646 12.8306 14.832 15.5649 14.832 18.416V104.416C14.832 107.267 15.9646 110.001 17.9806 112.017C19.9966 114.033 22.731 115.166 25.582 115.166H86.4987C89.3498 115.166 92.0841 114.033 94.1001 112.017C96.1161 110.001 97.2487 107.267 97.2487 104.416V18.416C97.2487 15.5649 96.1161 12.8306 94.1001 10.8146C92.0841 8.7986 89.3498 7.66602 86.4987 7.66602H82.9154V14.8327H86.4987C87.4491 14.8327 88.3605 15.2102 89.0325 15.8822C89.7045 16.5542 90.082 17.4657 90.082 18.416V104.416C90.082 105.366 89.7045 106.278 89.0325 106.95C88.3605 107.622 87.4491 107.999 86.4987 107.999H25.582C24.6317 107.999 23.7202 107.622 23.0482 106.95C22.3762 106.278 21.9987 105.366 21.9987 104.416V18.416C21.9987 17.4657 22.3762 16.5542 23.0482 15.8822C23.7202 15.2102 24.6317 14.8327 25.582 14.8327H39.9154V7.66602ZM47.082 14.8327H75.7487V7.66602H47.082V14.8327Z" fill="#006872"/>
<path fill-rule="evenodd" clip-rule="evenodd" d="M29.168 47.0833C29.168 46.133 29.5455 45.2215 30.2175 44.5495C30.8895 43.8775 31.8009 43.5 32.7513 43.5H79.3346C80.285 43.5 81.1964 43.8775 81.8684 44.5495C82.5404 45.2215 82.918 46.133 82.918 47.0833C82.918 48.0337 82.5404 48.9451 81.8684 49.6171C81.1964 50.2891 80.285 50.6667 79.3346 50.6667H32.7513C31.8009 50.6667 30.8895 50.2891 30.2175 49.6171C29.5455 48.9451 29.168 48.0337 29.168 47.0833ZM29.168 65C29.168 64.0496 29.5455 63.1382 30.2175 62.4662C30.8895 61.7942 31.8009 61.4167 32.7513 61.4167H57.8346C58.785 61.4167 59.6964 61.7942 60.3684 62.4662C61.0404 63.1382 61.418 64.0496 61.418 65C61.418 65.9504 61.0404 66.8618 60.3684 67.5338C59.6964 68.2058 58.785 68.5833 57.8346 68.5833H32.7513C31.8009 68.5833 30.8895 68.2058 30.2175 67.5338C29.5455 66.8618 29.168 65.9504 29.168 65ZM29.168 82.9167C29.168 81.9663 29.5455 81.0549 30.2175 80.3829C30.8895 79.7109 31.8009 79.3333 32.7513 79.3333H72.168C73.1183 79.3333 74.0298 79.7109 74.7018 80.3829C75.3738 81.0549 75.7513 81.9663 75.7513 82.9167C75.7513 83.867 75.3738 84.7785 74.7018 85.4505C74.0298 86.1225 73.1183 86.5 72.168 86.5H32.7513C31.8009 86.5 30.8895 86.1225 30.2175 85.4505C29.5455 84.7785 29.168 83.867 29.168 82.9167Z" fill="#006872"/>
<path fill-rule="evenodd" clip-rule="evenodd" d="M7.66667 14.834V104.417C7.66667 109.169 9.55431 113.726 12.9143 117.086C16.2744 120.446 20.8315 122.334 25.5833 122.334H86.5V129.501H25.5833C18.9308 129.501 12.5508 126.858 7.84674 122.154C3.1427 117.45 0.5 111.07 0.5 104.417V14.834H7.66667ZM108 25.584C108 22.7329 109.133 19.9986 111.149 17.9826C113.165 15.9666 115.899 14.834 118.75 14.834C121.601 14.834 124.335 15.9666 126.351 17.9826C128.367 19.9986 129.5 22.7329 129.5 25.584V61.9602V98.3364L118.75 114.461L108 98.3364V61.9602V25.584ZM118.75 22.0007C117.8 22.0007 116.888 22.3782 116.216 23.0502C115.544 23.7222 115.167 24.6336 115.167 25.584V96.1649L118.75 101.54L122.333 96.1649V25.584C122.333 24.6336 121.956 23.7222 121.284 23.0502C120.612 22.3782 119.7 22.0007 118.75 22.0007Z" fill="#010A0B" fill-opacity="0.61"/>
<path fill-rule="evenodd" clip-rule="evenodd" d="M125.917 39.9167H111.583V32.75H125.917V39.9167ZM72.1667 0.5C73.117 0.5 74.0285 0.877529 74.7005 1.54953C75.3725 2.22154 75.75 3.13297 75.75 4.08333V18.4167C75.75 19.367 75.3725 20.2785 74.7005 20.9505C74.0285 21.6225 73.117 22 72.1667 22C71.2163 22 70.3049 21.6225 69.6329 20.9505C68.9609 20.2785 68.5833 19.367 68.5833 18.4167V4.08333C68.5833 3.13297 68.9609 2.22154 69.6329 1.54953C70.3049 0.877529 71.2163 0.5 72.1667 0.5ZM36.3333 0.5C37.2837 0.5 38.1951 0.877529 38.8671 1.54953C39.5391 2.22154 39.9167 3.13297 39.9167 4.08333V18.4167C39.9167 19.367 39.5391 20.2785 38.8671 20.9505C38.1951 21.6225 37.2837 22 36.3333 22C35.383 22 34.4715 21.6225 33.7995 20.9505C33.1275 20.2785 32.75 19.367 32.75 18.4167V4.08333C32.75 3.13297 33.1275 2.22154 33.7995 1.54953C34.4715 0.877529 35.383 0.5 36.3333 0.5Z" fill="#006872"/>
</svg>
