<svg width="79" height="79" viewBox="0 0 79 79" fill="none" xmlns="http://www.w3.org/2000/svg">
<path d="M39.5003 75.226C40.8826 75.1942 42.2092 74.6745 43.2453 73.7588C44.2814 72.8432 44.9603 71.5906 45.1619 70.2227H33.6191C33.8265 71.6278 34.5371 72.9098 35.6189 73.8301C36.7008 74.7505 38.0801 75.2465 39.5003 75.226Z" fill="black"/>
<path d="M71.3417 61.0708C69.2256 59.1843 67.3729 57.0217 65.8336 54.6411C64.1532 51.355 63.146 47.7664 62.8711 44.0858V33.2452C62.8622 31.9285 62.7448 30.6147 62.52 29.3172C60.7928 28.9719 59.1328 28.3494 57.6045 27.4738C58.1871 29.3497 58.483 31.3029 58.4823 33.2672V44.1077C58.7512 48.5976 59.9863 52.9765 62.1031 56.9452C63.6181 59.346 65.4158 61.5562 67.4575 63.5286H11.2578C13.2995 61.5562 15.0972 59.346 16.6122 56.9452C18.729 52.9765 19.9641 48.5976 20.2331 44.1077V33.2452C20.2215 30.7056 20.711 28.1886 21.6736 25.8384C22.6362 23.4882 24.0529 21.3509 25.8426 19.549C27.6323 17.747 29.7598 16.3158 32.1034 15.3373C34.447 14.3587 36.9606 13.8521 39.5003 13.8463C43.2172 13.8493 46.8506 14.9485 49.9459 17.0063C49.6046 15.7533 49.4131 14.4642 49.3753 13.1661V11.7836C47.084 10.6564 44.6224 9.91497 42.0897 9.58911V6.82411C42.0897 6.04714 41.7811 5.30199 41.2317 4.75259C40.6823 4.20318 39.9371 3.89453 39.1602 3.89453C38.3832 3.89453 37.638 4.20318 37.0886 4.75259C36.5392 5.30199 36.2306 6.04714 36.2306 6.82411V9.69884C30.5595 10.4988 25.3693 13.3235 21.6183 17.6514C17.8672 21.9792 15.8085 27.518 15.8222 33.2452V44.0858C15.5474 47.7664 14.5402 51.355 12.8597 54.6411C11.3475 57.0162 9.52462 59.1786 7.43947 61.0708C7.20539 61.2764 7.01779 61.5296 6.88914 61.8133C6.7605 62.0971 6.69375 62.405 6.69336 62.7166V65.7011C6.69336 66.2831 6.92456 66.8412 7.3361 67.2528C7.74764 67.6643 8.3058 67.8955 8.8878 67.8955H69.8934C70.4754 67.8955 71.0335 67.6643 71.4451 67.2528C71.8566 66.8412 72.0878 66.2831 72.0878 65.7011V62.7166C72.0874 62.405 72.0207 62.0971 71.892 61.8133C71.7634 61.5296 71.5758 61.2764 71.3417 61.0708Z" fill="black"/>
</svg>
