<svg width="2000" height="1175" viewBox="0 0 2000 1175" fill="none" xmlns="http://www.w3.org/2000/svg">
<path d="M1082.63 759.496H1157.45V733.199H1082.63V759.496Z" fill="#EBEBEB"/>
<path d="M1124.39 792.654H1199.22V766.358H1124.39V792.654Z" fill="#EBEBEB"/>
<path d="M20 792.631H94.8242V766.334H20V792.631Z" fill="#EBEBEB"/>
<path d="M61.7637 127.322L136.588 127.322V101.026H61.7637V127.322Z" fill="#EBEBEB"/>
<path d="M20 160.481H94.8242V134.184H20V160.481Z" fill="#EBEBEB"/>
<path d="M1082.63 127.322L1157.45 127.322V101.026H1082.63V127.322Z" fill="#EBEBEB"/>
<path d="M1999.51 170H1596V544.402H1999.51V170Z" fill="#DBDBDB"/>
<path d="M1972.95 192.113H1622.59V522.5H1972.95V192.113Z" fill="#EBEBEB"/>
<path d="M1777.75 250.534H1654.27V372.241H1777.75V250.534Z" fill="white"/>
<path d="M1720.44 258.806C1720.44 259.536 1720.18 260.249 1719.7 260.856C1719.21 261.463 1718.52 261.936 1717.7 262.215C1716.89 262.494 1716 262.567 1715.14 262.425C1714.28 262.283 1713.49 261.931 1712.87 261.415C1712.25 260.899 1711.83 260.242 1711.66 259.526C1711.48 258.811 1711.57 258.069 1711.91 257.395C1712.24 256.72 1712.81 256.144 1713.54 255.739C1714.27 255.333 1715.13 255.117 1716.01 255.117C1717.18 255.117 1718.31 255.506 1719.14 256.198C1719.98 256.889 1720.44 257.828 1720.44 258.806Z" fill="#A6A6A6"/>
<path d="M1677.78 274.904C1690.27 274.105 1702.75 274.058 1715.22 273.94C1727.68 273.823 1740.2 274.105 1752.68 274.904C1740.2 275.703 1727.71 275.75 1715.22 275.867C1702.73 275.985 1690.27 275.703 1677.78 274.904Z" fill="#EBEBEB"/>
<path d="M1677.78 284.539C1691.3 283.254 1704.97 283.254 1718.49 284.539C1711.74 285.235 1704.93 285.557 1698.12 285.503C1691.32 285.545 1684.53 285.223 1677.78 284.539Z" fill="#EBEBEB"/>
<path d="M1677.78 294.151C1686.43 293.466 1695.11 293.144 1703.8 293.187C1712.48 293.133 1721.16 293.454 1729.8 294.151C1721.12 294.903 1712.48 295.067 1703.8 295.114C1695.13 295.161 1686.45 294.903 1677.78 294.151Z" fill="#EBEBEB"/>
<path d="M1677.78 303.762C1688.63 303.01 1699.48 302.822 1710.33 302.798C1721.18 302.775 1732.03 303.01 1742.88 303.762C1732.03 304.514 1721.18 304.702 1710.33 304.725C1699.48 304.749 1688.63 304.514 1677.78 303.762Z" fill="#EBEBEB"/>
<path d="M1677.78 313.373C1687.19 312.622 1696.62 312.457 1706.03 312.41C1715.44 312.363 1724.88 312.622 1734.29 313.373C1724.85 314.125 1715.41 314.313 1706.03 314.337C1696.65 314.36 1687.19 314.125 1677.78 313.373Z" fill="#EBEBEB"/>
<path d="M1677.78 322.985C1689.84 322.186 1701.91 322.139 1713.97 322.021C1726.04 321.904 1738.1 322.186 1750.17 322.985C1738.1 323.807 1726.04 323.854 1713.97 323.972C1701.91 324.089 1689.84 323.784 1677.78 322.985Z" fill="#EBEBEB"/>
<path d="M1677.78 332.62C1685.54 331.936 1693.34 331.614 1701.14 331.656C1708.96 331.602 1716.77 331.924 1724.54 332.62C1708.99 333.905 1693.33 333.905 1677.78 332.62Z" fill="#EBEBEB"/>
<path d="M1677.78 342.232C1690.27 341.433 1702.75 341.385 1715.22 341.268C1727.68 341.15 1740.2 341.433 1752.68 342.232C1740.2 343.031 1727.71 343.078 1715.22 343.195C1702.73 343.313 1690.27 343.031 1677.78 342.232Z" fill="#EBEBEB"/>
<path d="M1677.78 351.843C1690.27 351.044 1702.75 350.997 1715.22 350.879C1727.68 350.762 1740.2 351.044 1752.68 351.843C1740.2 352.642 1727.71 352.712 1715.22 352.806C1702.73 352.9 1690.27 352.689 1677.78 351.843Z" fill="#EBEBEB"/>
<path d="M1942.68 326.416H1796.57V470.424H1942.68V326.416Z" fill="white"/>
<path d="M1814.4 336.897C1814.4 337.627 1814.14 338.34 1813.65 338.947C1813.16 339.553 1812.47 340.026 1811.66 340.306C1810.85 340.585 1809.96 340.658 1809.1 340.516C1808.24 340.373 1807.44 340.022 1806.82 339.506C1806.2 338.99 1805.78 338.332 1805.61 337.617C1805.44 336.901 1805.53 336.159 1805.86 335.485C1806.2 334.811 1806.77 334.235 1807.5 333.829C1808.23 333.424 1809.08 333.207 1809.96 333.207C1811.14 333.207 1812.27 333.596 1813.1 334.288C1813.93 334.98 1814.4 335.918 1814.4 336.897Z" fill="#A6A6A6"/>
<path d="M1817 362.348C1822.36 361.669 1827.79 361.339 1833.22 361.361C1838.64 361.327 1844.05 361.657 1849.41 362.348C1838.66 363.632 1827.75 363.632 1817 362.348Z" fill="#EBEBEB"/>
<path d="M1817 373.204C1823.97 372.524 1830.98 372.195 1837.99 372.217C1845 372.183 1852 372.513 1858.96 373.204C1845.01 374.489 1830.94 374.489 1817 373.204Z" fill="#EBEBEB"/>
<path d="M1817 384.061C1823.44 383.378 1829.94 383.056 1836.44 383.098C1842.94 383.043 1849.43 383.365 1855.88 384.061C1842.96 385.346 1829.91 385.346 1817 384.061Z" fill="#EBEBEB"/>
<path d="M1817 394.989C1823.44 394.306 1829.94 393.984 1836.44 394.026C1842.94 393.971 1849.43 394.293 1855.88 394.989C1842.96 396.274 1829.91 396.274 1817 394.989Z" fill="#EBEBEB"/>
<path d="M1817 405.775C1822.61 405.091 1828.28 404.769 1833.95 404.812C1839.62 404.757 1845.29 405.079 1850.91 405.775C1839.66 407.069 1828.25 407.069 1817 405.775Z" fill="#EBEBEB"/>
<path d="M1817 416.633C1824.17 415.948 1831.39 415.627 1838.61 415.669C1845.84 415.615 1853.06 415.937 1860.23 416.633C1845.86 417.917 1831.37 417.917 1817 416.633Z" fill="#EBEBEB"/>
<path d="M1817 427.489C1828.84 426.205 1840.84 426.205 1852.69 427.489C1840.84 428.774 1828.84 428.774 1817 427.489Z" fill="#EBEBEB"/>
<path d="M1817 438.346C1831.87 437.062 1846.86 437.062 1861.73 438.346C1846.86 439.631 1831.87 439.631 1817 438.346Z" fill="#EBEBEB"/>
<path d="M1817 449.204C1831.87 447.919 1846.86 447.919 1861.73 449.204C1846.86 450.488 1831.87 450.488 1817 449.204Z" fill="#EBEBEB"/>
<path d="M1880.86 362.347C1887.91 361.667 1895.01 361.338 1902.11 361.36C1909.2 361.326 1916.29 361.656 1923.33 362.347C1909.24 363.627 1895.03 363.627 1880.94 362.347H1880.86Z" fill="#EBEBEB"/>
<path d="M1880.86 373.204C1885.47 372.527 1890.14 372.197 1894.82 372.217C1899.5 372.183 1904.17 372.514 1908.78 373.204C1899.53 374.488 1890.1 374.488 1880.86 373.204Z" fill="#EBEBEB"/>
<path d="M1880.86 384.061C1887.48 383.378 1894.16 383.056 1900.84 383.098C1907.51 383.044 1914.19 383.366 1920.81 384.061C1907.54 385.346 1894.13 385.346 1880.86 384.061Z" fill="#EBEBEB"/>
<path d="M1880.86 394.989C1887.3 394.306 1893.8 393.984 1900.3 394.026C1906.8 393.972 1913.29 394.294 1919.74 394.989C1906.82 396.274 1893.77 396.274 1880.86 394.989Z" fill="#EBEBEB"/>
<path d="M1880.86 405.775C1887.91 405.091 1895.01 404.77 1902.11 404.812C1909.2 404.758 1916.29 405.08 1923.33 405.775C1909.24 407.055 1895.03 407.055 1880.94 405.775H1880.86Z" fill="#EBEBEB"/>
<path d="M1880.86 416.632C1886.47 415.947 1892.14 415.625 1897.81 415.669C1903.49 415.612 1909.15 415.934 1914.77 416.632C1903.52 417.928 1892.11 417.928 1880.86 416.632Z" fill="#EBEBEB"/>
<path d="M1880.86 427.49C1894.13 426.205 1907.54 426.205 1920.81 427.49C1907.54 428.774 1894.13 428.774 1880.86 427.49Z" fill="#EBEBEB"/>
<path d="M1880.86 438.347C1891.1 437.062 1901.52 437.062 1911.77 438.347C1901.52 439.631 1891.1 439.631 1880.86 438.347Z" fill="#EBEBEB"/>
<path d="M1880.86 449.204C1890.68 447.919 1900.68 447.919 1910.5 449.204C1900.68 450.488 1890.68 450.488 1880.86 449.204Z" fill="#EBEBEB"/>
<path d="M1840.7 217.07H1766.39V278.875H1840.7V217.07Z" fill="#A6A6A6"/>
<path d="M1807.98 223.439C1807.98 224.169 1807.72 224.882 1807.24 225.489C1806.75 226.096 1806.06 226.568 1805.24 226.848C1804.43 227.127 1803.54 227.2 1802.68 227.058C1801.82 226.915 1801.03 226.564 1800.41 226.048C1799.79 225.532 1799.37 224.874 1799.2 224.159C1799.02 223.443 1799.11 222.701 1799.45 222.027C1799.78 221.353 1800.35 220.777 1801.08 220.371C1801.81 219.966 1802.67 219.75 1803.55 219.75C1804.72 219.75 1805.85 220.138 1806.68 220.83C1807.52 221.522 1807.98 222.46 1807.98 223.439Z" fill="#EBEBEB"/>
<path d="M1972.64 192.113H1962.6V522.876H1972.64V192.113Z" fill="#C7C7C7"/>
<path d="M345.787 271.518C384.947 225.91 372.236 162.537 317.396 129.969C262.557 97.4013 186.355 107.972 147.195 153.58C108.035 199.187 120.746 262.561 175.586 295.129C230.425 327.696 306.627 317.125 345.787 271.518Z" fill="#EBEBEB"/>
<path d="M345.186 272.868C383.764 230.09 373.339 169.403 321.903 137.32C270.466 105.236 197.495 113.906 158.917 156.684C120.339 199.461 130.763 260.148 182.2 292.232C233.637 324.315 306.608 315.646 345.186 272.868Z" fill="#DBDBDB"/>
<path d="M315.305 288.696C364.376 259.64 375.834 203.002 340.896 162.191C305.958 121.38 237.855 111.851 188.783 140.908C139.712 169.964 128.254 226.602 163.192 267.413C198.13 308.224 266.233 317.753 315.305 288.696Z" fill="white"/>
<path opacity="0.5" d="M358.659 195.66C308.983 220.688 227.349 261.742 181.742 284.255C168.795 275.186 158.56 263.738 151.847 250.815L302.823 134.56C316.931 140.735 329.242 149.405 338.888 159.961C348.535 170.517 355.283 182.702 358.659 195.66Z" fill="#EBEBEB"/>
<path opacity="0.5" d="M360.948 217.985C360.57 228.037 358.172 237.966 353.855 247.36L217.798 300.87C211.875 299.229 206.128 297.177 200.618 294.736C241.732 275.067 316.81 239.135 360.948 217.985Z" fill="#EBEBEB"/>
<path d="M253.119 130.683H251V144.43H253.119V130.683Z" fill="#C7C7C7"/>
<path d="M202.412 141.479L200.576 142.36L208.842 154.266L210.677 153.385L202.412 141.479Z" fill="#C7C7C7"/>
<path d="M165.84 171.087L164.781 172.62L179.162 179.494L180.222 177.96L165.84 171.087Z" fill="#C7C7C7"/>
<path d="M167.444 213.943H150.914V215.706H167.444V213.943Z" fill="#C7C7C7"/>
<path d="M178.223 249.255L163.909 256.131L164.969 257.657L179.283 250.781L178.223 249.255Z" fill="#C7C7C7"/>
<path d="M208.819 275.358L200.559 287.266L202.394 288.147L210.655 276.239L208.819 275.358Z" fill="#C7C7C7"/>
<path d="M253.119 285.195H251V298.943H253.119V285.195Z" fill="#C7C7C7"/>
<path d="M295.282 275.303L293.446 276.184L301.711 288.09L303.547 287.209L295.282 275.303Z" fill="#C7C7C7"/>
<path d="M325.883 249.253L324.823 250.779L339.137 257.655L340.197 256.129L325.883 249.253Z" fill="#C7C7C7"/>
<path d="M353.205 213.943H336.675V215.706H353.205V213.943Z" fill="#C7C7C7"/>
<path d="M339.131 171.982L324.819 178.859L325.879 180.385L340.192 173.508L339.131 171.982Z" fill="#C7C7C7"/>
<path d="M301.732 141.5L293.474 153.409L295.31 154.29L303.568 142.381L301.732 141.5Z" fill="#C7C7C7"/>
<path d="M253.656 136.91L257.245 220.923L246.874 220.829L250.83 136.887L253.656 136.91Z" fill="#C7C7C7"/>
<path d="M316.584 185.508L248.598 221.581L243.653 214.037L315.228 183.464L316.584 185.508Z" fill="#A6A6A6"/>
<path d="M255.578 214.813C255.578 215.394 255.37 215.962 254.982 216.445C254.594 216.928 254.043 217.304 253.397 217.527C252.752 217.749 252.042 217.807 251.356 217.694C250.671 217.581 250.042 217.301 249.548 216.89C249.054 216.479 248.718 215.956 248.581 215.386C248.445 214.816 248.515 214.225 248.782 213.689C249.05 213.152 249.502 212.693 250.083 212.37C250.664 212.048 251.347 211.875 252.045 211.875C252.51 211.872 252.971 211.946 253.402 212.093C253.832 212.239 254.223 212.455 254.551 212.729C254.88 213.002 255.14 213.327 255.316 213.685C255.493 214.043 255.581 214.426 255.578 214.813Z" fill="#C7C7C7"/>
<path d="M1863.88 1017.55L1647.92 1018.14L1431.96 1018.33L1000 1018.72L568.04 1018.35L352.08 1018.14L136.08 1017.55L352.08 1016.99L568.04 1016.77L1000 1016.38L1431.96 1016.77L1647.92 1016.99L1863.88 1017.55Z" fill="#263238"/>
<path d="M420.28 292.864C419.985 285.671 420.453 278.474 421.68 271.315C422.743 264.152 424.546 257.034 427.08 250C427.374 257.193 426.907 264.39 425.68 271.55C424.617 278.712 422.814 285.83 420.28 292.864Z" fill="#263238"/>
<path d="M398.68 295.332C392.328 289.182 386.623 282.809 381.6 276.25C376.396 269.74 371.894 263.045 368.12 256.204C380.717 268.549 390.965 281.67 398.68 295.332Z" fill="#263238"/>
<path d="M382.12 303.815C371.387 300.357 361.021 296.519 351.08 292.324C341.023 288.21 331.417 283.728 322.32 278.905C343.734 285.907 363.786 294.26 382.12 303.815Z" fill="#263238"/>
<path d="M374.96 316.012C350.464 316.252 325.998 314.912 302 312.017C314.231 311.843 326.468 312.118 338.64 312.839C350.845 313.463 362.974 314.523 374.96 316.012Z" fill="#263238"/>
<path d="M452.52 331.686C473.997 338.687 494.115 347.04 512.52 356.596C501.77 353.155 491.403 349.317 481.48 345.105C471.369 340.983 461.698 336.502 452.52 331.686Z" fill="#263238"/>
<path d="M459.68 319.489C484.189 319.251 508.668 320.591 532.68 323.485C520.436 323.658 508.186 323.384 496 322.662C483.795 322.038 471.666 320.978 459.68 319.489Z" fill="#263238"/>
<path d="M455.48 306.8C465.947 303.067 476.794 299.716 487.96 296.765C499.04 293.708 510.435 291.063 522.08 288.846C511.623 292.58 500.789 295.939 489.64 298.904C478.543 301.949 467.134 304.586 455.48 306.8Z" fill="#263238"/>
<path d="M441.04 297.024C446.925 290.712 453.471 284.622 460.64 278.788C467.615 272.874 475.231 267.23 483.44 261.891C471.533 274.513 457.316 286.333 441.04 297.141V297.024Z" fill="#263238"/>
<path d="M1702.46 891.447C1702.46 891.447 1749.26 792.253 1786.46 758.578C1823.66 724.902 1893.5 687.89 1893.5 687.89C1893.5 687.89 1892.02 840.805 1702.46 891.447Z" fill="#FFC727"/>
<path d="M1705.82 889.661C1721.57 874.164 1735.8 858.15 1748.42 841.697C1753.79 823.972 1761.56 806.526 1771.66 789.527C1771.86 789.222 1772.62 789.386 1772.5 789.715C1766.3 805.366 1759.06 820.9 1752.5 836.527C1771.38 812.393 1789.34 787.953 1811.82 765.134C1817.01 754.107 1824.3 743.457 1833.54 733.386C1833.78 733.104 1834.58 733.245 1834.34 733.55C1828.65 741.31 1823.77 749.268 1819.74 757.379C1830.34 747.196 1842.23 737.495 1855.3 728.357C1856.14 727.793 1857.78 728.357 1856.94 729.038C1826.86 751.716 1806.1 777.495 1786.34 803.604C1807.61 789.979 1827.23 775.499 1845.06 760.27C1845.06 760.129 1845.62 760.27 1845.46 760.434C1826.88 777.51 1805.84 793.619 1782.58 808.586C1768.18 827.715 1754.02 846.914 1736.86 865.127C1771.18 847.995 1797.58 825.835 1823.7 804.45C1823.76 804.401 1823.84 804.358 1823.92 804.326C1824.01 804.293 1824.1 804.271 1824.2 804.26C1824.3 804.249 1824.41 804.25 1824.51 804.262C1824.61 804.275 1824.7 804.299 1824.78 804.332C1824.87 804.366 1824.94 804.41 1825 804.46C1825.05 804.51 1825.09 804.566 1825.11 804.625C1825.13 804.684 1825.12 804.745 1825.1 804.803C1825.08 804.862 1825.04 804.918 1824.98 804.967C1798.82 828.467 1771.78 850.533 1734.18 867.9C1726.57 875.898 1718.18 883.634 1709.06 891.071C1708.75 891.323 1708.27 891.491 1707.74 891.537C1707.21 891.584 1706.67 891.505 1706.24 891.318C1705.81 891.131 1705.53 890.851 1705.45 890.54C1705.37 890.23 1705.51 889.913 1705.82 889.661Z" fill="#263238"/>
<path d="M1687.94 900.377C1687.94 900.377 1771.94 808.915 1747.62 720.25C1723.3 631.584 1697.02 600 1697.02 600C1697.02 600 1564.82 737.921 1687.94 900.377Z" fill="#FFC727"/>
<path d="M1653.42 756.604C1660.55 781.728 1671.41 806.436 1685.9 830.441C1686.14 797.893 1687.18 765.37 1688.66 732.822C1679.16 713.076 1673.79 692.724 1672.66 672.216C1672.66 671.628 1674.14 671.652 1674.22 672.216C1676.89 689.792 1681.82 707.225 1688.98 724.362C1690.26 697.525 1691.73 670.688 1693.38 643.851C1693.38 643.758 1693.45 643.668 1693.56 643.602C1693.67 643.536 1693.82 643.499 1693.98 643.499C1694.14 643.499 1694.3 643.536 1694.41 643.602C1694.52 643.668 1694.58 643.758 1694.58 643.851C1694.58 685.775 1694.58 727.699 1694.1 769.647C1704.36 753.433 1712.47 736.776 1718.34 719.827C1718.36 719.796 1718.4 719.77 1718.45 719.751C1718.49 719.733 1718.55 719.723 1718.6 719.723C1718.66 719.723 1718.71 719.733 1718.76 719.751C1718.81 719.77 1718.84 719.796 1718.86 719.827C1716.3 739.402 1706.22 758.343 1694.02 776.509C1693.7 803.322 1693.22 830.112 1692.18 856.926C1706.42 828.42 1721.62 800.831 1725.74 770.704C1725.74 770.664 1725.76 770.624 1725.78 770.587C1725.81 770.55 1725.85 770.516 1725.9 770.488C1725.94 770.46 1726 770.437 1726.06 770.422C1726.13 770.406 1726.2 770.399 1726.26 770.399C1726.33 770.399 1726.4 770.406 1726.46 770.422C1726.53 770.437 1726.58 770.46 1726.63 770.488C1726.68 770.516 1726.72 770.55 1726.74 770.587C1726.77 770.624 1726.78 770.664 1726.78 770.704C1725.7 803.91 1711.18 837.609 1692.66 868.84C1692.46 869.148 1692.13 869.422 1691.7 869.639C1691.3 879.415 1690.82 889.207 1690.26 899.014C1690.26 899.301 1690.07 899.576 1689.72 899.778C1689.38 899.981 1688.91 900.095 1688.42 900.095C1687.94 900.095 1687.47 899.981 1687.12 899.778C1686.78 899.576 1686.58 899.301 1686.58 899.014C1685.89 878.976 1685.61 858.939 1685.74 838.901C1666.86 813.051 1656.78 784.405 1652.58 756.651C1652.66 756.393 1653.38 756.346 1653.42 756.604Z" fill="#263238"/>
<path d="M1659.18 742.457C1662.14 750.415 1664.11 758.489 1665.06 766.615C1665.06 766.897 1664.38 766.921 1664.26 766.615C1660.99 758.692 1658.68 750.643 1657.34 742.528C1657.22 741.964 1658.98 741.846 1659.18 742.457Z" fill="#263238"/>
<path d="M1708.42 675.6C1708.42 675.318 1709.22 675.412 1709.22 675.6C1709.12 681.241 1707.69 686.848 1704.98 692.261C1704.78 692.707 1703.7 692.496 1703.86 692.073C1705.66 686.645 1706.78 681.122 1708.42 675.6Z" fill="#263238"/>
<path d="M1657.3 907.38C1657.3 907.38 1660.7 811.9 1614.34 764.453C1567.98 717.007 1491.06 692.825 1491.06 692.825C1491.06 692.825 1522.06 861.109 1657.3 907.38Z" fill="#FFC727"/>
<path d="M1572.78 825.741C1592.26 842.309 1611.66 858.289 1635.54 872.741C1626.26 853.22 1615.6 834.029 1603.54 815.166C1577.54 801.701 1551.78 787.742 1535.82 769.318C1535.58 769.036 1536.3 768.777 1536.58 769.059C1553.74 785.368 1576.58 798.434 1600.78 810.983C1582.19 782.557 1560.65 754.83 1536.26 727.958C1536.18 727.824 1536.18 727.677 1536.26 727.543C1536.34 727.409 1536.5 727.296 1536.71 727.223C1536.92 727.151 1537.17 727.123 1537.41 727.146C1537.65 727.168 1537.86 727.239 1538.02 727.347C1552.85 741.436 1566.36 755.988 1578.5 770.939C1574.14 760.717 1570.5 750.283 1566.22 740.154C1566.2 740.098 1566.21 740.038 1566.26 739.987C1566.31 739.937 1566.39 739.899 1566.48 739.884C1566.58 739.868 1566.68 739.876 1566.77 739.904C1566.85 739.933 1566.92 739.98 1566.94 740.037C1575.18 752.797 1583.34 766.897 1585.98 780.527C1602.22 801.706 1615.87 823.538 1626.82 845.857C1625.62 831.546 1624.1 817.305 1621.62 803.017C1621.62 802.758 1622.34 802.688 1622.42 803.017C1627.57 818.859 1629.92 834.972 1629.42 851.098C1636.1 865.315 1641.74 879.721 1646.26 894.22C1646.26 894.62 1645.42 894.784 1645.26 894.385C1642.74 888.298 1639.98 882.282 1637.26 876.266C1637.26 876.266 1636.9 876.266 1636.74 876.266C1611.86 861.532 1588.26 844.776 1572.74 826C1572.42 825.718 1572.66 825.647 1572.78 825.741Z" fill="#263238"/>
<path d="M1519.06 748.05C1524.22 751.34 1528.94 754.818 1533.94 758.202C1538.79 761.067 1543.26 764.147 1547.3 767.414C1547.3 767.555 1547.3 767.72 1546.94 767.626C1541.11 765.073 1535.91 762.051 1531.5 758.649C1526.62 755.448 1522.21 752.013 1518.3 748.379C1518.02 748.121 1518.7 747.815 1519.06 748.05Z" fill="#263238"/>
<path d="M1795.06 895.724L1789.22 926.274L1771.58 1018.91H1617.98L1600.42 926.321L1594.54 895.771H1795.1L1795.06 895.724Z" fill="#455A64"/>
<path d="M1795.06 895.724L1789.22 926.274H1600.42L1594.54 895.724H1795.1H1795.06Z" fill="#37474F"/>
<path d="M1580.86 908.179H1808.7V873.516H1580.86V908.179Z" fill="#455A64"/>
<path d="M1558.6 985.613H1243.89V1017.57H1558.6V985.613Z" fill="#37474F"/>
<path d="M1318.45 985.613H1305.63V1017.57H1318.45V985.613Z" fill="#455A64"/>
<path d="M1521.57 985.613H1490.81V1017.57H1521.57V985.613Z" fill="#455A64"/>
<path d="M1535.95 892.177H1214.5V934.407H1535.95V892.177Z" fill="#37474F"/>
<path d="M1479.09 905.878H1401.88V920.706H1479.09V905.878Z" fill="#FFC727"/>
<path d="M1517.79 913.281C1517.92 915.035 1517.44 916.783 1516.39 918.297C1515.35 919.811 1513.81 921.022 1511.95 921.772C1510.1 922.522 1508.03 922.777 1506 922.503C1503.98 922.229 1502.1 921.44 1500.6 920.237C1499.11 919.034 1498.07 917.474 1497.62 915.758C1497.18 914.043 1497.34 912.252 1498.1 910.617C1498.85 908.983 1500.16 907.581 1501.85 906.593C1503.55 905.605 1505.55 905.078 1507.6 905.079C1510.22 905.009 1512.76 905.834 1514.67 907.371C1516.58 908.909 1517.7 911.034 1517.79 913.281Z" fill="#FFC727"/>
<path d="M1361.39 854.812H1199V892.083H1361.39V854.812Z" fill="#263238"/>
<path d="M1511.49 854.812H1361.39V892.083H1511.49V854.812Z" fill="#263238"/>
<path d="M1361.39 858.69H1199V888.23H1361.39V858.69Z" fill="white"/>
<path d="M1213.13 864.8C1230.15 864.612 1247.17 864.471 1264.19 864.377L1287.28 864.236L1338.3 864.377C1355.31 864.377 1344.38 864.589 1361.39 864.8C1344.38 865.012 1355.31 865.153 1338.3 865.247L1287.28 865.364L1264.19 865.247C1247.17 865.121 1230.15 864.972 1213.13 864.8Z" fill="#DBDBDB"/>
<path d="M1213.13 870.558C1230.15 870.354 1247.17 870.213 1264.19 870.134L1287.28 869.993L1338.3 870.111C1355.31 870.111 1344.38 870.346 1361.39 870.558C1344.38 870.769 1355.31 870.91 1338.3 870.98L1287.28 871.121L1264.19 870.98C1247.17 870.918 1230.15 870.777 1213.13 870.558Z" fill="#DBDBDB"/>
<path d="M1213.13 876.339C1230.15 876.151 1247.17 876.01 1264.19 875.916L1287.28 875.798L1338.3 875.916C1355.31 875.916 1344.38 876.151 1361.39 876.339C1344.38 876.55 1355.31 876.715 1338.3 876.785H1287.28H1264.19C1247.17 876.707 1230.15 876.558 1213.13 876.339Z" fill="#DBDBDB"/>
<path d="M1213.13 882.143C1230.15 881.939 1247.17 881.798 1264.19 881.72L1287.28 881.579L1338.3 881.72C1355.31 881.72 1344.38 881.932 1361.39 882.143C1344.38 882.355 1355.31 882.496 1338.3 882.566L1287.28 882.707L1264.19 882.566C1247.17 882.503 1230.15 882.362 1213.13 882.143Z" fill="#DBDBDB"/>
<path d="M1415.79 854.812H1394.64V892.083H1415.79V854.812Z" fill="#455A64"/>
<path d="M1503.74 854.812H1489.52V892.083H1503.74V854.812Z" fill="#455A64"/>
<path d="M1339.84 985.59H1522.72V934.36H1339.84V985.59Z" fill="#FFC727"/>
<path d="M1200.97 985.59H1339.84V934.36H1200.97V985.59Z" fill="#FFC727"/>
<path d="M1339.84 980.279H1522.72V939.695H1339.84V980.279Z" fill="white"/>
<path d="M1510.86 971.937C1496.62 972.156 1482.37 972.297 1468.1 972.359L1425.35 972.5L1382.59 972.359C1368.33 972.359 1354.07 972.219 1339.81 971.937C1354.09 971.733 1368.35 971.592 1382.59 971.514L1425.35 971.373L1468.1 971.514C1482.37 971.592 1496.62 971.733 1510.86 971.937Z" fill="#DBDBDB"/>
<path d="M1510.86 963.97C1496.62 964.189 1482.37 964.33 1468.1 964.393L1425.35 964.534L1382.59 964.417C1368.33 964.323 1354.07 964.174 1339.81 963.97C1354.09 963.766 1368.35 963.625 1382.59 963.547L1425.35 963.5L1468.1 963.641C1482.37 963.657 1496.62 963.766 1510.86 963.97Z" fill="#DBDBDB"/>
<path d="M1510.86 956.003C1496.62 956.207 1482.37 956.356 1468.1 956.45L1425.35 956.567L1382.59 956.45C1368.33 956.356 1354.07 956.207 1339.81 956.003C1354.09 955.8 1368.35 955.659 1382.59 955.581L1425.35 955.44L1468.1 955.581C1482.37 955.659 1496.62 955.8 1510.86 956.003Z" fill="#DBDBDB"/>
<path d="M1510.86 948.037C1496.62 948.241 1482.37 948.389 1468.1 948.483L1425.35 948.601L1382.59 948.483C1368.33 948.483 1354.07 948.335 1339.81 948.037C1354.09 947.818 1368.35 947.677 1382.59 947.614L1425.35 947.473L1468.1 947.614C1482.37 947.685 1496.56 947.849 1510.86 948.037Z" fill="#DBDBDB"/>
<path d="M1249.07 934.383H1223.08V985.613H1249.07V934.383Z" fill="#455A64"/>
<path d="M493.202 379C493.202 417.066 457.569 448.5 412.851 448.5C368.133 448.5 332.5 417.066 332.5 379C332.5 340.934 368.133 309.5 412.851 309.5C457.569 309.5 493.202 340.934 493.202 379Z" fill="white" stroke="#FF5C00" stroke-width="5"/>
<path fill-rule="evenodd" clip-rule="evenodd" d="M418.905 362.829C416.177 365.531 411.782 365.532 409.053 362.831L388.79 342.773C386.042 340.052 381.608 340.076 378.889 342.825L377.445 344.285C374.727 347.033 374.75 351.463 377.497 354.182L397.553 374.036C400.319 376.774 400.32 381.243 397.555 383.983L377.798 403.559C375.052 406.28 375.032 410.712 377.753 413.459L378.882 414.599C381.603 417.345 386.035 417.365 388.782 414.644L408.742 394.866C411.469 392.164 415.865 392.163 418.594 394.864L438.619 414.687C441.367 417.407 445.801 417.384 448.52 414.635L449.964 413.175C452.682 410.427 452.659 405.996 449.912 403.277L430.094 383.659C427.328 380.921 427.326 376.452 430.091 373.712L449.871 354.113C452.618 351.392 452.638 346.96 449.917 344.213L448.787 343.073C446.066 340.327 441.634 340.307 438.888 343.028L418.905 362.829Z" fill="#EA7C7C"/>
</svg>
