<svg width="25" height="25" viewBox="0 0 25 25" fill="none" xmlns="http://www.w3.org/2000/svg">
<path d="M22.2115 12.8847C22.2115 12.6169 22.3179 12.3601 22.5072 12.1708C22.6966 11.9814 22.9534 11.8751 23.2212 11.8751C23.4889 11.8751 23.7457 11.9814 23.9351 12.1708C24.1244 12.3601 24.2308 12.6169 24.2308 12.8847V23.9904C24.2308 24.2582 24.1244 24.515 23.9351 24.7043C23.7457 24.8937 23.4889 25.0001 23.2212 25.0001H1.00962C0.741849 25.0001 0.485049 24.8937 0.29571 24.7043C0.10637 24.515 0 24.2582 0 23.9904V1.7789C0 1.51114 0.10637 1.25434 0.29571 1.065C0.485049 0.875657 0.741849 0.769287 1.00962 0.769287H12.1154C12.3832 0.769287 12.64 0.875657 12.8293 1.065C13.0186 1.25434 13.125 1.51114 13.125 1.7789C13.125 2.04667 13.0186 2.30347 12.8293 2.49281C12.64 2.68215 12.3832 2.78852 12.1154 2.78852H2.01923V22.9808H22.2115V12.8847Z" fill="#006872"/>
<path d="M10.7885 14.2095L12.454 13.9713L22.6852 3.74141C22.7816 3.64829 22.8585 3.5369 22.9114 3.41375C22.9643 3.29059 22.9921 3.15813 22.9933 3.02409C22.9945 2.89006 22.9689 2.75713 22.9182 2.63307C22.8674 2.50902 22.7925 2.39631 22.6977 2.30153C22.6029 2.20675 22.4902 2.13179 22.3662 2.08103C22.2421 2.03028 22.1092 2.00474 21.9752 2.0059C21.8412 2.00707 21.7087 2.03491 21.5856 2.08782C21.4624 2.14072 21.351 2.21762 21.2579 2.31404L11.0247 12.5439L10.7864 14.2095H10.7885ZM24.1125 0.884647C24.3939 1.16588 24.6171 1.49981 24.7694 1.86736C24.9217 2.23491 25.0001 2.62886 25.0001 3.02672C25.0001 3.42457 24.9217 3.81853 24.7694 4.18607C24.6171 4.55362 24.3939 4.88755 24.1125 5.16878L13.6451 15.6369C13.4907 15.7918 13.2902 15.8924 13.0737 15.9235L9.74273 16.4C9.58749 16.4223 9.4292 16.4081 9.2804 16.3586C9.1316 16.309 8.99638 16.2255 8.88549 16.1146C8.77459 16.0037 8.69106 15.8685 8.64152 15.7197C8.59199 15.5709 8.5778 15.4125 8.60009 15.2573L9.07653 11.9261C9.10712 11.7099 9.207 11.5094 9.36118 11.3547L19.8306 0.886666C20.3985 0.318934 21.1686 0 21.9716 0C22.7745 0 23.5446 0.318934 24.1125 0.886666V0.884647Z" fill="#006872"/>
</svg>
