<svg width="57" height="47" viewBox="0 0 57 47" fill="none" xmlns="http://www.w3.org/2000/svg">
<path d="M32.4172 8.63672H10.2333C9.40511 8.63672 8.69531 9.28747 8.69531 10.1747C8.69531 11.0029 9.34606 11.7127 10.2333 11.7127H32.4172C33.2454 11.7127 33.9552 11.0619 33.9552 10.1747C33.9556 9.34693 33.2454 8.63672 32.4172 8.63672Z" fill="#006872"/>
<path d="M33.9552 18.8134C33.9552 17.9852 33.3044 17.2754 32.4172 17.2754H10.2333C9.40511 17.2754 8.69531 17.9261 8.69531 18.8134C8.69531 19.6415 9.34606 20.3513 10.2333 20.3513H32.4172C33.2454 20.3518 33.9555 19.701 33.9555 18.8134H33.9552Z" fill="#006872"/>
<path d="M28.0397 27.5067L29.5777 25.9688H10.2333C9.40511 25.9688 8.69531 26.6785 8.69531 27.5067C8.69531 28.3349 9.34606 29.0447 10.2333 29.0447H26.9747C27.2706 28.4534 27.6255 27.921 28.0398 27.5067H28.0397Z" fill="#006872"/>
<path d="M10.2333 34.666C9.40511 34.666 8.69531 35.3168 8.69531 36.204C8.69531 37.0322 9.34606 37.742 10.2333 37.742H26.5015C26.2056 37.0322 26.0872 36.263 26.1466 35.5533L26.2056 34.7251H10.2332L10.2333 34.666Z" fill="#006872"/>
<path d="M39.5754 39.6938V43.3614L3.01628 43.3618V3.0167H39.5754V15.9721L42.5923 12.9552L42.5927 2.36607C42.5927 1.06462 41.5281 0 40.2266 0H2.36607C1.06462 0 0 1.06462 0 2.36607V44.0127C0 45.3732 1.06462 46.3787 2.36607 46.3787H40.2858C41.5872 46.3787 42.6518 45.3141 42.6518 44.0127L42.6523 36.7365L39.9308 39.4579C39.8718 39.5169 39.6944 39.6353 39.5759 39.6943L39.5754 39.6938Z" fill="#006872"/>
<path d="M55.4884 16.1499L51.288 11.95C50.8147 11.4767 50.2234 11.2402 49.5727 11.2402C48.9219 11.2402 48.3302 11.4767 47.8573 11.95L30.1694 29.638C29.755 30.0523 29.5186 30.5846 29.4596 31.1759L29.1637 35.6718C29.1047 36.3815 29.4002 37.0323 29.8735 37.565C30.3468 38.0383 30.9381 38.2748 31.5888 38.2748H31.7663L36.2621 37.9789C36.8538 37.9199 37.3862 37.683 37.8001 37.2691L55.4881 19.5812C55.9614 19.1079 56.1978 18.5166 56.1978 17.8658C56.1982 17.2155 55.9618 16.6237 55.4885 16.1505L55.4884 16.1499ZM35.8482 34.9619L32.2986 35.1983L32.535 31.6487L45.6087 18.575L48.9809 21.9472L35.8482 34.9619ZM51.0516 19.7585L47.6794 16.3864L49.5727 14.4931L52.9444 17.8657L51.0516 19.7585Z" fill="#006872"/>
</svg>
