<svg width="775" height="775" viewBox="0 0 775 775" fill="none" xmlns="http://www.w3.org/2000/svg">
<path d="M135.764 371.318L115.428 371.737L105.105 371.923C101.649 371.923 98.1768 371.923 94.7203 372H94.0383V371.318L93.9453 353.974V353.183H94.7203L115.242 353.276C122.093 353.276 128.929 353.447 135.764 353.524H136.198V353.943C136.198 356.872 136.059 359.802 135.997 362.7L135.764 371.318ZM135.764 371.318L135.547 362.545C135.547 359.662 135.377 356.81 135.346 353.974L135.764 354.392C128.929 354.47 122.093 354.64 115.242 354.64L94.7203 354.749L95.4953 353.974V371.318L94.7978 370.621C98.1768 370.621 101.556 370.621 104.95 370.621L115.149 370.807L135.764 371.318Z" fill="#EBEBEB"/>
<path d="M112.872 393.189L92.5357 393.607L82.2127 393.793C78.7562 393.793 75.2842 393.793 71.8277 393.871H71.1457V393.189L71.0527 375.844V375.1H71.8277L92.3497 375.193C99.1852 375.193 106.036 375.364 112.872 375.441H113.306V375.86C113.306 378.789 113.182 381.719 113.104 384.617L112.872 393.189ZM112.872 393.189L112.655 384.4C112.577 381.517 112.484 378.665 112.453 375.829L112.872 376.247C106.036 376.325 99.1852 376.495 92.3497 376.495L71.8277 376.65L72.6027 375.891L72.5252 393.235L71.8277 392.538C75.2067 392.538 78.5857 392.538 81.9802 392.615L92.1792 392.801L112.872 393.189Z" fill="#EBEBEB"/>
<path d="M563.549 559.411L543.213 559.829L532.89 560.015C529.434 560.015 525.962 560.015 522.505 560.093H521.823V559.411L521.73 542.066V541.276H522.505L543.027 541.369C549.878 541.369 556.714 541.539 563.549 541.617H563.983V542.035C563.983 544.965 563.844 547.894 563.766 550.793L563.549 559.411ZM563.549 559.411L563.332 550.638C563.332 547.755 563.162 544.903 563.131 542.066L563.549 542.485C556.714 542.562 549.878 542.733 543.027 542.733L522.505 542.841L523.28 542.066L523.203 559.411L522.505 558.713C525.884 558.713 529.263 558.713 532.658 558.791L542.857 558.977L563.549 559.411Z" fill="#EBEBEB"/>
<path d="M540.657 581.25L520.321 581.669L509.983 581.855C506.542 581.855 503.07 581.855 499.613 581.855H498.931V581.25L498.854 563.906V563.115H499.629L520.151 563.208C526.986 563.208 533.837 563.378 540.673 563.456H541.107V563.875C541.107 566.804 540.983 569.734 540.905 572.632L540.657 581.25ZM540.657 581.25L540.44 572.477C540.363 569.594 540.27 566.742 540.239 563.906L540.657 564.324C533.822 564.324 526.971 564.572 520.135 564.572L499.613 564.681L500.388 563.906L500.311 581.25L499.613 580.553C502.992 580.553 506.371 580.553 509.766 580.63L519.949 580.816L540.657 581.25Z" fill="#EBEBEB"/>
<path d="M703.174 393.189L682.823 393.607L672.5 393.793C669.059 393.793 665.587 393.793 662.13 393.871H661.433V393.189L661.355 375.844V375.1H662.13L682.652 375.193C689.488 375.193 696.339 375.364 703.174 375.441H703.593V375.86C703.593 378.789 703.469 381.719 703.391 384.617L703.174 393.189ZM703.174 393.189L702.957 384.416C702.957 381.533 702.771 378.681 702.756 375.844L703.174 376.263C696.339 376.34 689.488 376.511 682.652 376.511L662.13 376.604L662.905 375.844L662.812 393.189L662.13 392.491C665.509 392.491 668.888 392.491 672.267 392.569L682.466 392.755L703.174 393.189Z" fill="#EBEBEB"/>
<path d="M680.281 85.5601L659.93 85.9941L649.607 86.1646C646.166 86.1646 642.694 86.1646 639.237 86.2576H638.602V85.5601V68.2156V67.4406H639.392L659.914 67.5336C666.75 67.5336 673.585 67.7196 680.436 67.7971H680.855V68.2001C680.855 71.1451 680.715 74.0746 680.653 76.9576L680.281 85.5601ZM680.281 85.5601L680.064 76.8026C679.987 73.9041 679.878 71.0521 679.847 68.2156L680.281 68.6341C673.43 68.6341 666.595 68.8821 659.759 68.8976L639.237 68.9906L640.012 68.2156L639.919 85.5601L639.237 84.8626C642.616 84.8626 645.98 84.8626 649.374 84.9556L659.573 85.1261L680.281 85.5601Z" fill="#EBEBEB"/>
<path d="M703.174 107.431L682.823 107.865L672.5 108.035C669.059 108.035 665.587 108.035 662.13 108.128H661.433V107.431L661.355 90.086V89.311H662.13L682.652 89.404C689.488 89.404 696.339 89.59 703.174 89.6675H703.593V90.086C703.593 93.031 703.469 95.9605 703.391 98.8435L703.174 107.431ZM703.174 107.431L702.957 98.673C702.957 95.7745 702.771 92.9225 702.756 90.086L703.174 90.5045C696.339 90.5045 689.488 90.7525 682.652 90.768L662.13 90.861L662.905 90.086L662.812 107.431L662.13 106.733C665.509 106.733 668.888 106.733 672.267 106.826L682.466 106.997L703.174 107.431Z" fill="#EBEBEB"/>
<path d="M135.764 85.5601L115.428 85.9941L105.105 86.1646C101.649 86.1646 98.1768 86.1646 94.7203 86.2576H94.0383V85.5601L93.9453 68.2V67.425H94.7203L115.242 67.5181C122.093 67.5181 128.929 67.704 135.764 67.7815H136.198V68.2C136.198 71.1451 136.059 74.0746 135.997 76.9576L135.764 85.5601ZM135.764 85.5601L135.547 76.8026C135.547 73.9041 135.377 71.052 135.346 68.2155L135.764 68.634C128.929 68.634 122.093 68.8821 115.242 68.8976L94.7203 68.9905L95.4953 68.2155V85.5601L94.7978 84.8626C98.1768 84.8626 101.556 84.8626 104.95 84.9556L115.149 85.1261L135.764 85.5601Z" fill="#EBEBEB"/>
<path d="M372.512 276.303L352.176 276.722L341.853 276.908C338.397 276.908 334.925 276.908 331.468 276.908H330.786V276.226L330.709 258.881V258.091H331.484L352.006 258.184C358.841 258.184 365.692 258.354 372.528 258.432H372.962V258.85C372.962 261.78 372.838 264.709 372.76 267.608L372.512 276.303ZM372.512 276.303L372.295 267.53C372.218 264.647 372.125 261.795 372.094 258.959L372.512 259.377C365.677 259.377 358.826 259.625 351.99 259.625L331.468 259.734L332.243 258.959V276.303L331.546 275.606C334.925 275.606 338.304 275.606 341.698 275.699L351.851 275.9L372.512 276.303Z" fill="#EBEBEB"/>
<path d="M155.668 103.354H74.5098V201.795H155.668V103.354Z" fill="#EBEBEB"/>
<path d="M146.397 112.329H83.793V192.805H146.397V112.329Z" fill="white"/>
<path d="M86.242 112.329H83.793V192.805H86.242V112.329Z" fill="#DBDBDB"/>
<path d="M158.117 103.354H155.668V201.795H158.117V103.354Z" fill="#DBDBDB"/>
<path d="M119.522 123.427H104.766V167.416H119.522V123.427Z" fill="#DBDBDB"/>
<path d="M138.463 175.693H97.5586V152.598H138.463V175.693ZM99.1086 174.143H136.913V154.148H99.1086V174.143Z" fill="#EBEBEB"/>
<path d="M155.668 229.4H74.5098V327.84H155.668V229.4Z" fill="#EBEBEB"/>
<path d="M146.397 238.39H83.793V318.866H146.397V238.39Z" fill="white"/>
<path d="M86.242 238.39H83.793V318.866H86.242V238.39Z" fill="#DBDBDB"/>
<path d="M158.117 229.4H155.668V327.84H158.117V229.4Z" fill="#DBDBDB"/>
<path d="M121.675 259.191H109.027V291.168H121.675V259.191Z" fill="#EBEBEB"/>
<path d="M135.764 301.444H100.238V277.853H135.764V301.444ZM101.788 299.894H134.214V279.403H101.788V299.894Z" fill="#DBDBDB"/>
<path d="M423.415 575.67H695.797L701.47 463.915H417.742L423.415 575.67Z" fill="#EBEBEB"/>
<path d="M682.885 515.065H569.006L566.883 476.315H685.38L682.885 515.065ZM570.308 513.701H681.598L683.923 477.648H568.324L570.308 513.701Z" fill="#DBDBDB"/>
<path d="M680.793 559.705H573.502L571.766 524.691H683.009L680.793 559.705ZM574.773 558.341H679.491L681.521 526.055H573.176L574.773 558.341Z" fill="#DBDBDB"/>
<path d="M636.912 499.875H617.785L616.576 490.575H638.121L636.912 499.875ZM618.994 498.496H635.703L636.556 491.893H618.142L618.994 498.496Z" fill="#DBDBDB"/>
<path d="M636.912 546.871H617.785L616.576 537.571H638.121L636.912 546.871ZM618.994 545.507H635.703L636.556 538.889H618.142L618.994 545.507Z" fill="#DBDBDB"/>
<path d="M548.934 515.065H435.055L432.932 476.315H551.429L548.934 515.065ZM436.357 513.701H547.647L549.972 477.648H434.373L436.357 513.701Z" fill="#DBDBDB"/>
<path d="M546.841 559.705H439.519L437.783 524.691H549.027L546.841 559.705ZM440.837 558.341H545.601L547.616 526.055H439.271L440.837 558.341Z" fill="#DBDBDB"/>
<path d="M502.961 499.875H483.834L482.625 490.575H504.17L502.961 499.875ZM485.043 498.496H501.752L502.605 491.893H484.191L485.043 498.496Z" fill="#DBDBDB"/>
<path d="M502.961 546.871H483.834L482.625 537.571H504.17L502.961 546.871ZM485.043 545.507H501.752L502.605 538.889H484.191L485.043 545.507Z" fill="#DBDBDB"/>
<path d="M447.842 575.67L446.121 587.853L442.68 612.312H435.953V575.67H447.842Z" fill="#EBEBEB"/>
<path d="M447.842 575.67L446.121 587.853H435.953V575.67H447.842Z" fill="#DBDBDB"/>
<path d="M671.367 575.67L673.088 587.853L676.529 612.312H683.256V575.67H671.367Z" fill="#EBEBEB"/>
<path d="M671.367 575.67L673.088 587.853H683.256V575.67H671.367Z" fill="#DBDBDB"/>
<path d="M387.5 730.484C545.585 730.484 673.739 712.608 673.739 690.556C673.739 668.504 545.585 650.628 387.5 650.628C229.415 650.628 101.262 668.504 101.262 690.556C101.262 712.608 229.415 730.484 387.5 730.484Z" fill="#EBEBEB"/>
<path d="M684.263 227.866L653.341 85.126L624.759 227.866L623.395 227.664L653.294 78.399L685.627 227.649L684.263 227.866Z" fill="#DBDBDB"/>
<path d="M676.002 370.466L653.666 288.486L633.02 370.45L631.688 370.109L653.62 283.046L677.32 370.094L676.002 370.466Z" fill="#DBDBDB"/>
<path d="M656.146 80.9875C656.146 81.5486 655.979 82.097 655.668 82.5634C655.356 83.0299 654.913 83.3934 654.395 83.6081C653.876 83.8228 653.306 83.879 652.756 83.7695C652.206 83.6601 651.7 83.3899 651.303 82.9933C650.907 82.5966 650.637 82.0911 650.527 81.5409C650.418 80.9907 650.474 80.4204 650.689 79.9021C650.903 79.3838 651.267 78.9408 651.733 78.6291C652.2 78.3174 652.748 78.151 653.309 78.151C653.682 78.149 654.052 78.221 654.397 78.3628C654.742 78.5046 655.056 78.7135 655.319 78.9773C655.583 79.2411 655.792 79.5546 655.934 79.8996C656.076 80.2447 656.148 80.6145 656.146 80.9875Z" fill="#A6A6A6"/>
<path d="M683.843 379.595L682.82 392.971L680.402 424.808H629.113L626.695 392.971L625.672 379.595H683.843Z" fill="#FFC727"/>
<path opacity="0.1" d="M683.843 379.595L682.82 392.971H626.695L625.672 379.595H683.843Z" fill="black"/>
<path d="M687.347 375.317H622.154V385.702H687.347V375.317Z" fill="#FFC727"/>
<path d="M689.13 373.163C689.101 373.583 688.987 373.993 688.795 374.368C688.603 374.743 688.336 375.075 688.011 375.344C687.686 375.612 687.31 375.811 686.905 375.929C686.501 376.047 686.076 376.082 685.658 376.03C685.227 376.579 684.635 376.979 683.965 377.174C683.295 377.369 682.58 377.348 681.922 377.115C681.605 377.825 681.075 378.419 680.406 378.816C679.737 379.213 678.962 379.393 678.187 379.332C678.462 380.243 678.387 381.225 677.978 382.085C677.568 382.945 676.852 383.621 675.97 383.982C675.816 384.499 675.488 384.948 675.042 385.252C674.597 385.557 674.06 385.699 673.521 385.656C672.919 385.569 672.344 385.343 671.844 384.996C671.343 384.649 670.931 384.19 670.638 383.656C670.387 383.986 670.07 384.26 669.707 384.461C669.345 384.661 668.944 384.783 668.531 384.82C668.118 384.856 667.702 384.806 667.309 384.672C666.917 384.539 666.557 384.325 666.252 384.044C665.914 383.702 665.683 383.269 665.59 382.798C665.496 382.326 665.543 381.838 665.725 381.393C665.523 381.286 665.332 381.161 665.151 381.021C664.758 380.615 664.463 380.125 664.288 379.588C664.114 379.051 664.064 378.48 664.144 377.921C663.288 378.263 662.334 378.263 661.478 377.921C661.374 378.341 661.139 378.718 660.808 378.996C660.476 379.275 660.065 379.441 659.633 379.471C659.797 380.026 659.827 380.613 659.719 381.181C659.611 381.75 659.369 382.285 659.013 382.742C658.602 383.206 658.083 383.563 657.503 383.782C656.922 384.001 656.297 384.075 655.681 383.997C656.053 385.749 656.13 387.748 654.534 388.911C654.161 389.185 653.72 389.354 653.258 389.397C652.797 389.441 652.332 389.358 651.914 389.159C651.829 389.606 651.653 390.031 651.397 390.408C651.14 390.784 650.809 391.104 650.424 391.347C650.039 391.59 649.607 391.75 649.157 391.819C648.707 391.888 648.247 391.864 647.807 391.747C648.07 392.792 647.932 393.899 647.419 394.847C647.185 395.235 646.865 395.564 646.483 395.808C646.101 396.053 645.669 396.207 645.218 396.258C645.218 397.963 644.474 399.838 642.475 399.807C642.18 399.796 641.891 399.72 641.629 399.585C641.366 399.45 641.137 399.259 640.956 399.025C640.776 398.791 640.649 398.521 640.585 398.233C640.52 397.945 640.52 397.646 640.584 397.358C640.147 397.263 639.743 397.053 639.413 396.751C639.084 396.449 638.841 396.065 638.708 395.637C638.576 395.21 638.559 394.756 638.66 394.32C638.761 393.884 638.975 393.483 639.282 393.158C638.844 392.815 638.489 392.378 638.246 391.878C638.002 391.379 637.875 390.83 637.875 390.275C637.875 389.719 638.002 389.17 638.246 388.671C638.489 388.171 638.844 387.734 639.282 387.392C639.044 387.159 638.858 386.88 638.734 386.572C638.609 386.264 638.551 385.933 638.561 385.601C638.571 385.269 638.65 384.942 638.793 384.642C638.936 384.342 639.139 384.075 639.39 383.858C639.011 383.546 638.708 383.153 638.504 382.707C638.3 382.261 638.2 381.775 638.212 381.285C638.261 380.692 638.457 380.121 638.782 379.623C639.106 379.125 639.55 378.716 640.072 378.433C639.867 378.355 639.681 378.234 639.526 378.079C639.371 377.925 639.251 377.738 639.173 377.534C639.163 377.441 639.163 377.347 639.173 377.255C638.875 377.384 638.553 377.451 638.228 377.451C637.903 377.451 637.581 377.384 637.282 377.255C636.886 377.069 636.556 376.766 636.337 376.387C635.848 376.851 635.246 377.181 634.592 377.344C633.937 377.507 633.251 377.497 632.601 377.317C632.393 377.744 632.088 378.117 631.712 378.408C631.336 378.699 630.898 378.899 630.432 378.993C629.966 379.088 629.484 379.074 629.025 378.952C628.565 378.831 628.139 378.605 627.781 378.293C626.603 379.347 625.006 380.37 623.472 379.409C623.184 379.223 622.951 378.965 622.796 378.66C622.641 378.355 622.569 378.015 622.588 377.673C622.19 377.683 621.798 377.58 621.455 377.377C621.112 377.175 620.834 376.88 620.651 376.526C620.447 376.115 620.39 375.647 620.489 375.198C620.587 374.75 620.836 374.349 621.193 374.062C620.82 373.793 620.56 373.395 620.465 372.946C620.428 372.635 620.457 372.32 620.549 372.021C620.642 371.723 620.796 371.447 621.002 371.211C621.208 370.976 621.461 370.787 621.745 370.656C622.029 370.524 622.338 370.454 622.65 370.45C622.466 369.925 622.426 369.361 622.535 368.815C622.645 368.27 622.898 367.764 623.27 367.35C623.745 366.874 624.319 366.511 624.952 366.285C625.585 366.06 626.26 365.979 626.928 366.048C626.792 365.247 626.905 364.424 627.251 363.69C627.598 362.955 628.161 362.345 628.866 361.941C629.534 361.614 630.296 361.529 631.019 361.702C631.743 361.874 632.385 362.293 632.834 362.886C633.273 362.225 633.86 361.674 634.548 361.277C635.236 360.88 636.006 360.648 636.799 360.598C637.591 360.549 638.385 360.683 639.117 360.991C639.849 361.3 640.499 361.773 641.018 362.375C641.289 361.796 641.767 361.339 642.358 361.095C642.949 360.851 643.61 360.838 644.211 361.057C644.994 361.426 645.645 362.027 646.075 362.778C646.505 363.53 646.693 364.395 646.613 365.258C647.423 364.855 648.326 364.68 649.227 364.751C650.127 364.822 650.992 365.137 651.728 365.661C652.368 366.162 652.879 366.809 653.218 367.548C653.558 368.286 653.717 369.095 653.681 369.908C654.423 369.493 655.268 369.3 656.117 369.349C656.965 369.398 657.782 369.689 658.471 370.187C659.692 368.36 661.486 366.991 663.57 366.296C664.284 366.12 665.029 366.108 665.749 366.261C666.468 366.414 667.144 366.728 667.724 367.18C668.03 366.111 668.642 365.155 669.486 364.431C670.33 363.708 671.368 363.248 672.471 363.109C673.574 362.97 674.694 363.159 675.691 363.651C676.688 364.143 677.518 364.917 678.078 365.878C678.657 365.396 679.359 365.088 680.106 364.989C680.852 364.89 681.611 365.005 682.294 365.32C683.217 365.824 684.023 366.517 684.661 367.352C685.299 368.188 685.755 369.148 685.999 370.171C686.808 370.162 687.588 370.471 688.173 371.029C688.758 371.588 689.102 372.354 689.13 373.163Z" fill="#455A64"/>
<path d="M693.625 231.663L692.261 249.55L689.037 292.082H620.481L617.257 249.55L615.893 231.663H693.625Z" fill="#FFC727"/>
<path opacity="0.1" d="M693.625 231.663L692.261 249.55H617.257L615.893 231.663H693.625Z" fill="black"/>
<path d="M698.321 225.944H611.195V239.816H698.321V225.944Z" fill="#FFC727"/>
<path d="M696.337 229.4C696.897 230.038 697.287 230.808 697.472 231.637C697.656 232.466 697.628 233.328 697.391 234.143C696.864 235.25 696.122 236.242 695.21 237.061C694.297 237.88 693.232 238.511 692.075 238.917C692.549 239.574 692.879 240.326 693.04 241.12C693.202 241.915 693.192 242.735 693.012 243.526C692.831 244.316 692.484 245.059 691.994 245.705C691.504 246.351 690.881 246.885 690.168 247.272C692.245 249.705 693.098 252.464 690.416 254.262C690.908 254.96 691.251 255.752 691.422 256.589C691.594 257.425 691.591 258.288 691.413 259.123C691.236 259.959 690.888 260.748 690.391 261.443C689.894 262.137 689.259 262.722 688.525 263.159C689.114 265.081 687.254 270.816 683.317 270.801C682.591 270.8 681.878 270.609 681.249 270.247C680.62 269.885 680.097 269.365 679.731 268.737C679.366 268.11 679.171 267.398 679.167 266.672C679.162 265.947 679.348 265.232 679.706 264.601C679.037 264.238 678.463 263.724 678.028 263.1C677.594 262.475 677.311 261.758 677.203 261.006C677.094 260.253 677.163 259.485 677.404 258.764C677.645 258.042 678.051 257.387 678.59 256.851C678.59 256.851 676.156 257.378 674.994 256.138C674.68 255.654 674.496 255.097 674.461 254.521C674.426 253.945 674.54 253.37 674.792 252.852C674.309 252.249 673.956 251.553 673.757 250.806C673.558 250.06 673.517 249.281 673.637 248.517C673.756 247.754 674.034 247.025 674.452 246.375C674.87 245.726 675.418 245.17 676.063 244.745C675.584 244.309 675.201 243.778 674.938 243.185C674.676 242.593 674.541 241.952 674.541 241.304C674.541 240.656 674.676 240.015 674.938 239.423C675.201 238.83 675.584 238.299 676.063 237.863C674.96 237.364 674.019 236.563 673.351 235.554C671.367 236.499 670.173 235.662 669.073 233.787C668.463 234.469 667.666 234.956 666.781 235.188C665.896 235.42 664.963 235.385 664.097 235.089C663.871 235.893 663.463 236.635 662.904 237.258C662.346 237.88 661.653 238.366 660.878 238.679C660.103 238.992 659.266 239.123 658.432 239.062C657.599 239.001 656.79 238.75 656.068 238.328C655.962 239.809 655.423 241.227 654.518 242.405C654.239 242.777 653.914 243.056 653.604 243.397C653.261 243.843 652.969 244.326 652.736 244.838C652.278 245.646 651.661 246.352 650.922 246.915C650.274 247.44 649.457 247.711 648.624 247.677C647.791 247.643 646.999 247.306 646.396 246.729C646.084 246.365 645.881 245.92 645.81 245.446C645.739 244.972 645.802 244.487 645.993 244.048C645.118 243.751 644.396 243.119 643.986 242.291C643.577 241.463 643.512 240.506 643.808 239.63C642.948 239.694 642.09 239.495 641.345 239.06C640.601 238.626 640.006 237.976 639.638 237.197C639.232 237.721 638.713 238.147 638.12 238.445C637.528 238.742 636.876 238.904 636.213 238.917C636.637 240.138 636.576 241.475 636.043 242.652C635.509 243.829 634.543 244.756 633.345 245.241C633.723 245.862 633.967 246.555 634.059 247.276C634.152 247.996 634.091 248.728 633.882 249.424C633.673 250.12 633.32 250.764 632.846 251.315C632.371 251.865 631.786 252.31 631.129 252.619C631.593 253.411 631.741 254.35 631.542 255.247C631.344 256.144 630.814 256.932 630.059 257.455C630.355 258.113 630.494 258.831 630.464 259.552C630.434 260.273 630.237 260.977 629.889 261.609C629.589 262.074 629.168 262.447 628.67 262.688C628.172 262.928 627.618 263.027 627.068 262.973C626.729 262.886 626.415 262.721 626.151 262.491C625.888 262.261 625.682 261.972 625.551 261.648C625.42 261.323 625.367 260.973 625.396 260.624C625.425 260.275 625.536 259.938 625.719 259.641C624.824 259.318 624.025 258.774 623.398 258.058C622.771 257.342 622.336 256.479 622.135 255.549C621.933 254.619 621.972 253.653 622.246 252.742C622.521 251.831 623.022 251.004 623.704 250.341C623.004 250.149 622.358 249.797 621.818 249.311C621.279 248.825 620.86 248.22 620.597 247.543C620.333 246.867 620.231 246.138 620.3 245.415C620.369 244.693 620.605 243.996 620.992 243.381C620.222 243.226 619.505 242.874 618.912 242.36C618.319 241.846 617.869 241.186 617.607 240.446C617.344 239.706 617.278 238.91 617.415 238.137C617.552 237.364 617.887 236.639 618.388 236.034C617.931 236.103 617.464 236.055 617.03 235.895C616.597 235.735 616.211 235.468 615.908 235.12C615.568 234.675 615.388 234.129 615.396 233.57C614.663 233.731 613.897 233.656 613.21 233.356C612.522 233.055 611.947 232.544 611.568 231.896C611.24 231.237 611.131 230.491 611.256 229.766C611.382 229.042 611.735 228.376 612.265 227.866C611.787 227.71 611.356 227.435 611.014 227.066C610.672 226.697 610.431 226.246 610.312 225.758C610.185 225.161 610.261 224.539 610.529 223.991C610.071 224.086 609.597 224.087 609.139 223.991C608.68 223.896 608.246 223.707 607.863 223.437C607.481 223.166 607.158 222.82 606.915 222.419C606.673 222.018 606.515 221.572 606.453 221.108C606.392 220.488 606.542 219.865 606.88 219.342C607.218 218.818 607.723 218.425 608.313 218.225C607.968 217.539 607.874 216.755 608.049 216.008C608.561 213.885 611.01 213.234 612.947 213.001C612.704 212.288 612.649 211.524 612.79 210.783C612.93 210.043 613.26 209.352 613.747 208.777C614.234 208.202 614.862 207.764 615.57 207.504C616.277 207.245 617.04 207.173 617.783 207.297C617.715 206.477 617.875 205.654 618.244 204.918C618.613 204.183 619.178 203.563 619.876 203.128C620.603 202.733 621.428 202.556 622.253 202.619C623.078 202.683 623.867 202.983 624.526 203.484H624.65C625.883 203.677 627.008 204.299 627.827 205.241C628.647 206.182 629.108 207.382 629.129 208.63C629.924 208.199 630.814 207.973 631.718 207.973C632.622 207.973 633.512 208.199 634.306 208.63C635.249 209.197 636.058 209.961 636.676 210.871C637.294 211.781 637.707 212.815 637.887 213.9C638.559 213.195 639.388 212.658 640.306 212.332C641.225 212.007 642.207 211.903 643.173 212.028C644.139 212.154 645.062 212.505 645.867 213.054C646.672 213.602 647.337 214.333 647.807 215.187C648.543 214.394 649.491 213.829 650.539 213.559C651.586 213.289 652.689 213.325 653.717 213.663C654.745 214.001 655.654 214.626 656.337 215.465C657.02 216.303 657.449 217.32 657.572 218.395C659.381 216.899 661.535 215.878 663.838 215.426C666.142 214.974 668.522 215.105 670.762 215.807C671.09 214.925 671.615 214.13 672.295 213.482C672.976 212.833 673.796 212.348 674.692 212.063C675.588 211.777 676.537 211.7 677.467 211.835C678.398 211.971 679.285 212.317 680.062 212.846C680.58 211.611 681.483 210.577 682.637 209.898C683.79 209.219 685.133 208.932 686.464 209.08C689.719 209.405 692.106 212.025 693.439 214.861C694.419 214.894 695.378 215.159 696.236 215.634C697.095 216.11 697.828 216.782 698.376 217.596C698.923 218.41 699.27 219.343 699.387 220.317C699.504 221.291 699.389 222.279 699.05 223.2C699.312 223.781 699.45 224.411 699.454 225.049C699.458 225.687 699.328 226.319 699.072 226.903C698.816 227.488 698.441 228.012 697.97 228.442C697.499 228.872 696.942 229.198 696.337 229.4Z" fill="#455A64"/>
<path d="M73.5312 612.467L152.023 612.095L230.515 611.955L387.499 611.692L544.483 611.955L622.975 612.08L701.467 612.467L622.975 612.839L544.483 612.978L387.499 613.242L230.515 612.978L152.023 612.839L73.5312 612.467Z" fill="#263238"/>
<path d="M619.364 78.151H155.635V683.162H619.364V78.151Z" fill="white"/>
<path d="M619.365 683.178L155.636 683.333H155.465V683.163L155.248 78.151V77.7635H155.636L619.365 77.9341H619.582V78.151L619.365 683.178ZM619.365 683.178L619.148 78.151L619.365 78.3681L155.636 78.5385L156.023 78.151L155.806 683.163L155.636 683.008L619.365 683.178Z" fill="#263238"/>
<path d="M619.364 668.732H155.635V683.163H619.364V668.732Z" fill="#FFC727"/>
<path d="M205.778 92.5815H172.205V389.097H205.778V92.5815Z" fill="#EBEBEB"/>
<path d="M602.811 372.341H569.238V668.856H602.811V372.341Z" fill="#EBEBEB"/>
<path d="M619.364 78.151H155.635V92.5815H619.364V78.151Z" fill="#455A64"/>
<path d="M471.789 188.713H303.211V357.291H471.789V188.713Z" fill="#C7C7C7"/>
<path d="M586.38 116.359H188.619V163.06H586.38V116.359Z" fill="#FFC727"/>
<path d="M266.197 188.713H188.619V193.967H266.197V188.713Z" fill="#455A64"/>
<path d="M266.197 386.477H188.619V391.732H266.197V386.477Z" fill="#455A64"/>
<path d="M266.197 596.425H188.619V601.679H266.197V596.425Z" fill="#455A64"/>
<path d="M266.197 511.717H188.619V516.971H266.197V511.717Z" fill="#455A64"/>
<path d="M564.37 188.713H486.793V193.967H564.37V188.713Z" fill="#455A64"/>
<path d="M188.619 206.708C196.912 206.476 205.22 206.367 213.512 206.274L238.405 206.135L263.298 206.274C271.606 206.367 279.899 206.476 288.207 206.708C279.899 206.956 271.606 207.065 263.298 207.158L238.405 207.297L213.512 207.158C205.22 207.065 196.85 206.956 188.619 206.708Z" fill="#A6A6A6"/>
<path d="M188.619 213.9C196.912 213.668 205.22 213.544 213.512 213.451L238.405 213.327L263.298 213.451C271.606 213.544 279.899 213.652 288.207 213.9C279.899 214.148 271.606 214.257 263.298 214.35L238.405 214.474L213.512 214.35C205.22 214.241 196.85 214.117 188.619 213.9Z" fill="#A6A6A6"/>
<path d="M188.619 221.061C196.912 220.813 205.22 220.705 213.512 220.612L238.405 220.472L263.298 220.612C271.606 220.705 279.899 220.813 288.207 221.061C279.899 221.294 271.606 221.402 263.298 221.495L238.405 221.635L213.512 221.495C205.22 221.402 196.85 221.294 188.619 221.061Z" fill="#A6A6A6"/>
<path d="M188.619 228.222C196.912 227.99 205.22 227.866 213.512 227.773L238.405 227.649L263.298 227.773C271.606 227.866 279.899 227.99 288.207 228.222C279.899 228.47 271.606 228.579 263.298 228.672L238.405 228.811L213.512 228.672C205.22 228.579 196.85 228.47 188.619 228.222Z" fill="#A6A6A6"/>
<path d="M188.619 235.399C192.773 235.151 196.912 235.042 201.019 234.949C205.127 234.856 209.312 234.856 213.419 234.81C217.527 234.763 221.712 234.81 225.819 234.949C229.927 235.089 234.127 235.151 238.219 235.399C234.081 235.631 229.927 235.755 225.819 235.848C221.712 235.941 217.527 235.926 213.419 235.972C209.312 236.019 205.127 235.972 201.019 235.833C196.912 235.693 192.773 235.6 188.619 235.399Z" fill="#A6A6A6"/>
<path d="M188.619 249.736C196.912 249.488 205.22 249.38 213.512 249.287L238.405 249.147L263.298 249.287C271.606 249.38 279.899 249.488 288.207 249.736C279.899 249.969 271.606 250.093 263.298 250.186L238.405 250.31L213.512 250.186C205.22 250.093 196.85 249.969 188.619 249.736Z" fill="#A6A6A6"/>
<path d="M188.619 256.897C196.912 256.665 205.22 256.556 213.512 256.463L238.405 256.324L263.298 256.463C271.606 256.556 279.899 256.665 288.207 256.897C279.899 257.145 271.606 257.254 263.298 257.347L238.405 257.486L213.512 257.3C205.22 257.3 196.85 257.145 188.619 256.897Z" fill="#A6A6A6"/>
<path d="M188.619 264.073C196.912 263.841 205.22 263.717 213.512 263.624L238.405 263.5L263.298 263.624C271.606 263.717 279.899 263.825 288.207 264.073C279.899 264.321 271.606 264.43 263.298 264.523L238.405 264.647L213.512 264.523C205.22 264.43 196.85 264.306 188.619 264.073Z" fill="#A6A6A6"/>
<path d="M188.619 271.25C196.912 271.002 205.22 270.894 213.512 270.801L238.405 270.661L263.298 270.801C271.606 270.894 279.899 271.002 288.207 271.25C279.899 271.483 271.606 271.591 263.298 271.684L238.405 271.823L213.512 271.684C205.22 271.591 196.85 271.483 188.619 271.25Z" fill="#A6A6A6"/>
<path d="M188.619 278.411C192.773 278.178 196.912 278.055 201.019 277.962C205.127 277.869 209.312 277.884 213.419 277.838C217.527 277.791 221.712 277.838 225.819 277.962C229.927 278.086 234.127 278.178 238.219 278.411C234.081 278.659 229.927 278.767 225.819 278.86C221.712 278.953 217.527 278.953 213.419 279C209.312 279.046 205.127 279 201.019 278.86C196.912 278.721 192.773 278.659 188.619 278.411Z" fill="#A6A6A6"/>
<path d="M188.619 292.749C196.912 292.516 205.22 292.408 213.512 292.315L238.405 292.175L263.298 292.299C271.606 292.392 279.899 292.516 288.207 292.749C279.899 292.997 271.606 293.105 263.298 293.198L238.405 293.338L213.512 293.198C205.22 293.105 196.85 292.95 188.619 292.749Z" fill="#A6A6A6"/>
<path d="M188.619 299.925C196.912 299.677 205.22 299.569 213.512 299.476L238.405 299.336L263.298 299.476C271.606 299.569 279.899 299.677 288.207 299.925C279.899 300.158 271.606 300.282 263.298 300.375L238.405 300.499L213.512 300.375C205.22 300.282 196.85 300.158 188.619 299.925Z" fill="#A6A6A6"/>
<path d="M188.619 307.086C196.912 306.854 205.22 306.745 213.512 306.652L238.405 306.513L263.298 306.652C271.606 306.745 279.899 306.854 288.207 307.086C279.899 307.334 271.606 307.443 263.298 307.536L238.405 307.675L213.512 307.536C205.22 307.443 196.85 307.334 188.619 307.086Z" fill="#A6A6A6"/>
<path d="M188.619 314.263C192.773 314.03 196.912 313.906 201.019 313.813C205.127 313.72 209.312 313.736 213.419 313.689C217.527 313.643 221.712 313.689 225.819 313.813C229.927 313.937 234.127 314.015 238.219 314.263C234.081 314.511 229.927 314.619 225.819 314.712C221.712 314.805 217.527 314.79 213.419 314.836C209.312 314.883 205.127 314.836 201.019 314.712C196.912 314.588 192.773 314.495 188.619 314.263Z" fill="#A6A6A6"/>
<path d="M188.619 328.6C196.912 328.368 205.22 328.244 213.512 328.151L238.405 328.027L263.298 328.151C271.606 328.244 279.899 328.368 288.207 328.6C279.899 328.848 271.606 328.957 263.298 329.05L238.405 329.189L213.512 329.05C205.22 328.957 196.85 328.848 188.619 328.6Z" fill="#A6A6A6"/>
<path d="M188.619 335.776C196.912 335.529 205.22 335.42 213.512 335.327L238.405 335.188L263.298 335.327C271.606 335.42 279.899 335.529 288.207 335.776C279.899 336.009 271.606 336.117 263.298 336.226L238.405 336.35L213.512 336.21C205.22 336.117 196.85 336.009 188.619 335.776Z" fill="#A6A6A6"/>
<path d="M188.619 342.938C196.912 342.705 205.22 342.597 213.512 342.504L238.405 342.364L263.298 342.488C271.606 342.581 279.899 342.705 288.207 342.938C279.899 343.186 271.606 343.294 263.298 343.387L238.405 343.527L213.512 343.387C205.22 343.294 196.85 343.186 188.619 342.938Z" fill="#A6A6A6"/>
<path d="M188.619 350.114C196.912 349.866 205.22 349.758 213.512 349.665L238.405 349.525L263.298 349.665C271.606 349.758 279.899 349.866 288.207 350.114C279.899 350.347 271.606 350.471 263.298 350.564L238.405 350.688L213.512 350.564C205.22 350.471 196.85 350.3 188.619 350.114Z" fill="#A6A6A6"/>
<path d="M188.619 357.275C192.773 357.043 196.912 356.934 201.019 356.841C205.127 356.748 209.312 356.748 213.419 356.702C217.527 356.655 221.712 356.702 225.819 356.841C229.927 356.981 234.127 357.043 238.219 357.275C234.081 357.523 229.927 357.631 225.819 357.724C221.712 357.817 217.527 357.818 213.419 357.864C209.312 357.911 205.127 357.864 201.019 357.724C196.912 357.585 192.773 357.523 188.619 357.275Z" fill="#A6A6A6"/>
<path d="M486.793 206.708C495.101 206.476 503.393 206.367 511.701 206.274L536.594 206.135L561.487 206.274C569.78 206.367 578.088 206.476 586.38 206.708C578.088 206.956 569.78 207.065 561.487 207.158L536.594 207.297L511.701 207.158C503.393 207.065 495.101 206.956 486.793 206.708Z" fill="#A6A6A6"/>
<path d="M486.793 213.9C495.101 213.668 503.393 213.544 511.701 213.451L536.594 213.327L561.487 213.451C569.78 213.544 578.088 213.652 586.38 213.9C578.088 214.148 569.78 214.257 561.487 214.35L536.594 214.474L511.701 214.35C503.393 214.241 495.101 214.117 486.793 213.9Z" fill="#A6A6A6"/>
<path d="M486.793 221.061C495.101 220.813 503.393 220.705 511.701 220.612L536.594 220.472L561.487 220.612C569.78 220.705 578.088 220.813 586.38 221.061C578.088 221.294 569.78 221.402 561.487 221.495L536.594 221.635L511.701 221.495C503.393 221.402 495.101 221.294 486.793 221.061Z" fill="#A6A6A6"/>
<path d="M486.793 228.222C495.101 227.99 503.393 227.866 511.701 227.773L536.594 227.649L561.487 227.773C569.78 227.866 578.088 227.99 586.38 228.222C578.088 228.47 569.78 228.579 561.487 228.672L536.594 228.811L511.701 228.672C503.393 228.579 495.101 228.47 486.793 228.222Z" fill="#A6A6A6"/>
<path d="M486.793 235.399C490.947 235.151 495.101 235.042 499.193 234.949C503.285 234.856 507.485 234.856 511.593 234.81C515.7 234.763 519.885 234.81 523.993 234.949C528.1 235.089 532.285 235.151 536.393 235.399C532.239 235.631 528.085 235.755 523.993 235.848C519.901 235.941 515.685 235.926 511.593 235.972C507.501 236.019 503.285 235.972 499.193 235.833C495.101 235.693 490.947 235.6 486.793 235.399Z" fill="#A6A6A6"/>
<path d="M486.793 249.736C495.101 249.488 503.393 249.38 511.701 249.287L536.594 249.147L561.487 249.287C569.78 249.38 578.088 249.488 586.38 249.736C578.088 249.969 569.78 250.093 561.487 250.186L536.594 250.31L511.701 250.186C503.393 250.093 495.101 249.969 486.793 249.736Z" fill="#A6A6A6"/>
<path d="M486.793 256.897C495.101 256.665 503.393 256.556 511.701 256.463L536.594 256.324L561.487 256.463C569.78 256.556 578.088 256.665 586.38 256.897C578.088 257.145 569.78 257.254 561.487 257.347L536.594 257.486L511.701 257.3C503.393 257.3 495.101 257.145 486.793 256.897Z" fill="#A6A6A6"/>
<path d="M486.793 264.073C495.101 263.841 503.393 263.717 511.701 263.624L536.594 263.5L561.487 263.624C569.78 263.717 578.088 263.825 586.38 264.073C578.088 264.321 569.78 264.43 561.487 264.523L536.594 264.647L511.701 264.523C503.393 264.43 495.101 264.306 486.793 264.073Z" fill="#A6A6A6"/>
<path d="M486.793 271.25C495.101 271.002 503.393 270.894 511.701 270.801L536.594 270.661L561.487 270.801C569.78 270.894 578.088 271.002 586.38 271.25C578.088 271.483 569.78 271.591 561.487 271.684L536.594 271.823L511.701 271.684C503.393 271.591 495.101 271.483 486.793 271.25Z" fill="#A6A6A6"/>
<path d="M486.793 278.411C490.947 278.178 495.101 278.055 499.193 277.962C503.285 277.869 507.485 277.884 511.593 277.838C515.7 277.791 519.885 277.838 523.993 277.962C528.1 278.086 532.285 278.178 536.393 278.411C532.239 278.659 528.085 278.767 523.993 278.86C519.901 278.953 515.685 278.953 511.593 279C507.501 279.046 503.285 279 499.193 278.86C495.101 278.721 490.947 278.659 486.793 278.411Z" fill="#A6A6A6"/>
<path d="M486.793 292.749C495.101 292.516 503.393 292.408 511.701 292.315L536.594 292.175L561.487 292.299C569.78 292.392 578.088 292.516 586.38 292.749C578.088 292.997 569.78 293.105 561.487 293.198L536.594 293.338L511.701 293.198C503.393 293.105 495.101 292.95 486.793 292.749Z" fill="#A6A6A6"/>
<path d="M486.793 299.925C495.101 299.677 503.393 299.569 511.701 299.476L536.594 299.336L561.487 299.476C569.78 299.569 578.088 299.677 586.38 299.925C578.088 300.158 569.78 300.282 561.487 300.375L536.594 300.499L511.701 300.375C503.393 300.282 495.101 300.158 486.793 299.925Z" fill="#A6A6A6"/>
<path d="M486.793 307.086C495.101 306.854 503.393 306.745 511.701 306.652L536.594 306.513L561.487 306.652C569.78 306.745 578.088 306.854 586.38 307.086C578.088 307.334 569.78 307.443 561.487 307.536L536.594 307.675L511.701 307.536C503.393 307.443 495.101 307.334 486.793 307.086Z" fill="#A6A6A6"/>
<path d="M486.793 314.263C490.947 314.03 495.101 313.906 499.193 313.813C503.285 313.72 507.485 313.736 511.593 313.689C515.7 313.643 519.885 313.689 523.993 313.813C528.1 313.937 532.285 314.015 536.393 314.263C532.239 314.511 528.085 314.619 523.993 314.712C519.901 314.805 515.685 314.79 511.593 314.836C507.501 314.883 503.285 314.836 499.193 314.712C495.101 314.588 490.947 314.495 486.793 314.263Z" fill="#A6A6A6"/>
<path d="M486.793 328.6C495.101 328.368 503.393 328.244 511.701 328.151L536.594 328.027L561.487 328.151C569.78 328.244 578.088 328.368 586.38 328.6C578.088 328.848 569.78 328.957 561.487 329.05L536.594 329.189L511.701 329.05C503.393 328.957 495.101 328.848 486.793 328.6Z" fill="#A6A6A6"/>
<path d="M486.793 335.776C495.101 335.529 503.393 335.42 511.701 335.327L536.594 335.188L561.487 335.327C569.78 335.42 578.088 335.529 586.38 335.776C578.088 336.009 569.78 336.117 561.487 336.226L536.594 336.35L511.701 336.21C503.393 336.117 495.101 336.009 486.793 335.776Z" fill="#A6A6A6"/>
<path d="M486.793 342.938C495.101 342.705 503.393 342.597 511.701 342.504L536.594 342.364L561.487 342.488C569.78 342.581 578.088 342.705 586.38 342.938C578.088 343.186 569.78 343.294 561.487 343.387L536.594 343.527L511.701 343.387C503.393 343.294 495.101 343.186 486.793 342.938Z" fill="#A6A6A6"/>
<path d="M486.793 350.114C495.101 349.866 503.393 349.758 511.701 349.665L536.594 349.525L561.487 349.665C569.78 349.758 578.088 349.866 586.38 350.114C578.088 350.347 569.78 350.471 561.487 350.564L536.594 350.688L511.701 350.564C503.393 350.471 495.101 350.3 486.793 350.114Z" fill="#A6A6A6"/>
<path d="M486.793 357.275C490.947 357.043 495.101 356.934 499.193 356.841C503.285 356.748 507.485 356.748 511.593 356.702C515.7 356.655 519.885 356.702 523.993 356.841C528.1 356.981 532.285 357.043 536.393 357.275C532.239 357.523 528.085 357.631 523.993 357.724C519.901 357.817 515.685 357.818 511.593 357.864C507.501 357.911 503.285 357.864 499.193 357.724C495.101 357.585 490.947 357.523 486.793 357.275Z" fill="#A6A6A6"/>
<path d="M367.971 409.386H211.762V416.64H367.971V409.386Z" fill="#EBEBEB"/>
<path d="M324.695 409.386H211.762V416.64H324.695V409.386Z" fill="#FFC727"/>
<path d="M367.971 428.157H211.762V435.411H367.971V428.157Z" fill="#EBEBEB"/>
<path d="M355.013 428.157H211.762V435.411H355.013V428.157Z" fill="#FFC727"/>
<path d="M367.971 446.911H211.762V454.166H367.971V446.911Z" fill="#EBEBEB"/>
<path d="M333.499 446.911H211.762V454.166H333.499V446.911Z" fill="#FFC727"/>
<path d="M367.971 465.682H211.762V472.936H367.971V465.682Z" fill="#EBEBEB"/>
<path d="M346.007 465.682H211.762V472.936H346.007V465.682Z" fill="#FFC727"/>
<path d="M367.971 484.437H211.762V491.691H367.971V484.437Z" fill="#EBEBEB"/>
<path d="M358.671 484.437H211.762V491.691H358.671V484.437Z" fill="#FFC727"/>
<path d="M200.337 407.154H188.619V418.872H200.337V407.154Z" fill="#FFC727"/>
<path d="M200.337 425.925H188.619V437.643H200.337V425.925Z" fill="#455A64"/>
<path d="M200.337 444.68H188.619V456.398H200.337V444.68Z" fill="#C7C7C7"/>
<path d="M200.337 463.45H188.619V475.168H200.337V463.45Z" fill="#FFC727"/>
<path d="M200.337 482.221H188.619V493.939H200.337V482.221Z" fill="#263238"/>
<path d="M509.672 386.477H410.131V391.732H509.672V386.477Z" fill="#455A64"/>
<path d="M447.966 406.86H410.131V412.114H447.966V406.86Z" fill="#C7C7C7"/>
<path d="M447.966 451.546H410.131V456.801H447.966V451.546Z" fill="#C7C7C7"/>
<path d="M447.966 496.217H410.131V501.471H447.966V496.217Z" fill="#C7C7C7"/>
<path d="M447.966 540.904H410.131V546.158H447.966V540.904Z" fill="#C7C7C7"/>
<path d="M486.561 409.494C494.853 409.247 503.146 409.138 511.454 409.045L536.347 408.906L561.24 409.045C569.548 409.138 577.84 409.247 586.133 409.494C577.84 409.727 569.548 409.851 561.24 409.944L536.347 410.068L511.5 409.944C503.146 409.851 494.853 409.727 486.561 409.494Z" fill="#A6A6A6"/>
<path d="M486.561 416.656C494.853 416.423 503.146 416.315 511.454 416.222L536.347 416.082L561.24 416.222C569.548 416.315 577.84 416.423 586.133 416.656C577.84 416.904 569.548 417.012 561.24 417.105L536.347 417.245L511.5 417.105C503.146 416.95 494.853 416.95 486.561 416.656Z" fill="#A6A6A6"/>
<path d="M486.561 423.832C494.853 423.6 503.146 423.476 511.454 423.383L536.347 423.259L561.24 423.383C569.548 423.476 577.84 423.584 586.133 423.832C577.84 424.08 569.548 424.189 561.24 424.282L536.347 424.406L511.5 424.282C503.146 424.189 494.853 424.065 486.561 423.832Z" fill="#A6A6A6"/>
<path d="M486.561 431.009C490.064 430.761 493.567 430.652 497.07 430.559C500.573 430.466 504.076 430.466 507.594 430.42C511.113 430.373 514.6 430.42 518.103 430.559C521.606 430.699 525.109 430.761 528.628 431.009C525.109 431.241 521.606 431.35 518.103 431.443C514.6 431.536 511.097 431.536 507.594 431.582C504.091 431.629 500.573 431.582 497.07 431.443C493.567 431.303 490.064 431.241 486.561 431.009Z" fill="#A6A6A6"/>
<path d="M486.561 454.29C494.853 454.057 503.146 453.949 511.454 453.856L536.347 453.716L561.24 453.856C569.548 453.949 577.84 454.057 586.133 454.29C577.84 454.538 569.548 454.646 561.24 454.739L536.347 454.879L511.5 454.739C503.146 454.646 494.853 454.538 486.561 454.29Z" fill="#A6A6A6"/>
<path d="M486.561 461.466C494.853 461.218 503.146 461.11 511.454 461.017L536.347 460.877L561.24 461.017C569.548 461.11 577.84 461.218 586.133 461.466C577.84 461.714 569.548 461.823 561.24 461.916L536.347 462.04L511.5 461.9C503.146 461.9 494.853 461.699 486.561 461.466Z" fill="#A6A6A6"/>
<path d="M486.561 468.643C494.853 468.395 503.146 468.286 511.454 468.193L536.3 468.1L561.193 468.24C569.501 468.333 577.794 468.441 586.086 468.689C577.794 468.922 569.501 469.03 561.193 469.123L536.3 469.263L511.5 469.077C503.146 468.984 494.853 468.875 486.561 468.643Z" fill="#A6A6A6"/>
<path d="M486.561 475.85C490.064 475.618 493.567 475.494 497.07 475.401C500.573 475.308 504.076 475.323 507.594 475.277C511.113 475.23 514.6 475.277 518.103 475.401C521.606 475.525 525.109 475.618 528.628 475.85C525.109 476.098 521.606 476.207 518.103 476.3C514.6 476.393 511.097 476.393 507.594 476.439C504.091 476.486 500.573 476.439 497.07 476.3C493.567 476.16 490.064 476.052 486.561 475.85Z" fill="#A6A6A6"/>
<path d="M486.561 499.1C494.853 498.852 503.146 498.743 511.454 498.65L536.347 498.511L561.24 498.65C569.548 498.743 577.84 498.852 586.133 499.1C577.84 499.348 569.548 499.457 561.24 499.55L536.347 499.674L511.5 499.55C503.146 499.457 494.853 499.333 486.561 499.1Z" fill="#A6A6A6"/>
<path d="M486.561 506.261C494.853 506.029 503.146 505.92 511.454 505.827L536.347 505.688L561.24 505.827C569.548 505.92 577.84 506.029 586.133 506.261C577.84 506.509 569.548 506.618 561.24 506.711L536.3 506.85L511.5 506.711C503.146 506.618 494.853 506.509 486.561 506.261Z" fill="#A6A6A6"/>
<path d="M486.561 513.438C494.853 513.205 503.146 513.081 511.454 512.988L536.347 512.864L561.24 512.988C569.548 513.081 577.84 513.19 586.133 513.438C577.84 513.686 569.548 513.794 561.24 513.887L536.347 514.027L511.5 513.887C503.146 513.794 494.853 513.686 486.561 513.438Z" fill="#A6A6A6"/>
<path d="M486.561 520.614C490.064 520.366 493.567 520.257 497.07 520.164C500.573 520.071 504.076 520.072 507.594 520.025C511.113 519.979 514.6 520.025 518.103 520.164C521.606 520.304 525.109 520.366 528.628 520.614C525.109 520.846 521.606 520.955 518.103 521.048C514.6 521.141 511.097 521.141 507.594 521.187C504.091 521.234 500.573 521.187 497.07 521.048C493.567 520.908 490.064 520.8 486.561 520.614Z" fill="#A6A6A6"/>
<path d="M486.561 543.895C494.853 543.663 503.146 543.554 511.454 543.461L536.347 543.322L561.24 543.461C569.548 543.554 577.84 543.663 586.133 543.895C577.84 544.143 569.548 544.252 561.24 544.345L536.347 544.484L511.5 544.345C503.146 544.252 494.853 544.143 486.561 543.895Z" fill="#A6A6A6"/>
<path d="M486.561 551.072C494.853 550.839 503.146 550.715 511.454 550.622L536.347 550.498L561.24 550.622C569.548 550.715 577.84 550.824 586.133 551.072C577.84 551.32 569.548 551.428 561.24 551.521L536.3 551.645L511.5 551.521C503.146 551.428 494.853 551.304 486.561 551.072Z" fill="#A6A6A6"/>
<path d="M486.561 558.248C494.853 558 503.146 557.892 511.454 557.799L536.347 557.659L561.24 557.799C569.548 557.892 577.84 558 586.133 558.248C577.84 558.481 569.548 558.589 561.24 558.682L536.347 558.822L511.5 558.682C503.146 558.589 494.853 558.481 486.561 558.248Z" fill="#A6A6A6"/>
<path d="M486.561 565.409C490.064 565.177 493.567 565.053 497.07 564.96C500.573 564.867 504.076 564.882 507.594 564.836C511.113 564.789 514.6 564.836 518.103 564.96C521.606 565.084 525.109 565.177 528.628 565.409C525.109 565.657 521.606 565.766 518.103 565.859C514.6 565.952 511.097 565.952 507.594 565.998C504.091 566.045 500.573 565.998 497.07 565.859C493.567 565.719 490.064 565.657 486.561 565.409Z" fill="#A6A6A6"/>
<path d="M466.612 407.712L466.907 430.327L467.077 452.957L467.217 498.201L467.077 500.991L466.907 523.606L466.612 546.236L466.302 523.606L466.132 500.991L465.992 498.201L466.147 452.957L466.318 430.327L466.612 407.712Z" fill="#FFC727"/>
<path d="M468.937 409.495C468.871 410.065 468.598 410.591 468.169 410.973C467.74 411.355 467.186 411.566 466.612 411.566C466.038 411.566 465.484 411.355 465.055 410.973C464.626 410.591 464.353 410.065 464.287 409.495C464.249 409.167 464.281 408.834 464.38 408.52C464.48 408.205 464.645 407.915 464.864 407.669C465.084 407.422 465.353 407.225 465.654 407.09C465.956 406.955 466.282 406.885 466.612 406.885C466.942 406.885 467.268 406.955 467.57 407.09C467.871 407.225 468.14 407.422 468.359 407.669C468.579 407.915 468.744 408.205 468.844 408.52C468.943 408.834 468.975 409.167 468.937 409.495Z" fill="#FFC727"/>
<path d="M468.937 454.29C468.94 454.754 468.805 455.208 468.549 455.596C468.293 455.983 467.927 456.285 467.499 456.464C467.071 456.643 466.599 456.691 466.144 456.601C465.688 456.511 465.27 456.288 464.941 455.96C464.613 455.632 464.39 455.213 464.3 454.758C464.21 454.302 464.258 453.83 464.437 453.402C464.616 452.974 464.918 452.608 465.306 452.353C465.693 452.097 466.148 451.961 466.612 451.965C467.227 451.969 467.816 452.215 468.251 452.65C468.687 453.085 468.933 453.674 468.937 454.29Z" fill="#FFC727"/>
<path d="M468.937 499.1C468.871 499.67 468.598 500.197 468.169 500.579C467.74 500.961 467.186 501.172 466.612 501.172C466.038 501.172 465.484 500.961 465.055 500.579C464.626 500.197 464.353 499.67 464.287 499.1C464.249 498.772 464.281 498.44 464.38 498.125C464.48 497.811 464.645 497.521 464.864 497.274C465.084 497.028 465.353 496.83 465.654 496.695C465.956 496.56 466.282 496.491 466.612 496.491C466.942 496.491 467.268 496.56 467.57 496.695C467.871 496.83 468.14 497.028 468.359 497.274C468.579 497.521 468.744 497.811 468.844 498.125C468.943 498.44 468.975 498.772 468.937 499.1Z" fill="#FFC727"/>
<path d="M468.937 543.895C468.94 544.359 468.805 544.814 468.549 545.201C468.293 545.588 467.927 545.891 467.499 546.07C467.071 546.249 466.599 546.297 466.144 546.207C465.688 546.117 465.27 545.894 464.941 545.566C464.613 545.237 464.39 544.819 464.3 544.363C464.21 543.908 464.258 543.436 464.437 543.008C464.616 542.579 464.918 542.214 465.306 541.958C465.693 541.702 466.148 541.567 466.612 541.57C467.228 541.57 467.82 541.815 468.256 542.251C468.692 542.687 468.937 543.278 468.937 543.895Z" fill="#FFC727"/>
<path d="M223.2 548.142C223.197 552.333 221.669 556.381 218.901 559.529C216.134 562.677 212.316 564.71 208.159 565.251C204.002 565.791 199.791 564.801 196.311 562.465C192.831 560.13 190.319 556.608 189.244 552.556C188.169 548.505 188.604 544.201 190.468 540.447C192.333 536.693 195.499 533.745 199.377 532.154C203.255 530.562 207.579 530.436 211.543 531.798C215.507 533.159 218.84 535.917 220.922 539.555C222.416 542.17 223.202 545.13 223.2 548.142Z" fill="#455A64"/>
<path d="M220.891 539.555L205.887 548.142V530.86C208.932 530.86 211.923 531.665 214.557 533.191C217.192 534.718 219.376 536.913 220.891 539.555Z" fill="#FFC727"/>
<path d="M217.681 550.088C218.758 543.576 214.352 537.425 207.84 536.348C201.329 535.271 195.177 539.677 194.1 546.188C193.023 552.7 197.429 558.852 203.941 559.929C210.452 561.005 216.604 556.6 217.681 550.088Z" fill="white"/>
<path d="M210.861 545.476H200.91V546.886H210.861V545.476Z" fill="#263238"/>
<path d="M213.343 549.382H198.463V550.793H213.343V549.382Z" fill="#A6A6A6"/>
<path d="M271.498 548.142C271.499 548.988 271.437 549.832 271.312 550.668C270.657 555.098 268.31 559.102 264.764 561.836C261.218 564.571 256.75 565.824 252.299 565.332C247.848 564.84 243.762 562.641 240.899 559.197C238.036 555.754 236.62 551.334 236.949 546.869C237.278 542.403 239.326 538.238 242.662 535.251C245.998 532.264 250.363 530.687 254.838 530.852C259.312 531.017 263.549 532.911 266.656 536.136C269.764 539.36 271.499 543.664 271.498 548.142Z" fill="#455A64"/>
<path d="M271.498 548.142C271.498 548.988 271.436 549.832 271.312 550.669L254.262 548.142V530.86C256.531 530.86 258.777 531.307 260.873 532.175C262.969 533.044 264.873 534.317 266.477 535.923C268.08 537.528 269.352 539.433 270.219 541.53C271.086 543.626 271.531 545.873 271.529 548.142H271.498Z" fill="#FFC727"/>
<path d="M265.872 550.901C267.383 544.476 263.401 538.043 256.976 536.531C250.551 535.02 244.118 539.002 242.606 545.427C241.095 551.852 245.077 558.285 251.502 559.797C257.927 561.308 264.36 557.326 265.872 550.901Z" fill="white"/>
<path d="M259.207 545.476H249.256V546.886H259.207V545.476Z" fill="#263238"/>
<path d="M261.671 549.382H246.791V550.793H261.671V549.382Z" fill="#A6A6A6"/>
<path d="M320.169 548.142C320.165 552.333 318.637 556.381 315.87 559.529C313.102 562.677 309.284 564.71 305.128 565.251C300.971 565.791 296.76 564.801 293.28 562.465C289.799 560.13 287.287 556.608 286.212 552.556C285.137 548.505 285.573 544.201 287.437 540.447C289.302 536.693 292.468 533.745 296.346 532.154C300.223 530.562 304.548 530.436 308.512 531.798C312.476 533.159 315.809 535.917 317.89 539.555C319.386 542.169 320.172 545.13 320.169 548.142Z" fill="#455A64"/>
<path d="M320.167 548.142C320.169 551.635 319.111 555.046 317.132 557.925C315.153 560.803 312.347 563.013 309.085 564.262L302.885 548.142V530.86C305.154 530.86 307.4 531.307 309.496 532.175C311.592 533.044 313.496 534.317 315.1 535.923C316.703 537.528 317.975 539.433 318.842 541.53C319.709 543.626 320.154 545.873 320.152 548.142H320.167Z" fill="#FFC727"/>
<path d="M314.852 548.142C314.852 550.506 314.151 552.816 312.838 554.781C311.525 556.747 309.659 558.278 307.475 559.183C305.291 560.087 302.888 560.324 300.57 559.863C298.252 559.402 296.123 558.264 294.451 556.592C292.78 554.921 291.642 552.792 291.181 550.474C290.72 548.155 290.956 545.753 291.861 543.569C292.765 541.385 294.297 539.519 296.262 538.206C298.228 536.893 300.538 536.192 302.902 536.192C306.071 536.192 309.111 537.451 311.352 539.692C313.593 541.933 314.852 544.973 314.852 548.142Z" fill="white"/>
<path d="M307.877 545.476H297.926V546.886H307.877V545.476Z" fill="#263238"/>
<path d="M310.341 549.382H295.461V550.793H310.341V549.382Z" fill="#A6A6A6"/>
<path d="M368.575 548.142C368.572 552.333 367.044 556.381 364.276 559.529C361.509 562.677 357.691 564.71 353.534 565.251C349.377 565.791 345.166 564.801 341.686 562.465C338.206 560.13 335.694 556.608 334.619 552.556C333.544 548.505 333.979 544.201 335.843 540.447C337.708 536.693 340.874 533.745 344.752 532.154C348.63 530.562 352.954 530.436 356.918 531.798C360.882 533.159 364.215 535.917 366.297 539.555C367.795 542.168 368.58 545.13 368.575 548.142Z" fill="#455A64"/>
<path d="M368.575 548.142C368.574 551.44 367.627 554.669 365.849 557.446C364.07 560.224 361.533 562.434 358.538 563.815C355.543 565.196 352.215 565.69 348.948 565.239C345.68 564.788 342.611 563.411 340.102 561.271L351.308 548.142V530.86C353.577 530.86 355.823 531.307 357.919 532.175C360.015 533.044 361.92 534.317 363.523 535.923C365.127 537.528 366.398 539.433 367.265 541.53C368.132 543.626 368.577 545.873 368.575 548.142Z" fill="#FFC727"/>
<path d="M363.109 549.908C364.112 543.385 359.637 537.283 353.113 536.28C346.59 535.277 340.489 539.753 339.486 546.276C338.483 552.8 342.958 558.901 349.482 559.904C356.005 560.907 362.106 556.431 363.109 549.908Z" fill="white"/>
<path d="M356.283 545.476H346.332V546.886H356.283V545.476Z" fill="#263238"/>
<path d="M358.747 549.382H343.867V550.793H358.747V549.382Z" fill="#A6A6A6"/>
<path d="M384.029 386.121L384.308 409.743L384.478 433.365L384.618 480.609L384.478 527.868L384.308 551.49L384.029 575.128L383.75 551.49L383.579 527.868L383.455 480.609L383.579 433.365L383.75 409.743L384.029 386.121Z" fill="#455A64"/>
<path d="M199.267 625.534C199.058 625.723 198.801 625.852 198.523 625.905L198.151 625.983H197.5L196.849 625.875C195.992 625.686 195.18 625.327 194.462 624.82C192.786 623.697 191.348 622.254 190.231 620.573C189.735 619.863 189.383 619.063 189.192 618.217C189.192 618 189.192 617.768 189.084 617.551V616.9C189.084 616.698 189.161 616.497 189.223 616.295C189.285 616.094 189.409 615.939 189.502 615.753L189.611 615.846C190.494 616.745 191.393 617.628 192.292 618.527C192.311 618.552 192.322 618.582 192.322 618.613C192.322 618.644 192.311 618.674 192.292 618.698C192.221 618.92 192.209 619.158 192.258 619.386C192.307 619.615 192.415 619.826 192.571 620C193.328 620.864 194.14 621.677 195.005 622.433C195.179 622.59 195.39 622.698 195.619 622.747C195.847 622.796 196.085 622.784 196.307 622.712C196.33 622.697 196.357 622.689 196.384 622.689C196.412 622.689 196.439 622.697 196.462 622.712L199.19 625.441L199.267 625.534Z" fill="#FFC727"/>
<path d="M200.849 623.968L199.904 624.914L197.145 622.17L197.346 621.968L198.168 621.162C198.208 621.108 198.26 621.064 198.321 621.033C198.382 621.003 198.448 620.987 198.516 620.987C198.584 620.987 198.651 621.003 198.712 621.033C198.772 621.064 198.825 621.108 198.865 621.162L200.911 623.224C200.977 623.265 201.03 623.323 201.065 623.392C201.1 623.461 201.115 623.538 201.109 623.615C201.102 623.692 201.074 623.766 201.029 623.828C200.983 623.89 200.921 623.939 200.849 623.968Z" fill="#FFC727"/>
<path d="M193.858 616.9L192.804 617.908L190.092 615.195L191.053 614.218C191.093 614.167 191.145 614.125 191.204 614.097C191.263 614.068 191.328 614.053 191.394 614.053C191.459 614.053 191.524 614.068 191.583 614.097C191.642 614.125 191.694 614.167 191.735 614.218L193.812 616.296C193.897 616.37 193.949 616.475 193.958 616.588C193.967 616.701 193.931 616.813 193.858 616.9Z" fill="#FFC727"/>
<path d="M200.477 639.484L200.183 639.763L195.533 644.134C195.467 644.209 195.386 644.27 195.295 644.311C195.204 644.353 195.106 644.374 195.006 644.374C194.906 644.374 194.807 644.353 194.716 644.311C194.625 644.27 194.544 644.209 194.479 644.134L189.829 639.685L189.643 639.499C189.761 639.419 189.903 639.38 190.046 639.391H193.239H199.888C200.089 639.356 200.296 639.389 200.477 639.484Z" fill="#FFC727"/>
<path d="M200.463 647.606C200.332 647.646 200.197 647.672 200.06 647.683H196.247H190.047C189.873 647.686 189.702 647.644 189.551 647.559C190.822 646.335 192.093 645.141 193.364 643.932L194.092 644.614L194.402 644.909C194.559 645.064 194.771 645.151 194.991 645.151C195.212 645.151 195.424 645.064 195.58 644.909L196.588 643.932C197.859 645.141 199.114 646.335 200.385 647.513L200.463 647.606Z" fill="#FFC727"/>
<path d="M192.96 643.529C191.736 644.738 190.48 645.9 189.256 647.109C189.256 647.109 189.256 647.001 189.256 646.924C189.256 644.692 189.256 642.444 189.256 640.212C189.256 640.135 189.256 640.057 189.256 639.995L192.96 643.529Z" fill="#FFC727"/>
<path d="M200.864 647.079L199.469 645.746L197.222 643.622L197.129 643.545C198.369 642.336 199.624 641.173 200.833 639.98C200.895 640.15 200.911 646.893 200.864 647.079Z" fill="#FFC727"/>
<path d="M383.92 616.978C383.584 617.829 383.391 618.73 383.346 619.644H380.99C380.982 619.582 380.982 619.519 380.99 619.458C381.019 619.144 381.071 618.833 381.145 618.528C381.267 618.029 381.444 617.546 381.672 617.086H383.858L383.92 616.978Z" fill="#FFC727"/>
<path d="M383.858 622.93H381.688C381.431 622.41 381.249 621.857 381.146 621.287C381.087 621.016 381.05 620.742 381.037 620.465V620.372H383.347V620.946C383.378 621.242 383.425 621.537 383.486 621.829C383.566 622.192 383.669 622.549 383.796 622.899L383.858 622.93Z" fill="#FFC727"/>
<path d="M392.957 623.612C392.767 623.888 392.56 624.152 392.337 624.402C392.068 624.712 391.766 624.993 391.438 625.239C391.115 625.48 390.773 625.693 390.415 625.875C390.066 626.046 389.703 626.186 389.33 626.293C389.037 626.386 388.736 626.449 388.431 626.479H388.291C388.952 626.025 389.533 625.464 390.012 624.821C390.273 624.451 390.506 624.063 390.709 623.658H392.926L392.957 623.612Z" fill="#FFC727"/>
<path d="M390.786 619.644H387.686V616.993H390.057C390.277 617.49 390.438 618.01 390.538 618.543C390.602 618.818 390.643 619.098 390.662 619.38C390.77 619.489 390.786 619.566 390.786 619.644Z" fill="#FFC727"/>
<path d="M390.771 620.357C390.779 620.418 390.779 620.481 390.771 620.543C390.779 620.687 390.779 620.832 390.771 620.977C390.771 621.194 390.771 621.395 390.663 621.597C390.572 622.036 390.442 622.466 390.275 622.883H387.842V620.31L390.771 620.357Z" fill="#FFC727"/>
<path d="M387.066 617.009V619.659H384.09C384.098 619.592 384.098 619.525 384.09 619.458V619.024C384.09 618.791 384.09 618.574 384.214 618.342C384.319 617.895 384.464 617.46 384.648 617.04H386.957L387.066 617.009Z" fill="#FFC727"/>
<path d="M387.066 620.388V622.93H384.694C384.508 622.496 384.368 622.044 384.276 621.581C384.276 621.349 384.276 621.101 384.167 620.868C384.059 620.636 384.167 620.558 384.167 620.403H387.112C387.112 620.403 387.066 620.357 387.066 620.388Z" fill="#FFC727"/>
<path d="M394.011 620.326V620.512C394.011 620.729 394.011 620.961 394.011 621.178C393.923 621.712 393.766 622.233 393.546 622.728L393.438 622.961H391.128C391.121 622.883 391.121 622.806 391.128 622.728C391.262 622.328 391.366 621.919 391.438 621.504C391.438 621.209 391.438 620.915 391.547 620.605V620.388H394.011V620.326Z" fill="#FFC727"/>
<path d="M392.895 616.311H390.678C390.384 615.75 390.019 615.23 389.593 614.761C389.346 614.48 389.071 614.226 388.772 614.002L388.322 613.661C389.09 613.739 389.837 613.96 390.523 614.312C391.462 614.779 392.276 615.465 392.895 616.311Z" fill="#FFC727"/>
<path d="M386.647 626.495C386.407 626.465 386.168 626.418 385.934 626.355C384.99 626.123 384.114 625.671 383.377 625.038C382.883 624.628 382.459 624.141 382.121 623.596H384.167C384.37 624.025 384.62 624.43 384.911 624.805C385.171 625.155 385.462 625.482 385.779 625.782C386.04 626.025 386.32 626.248 386.616 626.448L386.647 626.495Z" fill="#FFC727"/>
<path d="M386.616 613.568L386.306 613.785C385.955 614.061 385.629 614.367 385.33 614.699C384.92 615.142 384.571 615.637 384.291 616.172V616.28H382.152C382.665 615.532 383.328 614.898 384.1 614.421C384.871 613.943 385.733 613.631 386.632 613.506L386.616 613.568Z" fill="#FFC727"/>
<path d="M389.887 623.612C389.601 624.101 389.263 624.558 388.879 624.976C388.534 625.342 388.149 625.669 387.732 625.952V623.612H389.887Z" fill="#FFC727"/>
<path d="M387.065 623.612V625.906C386.204 625.317 385.497 624.53 385.004 623.612H387.065Z" fill="#FFC727"/>
<path d="M389.81 616.296H387.748V614.11C388.173 614.389 388.563 614.717 388.911 615.087C389.249 615.459 389.55 615.864 389.81 616.296Z" fill="#FFC727"/>
<path d="M387.066 614.188V616.311H385.082C385.566 615.456 386.246 614.728 387.066 614.188Z" fill="#FFC727"/>
<path d="M392.538 639.53C391.975 638.36 391.021 637.424 389.84 636.883C388.66 636.342 387.328 636.232 386.074 636.57C384.85 636.849 383.768 637.561 383.028 638.575C382.287 639.589 381.938 640.837 382.044 642.088C382.146 642.929 382.393 643.747 382.773 644.506C383.573 646.161 384.618 647.687 385.873 649.032C386.369 649.59 386.911 650.132 387.423 650.69L387.609 650.535C388.275 649.807 388.973 649.109 389.624 648.365C390.846 646.99 391.826 645.418 392.522 643.715C392.812 643.056 392.963 642.344 392.966 641.624C392.969 640.904 392.823 640.191 392.538 639.53ZM390.879 641.561C390.866 642.237 390.651 642.894 390.261 643.447C389.872 644 389.326 644.424 388.694 644.665C388.062 644.906 387.373 644.953 386.714 644.799C386.055 644.646 385.458 644.299 384.997 643.803C384.537 643.307 384.236 642.685 384.131 642.017C384.027 641.349 384.125 640.664 384.412 640.052C384.699 639.44 385.163 638.927 385.744 638.58C386.324 638.233 386.995 638.067 387.671 638.104C388.549 638.152 389.375 638.539 389.973 639.184C390.572 639.829 390.896 640.681 390.879 641.561Z" fill="#FFC727"/>
<path d="M213.078 616.063C221.371 615.815 229.679 615.707 237.971 615.614L262.864 615.474L287.757 615.614C296.065 615.707 304.358 615.815 312.666 616.063C304.358 616.296 296.065 616.404 287.757 616.513L262.864 616.637L237.971 616.497C229.679 616.404 221.371 616.296 213.078 616.063Z" fill="#A6A6A6"/>
<path d="M213.078 623.224C217.232 622.991 221.371 622.883 225.478 622.79C229.586 622.697 233.771 622.697 237.878 622.65C241.986 622.604 246.171 622.651 250.278 622.775C254.386 622.899 258.571 622.991 262.678 623.224C258.524 623.472 254.386 623.581 250.278 623.674C246.171 623.767 241.986 623.767 237.878 623.813C233.771 623.86 229.586 623.813 225.478 623.674C221.371 623.534 217.232 623.472 213.078 623.224Z" fill="#A6A6A6"/>
<path d="M213.078 639.933C221.371 639.701 229.679 639.592 237.971 639.499L262.864 639.36L287.757 639.484C296.065 639.577 304.358 639.701 312.666 639.933C304.358 640.181 296.065 640.29 287.757 640.383L262.864 640.522L237.971 640.383C229.679 640.29 221.371 640.15 213.078 639.933Z" fill="#A6A6A6"/>
<path d="M213.078 647.11C217.232 646.862 221.371 646.753 225.478 646.66C229.586 646.567 233.771 646.583 237.878 646.521C241.986 646.459 246.171 646.521 250.278 646.66C254.386 646.8 258.571 646.862 262.678 647.11C258.524 647.342 254.386 647.466 250.278 647.559C246.171 647.652 241.986 647.637 237.878 647.683C233.771 647.73 229.586 647.683 225.478 647.559C221.371 647.435 217.232 647.342 213.078 647.11Z" fill="#A6A6A6"/>
<path d="M411.68 616.063C419.972 615.815 428.28 615.707 436.573 615.614L461.466 615.474L486.374 615.614C494.667 615.707 502.959 615.815 511.267 616.063C502.959 616.296 494.667 616.404 486.374 616.513L461.466 616.637L436.573 616.497C428.28 616.404 420.05 616.296 411.68 616.063Z" fill="#A6A6A6"/>
<path d="M411.68 623.224C415.834 622.991 419.972 622.883 424.08 622.79C428.187 622.697 432.388 622.697 436.48 622.65C440.572 622.604 444.788 622.651 448.88 622.775C452.972 622.899 457.188 622.991 461.28 623.224C457.141 623.472 452.987 623.581 448.88 623.674C444.772 623.767 440.587 623.767 436.48 623.813C432.372 623.86 428.187 623.813 424.08 623.674C419.972 623.534 415.834 623.472 411.68 623.224Z" fill="#A6A6A6"/>
<path d="M411.68 639.933C419.972 639.701 428.28 639.592 436.573 639.499L461.466 639.36L486.374 639.484C494.667 639.577 502.959 639.701 511.267 639.933C502.959 640.181 494.667 640.29 486.374 640.383L461.466 640.522L436.573 640.383C428.28 640.29 420.05 640.15 411.68 639.933Z" fill="#A6A6A6"/>
<path d="M411.68 647.11C415.834 646.862 419.972 646.753 424.08 646.66C428.187 646.567 432.388 646.583 436.48 646.521C440.572 646.459 444.788 646.521 448.88 646.66C452.972 646.8 457.188 646.862 461.28 647.11C457.141 647.342 452.987 647.466 448.88 647.559C444.772 647.652 440.587 647.637 436.48 647.683C432.372 647.73 428.187 647.683 424.08 647.559C419.972 647.435 415.834 647.342 411.68 647.11Z" fill="#A6A6A6"/>
</svg>
