<svg width="252" height="240" viewBox="0 0 252 240" fill="none" xmlns="http://www.w3.org/2000/svg">
<path d="M237.526 9.69702e-05H14.4151C10.5884 0.0115541 6.92207 1.5411 4.2202 4.25079C1.51818 6.96048 6.45495e-05 10.6308 6.45495e-05 14.4594V153.732C-0.0113931 157.563 1.50288 161.241 4.20685 163.952C6.91077 166.666 10.5849 168.19 14.4155 168.19H101.846C103.966 185.399 96.8833 202.457 83.1975 213.103C81.6622 214.336 81.0664 216.401 81.708 218.261C82.3516 220.122 84.095 221.379 86.0638 221.402H165.922C167.883 221.362 169.61 220.099 170.242 218.241C170.874 216.385 170.274 214.331 168.744 213.103C155.001 202.441 147.896 185.322 150.052 168.062H237.526C241.336 168.062 244.989 166.555 247.689 163.87C250.391 161.185 251.919 157.54 251.942 153.732V14.4593C251.942 10.6307 250.424 6.96038 247.722 4.25069C245.02 1.541 241.353 0.0114391 237.527 0L237.526 9.69702e-05ZM154.373 212.117H97.5683C107.905 199.891 112.803 183.979 111.128 168.059H140.814C139.14 183.979 144.038 199.891 154.374 212.117H154.373ZM242.703 153.728C242.703 156.595 240.392 158.924 237.526 158.947H14.4151C11.5489 158.924 9.23823 156.595 9.23823 153.728V14.4554C9.23823 11.5967 11.5565 9.27845 14.4151 9.27845H237.526C238.899 9.27845 240.214 9.82459 241.186 10.7947C242.157 11.7647 242.703 13.0823 242.703 14.4553L242.703 153.728Z" fill="#006872"/>
<path d="M185.466 229.743H66.4702C64.0776 229.972 62.2539 231.981 62.2539 234.383C62.2539 236.785 64.0776 238.794 66.4702 239.025H185.466C187.859 238.794 189.682 236.785 189.682 234.383C189.682 231.981 187.859 229.972 185.466 229.743Z" fill="#006872"/>
<path d="M35.7576 132.09H216.48C218.678 132.09 220.46 130.309 220.46 128.111C220.46 125.915 218.678 124.133 216.48 124.133H207.542V63.0957C207.61 61.0562 206.873 59.0722 205.487 57.5751C204.101 56.0761 202.18 55.1862 200.142 55.0984H184.315C182.276 55.1862 180.355 56.0761 178.968 57.5751C177.584 59.0722 176.845 61.0562 176.914 63.0957V124.133H162.585V92.0966C162.655 90.0572 161.916 88.0712 160.53 86.5741C159.145 85.077 157.224 84.1852 155.185 84.0974H139.358C137.321 84.1852 135.4 85.077 134.013 86.5741C132.627 88.0712 131.89 90.0571 131.959 92.0966V124.135L117.629 124.133V73.3615C117.71 71.3202 116.976 69.3285 115.588 67.8297C114.2 66.3288 112.271 65.4409 110.23 65.3645H94.4033C92.36 65.4408 90.4333 66.3288 89.045 67.8297C87.6568 69.3287 86.9216 71.3204 87.0037 73.3615V124.133H72.6745V107.923C72.7547 105.88 72.0196 103.888 70.6313 102.389C69.245 100.888 67.3163 100.002 65.273 99.9241H49.4465C47.4052 100.002 45.4765 100.888 44.0883 102.389C42.7 103.888 41.9668 105.88 42.0469 107.923V124.135L35.7589 124.133C33.5629 124.133 31.7812 125.915 31.7812 128.111C31.7812 130.309 33.5629 132.091 35.7589 132.091L35.7576 132.09ZM184.998 63.0943H199.542V124.005H184.912L184.998 63.0943ZM140.043 92.0968H154.587V124.005H139.957L140.043 92.0968ZM95.0863 73.3602H109.63V124.005H95.0003L95.0863 73.3602ZM50.1313 107.923H64.6745V124.005H50.0452L50.1313 107.923Z" fill="#006872"/>
<path d="M227.559 139.702H24.6821C23.5497 139.583 22.4211 139.952 21.5752 140.716C20.7292 141.478 20.2461 142.562 20.2461 143.701C20.2461 144.839 20.7292 145.925 21.5752 146.687C22.4211 147.449 23.5497 147.818 24.6821 147.701H227.559C229.608 147.487 231.166 145.761 231.166 143.701C231.166 141.64 229.608 139.914 227.559 139.702Z" fill="#006872"/>
<path d="M57.529 91.9218C61.0694 91.9218 64.4628 90.5163 66.9662 88.0129C69.4678 85.5095 70.8751 82.1164 70.8751 78.5757C70.8579 76.8761 70.5238 75.1919 69.8917 73.6148L95.2146 52.8691H95.2127C97.844 54.6239 101.018 55.3782 104.157 54.9944C107.296 54.6087 110.193 53.1116 112.322 50.7724L134.393 61.2523H134.395C134.351 61.8501 134.351 62.4515 134.395 63.0492C134.395 67.8174 136.938 72.223 141.067 74.6061C145.197 76.9912 150.284 76.9912 154.413 74.6061C158.541 72.223 161.085 67.8175 161.085 63.0492C161.073 61.7412 160.857 60.4408 160.443 59.1996L184.055 42.5176C186.375 44.3718 189.257 45.382 192.226 45.3839C195.766 45.3839 199.163 43.9746 201.667 41.4693C204.17 38.9639 205.574 35.5649 205.57 32.0247C205.566 28.4824 204.155 25.0874 201.646 22.5855C199.138 20.0859 195.737 18.6843 192.197 18.6919C188.655 18.6996 185.261 20.1146 182.764 22.6256C180.264 25.1367 178.868 28.5397 178.88 32.08C178.895 33.39 179.113 34.6865 179.521 35.9297L155.44 52.4396V52.4415C152.827 50.3581 149.52 49.3499 146.19 49.6192C142.859 49.8903 139.758 51.418 137.517 53.8947L115.488 43.4147V41.6178V41.6197C115.488 36.8515 112.944 32.446 108.816 30.0609C104.686 27.6778 99.599 27.6778 95.4701 30.0609C91.3398 32.4459 88.7964 36.8515 88.7964 41.6197C88.8403 43.4032 89.2337 45.162 89.9517 46.7947L64.6728 67.5405C62.5666 66.0949 60.0841 65.291 57.5293 65.2299C52.7611 65.2299 48.3555 67.7734 45.9724 71.9036C43.5873 76.0321 43.5873 81.1194 45.9724 85.2497C48.3555 89.3782 52.761 91.9215 57.5293 91.9215L57.529 91.9218ZM192.398 26.4747C194.716 26.4747 196.807 27.8706 197.693 30.0131C198.581 32.1557 198.09 34.6209 196.452 36.2592C194.811 37.8995 192.346 38.3883 190.206 37.5023C188.063 36.6143 186.667 34.5253 186.667 32.2071C186.665 29.1059 189.129 26.5663 192.228 26.4744L192.398 26.4747ZM147.356 57.3142C149.675 57.3142 151.766 58.712 152.652 60.8527C153.54 62.9952 153.049 65.4604 151.409 67.0987C149.77 68.739 147.305 69.2298 145.163 68.3418C143.022 67.4558 141.624 65.3648 141.624 63.0466C141.624 61.5266 142.229 60.0677 143.305 58.9945C144.378 57.9194 145.837 57.3141 147.357 57.3141L147.356 57.3142ZM102.401 35.9271C104.72 35.9271 106.809 37.3249 107.697 39.4655C108.583 41.608 108.094 44.0733 106.453 45.7115C104.815 47.3519 102.35 47.8426 100.207 46.9547C98.0649 46.0686 96.669 43.9777 96.669 41.6595C96.7149 38.5603 99.2164 36.0587 102.316 36.0128L102.401 35.9271ZM57.5305 72.843C59.8487 72.843 61.9397 74.2389 62.8257 76.3814C63.7136 78.522 63.2229 80.9873 61.5826 82.6275C59.9441 84.2659 57.4789 84.7566 55.3365 83.8687C53.1959 82.9827 51.7981 80.8917 51.7981 78.5735C51.7981 75.4074 54.3645 72.8427 57.5308 72.8427L57.5305 72.843Z" fill="#006872"/>
</svg>
