<svg width="45" height="45" viewBox="0 0 45 45" fill="none" xmlns="http://www.w3.org/2000/svg">
<g filter="url(#filter0_d_531_1500)">
<path d="M4 5.28571C4 3.88386 4.55689 2.53941 5.54815 1.54815C6.53941 0.556886 7.88386 0 9.28571 0H11.9286V9.25C11.9286 10.3014 12.3462 11.3097 13.0897 12.0532C13.8331 12.7966 14.8415 13.2143 15.8929 13.2143H26.4643C27.5157 13.2143 28.524 12.7966 29.2675 12.0532C30.0109 11.3097 30.4286 10.3014 30.4286 9.25V0H31.4302C32.832 0.000299369 34.1762 0.557382 35.1672 1.54871L39.4513 5.83279C40.4426 6.82382 40.9997 8.16804 41 9.56979V31.7143C41 33.1161 40.4431 34.4606 39.4518 35.4518C38.4606 36.4431 37.1161 37 35.7143 37V22.4643C35.7143 21.4129 35.2966 20.4046 34.5532 19.6611C33.8097 18.9177 32.8014 18.5 31.75 18.5H13.25C12.1986 18.5 11.1903 18.9177 10.4468 19.6611C9.70338 20.4046 9.28571 21.4129 9.28571 22.4643V37C7.88386 37 6.53941 36.4431 5.54815 35.4518C4.55689 34.4606 4 33.1161 4 31.7143V5.28571ZM27.7857 0H14.5714V9.25C14.5714 9.60046 14.7107 9.93657 14.9585 10.1844C15.2063 10.4322 15.5424 10.5714 15.8929 10.5714H26.4643C26.8148 10.5714 27.1509 10.4322 27.3987 10.1844C27.6465 9.93657 27.7857 9.60046 27.7857 9.25V0ZM33.0714 22.4643V37H11.9286V22.4643C11.9286 22.1138 12.0678 21.7777 12.3156 21.5299C12.5634 21.2821 12.8995 21.1429 13.25 21.1429H31.75C32.1005 21.1429 32.4366 21.2821 32.6844 21.5299C32.9322 21.7777 33.0714 22.1138 33.0714 22.4643Z" fill="black"/>
</g>
<defs>
<filter id="filter0_d_531_1500" x="0" y="0" width="45" height="45" filterUnits="userSpaceOnUse" color-interpolation-filters="sRGB">
<feFlood flood-opacity="0" result="BackgroundImageFix"/>
<feColorMatrix in="SourceAlpha" type="matrix" values="0 0 0 0 0 0 0 0 0 0 0 0 0 0 0 0 0 0 127 0" result="hardAlpha"/>
<feOffset dy="4"/>
<feGaussianBlur stdDeviation="2"/>
<feComposite in2="hardAlpha" operator="out"/>
<feColorMatrix type="matrix" values="0 0 0 0 0 0 0 0 0 0 0 0 0 0 0 0 0 0 0.25 0"/>
<feBlend mode="normal" in2="BackgroundImageFix" result="effect1_dropShadow_531_1500"/>
<feBlend mode="normal" in="SourceGraphic" in2="effect1_dropShadow_531_1500" result="shape"/>
</filter>
</defs>
</svg>
