<svg width="140" height="143" viewBox="0 0 140 143" fill="none" xmlns="http://www.w3.org/2000/svg">
<path d="M54.0355 38.1236C49.6377 33.7088 42.4768 33.7088 38.0608 38.1236C35.9231 40.2612 34.7578 43.095 34.7578 46.1018C34.7578 49.1258 35.923 51.9594 38.0608 54.0983C38.4948 54.5324 38.9641 54.9325 39.4515 55.2805C40.373 53.8025 41.3988 52.3948 42.5107 51.0563C42.25 50.8647 41.9893 50.6561 41.7456 50.4137C40.5986 49.2666 39.9729 47.7365 39.9729 46.1031C39.9729 44.4869 40.5986 42.9566 41.7456 41.8097C42.9278 40.6275 44.4919 40.037 46.0561 40.037C47.6033 40.037 49.1672 40.6275 50.3496 41.8097C50.7667 42.2268 51.1146 42.6791 51.3923 43.1835C52.8352 42.228 54.3641 41.3926 55.9294 40.6627C55.4432 39.74 54.7994 38.8888 54.0355 38.1237V38.1236Z" fill="#006872"/>
<path d="M60.191 31.9669C56.419 28.195 51.3955 26.1094 46.0594 26.1094C40.7233 26.1094 35.6998 28.1949 31.9279 31.9669C28.1388 35.7389 26.0703 40.7624 26.0703 46.0985C26.0703 51.4516 28.1388 56.4581 31.9279 60.2484C33.0579 61.3784 34.3092 62.369 35.6648 63.1862C36.2383 61.4996 36.9342 59.8665 37.7503 58.3024C37.0034 57.798 36.2723 57.2075 35.6127 56.5467C29.8411 50.7935 29.8411 41.4244 35.6127 35.6531C38.4802 32.7855 42.2704 31.3426 46.0595 31.3426C49.8314 31.3426 53.6205 32.7854 56.5063 35.6531C57.6011 36.748 58.4875 37.9823 59.1653 39.304C60.8167 38.6954 62.5033 38.2092 64.2577 37.8442C63.2841 35.6872 61.9115 33.7059 60.1908 31.9671L60.191 31.9669ZM60.2601 50.1315C59.5993 52.4959 58.348 54.7028 56.5049 56.5456C54.2109 58.8396 51.342 60.2133 48.3702 60.6655C47.2923 62.3691 46.389 64.1768 45.6931 66.0891H46.058C51.3941 66.0891 56.4176 64.0206 60.1896 60.2487C63.4755 56.9457 65.4735 52.7227 65.9428 48.1502C63.9616 48.6025 62.0678 49.2803 60.2597 50.1314L60.2601 50.1315Z" fill="#006872"/>
<path d="M34.6741 66.612C34.2218 68.3507 33.9272 70.1403 33.7526 71.9652C28.7291 69.6008 24.4189 65.7597 21.4626 60.8575C20.7157 59.6232 21.1146 58.0239 22.349 57.277C23.5833 56.5302 25.1826 56.9291 25.9294 58.1634C28.0864 61.7622 31.1286 64.6309 34.674 66.6122L34.6741 66.612Z" fill="#006872"/>
<path d="M20.0383 49.2141C18.5955 49.2311 17.4133 48.1011 17.3963 46.6594C17.2399 38.7504 20.316 31.519 25.4096 26.218C30.502 20.9341 37.612 17.579 45.5213 17.4396C58.3324 17.1789 69.387 25.4361 73.2462 36.9948C72.9685 36.9778 72.6897 36.9778 72.412 36.9778C70.8479 36.9778 69.3009 37.0651 67.7886 37.2736C64.242 28.5303 55.5862 22.4459 45.6084 22.6377C32.6759 22.8984 22.3501 33.623 22.5938 46.5555C22.6277 47.9972 21.4807 49.1794 20.0378 49.2145L20.0383 49.2141Z" fill="#006872"/>
<path d="M74.7046 47.4917C73.9916 62.4234 61.7721 74.5036 46.6147 74.7826C45.7453 74.7996 44.8759 74.7826 44.0078 74.6953C44.06 72.9227 44.3037 71.1841 44.6856 69.5154C45.2943 69.5675 45.903 69.5845 46.5104 69.5675C58.8004 69.342 68.7428 59.6251 69.4728 47.5437C70.4465 47.4564 71.4201 47.4043 72.4107 47.4043C73.1758 47.4055 73.9579 47.4395 74.7047 47.4916L74.7046 47.4917Z" fill="#006872"/>
<path d="M33.5419 75.842C33.5419 77.7372 33.6813 79.5972 33.959 81.4221C26.6938 78.9365 20.1232 74.209 15.4114 67.447C9.62305 59.1559 7.58962 49.0387 9.31017 39.4613C10.2486 34.1774 12.3341 29.0667 15.5507 24.5125C16.3849 23.3473 18.0012 23.0696 19.1834 23.8868C20.3655 24.721 20.6432 26.3555 19.809 27.5378C12.0211 38.5411 11.9689 53.4027 19.6878 64.4753C23.199 69.5156 27.9971 73.3922 33.5418 75.7211L33.5419 75.842Z" fill="#006872"/>
<path d="M72.4619 27.7097C71.6447 26.5275 71.9405 24.9112 73.1227 24.0941C74.3049 23.2599 75.9212 23.5558 76.7383 24.7367C79.6761 28.978 81.6221 33.6014 82.6309 38.3471C80.8061 37.8427 78.9278 37.4778 76.9987 37.2523C76.042 33.9325 74.547 30.7 72.4616 27.71L72.4619 27.7097Z" fill="#006872"/>
<path d="M83.2575 49.5574C82.2839 60.1436 76.8263 70.2257 67.4392 76.7612C60.608 81.5239 52.734 83.6797 45.0166 83.4189C44.5304 81.7323 44.2176 79.9949 44.0781 78.1871C51.3095 78.6564 58.4183 76.6751 64.4506 72.486C72.846 66.6455 77.5917 57.485 78.1653 47.9766C79.9379 48.3585 81.6414 48.8799 83.2577 49.5577L83.2575 49.5574Z" fill="#006872"/>
<path d="M23.6419 17.1088C23.7595 16.4516 24.1269 15.8393 24.7174 15.4282C38.9982 5.4821 58.6347 6.81837 71.4046 18.6073C72.4631 19.5846 72.5261 21.2336 71.5525 22.2909C70.5752 23.3494 68.9238 23.4161 67.8678 22.4388C56.8824 12.2974 39.9877 11.1492 27.6989 19.7082C26.5168 20.5327 24.8932 20.2405 24.0701 19.0583C23.6578 18.4678 23.5256 17.7658 23.642 17.1086L23.6419 17.1088Z" fill="#006872"/>
<path d="M34.7243 85.3501C35.2287 87.3664 35.9065 89.3306 36.7237 91.2076C27.9974 89.4168 19.9671 85.1231 13.5176 78.6752C2.0111 67.1687 -2.52632 50.846 1.36702 35.0641C1.71501 33.6564 3.12271 32.804 4.53031 33.152C5.92105 33.4999 6.77223 34.9076 6.42545 36.3152C2.98312 50.3257 6.99897 64.7702 17.2022 74.9724C22.1565 79.9267 28.1717 83.455 34.724 85.3503L34.7243 85.3501Z" fill="#006872"/>
<path d="M86.5959 51.209C88.2995 52.1826 89.8989 53.3466 91.3416 54.6513C89.6902 63.4468 85.4657 71.8773 78.6699 78.6735C70.6733 86.6517 60.2616 91.3623 49.068 92.0582C47.9549 90.4759 46.9994 88.7552 46.2344 86.9475C57.0984 86.9123 67.3015 82.654 74.9851 74.9704C81.6417 68.3139 85.5182 59.9002 86.5959 51.209H86.5959Z" fill="#006872"/>
<path d="M33.1569 4.50415C32.8271 3.1134 33.6782 1.70571 35.069 1.35763C50.8689 -2.51864 67.1581 2.01844 78.6646 13.525C86.6779 21.5215 91.111 31.7768 91.9621 42.2757C90.2064 41.233 88.3295 40.3285 86.3991 39.5985C85.0957 31.3934 81.2884 23.5195 74.9786 17.2097C64.7755 7.00659 50.331 2.97388 36.3215 6.41497C34.9137 6.76417 33.506 5.91299 33.1582 4.50409L33.1569 4.50415Z" fill="#006872"/>
<path d="M31.4881 6.18098C31.4881 7.19099 30.8988 8.15251 29.913 8.57689C25.1698 10.6211 20.8944 13.5275 17.2059 17.2147C13.4749 20.9457 10.5469 25.2755 8.49886 30.0817C7.93626 31.4057 6.40488 32.0229 5.07826 31.4603C3.7518 30.8953 3.13705 29.3603 3.70207 28.0397C6.01067 22.6161 9.31348 17.7335 13.5185 13.5285C17.675 9.37195 22.4946 6.09599 27.8465 3.78972C29.1693 3.21986 30.7043 3.82973 31.2742 5.15256C31.4197 5.48599 31.4876 5.83519 31.4876 6.18076L31.4881 6.18098Z" fill="#006872"/>
<path d="M137.784 132.618L116.894 111.728C115.18 110.013 112.705 109.556 110.565 110.313L99.7918 99.5398C105.305 93.1766 108.669 84.9026 108.669 75.8402C108.669 55.8448 92.4018 39.5762 72.4046 39.5762C52.4093 39.5762 36.1406 55.8442 36.1406 75.8402C36.1406 95.8367 52.4087 112.104 72.4046 112.104C81.4655 112.104 89.742 108.741 96.1042 103.225L106.877 113.998C106.119 116.139 106.577 118.617 108.291 120.329L129.182 141.219C130.372 142.408 131.928 143 133.484 143C135.042 143 136.599 142.406 137.786 141.219C140.161 138.845 140.161 134.993 137.784 132.618L137.784 132.618ZM41.3557 75.8397C41.3557 58.7193 55.2836 44.7905 72.4049 44.7905C89.5266 44.7905 103.454 58.7184 103.454 75.8397C103.454 92.9614 89.5262 106.889 72.4049 106.889C55.2845 106.89 41.3557 92.9611 41.3557 75.8397Z" fill="#006872"/>
</svg>
