<svg width="51" height="53" viewBox="0 0 51 53" fill="none" xmlns="http://www.w3.org/2000/svg">
<path d="M37.4291 34.2619C40.5154 29.8846 41.8977 24.4575 41.2995 19.0664C40.7013 13.6753 38.1667 8.7177 34.2027 5.18552C30.2387 1.65333 25.1377 -0.19297 19.9203 0.0159814C14.7028 0.224933 9.75365 2.47373 6.06293 6.31247C2.37221 10.1512 0.212115 15.2968 0.0148103 20.7198C-0.182494 26.1428 1.59754 31.4432 4.99879 35.5607C8.40003 39.6782 13.1717 42.309 18.359 42.9269C23.5464 43.5448 28.767 42.1042 32.9763 38.8932H32.9731C33.0687 39.0258 33.1707 39.1517 33.2855 39.2742L45.5569 52.0287C46.1546 52.6503 46.9653 52.9997 47.8108 53C48.6564 53.0003 49.4674 52.6515 50.0654 52.0303C50.6635 51.4091 50.9997 50.5665 51 49.6877C51.0003 48.8089 50.6647 47.9659 50.067 47.3443L37.7956 34.5899C37.6817 34.47 37.5591 34.3592 37.4291 34.2586V34.2619ZM38.2514 21.5273C38.2514 23.9201 37.798 26.2894 36.917 28.5001C36.036 30.7107 34.7447 32.7193 33.1168 34.4113C31.489 36.1032 29.5564 37.4453 27.4295 38.361C25.3026 39.2767 23.023 39.748 20.7208 39.748C18.4187 39.748 16.1391 39.2767 14.0122 38.361C11.8853 37.4453 9.9527 36.1032 8.32483 34.4113C6.69697 32.7193 5.40567 30.7107 4.52468 28.5001C3.64368 26.2894 3.19024 23.9201 3.19024 21.5273C3.19024 16.6949 5.03721 12.0604 8.32483 8.6434C11.6125 5.22637 16.0714 3.3067 20.7208 3.3067C25.3702 3.3067 29.8292 5.22637 33.1168 8.6434C36.4045 12.0604 38.2514 16.6949 38.2514 21.5273Z" fill="black" fill-opacity="0.7"/>
</svg>
