<svg width="612" height="655" viewBox="0 0 612 655" fill="none" xmlns="http://www.w3.org/2000/svg">
<path d="M74.5916 461.857C74.5916 458.984 74.427 456.141 74.3971 453.328L74.8161 453.747C68.0227 453.747 61.2145 453.986 54.4211 454.001L34.0262 454.091L34.7893 453.328V470.566L34.101 469.877C37.4528 469.877 40.8045 469.877 44.1862 469.952L54.3164 470.132L74.8909 470.566L74.5916 461.857ZM54.6007 470.985L44.3359 471.164C40.9093 471.239 37.4677 471.164 34.0262 471.254H33.293V470.566V453.328V452.55H34.0711L54.466 452.655C61.2593 452.655 68.0676 452.819 74.861 452.909H75.1902V453.328C75.1902 456.246 75.0555 459.164 74.9956 462.037L74.7712 470.566L54.6007 470.985Z" fill="#EBEBEB"/>
<path d="M51.8468 483.523C51.772 480.65 51.6673 477.822 51.6373 474.994L52.0563 475.413C45.263 475.503 38.4697 475.668 31.6614 475.668L11.2664 475.772L12.0445 474.994L11.9547 492.232L11.2664 491.544C14.6331 491.544 17.9849 491.544 21.3517 491.633L31.4818 491.798L52.0563 492.232L51.8468 483.523ZM31.796 492.726L21.5312 492.89C18.1046 492.965 14.6631 492.89 11.2215 492.98H10.5332V492.292V475.054V474.291H11.3113L31.7062 474.381C38.5145 474.381 45.3079 474.56 52.1012 474.635H52.5351V475.054C52.5351 478.047 52.4005 480.89 52.3406 483.763L52.1162 492.292L31.796 492.726Z" fill="#EBEBEB"/>
<path d="M97.3514 483.523C97.3514 480.65 97.1718 477.822 97.1419 474.994L97.5758 475.413C90.7675 475.502 83.9742 475.667 77.1809 475.667L56.7859 475.772L57.549 474.994L57.4593 492.231L56.7859 491.543C60.1377 491.543 63.4895 491.543 66.8562 491.633L77.0013 491.797L97.5758 492.231L97.3514 483.523ZM77.3455 492.665L67.0956 492.83C63.669 492.905 60.2125 492.83 56.7859 492.92H56.0976V492.231L56.0078 474.994V474.23H56.7859L77.1809 474.32C83.9742 474.32 90.7675 474.5 97.5758 474.575H97.9948V474.994C97.9948 477.986 97.8601 480.829 97.7853 483.702L97.5758 492.231L77.3455 492.665Z" fill="#EBEBEB"/>
<path d="M577.359 483.523C577.284 480.65 577.18 477.822 577.15 474.994L577.569 475.413C570.775 475.503 563.982 475.668 557.174 475.668L536.779 475.772L537.557 474.994L537.467 492.232L536.779 491.544C540.146 491.544 543.497 491.544 546.864 491.633L557.009 491.798L577.569 492.232L577.359 483.523ZM557.353 492.666L547.103 492.831C543.662 492.905 540.22 492.831 536.779 492.92H536.061V492.232V475.054V474.291H536.824L557.219 474.381C564.027 474.381 570.82 474.56 577.614 474.635H577.958V475.054C577.958 478.047 577.823 480.89 577.748 483.763L577.524 492.292L557.353 492.666Z" fill="#EBEBEB"/>
<path d="M577.359 58.6411C577.284 55.7682 577.18 52.9252 577.15 50.1121L577.569 50.531C570.775 50.531 563.982 50.7705 557.174 50.7854L536.779 50.8752L537.557 50.1121L537.467 67.3498L536.779 66.6615C540.146 66.6615 543.497 66.6615 546.864 66.7512L557.009 66.9158L577.569 67.3498L577.359 58.6411ZM557.353 67.7687L547.103 67.9483C543.662 67.9483 540.22 67.9483 536.779 68.0381H536.061V67.3498V50.1121V49.334H536.824L557.219 49.4387C564.027 49.4387 570.82 49.6183 577.614 49.6931H577.958V50.1121C577.958 53.0299 577.823 55.9477 577.748 58.8207L577.524 67.3498L557.353 67.7687Z" fill="#EBEBEB"/>
<path d="M600.117 80.3683C600.042 77.5103 599.937 74.6673 599.908 71.8392L600.326 72.2732C593.533 72.2732 586.725 72.5126 579.932 72.5126L559.537 72.6173L560.3 71.8392L560.225 89.0769L559.537 88.3886C562.903 88.3886 566.255 88.3886 569.622 88.4784L579.752 88.658L600.326 89.0769L600.117 80.3683ZM580.111 89.5109L569.846 89.6904C566.42 89.6904 562.978 89.6904 559.537 89.6904H558.848V88.9872L558.773 71.7494V70.9863H559.552L579.946 71.0761C586.74 71.0761 593.548 71.2557 600.341 71.3305H600.775V71.7345C600.775 74.7271 600.641 77.5702 600.581 80.4431L600.356 88.9722L580.111 89.5109Z" fill="#EBEBEB"/>
<path d="M51.8468 58.6568C51.772 55.7838 51.6673 52.9558 51.6373 50.1277L52.0563 50.5467C45.263 50.5467 38.4697 50.801 31.6614 50.801L11.2664 50.9058L12.0445 50.1277L11.9547 67.3654L11.2664 66.6771C14.6331 66.6771 17.9849 66.6771 21.3517 66.7669L31.4818 66.9315L52.0563 67.3654L51.8468 58.6568ZM31.796 67.7993L21.5312 67.9639C18.1046 67.9639 14.6631 67.9639 11.2215 68.0537H10.5332V67.3654V50.1277V49.3496H11.3113L31.7062 49.4394C38.5145 49.4394 45.3079 49.6189 52.1012 49.6938H52.5351V50.1127C52.5351 53.1054 52.4005 55.9484 52.3406 58.8214L52.1162 67.3504L31.796 67.7993Z" fill="#EBEBEB"/>
<path d="M259.237 238.649C259.312 241.522 259.417 244.365 259.447 247.178L259.028 246.759C265.821 246.684 272.614 246.52 279.423 246.505L299.818 246.415L299.039 247.178L299.129 229.94L299.818 230.629C296.451 230.629 293.099 230.629 289.732 230.554L279.587 230.374L259.028 229.94L259.237 238.649ZM279.243 229.521L289.493 229.342C292.934 229.342 296.376 229.342 299.818 229.252H300.491V229.94L300.581 247.178V247.956H299.818L279.423 247.851C272.614 247.851 265.821 247.687 259.028 247.597H258.594V247.178C258.594 244.185 258.728 241.342 258.803 238.469L259.028 229.94L279.243 229.521Z" fill="#EBEBEB"/>
<path d="M281.921 216.923C281.921 219.796 282.085 222.624 282.115 225.452L281.696 225.033C288.505 224.944 295.298 224.779 302.091 224.779L322.486 224.674L321.723 225.452L321.798 208.215L322.486 208.903C319.134 208.903 315.783 208.903 312.401 208.813L302.271 208.634L281.681 208.2L281.921 216.923ZM301.912 207.781L312.177 207.616C315.603 207.541 319.06 207.616 322.486 207.526H323.175V208.2L323.264 225.437V226.156H322.486H302.091C295.298 226.156 288.505 225.976 281.696 225.901H281.277V225.497C281.277 222.505 281.412 219.662 281.487 216.789L281.681 208.2L301.912 207.781Z" fill="#EBEBEB"/>
<path d="M61.7216 165.493C59.1754 167.041 56.3965 168.167 53.4918 168.83C46.5229 170.45 39.1995 169.383 32.9827 165.841C26.766 162.3 22.1132 156.545 19.9525 149.724C17.7918 142.904 18.2821 135.519 21.3257 129.044C24.3693 122.569 29.7424 117.48 36.3728 114.791C43.0031 112.103 50.4034 112.013 57.0969 114.54C63.7904 117.067 69.2851 122.025 72.4845 128.425C75.6839 134.824 76.3529 142.195 74.3579 149.066C72.3629 155.936 67.8507 161.803 61.7216 165.493V165.493Z" fill="#EBEBEB"/>
<path d="M55.8125 138.007C55.7917 139.717 55.2642 141.383 54.2966 142.794C53.3291 144.204 51.965 145.296 50.3768 145.932C48.7887 146.567 47.0478 146.717 45.3744 146.363C43.7009 146.009 42.17 145.167 40.9752 143.943C39.7804 142.719 38.9754 141.168 38.662 139.486C38.3486 137.805 38.5409 136.068 39.2145 134.496C39.8881 132.923 41.0128 131.586 42.4464 130.653C43.88 129.72 45.5581 129.233 47.2685 129.254C48.4049 129.265 49.5278 129.501 50.5728 129.948C51.6177 130.394 52.5643 131.043 53.3581 131.856C54.1519 132.67 54.7773 133.631 55.1985 134.687C55.6197 135.742 55.8284 136.871 55.8125 138.007V138.007Z" fill="white"/>
<path d="M61.8289 161.933V165.494C59.2828 167.041 56.5039 168.168 53.5991 168.831C49.926 169.69 46.1182 169.806 42.3997 169.171C38.6813 168.536 35.1274 167.164 31.9473 165.135V161.574C31.9949 157.605 33.617 153.818 36.4569 151.046C39.2967 148.273 43.1216 146.743 47.0901 146.79C51.0586 146.838 54.8457 148.46 57.6182 151.3C60.3906 154.14 61.9214 157.964 61.8738 161.933H61.8289Z" fill="white"/>
<path d="M577.761 363.533L586.829 348.899L582.34 346.131C581.698 345.729 581.18 345.156 580.844 344.477C580.509 343.798 580.369 343.039 580.44 342.285C580.514 341.429 580.544 340.57 580.529 339.711C580.501 338.954 580.686 338.204 581.061 337.546C581.436 336.888 581.988 336.347 582.654 335.985L587.308 333.502L579.168 318.329L574.514 320.813C573.849 321.169 573.097 321.333 572.343 321.285C571.59 321.238 570.865 320.981 570.25 320.543C569.54 320.053 568.806 319.598 568.05 319.182C567.384 318.821 566.831 318.284 566.451 317.629C566.07 316.975 565.878 316.228 565.895 315.471L566.06 310.204L548.867 309.665L548.702 314.962C548.668 315.718 548.426 316.45 548.004 317.078C547.582 317.706 546.995 318.206 546.308 318.523C545.919 318.703 545.545 318.882 545.171 319.092C544.797 319.301 544.423 319.496 544.064 319.72C543.422 320.113 542.684 320.321 541.931 320.321C541.179 320.321 540.441 320.113 539.799 319.72L535.31 316.922L526.243 331.556L530.731 334.339C531.372 334.742 531.888 335.315 532.221 335.994C532.554 336.674 532.691 337.432 532.617 338.185C532.539 339.041 532.514 339.9 532.542 340.759C532.562 341.514 532.373 342.261 531.995 342.916C531.618 343.571 531.066 344.108 530.402 344.47L525.764 346.954L533.889 362.126L538.542 359.642C539.208 359.286 539.96 359.122 540.713 359.17C541.466 359.217 542.192 359.474 542.807 359.912C543.508 360.403 544.238 360.852 544.991 361.258C545.66 361.617 546.217 362.153 546.599 362.808C546.982 363.463 547.177 364.211 547.161 364.969L546.997 370.251L564.204 370.79L564.369 365.508C564.396 364.754 564.634 364.023 565.054 363.396C565.474 362.77 566.061 362.273 566.748 361.962L567.9 361.378C568.274 361.184 568.633 360.974 568.993 360.75C569.64 360.358 570.383 360.15 571.14 360.15C571.897 360.15 572.64 360.358 573.287 360.75L577.761 363.533ZM563.187 352.669C560.728 353.981 557.936 354.534 555.163 354.259C552.389 353.985 549.76 352.894 547.607 351.125C545.453 349.356 543.872 346.989 543.064 344.322C542.255 341.655 542.255 338.809 543.064 336.142C543.873 333.475 545.454 331.108 547.608 329.339C549.762 327.571 552.391 326.48 555.164 326.206C557.937 325.931 560.73 326.485 563.188 327.797C565.647 329.109 567.662 331.12 568.978 333.576C569.855 335.209 570.401 337 570.584 338.844C570.768 340.689 570.586 342.552 570.048 344.326C569.51 346.1 568.627 347.75 567.449 349.182C566.272 350.614 564.823 351.799 563.187 352.669V352.669Z" fill="#EBEBEB"/>
<path d="M228.742 42.7202L239.216 36.7349L237.361 33.5327C237.105 33.0715 236.979 32.5491 236.998 32.0218C237.016 31.4946 237.178 30.9823 237.466 30.5401C237.794 30.0567 238.099 29.5573 238.378 29.0437C238.614 28.5697 238.976 28.1704 239.426 27.8904C239.875 27.6103 240.393 27.4605 240.922 27.4576H244.618V15.2775H240.922C240.376 15.2902 239.838 15.1461 239.371 14.8624C238.904 14.5786 238.529 14.1671 238.289 13.6764C238.009 13.1629 237.705 12.6635 237.376 12.1801C237.088 11.7379 236.926 11.2256 236.908 10.6983C236.889 10.171 237.015 9.64871 237.271 9.18745L239.127 5.98531L228.652 0L226.797 3.2171C226.525 3.67392 226.133 4.04695 225.663 4.29512C225.193 4.54328 224.664 4.65697 224.133 4.62365H223.251H222.368C221.84 4.65585 221.313 4.54155 220.845 4.29336C220.378 4.04517 219.988 3.67272 219.719 3.2171L217.849 0L207.374 5.98531L209.35 9.18745C209.609 9.64769 209.736 10.1705 209.718 10.6985C209.7 11.2265 209.536 11.7391 209.245 12.1801C208.919 12.6623 208.619 13.1618 208.347 13.6764C208.108 14.1505 207.742 14.5494 207.291 14.8293C206.839 15.1091 206.319 15.259 205.788 15.2625H202.107V27.3229H205.788C206.324 27.3251 206.848 27.476 207.302 27.7587C207.757 28.0414 208.124 28.4449 208.362 28.924C208.634 29.4386 208.934 29.9382 209.26 30.4203C209.551 30.8613 209.714 31.374 209.733 31.902C209.751 32.4299 209.624 32.9528 209.365 33.413L207.509 36.6152L217.983 42.6005L219.839 39.3834C220.109 38.9293 220.499 38.559 220.967 38.3133C221.434 38.0677 221.96 37.9564 222.487 37.9918H224.268C224.799 37.955 225.33 38.0672 225.8 38.3157C226.271 38.5642 226.663 38.9391 226.931 39.3983L228.742 42.7202ZM223.325 31.1835C221.373 31.1805 219.465 30.5988 217.843 29.5118C216.221 28.4249 214.957 26.8815 214.212 25.0766C213.467 23.2718 213.273 21.2866 213.656 19.3719C214.039 17.4572 214.981 15.6989 216.362 14.3192C217.744 12.9396 219.504 12.0005 221.419 11.6206C223.334 11.2408 225.319 11.4372 227.123 12.1851C228.927 12.933 230.468 14.1989 231.553 15.8226C232.637 17.4463 233.216 19.3551 233.216 21.3077C233.216 22.6059 232.96 23.8913 232.463 25.0905C231.966 26.2896 231.237 27.379 230.318 28.2962C229.4 29.2135 228.309 29.9406 227.109 30.436C225.909 30.9315 224.624 31.1854 223.325 31.1835Z" fill="#EBEBEB"/>
<path d="M524.626 374.112L518.64 363.638L515.438 365.494C514.978 365.753 514.455 365.88 513.927 365.862C513.399 365.843 512.887 365.68 512.446 365.389C511.965 365.06 511.466 364.76 510.949 364.491C510.475 364.252 510.076 363.886 509.796 363.435C509.517 362.983 509.367 362.463 509.363 361.932V358.281H497.153V361.962C497.15 362.493 497 363.013 496.72 363.465C496.44 363.916 496.041 364.282 495.567 364.521C495.053 364.793 494.553 365.093 494.071 365.419C493.631 365.713 493.118 365.879 492.589 365.897C492.061 365.916 491.537 365.786 491.078 365.524L487.876 363.668L481.891 374.142L485.108 375.998C485.565 376.269 485.938 376.662 486.186 377.132C486.434 377.602 486.548 378.131 486.514 378.661C486.514 378.946 486.514 379.245 486.514 379.544C486.514 379.843 486.514 380.143 486.514 380.427C486.548 380.955 486.435 381.483 486.186 381.95C485.938 382.418 485.565 382.808 485.108 383.075L481.891 384.946L487.876 395.42L491.078 393.565C491.539 393.309 492.062 393.183 492.589 393.201C493.116 393.22 493.629 393.382 494.071 393.669C494.58 393.999 495.088 394.298 495.567 394.582C496.041 394.818 496.44 395.18 496.72 395.629C497 396.079 497.15 396.597 497.153 397.126V400.822H509.214V397.126C509.215 396.596 509.364 396.077 509.644 395.628C509.924 395.179 510.325 394.816 510.8 394.582C511.338 394.298 511.847 393.999 512.296 393.669C512.738 393.382 513.251 393.22 513.778 393.201C514.305 393.183 514.827 393.309 515.289 393.565L518.491 395.42L524.476 384.946L521.259 383.09C520.805 382.821 520.435 382.43 520.189 381.963C519.943 381.495 519.832 380.969 519.867 380.442C519.867 380.143 519.867 379.843 519.867 379.544C519.867 379.245 519.867 378.946 519.867 378.661C519.831 378.13 519.943 377.6 520.191 377.129C520.44 376.659 520.815 376.267 521.274 375.998L524.626 374.112ZM513.089 379.514C513.089 381.467 512.51 383.377 511.425 385.001C510.34 386.625 508.797 387.891 506.993 388.638C505.188 389.386 503.202 389.581 501.287 389.2C499.371 388.819 497.611 387.879 496.23 386.497C494.849 385.116 493.908 383.357 493.527 381.441C493.146 379.525 493.342 377.539 494.089 375.735C494.837 373.93 496.103 372.388 497.727 371.303C499.351 370.218 501.26 369.638 503.213 369.638C504.511 369.636 505.796 369.891 506.995 370.386C508.194 370.882 509.284 371.609 510.201 372.527C511.118 373.444 511.846 374.533 512.341 375.733C512.837 376.932 513.091 378.217 513.089 379.514V379.514Z" fill="#EBEBEB"/>
<path d="M393.412 182.357L398.934 193.55L411.279 195.346L402.33 204.054L404.455 216.339L393.412 210.533L382.355 216.339L384.464 204.054L375.531 195.346L387.891 193.55L393.412 182.357Z" fill="#EBEBEB"/>
<path d="M534.559 115.323C532.636 120.209 531.504 125.372 531.207 130.615H517.74V130.241C517.74 129.897 517.815 129.553 517.845 129.194C518.009 127.398 518.309 125.617 518.743 123.867C519.433 120.983 520.436 118.183 521.735 115.517C521.761 115.453 521.807 115.399 521.867 115.364C521.927 115.329 521.996 115.314 522.065 115.323H534.559Z" fill="#EBEBEB"/>
<path d="M534.126 149.469H521.677C521.613 149.473 521.549 149.456 521.495 149.421C521.441 149.386 521.4 149.335 521.378 149.274C519.945 146.284 518.909 143.12 518.295 139.862C517.993 138.29 517.788 136.701 517.682 135.104C517.682 135.104 517.682 134.999 517.682 134.94V134.565H530.984C531.223 134.565 531.208 134.565 531.223 134.805C531.313 135.897 531.388 136.989 531.493 138.067C531.66 139.788 531.935 141.497 532.316 143.184C532.767 145.252 533.357 147.286 534.081 149.274C534.081 149.274 534.096 149.394 534.126 149.469Z" fill="#EBEBEB"/>
<path d="M586.436 153.419C586.404 153.483 586.363 153.543 586.317 153.598C585.265 155.213 584.089 156.744 582.8 158.177C581.242 159.931 579.512 161.524 577.638 162.935C575.792 164.33 573.818 165.548 571.742 166.571C569.753 167.572 567.674 168.383 565.533 168.995C563.834 169.483 562.104 169.853 560.355 170.103L559.847 170.193H559.532L559.248 169.998L559.577 169.774C563.37 167.187 566.69 163.968 569.393 160.257C570.914 158.154 572.256 155.926 573.403 153.598C573.424 153.538 573.465 153.486 573.52 153.453C573.575 153.421 573.64 153.408 573.703 153.419H586.436V153.419Z" fill="#EBEBEB"/>
<path d="M573.987 130.599H556.51V115.337H570.156C570.215 115.328 570.276 115.341 570.326 115.374C570.376 115.407 570.411 115.458 570.426 115.516C571.68 118.398 572.614 121.409 573.209 124.494C573.523 126.097 573.748 127.715 573.882 129.342C573.912 129.732 573.957 130.15 573.987 130.599Z" fill="#EBEBEB"/>
<path d="M573.885 134.685C573.885 135.044 573.885 135.403 573.885 135.762C573.796 136.6 573.736 137.453 573.616 138.306C573.451 139.473 573.287 140.64 573.047 141.807C572.522 144.364 571.765 146.868 570.788 149.289C570.767 149.358 570.723 149.419 570.663 149.46C570.603 149.501 570.531 149.52 570.459 149.513H556.408V134.729L573.885 134.685Z" fill="#EBEBEB"/>
<path d="M552.517 115.427V130.719H535.459C535.459 130.33 535.459 129.956 535.534 129.567C535.624 128.714 535.683 127.861 535.818 127.008C536.028 125.721 536.252 124.42 536.536 123.133C537.11 120.565 537.932 118.06 538.99 115.651C539.015 115.594 539.057 115.546 539.111 115.513C539.165 115.481 539.227 115.467 539.29 115.472H552.517V115.427Z" fill="#EBEBEB"/>
<path d="M552.591 134.879V149.468H538.959C538.893 149.474 538.826 149.456 538.771 149.418C538.717 149.379 538.677 149.323 538.66 149.258C537.619 146.778 536.842 144.195 536.341 141.552C536.086 140.206 535.892 138.829 535.712 137.452C535.592 136.57 535.577 135.657 535.518 134.759V134.654H552.381C552.516 134.654 552.591 134.714 552.591 134.879Z" fill="#EBEBEB"/>
<path d="M592.514 130.719H578.194C577.915 125.441 576.788 120.242 574.857 115.322H588.205C588.271 115.315 588.338 115.33 588.395 115.365C588.452 115.4 588.496 115.454 588.519 115.517C590.043 118.542 591.156 121.758 591.826 125.078C592.166 126.853 592.396 128.647 592.514 130.45V130.719Z" fill="#EBEBEB"/>
<path d="M592.529 134.565V135.568C592.425 136.855 592.275 138.142 592.051 139.428C591.525 142.388 590.64 145.272 589.417 148.017C589.222 148.466 589.013 148.9 588.818 149.349C588.803 149.391 588.774 149.427 588.736 149.451C588.698 149.475 588.654 149.487 588.609 149.484H575.262C575.426 149.02 575.576 148.571 575.741 148.137C576.499 145.859 577.089 143.529 577.506 141.164C577.807 139.446 578.012 137.713 578.12 135.972C578.12 135.553 578.12 135.149 578.195 134.73C578.195 134.625 578.195 134.565 578.344 134.58H592.529V134.565Z" fill="#EBEBEB"/>
<path d="M586.033 111.431H573.314C573.249 111.44 573.184 111.427 573.127 111.395C573.07 111.362 573.026 111.312 573 111.252C571.341 107.926 569.254 104.832 566.79 102.049C565.343 100.434 563.745 98.9613 562.017 97.6503C561.164 96.9919 560.281 96.3784 559.413 95.75L559.264 95.6302L559.428 95.5106C559.428 95.5106 559.428 95.3609 559.353 95.2412C563.755 95.7628 568.028 97.0704 571.967 99.1017C577.649 101.918 582.497 106.168 586.033 111.431V111.431Z" fill="#EBEBEB"/>
<path d="M550.153 170.013C550.034 170.03 549.913 170.03 549.794 170.013C548.418 169.831 547.053 169.566 545.709 169.22C543.198 168.577 540.761 167.675 538.437 166.526C535.781 165.209 533.294 163.577 531.03 161.663C529.403 160.303 527.901 158.801 526.541 157.174C525.527 155.952 524.597 154.662 523.758 153.314V153.194H535.624C535.688 153.19 535.752 153.207 535.806 153.242C535.859 153.277 535.901 153.328 535.923 153.388C537.132 155.844 538.565 158.183 540.202 160.376C541.722 162.362 543.404 164.219 545.23 165.928C546.735 167.351 548.351 168.652 550.063 169.818L550.153 170.013Z" fill="#EBEBEB"/>
<path d="M550 95.6749C549.462 96.064 548.833 96.5129 548.235 96.9767C546.195 98.5534 544.302 100.311 542.579 102.229C540.224 104.774 538.212 107.616 536.593 110.683C536.489 110.878 536.399 111.087 536.294 111.267C536.249 111.325 536.186 111.367 536.114 111.386C535.89 111.386 535.681 111.386 535.471 111.386H524.084C527.015 107.067 530.82 103.411 535.254 100.655C539.687 97.8995 544.65 96.106 549.821 95.3906L549.746 95.5253L550 95.6749Z" fill="#EBEBEB"/>
<path d="M568.783 153.433C567.172 156.25 565.233 158.867 563.007 161.228C561.038 163.35 558.823 165.228 556.408 166.825V153.433H568.783Z" fill="#EBEBEB"/>
<path d="M552.516 153.433V166.57C547.582 163.187 543.516 158.685 540.65 153.433H552.516Z" fill="#EBEBEB"/>
<path d="M568.391 111.372H556.51V98.8623C558.948 100.439 561.184 102.308 563.168 104.429C565.142 106.558 566.892 108.884 568.391 111.372V111.372Z" fill="#EBEBEB"/>
<path d="M552.516 99.251V111.476H541.129C543.915 106.566 547.816 102.378 552.516 99.251V99.251Z" fill="#EBEBEB"/>
<path d="M214.768 434.055C213.86 440.193 211.207 445.941 207.127 450.616C203.046 455.29 197.709 458.695 191.749 460.424C185.79 462.153 179.46 462.134 173.511 460.37C167.562 458.606 162.245 455.17 158.192 450.471C154.139 445.773 151.52 440.009 150.648 433.866C149.776 427.722 150.686 421.458 153.271 415.817C155.856 410.176 160.006 405.395 165.229 402.045C170.452 398.694 176.527 396.914 182.732 396.916V429.312L214.768 434.055Z" fill="#DBDBDB"/>
<path d="M221.71 422.712C221.712 424.3 221.592 425.886 221.351 427.455L189.314 422.712V390.316C193.57 390.312 197.784 391.148 201.716 392.774C205.649 394.401 209.221 396.787 212.23 399.796C215.239 402.805 217.625 406.378 219.252 410.31C220.879 414.242 221.714 418.457 221.71 422.712V422.712Z" fill="#EBEBEB"/>
<path d="M233.606 446.489H199.16V447.986H233.606V446.489Z" fill="#C7C7C7"/>
<path d="M236.015 450.409C235.387 450.412 234.772 450.228 234.249 449.881C233.725 449.535 233.316 449.04 233.074 448.461C232.832 447.882 232.767 447.243 232.887 446.627C233.008 446.011 233.309 445.444 233.752 444.999C234.195 444.554 234.76 444.25 235.376 444.127C235.992 444.003 236.63 444.065 237.211 444.304C237.791 444.544 238.288 444.951 238.637 445.473C238.986 445.995 239.173 446.609 239.173 447.237C239.175 447.652 239.094 448.065 238.937 448.449C238.779 448.834 238.546 449.184 238.253 449.479C237.96 449.774 237.611 450.007 237.227 450.167C236.843 450.327 236.431 450.409 236.015 450.409V450.409ZM236.015 445.576C235.683 445.573 235.357 445.669 235.079 445.852C234.801 446.035 234.584 446.296 234.455 446.603C234.326 446.91 234.292 447.248 234.356 447.575C234.42 447.901 234.58 448.201 234.815 448.437C235.051 448.672 235.351 448.832 235.677 448.896C236.004 448.96 236.342 448.926 236.649 448.797C236.955 448.668 237.217 448.451 237.4 448.173C237.583 447.895 237.679 447.569 237.676 447.237C237.676 447.019 237.633 446.803 237.55 446.601C237.466 446.4 237.344 446.216 237.19 446.062C237.036 445.908 236.852 445.786 236.651 445.702C236.449 445.619 236.233 445.576 236.015 445.576V445.576Z" fill="#C7C7C7"/>
<path d="M271.522 445.427H244.768V446.639H271.522V445.427Z" fill="#C7C7C7"/>
<path d="M259.91 447.851H244.768V449.063H259.91V447.851Z" fill="#C7C7C7"/>
<path d="M55.0492 317.133H48.2109V365.823H55.0492V317.133Z" fill="#EBEBEB"/>
<path d="M66.8089 328.907H59.9707V365.822H66.8089V328.907Z" fill="#EBEBEB"/>
<path d="M78.5726 347.357H71.7344V365.807H78.5726V347.357Z" fill="#EBEBEB"/>
<path d="M90.3324 336.823H83.4941V365.822H90.3324V336.823Z" fill="#EBEBEB"/>
<path d="M102.092 325.751H95.2539V365.808H102.092V325.751Z" fill="#EBEBEB"/>
<path d="M113.856 319.241H107.018V365.807H113.856V319.241Z" fill="#EBEBEB"/>
<path d="M44.246 310.937L44.3208 324.658V338.379V365.822L44.1562 365.642C50.4408 365.642 56.7254 365.642 63.0249 365.642H81.8936H100.747L119.616 365.747L100.747 365.852H81.8936H63.0249C56.7204 365.852 50.4308 365.852 44.1562 365.852H44.0664V365.687V338.245V324.523L44.246 310.937Z" fill="#EBEBEB"/>
<path d="M42.7344 313.691C43.2197 313.547 43.7248 313.481 44.2307 313.496C44.7366 313.482 45.2415 313.548 45.727 313.691C45.2386 313.819 44.7358 313.885 44.2307 313.885C43.7256 313.886 43.2226 313.82 42.7344 313.691V313.691Z" fill="#EBEBEB"/>
<path d="M42.7344 317.85C43.2226 317.72 43.7256 317.655 44.2307 317.655C44.7358 317.656 45.2386 317.721 45.727 317.85C45.2415 317.993 44.7366 318.058 44.2307 318.044C43.7248 318.059 43.2197 317.994 42.7344 317.85Z" fill="#EBEBEB"/>
<path d="M42.7344 322.025C43.2226 321.895 43.7256 321.83 44.2307 321.83C44.7358 321.831 45.2386 321.896 45.727 322.025C45.2401 322.16 44.7362 322.226 44.2307 322.219C43.7252 322.227 43.2211 322.161 42.7344 322.025V322.025Z" fill="#EBEBEB"/>
<path d="M42.7344 326.199C43.2211 326.062 43.7252 325.997 44.2307 326.005C44.7362 325.998 45.2401 326.063 45.727 326.199C45.2386 326.328 44.7358 326.393 44.2307 326.394C43.7256 326.394 43.2226 326.329 42.7344 326.199V326.199Z" fill="#EBEBEB"/>
<path d="M42.7344 330.373C43.2197 330.23 43.7248 330.164 44.2307 330.179C44.7366 330.165 45.2415 330.231 45.727 330.373C45.2386 330.502 44.7358 330.567 44.2307 330.568C43.7256 330.568 43.2226 330.503 42.7344 330.373V330.373Z" fill="#EBEBEB"/>
<path d="M42.7344 334.535C43.2218 334.403 43.7259 334.342 44.2307 334.355C44.7355 334.343 45.2394 334.404 45.727 334.535C45.2415 334.678 44.7366 334.743 44.2307 334.729C43.7248 334.744 43.2197 334.679 42.7344 334.535Z" fill="#EBEBEB"/>
<path d="M42.7344 338.709C43.2226 338.58 43.7256 338.514 44.2307 338.515C44.7358 338.515 45.2386 338.581 45.727 338.709C45.2401 338.845 44.7362 338.91 44.2307 338.904C43.7252 338.911 43.2211 338.846 42.7344 338.709V338.709Z" fill="#EBEBEB"/>
<path d="M42.7344 342.869C43.2211 342.732 43.7252 342.667 44.2307 342.674C44.7362 342.668 45.2401 342.733 45.727 342.869C45.2401 343.005 44.7362 343.07 44.2307 343.063C43.7252 343.071 43.2211 343.006 42.7344 342.869Z" fill="#EBEBEB"/>
<path d="M42.7344 347.058C43.2211 346.922 43.7252 346.856 44.2307 346.864C44.7362 346.857 45.2401 346.923 45.727 347.058C45.2386 347.187 44.7358 347.252 44.2307 347.253C43.7256 347.253 43.2226 347.188 42.7344 347.058Z" fill="#EBEBEB"/>
<path d="M42.7344 351.233C43.2197 351.089 43.7248 351.023 44.2307 351.038C44.7366 351.024 45.2415 351.09 45.727 351.233C45.2386 351.361 44.7358 351.427 44.2307 351.427C43.7256 351.428 43.2226 351.362 42.7344 351.233Z" fill="#EBEBEB"/>
<path d="M42.7344 355.393C43.2226 355.263 43.7256 355.198 44.2307 355.198C44.7358 355.199 45.2386 355.264 45.727 355.393C45.2415 355.536 44.7366 355.601 44.2307 355.587C43.7248 355.602 43.2197 355.537 42.7344 355.393V355.393Z" fill="#EBEBEB"/>
<path d="M42.7344 359.568C43.2226 359.438 43.7256 359.373 44.2307 359.373C44.7358 359.374 45.2386 359.439 45.727 359.568C45.2401 359.703 44.7362 359.769 44.2307 359.762C43.7252 359.77 43.2211 359.704 42.7344 359.568V359.568Z" fill="#EBEBEB"/>
<path d="M305.624 654.793C411.519 654.793 497.364 634.213 497.364 608.826C497.364 583.439 411.519 562.858 305.624 562.858C199.729 562.858 113.885 583.439 113.885 608.826C113.885 634.213 199.729 654.793 305.624 654.793Z" fill="#EBEBEB"/>
<path d="M257.129 585.274L431.421 561.961L504.652 613.854L332.723 648.194L257.129 585.274Z" fill="#FFC727"/>
<path d="M267.693 585.828L336.884 643.631L497.993 611.564L427.142 561.767C427.142 561.767 380.098 562.066 377.853 562.47C375.609 562.874 354.136 568.814 354.136 568.814C354.136 568.814 324.883 570.221 322.848 570.625C320.813 571.029 267.693 585.828 267.693 585.828Z" fill="white"/>
<path d="M354.137 568.754L362.576 575.861L370.955 583.044L387.61 597.513L404.129 612.147L412.329 619.524L420.469 626.961L412.03 619.868L403.65 612.686L386.996 598.217L370.492 583.583L362.292 576.206L354.137 568.754Z" fill="#DBDBDB"/>
<path d="M364.102 605.803C366.137 605.414 368.172 605.115 370.222 604.846C372.272 604.576 374.336 604.337 376.401 604.127C378.466 603.918 380.531 603.738 382.596 603.619C384.661 603.499 386.741 603.379 388.821 603.364C386.771 603.768 384.721 604.053 382.671 604.337C380.621 604.621 378.571 604.831 376.521 605.04C374.471 605.25 372.391 605.429 370.326 605.549C368.261 605.669 366.196 605.788 364.102 605.803Z" fill="#DBDBDB"/>
<path d="M327.068 621.62C332.47 619.84 337.902 618.149 343.333 616.473C348.765 614.797 354.227 613.211 359.688 611.61C362.412 610.802 365.15 610.113 367.918 609.335C368.626 609.159 369.346 609.039 370.073 608.976L372.213 608.752L376.447 608.363C382.118 607.884 387.789 607.45 393.475 607.136C387.834 607.869 382.178 608.482 376.522 609.126L372.287 609.575C370.894 609.691 369.51 609.896 368.143 610.188C365.404 610.907 362.681 611.685 359.943 612.478L343.483 617.131C338.051 618.658 332.56 620.184 327.068 621.62Z" fill="#DBDBDB"/>
<path d="M331.902 625.751C337.139 623.955 342.377 622.264 347.674 620.603C352.971 618.942 358.238 617.326 363.535 615.725C366.183 614.917 368.832 614.154 371.51 613.421C372.183 613.241 372.842 613.062 373.56 612.912C374.278 612.762 374.952 612.733 375.64 612.643L379.77 612.239C385.291 611.775 390.798 611.356 396.319 611.057C390.843 611.79 385.351 612.388 379.86 613.032L375.745 613.481C375.056 613.57 374.368 613.63 373.71 613.765C373.051 613.9 372.408 614.094 371.75 614.274L363.789 616.593C358.477 618.089 353.195 619.735 347.868 621.247C342.541 622.758 337.244 624.299 331.902 625.751Z" fill="#DBDBDB"/>
<path d="M336.779 629.251C342.086 627.675 347.413 626.178 352.76 624.762C358.102 623.265 363.474 621.904 368.831 620.497C371.524 619.809 374.158 619.106 376.941 618.552L385.156 617.325C390.647 616.562 396.139 615.829 401.615 615.155C396.169 616.218 390.707 617.16 385.245 618.148L377.045 619.48C374.412 620.018 371.704 620.781 369.025 621.425C363.638 622.742 358.282 624.163 352.91 625.45C347.538 626.737 342.181 628.024 336.779 629.251Z" fill="#DBDBDB"/>
<path d="M415.682 613.704C420.669 612.018 425.682 610.492 430.72 609.125C431.992 608.781 433.249 608.437 434.535 608.138C435.179 607.988 435.807 607.839 436.496 607.734L438.441 607.465L446.222 606.402C451.414 605.684 456.606 605.041 461.798 604.367C466.991 603.694 472.198 603.065 477.39 602.467C472.228 603.305 467.051 604.128 461.873 604.906C456.696 605.684 451.519 606.492 446.341 607.21L438.561 608.332L436.615 608.602C436.017 608.721 435.373 608.871 434.745 609.036L430.944 609.963C425.872 611.265 420.844 612.552 415.682 613.704Z" fill="#DBDBDB"/>
<path d="M411.102 609.081C415.98 607.704 420.898 606.472 425.855 605.385C428.339 604.831 430.793 604.247 433.337 603.888L440.819 602.811C445.831 602.078 450.859 601.419 455.887 600.731C460.914 600.043 465.927 599.414 470.97 598.801C465.972 599.654 460.974 600.492 456.006 601.285C451.039 602.078 445.996 602.886 441.043 603.619L433.561 604.756C432.32 604.921 431.107 605.205 429.866 605.459L426.14 606.208C421.122 607.265 416.109 608.223 411.102 609.081Z" fill="#DBDBDB"/>
<path d="M406.627 604.92C411.49 603.589 416.368 602.362 421.291 601.299C423.76 600.76 426.199 600.177 428.773 599.803L436.254 598.935C441.252 598.351 446.265 597.828 451.218 597.304C456.17 596.78 461.243 596.286 466.256 595.808C461.273 596.526 456.275 597.214 451.292 597.843C446.31 598.471 441.312 599.144 436.329 599.743C433.845 600.042 431.316 600.327 428.847 600.656L421.471 602.152C416.553 603.16 411.605 604.082 406.627 604.92Z" fill="#DBDBDB"/>
<path d="M402.768 601.733C407.496 599.893 412.314 598.366 417.207 596.99C417.821 596.81 418.434 596.66 419.063 596.526C419.699 596.387 420.344 596.292 420.993 596.242L424.779 595.897L432.335 595.254C442.42 594.431 452.52 593.668 462.621 593.024C452.55 594.117 442.48 595.089 432.41 596.017L424.853 596.72L421.083 597.094C419.851 597.234 418.634 597.485 417.447 597.843C412.554 599.189 407.705 600.641 402.768 601.733Z" fill="#DBDBDB"/>
<path d="M398.561 598.008C403.289 596.168 408.122 594.642 413 593.265C413.614 593.086 414.227 592.936 414.856 592.801C415.492 592.665 416.137 592.57 416.786 592.517L420.572 592.173L428.128 591.529C438.228 590.706 448.313 589.943 458.414 589.3C448.358 590.392 438.273 591.365 428.203 592.292L420.646 592.996L416.876 593.37C415.644 593.51 414.427 593.76 413.24 594.118C408.362 595.42 403.498 596.856 398.561 598.008Z" fill="#DBDBDB"/>
<path d="M394.359 594.252C399.103 592.427 403.921 590.9 408.799 589.524C409.412 589.344 410.026 589.195 410.669 589.06C411.306 588.921 411.95 588.826 412.6 588.776L416.37 588.432L423.942 587.788C434.027 586.965 444.112 586.202 454.212 585.559C444.157 586.651 434.087 587.624 424.002 588.551L416.52 589.255L412.734 589.629C411.501 589.763 410.284 590.013 409.098 590.377C404.16 591.649 399.312 593.085 394.359 594.252Z" fill="#DBDBDB"/>
<path d="M390.168 590.451C394.896 588.626 399.715 587.085 404.608 585.708C405.221 585.544 405.835 585.394 406.463 585.259C407.098 585.113 407.743 585.018 408.393 584.975L412.179 584.631L419.735 583.972C429.821 583.164 439.921 582.386 450.021 581.758C439.951 582.85 429.881 583.808 419.81 584.75L412.254 585.454L408.483 585.813C407.246 585.959 406.024 586.215 404.832 586.576C399.894 587.878 395.106 589.314 390.168 590.451Z" fill="#DBDBDB"/>
<path d="M384.557 587.144C389.285 585.304 394.103 583.777 398.996 582.401C399.61 582.236 400.223 582.072 400.852 581.937C401.487 581.796 402.132 581.706 402.782 581.668L406.568 581.323L414.124 580.665C424.209 579.857 434.31 579.079 444.41 578.436C434.339 579.528 424.269 580.5 414.199 581.428L406.642 582.117L402.872 582.491C401.635 582.632 400.413 582.882 399.221 583.239C394.343 584.571 389.495 586.007 384.557 587.144Z" fill="#DBDBDB"/>
<path d="M379.094 583.882C383.822 582.042 388.655 580.516 393.533 579.139C394.147 578.96 394.76 578.81 395.389 578.675C396.025 578.539 396.67 578.444 397.319 578.391L401.105 578.047L408.676 577.403C418.761 576.58 428.847 575.817 438.947 575.174C428.892 576.266 418.806 577.239 408.736 578.166L401.18 578.87L397.409 579.244C396.177 579.384 394.96 579.634 393.773 579.992C388.895 581.294 384.032 582.745 379.094 583.882Z" fill="#DBDBDB"/>
<path d="M374.906 580.112C379.62 578.271 384.438 576.745 389.316 575.368C389.929 575.204 390.543 575.039 391.171 574.919C391.805 574.766 392.451 574.671 393.102 574.635L396.887 574.351L404.444 573.827C414.529 573.199 424.614 572.615 434.714 572.166C424.644 573.064 414.574 573.842 404.504 574.635L396.947 575.204L393.176 575.518C391.949 575.647 390.736 575.892 389.555 576.251C384.677 577.538 379.829 578.974 374.906 580.112Z" fill="#DBDBDB"/>
<path d="M370.701 576.296C375.415 574.471 380.218 572.945 385.096 571.583C385.709 571.403 386.308 571.254 386.936 571.119C387.574 570.962 388.226 570.872 388.882 570.85L392.667 570.625L400.224 570.251C410.289 569.812 420.369 569.468 430.465 569.219C420.394 569.907 410.324 570.476 400.254 571.059L392.772 571.478L389.001 571.718C387.772 571.846 386.559 572.097 385.38 572.466C380.442 573.768 375.624 575.189 370.701 576.296Z" fill="#DBDBDB"/>
<path d="M366.496 572.555C371.21 570.729 375.998 569.203 380.861 567.841C381.474 567.662 382.088 567.512 382.716 567.378C383.348 567.218 383.995 567.132 384.647 567.123L388.432 567.004L395.989 566.884C401.016 566.884 406.059 566.884 411.087 566.794C416.114 566.704 421.157 566.794 426.2 566.884C416.129 567.213 406.059 567.437 396.004 567.677L388.522 567.856L384.751 567.991C383.533 568.116 382.33 568.361 381.16 568.724C376.237 569.996 371.464 571.418 366.496 572.555Z" fill="#DBDBDB"/>
<path d="M341.537 634.368C346.954 632.871 352.385 631.57 357.817 630.238C363.249 628.906 368.71 627.649 374.157 626.362C376.895 625.734 379.604 625.135 382.402 624.582L390.677 623.175C396.198 622.292 401.719 621.41 407.271 620.646C401.794 621.829 396.303 622.876 390.811 623.938L382.551 625.435C379.858 625.988 377.105 626.677 374.382 627.26L357.997 630.911C352.52 632.108 347.044 633.275 341.537 634.368Z" fill="#DBDBDB"/>
<path d="M418.986 618.074C424.433 616.742 429.924 615.5 435.446 614.273C440.967 613.046 446.429 611.924 451.906 610.756C454.659 610.173 457.397 609.634 460.21 609.14L468.53 607.913C474.096 607.135 479.662 606.417 485.244 605.714C479.722 606.776 474.186 607.719 468.649 608.707L460.33 610.038C457.607 610.532 454.838 611.16 452.085 611.684L435.625 614.991C430.029 616.024 424.508 617.086 418.986 618.074Z" fill="#DBDBDB"/>
<path d="M500.343 408.991C524.284 432.424 528.295 468.68 523.252 500.432C523.117 501.15 522.01 500.956 522.01 500.282C522.01 493.055 522.234 485.888 522.204 478.75C522.07 478.421 521.965 478.107 521.83 477.793C515.591 473.304 509.86 468.111 506.284 461.079C502.288 453.223 500.717 444.35 497.665 436.135C497.38 435.357 498.218 435.581 498.772 435.985C513.316 446.729 517.97 458.28 522.145 473.723C522.06 465.645 521.208 457.593 519.601 449.677C516.459 435.027 510.234 420.513 499.715 409.635C499.326 409.216 499.939 408.587 500.343 408.991Z" fill="#263238"/>
<path d="M495.853 411.7C491.738 411.834 489.15 418.418 485.948 420.333C485.613 420.6 485.228 420.794 484.815 420.903C484.402 421.013 483.97 421.035 483.548 420.969C483.126 420.903 482.722 420.75 482.363 420.519C482.003 420.289 481.695 419.986 481.459 419.63C478.271 415.141 482.641 409.709 486.741 406.657C483.748 407.854 481.369 409.979 478.211 410.577C477.807 410.705 477.381 410.746 476.96 410.697C476.539 410.647 476.133 410.509 475.77 410.291C475.406 410.074 475.093 409.781 474.851 409.433C474.609 409.085 474.444 408.69 474.366 408.273C472.959 402.213 480.561 399.534 485.768 399.4C483.239 397.649 475.997 392.876 479.783 390.527C483.568 388.177 492.172 395.016 494.94 397.245C499.01 400.552 503.918 405.475 504.053 410.712C504.292 416.697 499.01 412.986 495.853 411.7Z" fill="#FFC727"/>
<path opacity="0.1" d="M495.853 411.7C491.738 411.834 489.15 418.418 485.948 420.333C485.613 420.6 485.228 420.794 484.815 420.903C484.402 421.013 483.97 421.035 483.548 420.969C483.126 420.903 482.722 420.75 482.363 420.519C482.003 420.289 481.695 419.986 481.459 419.63C478.271 415.141 482.641 409.709 486.741 406.657C483.748 407.854 481.369 409.979 478.211 410.577C477.807 410.705 477.381 410.746 476.96 410.697C476.539 410.647 476.133 410.509 475.77 410.291C475.406 410.074 475.093 409.781 474.851 409.433C474.609 409.085 474.444 408.69 474.366 408.273C472.959 402.213 480.561 399.534 485.768 399.4C483.239 397.649 475.997 392.876 479.783 390.527C483.568 388.177 492.172 395.016 494.94 397.245C499.01 400.552 503.918 405.475 504.053 410.712C504.292 416.697 499.01 412.986 495.853 411.7Z" fill="black"/>
<path d="M497.036 412.747C491.784 410.353 481.669 413.795 480.801 411.804C479.065 407.749 487.146 404.966 491.5 404.428C487.49 403.335 479.784 401.599 480.023 397.724C480.307 392.996 491.829 397.066 497.665 401.54C505.012 407.166 504.952 412.597 503.74 413.69C502.079 415.186 497.904 413.196 497.036 412.747Z" fill="#FFC727"/>
<path d="M554.854 406.672C530.045 429.116 524.658 465.253 528.488 497.169C528.593 497.903 529.715 497.738 529.73 497.065C530.015 489.852 530.06 482.685 530.359 475.548C530.508 475.218 530.628 474.919 530.763 474.605C537.182 470.295 543.107 465.387 546.938 458.489C551.233 450.798 553.133 442.03 556.5 433.905C556.814 433.127 555.976 433.321 555.407 433.71C540.444 443.885 535.371 455.257 530.613 470.535C531.013 462.465 532.165 454.45 534.055 446.594C537.766 432.079 544.529 417.804 555.467 407.33C555.554 407.249 555.606 407.136 555.61 407.017C555.614 406.897 555.571 406.781 555.49 406.694C555.408 406.607 555.296 406.555 555.176 406.551C555.057 406.547 554.941 406.59 554.854 406.672Z" fill="#263238"/>
<path d="M559.253 409.574C563.353 409.873 565.687 416.547 568.815 418.552C569.139 418.841 569.52 419.058 569.935 419.189C570.349 419.32 570.786 419.361 571.218 419.31C571.649 419.26 572.065 419.118 572.438 418.894C572.81 418.67 573.131 418.37 573.378 418.013C576.73 413.704 572.585 408.062 568.59 404.845C571.478 406.162 573.827 408.377 576.97 409.095C577.369 409.239 577.794 409.297 578.217 409.264C578.64 409.231 579.051 409.109 579.423 408.905C579.795 408.701 580.12 408.421 580.375 408.082C580.631 407.743 580.811 407.354 580.905 406.94C582.536 400.955 575.054 397.962 569.847 397.648C572.436 395.987 579.858 391.498 576.102 388.999C572.346 386.5 563.548 392.994 560.705 395.134C556.515 398.276 551.472 403.035 551.098 408.182C550.619 414.227 556.036 410.726 559.253 409.574Z" fill="#FFC727"/>
<path opacity="0.1" d="M559.253 409.574C563.353 409.873 565.687 416.547 568.815 418.552C569.139 418.841 569.52 419.058 569.935 419.189C570.349 419.32 570.786 419.361 571.218 419.31C571.649 419.26 572.065 419.118 572.438 418.894C572.81 418.67 573.131 418.37 573.378 418.013C576.73 413.704 572.585 408.062 568.59 404.845C571.478 406.162 573.827 408.377 576.97 409.095C577.369 409.239 577.794 409.297 578.217 409.264C578.64 409.231 579.051 409.109 579.423 408.905C579.795 408.701 580.12 408.421 580.375 408.082C580.631 407.743 580.811 407.354 580.905 406.94C582.536 400.955 575.054 397.962 569.847 397.648C572.436 395.987 579.858 391.498 576.102 388.999C572.346 386.5 563.548 392.994 560.705 395.134C556.515 398.276 551.472 403.035 551.098 408.182C550.619 414.227 556.036 410.726 559.253 409.574Z" fill="black"/>
<path d="M558.01 410.547C563.367 408.362 573.348 412.178 574.275 410.217C576.176 406.237 568.2 403.155 563.801 402.452C567.856 401.509 575.622 400.072 575.532 396.197C575.428 391.454 563.756 395.075 557.756 399.324C550.274 404.681 550.05 410.098 551.217 411.295C552.893 412.791 557.128 410.906 558.01 410.547Z" fill="#FFC727"/>
<path d="M529.493 466.107C527.814 478.143 525.238 490.037 521.787 501.689C521.764 501.803 521.719 501.912 521.655 502.008C521.591 502.105 521.508 502.188 521.411 502.253C521.314 502.317 521.206 502.362 521.092 502.385C520.978 502.408 520.861 502.408 520.747 502.385C520.633 502.363 520.525 502.318 520.428 502.253C520.331 502.189 520.248 502.106 520.184 502.009C520.119 501.913 520.074 501.804 520.051 501.69C520.029 501.576 520.029 501.459 520.051 501.345C521.682 490.377 524.645 479.618 526.276 468.65C528.057 457.557 528.699 446.311 528.191 435.088C527.144 416.608 522.131 396.961 510.071 382.492C509.801 382.148 510.37 381.669 510.639 381.983C534.775 410.204 530.929 444.619 530.914 447.732C534.326 436.09 537.857 422.728 550.786 410.862C551.339 410.353 551.773 410.593 551.684 411.461C549.364 433.083 543.364 444.38 530.825 455.917C530.481 459.343 530.077 462.755 529.493 466.107Z" fill="#263238"/>
<path d="M509.844 385.738C505.505 383.808 499.52 389.329 495.225 389.718C492.936 389.913 491.26 389.015 490.856 386.726C489.794 380.516 497.081 377.044 502.827 375.922C499.175 375.698 495.584 376.67 492.008 375.713C491.522 375.643 491.057 375.471 490.643 375.208C490.229 374.944 489.875 374.596 489.606 374.185C489.337 373.775 489.159 373.312 489.083 372.827C489.007 372.342 489.035 371.846 489.165 371.373C490.766 364.4 499.998 365.388 505.46 367.917C503.724 364.819 498.622 356.23 503.799 355.722C508.976 355.213 514.393 366.6 516.144 370.326C518.703 375.802 521.246 383.359 518.837 388.805C516.099 395.15 512.493 388.641 509.844 385.738Z" fill="#FFC727"/>
<path opacity="0.1" d="M509.844 385.738C505.505 383.808 499.52 389.329 495.225 389.718C492.936 389.913 491.26 389.015 490.856 386.726C489.794 380.516 497.081 377.044 502.827 375.922C499.175 375.698 495.584 376.67 492.008 375.713C491.522 375.643 491.057 375.471 490.643 375.208C490.229 374.944 489.875 374.596 489.606 374.185C489.337 373.775 489.159 373.312 489.083 372.827C489.007 372.342 489.035 371.846 489.165 371.373C490.766 364.4 499.998 365.388 505.46 367.917C503.724 364.819 498.622 356.23 503.799 355.722C508.976 355.213 514.393 366.6 516.144 370.326C518.703 375.802 521.246 383.359 518.837 388.805C516.099 395.15 512.493 388.641 509.844 385.738Z" fill="black"/>
<path d="M510.622 387.384C506.357 382.252 494.162 380.741 494.162 378.242C494.402 373.154 504.187 374.336 508.976 375.967C505.37 372.825 498.247 367.139 500.447 363.249C503.125 358.475 513.031 368.501 516.831 376.072C521.605 385.619 518.822 391.23 517.026 391.739C514.572 392.457 511.28 388.237 510.622 387.384Z" fill="#FFC727"/>
<path d="M545.367 472.615L556.021 553.956H491.17C492.502 546.758 504.562 472.525 504.562 472.525L545.367 472.615Z" fill="#FFC727"/>
<path d="M0 553.957L76.4175 553.598L152.82 553.463L305.625 553.224L458.43 553.463L534.847 553.598L611.25 553.957L534.847 554.331L458.43 554.466L305.625 554.705L152.82 554.466L76.4175 554.331L0 553.957Z" fill="#263238"/>
<path d="M441.623 338.469C472.646 338.469 497.795 313.32 497.795 282.297C497.795 251.274 472.646 226.125 441.623 226.125C410.6 226.125 385.451 251.274 385.451 282.297C385.451 313.32 410.6 338.469 441.623 338.469Z" fill="#FFC727"/>
<path opacity="0.3" d="M441.623 338.469C472.646 338.469 497.795 313.32 497.795 282.297C497.795 251.274 472.646 226.125 441.623 226.125C410.6 226.125 385.451 251.274 385.451 282.297C385.451 313.32 410.6 338.469 441.623 338.469Z" fill="white"/>
<path d="M441.627 348.854C428.474 348.857 415.615 344.959 404.678 337.654C393.74 330.348 385.215 319.963 380.18 307.811C375.145 295.66 373.827 282.288 376.392 269.388C378.958 256.487 385.291 244.637 394.592 235.337C403.892 226.036 415.742 219.703 428.643 217.137C441.543 214.572 454.915 215.89 467.066 220.925C479.218 225.96 489.603 234.485 496.908 245.423C504.214 256.361 508.112 269.219 508.109 282.372C508.089 299.998 501.078 316.897 488.615 329.36C476.151 341.824 459.253 348.834 441.627 348.854V348.854ZM441.627 217.372C428.771 217.369 416.202 221.178 405.511 228.319C394.819 235.459 386.486 245.61 381.564 257.487C376.642 269.364 375.352 282.434 377.859 295.044C380.365 307.654 386.555 319.237 395.645 328.329C404.734 337.421 416.316 343.613 428.926 346.123C441.535 348.632 454.605 347.345 466.483 342.426C478.361 337.507 488.514 329.176 495.657 318.486C502.8 307.796 506.613 295.229 506.613 282.372C506.613 265.129 499.769 248.59 487.584 236.389C475.4 224.187 458.871 217.321 441.627 217.297V217.372Z" fill="#FFC727"/>
<path d="M190.684 137.58C219.909 127.173 235.165 95.0447 224.758 65.8192C214.351 36.5937 182.223 21.3381 152.997 31.7449C123.772 42.1516 108.516 74.2798 118.923 103.505C129.33 132.731 161.458 147.986 190.684 137.58Z" fill="#FFC727"/>
<path opacity="0.3" d="M190.684 137.58C219.909 127.173 235.165 95.0447 224.758 65.8192C214.351 36.5937 182.223 21.3381 152.997 31.7449C123.772 42.1516 108.516 74.2798 118.923 103.505C129.33 132.731 161.458 147.986 190.684 137.58Z" fill="white"/>
<path d="M171.836 148.735C159.16 148.735 146.77 144.976 136.231 137.934C125.691 130.892 117.477 120.883 112.626 109.173C107.776 97.4621 106.507 84.5762 108.98 72.1444C111.452 59.7126 117.556 48.2933 126.519 39.3305C135.482 30.3676 146.901 24.2639 159.333 21.791C171.765 19.3182 184.651 20.5873 196.361 25.438C208.072 30.2886 218.081 38.5029 225.123 49.0421C232.165 59.5813 235.924 71.972 235.924 84.6473C235.908 101.64 229.151 117.931 217.135 129.947C205.12 141.962 188.828 148.719 171.836 148.735ZM171.836 22.0559C159.456 22.0559 147.355 25.7269 137.062 32.6045C126.769 39.4821 118.746 49.2576 114.009 60.6946C109.271 72.1317 108.032 84.7168 110.447 96.8583C112.862 109 118.823 120.153 127.577 128.906C136.331 137.66 147.483 143.621 159.625 146.036C171.766 148.451 184.351 147.212 195.788 142.474C207.226 137.737 217.001 129.714 223.879 119.421C230.756 109.128 234.427 97.0267 234.427 84.6473C234.407 68.0531 227.807 52.1443 216.073 40.4104C204.339 28.6765 188.43 22.0757 171.836 22.0559V22.0559Z" fill="#FFC727"/>
<path d="M586.143 204.033C588.74 188.12 577.946 173.115 562.034 170.518C546.121 167.921 531.116 178.715 528.519 194.627C525.922 210.54 536.716 225.545 552.628 228.142C568.541 230.739 583.546 219.945 586.143 204.033Z" fill="#FFC727"/>
<path opacity="0.3" d="M586.143 204.033C588.74 188.12 577.946 173.115 562.034 170.518C546.121 167.921 531.116 178.715 528.519 194.627C525.922 210.54 536.716 225.545 552.628 228.142C568.541 230.739 583.546 219.945 586.143 204.033Z" fill="white"/>
<path d="M557.366 237.991C549.724 237.991 542.255 235.725 535.901 231.48C529.548 227.235 524.596 221.201 521.671 214.141C518.747 207.081 517.982 199.313 519.473 191.819C520.964 184.324 524.643 177.44 530.046 172.037C535.45 166.633 542.334 162.954 549.828 161.463C557.323 159.972 565.091 160.737 572.151 163.662C579.21 166.586 585.244 171.538 589.49 177.891C593.735 184.245 596.001 191.715 596.001 199.356C595.985 209.598 591.909 219.416 584.667 226.658C577.425 233.9 567.607 237.975 557.366 237.991V237.991ZM557.366 162.217C550.02 162.217 542.84 164.395 536.732 168.476C530.625 172.557 525.865 178.357 523.054 185.143C520.243 191.93 519.507 199.397 520.94 206.601C522.373 213.806 525.911 220.423 531.105 225.617C536.298 230.811 542.916 234.348 550.12 235.781C557.324 237.214 564.792 236.479 571.578 233.668C578.364 230.857 584.165 226.097 588.245 219.989C592.326 213.882 594.505 206.701 594.505 199.356C594.493 189.51 590.576 180.07 583.614 173.108C576.651 166.146 567.212 162.229 557.366 162.217V162.217Z" fill="#FFC727"/>
<path d="M192.469 344.948C203.87 333.548 203.87 315.064 192.469 303.663C181.069 292.262 162.585 292.262 151.184 303.663C139.783 315.064 139.783 333.548 151.184 344.948C162.585 356.349 181.069 356.349 192.469 344.948Z" fill="#FFC727"/>
<path opacity="0.3" d="M192.469 344.948C203.87 333.548 203.87 315.064 192.469 303.663C181.069 292.262 162.585 292.262 151.184 303.663C139.783 315.064 139.783 333.548 151.184 344.948C162.585 356.349 181.069 356.349 192.469 344.948Z" fill="white"/>
<path d="M171.838 361.842C164.413 361.842 157.154 359.64 150.98 355.514C144.806 351.389 139.994 345.526 137.153 338.666C134.311 331.806 133.568 324.257 135.016 316.974C136.465 309.692 140.041 303.002 145.291 297.752C150.541 292.501 157.231 288.926 164.514 287.477C171.796 286.029 179.345 286.772 186.205 289.614C193.065 292.455 198.928 297.267 203.054 303.441C207.179 309.615 209.381 316.873 209.381 324.299C209.373 334.253 205.415 343.798 198.376 350.837C191.337 357.876 181.792 361.834 171.838 361.842ZM171.838 288.252C164.708 288.252 157.739 290.366 151.811 294.327C145.884 298.288 141.263 303.918 138.535 310.504C135.807 317.091 135.093 324.339 136.484 331.331C137.875 338.323 141.308 344.746 146.349 349.788C151.39 354.829 157.813 358.262 164.805 359.653C171.798 361.044 179.046 360.33 185.632 357.601C192.219 354.873 197.849 350.253 201.809 344.325C205.77 338.397 207.884 331.428 207.884 324.299C207.872 314.742 204.071 305.581 197.313 298.823C190.556 292.066 181.394 288.264 171.838 288.252V288.252Z" fill="#FFC727"/>
<path d="M305.623 84.6621C321.746 84.6621 334.816 71.5918 334.816 55.4688C334.816 39.3457 321.746 26.2754 305.623 26.2754C289.5 26.2754 276.43 39.3457 276.43 55.4688C276.43 71.5918 289.5 84.6621 305.623 84.6621Z" fill="#FFC727"/>
<path opacity="0.3" d="M305.623 84.6621C321.746 84.6621 334.816 71.5918 334.816 55.4688C334.816 39.3457 321.746 26.2754 305.623 26.2754C289.5 26.2754 276.43 39.3457 276.43 55.4688C276.43 71.5918 289.5 84.6621 305.623 84.6621Z" fill="white"/>
<path d="M305.624 93.7751C298.048 93.7751 290.642 91.5285 284.343 87.3194C278.043 83.1103 273.134 77.1277 270.234 70.1282C267.335 63.1287 266.576 55.4266 268.054 47.996C269.532 40.5653 273.181 33.7399 278.538 28.3827C283.895 23.0255 290.721 19.3772 298.151 17.8991C305.582 16.4211 313.284 17.1797 320.283 20.079C327.283 22.9783 333.266 27.888 337.475 34.1874C341.684 40.4868 343.93 47.8929 343.93 55.4691C343.919 65.6248 339.879 75.3612 332.698 82.5424C325.517 89.7236 315.78 93.7632 305.624 93.7751V93.7751ZM305.624 18.6594C298.344 18.6594 291.227 20.8183 285.174 24.863C279.121 28.9077 274.403 34.6566 271.617 41.3827C268.831 48.1087 268.102 55.5099 269.522 62.6503C270.942 69.7907 274.448 76.3496 279.596 81.4975C284.744 86.6454 291.303 90.1512 298.443 91.5715C305.584 92.9918 312.985 92.2629 319.711 89.4768C326.437 86.6908 332.186 81.9728 336.231 75.9195C340.275 69.8661 342.434 62.7494 342.434 55.4691C342.422 45.7102 338.54 36.3544 331.64 29.4539C324.739 22.5533 315.383 18.6713 305.624 18.6594V18.6594Z" fill="#FFC727"/>
<path d="M159.557 230.459C165.527 192.849 139.879 157.521 102.269 151.55C64.6595 145.58 29.3311 171.229 23.3608 208.838C17.3906 246.448 43.0394 281.776 80.6489 287.747C118.258 293.717 153.587 268.068 159.557 230.459Z" fill="#FFC727"/>
<path opacity="0.3" d="M159.557 230.459C165.527 192.849 139.879 157.521 102.269 151.55C64.6595 145.58 29.3311 171.229 23.3608 208.838C17.3906 246.448 43.0394 281.776 80.6489 287.747C118.258 293.717 153.587 268.068 159.557 230.459Z" fill="white"/>
<path d="M91.4556 297.44C76.0664 297.44 61.0228 292.877 48.2272 284.327C35.4315 275.777 25.4586 263.625 19.5694 249.408C13.6802 235.19 12.1393 219.545 15.1416 204.452C18.1439 189.358 25.5545 175.494 36.4363 164.612C47.3181 153.73 61.1823 146.32 76.2758 143.317C91.3693 140.315 107.014 141.856 121.232 147.745C135.45 153.634 147.602 163.607 156.151 176.403C164.701 189.199 169.265 204.242 169.265 219.631C169.265 240.268 161.067 260.059 146.475 274.651C131.883 289.243 112.092 297.44 91.4556 297.44V297.44ZM91.4556 143.319C76.3623 143.319 61.6081 147.794 49.0585 156.18C36.5089 164.565 26.7277 176.483 20.9518 190.428C15.1759 204.372 13.6646 219.716 16.6092 234.519C19.5537 249.322 26.8218 262.92 37.4943 273.593C48.1669 284.265 61.7645 291.533 76.5677 294.478C91.3709 297.422 106.715 295.911 120.659 290.135C134.604 284.359 146.522 274.578 154.907 262.028C163.293 249.479 167.768 234.725 167.768 219.631C167.756 199.4 159.711 180.001 145.401 165.699C131.091 151.397 111.687 143.364 91.4556 143.364V143.319Z" fill="#FFC727"/>
<path d="M455.289 173.664C493.369 173.664 524.239 142.794 524.239 104.713C524.239 66.633 493.369 35.7627 455.289 35.7627C417.208 35.7627 386.338 66.633 386.338 104.713C386.338 142.794 417.208 173.664 455.289 173.664Z" fill="#FFC727"/>
<path opacity="0.3" d="M455.289 173.664C493.369 173.664 524.239 142.794 524.239 104.713C524.239 66.633 493.369 35.7627 455.289 35.7627C417.208 35.7627 386.338 66.633 386.338 104.713C386.338 142.794 417.208 173.664 455.289 173.664Z" fill="white"/>
<path d="M455.257 183.914C439.592 183.917 424.278 179.274 411.251 170.574C398.225 161.873 388.071 149.504 382.074 135.033C376.077 120.561 374.507 104.636 377.561 89.2713C380.615 73.9069 388.157 59.7933 399.233 48.7154C410.309 37.6374 424.421 30.0928 439.785 27.0356C455.149 23.9785 471.074 25.546 485.547 31.5401C500.02 37.5342 512.39 47.6855 521.094 60.7103C529.797 73.7351 534.442 89.0483 534.442 104.713C534.415 125.708 526.063 145.834 511.22 160.681C496.376 175.527 476.251 183.882 455.257 183.914V183.914ZM455.257 27.024C439.887 27.0211 424.862 31.5762 412.081 40.1133C399.3 48.6505 389.338 60.786 383.455 74.9853C377.572 89.1845 376.032 104.809 379.03 119.884C382.028 134.959 389.428 148.806 400.296 159.674C411.165 170.542 425.011 177.943 440.086 180.94C455.161 183.938 470.786 182.398 484.985 176.515C499.184 170.632 511.32 160.67 519.857 147.889C528.394 135.109 532.949 120.083 532.946 104.713C532.914 84.1186 524.719 64.3764 510.156 49.8137C495.594 35.251 475.851 27.0557 455.257 27.024V27.024Z" fill="#FFC727"/>
<path d="M168.484 219.66C175.173 219.466 181.862 219.301 188.55 219.211C195.239 219.122 202.017 219.002 208.631 219.002L208.272 219.107L225.973 207.525L243.78 196.108C249.765 192.277 255.75 188.626 261.736 184.796C267.721 180.965 273.706 177.314 279.691 173.663C273.866 177.653 268.025 181.609 262.169 185.529C256.289 189.419 250.453 193.37 244.528 197.215L226.826 208.782L208.99 220.169L208.825 220.274H208.631C201.942 220.274 195.254 220.124 188.55 220.049C181.847 219.974 175.173 219.84 168.484 219.66Z" fill="#FFC727"/>
<path d="M190.406 291.635C195.554 285.251 200.741 278.891 205.968 272.557C211.205 266.227 216.442 259.898 221.709 253.628L237.571 234.79L253.551 216.07L253.746 215.831H254.03L275.263 216.07L285.887 216.25L296.511 216.474L285.887 216.714L275.263 216.893L254.03 217.118L254.524 216.893L238.693 235.747L222.727 254.481C217.415 260.751 212.028 266.931 206.656 273.14C201.285 279.35 195.778 285.5 190.406 291.635Z" fill="#FFC727"/>
<path d="M218.404 128.265C222.549 132.02 226.604 135.851 230.614 139.727C234.624 143.602 238.59 147.522 242.585 151.428L242.076 151.218C245.503 151.218 248.929 151.218 252.356 151.218L262.651 151.308C269.504 151.443 276.357 151.577 283.21 151.922C276.357 152.266 269.504 152.4 262.651 152.535L252.356 152.625C248.929 152.625 245.503 152.625 242.076 152.625H241.762L241.567 152.415C237.662 148.42 233.697 144.5 229.866 140.445C226.036 136.39 222.16 132.409 218.404 128.265Z" fill="#FFC727"/>
<path d="M305.626 92.9814C305.94 97.1113 306.075 101.241 306.194 105.371C306.314 109.501 306.359 113.646 306.374 117.776C306.389 121.905 306.374 126.035 306.194 130.18L306 136.375C305.865 138.44 305.79 140.505 305.626 142.57C305.461 140.505 305.386 138.44 305.252 136.375L305.057 130.18C304.907 126.035 304.892 121.905 304.877 117.776C304.862 113.646 304.877 109.501 305.057 105.371C305.237 101.241 305.311 97.1562 305.626 92.9814Z" fill="#FFC727"/>
<path d="M325.75 203.216C341.895 202.917 358.041 202.767 374.186 202.647L422.622 202.468L471.058 202.647L495.269 202.857L519.48 203.216L495.269 203.59L471.058 203.8L422.622 203.964L374.186 203.8C357.996 203.71 341.895 203.53 325.75 203.216Z" fill="#FFC727"/>
<path d="M380.292 258.61C373.499 258.909 366.69 259.059 359.897 259.179H359.658L359.478 258.984C355.872 255.109 352.37 251.113 348.824 247.178C345.278 243.243 341.791 239.247 338.35 235.207L333.113 229.222L327.965 223.237C324.509 219.212 321.127 215.127 317.775 211.012C321.456 214.822 325.087 218.688 328.669 222.608L334.07 228.444L339.382 234.429C342.914 238.38 346.475 242.3 349.946 246.31C353.418 250.32 356.964 254.271 360.421 258.281L360.002 258.086C366.69 258.176 373.499 258.326 380.292 258.61Z" fill="#FFC727"/>
<path d="M377.734 116.549C373.245 116.773 368.621 116.938 364.072 117.027C359.524 117.117 354.975 117.222 350.426 117.237L350.905 117.042C348.406 119.452 345.952 121.906 343.423 124.255L335.852 131.377C330.764 136.076 325.647 140.759 320.395 145.293C325.138 140.236 330.046 135.343 334.969 130.45L342.45 123.207C344.919 120.783 347.478 118.434 349.932 116.04L350.127 115.86H350.411C354.9 115.86 359.509 115.86 364.057 116.055C368.606 116.249 373.185 116.309 377.734 116.549Z" fill="#FFC727"/>
<path d="M182.537 57.0708C178.877 55.3933 174.733 55.0985 170.873 56.241C167.012 57.3835 163.696 59.8859 161.538 63.285C159.38 66.6842 158.527 70.7499 159.136 74.7298C159.745 78.7096 161.775 82.3341 164.851 84.9324C166.015 85.9142 167.303 86.7392 168.681 87.3864V87.3864C170.856 88.3774 173.219 88.8878 175.609 88.8827C176.118 88.8827 176.627 88.8827 177.106 88.8827C180.793 88.5836 184.276 87.0651 187.005 84.5669C189.734 82.0687 191.553 78.733 192.176 75.0861C192.798 71.4393 192.189 67.6889 190.444 64.4268C188.698 61.1647 185.917 58.5766 182.537 57.0708V57.0708ZM190.019 78.8424C189.154 80.7436 187.922 82.4555 186.394 83.8798C184.866 85.3041 183.072 86.4129 181.115 87.1427C179.158 87.8725 177.076 88.2089 174.989 88.1326C172.901 88.0563 170.849 87.5688 168.951 86.6981C167.626 86.0857 166.388 85.3008 165.27 84.3638C163.154 82.5668 161.544 80.2477 160.601 77.6365C159.658 75.0254 159.414 72.213 159.893 69.4785C160.373 66.744 161.559 64.1824 163.334 62.0478C165.109 59.9133 167.412 58.2801 170.013 57.3102C171.966 56.575 174.046 56.2348 176.132 56.3093C178.217 56.3838 180.267 56.8715 182.163 57.7441C184.073 58.6128 185.793 59.8494 187.224 61.3831C188.656 62.9168 189.771 64.7177 190.506 66.6827C191.241 68.6476 191.582 70.7382 191.509 72.835C191.435 74.9317 190.949 76.9934 190.079 78.9022L190.019 78.8424ZM182.537 57.0708C178.877 55.3933 174.733 55.0985 170.873 56.241C167.012 57.3835 163.696 59.8859 161.538 63.285C159.38 66.6842 158.527 70.7499 159.136 74.7298C159.745 78.7096 161.775 82.3341 164.851 84.9324C166.015 85.9142 167.303 86.7392 168.681 87.3864V87.3864C170.856 88.3774 173.219 88.8878 175.609 88.8827C176.118 88.8827 176.627 88.8827 177.106 88.8827C180.793 88.5836 184.276 87.0651 187.005 84.5669C189.734 82.0687 191.553 78.733 192.176 75.0861C192.798 71.4393 192.189 67.6889 190.444 64.4268C188.698 61.1647 185.917 58.5766 182.537 57.0708V57.0708ZM190.019 78.8424C189.154 80.7436 187.922 82.4555 186.394 83.8798C184.866 85.3041 183.072 86.4129 181.115 87.1427C179.158 87.8725 177.076 88.2089 174.989 88.1326C172.901 88.0563 170.849 87.5688 168.951 86.6981C167.626 86.0857 166.388 85.3008 165.27 84.3638C163.154 82.5668 161.544 80.2477 160.601 77.6365C159.658 75.0254 159.414 72.213 159.893 69.4785C160.373 66.744 161.559 64.1824 163.334 62.0478C165.109 59.9133 167.412 58.2801 170.013 57.3102C171.966 56.575 174.046 56.2348 176.132 56.3093C178.217 56.3838 180.267 56.8715 182.163 57.7441C184.073 58.6128 185.793 59.8494 187.224 61.3831C188.656 62.9168 189.771 64.7177 190.506 66.6827C191.241 68.6476 191.582 70.7382 191.509 72.835C191.435 74.9317 190.949 76.9934 190.079 78.9022L190.019 78.8424ZM197.037 64.2232C195.99 61.3985 194.393 58.8097 192.338 56.6069C189.248 53.2888 185.242 50.9618 180.829 49.9204C176.415 48.8789 171.792 49.1698 167.544 50.7563C163.623 52.2177 160.177 54.7244 157.58 58.0047C154.982 61.2849 153.332 65.2136 152.808 69.3649C152.283 73.5163 152.905 77.7319 154.606 81.5549C156.307 85.3778 159.022 88.6623 162.457 91.0524L159.464 97.5315L159.15 98.2048L169.25 102.888L169.564 102.215L172.901 95.0027C176.803 95.4635 180.758 94.9137 184.386 93.4061C188.014 91.8984 191.194 89.4836 193.62 86.3934C196.046 83.3031 197.637 79.6411 198.241 75.7588C198.845 71.8765 198.44 67.9043 197.067 64.2232H197.037ZM195.72 81.446C193.765 85.7652 190.472 89.3402 186.327 91.6417C182.182 93.9432 177.406 94.8489 172.706 94.2246H172.422L168.921 101.961L160.182 97.9056L163.474 90.8579L163.22 90.6783C159.708 88.3129 156.946 84.9919 155.26 81.1076C153.574 77.2233 153.035 72.9377 153.706 68.7568C154.377 64.5759 156.23 60.6743 159.047 57.5126C161.863 54.3508 165.526 52.0609 169.602 50.9133C173.678 49.7656 177.997 49.808 182.049 51.0356C186.102 52.2631 189.718 54.6245 192.472 57.841C195.226 61.0575 197.002 64.9947 197.591 69.188C198.18 73.3812 197.557 77.6554 195.795 81.5058L195.72 81.446Z" fill="#455A64"/>
<path d="M196.391 64.5516C195.169 61.2825 193.191 58.3481 190.621 55.9872C188.05 53.6263 184.958 51.9056 181.597 50.965C178.236 50.0243 174.7 49.8904 171.277 50.5741C167.855 51.2578 164.641 52.7397 161.9 54.8994C159.158 57.0591 156.964 59.8355 155.498 63.0028C154.031 66.1702 153.333 69.6389 153.46 73.1269C153.587 76.615 154.536 80.0238 156.228 83.0761C157.921 86.1284 160.311 88.7379 163.203 90.6925L163.457 90.8721L160.18 97.9198L168.919 101.96L172.45 94.2538H172.734C176.521 94.7429 180.37 94.2468 183.909 92.8134C187.447 91.3799 190.556 89.0576 192.935 86.0711C195.314 83.0845 196.882 79.5347 197.487 75.7649C198.093 71.9951 197.715 68.1329 196.391 64.5516ZM190.75 79.2306C189.529 81.8912 187.629 84.1837 185.242 85.8778C182.854 87.5719 180.063 88.6079 177.148 88.8819C176.64 88.8819 176.131 88.8819 175.652 88.8819C173.262 88.887 170.899 88.3766 168.724 87.3856V87.3856C167.346 86.7385 166.058 85.9134 164.894 84.9316C162.527 82.9284 160.767 80.3043 159.811 77.3547C158.855 74.4052 158.741 71.2474 159.483 68.2368C160.225 65.2263 161.792 62.4825 164.008 60.3145C166.225 58.1464 169.003 56.6402 172.029 55.9654C175.055 55.2905 178.21 55.4739 181.137 56.4948C184.065 57.5158 186.65 59.3337 188.6 61.7439C190.55 64.1542 191.789 67.0611 192.177 70.1373C192.565 73.2135 192.086 76.3369 190.795 79.1558L190.75 79.2306Z" fill="#455A64"/>
<path d="M169.594 102.275L168.92 101.961L160.182 97.9057L159.493 97.5915L157.488 96.6787L146.625 120.096L160.556 126.426L171.389 103.113L169.594 102.275ZM160.227 125.438L147.642 119.737L157.877 97.6663L159.179 98.2648L169.279 102.948L170.417 103.472L160.227 125.438Z" fill="#455A64"/>
<path d="M77.9874 172.588C76.7017 169.538 74.3952 167.031 71.4634 165.495C70.2265 164.984 68.8943 164.745 67.557 164.794C66.2197 164.843 64.9085 165.179 63.7124 165.779C62.4742 166.252 61.3544 166.99 60.4315 167.941C59.5087 168.892 58.8053 170.034 58.3705 171.286C57.2034 174.892 58.58 178.768 59.4778 180.773C59.5757 181.003 59.6856 181.227 59.807 181.446V181.446L60.4654 181.162L60.3606 180.937L60.1511 180.488C59.2982 178.633 57.9815 174.877 59.0439 171.51C59.4505 170.359 60.1029 169.311 60.9556 168.438C61.8083 167.564 62.8409 166.887 63.9817 166.453C65.2576 165.859 66.6448 165.543 68.0518 165.525C69.1129 165.522 70.163 165.741 71.1342 166.168C73.8895 167.631 76.0562 169.998 77.2691 172.872C77.2691 173.037 77.4188 173.186 77.4637 173.321C77.5047 173.393 77.5397 173.468 77.5684 173.545L78.2118 173.261L77.9874 172.588Z" fill="#455A64"/>
<path d="M78.242 173.275L77.5986 173.56L60.4956 181.146L59.8372 181.43L59.7324 181.206L60.3908 180.921L77.4938 173.335L78.1373 173.051L78.242 173.275Z" fill="#455A64"/>
<path d="M62.2179 184.781L61.5296 185.08L61.365 184.736L61.2154 184.407L61.0508 184.063L61.7391 183.764L61.9037 184.108L62.0533 184.437L62.2179 184.781Z" fill="#455A64"/>
<path d="M98.9943 264.506L98.6651 264.67L98.321 264.82L63.0525 188.403L62.7383 187.729L63.4266 187.415L63.7408 188.103L98.8297 264.132L98.9943 264.506Z" fill="#455A64"/>
<path d="M79.9334 176.941L79.2601 177.24L79.1104 176.896L78.7812 176.207L79.4546 175.908L79.6192 176.252L79.7688 176.597L79.9334 176.941Z" fill="#455A64"/>
<path d="M116.729 256.665L116.385 256.815L116.04 256.979L115.861 256.575L80.7869 180.547L80.4727 179.874L81.146 179.574L81.4602 180.248L116.729 256.665Z" fill="#455A64"/>
<path d="M77.4946 173.335L60.3915 180.921L60.4963 181.146L77.5993 173.559C77.5707 173.482 77.5356 173.407 77.4946 173.335V173.335ZM77.4946 173.335L60.3915 180.921L60.4963 181.146L77.5993 173.559C77.5707 173.482 77.5356 173.407 77.4946 173.335V173.335ZM77.4946 173.335L60.3915 180.921L60.4963 181.146L77.5993 173.559C77.5707 173.482 77.5356 173.407 77.4946 173.335V173.335ZM81.1157 175.594L79.4248 171.943L77.9285 172.587L77.2402 172.886L60.2269 180.472L59.5237 180.772L58.0273 181.415L59.7182 185.066L59.8678 185.395L61.3642 184.737L62.0525 184.438L79.1106 176.956L79.769 176.657L81.2653 175.998L81.1157 175.594ZM59.0448 181.789L59.808 181.445L60.4664 181.161L77.5694 173.574L78.2128 173.29L78.9759 172.946L80.188 175.579L79.38 175.939L78.7066 176.238L61.6634 183.719L60.9751 184.019L60.1821 184.378L59.0448 181.789ZM77.4946 173.335L60.3915 180.921L60.4963 181.146L77.5993 173.559C77.5707 173.482 77.5356 173.407 77.4946 173.335V173.335ZM77.4946 173.335L60.3915 180.921L60.4963 181.146L77.5993 173.559C77.5707 173.482 77.5356 173.407 77.4946 173.335V173.335Z" fill="#455A64"/>
<path d="M79.1092 176.896L78.9446 176.551L61.9014 184.108L62.0511 184.437L62.2157 184.781L79.2588 177.3L79.1092 176.896ZM79.1092 176.896L78.9446 176.551L61.9014 184.108L62.0511 184.437L62.2157 184.781L79.2588 177.3L79.1092 176.896ZM81.2639 175.938L81.1143 175.594L79.618 176.252L78.9446 176.551L61.9014 184.108L61.2131 184.407L59.7168 185.065L59.8664 185.395L61.5573 189.061L63.0536 188.402L63.7419 188.103L80.7851 180.621L81.4584 180.322L82.9548 179.664L81.2639 175.938ZM81.1442 179.574L80.4709 179.873L63.4277 187.355L62.7394 187.669L61.9463 188.013L60.7193 185.38L61.5274 185.021L62.2157 184.721L79.2588 177.24L79.9322 176.94L80.7402 176.581L81.9522 179.215L81.1442 179.574ZM79.1092 176.896L78.9446 176.551L61.9014 184.108L62.0511 184.437L62.2157 184.781L79.2588 177.3L79.1092 176.896ZM79.1092 176.896L78.9446 176.551L61.9014 184.108L62.0511 184.437L62.2157 184.781L79.2588 177.3L79.1092 176.896Z" fill="#455A64"/>
<path d="M116.384 256.814L115.861 256.575L113.287 255.378L113.167 255.797C113.167 255.797 112.718 257.368 112.509 258.131L109.86 256.889L109.082 259.642L106.464 258.401L105.656 261.169L103.037 259.912L102.229 262.68L99.6106 261.438L99.4909 261.857L98.8325 264.131C98.8325 264.371 98.7128 264.535 98.6978 264.595V264.67L98.5781 264.865L109.89 272.122L114.005 274.785L116.624 256.919L116.384 256.814ZM114.32 267.289L113.945 269.877L113.407 273.543L108.11 270.072L99.5507 264.565C99.6405 264.266 99.8201 263.683 100.149 262.485L102.783 263.742L103.591 260.974L106.209 262.216L107.017 259.448L109.636 260.705L110.414 257.952L113.063 259.179L113.182 258.76C113.182 258.76 113.631 257.263 113.841 256.425L115.846 257.353L114.32 267.289Z" fill="#455A64"/>
<path d="M114.318 267.274L108.033 270.072L107.465 270.326L113.63 274.307L114.707 267.109L114.318 267.274ZM113.764 268.351L113.061 273.05L109.021 270.446L113.764 268.351Z" fill="#455A64"/>
<path d="M80.7854 180.547L63.7422 188.029L98.8311 264.057L99.4895 261.783L99.6092 261.364L102.228 262.605L103.036 259.837L105.654 261.094L106.462 258.326L109.081 259.568L109.859 256.815L112.508 258.057C112.717 257.294 113.151 255.752 113.166 255.722L113.286 255.303L115.859 256.5L80.7854 180.547ZM92.5166 240.52C89.7184 234.864 87.0849 229.118 84.3616 223.417C81.6383 217.716 79.1244 211.91 76.6405 206.119C74.1566 200.328 71.6727 194.493 69.4282 188.567C72.4209 194.119 75.2938 199.775 78.092 205.446C80.8901 211.117 83.5236 216.848 86.247 222.549C88.9703 228.25 91.4691 234.041 93.9531 239.846C96.437 245.652 98.9209 251.473 101.18 257.383C98.1428 251.832 95.3147 246.191 92.5166 240.52V240.52ZM100.432 236.884C97.634 231.213 95.0005 225.482 92.2772 219.781C89.5538 214.08 87.055 208.274 84.5561 202.468C82.0572 196.662 79.5883 190.857 77.3438 184.931C80.3365 190.482 83.2094 196.139 86.0076 201.81C88.8057 207.481 91.4392 213.212 94.1625 218.913C96.8859 224.614 99.3847 230.405 101.884 236.21C104.382 242.016 106.836 247.837 109.096 253.747C106.058 248.196 103.23 242.615 100.432 236.884V236.884Z" fill="#455A64"/>
<path d="M303.754 48.0919C303.754 49.4148 303.362 50.708 302.627 51.8079C301.892 52.9078 300.847 53.7651 299.625 54.2714C298.403 54.7776 297.058 54.9101 295.761 54.652C294.463 54.3939 293.271 53.7569 292.336 52.8215C291.401 51.886 290.764 50.6942 290.505 49.3968C290.247 48.0993 290.38 46.7545 290.886 45.5323C291.392 44.3101 292.25 43.2655 293.35 42.5305C294.449 41.7956 295.743 41.4033 297.066 41.4033C298.839 41.4033 300.541 42.108 301.795 43.3624C303.049 44.6167 303.754 46.318 303.754 48.0919V48.0919Z" fill="#455A64"/>
<path d="M308.618 66.5266V69.0405H285.5V66.5266C285.608 63.5329 286.873 60.6978 289.029 58.618C291.185 56.5382 294.063 55.376 297.059 55.376C300.055 55.376 302.934 56.5382 305.09 58.618C307.246 60.6978 308.511 63.5329 308.618 66.5266V66.5266Z" fill="#455A64"/>
<path d="M320.885 44.0665C320.885 45.3894 320.493 46.6826 319.758 47.7825C319.023 48.8824 317.978 49.7397 316.756 50.246C315.534 50.7522 314.189 50.8847 312.892 50.6266C311.594 50.3685 310.402 49.7315 309.467 48.7961C308.531 47.8606 307.894 46.6689 307.636 45.3714C307.378 44.0739 307.511 42.7291 308.017 41.5069C308.523 40.2847 309.38 39.2401 310.48 38.5052C311.58 37.7702 312.874 37.3779 314.196 37.3779C315.97 37.3779 317.672 38.0826 318.926 39.337C320.18 40.5913 320.885 42.2926 320.885 44.0665V44.0665Z" fill="#455A64"/>
<path d="M325.749 62.5022V64.9412H302.631V62.5022C302.739 59.5085 304.004 56.6734 306.16 54.5936C308.316 52.5138 311.194 51.3516 314.19 51.3516C317.186 51.3516 320.064 52.5138 322.22 54.5936C324.376 56.6734 325.641 59.5085 325.749 62.5022Z" fill="#455A64"/>
<path d="M157.756 324.913C158.023 324.752 158.328 324.667 158.639 324.667C158.95 324.667 159.256 324.752 159.522 324.913L159.986 325.182L160.45 325.407C160.738 325.538 160.984 325.748 161.158 326.013C161.333 326.278 161.43 326.586 161.437 326.903L161.512 329.088L168.605 328.863V326.693C168.606 326.388 168.688 326.089 168.843 325.826C168.999 325.563 169.221 325.346 169.488 325.197C169.803 325.032 170.108 324.848 170.4 324.643C170.656 324.463 170.956 324.358 171.268 324.339C171.58 324.321 171.891 324.39 172.166 324.539L174.081 325.556L177.433 319.302L175.518 318.269C175.248 318.124 175.023 317.908 174.867 317.644C174.712 317.38 174.631 317.079 174.635 316.773C174.658 316.419 174.658 316.064 174.635 315.71C174.602 315.4 174.658 315.086 174.796 314.805C174.933 314.525 175.147 314.289 175.413 314.124L177.269 312.972L173.528 306.987L171.657 308.139C171.392 308.303 171.086 308.39 170.774 308.39C170.463 308.39 170.157 308.303 169.892 308.139L169.443 307.87L168.979 307.63C168.689 307.499 168.441 307.29 168.264 307.025C168.087 306.761 167.987 306.452 167.976 306.134V303.949L160.869 304.174L160.944 306.343C160.942 306.649 160.86 306.948 160.705 307.211C160.55 307.474 160.327 307.691 160.061 307.84C159.747 308.004 159.447 308.199 159.148 308.393C158.894 308.576 158.594 308.684 158.282 308.705C157.97 308.726 157.658 308.66 157.382 308.513L155.467 307.481L152.115 313.75L154.031 314.768C154.297 314.916 154.52 315.133 154.675 315.396C154.83 315.659 154.912 315.959 154.913 316.264C154.891 316.618 154.891 316.973 154.913 317.326C154.944 317.637 154.888 317.95 154.75 318.23C154.613 318.511 154.4 318.747 154.135 318.912L152.28 320.065L156.021 326.05L157.756 324.913ZM159.537 313.705C160.08 312.694 160.91 311.865 161.923 311.324C162.936 310.783 164.086 310.554 165.229 310.665C166.371 310.776 167.456 311.223 168.345 311.949C169.235 312.675 169.89 313.647 170.228 314.745C170.566 315.842 170.572 317.015 170.245 318.115C169.919 319.216 169.274 320.195 168.392 320.93C167.509 321.665 166.43 322.123 165.288 322.246C164.147 322.369 162.994 322.151 161.976 321.621C161.299 321.265 160.698 320.779 160.209 320.19C159.719 319.602 159.351 318.922 159.124 318.191C158.898 317.46 158.817 316.692 158.888 315.93C158.959 315.168 159.18 314.427 159.537 313.75V313.705Z" fill="#455A64"/>
<path d="M175.039 333.426C175.225 333.538 175.376 333.7 175.477 333.892C175.577 334.085 175.622 334.302 175.607 334.518V335.252C175.622 335.468 175.577 335.685 175.477 335.878C175.376 336.07 175.225 336.232 175.039 336.344L173.707 337.107L176.191 341.372L177.523 340.609C177.71 340.495 177.925 340.435 178.144 340.435C178.363 340.435 178.577 340.495 178.765 340.609C178.97 340.747 179.185 340.872 179.408 340.983C179.599 341.084 179.759 341.235 179.872 341.419C179.986 341.603 180.047 341.814 180.051 342.03V343.526H185.034V342.03C185.038 341.812 185.102 341.599 185.218 341.415C185.334 341.23 185.498 341.081 185.693 340.983C185.915 340.872 186.13 340.747 186.336 340.609C186.523 340.495 186.738 340.435 186.957 340.435C187.176 340.435 187.391 340.495 187.578 340.609L188.895 341.372L191.379 337.062L190.047 336.299C189.861 336.187 189.709 336.026 189.609 335.833C189.509 335.64 189.464 335.424 189.478 335.207C189.478 335.087 189.478 334.967 189.478 334.833C189.478 334.698 189.478 334.593 189.478 334.474C189.463 334.255 189.51 334.037 189.613 333.844C189.716 333.65 189.872 333.49 190.062 333.381L191.379 332.618L188.91 328.339L187.593 329.102C187.406 329.215 187.191 329.275 186.972 329.275C186.753 329.275 186.538 329.215 186.351 329.102C186.145 328.963 185.93 328.838 185.708 328.728C185.511 328.628 185.345 328.477 185.229 328.289C185.113 328.102 185.05 327.886 185.049 327.665V326.169H180.066V327.665C180.065 327.884 180.004 328.098 179.891 328.285C179.778 328.472 179.616 328.625 179.423 328.728C179.199 328.834 178.983 328.959 178.78 329.102C178.592 329.215 178.378 329.275 178.159 329.275C177.94 329.275 177.725 329.215 177.538 329.102L176.206 328.339L173.722 332.663L175.039 333.426ZM182.52 330.808C183.329 330.808 184.119 331.048 184.791 331.497C185.464 331.947 185.987 332.585 186.296 333.333C186.605 334.08 186.685 334.902 186.526 335.695C186.367 336.488 185.976 337.216 185.404 337.786C184.831 338.357 184.102 338.745 183.308 338.901C182.515 339.057 181.693 338.974 180.947 338.662C180.201 338.351 179.564 337.825 179.117 337.151C178.67 336.477 178.432 335.686 178.435 334.878C178.435 334.339 178.542 333.806 178.749 333.31C178.957 332.813 179.261 332.362 179.643 331.984C180.026 331.605 180.48 331.306 180.979 331.104C181.478 330.903 182.012 330.802 182.55 330.808H182.52Z" fill="#455A64"/>
<path d="M570.145 192.248C569.502 185.874 565.103 179.515 557.367 179.515C549.631 179.515 545.246 185.874 544.603 192.248C543.63 202.109 550.274 211.042 557.367 219.182C564.489 211.042 571.118 202.109 570.145 192.248ZM557.367 199.341C555.985 199.338 554.636 198.926 553.488 198.156C552.341 197.386 551.448 196.294 550.921 195.017C550.395 193.74 550.259 192.335 550.53 190.981C550.801 189.626 551.468 188.382 552.446 187.407C553.424 186.431 554.669 185.767 556.024 185.498C557.379 185.23 558.783 185.369 560.059 185.899C561.335 186.428 562.426 187.324 563.193 188.472C563.96 189.621 564.369 190.972 564.369 192.353C564.369 193.272 564.188 194.182 563.836 195.031C563.484 195.88 562.968 196.651 562.317 197.3C561.667 197.949 560.895 198.463 560.045 198.813C559.196 199.164 558.286 199.343 557.367 199.341V199.341Z" fill="#455A64"/>
<path d="M339.876 177.675C337.273 199.986 322.938 204.086 320.544 210.041C319.327 213.781 318.328 217.588 317.551 221.443H294.253C293.482 217.582 292.482 213.769 291.26 210.026C288.881 204.041 274.531 199.986 271.928 177.675C270.207 163.011 281.235 139.863 305.894 139.863C330.554 139.863 341.537 163.011 339.876 177.675Z" fill="#FFC727"/>
<path d="M294 185.724L292.529 185.999L299.455 223.08L300.926 222.805L294 185.724Z" fill="white"/>
<path d="M317.856 185.771L310.924 222.851L312.395 223.126L319.327 186.046L317.856 185.771Z" fill="white"/>
<path d="M305.907 198.294C304.052 198.294 302.181 196.798 300.64 194.179C300.64 194.089 300.535 193.999 300.49 193.895C300.249 194.198 299.948 194.447 299.605 194.627C299.263 194.808 298.886 194.915 298.5 194.942C294.954 194.942 293.533 187.685 293.473 187.461L294.221 187.311C294.58 189.256 296.061 194.269 298.5 194.269C298.825 194.225 299.137 194.112 299.415 193.94C299.693 193.767 299.932 193.537 300.116 193.266C298.62 190.274 297.797 186.308 298.874 184.438C299.037 184.133 299.282 183.88 299.58 183.705C299.879 183.531 300.22 183.443 300.565 183.45C300.968 183.437 301.366 183.535 301.717 183.733C302.068 183.931 302.358 184.221 302.555 184.573C303.648 186.488 302.84 190.244 301.463 192.638C301.324 192.882 301.169 193.117 300.999 193.341L301.298 193.88C302.106 195.271 303.782 197.621 305.907 197.621C307.329 197.621 308.75 196.498 309.932 194.448L310.202 193.97C308.79 192.194 308.039 189.983 308.077 187.715C308.077 185.081 309.079 183.45 310.695 183.45C311.007 183.456 311.311 183.546 311.575 183.713C311.839 183.879 312.052 184.114 312.192 184.393C313.224 186.189 312.671 190.468 311.055 193.85C311.662 194.423 312.464 194.744 313.299 194.748C315.394 194.748 317.249 189.69 317.788 187.745L318.521 187.939C318.297 188.717 316.337 195.496 313.299 195.496C312.346 195.485 311.428 195.135 310.71 194.508L310.531 194.822C309.199 197.142 307.538 198.369 305.862 198.369L305.907 198.294ZM310.695 184.124C309.319 184.124 308.825 186.024 308.825 187.64C308.813 189.619 309.414 191.553 310.546 193.177C311.937 190.109 312.461 186.204 311.593 184.692C311.512 184.523 311.385 184.38 311.226 184.279C311.067 184.179 310.883 184.125 310.695 184.124ZM300.565 184.124C300.352 184.114 300.141 184.167 299.957 184.276C299.774 184.385 299.626 184.545 299.533 184.737C298.725 186.129 299.248 189.511 300.625 192.503L300.805 192.189C302.062 190.019 302.825 186.473 301.897 184.872C301.771 184.632 301.578 184.434 301.342 184.301C301.105 184.169 300.836 184.107 300.565 184.124V184.124Z" fill="white"/>
<path d="M320.287 220.454H291.527V226.08H320.287V220.454Z" fill="#263238"/>
<path d="M320.287 226.979H291.527V232.605H320.287V226.979Z" fill="#263238"/>
<path d="M320.287 233.518H291.527V239.144H320.287V233.518Z" fill="#263238"/>
<path d="M305.46 130.914C304.911 129.43 304.632 127.859 304.637 126.276C304.569 124.697 304.793 123.12 305.295 121.622C305.843 123.102 306.122 124.668 306.118 126.246C306.187 127.829 305.963 129.412 305.46 130.914V130.914Z" fill="#263238"/>
<path d="M284.241 136.825C283.04 135.814 282.027 134.598 281.249 133.234C280.405 131.895 279.812 130.415 279.498 128.864C280.697 129.884 281.71 131.104 282.491 132.47C283.334 133.803 283.927 135.279 284.241 136.825Z" fill="#263238"/>
<path d="M268.829 152.566C267.25 152.304 265.73 151.762 264.34 150.965C262.941 150.232 261.688 149.248 260.645 148.062C262.224 148.325 263.744 148.867 265.134 149.664C266.533 150.397 267.786 151.381 268.829 152.566V152.566Z" fill="#263238"/>
<path d="M263.353 173.903C261.868 174.452 260.297 174.731 258.714 174.726C257.136 174.794 255.558 174.57 254.061 174.068C257.058 173.007 260.319 172.949 263.353 173.903V173.903Z" fill="#263238"/>
<path d="M269.277 195.107C267.201 197.513 264.413 199.195 261.316 199.911C262.319 198.701 263.537 197.686 264.908 196.918C266.246 196.061 267.725 195.448 269.277 195.107V195.107Z" fill="#263238"/>
<path d="M343.033 194.359C344.612 194.617 346.132 195.154 347.522 195.945C348.918 196.683 350.17 197.667 351.218 198.848C349.638 198.597 348.117 198.059 346.729 197.262C345.339 196.515 344.088 195.533 343.033 194.359V194.359Z" fill="#263238"/>
<path d="M348.449 173.02C349.935 172.473 351.505 172.19 353.088 172.182C354.667 172.127 356.243 172.355 357.741 172.855C354.74 173.895 351.486 173.953 348.449 173.02V173.02Z" fill="#263238"/>
<path d="M342.539 151.803C343.55 150.601 344.766 149.588 346.13 148.81C347.467 147.965 348.948 147.371 350.499 147.06C349.48 148.258 348.26 149.271 346.893 150.052C345.56 150.895 344.085 151.489 342.539 151.803Z" fill="#263238"/>
<path d="M326.797 136.375C327.059 134.796 327.602 133.276 328.398 131.886C329.131 130.487 330.115 129.234 331.301 128.19C330.704 131.306 329.132 134.151 326.812 136.315L326.797 136.375Z" fill="#263238"/>
<path d="M421.348 306.598L399.893 291.462V283.446L421.348 268.154V276.249L405.978 287.415L421.348 298.581V306.598Z" fill="#455A64"/>
<path d="M427.861 309.3L444.196 248.602H451.169L434.756 309.3H427.861Z" fill="#455A64"/>
<path d="M457.686 306.598V298.581L473.143 287.347L457.686 276.249V268.154L479.199 283.368V291.394L457.686 306.598Z" fill="#455A64"/>
<path d="M473.601 138.681C467.896 141.813 461.55 143.598 455.048 143.902C448.547 144.205 442.062 143.017 436.09 140.43C430.118 137.843 424.816 133.925 420.59 128.975C416.365 124.024 413.327 118.174 411.709 111.869C410.091 105.565 409.936 98.9745 411.256 92.6012C412.576 86.228 415.335 80.2408 419.324 75.0975C423.312 69.9542 428.423 65.7909 434.267 62.9259C440.111 60.0609 446.533 58.5701 453.042 58.5674V101.258L473.601 138.681Z" fill="#EBEBEB"/>
<path d="M478.314 66.9021L452.996 101.318V58.5675C462.113 58.5448 470.993 61.4682 478.314 66.9021Z" fill="#FFC727"/>
<path d="M495.733 101.258C495.75 111.99 491.703 122.329 484.405 130.197L452.982 101.258L478.3 66.8428C483.711 70.8015 488.109 75.982 491.139 81.9625C494.168 87.943 495.742 94.5544 495.733 101.258V101.258Z" fill="#A6A6A6"/>
<path d="M499.773 149.993C496.653 153.389 493.005 156.259 488.97 158.492L468.41 121.084L499.773 149.993Z" fill="#455A64"/>
</svg>
