<svg width="869" height="557" viewBox="0 0 869 557" fill="none" xmlns="http://www.w3.org/2000/svg">
<path d="M862.799 474.252H860.363V472.528H861.175V471.667H862.799V474.252Z" fill="#EBEBEB"/>
<path d="M857.073 474.252H853.771V472.528H857.073V474.252ZM850.483 474.252H847.181V472.528H850.483V474.252ZM843.893 474.252H840.604V472.528H843.893V474.252ZM837.302 474.252H833.973V472.528H837.261L837.302 474.252ZM830.726 474.252H827.424V472.528H830.726V474.252ZM824.135 474.252H820.833V472.528H824.135V474.252ZM817.545 474.252H814.257V472.528H817.545V474.252ZM810.955 474.252H807.666V472.528H810.955V474.252ZM804.378 474.252H801.076V472.528H804.378V474.252ZM797.788 474.252H794.486V472.528H797.788V474.252ZM791.197 474.252H787.909V472.528H791.197V474.252ZM784.607 474.252H781.319V472.528H784.607V474.252ZM778.017 474.252H774.729V472.528H778.017V474.252Z" fill="#EBEBEB"/>
<path d="M771.441 474.252H768.992V471.667H770.629V472.528H771.441V474.252Z" fill="#EBEBEB"/>
<path d="M770.684 468.161H769.047V464.671H770.684V468.161ZM770.684 461.18H769.047V457.675H770.684V461.18ZM770.684 454.185H769.047V450.68H770.684V454.185ZM770.684 447.189H769.047V443.699H770.684V447.189ZM770.684 440.194H769.047V436.674H770.684V440.194ZM770.684 433.198H769.047V429.708H770.684V433.198ZM770.684 426.217H769.047V422.712H770.684V426.217ZM770.684 419.222H769.047V415.731H770.684V419.222ZM770.684 412.226H769.047V408.736H770.684V412.226ZM770.684 405.231H769.047V401.74H770.684V405.231ZM770.684 398.25H769.047V394.745H770.684V398.25ZM770.684 391.254H769.047V387.764H770.684V391.254ZM770.684 384.259H769.047V380.768H770.684V384.259Z" fill="#EBEBEB"/>
<path d="M770.629 377.263H768.992V374.678H771.441V376.402H770.629V377.263Z" fill="#EBEBEB"/>
<path d="M857.073 376.402H853.771V374.678H857.073V376.402ZM850.483 376.402H847.181V374.678H850.483V376.402ZM843.893 376.402H840.604V374.678H843.893V376.402ZM837.302 376.402H833.973V374.678H837.261L837.302 376.402ZM830.726 376.402H827.424V374.678H830.726V376.402ZM824.135 376.402H820.833V374.678H824.135V376.402ZM817.545 376.402H814.257V374.678H817.545V376.402ZM810.955 376.402H807.666V374.678H810.955V376.402ZM804.378 376.402H801.076V374.678H804.378V376.402ZM797.788 376.402H794.486V374.678H797.788V376.402ZM791.197 376.402H787.909V374.678H791.197V376.402ZM784.607 376.402H781.319V374.678H784.607V376.402ZM778.017 376.402H774.729V374.678H778.017V376.402Z" fill="#EBEBEB"/>
<path d="M862.799 377.263H861.175V376.402H860.363V374.678H862.799V377.263Z" fill="#EBEBEB"/>
<path d="M862.866 468.161H861.242V464.671H862.866V468.161ZM862.866 461.18H861.242V457.675H862.866V461.18ZM862.866 454.185H861.242V450.68H862.866V454.185ZM862.866 447.189H861.242V443.699H862.866V447.189ZM862.866 440.194H861.242V436.674H862.866V440.194ZM862.866 433.198H861.242V429.708H862.866V433.198ZM862.866 426.217H861.242V422.712H862.866V426.217ZM862.866 419.222H861.242V415.731H862.866V419.222ZM862.866 412.226H861.242V408.736H862.866V412.226ZM862.866 405.231H861.242V401.74H862.866V405.231ZM862.866 398.25H861.242V394.745H862.866V398.25ZM862.866 391.254H861.242V387.764H862.866V391.254ZM862.866 384.259H861.242V380.768H862.866V384.259Z" fill="#EBEBEB"/>
<path d="M775.555 467.299H764.066V479.494H775.555V467.299Z" fill="white"/>
<path d="M776.366 480.356H763.254V466.423H776.366V480.356ZM764.877 478.618H774.811V468.161H764.946L764.877 478.618Z" fill="#EBEBEB"/>
<path d="M775.555 418.375H764.066V430.569H775.555V418.375Z" fill="white"/>
<path d="M776.366 431.431H763.254V417.499H776.366V431.431ZM764.877 429.693H774.811V419.236H764.946L764.877 429.693Z" fill="#EBEBEB"/>
<path d="M775.555 369.45H764.066V381.644H775.555V369.45Z" fill="white"/>
<path d="M776.366 382.506H763.254V368.573H776.366V382.506ZM764.877 380.768H774.811V370.311H764.946L764.877 380.768Z" fill="#EBEBEB"/>
<path d="M867.736 467.299H856.248V479.494H867.736V467.299Z" fill="white"/>
<path d="M868.547 480.356H855.436V466.423H868.547V480.356ZM857.059 478.618H866.993V468.161H857.128L857.059 478.618Z" fill="#EBEBEB"/>
<path d="M867.736 418.375H856.248V430.569H867.736V418.375Z" fill="white"/>
<path d="M868.547 431.431H855.436V417.499H868.547V431.431ZM857.059 429.693H866.993V419.236H857.128L857.059 429.693Z" fill="#EBEBEB"/>
<path d="M867.736 369.45H856.248V381.644H867.736V369.45Z" fill="white"/>
<path d="M868.547 382.506H855.436V368.573H868.547V382.506ZM857.059 380.768H866.993V370.311H857.128L857.059 380.768Z" fill="#EBEBEB"/>
<path d="M821.645 369.45H810.156V381.644H821.645V369.45Z" fill="white"/>
<path d="M822.458 382.506H809.346V368.573H822.458V382.506ZM810.969 380.768H820.834V370.311H810.969V380.768Z" fill="#EBEBEB"/>
<path d="M821.645 467.299H810.156V479.494H821.645V467.299Z" fill="white"/>
<path d="M822.458 480.356H809.346V466.423H822.458V480.356ZM810.969 478.618H820.834V468.161H810.969V478.618Z" fill="#EBEBEB"/>
<path d="M817.009 436.105H798.614L791.473 457.398H798.435V459.268H784.223V457.398H788.57L812.262 389.663H819.885L843.274 457.398H847.553V459.268H817.202V457.398H823.792L817.009 436.105ZM799.453 433.929H816.266L808.19 408.093L799.453 433.929Z" fill="#DBDBDB"/>
<path d="M86.0049 40.8925C86.0049 40.8925 85.6884 60.112 74.09 81.9165H57.7586C46.174 60.039 45.8438 40.8925 45.8438 40.8925C62.6154 30.9322 63.0557 8.64578 63.0557 8.64578H64.748V43.8134C63.5229 44.1196 62.4466 44.893 61.7237 45.9865C61.0007 47.08 60.6815 48.4173 60.8267 49.7443C60.9719 51.0713 61.5714 52.2954 62.5113 53.1839C63.4511 54.0724 64.6658 54.5633 65.9243 54.5633C67.1829 54.5633 68.3975 54.0724 69.3374 53.1839C70.2772 52.2954 70.8768 51.0713 71.022 49.7443C71.1672 48.4173 70.848 47.08 70.125 45.9865C69.402 44.893 68.3257 44.1196 67.1007 43.8134V8.57275H68.793C68.793 8.57275 69.2332 30.8592 86.0049 40.8925Z" fill="#EBEBEB"/>
<path d="M77.9977 79.7261H53.8652V90.5042H77.9977V79.7261Z" fill="#C7C7C7"/>
<path d="M121.956 66.2605H120.332C120.332 50.9453 114.601 36.2573 104.398 25.4278C94.1962 14.5983 80.3591 8.51435 65.931 8.51435C51.5029 8.51435 37.6657 14.5983 27.4635 25.4278C17.2613 36.2573 11.5298 50.9453 11.5298 66.2605H9.90625C9.90625 50.4882 15.8088 35.3619 26.3155 24.2092C36.8222 13.0565 51.0723 6.79102 65.931 6.79102C80.7897 6.79102 95.0398 13.0565 105.546 24.2092C116.053 35.3619 121.956 50.4882 121.956 66.2605V66.2605Z" fill="#EBEBEB"/>
<path d="M121.145 6.0752H9.45312V7.79852H121.145V6.0752Z" fill="#EBEBEB"/>
<path d="M16.4571 60.1558H4.96875V72.3505H16.4571V60.1558Z" fill="white"/>
<path d="M17.2681 73.212H4.15625V59.2939H17.2681V73.212ZM5.77976 71.5617H15.6446V61.0173H5.77976V71.5617Z" fill="#EBEBEB"/>
<path d="M16.4571 0.83252H4.96875V13.0273H16.4571V0.83252Z" fill="white"/>
<path d="M17.2681 13.8889H4.15625V0H17.2681V13.8889ZM5.77976 12.1655H15.6446V1.69412H5.77976V12.1655Z" fill="#EBEBEB"/>
<path d="M126.883 60.1558H115.395V72.3505H126.883V60.1558Z" fill="white"/>
<path d="M127.692 73.212H114.58V59.2939H127.692V73.212ZM116.204 71.5617H126.068V61.0173H116.204V71.5617Z" fill="#EBEBEB"/>
<path d="M126.883 0.83252H115.395V13.0273H126.883V0.83252Z" fill="white"/>
<path d="M127.692 13.8889H114.58V0H127.692V13.8889ZM116.204 12.1655H126.068V1.69412H116.204V12.1655Z" fill="#EBEBEB"/>
<path d="M174.238 275.017H0V148.484H174.238V275.017ZM1.37585 273.557H172.862V149.944H1.37585V273.557Z" fill="#EBEBEB"/>
<path d="M13.6218 156.633C13.6218 157.361 13.4185 158.073 13.0375 158.678C12.6565 159.283 12.115 159.755 11.4815 160.034C10.8479 160.312 10.1508 160.385 9.47824 160.243C8.80568 160.101 8.18789 159.751 7.703 159.236C7.21811 158.721 6.8879 158.065 6.75412 157.351C6.62034 156.638 6.689 155.898 6.95142 155.225C7.21384 154.553 7.65824 153.978 8.22841 153.573C8.79858 153.169 9.46892 152.953 10.1547 152.953C11.0742 152.953 11.9561 153.341 12.6063 154.031C13.2565 154.721 13.6218 155.657 13.6218 156.633V156.633Z" fill="#A6A6A6"/>
<path d="M27.7234 156.633C27.7234 157.361 27.52 158.073 27.139 158.678C26.7581 159.283 26.2166 159.755 25.583 160.034C24.9495 160.312 24.2524 160.385 23.5798 160.243C22.9072 160.101 22.2895 159.751 21.8046 159.236C21.3197 158.721 20.9895 158.065 20.8557 157.351C20.7219 156.638 20.7906 155.898 21.053 155.225C21.3154 154.553 21.7598 153.978 22.33 153.573C22.9001 153.169 23.5705 152.953 24.2562 152.953C25.1758 152.953 26.0576 153.341 26.7079 154.031C27.3581 154.721 27.7234 155.657 27.7234 156.633V156.633Z" fill="#EBEBEB"/>
<path d="M41.9343 156.633C41.9343 157.361 41.731 158.073 41.35 158.678C40.969 159.283 40.4275 159.755 39.794 160.034C39.1604 160.312 38.4633 160.385 37.7907 160.243C37.1182 160.101 36.5004 159.751 36.0155 159.236C35.5306 158.721 35.2004 158.065 35.0666 157.351C34.9328 156.638 35.0015 155.898 35.2639 155.225C35.5263 154.553 35.9707 153.978 36.5409 153.573C37.1111 153.169 37.7814 152.953 38.4671 152.953C39.3867 152.953 40.2686 153.341 40.9188 154.031C41.569 154.721 41.9343 155.657 41.9343 156.633V156.633Z" fill="#FFC727"/>
<path d="M173.55 163.118H0.6875V164.578H173.55V163.118Z" fill="#EBEBEB"/>
<path d="M836.355 269.657L844.458 255.798L840.455 253.169C839.884 252.784 839.425 252.239 839.126 251.595C838.828 250.951 838.702 250.233 838.762 249.518C838.811 248.706 838.811 247.891 838.762 247.079C838.746 246.362 838.915 245.655 839.253 245.034C839.59 244.413 840.082 243.903 840.675 243.559L844.802 241.193L837.538 226.822L833.41 229.174C832.816 229.513 832.143 229.669 831.469 229.622C830.796 229.576 830.148 229.329 829.599 228.911C828.966 228.458 828.306 228.02 827.646 227.64C827.049 227.3 826.553 226.791 826.213 226.17C825.873 225.548 825.702 224.839 825.719 224.121L825.871 219.126L810.585 218.615L810.447 223.624C810.419 224.342 810.203 225.038 809.824 225.633C809.445 226.229 808.918 226.701 808.301 226.998L807.297 227.538L806.306 228.137C805.734 228.513 805.074 228.713 804.401 228.713C803.727 228.713 803.067 228.513 802.495 228.137L798.464 225.493L790.374 239.353L794.377 241.982C794.95 242.365 795.411 242.909 795.71 243.553C796.009 244.198 796.133 244.918 796.07 245.633C796.001 246.444 795.973 247.258 795.987 248.072C796.007 248.786 795.841 249.491 795.505 250.11C795.17 250.729 794.68 251.237 794.088 251.577L789.961 253.943L797.225 268.328L801.353 265.962C801.949 265.63 802.621 265.478 803.293 265.524C803.966 265.571 804.613 265.813 805.164 266.225C805.797 266.678 806.444 267.116 807.104 267.496C807.704 267.833 808.203 268.341 808.546 268.963C808.889 269.584 809.061 270.295 809.044 271.016L808.893 276.025L824.247 276.522L824.399 271.512C824.429 270.798 824.644 270.107 825.02 269.514C825.396 268.922 825.919 268.451 826.531 268.153C826.875 267.993 827.219 267.803 827.549 267.613C827.879 267.423 828.21 267.218 828.54 267.014C829.115 266.638 829.777 266.439 830.452 266.439C831.128 266.439 831.79 266.638 832.365 267.014L836.355 269.657ZM823.353 259.434C821.161 260.681 818.67 261.211 816.194 260.957C813.719 260.702 811.37 259.676 809.444 258.006C807.517 256.336 806.1 254.098 805.371 251.574C804.642 249.05 804.633 246.353 805.346 243.824C806.059 241.295 807.462 239.047 809.378 237.363C811.293 235.68 813.636 234.636 816.109 234.364C818.583 234.092 821.077 234.603 823.277 235.834C825.477 237.066 827.285 238.961 828.471 241.281C829.254 242.825 829.742 244.517 829.908 246.261C830.074 248.006 829.915 249.767 829.44 251.446C828.965 253.125 828.183 254.688 827.138 256.046C826.094 257.405 824.807 258.531 823.353 259.361V259.434Z" fill="#EBEBEB"/>
<path d="M74.2548 470.104L82.3448 456.244L78.3549 453.615C77.7809 453.233 77.3178 452.689 77.0167 452.045C76.7156 451.401 76.5883 450.681 76.6488 449.964C76.7178 449.153 76.7453 448.339 76.7314 447.525C76.7081 446.805 76.8732 446.092 77.2084 445.466C77.5435 444.84 78.0356 444.324 78.63 443.976L82.7576 441.625L75.4931 427.24L71.3655 429.605C70.7799 429.928 70.1228 430.077 69.464 430.036C68.8053 429.995 68.1692 429.765 67.6232 429.372C66.9968 428.902 66.3444 428.473 65.6695 428.087C65.0742 427.745 64.5793 427.236 64.2394 426.615C63.8995 425.994 63.7278 425.285 63.7433 424.567L63.8947 419.572L48.5401 419.061L48.3613 424.07C48.3363 424.789 48.1236 425.487 47.7471 426.085C47.3705 426.683 46.8449 427.159 46.2287 427.459C45.8847 427.619 45.5408 427.809 45.2106 427.999C44.8804 428.189 44.5502 428.379 44.2337 428.583C43.6587 428.959 42.9966 429.158 42.3213 429.158C41.6459 429.158 40.9838 428.959 40.4088 428.583L36.3914 425.94L28.2876 439.799L32.25 442.516C32.8248 442.896 33.2879 443.44 33.5869 444.085C33.8859 444.73 34.0091 445.451 33.9423 446.167C33.8941 446.974 33.8941 447.784 33.9423 448.591C33.9576 449.308 33.7873 450.015 33.4501 450.635C33.1129 451.256 32.6216 451.766 32.0299 452.111L27.9023 454.462L35.0843 468.804L39.2119 466.438C39.8083 466.105 40.4798 465.953 41.1523 466C41.8247 466.046 42.4721 466.289 43.023 466.701C43.6496 467.166 44.302 467.59 44.9767 467.971C45.571 468.314 46.065 468.824 46.4047 469.445C46.7444 470.065 46.9168 470.773 46.9029 471.491L46.7515 476.5L62.1198 476.997L62.2574 472.002C62.2855 471.286 62.5013 470.592 62.8805 469.999C63.2596 469.405 63.7871 468.936 64.4037 468.643L65.4218 468.088C65.7521 467.898 66.0823 467.709 66.3987 467.489C66.9752 467.111 67.6399 466.91 68.318 466.91C68.9961 466.91 69.6608 467.111 70.2373 467.489L74.2548 470.104ZM61.253 459.808C59.0586 461.058 56.5642 461.589 54.0853 461.334C51.6064 461.079 49.2545 460.049 47.327 458.375C45.3996 456.701 43.9833 454.458 43.2573 451.929C42.5312 449.4 42.5281 446.699 43.2484 444.169C43.9686 441.638 45.3798 439.391 47.3034 437.712C49.227 436.033 51.5766 434.997 54.0549 434.736C56.5332 434.474 59.0288 434.999 61.2261 436.243C63.4233 437.488 65.2234 439.396 66.3987 441.727C67.1801 443.273 67.6669 444.967 67.8311 446.712C67.9954 448.458 67.834 450.22 67.3561 451.899C66.8782 453.579 66.0932 455.141 65.046 456.498C63.9988 457.855 62.7099 458.98 61.253 459.808V459.808Z" fill="#EBEBEB"/>
<path d="M781.305 164.417L775.926 154.53L773.078 156.268C772.66 156.535 772.178 156.669 771.69 156.653C771.202 156.638 770.729 156.473 770.326 156.18C769.872 155.874 769.418 155.582 768.95 155.319C768.534 155.09 768.186 154.744 767.943 154.319C767.7 153.894 767.573 153.406 767.574 152.909V149.404H756.801V152.909C756.803 153.406 756.676 153.894 756.433 154.319C756.19 154.744 755.842 155.09 755.426 155.319C754.953 155.58 754.494 155.868 754.05 156.18C753.647 156.473 753.174 156.638 752.686 156.653C752.198 156.669 751.716 156.535 751.298 156.268L748.436 154.53L743.057 164.417L745.932 166.17C746.34 166.427 746.673 166.8 746.894 167.246C747.115 167.691 747.215 168.194 747.184 168.696C747.184 168.974 747.184 169.251 747.184 169.529C747.184 169.806 747.184 170.098 747.184 170.376C747.213 170.876 747.111 171.375 746.89 171.818C746.669 172.261 746.338 172.631 745.932 172.888L743.057 174.655L748.436 184.542L751.298 182.79C751.719 182.528 752.201 182.399 752.688 182.417C753.175 182.435 753.647 182.6 754.05 182.892C754.504 183.199 754.972 183.491 755.426 183.754C755.842 183.982 756.19 184.328 756.433 184.753C756.676 185.178 756.803 185.666 756.801 186.163V189.654H767.574V186.163C767.574 185.666 767.702 185.179 767.945 184.754C768.188 184.329 768.535 183.983 768.95 183.754C769.423 183.492 769.882 183.204 770.326 182.892C770.729 182.6 771.201 182.435 771.688 182.417C772.175 182.399 772.657 182.528 773.078 182.79L775.94 184.542L781.319 174.655L778.457 172.902C778.051 172.644 777.72 172.271 777.501 171.825C777.283 171.379 777.185 170.877 777.219 170.376C777.219 170.098 777.219 169.821 777.219 169.529C777.219 169.237 777.219 168.974 777.219 168.696C777.185 168.193 777.284 167.69 777.505 167.243C777.726 166.797 778.061 166.425 778.471 166.17L781.305 164.417ZM771.014 169.529C771.014 171.381 770.496 173.191 769.527 174.731C768.557 176.271 767.179 177.471 765.567 178.179C763.954 178.887 762.18 179.072 760.469 178.709C758.758 178.347 757.187 177.454 755.954 176.143C754.721 174.832 753.882 173.163 753.543 171.346C753.205 169.529 753.381 167.646 754.051 165.936C754.72 164.226 755.853 162.765 757.305 161.738C758.757 160.711 760.464 160.164 762.209 160.167C763.366 160.167 764.512 160.41 765.581 160.88C766.651 161.351 767.622 162.041 768.44 162.91C769.258 163.78 769.906 164.812 770.348 165.947C770.789 167.083 771.016 168.3 771.014 169.529V169.529Z" fill="#EBEBEB"/>
<path d="M692.284 8.09082H180.164V404.836H692.284V8.09082Z" fill="#C7C7C7"/>
<path d="M692.532 8.09082H180.164V22.9436H692.532V8.09082Z" fill="#263238"/>
<path d="M192.438 15.5095C192.438 16.1709 192.253 16.8175 191.907 17.3675C191.561 17.9175 191.069 18.3462 190.493 18.5993C189.917 18.8524 189.284 18.9187 188.673 18.7896C188.062 18.6606 187.5 18.3421 187.06 17.8743C186.619 17.4066 186.319 16.8107 186.197 16.1619C186.076 15.5132 186.138 14.8407 186.377 14.2296C186.615 13.6185 187.019 13.0962 187.537 12.7287C188.055 12.3612 188.664 12.165 189.287 12.165C190.123 12.165 190.924 12.5174 191.515 13.1446C192.106 13.7718 192.438 14.6225 192.438 15.5095Z" fill="#C7C7C7"/>
<path d="M205.29 15.5095C205.29 16.1709 205.105 16.8175 204.759 17.3675C204.412 17.9175 203.92 18.3462 203.345 18.5993C202.769 18.8524 202.135 18.9187 201.524 18.7896C200.913 18.6606 200.352 18.3421 199.911 17.8743C199.47 17.4066 199.17 16.8107 199.049 16.1619C198.927 15.5132 198.99 14.8407 199.228 14.2296C199.467 13.6185 199.87 13.0962 200.389 12.7287C200.907 12.3612 201.516 12.165 202.139 12.165C202.975 12.165 203.776 12.5174 204.367 13.1446C204.958 13.7718 205.29 14.6225 205.29 15.5095Z" fill="white"/>
<path d="M218.139 15.5095C218.139 16.1709 217.955 16.8175 217.608 17.3675C217.262 17.9175 216.77 18.3462 216.194 18.5993C215.619 18.8524 214.985 18.9187 214.374 18.7896C213.763 18.6606 213.201 18.3421 212.761 17.8743C212.32 17.4066 212.02 16.8107 211.898 16.1619C211.777 15.5132 211.839 14.8407 212.078 14.2296C212.316 13.6185 212.72 13.0962 213.238 12.7287C213.756 12.3612 214.365 12.165 214.989 12.165C215.824 12.165 216.626 12.5174 217.217 13.1446C217.807 13.7718 218.139 14.6225 218.139 15.5095Z" fill="#FFC727"/>
<path d="M642.082 72.6572H230.633V363.359H642.082V72.6572Z" fill="white"/>
<path d="M341.524 273.571V271.644C357.44 271.644 372.999 266.634 386.233 257.247C399.467 247.861 409.781 234.52 415.872 218.911C421.963 203.303 423.557 186.127 420.451 169.557C417.346 152.987 409.682 137.766 398.428 125.82C387.173 113.873 372.834 105.738 357.224 102.442C341.613 99.1457 325.433 100.837 310.728 107.303C296.024 113.768 283.455 124.717 274.613 138.764C265.77 152.812 261.05 169.327 261.05 186.222H259.234C259.232 168.945 264.056 152.056 273.096 137.689C282.136 123.323 294.987 112.125 310.024 105.511C325.06 98.8977 341.606 97.1658 357.57 100.535C373.533 103.903 388.197 112.221 399.707 124.437C411.217 136.652 419.055 152.216 422.232 169.161C425.408 186.105 423.779 203.669 417.551 219.631C411.323 235.593 400.776 249.236 387.243 258.835C373.711 268.433 357.8 273.557 341.524 273.557V273.571Z" fill="#FFC727"/>
<path d="M264.56 186.236C264.56 187.163 264.301 188.069 263.815 188.84C263.33 189.611 262.64 190.212 261.833 190.567C261.026 190.922 260.138 191.015 259.281 190.834C258.425 190.653 257.638 190.206 257.02 189.551C256.402 188.895 255.982 188.06 255.811 187.15C255.641 186.241 255.728 185.298 256.063 184.442C256.397 183.585 256.963 182.853 257.689 182.338C258.416 181.823 259.27 181.548 260.143 181.548C261.314 181.548 262.438 182.042 263.266 182.921C264.094 183.8 264.56 184.993 264.56 186.236Z" fill="white"/>
<path d="M260.143 191.888C259.09 191.888 258.06 191.556 257.185 190.935C256.309 190.314 255.627 189.432 255.224 188.399C254.821 187.366 254.715 186.23 254.921 185.133C255.126 184.037 255.633 183.03 256.378 182.239C257.123 181.449 258.071 180.911 259.104 180.693C260.137 180.475 261.208 180.586 262.181 181.014C263.153 181.442 263.985 182.166 264.57 183.096C265.155 184.025 265.467 185.118 265.467 186.236C265.464 187.734 264.902 189.169 263.904 190.228C262.906 191.287 261.554 191.884 260.143 191.888ZM260.143 182.497C259.446 182.497 258.765 182.716 258.186 183.127C257.607 183.538 257.155 184.122 256.889 184.805C256.622 185.488 256.553 186.24 256.688 186.965C256.824 187.691 257.16 188.357 257.652 188.88C258.145 189.403 258.773 189.759 259.456 189.903C260.139 190.047 260.847 189.973 261.491 189.69C262.134 189.407 262.684 188.928 263.072 188.313C263.459 187.698 263.665 186.975 263.665 186.236C263.651 185.255 263.273 184.318 262.614 183.63C261.955 182.941 261.068 182.555 260.143 182.556V182.497Z" fill="#FFC727"/>
<path d="M316.801 168.214C316.801 170.236 316.236 172.213 315.178 173.894C314.12 175.575 312.615 176.886 310.856 177.659C309.096 178.433 307.159 178.636 305.291 178.241C303.423 177.847 301.707 176.873 300.36 175.443C299.013 174.013 298.096 172.192 297.724 170.209C297.353 168.226 297.543 166.17 298.272 164.302C299.001 162.434 300.236 160.837 301.819 159.714C303.403 158.591 305.265 157.991 307.17 157.991C309.724 157.991 312.174 159.068 313.98 160.986C315.786 162.903 316.801 165.503 316.801 168.214V168.214Z" fill="#FFC727"/>
<path d="M385.442 168.214C385.442 170.236 384.877 172.213 383.819 173.894C382.76 175.575 381.256 176.886 379.496 177.659C377.736 178.433 375.8 178.636 373.932 178.241C372.064 177.847 370.347 176.873 369.001 175.443C367.654 174.013 366.736 172.192 366.365 170.209C365.993 168.226 366.184 166.17 366.913 164.302C367.642 162.434 368.876 160.837 370.46 159.714C372.044 158.591 373.906 157.991 375.811 157.991C378.365 157.991 380.815 159.068 382.621 160.986C384.427 162.903 385.442 165.503 385.442 168.214V168.214Z" fill="#FFC727"/>
<path d="M422.893 190.924C425.332 190.924 427.31 188.825 427.31 186.236C427.31 183.647 425.332 181.548 422.893 181.548C420.454 181.548 418.477 183.647 418.477 186.236C418.477 188.825 420.454 190.924 422.893 190.924Z" fill="white"/>
<path d="M422.893 191.888C421.84 191.888 420.81 191.556 419.935 190.935C419.059 190.314 418.377 189.432 417.974 188.399C417.571 187.366 417.465 186.23 417.671 185.133C417.876 184.037 418.383 183.03 419.128 182.239C419.873 181.449 420.821 180.911 421.854 180.693C422.887 180.475 423.958 180.586 424.931 181.014C425.904 181.442 426.735 182.166 427.32 183.096C427.905 184.025 428.217 185.118 428.217 186.236C428.217 187.735 427.657 189.172 426.658 190.232C425.659 191.292 424.305 191.888 422.893 191.888ZM422.893 182.497C422.196 182.497 421.515 182.716 420.936 183.127C420.357 183.538 419.905 184.122 419.639 184.805C419.372 185.488 419.303 186.24 419.438 186.965C419.574 187.691 419.91 188.357 420.402 188.88C420.895 189.403 421.523 189.759 422.206 189.903C422.889 190.047 423.597 189.973 424.241 189.69C424.884 189.407 425.435 188.928 425.822 188.313C426.209 187.698 426.415 186.975 426.415 186.236C426.401 185.255 426.023 184.318 425.364 183.63C424.705 182.941 423.818 182.555 422.893 182.556V182.497Z" fill="#FFC727"/>
<path d="M345.942 99.8511C345.942 100.778 345.683 101.685 345.198 102.456C344.713 103.227 344.023 103.827 343.216 104.182C342.409 104.537 341.521 104.63 340.664 104.449C339.808 104.268 339.021 103.822 338.403 103.166C337.785 102.51 337.365 101.675 337.194 100.766C337.024 99.8563 337.111 98.9137 337.446 98.0571C337.78 97.2005 338.346 96.4683 339.072 95.9532C339.799 95.438 340.652 95.1631 341.526 95.1631C342.697 95.1631 343.821 95.657 344.649 96.5362C345.477 97.4154 345.942 98.6078 345.942 99.8511V99.8511Z" fill="white"/>
<path d="M341.524 105.503C340.47 105.506 339.439 105.177 338.562 104.558C337.685 103.938 337 103.057 336.595 102.024C336.19 100.992 336.082 99.8548 336.286 98.7575C336.49 97.6601 336.996 96.6517 337.74 95.8598C338.484 95.0679 339.433 94.5282 340.466 94.3089C341.5 94.0896 342.571 94.2007 343.545 94.628C344.518 95.0554 345.351 95.7798 345.936 96.7096C346.522 97.6393 346.835 98.7327 346.835 99.8511C346.831 101.346 346.271 102.78 345.276 103.838C344.281 104.897 342.933 105.495 341.524 105.503V105.503ZM341.524 96.127C340.826 96.1241 340.143 96.3413 339.562 96.751C338.981 97.1607 338.527 97.7445 338.259 98.4282C337.99 99.112 337.919 99.8649 338.055 100.592C338.19 101.318 338.526 101.986 339.02 102.509C339.513 103.033 340.142 103.39 340.826 103.533C341.511 103.677 342.22 103.602 342.864 103.317C343.509 103.032 344.058 102.551 344.444 101.934C344.83 101.317 345.035 100.592 345.032 99.8511C345.029 98.8646 344.658 97.9196 344.001 97.222C343.344 96.5244 342.453 96.1308 341.524 96.127V96.127Z" fill="#FFC727"/>
<path d="M345.942 272.578C345.942 273.505 345.683 274.411 345.198 275.182C344.713 275.953 344.023 276.554 343.216 276.909C342.409 277.264 341.521 277.357 340.664 277.176C339.808 276.995 339.021 276.548 338.403 275.893C337.785 275.237 337.365 274.402 337.194 273.492C337.024 272.583 337.111 271.64 337.446 270.784C337.78 269.927 338.346 269.195 339.072 268.68C339.799 268.165 340.652 267.89 341.526 267.89C342.697 267.89 343.821 268.384 344.649 269.263C345.477 270.142 345.942 271.334 345.942 272.578V272.578Z" fill="#FFC727"/>
<path d="M359.536 165.907C359.406 170.887 357.451 175.618 354.086 179.092C350.721 182.566 346.213 184.51 341.519 184.51C336.825 184.51 332.316 182.566 328.951 179.092C325.587 175.618 323.632 170.887 323.502 165.907H359.536Z" fill="#FFC727"/>
<path d="M591.655 100.347H469.92V112.396H591.655V100.347Z" fill="#FFC727"/>
<path d="M591.339 112.396H470.264V240.623H591.339V112.396Z" fill="white"/>
<path d="M591.669 240.828H469.92V112.177H591.669V240.828ZM470.594 240.405H591.009V112.601H470.594V240.405Z" fill="#DBDBDB"/>
<path d="M470.566 240.697L469.947 240.551L591.022 112.309L591.655 112.469L470.566 240.697Z" fill="#DBDBDB"/>
<path d="M591.022 240.697L469.947 112.469L470.566 112.309L591.655 240.551L591.022 240.697Z" fill="#DBDBDB"/>
<path d="M547.078 256.791H469.92V262.968H547.078V256.791Z" fill="#DBDBDB"/>
<path d="M591.339 269.628H469.92V273.075H591.339V269.628Z" fill="#DBDBDB"/>
<path d="M591.339 278.259H469.92V281.706H591.339V278.259Z" fill="#DBDBDB"/>
<path d="M591.339 286.891H469.92V290.337H591.339V286.891Z" fill="#DBDBDB"/>
<path d="M591.339 295.521H469.92V298.968H591.339V295.521Z" fill="#DBDBDB"/>
<path d="M524.885 304.153H469.92V307.599H524.885V304.153Z" fill="#DBDBDB"/>
<path d="M591.339 321.416H469.92V324.862H591.339V321.416Z" fill="#DBDBDB"/>
<path d="M591.339 330.047H469.92V333.494H591.339V330.047Z" fill="#DBDBDB"/>
<path d="M591.339 338.663H469.92V342.11H591.339V338.663Z" fill="#DBDBDB"/>
<path d="M139.976 98.7993H68.3906V384.565H139.976V98.7993Z" fill="#DBDBDB"/>
<path d="M72.2054 101.985L71.7871 102.429L76.2137 107.128L76.632 106.684L72.2054 101.985Z" fill="white"/>
<path d="M76.2137 101.985L71.7871 106.684L72.2054 107.128L76.632 102.429L76.2137 101.985Z" fill="white"/>
<path d="M131.448 104.133L131.029 104.577L133.657 107.364L134.075 106.92L131.448 104.133Z" fill="white"/>
<path d="M133.664 101.783L131.037 104.57L131.455 105.014L134.083 102.227L133.664 101.783Z" fill="white"/>
<path d="M134.344 104.107L133.926 104.551L136.553 107.34L136.971 106.895L134.344 104.107Z" fill="white"/>
<path d="M136.563 101.776L133.936 104.564L134.354 105.008L136.981 102.22L136.563 101.776Z" fill="white"/>
<path d="M88.1752 146.366L85.0933 138.48L79.5898 143.007V117.654L96.2789 135.559L89.2896 136.669L92.3853 144.584L88.1752 146.366ZM85.5886 136.494L88.8081 144.745L90.8443 143.84L87.6523 135.676L93.8437 134.697L80.7731 120.677V140.466L85.5886 136.494Z" fill="white"/>
<path d="M126.273 136.172L129.396 144.175L126.273 145.548L123.122 137.486L117.963 141.736V119.158L132.85 135.12L126.273 136.172Z" fill="white"/>
<path d="M94.2062 167.202L79.6797 186.995L81.069 188.144L95.5954 168.351L94.2062 167.202Z" fill="white"/>
<path d="M86.2344 169.66L82.6847 170.361L81.8868 174.334L81.0888 170.361L77.5391 169.66L81.075 168.74L81.8868 164.987L82.6985 168.74L86.2344 169.66Z" fill="white"/>
<path d="M94.1181 163.365L92.0268 163.774L91.559 166.111L91.105 163.774L89.0137 163.365L91.0912 162.825L91.559 160.62L92.0405 162.825L94.1181 163.365Z" fill="white"/>
<path d="M96.5809 175.896L95.3839 176.13L95.1225 177.459L94.8611 176.13L93.6641 175.896L94.8473 175.589L95.1225 174.333L95.3976 175.589L96.5809 175.896Z" fill="white"/>
<path d="M128.726 238.008L114.203 257.804L115.593 258.952L130.116 239.156L128.726 238.008Z" fill="white"/>
<path d="M126.273 181.125L129.396 189.142L126.273 190.515L123.122 182.439L117.963 186.689V164.125L132.85 180.088L126.273 181.125Z" fill="white"/>
<path d="M80.14 210.48C83.464 207.431 87.397 205.224 91.6421 204.024L95.3707 207.968C94.2423 212.482 92.1576 216.663 89.2756 220.192C83.3182 218.41 78.4477 223.375 78.4477 223.375L78.0624 222.966L85.6296 214.934C85.9472 215.14 86.3212 215.227 86.6909 215.179C87.0605 215.131 87.4041 214.952 87.6659 214.671C87.8194 214.51 87.9412 214.317 88.0244 214.105C88.1075 213.894 88.1503 213.666 88.1503 213.437C88.1503 213.208 88.1075 212.98 88.0244 212.769C87.9412 212.557 87.8194 212.365 87.6659 212.203C87.3799 211.897 86.998 211.714 86.5929 211.689C86.1879 211.663 85.7881 211.797 85.47 212.064C85.1518 212.331 84.9375 212.713 84.868 213.138C84.7985 213.562 84.8786 213.999 85.093 214.364L77.5259 222.397L77.1406 221.988C77.1406 221.988 81.8185 216.803 80.14 210.48Z" fill="white"/>
<path d="M90.3119 203.559L95.8086 209.394L98.124 206.936L92.6273 201.101L90.3119 203.559Z" fill="white"/>
<path d="M135.175 197.219H106.516V225.624H135.175V197.219Z" fill="#263238"/>
<path d="M116.904 210.48C120.232 207.429 124.17 205.222 128.42 204.024L132.134 207.968C131.006 212.479 128.927 216.659 126.053 220.192C120.096 218.41 115.211 223.375 115.211 223.375L114.826 222.966L122.393 214.934C122.738 215.16 123.148 215.244 123.547 215.169C123.946 215.095 124.305 214.868 124.556 214.531C124.807 214.194 124.933 213.771 124.909 213.342C124.886 212.913 124.715 212.508 124.429 212.204C124.142 211.9 123.761 211.718 123.357 211.694C122.953 211.669 122.554 211.802 122.237 212.069C121.919 212.336 121.705 212.717 121.635 213.14C121.565 213.563 121.644 213.999 121.857 214.364L114.29 222.397L113.904 221.988C113.904 221.988 118.527 216.803 116.904 210.48Z" fill="white"/>
<path d="M127.076 203.557L132.572 209.392L134.888 206.934L129.391 201.1L127.076 203.557Z" fill="white"/>
<path d="M114.288 223.025C113.508 223.065 112.73 222.893 112.03 222.525C111.329 222.157 110.728 221.605 110.285 220.922C109.473 219.462 108.909 216.862 111.165 211.97C111.537 211.344 111.762 210.633 111.822 209.896C111.882 209.16 111.775 208.418 111.509 207.734C111.076 207.128 110.53 206.622 109.905 206.247C109.28 205.873 108.59 205.639 107.877 205.558L108.015 204.317C108.911 204.419 109.777 204.721 110.554 205.205C111.332 205.688 112.005 206.341 112.527 207.121C112.889 207.979 113.05 208.917 112.998 209.855C112.945 210.793 112.68 211.704 112.225 212.51C110.243 216.891 110.615 219.14 111.275 220.265C111.624 220.755 112.082 221.145 112.608 221.4C113.134 221.655 113.711 221.767 114.288 221.725V223.025Z" fill="white"/>
<path d="M94.6275 236.958V242.026H93.0315C92.8735 242.032 92.7185 241.978 92.5948 241.874C92.4711 241.769 92.3868 241.621 92.3573 241.456C92.3573 241.281 92.2748 240.901 92.2197 240.244H88.0922V255.462L88.9039 255.608C89.0965 255.608 89.2341 255.696 89.3167 255.696H89.4818C89.6923 255.718 89.8863 255.826 90.0225 255.998C90.1588 256.17 90.2264 256.392 90.211 256.616V258.368H82.231V256.616C82.2114 256.398 82.2721 256.18 82.4003 256.008C82.5286 255.837 82.7145 255.725 82.919 255.696C82.9785 255.69 83.0383 255.69 83.0978 255.696C83.1804 255.696 83.318 255.696 83.5106 255.608L84.3223 255.462V240.215H80.1948C80.1948 240.872 80.0847 241.281 80.0572 241.456C80.0399 241.619 79.9647 241.768 79.8471 241.874C79.7295 241.98 79.5783 242.034 79.4243 242.026H77.8008V236.958H94.5862H94.6275Z" fill="white"/>
<path d="M97.4611 299.684H76.9609V277.938H97.4611V299.684ZM78.722 297.829H95.7001V279.793H78.722V297.829Z" fill="white"/>
<path d="M129.768 364.542H112.074V347.732H129.768V364.542ZM113.822 362.673H128.007V349.529H113.822V362.673Z" fill="white"/>
<path d="M120.041 369.493H107.658V357.722H120.041V369.493ZM109.474 367.638H118.294V359.576H109.474V367.638Z" fill="white"/>
<path d="M125.862 351.185L121.406 355.915L122.233 356.793L126.689 352.063L125.862 351.185Z" fill="white"/>
<path d="M127.125 354.436H125.956V351.953H123.713V350.712H127.125V354.436Z" fill="white"/>
<path d="M130.73 299.699H110.271V277.923H119.902C120.186 275.868 121.19 274.002 122.713 272.698C124.236 271.393 126.166 270.747 128.118 270.887C130.071 271.027 131.901 271.944 133.245 273.454C134.589 274.964 135.347 276.956 135.367 279.033C135.362 280.615 134.932 282.163 134.128 283.495C133.324 284.827 132.179 285.889 130.827 286.555L130.73 299.699ZM111.991 297.829H128.983V285.284L129.547 285.05C130.888 284.547 132.018 283.556 132.735 282.252C133.452 280.948 133.711 279.417 133.465 277.93C133.219 276.443 132.485 275.097 131.392 274.13C130.299 273.164 128.919 272.64 127.497 272.651C125.924 272.643 124.411 273.293 123.286 274.46C122.161 275.627 121.514 277.218 121.485 278.887V279.793H112.005L111.991 297.829Z" fill="white"/>
<path d="M123.19 284.028C120.136 283.488 119.709 286.949 119.654 288.249C119.539 288.93 119.247 289.564 118.812 290.079C118.378 290.595 117.816 290.972 117.191 291.17C117.191 291.17 121.924 292.557 124.305 289.987C126.685 287.416 125.226 284.393 123.19 284.028Z" fill="white"/>
<path d="M133.66 273.6L125.997 285.094C125.774 284.597 125.444 284.162 125.032 283.827C124.621 283.492 124.14 283.265 123.63 283.166C123.452 283.153 123.272 283.153 123.094 283.166L129.45 273.659L133.66 273.6Z" fill="white"/>
<path d="M94.1612 323.303L88.7715 317.582L77.7974 329.231L83.1872 334.952L94.1612 323.303Z" fill="white"/>
<path d="M97.378 319.88L91.9883 314.159L89.6631 316.627L95.0529 322.348L97.378 319.88Z" fill="white"/>
<path d="M77.3203 335.45L77.7468 329.375L78.9163 329.463L78.5861 334.107L82.9613 333.756L83.0438 334.998L77.3203 335.45Z" fill="white"/>
<path d="M126.878 325.767C126.061 325.767 125.263 325.51 124.584 325.029C123.906 324.547 123.377 323.863 123.064 323.062C122.752 322.262 122.67 321.381 122.829 320.531C122.989 319.681 123.382 318.9 123.959 318.288C124.536 317.675 125.272 317.258 126.072 317.089C126.873 316.92 127.703 317.006 128.457 317.338C129.211 317.67 129.856 318.231 130.309 318.952C130.763 319.672 131.005 320.519 131.005 321.386C131.005 322.548 130.57 323.662 129.796 324.484C129.022 325.306 127.972 325.767 126.878 325.767ZM126.878 318.859C126.407 318.859 125.947 319.007 125.555 319.285C125.164 319.563 124.859 319.957 124.679 320.419C124.498 320.881 124.451 321.389 124.543 321.879C124.635 322.369 124.862 322.819 125.194 323.172C125.527 323.526 125.951 323.766 126.413 323.864C126.875 323.961 127.354 323.911 127.788 323.72C128.223 323.529 128.595 323.205 128.857 322.789C129.118 322.374 129.258 321.885 129.258 321.386C129.258 321.054 129.196 320.725 129.077 320.419C128.957 320.112 128.782 319.834 128.561 319.599C128.34 319.365 128.077 319.178 127.788 319.052C127.5 318.925 127.19 318.859 126.878 318.859Z" fill="white"/>
<path d="M107.891 332.646L124.098 323.168L126.85 324.833C126.85 324.833 115.059 332.5 112.968 333.303C110.876 334.107 107.891 332.646 107.891 332.646Z" fill="white"/>
<path d="M126.782 335.523C125.965 335.523 125.167 335.266 124.489 334.785C123.81 334.303 123.281 333.619 122.968 332.818C122.656 332.018 122.574 331.137 122.734 330.287C122.893 329.437 123.286 328.656 123.863 328.044C124.44 327.431 125.176 327.013 125.977 326.844C126.777 326.675 127.607 326.762 128.361 327.094C129.116 327.425 129.76 327.987 130.214 328.707C130.667 329.428 130.909 330.275 130.909 331.142C130.909 332.304 130.475 333.418 129.7 334.24C128.926 335.061 127.877 335.523 126.782 335.523ZM126.782 328.63C126.311 328.63 125.85 328.778 125.458 329.056C125.066 329.335 124.761 329.73 124.582 330.193C124.402 330.655 124.355 331.164 124.448 331.655C124.541 332.145 124.769 332.595 125.104 332.948C125.438 333.301 125.863 333.54 126.326 333.636C126.789 333.732 127.268 333.68 127.702 333.486C128.137 333.293 128.508 332.967 128.768 332.549C129.028 332.132 129.165 331.642 129.162 331.142C129.164 330.809 129.104 330.478 128.985 330.17C128.866 329.862 128.691 329.582 128.47 329.346C128.249 329.109 127.986 328.922 127.696 328.794C127.406 328.666 127.096 328.6 126.782 328.6V328.63Z" fill="white"/>
<path d="M107.838 319.838L124.032 329.36L126.783 327.695C126.783 327.695 114.979 320.042 112.887 319.225C110.796 318.407 107.838 319.838 107.838 319.838Z" fill="white"/>
<path d="M77.0723 366.675V350.507L86.7033 358.569L77.0723 366.675ZM78.8334 354.378V362.848L83.924 358.613L78.8334 354.378Z" fill="white"/>
<path d="M97.3111 350.785V366.441L87.9277 358.613L97.3111 350.785Z" fill="white"/>
<path d="M87.7069 367.201H87.1152V364.718H87.7069V367.201ZM87.7069 362.235H87.1152V359.752H87.7069V362.235ZM87.7069 357.27H87.1152V354.772H87.7069V357.27ZM87.7069 352.289H87.1152V349.807H87.7069V352.289Z" fill="white"/>
<path d="M804.292 30.4502H656.855V123.305H804.292V30.4502Z" fill="#DBDBDB"/>
<path d="M664.684 38.7746L660.254 34.0719L660.667 33.6338L665.097 38.3364L664.684 38.7746Z" fill="white"/>
<path d="M660.667 38.7746L660.254 38.3364L664.684 33.6338L665.097 34.0719L660.667 38.7746Z" fill="white"/>
<path d="M795.434 35.7699L795.016 36.2139L797.642 39.0026L798.06 38.5587L795.434 35.7699Z" fill="white"/>
<path d="M797.656 33.4231L795.029 36.2114L795.448 36.6555L798.074 33.8672L797.656 33.4231Z" fill="white"/>
<path d="M798.34 35.7675L797.922 36.2114L800.548 39.0002L800.967 38.5562L798.34 35.7675Z" fill="white"/>
<path d="M800.54 33.4197L797.914 36.209L798.333 36.6529L800.958 33.8636L800.54 33.4197Z" fill="white"/>
<path d="M683.508 45.2305H682.916V106.248H683.508V45.2305Z" fill="white"/>
<path d="M704.709 45.2305H704.117V106.248H704.709V45.2305Z" fill="white"/>
<path d="M672.431 50.853C671.194 50.8581 669.978 51.2006 668.902 51.8476C667.825 52.4946 666.922 53.4245 666.281 54.548C666.945 55.6504 667.852 56.5644 668.924 57.2108C669.995 57.8572 671.199 58.2165 672.431 58.2575C673.673 58.2074 674.885 57.8449 675.969 57.2C677.052 56.5551 677.976 55.6461 678.664 54.548C677.994 53.4326 677.074 52.5111 675.987 51.8662C674.899 51.2213 673.677 50.8731 672.431 50.853V50.853ZM672.431 57.5857C671.864 57.5915 671.307 57.4179 670.833 57.087C670.358 56.7561 669.987 56.2828 669.767 55.7274C669.546 55.1721 669.486 54.5596 669.595 53.968C669.703 53.3765 669.975 52.8325 670.375 52.4053C670.776 51.9781 671.287 51.6871 671.844 51.5691C672.401 51.4512 672.978 51.5117 673.502 51.743C674.026 51.9742 674.474 52.3658 674.788 52.8679C675.102 53.37 675.268 53.9599 675.266 54.5626C675.262 55.3607 674.963 56.1252 674.432 56.6909C673.902 57.2566 673.183 57.578 672.431 57.5857V57.5857Z" fill="white"/>
<path d="M674.62 54.5477C674.62 55.0098 674.49 55.4616 674.249 55.8459C674.007 56.2301 673.663 56.5296 673.261 56.7065C672.858 56.8834 672.416 56.9296 671.989 56.8395C671.562 56.7493 671.169 56.5268 670.862 56.2C670.554 55.8732 670.344 55.4568 670.259 55.0035C670.174 54.5503 670.218 54.0804 670.384 53.6534C670.551 53.2265 670.833 52.8615 671.195 52.6047C671.557 52.348 671.983 52.2109 672.418 52.2109C673.002 52.2109 673.562 52.4571 673.975 52.8953C674.388 53.3336 674.62 53.9279 674.62 54.5477V54.5477Z" fill="white"/>
<path d="M672.431 72.0728C671.194 72.0779 669.978 72.4204 668.902 73.0674C667.825 73.7144 666.922 74.6442 666.281 75.7677C666.945 76.8701 667.852 77.7841 668.924 78.4305C669.995 79.0769 671.199 79.4362 672.431 79.4772C673.673 79.4271 674.885 79.0647 675.969 78.4197C677.052 77.7748 677.976 76.8658 678.664 75.7677C677.994 74.6523 677.074 73.7308 675.987 73.0859C674.899 72.441 673.677 72.0929 672.431 72.0728V72.0728ZM672.431 78.8054C671.864 78.8112 671.307 78.6376 670.833 78.3067C670.358 77.9758 669.987 77.5026 669.767 76.9472C669.546 76.3918 669.486 75.7793 669.595 75.1878C669.703 74.5962 669.975 74.0522 670.375 73.625C670.776 73.1979 671.287 72.9068 671.844 72.7888C672.401 72.6709 672.978 72.7314 673.502 72.9627C674.026 73.194 674.474 73.5856 674.788 74.0877C675.102 74.5897 675.268 75.1796 675.266 75.7823C675.273 76.183 675.205 76.5812 675.066 76.9538C674.927 77.3263 674.72 77.6659 674.456 77.9526C674.192 78.2394 673.877 78.4676 673.53 78.624C673.182 78.7805 672.809 78.862 672.431 78.8638V78.8054Z" fill="white"/>
<path d="M674.62 75.7825C674.62 76.2447 674.49 76.6965 674.249 77.0807C674.007 77.465 673.663 77.7645 673.261 77.9414C672.858 78.1182 672.416 78.1645 671.989 78.0743C671.562 77.9842 671.169 77.7616 670.862 77.4348C670.554 77.108 670.344 76.6917 670.259 76.2384C670.174 75.7851 670.218 75.3153 670.384 74.8883C670.551 74.4613 670.833 74.0964 671.195 73.8396C671.557 73.5828 671.983 73.4458 672.418 73.4458C673.002 73.4458 673.562 73.692 673.975 74.1302C674.388 74.5684 674.62 75.1628 674.62 75.7825V75.7825Z" fill="white"/>
<path d="M672.431 92.3584C671.195 92.362 669.981 92.7023 668.904 93.3466C667.827 93.991 666.924 94.918 666.281 96.0387C666.943 97.1439 667.85 98.0608 668.922 98.7098C669.993 99.3588 671.198 99.7203 672.431 99.7629C673.674 99.7111 674.887 99.3464 675.971 98.6989C677.055 98.0514 677.978 97.1396 678.664 96.0387C677.993 94.926 677.072 94.0074 675.984 93.3651C674.897 92.7228 673.676 92.3769 672.431 92.3584V92.3584ZM672.431 99.0765C671.867 99.0793 671.314 98.9041 670.844 98.5731C670.373 98.242 670.006 97.77 669.789 97.217C669.572 96.664 669.514 96.055 669.624 95.4672C669.733 94.8794 670.005 94.3394 670.404 93.9157C670.803 93.492 671.312 93.2038 671.865 93.0876C672.419 92.9714 672.993 93.0325 673.514 93.2632C674.035 93.4938 674.479 93.8835 674.791 94.3829C675.103 94.8823 675.268 95.4688 675.266 96.0679C675.262 96.8647 674.962 97.6277 674.431 98.191C673.901 98.7544 673.182 99.0726 672.431 99.0765Z" fill="white"/>
<path d="M674.62 96.0535C674.62 96.5157 674.49 96.9675 674.249 97.3517C674.007 97.736 673.663 98.0355 673.261 98.2124C672.858 98.3892 672.416 98.4355 671.989 98.3453C671.562 98.2552 671.169 98.0326 670.862 97.7058C670.554 97.379 670.344 96.9627 670.259 96.5094C670.174 96.0561 670.218 95.5863 670.384 95.1593C670.551 94.7323 670.833 94.3674 671.195 94.1106C671.557 93.8538 671.983 93.7168 672.418 93.7168C673.002 93.7168 673.562 93.963 673.975 94.4012C674.388 94.8394 674.62 95.4338 674.62 96.0535V96.0535Z" fill="white"/>
<path d="M798.213 65.2817H662.953V65.9097H798.213V65.2817Z" fill="white"/>
<path d="M798.213 85.6553H662.953V86.2833H798.213V85.6553Z" fill="white"/>
<path d="M720.406 58.9727C720.315 58.9727 720.228 58.9342 720.163 58.8657C720.099 58.7973 720.062 58.7044 720.062 58.6076V48.954C720.062 48.8571 720.099 48.7643 720.163 48.6958C720.228 48.6273 720.315 48.5889 720.406 48.5889C720.498 48.5889 720.585 48.6273 720.65 48.6958C720.714 48.7643 720.75 48.8571 720.75 48.954V58.2424H725.428C725.52 58.2424 725.607 58.2809 725.672 58.3494C725.736 58.4179 725.772 58.5107 725.772 58.6076C725.772 58.7044 725.736 58.7973 725.672 58.8657C725.607 58.9342 725.52 58.9727 725.428 58.9727H720.406Z" fill="white"/>
<path d="M733.532 52.0648V58.6076C733.532 58.7005 733.497 58.7897 733.435 58.8554C733.374 58.9212 733.29 58.9581 733.202 58.9581C733.114 58.9581 733.03 58.9212 732.968 58.8554C732.907 58.7897 732.872 58.7005 732.872 58.6076V57.5269C732.582 57.969 732.198 58.3319 731.751 58.5858C731.304 58.8397 730.806 58.9773 730.299 58.9873C729.387 58.9873 728.512 58.6026 727.867 57.9179C727.222 57.2332 726.859 56.3045 726.859 55.3362C726.859 54.3678 727.222 53.4392 727.867 52.7544C728.512 52.0697 729.387 51.6851 730.299 51.6851C730.806 51.6951 731.304 51.8327 731.751 52.0866C732.198 52.3405 732.582 52.7034 732.872 53.1455V52.0794C732.872 51.9864 732.907 51.8973 732.968 51.8315C733.03 51.7658 733.114 51.7289 733.202 51.7289C733.29 51.7289 733.374 51.7658 733.435 51.8315C733.497 51.8973 733.532 51.9864 733.532 52.0794V52.0648ZM732.872 55.3362C732.837 54.8057 732.657 54.2975 732.354 53.8741C732.051 53.4506 731.638 53.1303 731.166 52.9524C730.694 52.7745 730.183 52.7467 729.696 52.8726C729.21 52.9984 728.768 53.2724 728.426 53.6608C728.084 54.0493 727.856 54.5353 727.77 55.0592C727.685 55.5832 727.745 56.1223 727.944 56.6104C728.143 57.0984 728.472 57.5142 728.89 57.8068C729.308 58.0993 729.798 58.2558 730.299 58.2571C730.995 58.2155 731.648 57.8867 732.118 57.3409C732.589 56.7951 732.839 56.0756 732.817 55.3362H732.872Z" fill="white"/>
<path d="M736.283 52.0502C736.287 51.9584 736.323 51.8713 736.384 51.8064C736.445 51.7414 736.527 51.7033 736.614 51.6997C736.702 51.6996 736.788 51.7361 736.852 51.8014C736.916 51.8668 736.954 51.9559 736.958 52.0502V55.9934C736.956 56.2849 737.008 56.574 737.111 56.8441C737.215 57.1141 737.367 57.3599 737.56 57.5674C737.753 57.7749 737.983 57.94 738.236 58.0534C738.489 58.1667 738.76 58.226 739.035 58.2279C739.313 58.2298 739.589 58.1736 739.847 58.0623C740.105 57.9511 740.339 57.787 740.537 57.5795C740.735 57.372 740.893 57.1251 741.001 56.853C741.109 56.5809 741.166 56.2888 741.168 55.9934V52.0502C741.148 51.9937 741.148 51.9314 741.168 51.875C741.168 51.875 741.168 51.875 741.168 51.875C741.199 51.833 741.243 51.8024 741.292 51.7873H741.443C741.503 51.8046 741.559 51.8344 741.608 51.875C741.646 51.9042 741.675 51.9449 741.69 51.9918C741.703 52.0396 741.703 52.09 741.69 52.1378V58.4178C741.691 58.8683 741.606 59.3144 741.443 59.7302C741.279 60.1459 741.039 60.523 740.737 60.8396C740.435 61.1561 740.077 61.4059 739.683 61.5743C739.289 61.7427 738.868 61.8264 738.444 61.8206C737.968 61.8092 737.5 61.6949 737.068 61.4847C736.994 61.4387 736.94 61.3655 736.914 61.2791C736.889 61.1928 736.894 61.0995 736.93 61.0174C736.969 60.934 737.035 60.8686 737.116 60.8336C737.197 60.7986 737.288 60.7965 737.37 60.8275C737.713 61.0216 738.096 61.122 738.485 61.1196C738.827 61.1313 739.168 61.0702 739.488 60.9401C739.808 60.8099 740.1 60.6132 740.348 60.3615C740.595 60.1099 740.793 59.8083 740.929 59.4745C741.065 59.1407 741.137 58.7814 741.14 58.4178V57.9504C740.873 58.2719 740.545 58.5303 740.178 58.7089C739.81 58.8875 739.412 58.9824 739.008 58.9873C738.278 58.9873 737.578 58.6796 737.062 58.1318C736.546 57.5841 736.256 56.8411 736.256 56.0664L736.283 52.0502Z" fill="white"/>
<path d="M744.129 55.3507C744.088 54.8749 744.14 54.3953 744.279 53.9412C744.419 53.4871 744.645 53.068 744.942 52.7093C745.239 52.3507 745.602 52.0601 746.009 51.8552C746.416 51.6503 746.857 51.5355 747.307 51.5176C747.757 51.4997 748.205 51.5793 748.625 51.7513C749.045 51.9234 749.428 52.1844 749.749 52.5184C750.071 52.8524 750.326 53.2525 750.497 53.6942C750.668 54.136 750.753 54.6101 750.747 55.0878V55.0878C750.74 55.1782 750.7 55.2622 750.636 55.3221C750.571 55.382 750.488 55.4132 750.403 55.4091H744.789C744.82 56.1435 745.11 56.8385 745.602 57.3555C746.095 57.8725 746.752 58.1736 747.444 58.1986C747.888 58.1972 748.325 58.0758 748.712 57.8459C749.1 57.6159 749.426 57.2849 749.66 56.8842C749.68 56.8441 749.707 56.8088 749.741 56.7804C749.774 56.7519 749.812 56.7309 749.853 56.7186C749.894 56.7063 749.937 56.703 749.98 56.7089C750.022 56.7148 750.063 56.7297 750.1 56.7527C750.174 56.8088 750.226 56.8919 750.247 56.9861C750.267 57.0803 750.254 57.1792 750.21 57.2639C749.92 57.7631 749.515 58.1762 749.034 58.4648C748.553 58.7533 748.011 58.9079 747.458 58.9142C746.574 58.9027 745.729 58.5227 745.106 57.856C744.483 57.1894 744.132 56.2896 744.129 55.3507ZM744.83 54.7665H750.045C749.945 54.1162 749.632 53.524 749.161 53.0941C748.691 52.6641 748.093 52.4237 747.472 52.4152C746.845 52.4291 746.242 52.6697 745.761 53.0973C745.281 53.5249 744.952 54.1138 744.83 54.7665V54.7665Z" fill="white"/>
<path d="M752.795 52.0795C752.795 51.9826 752.831 51.8898 752.896 51.8213C752.96 51.7528 753.048 51.7144 753.139 51.7144C753.182 51.7162 753.225 51.7272 753.264 51.7465C753.304 51.7659 753.339 51.7933 753.368 51.8272C753.398 51.8612 753.421 51.9009 753.436 51.9442C753.45 51.9875 753.457 52.0334 753.455 52.0795V53.6714L753.565 53.4961C753.84 52.9724 754.238 52.5331 754.72 52.2209C755.203 51.9087 755.753 51.7342 756.317 51.7144C756.395 51.7311 756.465 51.7759 756.515 51.8411C756.565 51.9063 756.593 51.9879 756.593 52.0722C756.593 52.1564 756.565 52.238 756.515 52.3032C756.465 52.3684 756.395 52.4132 756.317 52.43C755.92 52.4462 755.533 52.5618 755.186 52.7674C754.839 52.973 754.543 53.2627 754.322 53.6129C753.977 54.1341 753.704 54.7045 753.51 55.3071C753.497 55.3446 753.497 55.3863 753.51 55.4239V58.6077C753.512 58.6537 753.505 58.6997 753.491 58.743C753.476 58.7862 753.453 58.826 753.423 58.8599C753.394 58.8938 753.359 58.9212 753.319 58.9406C753.28 58.96 753.237 58.9709 753.194 58.9728C753.103 58.9728 753.015 58.9343 752.951 58.8659C752.886 58.7974 752.85 58.7045 752.85 58.6077L752.795 52.0795Z" fill="white"/>
<path d="M764.201 49.6548L762.825 50.5165C762.788 50.5425 762.747 50.5602 762.704 50.5685C762.661 50.5767 762.616 50.5753 762.573 50.5643C762.531 50.5533 762.491 50.533 762.456 50.5046C762.421 50.4763 762.392 50.4405 762.371 50.3996C762.347 50.36 762.331 50.3155 762.324 50.2689C762.317 50.2224 762.32 50.1748 762.331 50.1294C762.343 50.0839 762.364 50.0416 762.392 50.0051C762.42 49.9687 762.455 49.9389 762.495 49.9177L764.379 48.6909C764.458 48.6487 764.549 48.6404 764.634 48.6675C764.719 48.6947 764.79 48.7554 764.834 48.837C764.866 48.9213 764.866 49.0155 764.834 49.0998V58.622C764.844 58.675 764.843 58.7298 764.83 58.7823C764.818 58.8348 764.795 58.8838 764.763 58.9257C764.73 58.9676 764.69 59.0013 764.644 59.0245C764.598 59.0477 764.547 59.0597 764.496 59.0597C764.445 59.0597 764.395 59.0477 764.349 59.0245C764.303 59.0013 764.262 58.9676 764.23 58.9257C764.198 58.8838 764.175 58.8348 764.163 58.7823C764.15 58.7298 764.149 58.675 764.159 58.622L764.201 49.6548Z" fill="white"/>
<path d="M720.406 80.3248C720.318 80.3248 720.232 80.2884 720.168 80.223C720.104 80.1577 720.066 80.0685 720.062 79.9742V70.3061C720.066 70.2118 720.104 70.1226 720.168 70.0573C720.232 69.9919 720.318 69.9555 720.406 69.9556C720.495 69.9555 720.581 69.9919 720.645 70.0573C720.709 70.1226 720.747 70.2118 720.75 70.3061V79.5945H725.428C725.521 79.5983 725.608 79.64 725.672 79.7108C725.737 79.7816 725.772 79.876 725.772 79.9742C725.769 80.0685 725.731 80.1577 725.667 80.223C725.603 80.2884 725.517 80.3248 725.428 80.3248H720.406Z" fill="white"/>
<path d="M733.532 73.4314V79.9888C733.532 80.0818 733.497 80.1709 733.435 80.2367C733.374 80.3024 733.29 80.3393 733.202 80.3393C733.114 80.3393 733.03 80.3024 732.968 80.2367C732.907 80.1709 732.872 80.0818 732.872 79.9888V78.8643C732.581 79.3047 732.196 79.6664 731.749 79.9201C731.302 80.1737 730.806 80.3124 730.299 80.3247C729.387 80.3247 728.512 79.94 727.867 79.2553C727.222 78.5706 726.859 77.6419 726.859 76.6736C726.859 75.7052 727.222 74.7766 727.867 74.0918C728.512 73.4071 729.387 73.0225 730.299 73.0225C730.806 73.0313 731.304 73.1684 731.752 73.4224C732.199 73.6764 732.583 74.0399 732.872 74.4829V73.4168C732.872 73.3238 732.907 73.2347 732.968 73.1689C733.03 73.1032 733.114 73.0663 733.202 73.0663C733.29 73.0663 733.374 73.1032 733.435 73.1689C733.497 73.2347 733.532 73.3238 733.532 73.4168V73.4314ZM732.872 76.7028C732.837 76.1723 732.657 75.6641 732.354 75.2407C732.051 74.8172 731.638 74.4969 731.166 74.319C730.694 74.1411 730.183 74.1134 729.696 74.2392C729.21 74.3651 728.768 74.639 728.426 75.0274C728.084 75.4159 727.856 75.9019 727.77 76.4259C727.685 76.9498 727.745 77.4889 727.944 77.977C728.143 78.465 728.472 78.8808 728.89 79.1734C729.308 79.4659 729.798 79.6224 730.299 79.6237C730.995 79.5821 731.648 79.2533 732.118 78.7075C732.589 78.1617 732.839 77.4422 732.817 76.7028H732.872Z" fill="white"/>
<path d="M736.285 73.4168C736.289 73.3264 736.325 73.2409 736.387 73.1783C736.448 73.1157 736.53 73.0808 736.615 73.0809C736.659 73.0789 736.702 73.0861 736.743 73.1019C736.784 73.1177 736.821 73.1419 736.853 73.1731C736.885 73.2043 736.911 73.2419 736.929 73.2837C736.947 73.3255 736.958 73.3707 736.959 73.4168V77.4038C736.967 77.985 737.188 78.5399 737.577 78.9495C737.965 79.3591 738.489 79.5907 739.037 79.5945C739.315 79.5964 739.591 79.5401 739.849 79.4289C740.107 79.3176 740.341 79.1536 740.539 78.9461C740.737 78.7386 740.895 78.4917 741.003 78.2196C741.111 77.9474 741.168 77.6554 741.169 77.36V73.4168C741.149 73.3603 741.149 73.298 741.169 73.2415C741.169 73.2415 741.169 73.2415 741.169 73.2415C741.201 73.1995 741.245 73.1689 741.293 73.1539H741.445H741.61C741.645 73.1863 741.673 73.2261 741.692 73.2707C741.705 73.3185 741.705 73.369 741.692 73.4168V79.7551C741.692 80.2064 741.608 80.6532 741.445 81.0697C741.281 81.4863 741.041 81.8643 740.74 82.182C740.438 82.4997 740.08 82.7509 739.686 82.9209C739.292 83.0909 738.87 83.1764 738.445 83.1726C737.97 83.1611 737.502 83.0468 737.069 82.8367C736.995 82.7881 736.94 82.7122 736.914 82.6234C736.889 82.5346 736.895 82.439 736.932 82.3547C736.975 82.2761 737.042 82.2157 737.122 82.1837C737.203 82.1518 737.291 82.1503 737.372 82.1795C737.718 82.3621 738.1 82.457 738.487 82.457C739.167 82.4609 739.82 82.1789 740.305 81.6726C740.79 81.1663 741.066 80.4769 741.073 79.7551V79.2878C740.818 79.5989 740.506 79.8513 740.156 80.0297C739.806 80.208 739.425 80.3084 739.037 80.3247C738.307 80.3247 737.607 80.017 737.091 79.4692C736.575 78.9214 736.285 78.1785 736.285 77.4038V73.4168Z" fill="white"/>
<path d="M744.127 76.7172C744.14 75.8157 744.478 74.9539 745.072 74.3093C745.665 73.6648 746.47 73.2867 747.318 73.253C748.167 73.2192 748.996 73.5325 749.633 74.1281C750.271 74.7238 750.669 75.5564 750.745 76.4543V76.4543C750.743 76.5003 750.733 76.5455 750.714 76.5873C750.696 76.6292 750.67 76.6667 750.638 76.6979C750.606 76.7291 750.569 76.7533 750.528 76.7692C750.487 76.785 750.444 76.7921 750.401 76.7902H744.787C744.821 77.5219 745.113 78.2133 745.605 78.7273C746.097 79.2413 746.753 79.5403 747.443 79.565C747.887 79.5664 748.325 79.4462 748.713 79.216C749.101 78.9858 749.426 78.6533 749.658 78.2506C749.679 78.2118 749.707 78.1779 749.741 78.1509C749.775 78.1239 749.814 78.1044 749.855 78.0935C749.896 78.0826 749.938 78.0805 749.98 78.0875C750.022 78.0944 750.062 78.1101 750.098 78.1338C750.171 78.1873 750.223 78.2677 750.243 78.3595C750.264 78.4513 750.251 78.5478 750.208 78.6303C749.918 79.1295 749.513 79.5427 749.032 79.8312C748.551 80.1198 748.009 80.2744 747.456 80.2807C746.572 80.2692 745.727 79.8891 745.104 79.2225C744.482 78.5559 744.13 77.656 744.127 76.7172V76.7172ZM744.829 76.1476H750.043C749.943 75.4972 749.63 74.9051 749.16 74.4751C748.689 74.0451 748.091 73.8048 747.47 73.7963C746.843 73.8101 746.24 74.0508 745.76 74.4784C745.279 74.906 744.951 75.4949 744.829 76.1476V76.1476Z" fill="white"/>
<path d="M752.795 73.446C752.795 73.3987 752.804 73.3519 752.821 73.3084C752.839 73.2649 752.864 73.2256 752.896 73.1929C752.929 73.1601 752.967 73.1346 753.008 73.1179C753.05 73.1012 753.094 73.0935 753.139 73.0955C753.182 73.0955 753.224 73.1046 753.263 73.1224C753.303 73.1402 753.338 73.1663 753.368 73.199C753.397 73.2318 753.42 73.2705 753.435 73.313C753.45 73.3554 753.457 73.4007 753.455 73.446V75.0525L753.565 74.8773C753.84 74.3536 754.238 73.9143 754.72 73.6021C755.203 73.2899 755.753 73.1154 756.317 73.0955C756.405 73.0955 756.489 73.1324 756.551 73.1982C756.612 73.2639 756.647 73.3531 756.647 73.446C756.647 73.5404 756.613 73.6311 756.551 73.6992C756.49 73.7672 756.406 73.8074 756.317 73.8111C755.92 73.825 755.531 73.9396 755.184 74.1454C754.837 74.3512 754.542 74.6422 754.322 74.9941C753.976 75.5088 753.702 76.0747 753.51 76.6736C753.494 76.7158 753.494 76.7629 753.51 76.8051V79.9888C753.512 80.0342 753.505 80.0794 753.49 80.1219C753.475 80.1643 753.452 80.2031 753.423 80.2359C753.393 80.2686 753.358 80.2947 753.318 80.3125C753.279 80.3302 753.237 80.3394 753.194 80.3394C753.149 80.3413 753.105 80.3337 753.063 80.317C753.022 80.3002 752.984 80.2747 752.951 80.242C752.919 80.2093 752.894 80.1699 752.876 80.1264C752.859 80.0829 752.85 80.0361 752.85 79.9888L752.795 73.446Z" fill="white"/>
<path d="M762.589 79.6968L767.157 75.3154C767.421 75.066 767.633 74.76 767.777 74.4177C767.922 74.0754 767.997 73.7044 767.997 73.3292C767.99 72.6694 767.755 72.0352 767.336 71.5475C767.101 71.2736 766.814 71.0554 766.494 70.907C766.174 70.7585 765.828 70.6832 765.479 70.6858C764.852 70.6843 764.247 70.9229 763.773 71.3576L763.305 71.8249C763.237 71.876 763.155 71.8993 763.072 71.8907C762.989 71.8821 762.913 71.8421 762.856 71.778C762.799 71.714 762.765 71.6303 762.762 71.5423C762.759 71.4543 762.785 71.3679 762.837 71.2992L763.319 70.8318C763.912 70.2659 764.681 69.9536 765.479 69.9556C766.321 69.9594 767.127 70.3161 767.722 70.9479C768.317 71.5798 768.653 72.4357 768.657 73.3292C768.658 73.8044 768.565 74.2745 768.385 74.7095C768.205 75.1446 767.942 75.535 767.611 75.8558L763.704 79.5945H768.327C768.372 79.5964 768.416 79.6077 768.457 79.6278C768.498 79.648 768.535 79.6765 768.566 79.7117C768.597 79.747 768.621 79.7883 768.636 79.8334C768.652 79.8784 768.659 79.9263 768.657 79.9743C768.657 80.0672 768.622 80.1564 768.56 80.2221C768.498 80.2878 768.414 80.3248 768.327 80.3248H762.823C762.777 80.3278 762.732 80.3202 762.689 80.3026C762.646 80.2849 762.607 80.2576 762.576 80.2225C762.519 80.1472 762.49 80.0532 762.492 79.957C762.495 79.8608 762.529 79.7687 762.589 79.6968V79.6968Z" fill="white"/>
<path d="M720.406 101.706C720.318 101.706 720.232 101.669 720.168 101.604C720.104 101.539 720.066 101.449 720.062 101.355V91.7015C720.062 91.6047 720.099 91.5118 720.163 91.4434C720.228 91.3749 720.315 91.3364 720.406 91.3364C720.498 91.3364 720.585 91.3749 720.65 91.4434C720.714 91.5118 720.75 91.6047 720.75 91.7015V100.99H725.428C725.478 100.979 725.53 100.98 725.579 100.993C725.629 101.006 725.675 101.031 725.714 101.065C725.754 101.099 725.786 101.142 725.808 101.191C725.829 101.24 725.841 101.294 725.841 101.348C725.841 101.402 725.829 101.455 725.808 101.504C725.786 101.553 725.754 101.596 725.714 101.631C725.675 101.665 725.629 101.689 725.579 101.702C725.53 101.715 725.478 101.716 725.428 101.706H720.406Z" fill="white"/>
<path d="M733.532 94.8123V101.355C733.532 101.448 733.497 101.537 733.435 101.603C733.374 101.669 733.29 101.706 733.202 101.706C733.114 101.706 733.03 101.669 732.968 101.603C732.907 101.537 732.872 101.448 732.872 101.355V100.274C732.582 100.717 732.198 101.079 731.751 101.333C731.304 101.587 730.806 101.725 730.299 101.735C729.387 101.735 728.512 101.35 727.867 100.665C727.222 99.9807 726.859 99.0521 726.859 98.0837C726.859 97.1154 727.222 96.1867 727.867 95.502C728.512 94.8173 729.387 94.4326 730.299 94.4326C730.806 94.4426 731.304 94.5802 731.751 94.8341C732.198 95.088 732.582 95.4509 732.872 95.8931V94.8269C732.872 94.734 732.907 94.6448 732.968 94.5791C733.03 94.5134 733.114 94.4764 733.202 94.4764C733.29 94.4764 733.374 94.5134 733.435 94.5791C733.497 94.6448 733.532 94.734 733.532 94.8269V94.8123ZM732.872 98.0837C732.837 97.5532 732.657 97.0451 732.354 96.6216C732.051 96.1982 731.638 95.8778 731.166 95.6999C730.694 95.522 730.183 95.4943 729.696 95.6201C729.21 95.746 728.768 96.02 728.426 96.4084C728.084 96.7968 727.856 97.2828 727.77 97.8068C727.685 98.3307 727.745 98.8698 727.944 99.3579C728.143 99.846 728.472 100.262 728.89 100.554C729.308 100.847 729.798 101.003 730.299 101.005C730.995 100.963 731.648 100.634 732.118 100.088C732.589 99.5426 732.839 98.8232 732.817 98.0837H732.872Z" fill="white"/>
<path d="M736.284 94.7981C736.284 94.7051 736.319 94.616 736.38 94.5502C736.442 94.4845 736.526 94.4476 736.614 94.4476C736.658 94.4456 736.703 94.4532 736.744 94.4699C736.786 94.4867 736.824 94.5122 736.856 94.5449C736.888 94.5777 736.914 94.617 736.932 94.6605C736.949 94.704 736.958 94.7508 736.958 94.7981V98.7267C736.954 99.0206 737.006 99.3124 737.109 99.5852C737.213 99.8579 737.366 100.106 737.561 100.315C737.755 100.525 737.987 100.691 738.242 100.804C738.498 100.917 738.772 100.976 739.049 100.976C739.329 100.978 739.606 100.921 739.864 100.809C740.123 100.697 740.358 100.531 740.556 100.322C740.755 100.113 740.912 99.8646 741.019 99.5907C741.127 99.3169 741.182 99.0233 741.182 98.7267V94.7981C741.162 94.7366 741.162 94.6697 741.182 94.6082C741.214 94.5662 741.257 94.5356 741.306 94.5206H741.457H741.622C741.657 94.553 741.685 94.5928 741.705 94.6374C741.717 94.6902 741.717 94.7453 741.705 94.7981V101.136C741.705 101.587 741.62 102.033 741.457 102.449C741.293 102.865 741.053 103.242 740.751 103.558C740.449 103.875 740.091 104.124 739.697 104.293C739.303 104.461 738.882 104.545 738.458 104.539C737.982 104.528 737.514 104.414 737.082 104.203C737.007 104.155 736.952 104.079 736.927 103.99C736.901 103.901 736.908 103.806 736.944 103.721C736.987 103.643 737.055 103.582 737.135 103.55C737.215 103.518 737.303 103.517 737.384 103.546C737.73 103.733 738.111 103.833 738.499 103.838C739.178 103.838 739.83 103.555 740.313 103.05C740.797 102.544 741.075 101.857 741.085 101.136V100.654C740.82 100.978 740.492 101.238 740.124 101.417C739.757 101.596 739.357 101.689 738.953 101.691C738.223 101.691 737.523 101.384 737.007 100.836C736.491 100.288 736.201 99.5452 736.201 98.7705L736.284 94.7981Z" fill="white"/>
<path d="M744.129 98.0983C744.088 97.6225 744.14 97.1429 744.279 96.6888C744.419 96.2347 744.645 95.8155 744.942 95.4569C745.239 95.0983 745.602 94.8077 746.009 94.6028C746.416 94.3979 746.857 94.283 747.307 94.2652C747.757 94.2473 748.205 94.3268 748.625 94.4989C749.045 94.6709 749.428 94.9319 749.749 95.2659C750.071 95.6 750.326 96 750.497 96.4418C750.668 96.8835 750.753 97.3577 750.747 97.8354V97.8354C750.74 97.9258 750.7 98.0098 750.636 98.0697C750.571 98.1296 750.488 98.1608 750.403 98.1567H744.789C744.82 98.891 745.11 99.586 745.602 100.103C746.095 100.62 746.752 100.921 747.444 100.946C747.89 100.945 748.328 100.822 748.716 100.589C749.104 100.356 749.429 100.022 749.66 99.6172C749.681 99.5783 749.709 99.5444 749.743 99.5174C749.777 99.4904 749.815 99.4709 749.856 99.46C749.898 99.4491 749.94 99.4471 749.982 99.454C750.024 99.4609 750.064 99.4767 750.1 99.5003C750.174 99.5564 750.226 99.6394 750.247 99.7337C750.267 99.8279 750.254 99.9268 750.21 100.011C749.919 100.509 749.514 100.92 749.033 101.206C748.552 101.492 748.01 101.644 747.458 101.647C746.575 101.639 745.73 101.263 745.107 100.598C744.484 99.9341 744.132 99.0358 744.129 98.0983ZM744.83 97.5141H750.045C749.945 96.8637 749.632 96.2716 749.161 95.8416C748.691 95.4116 748.093 95.1713 747.472 95.1628C746.845 95.1767 746.242 95.4173 745.761 95.8449C745.281 96.2725 744.952 96.8614 744.83 97.5141V97.5141Z" fill="white"/>
<path d="M752.795 94.8269C752.793 94.7784 752.801 94.73 752.817 94.6848C752.834 94.6396 752.859 94.5985 752.892 94.5642C752.924 94.5298 752.963 94.503 753.005 94.4854C753.048 94.4678 753.093 94.4598 753.139 94.4618C753.183 94.4637 753.225 94.4746 753.265 94.494C753.304 94.5134 753.339 94.5408 753.369 94.5747C753.398 94.6086 753.421 94.6484 753.436 94.6916C753.451 94.7349 753.457 94.7809 753.456 94.8269V96.3896L753.566 96.2144C753.841 95.6907 754.239 95.2514 754.721 94.9392C755.203 94.627 755.753 94.4525 756.317 94.4326C756.362 94.4326 756.406 94.4421 756.447 94.4606C756.488 94.4791 756.525 94.5063 756.556 94.5404C756.587 94.5745 756.611 94.6149 756.627 94.6591C756.642 94.7033 756.65 94.7505 756.648 94.7977C756.648 94.8907 756.613 94.9798 756.551 95.0456C756.489 95.1113 756.405 95.1482 756.317 95.1482C755.92 95.1621 755.532 95.2767 755.185 95.4825C754.838 95.6883 754.542 95.9793 754.322 96.3312C753.978 96.8523 753.704 97.4227 753.511 98.0253C753.497 98.0629 753.497 98.1046 753.511 98.1421V101.326C753.513 101.371 753.506 101.417 753.491 101.459C753.476 101.501 753.453 101.54 753.423 101.573C753.393 101.606 753.358 101.632 753.319 101.65C753.279 101.667 753.237 101.676 753.194 101.676C753.15 101.678 753.105 101.671 753.064 101.654C753.022 101.637 752.984 101.612 752.952 101.579C752.92 101.546 752.894 101.507 752.877 101.464C752.859 101.42 752.85 101.373 752.85 101.326L752.795 94.8269Z" fill="white"/>
<path d="M768.507 92.0083L765.989 94.7685C766.74 94.9172 767.416 95.3439 767.897 95.9725C768.378 96.6011 768.634 97.3907 768.617 98.2006C768.621 98.663 768.537 99.1215 768.369 99.5483C768.201 99.9751 767.953 100.361 767.64 100.683C767.335 101.012 766.971 101.274 766.569 101.452C766.168 101.63 765.737 101.721 765.302 101.72C764.868 101.723 764.438 101.633 764.039 101.455C763.639 101.276 763.278 101.014 762.976 100.683C762.942 100.652 762.913 100.613 762.894 100.568C762.875 100.524 762.865 100.476 762.865 100.428C762.865 100.379 762.875 100.331 762.894 100.287C762.913 100.243 762.942 100.204 762.976 100.172C763.007 100.137 763.045 100.109 763.086 100.09C763.127 100.071 763.172 100.062 763.217 100.062C763.262 100.062 763.307 100.071 763.348 100.09C763.39 100.109 763.427 100.137 763.458 100.172C763.952 100.683 764.612 100.97 765.302 100.975C765.994 100.965 766.657 100.678 767.159 100.172C767.405 99.9148 767.6 99.6077 767.732 99.2691C767.864 98.9305 767.931 98.5672 767.929 98.2006C767.926 97.4658 767.649 96.7623 767.16 96.2427C766.67 95.7231 766.007 95.4296 765.315 95.4257C765.262 95.4246 765.21 95.411 765.162 95.3857C765.115 95.3604 765.073 95.3242 765.04 95.2797V95.2797C765.007 95.2456 764.98 95.2048 764.962 95.1596C764.944 95.1144 764.935 95.0659 764.935 95.0168C764.935 94.9677 764.944 94.9191 764.962 94.874C764.98 94.8288 765.007 94.788 765.04 94.7539L767.462 92.0959H763.719C763.638 92.0788 763.565 92.0323 763.513 91.9644C763.46 91.8965 763.431 91.8113 763.431 91.7235C763.431 91.6356 763.46 91.5505 763.513 91.4826C763.565 91.4147 763.638 91.3682 763.719 91.3511H768.287C768.333 91.351 768.379 91.3609 768.422 91.3802C768.465 91.3994 768.503 91.4277 768.535 91.4631C768.567 91.4986 768.592 91.5406 768.609 91.5866C768.625 91.6326 768.633 91.6816 768.631 91.7308C768.645 91.7833 768.645 91.8389 768.631 91.8914C768.601 91.9418 768.558 91.9823 768.507 92.0083V92.0083Z" fill="white"/>
<path d="M710.543 66.9766H706.168V84.5896H710.543V66.9766Z" fill="#455A64"/>
<path d="M710.543 87.2471H706.168V104.86H710.543V87.2471Z" fill="#263238"/>
<path d="M710.543 45.7412H706.168V63.3542H710.543V45.7412Z" fill="#FFC727"/>
<path d="M688.654 115.813H662.953V116.441H688.654V115.813Z" fill="white"/>
<path d="M698.31 53.4668H689.408V61.397H698.31V53.4668Z" fill="white"/>
<path d="M697.238 54.3433H696.206V52.2548C696.206 49.9619 695.436 48.7936 693.922 48.7936C691.473 48.7936 691.446 51.8751 691.446 51.992V54.3433H690.414V51.992C690.363 51.4622 690.414 50.9269 690.565 50.4192C690.717 49.9114 690.964 49.4419 691.293 49.0396C691.622 48.6373 692.025 48.3107 692.477 48.08C692.929 47.8493 693.421 47.7194 693.922 47.6982C696.055 47.6982 697.238 49.3193 697.238 52.2548V54.3433Z" fill="white"/>
<path d="M786.365 59.382C785.463 59.3849 784.582 59.1038 783.831 58.5744C783.08 58.045 782.494 57.291 782.147 56.408C781.801 55.5249 781.709 54.5525 781.883 53.6138C782.057 52.6751 782.49 51.8124 783.126 51.1349C783.762 50.4574 784.574 49.9955 785.457 49.8078C786.341 49.6201 787.258 49.715 788.091 50.0804C788.923 50.4459 789.636 51.0655 790.137 51.8607C790.638 52.656 790.905 53.5912 790.905 54.5479C790.905 55.8275 790.427 57.0548 789.576 57.961C788.725 58.8671 787.57 59.3781 786.365 59.382V59.382ZM786.365 50.3418C785.577 50.3389 784.806 50.5844 784.15 51.0471C783.494 51.5097 782.983 52.1688 782.68 52.9406C782.377 53.7124 782.297 54.5623 782.45 55.3823C782.603 56.2024 782.982 56.9558 783.539 57.547C784.096 58.1381 784.806 58.5404 785.579 58.7028C786.351 58.8652 787.152 58.7804 787.879 58.4591C788.606 58.1379 789.227 57.5946 789.663 56.8983C790.099 56.202 790.33 55.3839 790.327 54.5479C790.327 53.4324 789.91 52.3626 789.167 51.5738C788.423 50.785 787.416 50.3418 786.365 50.3418Z" fill="white"/>
<path d="M786.365 80.6017C785.463 80.6046 784.58 80.3232 783.829 79.7931C783.078 79.2631 782.493 78.5082 782.146 77.6243C781.8 76.7404 781.708 75.7673 781.884 74.8282C782.059 73.8891 782.493 73.0264 783.131 72.3495C783.768 71.6725 784.581 71.2118 785.466 71.0258C786.351 70.8397 787.267 70.9367 788.1 71.3044C788.933 71.6721 789.644 72.2939 790.143 73.0911C790.643 73.8883 790.908 74.8249 790.905 75.7823C790.901 77.0593 790.422 78.2829 789.571 79.1859C788.72 80.0889 787.568 80.5979 786.365 80.6017V80.6017ZM786.365 71.5762C785.581 71.5762 784.815 71.8229 784.163 72.285C783.512 72.7472 783.004 73.4041 782.704 74.1727C782.404 74.9412 782.325 75.7869 782.478 76.6028C782.631 77.4187 783.009 78.1682 783.563 78.7564C784.117 79.3446 784.823 79.7452 785.592 79.9075C786.36 80.0698 787.157 79.9865 787.881 79.6682C788.605 79.3498 789.224 78.8107 789.659 78.119C790.095 77.4274 790.327 76.6141 790.327 75.7823C790.329 75.2287 790.228 74.6802 790.029 74.1682C789.831 73.6562 789.54 73.1908 789.171 72.7987C788.803 72.4065 788.366 72.0954 787.884 71.8831C787.403 71.6708 786.886 71.5616 786.365 71.5616V71.5762Z" fill="white"/>
<path d="M786.365 101.837C785.463 101.84 784.582 101.559 783.831 101.03C783.08 100.5 782.494 99.7461 782.147 98.8631C781.801 97.98 781.709 97.0076 781.883 96.0689C782.057 95.1302 782.49 94.2675 783.126 93.59C783.762 92.9125 784.574 92.4506 785.457 92.2629C786.341 92.0752 787.258 92.1701 788.091 92.5355C788.923 92.901 789.636 93.5205 790.137 94.3158C790.638 95.1111 790.905 96.0463 790.905 97.003C790.905 98.2826 790.427 99.5099 789.576 100.416C788.725 101.322 787.57 101.833 786.365 101.837ZM786.365 92.7969C785.581 92.7969 784.815 93.0436 784.163 93.5058C783.512 93.9679 783.004 94.6248 782.704 95.3934C782.404 96.162 782.325 97.0077 782.478 97.8236C782.631 98.6395 783.009 99.3889 783.563 99.9772C784.117 100.565 784.823 100.966 785.592 101.128C786.36 101.291 787.157 101.207 787.881 100.889C788.605 100.571 789.224 100.031 789.659 99.3398C790.095 98.6481 790.327 97.8349 790.327 97.003C790.327 95.8875 789.91 94.8176 789.167 94.0288C788.423 93.2401 787.416 92.7969 786.365 92.7969V92.7969Z" fill="white"/>
<path d="M618.102 208.756C614.291 206.697 597.602 195.612 593.612 191.377C589.622 187.142 578.945 174.231 581.656 170.653C584.366 167.075 587.792 170.653 587.792 170.653C587.792 170.653 584.091 164.417 587.146 161.087C590.2 157.757 595.318 163.439 595.318 163.439C595.318 163.439 591.975 156.75 595.222 153.654C598.469 150.557 602.748 157.188 602.748 157.188C602.748 157.188 599.418 151.215 603.119 149.886C607.563 148.264 612.53 159.992 617.263 164.271C618.336 165.249 640.391 182.337 640.391 182.337L618.102 208.756Z" fill="#AD6359"/>
<path d="M602.375 156.574C606.048 165.191 609.061 168.258 616.381 173.428C616.402 173.433 616.421 173.442 616.438 173.456C616.454 173.47 616.468 173.488 616.477 173.509C616.486 173.529 616.49 173.552 616.49 173.574C616.489 173.597 616.484 173.619 616.474 173.639C616.464 173.659 616.45 173.676 616.432 173.689C616.415 173.703 616.395 173.711 616.374 173.715C616.353 173.719 616.331 173.717 616.311 173.71C616.291 173.703 616.272 173.692 616.257 173.676C608.662 169.295 604.356 166.053 601.976 156.75C601.852 156.268 602.196 156.165 602.375 156.574Z" fill="#263238"/>
<path d="M595.043 162.694C599.583 171.296 602.83 174.684 610.177 180.657C610.274 180.745 610.177 180.935 610.04 180.862C602.418 175.648 598.194 172.245 594.699 163.015C594.575 162.592 594.823 162.314 595.043 162.694Z" fill="#263238"/>
<path d="M588.164 170.873C593.145 178.861 596.543 182.746 604.33 187.565C604.35 187.576 604.368 187.591 604.382 187.608C604.397 187.626 604.408 187.647 604.415 187.669C604.422 187.692 604.425 187.715 604.423 187.739C604.422 187.762 604.416 187.785 604.406 187.806C604.396 187.828 604.382 187.846 604.365 187.862C604.349 187.877 604.329 187.889 604.308 187.897C604.287 187.904 604.265 187.907 604.243 187.905C604.22 187.904 604.199 187.897 604.179 187.887C595.786 183.783 591.507 178.963 587.958 171.062C587.696 170.551 587.848 170.405 588.164 170.873Z" fill="#263238"/>
<path d="M648.52 179.358C648.52 179.358 642.755 169.134 639.288 165.337C635.821 161.54 617.935 152.091 615.816 156.078C613.064 161.233 622.393 168.799 627.414 171.88C627.414 171.88 621.058 183.783 626.644 190.749C632.23 197.715 648.52 179.358 648.52 179.358Z" fill="#AD6359"/>
<path d="M615.501 157.728C616.189 164.344 623.027 167.951 627.691 171.296C627.759 171.345 627.815 171.412 627.853 171.489C627.892 171.567 627.912 171.653 627.912 171.741C627.912 171.829 627.892 171.915 627.853 171.993C627.815 172.07 627.759 172.137 627.691 172.186C625.338 177.371 623.44 185.404 626.247 190.69C626.265 190.719 626.271 190.755 626.265 190.789C626.258 190.823 626.239 190.854 626.212 190.873C626.185 190.892 626.151 190.899 626.119 190.892C626.087 190.886 626.058 190.865 626.04 190.836C622.298 185.608 623.564 177.561 626.48 172.055C621.637 168.681 614.937 164.753 615.391 157.728C615.446 157.728 615.487 157.728 615.501 157.728Z" fill="#263238"/>
<path d="M582.954 120.446L542.82 163.062L684.106 312.983L724.24 270.366L582.954 120.446Z" fill="#EBEBEB"/>
<path d="M582.449 130.51L552.295 162.529L571.834 183.262L601.987 151.243L582.449 130.51Z" fill="#FFC727"/>
<path opacity="0.8" d="M606.134 155.642L575.98 187.661L595.519 208.394L625.673 176.375L606.134 155.642Z" fill="#FFC727"/>
<path opacity="0.6" d="M629.837 180.774L599.684 212.793L619.222 233.526L649.376 201.507L629.837 180.774Z" fill="#FFC727"/>
<path opacity="0.4" d="M653.511 205.917L623.357 237.936L642.896 258.669L673.05 226.65L653.511 205.917Z" fill="#FFC727"/>
<path opacity="0.2" d="M677.197 231.05L647.043 263.069L666.582 283.802L696.736 251.783L677.197 231.05Z" fill="#FFC727"/>
<g opacity="0.1">
<path opacity="0.1" d="M582.449 130.509L552.295 162.528L571.834 183.261L601.987 151.242L582.449 130.509Z" fill="black"/>
<path opacity="0.8" d="M606.134 155.642L575.98 187.661L595.519 208.394L625.673 176.375L606.134 155.642Z" fill="black"/>
<path opacity="0.6" d="M629.834 180.774L599.68 212.793L619.218 233.526L649.372 201.507L629.834 180.774Z" fill="black"/>
<path opacity="0.4" d="M653.511 205.917L623.357 237.936L642.896 258.669L673.05 226.65L653.511 205.917Z" fill="black"/>
<path opacity="0.2" d="M677.197 231.049L647.043 263.068L666.582 283.801L696.736 251.782L677.197 231.049Z" fill="black"/>
</g>
<path d="M698.727 277.135C699.547 278.002 700.106 279.108 700.333 280.312C700.56 281.517 700.445 282.766 700.004 283.901C699.562 285.037 698.812 286.008 697.85 286.69C696.888 287.373 695.757 287.738 694.599 287.738C693.442 287.738 692.311 287.373 691.349 286.69C690.387 286.008 689.637 285.037 689.195 283.901C688.753 282.766 688.639 281.517 688.866 280.312C689.093 279.108 689.652 278.002 690.472 277.135C691.568 275.975 693.052 275.324 694.599 275.324C696.147 275.324 697.631 275.975 698.727 277.135V277.135Z" fill="#263238"/>
<path d="M673.784 82.7845L618.953 98.3906L670.692 303.212L725.523 287.606L673.784 82.7845Z" fill="#EBEBEB"/>
<path d="M668.612 91.2136L627.416 102.939L634.571 131.264L675.767 119.539L668.612 91.2136Z" fill="#FFC727"/>
<path opacity="0.8" d="M677.286 125.554L636.09 137.279L643.245 165.605L684.441 153.879L677.286 125.554Z" fill="#FFC727"/>
<path opacity="0.6" d="M685.958 159.884L644.762 171.609L651.917 199.934L693.113 188.209L685.958 159.884Z" fill="#FFC727"/>
<path opacity="0.4" d="M694.63 194.228L653.434 205.953L660.589 234.278L701.785 222.553L694.63 194.228Z" fill="#FFC727"/>
<path opacity="0.2" d="M703.308 228.568L662.111 240.293L669.266 268.618L710.463 256.893L703.308 228.568Z" fill="#FFC727"/>
<path d="M345.749 279.982C341.965 278.259 338.553 276.01 339.241 274.14V274.067C340.067 272.227 343.96 273.308 347.744 275.031L345.749 279.982Z" fill="#263238"/>
<path d="M362.55 311.864C358.601 310.067 347.416 288.088 344.54 279.427C344.316 278.486 344.383 277.493 344.733 276.596C345.082 275.699 345.695 274.945 346.48 274.447C354.295 270.781 377.148 264.224 381.11 266.006C383.862 267.232 392.213 274.768 401.294 281.603C413.113 290.658 577.94 371.158 579.316 373.056C580.691 374.955 579.178 380.213 578.05 382.987C576.922 385.762 574.362 390.611 572.106 390.859C569.85 391.108 401.404 319.546 387.095 316.668C376.143 314.405 365.233 313.09 362.55 311.864Z" fill="#37474F"/>
<path d="M362.522 311.849C362.097 311.658 361.723 311.357 361.436 310.973C362.893 301.945 365.321 293.125 368.673 284.685C371.336 277.86 374.893 271.468 379.239 265.699C379.867 265.611 380.506 265.691 381.096 265.933C381.682 266.22 382.248 266.552 382.789 266.926C378.565 272.11 368.934 286.247 364.572 312.535C363.868 312.383 363.181 312.153 362.522 311.849Z" fill="#A6A6A6"/>
<path d="M443.199 325.959L446.23 318.472C446.449 317.931 446.214 317.304 445.704 317.071L393.083 293.062C392.573 292.829 391.982 293.079 391.763 293.62L388.732 301.107C388.513 301.648 388.748 302.275 389.258 302.508L441.879 326.517C442.389 326.75 442.979 326.5 443.199 325.959Z" fill="#263238"/>
<path d="M426.319 316.355L428.085 311.994C428.214 311.675 428.075 311.306 427.775 311.169L394.278 295.885C393.978 295.748 393.63 295.896 393.501 296.214L391.735 300.575C391.606 300.894 391.745 301.263 392.045 301.4L425.542 316.684C425.842 316.821 426.19 316.673 426.319 316.355Z" fill="#A6A6A6"/>
<path d="M405.164 300.905L402.936 306.406L404.465 307.104L406.693 301.604L405.164 300.905Z" fill="#263238"/>
<path d="M192.092 557C191.858 557 191.748 556.869 191.734 556.796L192.092 557Z" fill="#FFC727"/>
<path d="M117.44 122.911C117.455 123.211 117.358 123.505 117.169 123.729C116.981 123.953 116.717 124.09 116.435 124.109C116.296 124.117 116.157 124.095 116.025 124.046C115.894 123.996 115.773 123.92 115.67 123.821C115.566 123.722 115.482 123.602 115.422 123.469C115.362 123.335 115.328 123.19 115.321 123.043C115.311 122.896 115.33 122.748 115.375 122.609C115.42 122.469 115.49 122.341 115.582 122.231C115.675 122.121 115.787 122.031 115.912 121.967C116.037 121.904 116.173 121.867 116.311 121.86C116.592 121.843 116.867 121.945 117.077 122.141C117.288 122.338 117.418 122.614 117.44 122.911Z" fill="white"/>
<path d="M174.551 241.743L292.838 269.096L320.906 132.335L202.619 104.981L174.551 241.743Z" fill="white"/>
<path d="M174.523 241.762L292.847 268.883L292.585 269.058L320.515 132.273L320.79 132.711L202.467 105.254L202.742 105.064L174.523 241.762ZM174.523 241.762L202.357 104.948V104.714H202.591L320.914 131.951L321.258 132.024L321.176 132.389L293.026 269.16V269.394H292.806L174.523 241.762Z" fill="#DBDBDB"/>
<path d="M180.273 236.779L286.939 261.042L311.836 137.712L205.17 113.449L180.273 236.779Z" fill="#FFC727"/>
<path opacity="0.6" d="M180.273 236.779L286.939 261.042L311.836 137.712L205.17 113.449L180.273 236.779Z" fill="white"/>
<path d="M225.32 203.82L296.576 220.279L268.715 174.202L225.32 203.82Z" fill="#FFC727"/>
<path opacity="0.2" d="M225.32 203.82L296.576 220.279L268.715 174.202L225.32 203.82Z" fill="white"/>
<path d="M190.223 195.744L253.416 210.348L226.875 178.394L190.223 195.744Z" fill="#FFC727"/>
<path opacity="0.6" d="M233.989 150.776C233.571 152.823 232.59 154.693 231.17 156.148C229.751 157.603 227.957 158.579 226.015 158.951C224.073 159.324 222.071 159.077 220.261 158.241C218.452 157.406 216.916 156.019 215.849 154.257C214.782 152.495 214.232 150.436 214.267 148.342C214.303 146.247 214.923 144.211 216.049 142.491C217.174 140.771 218.756 139.443 220.593 138.677C222.429 137.911 224.439 137.741 226.367 138.187C228.949 138.785 231.203 140.447 232.632 142.807C234.061 145.168 234.549 148.034 233.989 150.776V150.776Z" fill="white"/>
</svg>
