<svg width="43" height="43" viewBox="0 0 43 43" fill="none" xmlns="http://www.w3.org/2000/svg">
<g filter="url(#filter0_d_531_1495)">
<path d="M27.625 14.159V14.1075C27.625 11.0172 25.2202 8.75104 21.5822 8.75104C20.4686 8.73259 19.3645 8.96022 18.3486 9.41777C17.3326 9.87531 16.4296 10.5515 15.7039 11.3984C15.603 11.492 15.522 11.605 15.4655 11.7306C15.409 11.8563 15.3782 11.992 15.375 12.1297C15.3749 12.2568 15.4004 12.3826 15.4498 12.4997C15.4992 12.6167 15.5716 12.7226 15.6627 12.811C15.7538 12.8994 15.8617 12.9686 15.98 13.0144C16.0983 13.0601 16.2246 13.0816 16.3513 13.0774C16.6228 13.0707 16.8824 12.9644 17.081 12.7787C17.6302 12.1335 18.3124 11.6153 19.0806 11.2597C19.8487 10.904 20.6847 10.7194 21.5308 10.7185C23.9562 10.7185 25.4669 12.2843 25.4669 14.2311V14.2826C25.4669 16.5591 23.6581 17.8261 20.8012 18.0425C20.6855 18.0469 20.5721 18.0759 20.4683 18.1273C20.3645 18.1788 20.2728 18.2516 20.199 18.3411C20.1253 18.4306 20.0713 18.5346 20.0404 18.6465C20.0096 18.7583 20.0027 18.8754 20.0201 18.9902V21.8229C20.0457 22.0779 20.1652 22.3141 20.3552 22.4856C20.5452 22.657 20.7922 22.7513 21.0478 22.75H21.1609C21.4152 22.7244 21.651 22.6046 21.822 22.4142C21.993 22.2237 22.0871 21.9761 22.0858 21.7199V19.5979C25.1277 19.1344 27.625 17.5377 27.625 14.159Z" fill="black"/>
<path d="M21.0625 28C21.7874 28 22.375 27.4124 22.375 26.6875C22.375 25.9626 21.7874 25.375 21.0625 25.375C20.3376 25.375 19.75 25.9626 19.75 26.6875C19.75 27.4124 20.3376 28 21.0625 28Z" fill="black"/>
<path d="M37.1882 12.3616C36.5426 12.6574 35.86 12.8646 35.159 12.9778C36.2801 16.1698 36.2837 19.6479 35.1692 22.8422C34.0546 26.0364 31.8881 28.7573 29.0246 30.5589C26.1611 32.3605 22.7705 33.136 19.4085 32.7582C16.0466 32.3804 12.9127 30.8718 10.5205 28.4795C8.12823 26.0873 6.6196 22.9534 6.2418 19.5915C5.864 16.2295 6.63946 12.8389 8.44108 9.97543C10.2427 7.11193 12.9636 4.94536 16.1578 3.83082C19.3521 2.71628 22.8302 2.71987 26.0222 3.84101C26.1355 3.13999 26.3428 2.45744 26.6384 1.81178C22.9903 0.550382 19.0224 0.563206 15.3825 1.84816C11.7427 3.13312 8.64614 5.61427 6.59855 8.88639C4.55096 12.1585 3.67336 16.0282 4.10908 19.8635C4.5448 23.6988 6.2681 27.2731 8.99751 30.0025C11.7269 32.7319 15.3012 34.4552 19.1365 34.8909C22.9718 35.3266 26.8415 34.449 30.1136 32.4014C33.3857 30.3539 35.8669 27.2573 37.1518 23.6175C38.4368 19.9776 38.4496 16.0097 37.1882 12.3616Z" fill="black"/>
<path d="M33.75 10.5C36.6495 10.5 39 8.14949 39 5.25C39 2.3505 36.6495 0 33.75 0C30.8505 0 28.5 2.3505 28.5 5.25C28.5 8.14949 30.8505 10.5 33.75 10.5Z" fill="black"/>
</g>
<defs>
<filter id="filter0_d_531_1495" x="0" y="0" width="43" height="43" filterUnits="userSpaceOnUse" color-interpolation-filters="sRGB">
<feFlood flood-opacity="0" result="BackgroundImageFix"/>
<feColorMatrix in="SourceAlpha" type="matrix" values="0 0 0 0 0 0 0 0 0 0 0 0 0 0 0 0 0 0 127 0" result="hardAlpha"/>
<feOffset dy="4"/>
<feGaussianBlur stdDeviation="2"/>
<feComposite in2="hardAlpha" operator="out"/>
<feColorMatrix type="matrix" values="0 0 0 0 0 0 0 0 0 0 0 0 0 0 0 0 0 0 0.25 0"/>
<feBlend mode="normal" in2="BackgroundImageFix" result="effect1_dropShadow_531_1495"/>
<feBlend mode="normal" in="SourceGraphic" in2="effect1_dropShadow_531_1495" result="shape"/>
</filter>
</defs>
</svg>
