<svg width="67" height="56" viewBox="0 0 67 56" fill="#068072" xmlns="http://www.w3.org/2000/svg">
<path d="M57.3182 13.1243C57.552 13.1243 57.7763 13.0321 57.9416 12.868C58.1069 12.7039 58.1998 12.4814 58.1998 12.2493V9.33556C58.1989 8.5756 57.8943 7.84704 57.3529 7.30966C56.8115 6.77229 56.0774 6.46999 55.3117 6.46906H50.5741L49.4933 3.30331C49.4199 3.08802 49.2649 2.90955 49.0612 2.80568C48.8575 2.70182 48.621 2.6807 48.4019 2.74681L22.7427 10.4888C22.5303 10.5657 22.3557 10.7205 22.2549 10.9213C22.154 11.1222 22.1346 11.3537 22.2006 11.5683C22.2665 11.7829 22.4129 11.9643 22.6095 12.075C22.8062 12.1857 23.0381 12.2174 23.2575 12.1636L48.0987 4.66656L50.4666 11.6053C50.5416 11.8251 50.7016 12.0062 50.9112 12.109C51.1208 12.2117 51.363 12.2276 51.5844 12.1531C51.8058 12.0786 51.9884 11.9198 52.0919 11.7118C52.1954 11.5037 52.2113 11.2633 52.1363 11.0436L51.1719 8.21731H55.3135C55.9341 8.21731 56.4384 8.71781 56.4384 9.33381V12.2493C56.4366 12.7323 56.8316 13.1243 57.3182 13.1243Z"/>
<path d="M64.3553 26.2503C64.1215 26.2503 63.8972 26.3425 63.7319 26.5066C63.5666 26.6707 63.4737 26.8932 63.4737 27.1253C63.4737 27.3573 63.5666 27.5799 63.7319 27.744C63.8972 27.9081 64.1215 28.0003 64.3553 28.0003C64.9741 28.0003 65.2368 28.261 65.2368 28.8753V39.3753C65.2368 39.9895 64.9741 40.2503 64.3553 40.2503H50.25C49.6311 40.2503 49.3684 39.9895 49.3684 39.3753V30.6253C49.3684 30.011 49.6311 29.7503 50.25 29.7503H60.8289C61.0628 29.7503 61.287 29.6581 61.4523 29.494C61.6176 29.3299 61.7105 29.1073 61.7105 28.8753V18.3753C61.7105 16.781 60.672 15.7503 59.0658 15.7503H5.28947C3.1155 15.7503 1.76316 14.408 1.76316 12.2503C1.76316 10.0925 3.1155 8.75028 5.28947 8.75028H14.2393L8.90395 10.4968C8.79001 10.5294 8.68388 10.5845 8.59189 10.6587C8.49991 10.733 8.42397 10.8249 8.36861 10.929C8.31325 11.0331 8.27962 11.1472 8.26972 11.2645C8.25982 11.3818 8.27386 11.4998 8.311 11.6116C8.34815 11.7234 8.40762 11.8265 8.48588 11.915C8.56413 12.0034 8.65955 12.0752 8.76643 12.1262C8.87331 12.1772 8.98946 12.2062 9.10791 12.2116C9.22636 12.217 9.34469 12.1986 9.45582 12.1575L41.4025 1.70478C41.5125 1.6687 41.6142 1.61147 41.7019 1.53636C41.7896 1.46125 41.8615 1.36973 41.9136 1.26703C41.9657 1.16433 41.9968 1.05246 42.0053 0.937796C42.0138 0.823137 41.9995 0.707938 41.9632 0.598776C41.9268 0.489615 41.8691 0.388629 41.7935 0.301585C41.7178 0.21454 41.6256 0.143142 41.5221 0.0914662C41.4186 0.0397904 41.3059 0.00884918 41.1904 0.000409164C41.0749 -0.00803085 40.9588 0.00619563 40.8488 0.0422763L19.5146 7.02478C19.4741 7.01778 19.4371 7.00028 19.3947 7.00028H5.28947C2.12637 7.00028 0 9.11078 0 12.2503V50.7503C0 53.8898 2.12637 56.0003 5.28947 56.0003H59.0658C60.672 56.0003 61.7105 54.9695 61.7105 53.3753V44.6253C61.7105 44.3932 61.6176 44.1707 61.4523 44.0066C61.287 43.8425 61.0628 43.7503 60.8289 43.7503C60.5951 43.7503 60.3709 43.8425 60.2056 44.0066C60.0402 44.1707 59.9474 44.3932 59.9474 44.6253V53.3753C59.9474 53.9895 59.6847 54.2503 59.0658 54.2503H5.28947C3.1155 54.2503 1.76316 52.908 1.76316 50.7503V16.2963C2.66766 17.054 3.86484 17.5003 5.28947 17.5003H59.0658C59.6847 17.5003 59.9474 17.761 59.9474 18.3753V28.0003H50.25C48.6438 28.0003 47.6053 29.031 47.6053 30.6253V39.3753C47.6053 40.9695 48.6438 42.0003 50.25 42.0003H64.3553C65.9615 42.0003 67 40.9695 67 39.3753V28.8753C67 27.281 65.9615 26.2503 64.3553 26.2503Z"/>
<path d="M56.4214 36.75C57.3951 36.75 58.1845 35.9665 58.1845 35C58.1845 34.0335 57.3951 33.25 56.4214 33.25C55.4476 33.25 54.6582 34.0335 54.6582 35C54.6582 35.9665 55.4476 36.75 56.4214 36.75Z" />
</svg>
