<svg width="45" height="45" viewBox="0 0 45 45" fill="none" xmlns="http://www.w3.org/2000/svg">
<g clip-path="url(#clip0_1033_1915)">
<path fill-rule="evenodd" clip-rule="evenodd" d="M0 22.5C0 16.5326 2.37053 10.8097 6.5901 6.5901C10.8097 2.37053 16.5326 0 22.5 0C28.4674 0 34.1903 2.37053 38.4099 6.5901C42.6295 10.8097 45 16.5326 45 22.5C45 28.4674 42.6295 34.1903 38.4099 38.4099C34.1903 42.6295 28.4674 45 22.5 45C16.5326 45 10.8097 42.6295 6.5901 38.4099C2.37053 34.1903 0 28.4674 0 22.5H0ZM21.216 32.13L34.17 15.936L31.83 14.064L20.784 27.867L12.96 21.348L11.04 23.652L21.216 32.133V32.13Z" fill="#006872"/>
</g>
<defs>
<clipPath id="clip0_1033_1915">
<rect width="45" height="45" fill="white"/>
</clipPath>
</defs>
</svg>
