<svg width="48" height="37" viewBox="0 0 48 37" fill="none" xmlns="http://www.w3.org/2000/svg">
<path d="M8 0.78125C5.87827 0.78125 3.84344 1.61093 2.34315 3.08778C0.842854 4.56463 0 6.56767 0 8.65625V28.3438C0 30.4323 0.842854 32.4354 2.34315 33.9122C3.84344 35.3891 5.87827 36.2188 8 36.2188H28C30.1217 36.2188 32.1566 35.3891 33.6569 33.9122C35.1571 32.4354 36 30.4323 36 28.3438V26.375L43.2 31.6906C43.6457 32.0197 44.1757 32.2201 44.7306 32.2693C45.2855 32.3186 45.8433 32.2147 46.3416 31.9695C46.84 31.7242 47.259 31.3472 47.552 30.8807C47.8449 30.4142 48 29.8766 48 29.3281V7.67188C48 7.12344 47.8449 6.58585 47.552 6.11932C47.259 5.6528 46.84 5.27579 46.3416 5.03052C45.8433 4.78525 45.2855 4.68143 44.7306 4.73068C44.1757 4.77993 43.6457 4.98032 43.2 5.30938L36 10.625V8.65625C36 6.56767 35.1571 4.56463 33.6569 3.08778C32.1566 1.61093 30.1217 0.78125 28 0.78125H8ZM36 15.5469L44 9.64062V27.3594L36 21.4531V15.5469ZM32 8.65625V28.3438C32 29.388 31.5786 30.3896 30.8284 31.128C30.0783 31.8664 29.0609 32.2812 28 32.2812H8C6.93913 32.2812 5.92172 31.8664 5.17157 31.128C4.42143 30.3896 4 29.388 4 28.3438V8.65625C4 7.61196 4.42143 6.61044 5.17157 5.87202C5.92172 5.13359 6.93913 4.71875 8 4.71875H28C29.0609 4.71875 30.0783 5.13359 30.8284 5.87202C31.5786 6.61044 32 7.61196 32 8.65625Z" fill="#006872"/>
</svg>
