<svg width="229" height="258" viewBox="0 0 229 258" fill="none" xmlns="http://www.w3.org/2000/svg">
<path fill-rule="evenodd" clip-rule="evenodd" d="M193.609 76.4784H49.0168C47.3698 76.4678 45.7666 75.6315 44.9036 74.1472C43.632 71.9601 44.4424 69.1864 46.7109 67.9584L154.884 9.54945C158.747 7.45966 161.738 7.75609 164.162 9.16622C166.17 10.3349 167.257 12.0415 168.122 13.6697L197.714 69.6829C198.105 70.3435 198.327 71.1099 198.327 71.923C198.327 74.4362 196.212 76.4751 193.605 76.4751L193.609 76.4784ZM46.8805 61.8756C44.6119 63.1015 41.7351 62.3203 40.4613 60.1331C39.1898 57.9459 40.0001 55.1723 42.2686 53.9442L141.098 0.579971C143.366 -0.645934 146.243 0.135339 147.517 2.32248C148.788 4.50967 147.978 7.28328 145.71 8.51136L46.8805 61.8756ZM13.0389 209.139C13.0389 206.626 15.1537 204.587 17.7604 204.587C20.3672 204.587 22.482 206.626 22.482 209.139V218.644C22.482 221.157 20.3672 223.196 17.7604 223.196C15.1537 223.196 13.0389 221.157 13.0389 218.644V209.139ZM160.217 33.4896C161.462 34.6478 161.504 36.5661 160.303 37.7666C159.102 38.967 157.112 39.0073 155.867 37.8491C155.294 37.3156 154.553 37.0064 153.8 36.9492C153.029 36.8921 152.243 37.0742 151.589 37.5125C150.939 37.9465 150.477 38.5881 150.273 39.291L150.218 39.4625C150.067 40.1104 150.122 40.8218 150.416 41.4845C151.354 43.5849 154.52 43.4282 157.683 43.2694C163.026 43.0005 168.384 42.7358 171.044 48.7005C171.947 50.7331 172.052 52.9415 171.453 54.9485C171.152 55.9732 170.66 56.9493 169.999 57.8301L171.29 59.615C172.278 60.9892 171.929 62.882 170.506 63.8348C169.081 64.7876 167.118 64.4509 166.129 63.079L164.864 61.3301C163.727 61.6498 162.548 61.7641 161.392 61.6752C159.231 61.5058 157.119 60.6313 155.461 59.09C154.215 57.9318 154.174 56.0135 155.375 54.813C156.576 53.6126 158.566 53.5723 159.811 54.7305C160.384 55.264 161.127 55.5732 161.882 55.6303C162.648 55.6875 163.439 55.5012 164.091 55.0671C164.741 54.6331 165.2 53.9957 165.407 53.2928C165.615 52.5857 165.582 51.8044 165.266 51.0951C164.333 48.9968 161.162 49.1557 158.004 49.3123C152.656 49.5812 147.307 49.8543 144.638 43.8774C143.775 41.9485 143.652 39.8482 144.162 37.9151L144.228 37.6314C144.529 36.6066 145.021 35.6263 145.682 34.7455L144.39 32.9606C143.402 31.5865 143.751 29.6936 145.174 28.7408C146.6 27.788 148.563 28.1247 149.551 29.4967L150.816 31.2456C151.954 30.9237 153.133 30.8115 154.292 30.9004C156.46 31.0698 158.568 31.9464 160.22 33.4857L160.217 33.4896ZM187.567 161.164C192.873 161.164 197.173 165.312 197.173 170.425C197.173 175.539 192.875 179.686 187.567 179.686C182.263 179.686 177.966 175.539 177.966 170.425C177.966 165.312 182.263 161.164 187.567 161.164ZM13.0377 231.704C13.0377 229.191 15.1526 227.152 17.7593 227.152C20.3661 227.152 22.4809 229.191 22.4809 231.704C22.4809 232.961 23.0277 234.12 23.893 234.958C24.7626 235.794 25.9639 236.319 27.2684 236.319H55.6639C58.2707 236.319 60.3855 238.358 60.3855 240.872C60.3855 243.385 58.2707 245.424 55.6639 245.424H27.2684C23.3747 245.424 19.8192 243.868 17.2387 241.386C14.6473 238.879 13.0332 235.454 13.0332 231.7L13.0377 231.704ZM25.6018 82.8575H217.312C220.531 82.8575 223.459 84.1237 225.571 86.1584C227.684 88.1952 228.995 91.0154 228.995 94.1213V147.352H187.585C181.116 147.352 175.215 149.908 170.937 154.024L170.906 154.054C166.63 158.18 163.975 163.874 163.975 170.116V170.736C163.975 176.974 166.626 182.663 170.896 186.787L170.926 186.817C175.207 190.939 181.112 193.499 187.586 193.499H228.995V246.734C228.995 249.813 227.682 252.629 225.567 254.676L225.537 254.706C223.417 256.738 220.501 258 217.312 258H25.602C18.5745 258 12.1705 255.222 7.5346 250.755C2.8833 246.266 0 240.096 0 233.312V107.54C0 100.746 2.87908 94.5737 7.51493 90.102C12.1509 85.6324 18.5548 82.8567 25.602 82.8567L25.6018 82.8575ZM229 156.459V184.391H187.591C183.69 184.391 180.141 182.856 177.572 180.376C175.018 177.916 173.426 174.496 173.426 170.736V170.116C173.426 166.356 175.018 162.934 177.59 160.457C180.142 157.995 183.689 156.46 187.588 156.46L229 156.459Z" fill="#006872"/>
</svg>
