<svg width="142" height="126" viewBox="0 0 142 126" fill="none" xmlns="http://www.w3.org/2000/svg">
<path d="M136.082 0.000283216H5.75671C2.55882 0.000283216 0 2.55908 0 5.757V92.9073C0 96.1051 2.5588 98.664 5.75671 98.664H75.1571L79.9547 117.214H45.8941C44.6147 117.214 43.4959 118.334 43.4959 119.612C43.4959 122.65 46.0547 125.209 49.0933 125.209H112.577C115.455 125.209 117.854 122.971 118.014 120.092V119.612V119.452V119.132L112.737 98.8236H136.243C139.441 98.8236 142 96.2648 142 93.0669L141.999 5.75672C141.839 2.55883 139.281 0 136.083 0L136.082 0.000283216ZM5.75671 4.79783H128.886C129.366 4.79783 129.846 5.27747 129.846 5.75711V78.1958H4.79709V5.75711C4.79709 5.11796 5.27673 4.79783 5.75637 4.79783H5.75671ZM4.79743 92.9076V82.9935H130.006V92.9076C130.006 93.3872 129.526 93.8668 129.047 93.8668L5.75706 93.8679C5.27742 93.8679 4.79778 93.5478 4.79778 92.9076H4.79743ZM112.576 117.214H85.0716L80.2741 98.6643H107.619L112.576 117.214ZM137.042 92.9076C137.042 93.3872 136.562 93.8668 136.083 93.8668H134.803C134.803 93.5467 134.963 93.2277 134.963 92.9076V5.75728C134.963 5.43715 134.963 5.11813 134.803 4.798H136.083C136.562 4.798 137.042 5.27764 137.042 5.75728V92.9076Z" fill="#006872"/>
<path d="M11.3524 75.3177H123.289C124.568 75.3177 125.687 74.1978 125.687 72.9196V9.7556C125.687 8.47618 124.567 7.35742 123.289 7.35742H11.3524C10.073 7.35742 8.95424 8.47733 8.95424 9.7556L8.95312 72.9196C8.95312 74.199 10.073 75.3188 11.3524 75.3188V75.3177ZM13.7506 12.1538H120.889V70.5205H13.7506V12.1538Z" fill="#006872"/>
</svg>
