<svg width="103" height="102" viewBox="0 0 103 102" fill="none" xmlns="http://www.w3.org/2000/svg">
<path d="M96.5616 54.4H52.7016C49.8116 54.4 47.6016 56.61 47.6016 59.5V86.7C47.6016 89.59 49.8116 91.8 52.7016 91.8H69.7016V98.6H64.6016V102H85.0016V98.6H79.9016V91.8H96.5616C99.4516 91.8 102.172 89.59 102.172 86.7V59.5C102.002 56.61 99.2816 54.4 96.5616 54.4ZM76.5016 98.6H73.1016V91.8H76.5016V98.6ZM98.6016 86.7C98.6016 87.72 97.4116 88.4 96.3916 88.4H52.7006C51.6806 88.4 51.0006 87.72 51.0006 86.7V81.6H98.6006L98.6016 86.7ZM98.6016 78.2H51.0016V59.5C51.0016 58.48 51.6816 57.8 52.7016 57.8H96.5616C97.5816 57.8 98.7716 58.48 98.7716 59.5L98.6016 78.2Z" fill="#006872"/>
<path d="M39.27 11.39L29.41 1.53C28.39 0.51 27.2 0 25.84 0H5.1C2.21 0 0 2.21 0 5.1V45.9C0 48.79 2.21 51 5.1 51H35.7C38.59 51 40.8 48.79 40.8 45.9V14.96C40.8 13.6 40.29 12.41 39.27 11.39ZM28.9 5.78L35.02 11.9H30.6C29.58 11.9 28.9 11.22 28.9 10.2V5.78ZM35.7 47.6H5.1C4.08 47.6 3.4 46.92 3.4 45.9V5.1C3.4 4.08 4.08 3.4 5.1 3.4H25.5V10.2C25.5 13.09 27.71 15.3 30.6 15.3H37.4V45.9C37.4 46.92 36.72 47.6 35.7 47.6Z" fill="#006872"/>
<path d="M14.1111 36.891L6.12109 28.901L14.1111 20.911L16.4911 23.291L10.8811 28.901L16.4911 34.511L14.1111 36.891Z" fill="#006872"/>
<path d="M26.6925 36.891L24.3125 34.511L29.9225 28.901L24.3125 23.291L26.6925 20.911L34.6825 28.901L26.6925 36.891Z" fill="#006872"/>
<path d="M20.3609 36.073L17.0625 35.2495L20.439 21.7247L23.7374 22.5482L20.3609 36.073Z" fill="#006872"/>
<path d="M85.3433 36.2109C79.5633 22.6109 65.9633 13.6 51.0033 13.6C48.6233 13.6 46.2433 13.77 43.8633 14.28L44.5433 17.68C46.5833 17.34 48.7933 17 51.0033 17C64.4333 17 76.5033 24.99 81.9433 36.8909L75.4833 38.2509L86.7033 51.0009L92.1433 35.0209L85.3433 36.2109Z" fill="#006872"/>
<path d="M21.5886 67.8291L27.8786 65.9591L15.4686 54.399L11.5586 70.8891L18.1886 68.8491C23.4586 78.5391 32.9786 85.5091 43.8576 87.7191L44.5376 84.3191C34.8476 82.4491 26.3476 76.4991 21.5886 67.8291Z" fill="#006872"/>
</svg>
