<svg width="422" height="413" viewBox="0 0 422 413" fill="none" xmlns="http://www.w3.org/2000/svg">
<path d="M262.934 19.2305V63.7052C262.934 70.7228 268.748 76.4132 275.919 76.4132H321.362" stroke="#006872" stroke-width="21.538" stroke-miterlimit="10"/>
<path d="M257.558 19.2324H113.614C106.443 19.2324 100.629 24.9225 100.629 31.9404V298.453C100.629 305.471 106.443 311.161 113.614 311.161H308.379C315.55 311.161 321.364 305.471 321.364 298.453V81.6773C321.364 78.3079 319.996 75.0745 317.561 72.6912L266.738 22.9525C264.301 20.5695 260.999 19.2305 257.556 19.2305L257.558 19.2324Z" stroke="#006872" stroke-width="21.538" stroke-miterlimit="10"/>
<path d="M171.102 127.074L250.897 205.168" stroke="#006872" stroke-width="21.538" stroke-miterlimit="10"/>
<path d="M250.889 127.074L171.094 205.168" stroke="#006872" stroke-width="21.538" stroke-miterlimit="10"/>
</svg>
