<svg width="639" height="651" viewBox="0 0 639 651" fill="none" xmlns="http://www.w3.org/2000/svg">
<path d="M125.153 76.8701H80.2188V91.4395H125.153V76.8701Z" fill="#EBEBEB"/>
<path d="M559.418 207.344H513.205V191.472H559.418V207.344ZM514.483 206.042H558.14V192.774H514.483V206.042Z" fill="#EBEBEB"/>
<path d="M100.092 58.4989C92.6286 58.6291 73.4969 58.9546 66.289 59.0457H55.1576L55.7455 58.4468V73.0162L55.1065 72.3652C62.57 72.3652 81.5995 72.4693 88.8074 72.5735L100.041 72.7167L99.7343 73.0162L100.041 58.4468L100.092 58.4989ZM100.092 58.4989L100.386 73.0682V73.3807H100.079C94.4689 73.4588 83.2097 73.589 77.6121 73.6281L55.1449 73.7192H54.5059V73.0682V58.4989V57.913H55.081H66.4168C73.5736 57.9911 92.6158 58.3166 100.015 58.4468L100.092 58.4989Z" fill="#EBEBEB"/>
<path d="M175.188 405.898C167.724 406.029 148.58 406.354 141.385 406.445H130.253L130.828 405.846V420.416L130.189 419.765C137.653 419.765 156.682 419.869 163.89 419.973L175.124 420.116L174.817 420.416L175.124 405.846L175.188 405.898ZM175.188 405.898L175.482 420.468V420.78H175.175C169.565 420.858 158.305 420.989 152.708 421.041L130.241 421.119H129.602V420.455V405.885V405.3H130.189H141.525C148.682 405.378 167.724 405.716 175.124 405.833L175.188 405.898Z" fill="#EBEBEB"/>
<path d="M150.113 387.527C142.649 387.658 123.517 387.983 116.322 388.074H105.191L105.766 387.475V402.045L105.127 401.394C112.578 401.394 131.607 401.498 138.815 401.602L150.049 401.745L149.755 402.045L150.049 387.475L150.113 387.527ZM150.113 387.527L150.419 402.097V402.409H150.1C144.502 402.487 133.243 402.618 127.633 402.67L105.178 402.748H104.539V402.084V387.514V386.928H105.127H116.45C123.62 387.007 142.662 387.345 150.049 387.462L150.113 387.527Z" fill="#EBEBEB"/>
<path d="M125.153 405.898H80.2188V420.468H125.153V405.898Z" fill="#EBEBEB"/>
<path d="M583.841 58.4989H538.906V73.0683H583.841V58.4989Z" fill="#EBEBEB"/>
<path d="M558.778 568.831H513.844V583.4H558.778V568.831Z" fill="#EBEBEB"/>
<path d="M583.841 550.46C576.378 550.59 557.246 550.915 550.038 551.007H538.907L539.494 550.408V564.977L538.855 564.326C546.319 564.326 565.348 564.417 572.556 564.534L583.79 564.665L583.483 564.977L583.79 550.408L583.841 550.46ZM583.841 550.46L584.148 565.029V565.342H583.841C578.231 565.42 566.984 565.55 561.374 565.589L538.907 565.68H538.268V565.068L538.332 550.499V549.9H538.907H550.242C557.399 549.978 576.454 550.304 583.841 550.434V550.46Z" fill="#EBEBEB"/>
<path d="M100.092 568.831C92.6286 568.961 73.4969 569.287 66.289 569.365L55.1576 569.43L55.7455 568.831V583.4L55.1065 582.749C62.57 582.749 81.5995 582.84 88.8074 582.945L100.041 583.088L99.7343 583.4L100.041 568.831H100.092ZM100.092 568.831L100.386 583.4V583.713H100.079C94.4689 583.791 83.2097 583.921 77.6121 583.96L55.1449 584.051H54.5059V583.4V568.831V568.232H55.081H66.4168C73.5736 568.31 92.6158 568.636 100.015 568.766L100.092 568.831Z" fill="#EBEBEB"/>
<path d="M577.937 54.2153H275.357V276.909H577.937V54.2153Z" fill="white"/>
<path d="M581.642 280.685H271.65V50.4265H581.642V280.685ZM279.063 273.121H574.281V57.9911H279.063V273.121Z" fill="#EBEBEB"/>
<path d="M497.882 219.882C497.761 219.884 497.642 219.852 497.537 219.791L481.498 210.364C481.391 210.3 481.302 210.208 481.24 210.099C481.177 209.99 481.143 209.866 481.141 209.739V190.873C481.142 190.746 481.175 190.622 481.238 190.512C481.301 190.403 481.391 190.312 481.498 190.248L497.537 180.809C497.644 180.745 497.765 180.711 497.889 180.711C498.012 180.711 498.134 180.745 498.24 180.809L514.279 190.248C514.387 190.312 514.477 190.403 514.54 190.512C514.602 190.622 514.636 190.746 514.637 190.873V209.739C514.635 209.866 514.601 209.99 514.538 210.099C514.475 210.208 514.386 210.3 514.279 210.364L498.24 219.791C498.132 219.854 498.008 219.886 497.882 219.882ZM482.546 209.323L497.882 218.332L513.218 209.323V191.29L497.882 182.267L482.546 191.29V209.323Z" fill="#EBEBEB"/>
<path d="M529.961 219.882C529.836 219.885 529.712 219.853 529.603 219.791L513.577 210.364C513.468 210.302 513.377 210.211 513.315 210.101C513.252 209.991 513.219 209.866 513.219 209.739V190.873C513.217 190.746 513.25 190.62 513.313 190.51C513.376 190.4 513.467 190.31 513.577 190.248L529.603 180.809C529.712 180.745 529.835 180.711 529.961 180.711C530.086 180.711 530.21 180.745 530.318 180.809L546.345 190.248C546.454 190.31 546.545 190.4 546.609 190.51C546.672 190.62 546.704 190.746 546.702 190.873V209.739C546.703 209.866 546.67 209.991 546.607 210.101C546.544 210.211 546.453 210.302 546.345 210.364L530.37 219.791C530.246 219.863 530.103 219.895 529.961 219.882ZM514.625 209.323L529.961 218.333L545.297 209.323V191.29L529.961 182.267L514.625 191.29V209.323Z" fill="#EBEBEB"/>
<path d="M529.961 182.163C529.867 182.163 529.775 182.144 529.689 182.107C529.603 182.07 529.525 182.016 529.459 181.949C529.394 181.881 529.342 181.8 529.308 181.712C529.273 181.623 529.256 181.529 529.258 181.434V170.237C529.258 170.047 529.332 169.865 529.464 169.73C529.596 169.596 529.774 169.521 529.961 169.521C530.147 169.521 530.326 169.596 530.458 169.73C530.59 169.865 530.664 170.047 530.664 170.237V181.434C530.665 181.529 530.648 181.623 530.614 181.712C530.579 181.8 530.528 181.881 530.462 181.949C530.397 182.016 530.319 182.07 530.233 182.107C530.147 182.144 530.054 182.163 529.961 182.163Z" fill="#EBEBEB"/>
<path d="M545.999 191.589C545.87 191.592 545.743 191.558 545.633 191.492C545.522 191.425 545.432 191.328 545.372 191.212C545.285 191.044 545.265 190.848 545.318 190.665C545.371 190.483 545.491 190.329 545.653 190.235L554.983 185.027C555.064 184.982 555.154 184.953 555.246 184.942C555.338 184.932 555.432 184.94 555.521 184.967C555.61 184.994 555.693 185.038 555.765 185.097C555.837 185.157 555.897 185.231 555.941 185.314C555.986 185.397 556.015 185.488 556.025 185.582C556.035 185.676 556.027 185.771 556.001 185.862C555.975 185.953 555.931 186.037 555.873 186.111C555.814 186.184 555.742 186.245 555.66 186.29L546.331 191.498C546.231 191.56 546.116 191.592 545.999 191.589Z" fill="#EBEBEB"/>
<path d="M484.769 208.32C484.582 208.317 484.403 208.238 484.272 208.102C484.14 207.966 484.066 207.782 484.066 207.591V193.217C484.066 193.027 484.14 192.845 484.272 192.71C484.404 192.576 484.583 192.501 484.769 192.501C484.956 192.501 485.135 192.576 485.266 192.71C485.398 192.845 485.472 193.027 485.472 193.217V207.617C485.469 207.805 485.393 207.983 485.262 208.115C485.13 208.246 484.954 208.32 484.769 208.32Z" fill="#EBEBEB"/>
<path d="M517.871 208.32C517.778 208.32 517.685 208.301 517.599 208.264C517.513 208.227 517.435 208.174 517.369 208.106C517.304 208.038 517.252 207.957 517.218 207.869C517.183 207.781 517.166 207.686 517.168 207.591V193.217C517.168 193.027 517.242 192.845 517.374 192.71C517.506 192.576 517.685 192.501 517.871 192.501C518.057 192.501 518.236 192.576 518.368 192.71C518.5 192.845 518.574 193.027 518.574 193.217V207.617C518.571 207.805 518.495 207.983 518.364 208.115C518.232 208.246 518.055 208.32 517.871 208.32Z" fill="#EBEBEB"/>
<path d="M510.663 193.165C510.536 193.169 510.411 193.132 510.305 193.061L498.088 185.821C497.927 185.726 497.81 185.57 497.762 185.387C497.714 185.204 497.739 185.009 497.832 184.845C497.877 184.761 497.938 184.687 498.013 184.628C498.087 184.569 498.172 184.526 498.263 184.501C498.354 184.477 498.448 184.472 498.541 184.486C498.634 184.5 498.724 184.534 498.803 184.585L511.021 191.824C511.182 191.919 511.299 192.075 511.347 192.258C511.395 192.441 511.37 192.636 511.277 192.8C511.214 192.91 511.125 193.001 511.018 193.065C510.91 193.129 510.788 193.164 510.663 193.165Z" fill="#EBEBEB"/>
<path d="M542.524 193.165C542.397 193.169 542.272 193.132 542.166 193.061L529.948 185.822C529.867 185.776 529.796 185.714 529.739 185.639C529.682 185.565 529.641 185.48 529.617 185.388C529.593 185.297 529.588 185.202 529.601 185.109C529.613 185.016 529.645 184.926 529.692 184.845C529.737 184.763 529.798 184.69 529.871 184.632C529.944 184.575 530.028 184.532 530.118 184.508C530.207 184.484 530.3 184.478 530.392 184.491C530.484 184.504 530.572 184.536 530.651 184.585L542.869 191.824C542.988 191.908 543.078 192.028 543.128 192.166C543.178 192.305 543.184 192.456 543.146 192.599C543.109 192.741 543.028 192.868 542.917 192.963C542.805 193.057 542.668 193.114 542.524 193.126V193.165Z" fill="#EBEBEB"/>
<path d="M447.9 178.517C447.775 178.518 447.652 178.487 447.542 178.426L431.516 169C431.409 168.935 431.32 168.844 431.257 168.735C431.195 168.625 431.161 168.501 431.158 168.375V149.509C431.159 149.382 431.193 149.257 431.256 149.148C431.318 149.038 431.408 148.947 431.516 148.884L447.542 139.444C447.653 139.386 447.775 139.356 447.9 139.356C448.025 139.356 448.147 139.386 448.258 139.444L464.297 148.884C464.403 148.948 464.491 149.039 464.552 149.149C464.612 149.259 464.643 149.383 464.642 149.509V168.375C464.642 168.5 464.61 168.624 464.55 168.733C464.489 168.843 464.402 168.935 464.297 169L448.258 178.374C448.154 178.455 448.03 178.504 447.9 178.517ZM432.564 167.958L447.9 176.968L463.236 167.958V149.925L447.9 140.903L432.564 149.925V167.958Z" fill="#EBEBEB"/>
<path d="M447.9 140.798C447.713 140.795 447.534 140.717 447.402 140.58C447.271 140.444 447.197 140.26 447.197 140.069V128.898C447.197 128.708 447.271 128.526 447.403 128.392C447.535 128.257 447.714 128.182 447.9 128.182C448.082 128.189 448.254 128.267 448.381 128.401C448.507 128.534 448.578 128.712 448.578 128.898V140.095C448.574 140.278 448.502 140.453 448.376 140.584C448.25 140.715 448.08 140.792 447.9 140.798Z" fill="#EBEBEB"/>
<path d="M478.367 138.272C478.181 138.272 478.002 138.197 477.87 138.063C477.738 137.928 477.664 137.746 477.664 137.556V126.359C477.662 126.265 477.679 126.171 477.714 126.083C477.749 125.995 477.801 125.916 477.866 125.849C477.932 125.782 478.01 125.729 478.096 125.694C478.182 125.658 478.274 125.641 478.367 125.643C478.553 125.643 478.732 125.718 478.864 125.853C478.996 125.987 479.07 126.169 479.07 126.359V137.556C479.07 137.746 478.996 137.928 478.864 138.063C478.732 138.197 478.553 138.272 478.367 138.272Z" fill="#EBEBEB"/>
<path d="M463.912 150.225C463.784 150.228 463.657 150.194 463.546 150.127C463.436 150.06 463.346 149.963 463.286 149.847C463.202 149.679 463.184 149.484 463.236 149.302C463.289 149.121 463.407 148.966 463.567 148.871L472.897 143.663C472.978 143.617 473.067 143.588 473.16 143.578C473.252 143.567 473.345 143.576 473.434 143.602C473.524 143.629 473.607 143.673 473.679 143.733C473.751 143.793 473.811 143.866 473.855 143.949C473.9 144.032 473.928 144.123 473.939 144.217C473.949 144.311 473.941 144.406 473.914 144.497C473.888 144.588 473.845 144.673 473.786 144.746C473.728 144.82 473.656 144.881 473.574 144.926L464.245 150.134C464.145 150.196 464.029 150.227 463.912 150.225Z" fill="#EBEBEB"/>
<path d="M492.591 150.225C492.474 150.227 492.359 150.196 492.259 150.134L482.929 144.926C482.848 144.881 482.776 144.82 482.717 144.746C482.659 144.673 482.615 144.588 482.589 144.497C482.563 144.406 482.555 144.311 482.565 144.217C482.575 144.123 482.603 144.032 482.648 143.949C482.692 143.866 482.752 143.793 482.824 143.733C482.897 143.673 482.98 143.629 483.069 143.602C483.158 143.576 483.251 143.567 483.344 143.578C483.436 143.588 483.525 143.617 483.607 143.663L492.936 148.871C493.099 148.964 493.219 149.118 493.272 149.301C493.324 149.483 493.305 149.679 493.217 149.847C493.158 149.963 493.068 150.06 492.957 150.127C492.846 150.194 492.72 150.228 492.591 150.225Z" fill="#EBEBEB"/>
<path d="M460.871 166.982C460.683 166.978 460.505 166.9 460.373 166.763C460.242 166.627 460.168 166.444 460.168 166.252V151.852C460.168 151.662 460.242 151.48 460.374 151.346C460.506 151.212 460.684 151.136 460.871 151.136C461.057 151.136 461.236 151.212 461.368 151.346C461.5 151.48 461.574 151.662 461.574 151.852V166.252C461.575 166.348 461.559 166.442 461.524 166.53C461.489 166.619 461.438 166.699 461.372 166.767C461.307 166.835 461.229 166.889 461.143 166.926C461.057 166.963 460.964 166.982 460.871 166.982Z" fill="#EBEBEB"/>
<path d="M435.439 151.8C435.316 151.801 435.195 151.768 435.087 151.707C434.98 151.645 434.89 151.556 434.826 151.449C434.778 151.367 434.747 151.276 434.734 151.182C434.72 151.088 434.726 150.991 434.75 150.899C434.773 150.807 434.815 150.721 434.872 150.645C434.929 150.57 435 150.506 435.082 150.459L447.299 143.22C447.469 143.125 447.668 143.103 447.854 143.158C448.04 143.213 448.197 143.34 448.29 143.513C448.383 143.686 448.405 143.889 448.351 144.078C448.297 144.268 448.172 144.427 448.002 144.522L435.797 151.709C435.687 151.77 435.564 151.801 435.439 151.8Z" fill="#EBEBEB"/>
<path d="M356.433 108.561C356.313 108.557 356.195 108.526 356.088 108.47L340.049 99.0302C339.941 98.9667 339.852 98.8757 339.789 98.7661C339.726 98.6565 339.693 98.5321 339.691 98.4052V79.5392C339.694 79.4126 339.728 79.2887 339.791 79.1793C339.853 79.0699 339.942 78.9787 340.049 78.9143L356.088 69.4878C356.195 69.4236 356.316 69.3898 356.44 69.3898C356.563 69.3898 356.685 69.4236 356.791 69.4878L372.83 78.9143C372.935 78.9793 373.023 79.071 373.083 79.1805C373.144 79.29 373.175 79.4136 373.175 79.5392V98.4052C373.176 98.5311 373.145 98.6551 373.085 98.7648C373.024 98.8746 372.936 98.9661 372.83 99.0302L356.791 108.47C356.68 108.526 356.558 108.557 356.433 108.561ZM341.097 97.9886L356.433 107.011L371.769 97.9886V79.9559L356.433 70.946L341.097 79.9559V97.9886Z" fill="#EBEBEB"/>
<path d="M372.473 80.2684C372.345 80.2656 372.221 80.2294 372.111 80.1632C372.001 80.0971 371.91 80.0033 371.847 79.8908C371.763 79.7222 371.745 79.5272 371.797 79.3457C371.849 79.1642 371.968 79.0099 372.128 78.9143L381.457 73.7063C381.623 73.6132 381.819 73.5911 382.001 73.6448C382.183 73.6985 382.337 73.8237 382.428 73.9927C382.513 74.1613 382.53 74.3563 382.478 74.5378C382.426 74.7193 382.307 74.8736 382.147 74.9692L372.818 80.1772C372.71 80.2316 372.593 80.2626 372.473 80.2684Z" fill="#EBEBEB"/>
<path d="M343.973 97.0121C343.88 97.0139 343.788 96.9966 343.702 96.9612C343.615 96.9259 343.537 96.8732 343.472 96.8063C343.406 96.7395 343.354 96.6598 343.32 96.5721C343.285 96.4845 343.268 96.3905 343.27 96.296V81.8959C343.268 81.8014 343.285 81.7075 343.32 81.6198C343.354 81.5321 343.406 81.4525 343.472 81.3856C343.537 81.3188 343.615 81.2661 343.702 81.2307C343.788 81.1954 343.88 81.178 343.973 81.1798C344.159 81.1798 344.338 81.2553 344.47 81.3896C344.601 81.5239 344.675 81.706 344.675 81.8959V96.3481C344.663 96.5289 344.583 96.6979 344.452 96.8211C344.322 96.9443 344.15 97.0126 343.973 97.0121Z" fill="#EBEBEB"/>
<path d="M369.341 81.8437C369.219 81.8414 369.099 81.8054 368.996 81.7396L356.778 74.5005C356.696 74.4546 356.623 74.3921 356.565 74.3167C356.507 74.2413 356.465 74.1546 356.441 74.0619C356.417 73.9692 356.412 73.8725 356.426 73.7778C356.44 73.6831 356.473 73.5922 356.523 73.5109C356.616 73.3472 356.769 73.2279 356.949 73.1791C357.129 73.1303 357.32 73.156 357.481 73.2505L369.699 80.4897C369.86 80.5874 369.978 80.7459 370.025 80.9311C370.073 81.1162 370.048 81.3131 369.954 81.4792C369.893 81.59 369.804 81.6821 369.696 81.7462C369.588 81.8103 369.466 81.8439 369.341 81.8437Z" fill="#EBEBEB"/>
<path d="M357.124 104.993C356.979 104.982 356.842 104.925 356.73 104.83C356.619 104.736 356.539 104.609 356.501 104.466C356.463 104.324 356.469 104.173 356.519 104.034C356.569 103.895 356.659 103.776 356.779 103.691L368.996 96.4522C369.076 96.4036 369.164 96.3718 369.255 96.3586C369.347 96.3454 369.44 96.3511 369.53 96.3754C369.619 96.3997 369.703 96.4421 369.776 96.5C369.849 96.5579 369.91 96.6302 369.955 96.7126C370.048 96.8787 370.074 97.0756 370.026 97.2607C369.978 97.4459 369.861 97.6044 369.699 97.7021L357.481 104.941C357.369 104.99 357.245 105.008 357.124 104.993Z" fill="#EBEBEB"/>
<path d="M532.593 124.784C532.467 124.781 532.344 124.745 532.236 124.68L516.197 115.253C516.09 115.189 516.002 115.097 515.942 114.988C515.881 114.878 515.85 114.754 515.852 114.628V95.7621C515.85 95.6362 515.881 95.5122 515.942 95.4025C516.002 95.2927 516.09 95.2012 516.197 95.1372L532.236 85.7107C532.342 85.6465 532.463 85.6127 532.587 85.6127C532.711 85.6127 532.832 85.6465 532.939 85.7107L548.977 95.1372C549.085 95.2006 549.175 95.2916 549.238 95.4012C549.301 95.5108 549.334 95.6352 549.335 95.7621V114.576C549.334 114.703 549.301 114.827 549.238 114.937C549.175 115.047 549.085 115.138 548.977 115.201L532.926 124.68C532.826 124.743 532.711 124.779 532.593 124.784ZM517.257 114.211L532.593 123.234L547.929 114.211V96.1788L532.593 87.1689L517.257 96.1788V114.211Z" fill="#EBEBEB"/>
<path d="M548.618 96.4782C548.475 96.4642 548.339 96.4055 548.229 96.3103C548.12 96.215 548.041 96.0877 548.005 95.9456C547.969 95.8035 547.976 95.6535 548.026 95.5159C548.077 95.3782 548.167 95.2597 548.286 95.1762L557.615 89.9682C557.785 89.8767 557.983 89.8576 558.166 89.9149C558.35 89.9723 558.503 90.1015 558.593 90.2742C558.683 90.4469 558.702 90.6488 558.645 90.8356C558.589 91.0224 558.462 91.1787 558.293 91.2702L548.963 96.4782C548.849 96.5036 548.732 96.5036 548.618 96.4782Z" fill="#EBEBEB"/>
<path d="M520.144 113.274C519.958 113.274 519.779 113.199 519.647 113.064C519.515 112.93 519.441 112.748 519.441 112.558V98.1187C519.465 97.9438 519.549 97.7833 519.68 97.6671C519.81 97.5509 519.977 97.4868 520.151 97.4868C520.324 97.4868 520.491 97.5509 520.622 97.6671C520.752 97.7833 520.837 97.9438 520.86 98.1187V112.519C520.863 112.617 520.847 112.714 520.813 112.806C520.779 112.897 520.726 112.981 520.66 113.051C520.593 113.122 520.513 113.178 520.424 113.216C520.336 113.254 520.24 113.274 520.144 113.274Z" fill="#EBEBEB"/>
<path d="M545.501 98.0537C545.376 98.0563 545.252 98.0248 545.143 97.9625L532.925 90.7234C532.841 90.6755 532.768 90.6113 532.708 90.5344C532.648 90.4574 532.604 90.3693 532.578 90.275C532.552 90.1807 532.545 90.082 532.556 89.9847C532.567 89.8874 532.597 89.7934 532.644 89.7079C532.691 89.6224 532.754 89.5471 532.83 89.4865C532.905 89.4258 532.992 89.3809 533.084 89.3543C533.177 89.3277 533.274 89.3199 533.369 89.3315C533.465 89.343 533.557 89.3735 533.641 89.4214L545.859 96.6605C546.018 96.7606 546.133 96.9191 546.181 97.1033C546.228 97.2874 546.204 97.4832 546.114 97.6501C546.058 97.7681 545.971 97.8682 545.863 97.9394C545.755 98.0106 545.63 98.0501 545.501 98.0537Z" fill="#EBEBEB"/>
<path d="M533.284 121.216C533.138 121.207 532.999 121.152 532.886 121.058C532.772 120.965 532.69 120.838 532.651 120.695C532.612 120.552 532.617 120.4 532.666 120.26C532.715 120.12 532.806 119.999 532.926 119.914L545.143 112.675C545.223 112.627 545.311 112.596 545.403 112.583C545.495 112.57 545.588 112.575 545.677 112.598C545.767 112.622 545.851 112.663 545.925 112.72C545.999 112.777 546.061 112.848 546.108 112.929C546.155 113.01 546.186 113.1 546.199 113.193C546.212 113.287 546.207 113.382 546.183 113.473C546.16 113.564 546.12 113.65 546.064 113.725C546.008 113.801 545.939 113.864 545.859 113.912L533.641 121.086C533.535 121.16 533.412 121.205 533.284 121.216Z" fill="#EBEBEB"/>
<path d="M353.323 140.154L81.1543 175.724L128.775 553.915L400.944 518.346L353.323 140.154Z" fill="#EBEBEB"/>
<path d="M116.746 555.482L128.775 553.91L81.1551 175.718L69.1255 177.29L116.746 555.482Z" fill="#DBDBDB"/>
<path d="M353.327 140.148L81.1582 175.717L85.9113 213.465L358.08 177.896L353.327 140.148Z" fill="#DBDBDB"/>
<path d="M81.141 175.717L69.1113 177.289L73.8644 215.037L85.8941 213.465L81.141 175.717Z" fill="#A6A6A6"/>
<path d="M75.0967 214.876L74.4629 214.959L117.33 555.403L117.964 555.32L75.0967 214.876Z" fill="#C7C7C7"/>
<path d="M76.5576 214.689L75.9238 214.772L118.793 555.228L119.426 555.146L76.5576 214.689Z" fill="#C7C7C7"/>
<path d="M78.0166 214.489L77.3828 214.572L120.25 555.015L120.884 554.932L78.0166 214.489Z" fill="#C7C7C7"/>
<path d="M79.8631 213.619L79.2305 213.703L123.028 553.504L123.661 553.42L79.8631 213.619Z" fill="#C7C7C7"/>
<path d="M81.3084 213.428L80.6758 213.512L124.475 553.326L125.108 553.241L81.3084 213.428Z" fill="#C7C7C7"/>
<path d="M82.3819 213.914L81.748 213.997L124.617 554.453L125.251 554.37L82.3819 213.914Z" fill="#C7C7C7"/>
<path d="M83.8408 213.726L83.207 213.809L126.074 554.253L126.708 554.17L83.8408 213.726Z" fill="#C7C7C7"/>
<path d="M85.3018 213.539L84.668 213.622L127.537 554.078L128.171 553.996L85.3018 213.539Z" fill="#C7C7C7"/>
<path d="M134.039 329.107L232.385 315.95L232.116 313.862L133.77 327.019L134.039 329.107Z" fill="#C7C7C7"/>
<path d="M135.871 338.93L234.402 326.052L234.139 323.96L135.607 336.837L135.871 338.93Z" fill="#C7C7C7"/>
<path d="M133.067 316.778L346.014 288.948L345.75 286.856L132.804 314.686L133.067 316.778Z" fill="#C7C7C7"/>
<path d="M130.29 294.648L343.236 266.818L342.973 264.726L130.027 292.556L130.29 294.648Z" fill="#C7C7C7"/>
<path d="M128.899 283.571L341.846 255.741L341.582 253.649L128.636 281.479L128.899 283.571Z" fill="#C7C7C7"/>
<path d="M126.11 261.443L339.057 233.613L338.793 231.521L125.847 259.351L126.11 261.443Z" fill="#C7C7C7"/>
<path d="M124.708 250.365L337.654 222.536L337.391 220.444L124.445 248.273L124.708 250.365Z" fill="#C7C7C7"/>
<path d="M137.246 349.995L235.777 337.118L235.514 335.026L136.982 347.903L137.246 349.995Z" fill="#C7C7C7"/>
<path d="M138.636 361.06L237.168 348.183L236.905 346.091L138.373 358.968L138.636 361.06Z" fill="#C7C7C7"/>
<path d="M140.039 372.137L238.57 359.26L238.307 357.168L139.775 370.045L140.039 372.137Z" fill="#C7C7C7"/>
<path d="M141.427 383.214L239.959 370.337L239.696 368.245L141.164 381.122L141.427 383.214Z" fill="#C7C7C7"/>
<path d="M142.83 394.291L241.361 381.414L241.098 379.322L142.566 392.199L142.83 394.291Z" fill="#C7C7C7"/>
<path d="M144.218 405.342L242.75 392.465L242.487 390.373L143.955 403.25L144.218 405.342Z" fill="#C7C7C7"/>
<path d="M145.621 416.419L244.152 403.542L243.889 401.45L145.357 414.327L145.621 416.419Z" fill="#C7C7C7"/>
<path d="M147.009 427.496L245.541 414.619L245.278 412.527L146.746 425.404L147.009 427.496Z" fill="#C7C7C7"/>
<path d="M149.801 449.625L248.332 436.748L248.069 434.655L149.537 447.532L149.801 449.625Z" fill="#C7C7C7"/>
<path d="M151.189 460.702L249.721 447.825L249.457 445.733L150.926 458.61L151.189 460.702Z" fill="#C7C7C7"/>
<path d="M248.886 312.89L347.418 300.013L347.155 297.921L248.623 310.798L248.886 312.89Z" fill="#C7C7C7"/>
<path d="M250.275 323.967L348.807 311.09L348.543 308.998L250.012 321.875L250.275 323.967Z" fill="#C7C7C7"/>
<path d="M251.677 335.045L350.209 322.167L349.946 320.075L251.414 332.952L251.677 335.045Z" fill="#C7C7C7"/>
<path d="M253.068 346.122L351.6 333.245L351.336 331.152L252.805 344.03L253.068 346.122Z" fill="#C7C7C7"/>
<path d="M254.47 357.186L353.002 344.309L352.739 342.216L254.207 355.093L254.47 357.186Z" fill="#C7C7C7"/>
<path d="M257.234 379.329L355.766 366.452L355.502 364.36L256.971 377.237L257.234 379.329Z" fill="#C7C7C7"/>
<path d="M258.636 390.393L357.168 377.516L356.905 375.424L258.373 388.301L258.636 390.393Z" fill="#C7C7C7"/>
<path d="M260.027 401.47L358.559 388.593L358.295 386.501L259.764 399.378L260.027 401.47Z" fill="#C7C7C7"/>
<path d="M261.427 412.534L359.959 399.657L359.696 397.565L261.164 410.442L261.427 412.534Z" fill="#C7C7C7"/>
<path d="M262.816 423.598L361.348 410.721L361.084 408.629L262.553 421.506L262.816 423.598Z" fill="#C7C7C7"/>
<path d="M264.219 434.675L362.75 421.798L362.487 419.706L263.955 432.583L264.219 434.675Z" fill="#C7C7C7"/>
<path d="M265.609 445.753L364.141 432.875L363.877 430.783L265.346 443.66L265.609 445.753Z" fill="#C7C7C7"/>
<path opacity="0.1" d="M116.782 187.488C116.944 188.765 116.73 190.063 116.168 191.217C115.606 192.37 114.72 193.328 113.623 193.969C112.526 194.61 111.268 194.904 110.006 194.816C108.745 194.728 107.538 194.26 106.537 193.472C105.537 192.685 104.788 191.612 104.386 190.391C103.984 189.17 103.947 187.855 104.279 186.612C104.611 185.369 105.297 184.255 106.251 183.409C107.205 182.564 108.384 182.026 109.638 181.863C111.317 181.646 113.013 182.116 114.352 183.17C115.691 184.225 116.565 185.778 116.782 187.488Z" fill="black"/>
<path d="M114.277 187.762C114.367 188.524 114.234 189.296 113.896 189.982C113.557 190.668 113.027 191.237 112.373 191.618C111.719 191.999 110.969 192.175 110.217 192.124C109.464 192.073 108.744 191.798 108.145 191.332C107.546 190.866 107.095 190.231 106.848 189.505C106.601 188.78 106.57 187.996 106.758 187.252C106.946 186.509 107.345 185.838 107.905 185.324C108.465 184.811 109.161 184.476 109.907 184.363C110.414 184.286 110.931 184.314 111.427 184.444C111.923 184.575 112.389 184.805 112.797 185.122C113.204 185.439 113.545 185.835 113.8 186.289C114.054 186.742 114.216 187.243 114.277 187.762Z" fill="#263238"/>
<path opacity="0.1" d="M149.831 183.113C149.993 184.391 149.779 185.688 149.217 186.842C148.654 187.996 147.769 188.953 146.672 189.594C145.575 190.235 144.316 190.53 143.055 190.441C141.794 190.353 140.587 189.885 139.586 189.098C138.586 188.31 137.837 187.238 137.435 186.017C137.033 184.795 136.996 183.48 137.328 182.237C137.66 180.994 138.346 179.88 139.3 179.034C140.254 178.189 141.433 177.651 142.687 177.489C144.366 177.271 146.062 177.741 147.401 178.795C148.74 179.85 149.614 181.403 149.831 183.113Z" fill="black"/>
<path d="M147.327 183.439C147.419 184.204 147.286 184.979 146.946 185.667C146.607 186.355 146.075 186.925 145.417 187.306C144.76 187.687 144.007 187.862 143.253 187.808C142.499 187.754 141.777 187.474 141.178 187.003C140.58 186.532 140.131 185.891 139.889 185.162C139.647 184.432 139.622 183.645 139.818 182.901C140.013 182.157 140.421 181.489 140.988 180.98C141.556 180.471 142.258 180.144 143.008 180.041C143.511 179.971 144.023 180.004 144.513 180.138C145.003 180.272 145.463 180.504 145.865 180.82C146.267 181.136 146.603 181.53 146.854 181.98C147.105 182.429 147.266 182.925 147.327 183.439Z" fill="#263238"/>
<path opacity="0.1" d="M182.882 178.804C183.044 180.081 182.83 181.379 182.267 182.532C181.705 183.686 180.82 184.644 179.723 185.285C178.626 185.925 177.367 186.22 176.106 186.132C174.845 186.043 173.637 185.576 172.637 184.788C171.637 184 170.888 182.928 170.486 181.707C170.084 180.486 170.047 179.17 170.379 177.928C170.71 176.685 171.397 175.57 172.351 174.725C173.305 173.88 174.484 173.342 175.738 173.179C177.417 172.961 179.112 173.431 180.452 174.486C181.791 175.54 182.665 177.093 182.882 178.804Z" fill="black"/>
<path d="M180.39 179.129C180.478 179.893 180.343 180.667 180.002 181.353C179.661 182.039 179.128 182.607 178.471 182.986C177.814 183.365 177.062 183.538 176.309 183.483C175.555 183.428 174.835 183.148 174.237 182.678C173.64 182.207 173.192 181.568 172.95 180.839C172.708 180.11 172.683 179.325 172.877 178.582C173.072 177.838 173.477 177.17 174.043 176.661C174.608 176.151 175.309 175.823 176.057 175.718C176.562 175.647 177.076 175.679 177.569 175.813C178.062 175.946 178.523 176.179 178.927 176.497C179.33 176.814 179.667 177.211 179.918 177.663C180.17 178.115 180.33 178.613 180.39 179.129Z" fill="#263238"/>
<path opacity="0.1" d="M215.981 174.468C216.143 175.745 215.929 177.043 215.367 178.197C214.805 179.35 213.919 180.308 212.822 180.949C211.726 181.59 210.467 181.884 209.205 181.796C207.944 181.708 206.737 181.24 205.736 180.452C204.736 179.665 203.988 178.592 203.586 177.371C203.184 176.15 203.146 174.835 203.478 173.592C203.81 172.349 204.496 171.234 205.45 170.389C206.404 169.544 207.583 169.006 208.837 168.843C210.517 168.626 212.212 169.096 213.551 170.15C214.891 171.205 215.765 172.758 215.981 174.468Z" fill="black"/>
<path d="M213.54 174.793C213.629 175.557 213.494 176.331 213.152 177.017C212.811 177.703 212.278 178.271 211.621 178.65C210.964 179.029 210.212 179.202 209.459 179.148C208.706 179.093 207.985 178.812 207.388 178.342C206.79 177.872 206.343 177.232 206.101 176.503C205.859 175.775 205.833 174.989 206.028 174.246C206.222 173.503 206.627 172.834 207.193 172.325C207.759 171.816 208.46 171.488 209.208 171.382C209.713 171.311 210.227 171.343 210.719 171.477C211.212 171.611 211.674 171.843 212.077 172.161C212.48 172.479 212.818 172.875 213.069 173.327C213.32 173.779 213.48 174.278 213.54 174.793Z" fill="#263238"/>
<path opacity="0.1" d="M249.21 170.132C249.372 171.41 249.158 172.707 248.596 173.861C248.033 175.015 247.148 175.972 246.051 176.613C244.954 177.254 243.695 177.549 242.434 177.46C241.173 177.372 239.965 176.904 238.965 176.117C237.965 175.329 237.216 174.257 236.814 173.036C236.412 171.814 236.375 170.499 236.707 169.256C237.039 168.013 237.725 166.899 238.679 166.054C239.633 165.208 240.812 164.67 242.066 164.508C243.745 164.29 245.44 164.76 246.78 165.815C248.119 166.869 248.993 168.422 249.21 170.132Z" fill="black"/>
<path d="M246.654 170.458C246.745 171.222 246.612 171.997 246.273 172.684C245.933 173.372 245.402 173.942 244.745 174.323C244.089 174.704 243.336 174.879 242.583 174.825C241.829 174.772 241.107 174.493 240.509 174.024C239.91 173.554 239.461 172.915 239.218 172.186C238.975 171.457 238.948 170.672 239.142 169.928C239.335 169.184 239.74 168.514 240.306 168.004C240.872 167.494 241.573 167.165 242.321 167.06C242.825 166.989 243.338 167.02 243.83 167.153C244.322 167.286 244.783 167.517 245.187 167.834C245.59 168.15 245.927 168.545 246.179 168.996C246.431 169.446 246.592 169.943 246.654 170.458Z" fill="#263238"/>
<path opacity="0.1" d="M282.183 165.823C282.344 167.1 282.131 168.398 281.568 169.551C281.006 170.705 280.12 171.663 279.024 172.304C277.927 172.944 276.668 173.239 275.407 173.151C274.145 173.062 272.938 172.595 271.938 171.807C270.937 171.019 270.189 169.947 269.787 168.726C269.385 167.505 269.347 166.19 269.679 164.947C270.011 163.704 270.698 162.589 271.652 161.744C272.606 160.899 273.784 160.361 275.039 160.198C276.718 159.98 278.413 160.45 279.753 161.505C281.092 162.559 281.966 164.112 282.183 165.823Z" fill="black"/>
<path d="M279.69 166.148C279.779 166.912 279.644 167.686 279.303 168.372C278.961 169.058 278.429 169.626 277.772 170.005C277.115 170.384 276.362 170.557 275.609 170.502C274.856 170.447 274.136 170.167 273.538 169.697C272.941 169.226 272.493 168.587 272.251 167.858C272.009 167.129 271.984 166.344 272.178 165.601C272.372 164.858 272.778 164.189 273.344 163.68C273.909 163.17 274.61 162.842 275.358 162.737C275.863 162.666 276.377 162.698 276.87 162.832C277.362 162.966 277.824 163.198 278.227 163.516C278.631 163.833 278.968 164.23 279.219 164.682C279.47 165.134 279.631 165.632 279.69 166.148Z" fill="#263238"/>
<path opacity="0.1" d="M315.268 161.448C315.43 162.725 315.217 164.023 314.654 165.177C314.092 166.33 313.206 167.288 312.109 167.929C311.013 168.569 309.754 168.864 308.493 168.776C307.231 168.688 306.024 168.22 305.024 167.432C304.023 166.645 303.275 165.572 302.873 164.351C302.471 163.13 302.433 161.815 302.765 160.572C303.097 159.329 303.784 158.214 304.738 157.369C305.692 156.524 306.87 155.986 308.124 155.823C309.804 155.606 311.499 156.076 312.838 157.13C314.178 158.185 315.052 159.738 315.268 161.448Z" fill="black"/>
<path d="M312.764 161.826C312.853 162.59 312.719 163.364 312.377 164.051C312.035 164.738 311.502 165.306 310.844 165.685C310.187 166.064 309.434 166.237 308.68 166.181C307.926 166.126 307.205 165.844 306.608 165.373C306.011 164.901 305.564 164.26 305.323 163.53C305.082 162.8 305.058 162.015 305.255 161.271C305.451 160.528 305.858 159.86 306.426 159.352C306.994 158.843 307.696 158.517 308.445 158.414C308.949 158.345 309.461 158.379 309.953 158.513C310.444 158.648 310.904 158.881 311.306 159.198C311.708 159.516 312.044 159.912 312.294 160.363C312.545 160.814 312.705 161.311 312.764 161.826Z" fill="#263238"/>
<path opacity="0.1" d="M348.458 157.165C348.62 158.442 348.406 159.74 347.844 160.893C347.281 162.047 346.396 163.005 345.299 163.645C344.202 164.286 342.943 164.581 341.682 164.492C340.421 164.404 339.213 163.937 338.213 163.149C337.213 162.361 336.464 161.289 336.062 160.068C335.66 158.847 335.623 157.531 335.955 156.288C336.287 155.046 336.973 153.931 337.927 153.086C338.881 152.24 340.06 151.702 341.314 151.54C342.993 151.322 344.688 151.792 346.028 152.847C347.367 153.901 348.241 155.454 348.458 157.165Z" fill="black"/>
<path d="M345.954 157.542C346.043 158.306 345.908 159.081 345.566 159.767C345.225 160.454 344.692 161.023 344.034 161.402C343.376 161.781 342.623 161.953 341.869 161.897C341.116 161.842 340.395 161.56 339.798 161.089C339.2 160.617 338.753 159.976 338.512 159.247C338.272 158.517 338.248 157.731 338.444 156.987C338.64 156.244 339.048 155.576 339.615 155.068C340.183 154.56 340.885 154.234 341.634 154.131C342.138 154.061 342.651 154.095 343.142 154.23C343.633 154.364 344.093 154.597 344.495 154.915C344.897 155.232 345.233 155.628 345.484 156.079C345.734 156.53 345.894 157.027 345.954 157.542Z" fill="#263238"/>
<path d="M111.837 174.221C112.246 177.437 113.217 187.97 113.217 187.97C113.677 191.615 108.105 192.332 107.684 188.699C107.262 185.066 106.406 178.608 105.664 172.697C104.642 164.625 100.834 162.164 97.3958 162.62C93.1145 163.18 91.2358 168.765 91.9259 174.338L86.3666 175.067C84.7819 162.503 90.06 156.839 96.1305 156.097C105.358 154.847 110.125 160.602 111.837 174.221Z" fill="#A6A6A6"/>
<path d="M144.925 169.898C145.334 173.114 146.305 183.647 146.305 183.647C146.765 187.293 141.193 188.009 140.771 184.376C140.349 180.744 139.493 174.286 138.752 168.362C137.729 160.302 133.921 157.842 130.483 158.297C126.202 158.857 124.323 164.443 125.013 170.015L119.454 170.744C117.869 158.18 123.16 152.516 129.218 151.761C138.445 150.524 143.212 156.24 144.925 169.898Z" fill="#A6A6A6"/>
<path d="M178.012 165.562C178.421 168.791 179.393 179.324 179.393 179.324C179.853 182.97 174.281 183.673 173.859 180.054C173.437 176.434 172.581 169.963 171.84 164.039C170.83 155.98 167.009 153.519 163.571 153.975C159.29 154.534 157.411 160.12 158.101 165.693L152.542 166.422C150.957 153.857 156.248 148.194 162.306 147.438C171.546 146.202 176.364 151.943 178.012 165.562Z" fill="#A6A6A6"/>
<path d="M211.098 161.24C211.507 164.469 212.479 175.002 212.479 175.002C212.939 178.647 207.367 179.351 206.945 175.718C206.523 172.085 205.667 165.641 204.926 159.716C203.916 151.657 200.095 149.196 196.657 149.639C192.376 150.199 190.497 155.784 191.2 161.357L185.628 162.086C184.043 149.509 189.334 143.858 195.392 143.103C204.632 141.918 209.386 147.621 211.098 161.24Z" fill="#A6A6A6"/>
<path d="M244.199 156.917C244.595 160.146 245.566 170.679 245.566 170.679C246.027 174.325 240.455 175.028 240.033 171.395C239.611 167.763 238.755 161.318 238.014 155.394C237.004 147.334 233.183 144.874 229.745 145.316C225.464 145.876 223.585 151.462 224.288 157.034L218.716 157.75C217.131 145.186 222.422 139.522 228.48 138.78C237.707 137.543 242.474 143.298 244.199 156.917Z" fill="#A6A6A6"/>
<path d="M277.326 152.594C277.722 155.823 278.693 166.357 278.693 166.357C279.154 169.989 273.581 170.705 273.16 167.073C272.738 163.44 271.882 156.982 271.14 151.071C270.131 143.012 266.31 140.551 262.885 140.994C258.591 141.554 256.712 147.139 257.415 152.712L251.843 153.441C250.258 140.876 255.549 135.213 261.607 134.471C270.808 133.221 275.562 138.976 277.326 152.594Z" fill="#A6A6A6"/>
<path d="M310.375 148.272C310.771 151.488 311.742 162.021 311.742 162.021C312.202 165.666 306.63 166.383 306.209 162.75C305.787 159.117 304.931 152.659 304.189 146.748C303.18 138.676 299.358 136.228 295.933 136.671C291.652 137.231 289.761 142.816 290.464 148.389L284.892 149.118C283.307 136.554 288.598 130.89 294.655 130.148C303.895 128.898 308.662 134.653 310.375 148.272Z" fill="#A6A6A6"/>
<path d="M343.461 143.949C343.87 147.165 344.828 157.698 344.828 157.698C345.288 161.344 339.716 162.06 339.295 158.427C338.873 154.795 338.017 148.337 337.275 142.426C336.266 134.353 332.444 131.893 329.019 132.348C324.738 132.908 322.847 138.494 323.55 144.066L317.977 144.796C316.393 132.231 321.684 126.568 327.741 125.825C336.981 124.575 341.748 130.33 343.461 143.949Z" fill="#A6A6A6"/>
<path d="M321.737 537.244H94.5215V561.748H321.737V537.244Z" fill="#FFC727"/>
<path opacity="0.6" d="M321.737 537.244H94.5215V561.748H321.737V537.244Z" fill="white"/>
<path d="M278.885 561.748H301.084V537.244H278.885V561.748Z" fill="#FFC727"/>
<path d="M261.377 561.748H270.643V537.244H261.377V561.748Z" fill="#FFC727"/>
<path d="M114.752 561.748H136.951V537.244H114.752V561.748Z" fill="#FFC727"/>
<path d="M332.191 597.41H98.4961V614.791H332.191V597.41Z" fill="#455A64"/>
<path d="M160.133 597.41H150.6V614.791H160.133V597.41Z" fill="#FFC727"/>
<path d="M144.313 597.41H134.779V614.791H144.313V597.41Z" fill="#FFC727"/>
<path d="M308.893 597.41H299.359V614.791H308.893V597.41Z" fill="#FFC727"/>
<path d="M293.071 597.41H283.537V614.791H293.071V597.41Z" fill="#FFC727"/>
<path d="M245.926 511.308H104.477V537.257H245.926V511.308Z" fill="#455A64"/>
<path d="M329.942 511.308H245.76V537.257H329.942V511.308Z" fill="#37474F"/>
<path d="M242.794 514.004H104.477V534.562H242.794V514.004Z" fill="white"/>
<path d="M113.424 530.331C124.21 530.478 134.992 530.582 145.77 530.643L178.116 530.734L210.45 530.643C221.236 530.591 232.018 530.487 242.796 530.331C232.009 530.183 221.227 530.083 210.45 530.031L178.116 529.94L145.77 530.031C134.984 530.083 124.202 530.183 113.424 530.331Z" fill="#DBDBDB"/>
<path d="M113.424 526.307C124.21 526.446 134.992 526.546 145.77 526.607L178.116 526.698L210.45 526.607C221.236 526.555 232.018 526.455 242.796 526.307C232.009 526.151 221.227 526.047 210.45 525.995L178.116 525.904L145.77 525.995C134.984 526.004 124.202 526.108 113.424 526.307Z" fill="#DBDBDB"/>
<path d="M113.424 522.271C124.21 522.419 134.992 522.519 145.77 522.571L178.116 522.662L210.45 522.571C221.236 522.519 232.018 522.419 242.796 522.271C232.009 522.115 221.227 522.011 210.45 521.959L178.116 521.868L145.77 521.959C134.984 522.054 124.202 522.158 113.424 522.271Z" fill="#DBDBDB"/>
<path d="M113.424 518.196C124.21 518.343 134.992 518.443 145.77 518.495L178.116 518.586L210.45 518.495C221.236 518.443 232.018 518.343 242.796 518.196C232.009 518.057 221.227 517.953 210.45 517.883L178.116 517.792L145.77 517.896C134.984 517.975 124.202 518.074 113.424 518.196Z" fill="#DBDBDB"/>
<path d="M231.626 557.282L221.99 546.918L212.354 557.282V530.422L214.411 526.307H233.683L231.626 530.422V557.282Z" fill="#FFC727"/>
<path d="M227.957 597.41H364.141V561.748H227.957V597.41Z" fill="#37474F"/>
<path d="M77.1158 597.41H227.945V561.748H77.1158V597.41Z" fill="#263238"/>
<path d="M232.098 593.712H364.141V565.458H232.098V593.712Z" fill="white"/>
<path d="M355.591 571.266C345.299 571.118 335.006 571.018 324.714 570.966L293.851 570.875L262.974 570.966C252.682 571.018 242.39 571.118 232.098 571.266C242.381 571.413 252.673 571.513 262.974 571.565L293.851 571.656L324.714 571.565C335.015 571.513 345.307 571.413 355.591 571.266Z" fill="#DBDBDB"/>
<path d="M355.591 576.786C345.299 576.647 335.006 576.543 324.714 576.473L293.851 576.382L262.974 576.473C252.682 576.526 242.39 576.63 232.098 576.786C242.381 576.933 252.673 577.033 262.974 577.085L293.851 577.176L324.714 577.085C335.015 577.051 345.307 576.951 355.591 576.786Z" fill="#DBDBDB"/>
<path d="M355.591 582.358C345.299 582.202 335.006 582.098 324.714 582.046L293.851 581.994L262.974 582.085C252.682 582.137 242.39 582.241 232.098 582.398C242.381 582.545 252.673 582.645 262.974 582.697L293.851 582.788L324.714 582.697C335.015 582.619 345.307 582.506 355.591 582.358Z" fill="#DBDBDB"/>
<path d="M355.591 587.892C345.299 587.753 335.006 587.653 324.714 587.593L293.851 587.501L262.974 587.593C252.682 587.645 242.39 587.744 232.098 587.892C242.381 588.048 252.673 588.152 262.974 588.205L293.851 588.296L324.714 588.205C335.015 588.152 345.307 588.048 355.591 587.892Z" fill="#DBDBDB"/>
<path d="M158.575 511.308H287.576V484.227H158.575V511.308Z" fill="#FFC727"/>
<path d="M85.0381 511.308H158.574V484.227H85.0381V511.308Z" fill="#FFC727"/>
<path opacity="0.2" d="M85.0394 511.308H155.291V484.227H85.0394V511.308Z" fill="black"/>
<path d="M158.575 508.496H287.576V487.026H158.575V508.496Z" fill="white"/>
<path d="M279.217 491.453C269.172 491.297 259.119 491.192 249.057 491.14L218.896 491.036L188.735 491.14C178.69 491.192 168.636 491.297 158.574 491.453C168.628 491.609 178.681 491.713 188.735 491.765L218.896 491.869L249.057 491.765C259.119 491.713 269.172 491.609 279.217 491.453Z" fill="#DBDBDB"/>
<path d="M279.217 495.658C269.172 495.511 259.119 495.407 249.057 495.346L218.896 495.255L188.735 495.346C178.69 495.398 168.636 495.502 158.574 495.658C168.628 495.814 178.681 495.923 188.735 495.984L218.896 496.075L249.057 495.984C259.119 495.923 269.172 495.814 279.217 495.658Z" fill="#DBDBDB"/>
<path d="M279.217 499.877C269.172 499.721 259.119 499.612 249.057 499.551L218.896 499.46L188.735 499.551C178.69 499.612 168.636 499.721 158.574 499.877C168.628 500.033 178.681 500.137 188.735 500.189L218.896 500.293L249.057 500.189C259.119 500.137 269.172 500.033 279.217 499.877Z" fill="#DBDBDB"/>
<path d="M279.217 504.082C269.172 503.935 259.119 503.831 249.057 503.77L218.896 503.679L188.735 503.77C178.69 503.822 168.636 503.926 158.574 504.082C168.628 504.239 178.681 504.347 188.735 504.408L218.896 504.499L249.057 504.408C259.119 504.347 269.172 504.239 279.217 504.082Z" fill="#DBDBDB"/>
<path d="M181.439 520.253L187.675 513.548L193.912 520.253V502.884L192.583 500.215H180.109L181.439 502.884V520.253Z" fill="#455A64"/>
<path d="M462.635 127.127V450.023H289.748V450.622C289.751 462.526 285.182 473.958 277.019 482.474C268.856 490.99 257.746 495.913 246.066 496.192H244.519C242.999 496.202 241.48 496.12 239.97 495.945L231.637 494.2C229.57 493.526 227.554 492.699 225.605 491.727C224.631 491.285 223.684 490.785 222.768 490.229C222.27 489.968 221.795 489.663 221.349 489.318C220.048 488.544 218.805 487.674 217.63 486.714C217.423 486.568 217.226 486.407 217.042 486.232C216.135 485.577 215.281 484.85 214.486 484.058C214.077 483.693 213.668 483.276 213.208 482.86C208.056 477.691 204.256 471.29 202.154 464.241C202.111 464.095 202.051 463.955 201.975 463.825C201.681 462.744 201.387 461.598 201.157 460.452C200.795 459.009 200.556 457.537 200.441 456.052C200.326 455.388 200.326 454.75 200.262 454.073C200.237 453.852 200.237 453.629 200.262 453.409C200.262 452.562 200.083 451.781 200.083 450.935V127.596C200.083 114.823 191.329 81.935 152.605 81.935H418.238C424.066 81.9298 429.839 83.095 435.225 85.3638C440.612 87.6326 445.506 90.9607 449.629 95.1577C453.753 99.3547 457.023 104.338 459.255 109.824C461.487 115.31 462.636 121.189 462.635 127.127Z" fill="white"/>
<path d="M462.636 127.127C462.725 127.323 462.866 450.114 462.93 450.323C462.994 450.531 289.876 450.401 289.812 450.492L290.272 450.023C290.276 454.913 289.578 459.778 288.202 464.463C286.014 471.479 282.221 477.865 277.135 483.095C272.049 488.324 265.815 492.246 258.948 494.539C252.805 496.497 246.336 497.166 239.932 496.505L231.535 494.76C229.172 494.018 226.879 493.059 224.685 491.896C217.53 488.32 211.443 482.863 207.052 476.087C202.662 469.312 200.128 461.464 199.713 453.356C199.419 450.284 199.56 444.776 199.534 441.638C199.534 433.826 199.534 412.187 199.534 404.063C199.598 321.763 199.713 210.911 199.777 128.52C199.777 112.05 190.933 95.2674 176.326 87.6507C168.971 84.0002 160.875 82.1711 152.695 82.3125V81.6355C217.145 81.7917 356.856 81.6355 419.797 81.961C443.351 82.5469 462.751 103.118 462.597 127.127H462.636ZM462.636 127.127C462.738 103.21 443.389 82.5989 419.823 82.0912C357.508 81.9219 216.621 82.2995 152.721 82.2734V81.6355C161.008 81.4714 169.215 83.3097 176.671 86.9997C191.521 94.7075 200.48 111.738 200.582 128.481C200.671 210.911 200.761 321.685 200.825 404.024C200.825 412.161 200.825 433.709 200.825 441.599C200.901 444.672 200.646 450.258 200.991 453.317C201.108 455.504 201.377 457.68 201.796 459.827C203.143 466.46 205.946 472.696 209.994 478.07C214.041 483.443 219.23 487.813 225.171 490.854C227.28 491.981 229.483 492.917 231.752 493.653L240.085 495.411C246.324 496.112 252.638 495.455 258.609 493.485C264.58 491.515 270.073 488.275 274.724 483.981C279.375 479.687 283.078 474.436 285.588 468.576C288.099 462.715 289.36 456.378 289.288 449.984V449.516H289.748L462.572 449.685C462.137 451.638 462.572 126.633 462.572 127.088L462.636 127.127Z" fill="#263238"/>
<path d="M340.599 109.238L433.369 109.238V106.647L340.599 106.647V109.238Z" fill="#DBDBDB"/>
<path d="M232.865 177.723H325.635V175.132H232.865V177.723Z" fill="#DBDBDB"/>
<path d="M232.865 191.433H325.635V188.842H232.865V191.433Z" fill="#DBDBDB"/>
<path d="M232.865 205.13H325.635V202.539H232.865V205.13Z" fill="#DBDBDB"/>
<path d="M232.865 218.827H325.635V216.236H232.865V218.827Z" fill="#DBDBDB"/>
<path d="M232.865 232.524H325.635V229.933H232.865V232.524Z" fill="#DBDBDB"/>
<path d="M232.865 246.221H325.635V243.63H232.865V246.221Z" fill="#DBDBDB"/>
<path d="M232.865 259.905H325.635V257.314H232.865V259.905Z" fill="#DBDBDB"/>
<path d="M232.865 273.602H325.635V271.011H232.865V273.602Z" fill="#DBDBDB"/>
<path d="M232.865 287.299H325.635V284.708H232.865V287.299Z" fill="#DBDBDB"/>
<path d="M232.865 301.01H325.635V298.419H232.865V301.01Z" fill="#DBDBDB"/>
<path d="M232.865 328.404H325.635V325.813H232.865V328.404Z" fill="#DBDBDB"/>
<path d="M232.865 342.101H325.635V339.51H232.865V342.101Z" fill="#DBDBDB"/>
<path d="M232.865 355.798H325.635V353.207H232.865V355.798Z" fill="#DBDBDB"/>
<path d="M232.865 369.495H325.635V366.904H232.865V369.495Z" fill="#DBDBDB"/>
<path d="M232.865 396.889H325.635V394.298H232.865V396.889Z" fill="#DBDBDB"/>
<path d="M232.865 410.586H325.635V407.995H232.865V410.586Z" fill="#DBDBDB"/>
<path d="M232.865 424.296H325.635V421.705H232.865V424.296Z" fill="#DBDBDB"/>
<path d="M340.599 122.935L433.369 122.935V120.344L340.599 120.344V122.935Z" fill="#DBDBDB"/>
<path d="M340.599 136.632H433.369V134.041H340.599V136.632Z" fill="#DBDBDB"/>
<path d="M340.599 150.329H433.369V147.738H340.599V150.329Z" fill="#DBDBDB"/>
<path d="M340.599 164.026H433.369V161.435H340.599V164.026Z" fill="#DBDBDB"/>
<path d="M340.599 177.723H433.369V175.132H340.599V177.723Z" fill="#DBDBDB"/>
<path d="M340.599 191.433H433.369V188.842H340.599V191.433Z" fill="#DBDBDB"/>
<path d="M340.599 205.13H433.369V202.539H340.599V205.13Z" fill="#DBDBDB"/>
<path d="M340.599 218.827H433.369V216.236H340.599V218.827Z" fill="#DBDBDB"/>
<path d="M340.599 232.524H433.369V229.933H340.599V232.524Z" fill="#DBDBDB"/>
<path d="M340.599 259.905H433.369V257.314H340.599V259.905Z" fill="#DBDBDB"/>
<path d="M340.599 273.602H433.369V271.011H340.599V273.602Z" fill="#DBDBDB"/>
<path d="M340.599 287.299H433.369V284.708H340.599V287.299Z" fill="#DBDBDB"/>
<path d="M340.599 301.01H433.369V298.419H340.599V301.01Z" fill="#DBDBDB"/>
<path d="M340.599 314.707H433.369V312.116H340.599V314.707Z" fill="#DBDBDB"/>
<path d="M340.599 328.404H433.369V325.813H340.599V328.404Z" fill="#DBDBDB"/>
<path d="M340.599 342.101H433.369V339.51H340.599V342.101Z" fill="#DBDBDB"/>
<path d="M340.599 355.798H433.369V353.207H340.599V355.798Z" fill="#DBDBDB"/>
<path d="M232.865 109.121L279.257 109.003C294.72 109.003 310.171 109.003 325.635 109.121C310.171 109.225 294.72 109.199 279.257 109.238L232.865 109.121Z" fill="#DBDBDB"/>
<path d="M232.865 112.649L279.257 112.532C294.72 112.532 310.171 112.532 325.635 112.649C310.171 112.753 294.72 112.727 279.257 112.766L232.865 112.649Z" fill="#DBDBDB"/>
<path d="M232.865 116.177L279.257 116.073C294.72 116.073 310.171 116.073 325.635 116.177C310.171 116.282 294.72 116.256 279.257 116.295L232.865 116.177Z" fill="#DBDBDB"/>
<path d="M232.865 119.706L279.257 119.602C294.72 119.602 310.171 119.602 325.635 119.706C310.171 119.81 294.72 119.784 279.257 119.823L232.865 119.706Z" fill="#DBDBDB"/>
<path d="M232.865 123.247L279.257 123.13C294.72 123.13 310.171 123.13 325.635 123.247C310.171 123.338 294.72 123.247 279.257 123.351L232.865 123.247Z" fill="#DBDBDB"/>
<path d="M232.865 126.776L279.257 126.659C294.72 126.659 310.171 126.659 325.635 126.776C310.171 126.867 294.72 126.776 279.257 126.893L232.865 126.776Z" fill="#DBDBDB"/>
<path d="M232.865 130.304L279.257 130.187C294.72 130.187 310.171 130.187 325.635 130.304C310.171 130.395 294.72 130.382 279.257 130.421L232.865 130.304Z" fill="#DBDBDB"/>
<path d="M232.865 133.833L279.257 133.715C294.72 133.715 310.171 133.715 325.635 133.833C310.171 133.937 294.72 133.911 279.257 133.95L232.865 133.833Z" fill="#DBDBDB"/>
<path d="M232.865 137.361L279.257 137.244C294.72 137.244 310.171 137.244 325.635 137.361C310.171 137.465 294.72 137.439 279.257 137.478L232.865 137.361Z" fill="#DBDBDB"/>
<path d="M232.865 140.889L279.257 140.772C294.72 140.772 310.171 140.772 325.635 140.889C310.171 140.994 294.72 140.968 279.257 141.007L232.865 140.889Z" fill="#DBDBDB"/>
<path d="M232.865 144.418L279.257 144.301C294.72 144.301 310.171 144.301 325.635 144.418C310.171 144.522 294.72 144.496 279.257 144.535L232.865 144.418Z" fill="#DBDBDB"/>
<path d="M232.865 147.946L279.257 147.842C294.72 147.842 310.171 147.842 325.635 147.946C310.171 148.05 294.72 148.024 279.257 148.063L232.865 147.946Z" fill="#DBDBDB"/>
<path d="M232.865 151.488L279.257 151.371C294.72 151.371 310.171 151.371 325.635 151.488C310.171 151.579 294.72 151.553 279.257 151.592L232.865 151.488Z" fill="#DBDBDB"/>
<path d="M232.865 155.016L279.257 154.899C294.72 154.899 310.171 154.899 325.635 155.016C310.171 155.107 294.72 155.016 279.257 155.12L232.865 155.016Z" fill="#DBDBDB"/>
<path d="M232.865 158.545L279.257 158.427C294.72 158.427 310.171 158.427 325.635 158.545C310.171 158.636 294.72 158.545 279.257 158.662L232.865 158.545Z" fill="#DBDBDB"/>
<path d="M249.709 133.833H242.68V162.659H249.709V133.833Z" fill="#FFC727"/>
<path d="M262.758 121.633H255.729V162.646H262.758V121.633Z" fill="#263238"/>
<path d="M275.804 130.421H268.775V162.659H275.804V130.421Z" fill="#DBDBDB"/>
<path d="M288.853 119.706H281.824V162.646H288.853V119.706Z" fill="#FFC727"/>
<path d="M301.916 125.474H294.887V162.659H301.916V125.474Z" fill="#263238"/>
<path d="M314.963 146.54H307.934V162.659H314.963V146.54Z" fill="#DBDBDB"/>
<path d="M235.382 106.647L235.573 120.643L235.714 134.653C235.804 143.988 235.829 153.324 235.842 162.659L235.382 162.229H257.951H280.508L303.077 162.359L325.634 162.62L303.077 162.867L280.508 163.01H257.951H234.947V162.581C234.947 153.245 234.947 143.91 235.088 134.575L235.216 120.565L235.382 106.647Z" fill="#DBDBDB"/>
<path d="M249.709 165.615H242.68V166.213H249.709V165.615Z" fill="#DBDBDB"/>
<path d="M262.758 165.615H255.729V166.213H262.758V165.615Z" fill="#DBDBDB"/>
<path d="M275.804 165.615H268.775V166.213H275.804V165.615Z" fill="#DBDBDB"/>
<path d="M288.853 165.615H281.824V166.213H288.853V165.615Z" fill="#DBDBDB"/>
<path d="M301.916 165.615H294.887V166.213H301.916V165.615Z" fill="#DBDBDB"/>
<path d="M314.963 165.615H307.934V166.213H314.963V165.615Z" fill="#DBDBDB"/>
<path d="M388.231 388.322C388.231 392.802 386.936 397.184 384.509 400.92C382.082 404.657 378.63 407.583 374.582 409.336L365.828 388.322H388.231Z" fill="#FFC727"/>
<path d="M362.953 386.759L371.707 407.76C371.017 408.047 370.327 408.307 369.649 408.529C365.314 409.882 360.68 409.882 356.345 408.529C352.883 407.422 349.735 405.477 347.171 402.86C344.607 400.244 342.703 397.033 341.623 393.504C340.277 389.094 340.277 384.372 341.623 379.963C342.7 376.434 344.603 373.225 347.168 370.613C349.732 368 352.882 366.061 356.345 364.964C360.678 363.592 365.317 363.592 369.649 364.964C373.114 366.061 376.265 368 378.832 370.612C381.399 373.225 383.304 376.434 384.385 379.963C385.048 382.156 385.388 384.438 385.394 386.733L362.953 386.759Z" fill="#FFC727"/>
<path d="M362.953 386.759L371.707 407.76C371.017 408.047 370.327 408.307 369.65 408.529C365.144 409.958 360.31 409.9 355.838 408.365C351.366 406.83 347.484 403.895 344.745 399.98C342.007 396.064 340.552 391.368 340.589 386.56C340.625 381.753 342.15 377.079 344.948 373.207C347.745 369.335 351.671 366.462 356.166 364.997C360.661 363.532 365.495 363.551 369.978 365.05C374.462 366.55 378.367 369.453 381.135 373.347C383.903 377.241 385.394 381.925 385.395 386.733L362.953 386.759Z" fill="#DBDBDB"/>
<path d="M362.952 386.759L348.383 404.05C345.539 401.558 343.357 398.378 342.035 394.802C340.713 391.226 340.295 387.369 340.819 383.585C341.342 379.801 342.791 376.212 345.032 373.148C347.272 370.084 350.233 367.642 353.642 366.048C357.05 364.454 360.798 363.759 364.539 364.025C368.281 364.292 371.896 365.512 375.054 367.575C378.211 369.637 380.81 372.474 382.61 375.826C384.41 379.179 385.354 382.938 385.355 386.759H362.952Z" fill="#455A64"/>
<path d="M399.809 416.979H382.901L361.955 395.652L362.262 395.339L383.08 416.549H399.809V416.979Z" fill="#263238"/>
<path d="M363.285 394.285H360.934V396.68H363.285V394.285Z" fill="#263238"/>
<path d="M399.81 400.469H380.755L371.707 391.264L372.014 390.952L380.934 400.04H399.81V400.469Z" fill="#263238"/>
<path d="M373.035 389.91H370.684V392.306H373.035V389.91Z" fill="#263238"/>
<path d="M399.809 384.142H370.99V384.585H399.809V384.142Z" fill="#263238"/>
<path d="M371.848 383.166H369.496V385.561H371.848V383.166Z" fill="#263238"/>
<path d="M427.299 381.955H406.365V383.934H427.299V381.955Z" fill="#EBEBEB"/>
<path d="M433.536 386.095H406.365V388.074H433.536V386.095Z" fill="#EBEBEB"/>
<path d="M420.883 390.235H406.365V392.214H420.883V390.235Z" fill="#EBEBEB"/>
<path d="M402.174 381.955H397.445V386.772H402.174V381.955Z" fill="#455A64"/>
<path d="M429.842 397.982H406.365V399.961H429.842V397.982Z" fill="#EBEBEB"/>
<path d="M425.944 402.123H406.365V404.102H425.944V402.123Z" fill="#EBEBEB"/>
<path d="M433.536 406.276H406.365V408.255H433.536V406.276Z" fill="#EBEBEB"/>
<path d="M402.174 397.982H397.445V402.8H402.174V397.982Z" fill="#FFC727"/>
<path d="M429.842 414.01H406.365V415.989H429.842V414.01Z" fill="#EBEBEB"/>
<path d="M425.944 418.163H406.365V420.142H425.944V418.163Z" fill="#EBEBEB"/>
<path d="M433.536 422.304H406.365V424.283H433.536V422.304Z" fill="#EBEBEB"/>
<path d="M402.174 414.01H397.445V418.827H402.174V414.01Z" fill="#DBDBDB"/>
<path d="M155.916 81.948C167.787 81.9653 179.166 86.7826 187.553 95.3418C195.94 103.901 200.649 115.502 200.646 127.596V147.256H111.109V127.596C111.108 121.601 112.266 115.664 114.517 110.125C116.768 104.586 120.068 99.5534 124.229 95.3142C128.39 91.075 133.33 87.7127 138.767 85.4193C144.204 83.1258 150.031 81.9463 155.916 81.948Z" fill="#DBDBDB"/>
<path d="M527.891 450.023V450.622C527.894 462.526 523.326 473.958 515.163 482.474C506.999 490.99 495.89 495.913 484.209 496.192H246.066C257.747 495.913 268.857 490.99 277.02 482.474C285.183 473.958 289.752 462.526 289.748 450.622V450.023H527.891Z" fill="#DBDBDB"/>
<path d="M69.7148 614.804C229.746 613.997 409.254 613.997 569.285 614.804C409.254 615.599 229.746 615.599 69.7148 614.804Z" fill="#263238"/>
<path d="M569.285 111.022C569.285 115.998 567.929 120.876 565.366 125.113C562.804 129.349 559.137 132.777 554.774 135.014C550.411 137.252 545.524 138.21 540.657 137.783C535.791 137.356 531.137 135.56 527.214 132.596L514.293 135.955L519.673 123.69C517.782 120.089 516.722 116.097 516.573 112.016C516.424 107.936 517.191 103.874 518.814 100.14C520.437 96.4067 522.875 93.0992 525.941 90.4695C529.008 87.8397 532.622 85.9568 536.51 84.964C540.398 83.9712 544.457 83.8946 548.379 84.74C552.3 85.5855 555.981 87.3306 559.14 89.8429C562.3 92.3552 564.857 95.5684 566.614 99.2383C568.372 102.908 569.286 106.938 569.285 111.022Z" fill="white"/>
<path d="M569.285 111.022C569.528 126.502 555.738 139.444 540.619 138.09C535.682 137.71 530.946 135.933 526.945 132.96L527.328 133.038L514.433 136.502L513.309 136.801L513.781 135.721L519.111 123.443V123.99C516.213 118.444 515.277 112.052 516.462 105.887C517.647 99.7214 520.879 94.16 525.616 90.1375C542.933 75.5811 569.259 88.1845 569.259 111.048L569.285 111.022ZM569.285 111.022C569.362 93.8612 552.875 80.7761 536.594 85.3331C520.593 89.3693 512.312 108.678 520.21 123.404L520.363 123.677L520.235 123.95L514.804 136.176L514.152 135.395L527.098 132.14H527.315L527.482 132.27C544.607 145.486 569.183 132.908 569.285 111.074V111.022Z" fill="#263238"/>
<path d="M538.652 127.01L526.83 114.823L530.805 110.826L537.706 117.948L552.045 95.0331L556.748 98.0928L538.652 127.01Z" fill="#FFC727"/>
</svg>
