<svg width="28" height="28" viewBox="0 0 28 28" fill="none" xmlns="http://www.w3.org/2000/svg">
<path d="M20.4627 0C18.0838 0 16.155 1.93092 16.155 4.30769C16.155 7.17769 19.9243 11.0988 19.9243 15.0435H21.0012C21.0023 11.0988 24.7704 7.29077 24.7704 4.30769C24.7704 1.93092 22.8417 0 20.4627 0ZM20.4627 2.08708C20.7545 2.08722 21.0434 2.14482 21.3129 2.25661C21.5824 2.36839 21.8272 2.53215 22.0334 2.73856C22.2396 2.94496 22.4031 3.18996 22.5147 3.45956C22.6262 3.72916 22.6835 4.01809 22.6834 4.30985C22.6832 4.6016 22.6256 4.89048 22.5138 5.15997C22.402 5.42946 22.2383 5.6743 22.0319 5.8805C21.8255 6.08671 21.5805 6.25024 21.3109 6.36176C21.0413 6.47328 20.7523 6.5306 20.4606 6.53046C19.8712 6.53018 19.3061 6.29577 18.8895 5.87882C18.473 5.46187 18.2391 4.89653 18.2394 4.30715C18.2397 3.71778 18.4741 3.15266 18.8911 2.73611C19.308 2.31957 19.8734 2.08571 20.4627 2.086V2.08708ZM14.0012 2.15385C6.8752 2.15385 1.07812 7.95092 1.07812 15.0769C1.07812 22.2029 6.8752 28 14.0012 28C21.1272 28 26.9243 22.2029 26.9243 15.0769C26.9243 12.9123 26.388 10.8812 25.4435 9.086C25.3003 9.37031 25.156 9.64062 25.0063 9.92815C24.723 10.4752 24.4247 11.0277 24.1641 11.5769C24.4334 12.3469 24.6186 13.1611 24.7026 14H23.2897C23.2121 14.3608 23.155 14.7 23.155 15.0435V16.1538H24.7037C24.5575 17.6721 24.0867 19.1412 23.323 20.4615H20.1612C20.3981 19.4514 20.5349 18.3346 20.6318 17.1974H18.5103C18.4099 18.2993 18.219 19.391 17.9395 20.4615H10.0629C9.69894 19.0521 9.48452 17.6082 9.4232 16.1538H17.7694V15.0435C17.761 14.6919 17.7159 14.3422 17.6347 14H9.42428C9.4856 12.5456 9.70001 11.1017 10.064 9.69231H15.819C15.4455 8.98693 15.0971 8.26853 14.7744 7.53846H10.8038C11.6944 5.50631 12.8715 4.30769 14.0012 4.30769C14.0012 3.55923 14.1358 2.856 14.3717 2.18723C14.2478 2.18292 14.1261 2.15385 14.0012 2.15385ZM9.55889 5.28338C9.13002 5.99965 8.76945 6.75467 8.48197 7.53846H6.32812C7.25707 6.59432 8.35235 5.82981 9.55889 5.28338ZM4.67936 9.69231H7.8412C7.51548 11.107 7.32402 12.5493 7.26936 14H3.29874C3.44437 12.4816 3.91525 11.0124 4.67936 9.69231ZM3.29874 16.1538H7.27043C7.33397 17.6885 7.53212 19.1369 7.84228 20.4615H4.67936C3.91617 19.141 3.44536 17.672 3.29874 16.1538ZM6.32812 22.6154H8.48197C8.79212 23.4511 9.15505 24.2017 9.55889 24.8705C8.35235 24.324 7.25707 23.5595 6.32812 22.6154ZM10.8038 22.6154H17.1986C16.308 24.6475 15.1309 25.8462 14.0012 25.8462C12.8715 25.8462 11.6934 24.6475 10.8038 22.6154ZM19.5204 22.6154H21.6743C20.7453 23.5595 19.6501 24.324 18.4435 24.8705C18.8474 24.2028 19.2103 23.4522 19.5204 22.6154Z" fill="#006872"/>
</svg>
