<svg width="285" height="221" viewBox="0 0 285 221" fill="none" xmlns="http://www.w3.org/2000/svg">
<path d="M4.75131 221H251.718C253.077 221 254.373 220.415 255.272 219.403C256.168 218.392 256.597 217.033 256.436 215.685L250.232 164.008H280.214C282.841 164.008 284.963 161.879 284.963 159.258V92.7673C284.963 90.8061 283.757 89.0484 281.929 88.3403L237.395 71.0624L271.694 36.7633C280.097 28.361 280.097 14.698 271.694 6.30172C263.298 -2.10057 249.629 -2.10057 241.233 6.30172L195.73 51.8044L173.018 40.991C171.214 40.1217 169.038 40.5013 167.618 41.9218L116.77 92.7676H49.6924C43.4613 92.7676 37.9992 96.758 36.1141 102.699L5.86044 197.838C2.26026 201.294 0 206.13 0 211.501V216.25C0 218.871 2.12239 221 4.74936 221L4.75131 221ZM12.9164 204.267C12.944 204.248 12.9737 204.239 13.0012 204.22C13.8514 203.523 15.1151 202.73 16.7286 202.312C16.805 202.293 16.8749 202.259 16.9576 202.24C17.2863 202.164 17.6552 202.145 18.0071 202.107C18.2976 202.079 18.5775 202.022 18.8722 202.022C21.143 202.102 23.3926 202.929 25.193 204.687C27.0694 206.515 28.1804 208.966 28.403 211.502H9.50113C9.50113 208.59 10.8454 206.012 12.9169 204.267L12.9164 204.267ZM275.466 96.0197V154.51H151.983C150.274 154.51 148.625 154.031 147.077 153.089C145.79 152.305 144.675 151.175 143.642 149.432C143.366 148.923 143.148 148.383 142.983 147.846C142.974 147.823 142.802 147.286 142.792 147.257C142.584 146.417 142.484 145.686 142.484 145.011C142.484 139.772 146.744 135.513 151.983 135.513H213.725C215.372 135.513 216.897 134.658 217.766 133.261C218.635 131.859 218.712 130.112 217.976 128.639L205.256 103.207L230.063 78.3998L275.466 96.0197ZM119.915 171.906L101.921 179.62L107.065 159.051L119.915 171.906ZM198.174 110.284L206.04 126.014H182.446L198.174 110.284ZM225.531 69.4965L169.017 126.011H151.985C141.508 126.011 132.987 134.532 132.987 145.009C132.987 145.901 133.087 146.813 133.233 147.739C133.31 148.257 133.409 148.761 133.528 149.268C133.547 149.353 133.555 149.44 133.575 149.525C133.647 149.819 133.74 150.123 133.884 150.566C134.658 153.078 135.884 155.415 137.618 157.399L128.238 166.79L111.206 149.758L227.975 32.989L245.007 50.021L225.531 69.4965ZM247.953 13.0144C252.645 8.32234 260.293 8.32234 264.985 13.0144C269.677 17.7108 269.677 25.3481 264.985 30.0465L251.719 43.311L234.687 26.279L247.953 13.0144ZM171.969 51.0093L188.606 58.9307L124.878 122.659C121.492 126.045 115.981 126.045 112.595 122.659C112.174 122.237 111.807 121.785 111.489 121.306C111.442 121.234 111.412 121.154 111.37 121.084C111.113 120.666 110.872 120.238 110.691 119.792C110.668 119.731 110.658 119.669 110.634 119.608C110.458 119.141 110.306 118.667 110.212 118.179C110.193 118.075 110.197 117.96 110.178 117.857C110.041 116.968 110.041 116.067 110.178 115.179C110.193 115.075 110.187 114.96 110.212 114.856C110.308 114.373 110.458 113.898 110.634 113.427C110.658 113.366 110.668 113.304 110.691 113.243C110.872 112.796 111.109 112.369 111.37 111.952C111.412 111.88 111.442 111.799 111.489 111.729C111.807 111.25 112.173 110.798 112.595 110.376L171.969 51.0093ZM105.88 103.659C98.7897 110.749 98.7897 122.282 105.88 129.372C106.895 130.394 108.025 131.225 109.204 131.946C109.569 132.168 109.95 132.34 110.326 132.535C111.176 132.982 112.041 133.366 112.938 133.665C113.161 133.741 113.36 133.879 113.585 133.945L101.133 146.397C101.128 146.401 101.128 146.412 101.124 146.416C100.734 146.81 100.439 147.285 100.208 147.794C100.147 147.932 100.094 148.066 100.047 148.203C100 148.341 99.924 148.46 99.8901 148.602L90.3914 186.597C89.9503 188.35 90.544 190.197 91.9158 191.365C92.7873 192.116 93.8834 192.506 94.9902 192.506C95.622 192.506 96.2624 192.383 96.8624 192.122L130.051 177.898C130.055 177.898 130.059 177.893 130.059 177.893L130.106 177.874C130.615 177.656 131.047 177.334 131.44 176.971C131.486 176.929 131.55 176.914 131.597 176.867L145.592 162.871C145.758 162.933 145.94 162.952 146.105 163.009C146.775 163.232 147.454 163.412 148.139 163.56C148.438 163.622 148.728 163.698 149.027 163.751C150.007 163.906 150.99 164.01 151.983 164.01H240.668L246.367 211.504H39.5069L70.0939 102.268H107.266L105.88 103.659ZM18.9744 192.508C18.8324 192.508 18.6903 192.508 18.5461 192.512C18.1942 192.516 17.8528 192.535 17.5008 192.565L45.1617 105.573C45.7977 103.597 47.6127 102.267 49.6927 102.267H60.2324L33.1546 198.959C30.4088 195.863 26.7155 193.65 22.4834 192.857C22.2311 192.804 21.9661 192.819 21.7095 192.781C20.8169 192.647 19.9243 192.505 18.9977 192.505H18.9893H18.9744L18.9744 192.508Z" fill="#006872"/>
<path d="M57.1602 191.223L80.9026 105.734L90.0599 108.277L66.3175 193.765L57.1602 191.223Z" fill="#006872"/>
</svg>
